<?xml version="1.0" encoding="UTF-8" standalone="no"?>
<svg
   xmlns:dc="http://purl.org/dc/elements/1.1/"
   xmlns:cc="http://creativecommons.org/ns#"
   xmlns:rdf="http://www.w3.org/1999/02/22-rdf-syntax-ns#"
   xmlns:svg="http://www.w3.org/2000/svg"
   xmlns="http://www.w3.org/2000/svg"
   xmlns:xlink="http://www.w3.org/1999/xlink"
   xmlns:sodipodi="http://sodipodi.sourceforge.net/DTD/sodipodi-0.dtd"
   xmlns:inkscape="http://www.inkscape.org/namespaces/inkscape"
   preserveAspectRatio="xMidYMid meet"
   viewBox="0 0 640 420"
   width="640"
   height="420"
   version="1.1"
   id="svg331"
   sodipodi:docname="ts-migrations-header.svg"
   inkscape:version="0.92.4 (e05b578, 2019-02-26)">
  <metadata
     id="metadata335">
    <rdf:RDF>
      <cc:Work
         rdf:about="">
        <dc:format>image/svg+xml</dc:format>
        <dc:type
           rdf:resource="http://purl.org/dc/dcmitype/StillImage" />
        <dc:title></dc:title>
      </cc:Work>
    </rdf:RDF>
  </metadata>
  <sodipodi:namedview
     pagecolor="#ffffff"
     bordercolor="#666666"
     borderopacity="1"
     objecttolerance="10"
     gridtolerance="10"
     guidetolerance="10"
     inkscape:pageopacity="0"
     inkscape:pageshadow="2"
     inkscape:window-width="640"
     inkscape:window-height="480"
     id="namedview333"
     showgrid="false"
     inkscape:zoom="0.453125"
     inkscape:cx="320"
     inkscape:cy="210"
     inkscape:window-x="2349"
     inkscape:window-y="242"
     inkscape:window-maximized="0"
     inkscape:current-layer="svg331" />
  <defs
     id="defs309">
    <path
       d="M375.22 83.06C453.36 83.06 516.71 137.27 516.71 204.15C516.71 206.67 516.63 209.19 516.43 211.66C572.87 221.83 614.37 255.89 614.37 296.35C614.37 296.35 614.37 296.35 614.37 296.35C614.37 344.83 554.79 384.14 481.29 384.14C447.9 384.14 180.84 384.14 147.46 384.14C73.97 384.14 14.37 344.83 14.37 296.35C14.37 296.35 14.37 296.35 14.37 296.35C14.37 254.07 59.66 218.79 119.96 210.45C125.37 164.61 170.57 128.85 225.54 128.85C237.63 128.85 249.21 130.58 260.04 133.75C285.73 103.07 327.74 83.06 375.22 83.06Z"
       id="boxcLf0zO" />
    <path
       d="M266.98 167.2L177.69 239.11L266.98 311.01L266.98 264.27L389.18 264.27L389.18 311.01L478.48 239.11L389.18 167.2L389.18 213.94L266.98 213.94L266.98 167.2Z"
       id="bEEBpyEHr" />
  </defs>
  <g
     id="g329"
     transform="translate(4,-18)">
    <g
       id="g327">
      <g
         id="g317">
        <use
           xlink:href="#boxcLf0zO"
           id="use311"
           style="opacity:1;fill:#ffffff;fill-opacity:0"
           x="0"
           y="0"
           width="100%"
           height="100%" />
        <g
           id="g315">
          <use
             xlink:href="#boxcLf0zO"
             id="use313"
             style="opacity:1;fill-opacity:0;stroke:#f5f5f5;stroke-width:15;stroke-opacity:1"
             x="0"
             y="0"
             width="100%"
             height="100%" />
        </g>
      </g>
      <g
         id="g325">
        <use
           xlink:href="#bEEBpyEHr"
           id="use319"
           style="opacity:1;fill:#ffffff;fill-opacity:0"
           x="0"
           y="0"
           width="100%"
           height="100%" />
        <g
           id="g323">
          <use
             xlink:href="#bEEBpyEHr"
             id="use321"
             style="opacity:1;fill-opacity:0;stroke:#f5f5f5;stroke-width:15;stroke-opacity:1"
             x="0"
             y="0"
             width="100%"
             height="100%" />
        </g>
      </g>
    </g>
  </g>
</svg>
