<?xml version="1.0" encoding="UTF-8" standalone="no"?>
<!DOCTYPE svg PUBLIC "-//W3C//DTD SVG 1.1//EN" "http://www.w3.org/Graphics/SVG/1.1/DTD/svg11.dtd">
<svg preserveAspectRatio="xMidYMid meet" viewBox="0 0 640 640" width="640" height="640"><defs><path d="M611.12 344.72C611.12 492.74 480.67 612.92 320 612.92C159.33 612.92 28.88 492.74 28.88 344.72C28.88 196.7 159.33 76.52 320 76.52C480.67 76.52 611.12 196.7 611.12 344.72Z" id="bU7LchO2i"></path><path d="M323.94 72.67L323.94 46.29L323.94 31.99" id="acuo8ViQk"></path><path d="M65.77 135.53L125.97 86.52L143.53 104.14L83.34 153.15L65.77 135.53Z" id="b3RjTE36c"></path><path d="M124.54 138.08L113.81 126.56L98.79 110.43" id="j1QLsJJxjT"></path><path d="M355.89 338.53C355.89 354.47 341.58 367.41 323.94 367.41C306.31 367.41 291.99 354.47 291.99 338.53C291.99 322.6 306.31 309.66 323.94 309.66C341.58 309.66 355.89 322.6 355.89 338.53Z" id="cAhpwenp1"></path><path d="M323.94 136.83L323.94 118.51L323.94 102.83" id="c3oLRpwfmX"></path><path d="M323.94 583.97L323.94 565.1L323.94 548.97" id="aHHpFzDXy"></path><path d="M92.03 338.53L55.51 338.53" id="c231DnUKgA"></path><path d="M584.51 338.53L547.99 338.53" id="b1g6GpQkKa"></path><path d="M323.94 142.08L323.94 142.08L343.34 333.08L304.54 333.08L323.94 142.08Z" id="dpikOXKH6"></path><path d="M272.59 21.1L370.73 21.1L370.73 56.16L272.59 56.16L272.59 21.1Z" id="b5vNZZbpOt"></path></defs><g><g><g><g><use xlink:href="#bU7LchO2i" opacity="1" fill-opacity="0" stroke="#f5f5f5" stroke-width="29" stroke-opacity="1"></use></g></g><g><g><use xlink:href="#acuo8ViQk" opacity="1" fill-opacity="0" stroke="#f5f5f5" stroke-width="17" stroke-opacity="1"></use></g></g><g><use xlink:href="#b3RjTE36c" opacity="1" fill="#f5f5f5" fill-opacity="1"></use></g><g><g><use xlink:href="#j1QLsJJxjT" opacity="1" fill-opacity="0" stroke="#f5f5f5" stroke-width="12" stroke-opacity="1"></use></g></g><g><use xlink:href="#cAhpwenp1" opacity="1" fill="#f5f5f5" fill-opacity="1"></use></g><g><g><use xlink:href="#c3oLRpwfmX" opacity="1" fill-opacity="0" stroke="#f5f5f5" stroke-width="15" stroke-opacity="1"></use></g></g><g><g><use xlink:href="#aHHpFzDXy" opacity="1" fill-opacity="0" stroke="#f5f5f5" stroke-width="15" stroke-opacity="1"></use></g></g><g><g><use xlink:href="#c231DnUKgA" opacity="1" fill-opacity="0" stroke="#f5f5f5" stroke-width="15" stroke-opacity="1"></use></g></g><g><g><use xlink:href="#b1g6GpQkKa" opacity="1" fill-opacity="0" stroke="#f5f5f5" stroke-width="15" stroke-opacity="1"></use></g></g><g><use xlink:href="#dpikOXKH6" opacity="1" fill="#f5f5f5" fill-opacity="1"></use></g><g><use xlink:href="#b5vNZZbpOt" opacity="1" fill="#f5f5f5" fill-opacity="1"></use></g></g></g></svg>