<svg width="640" height="640" version="1.1" viewBox="0 0 640 640" xmlns="http://www.w3.org/2000/svg" xmlns:xlink="http://www.w3.org/1999/xlink">
 <defs>
  <path id="bU7LchO2i" d="m611.12 344.72c0 148.02-130.45 268.2-291.12 268.2s-291.12-120.18-291.12-268.2 130.45-268.2 291.12-268.2 291.12 120.18 291.12 268.2z"/>
  <path id="acuo8ViQk" d="m323.94 72.67v-26.38-14.3"/>
  <path id="b3RjTE36c" d="m65.77 135.53 60.2-49.01 17.56 17.62-60.19 49.01-17.57-17.62z"/>
  <path id="j1QLsJJxjT" d="m124.54 138.08-10.73-11.52-15.02-16.13"/>
  <path id="cAhpwenp1" d="m355.89 338.53c0 15.94-14.31 28.88-31.95 28.88-17.63 0-31.95-12.94-31.95-28.88 0-15.93 14.32-28.87 31.95-28.87 17.64 0 31.95 12.94 31.95 28.87z"/>
  <path id="c3oLRpwfmX" d="m323.94 136.83v-18.32-15.68"/>
  <path id="aHHpFzDXy" d="m323.94 583.97v-18.87-16.13"/>
  <path id="c231DnUKgA" d="m92.03 338.53h-36.52"/>
  <path id="b1g6GpQkKa" d="m584.51 338.53h-36.52"/>
  <path id="dpikOXKH6" d="m323.94 142.08 19.4 191h-38.8l19.4-191z"/>
  <path id="b5vNZZbpOt" d="m272.59 21.1h98.14v35.06h-98.14v-35.06z"/>
 </defs>
 <use fill-opacity="0" stroke="#f5f5f5" stroke-width="29" xlink:href="#bU7LchO2i"/>
 <use fill-opacity="0" stroke="#f5f5f5" stroke-width="17" xlink:href="#acuo8ViQk"/>
 <use fill="#f5f5f5" xlink:href="#b3RjTE36c"/>
 <use fill-opacity="0" stroke="#f5f5f5" stroke-width="12" xlink:href="#j1QLsJJxjT"/>
 <use fill="#f5f5f5" xlink:href="#cAhpwenp1"/>
 <use fill-opacity="0" stroke="#f5f5f5" stroke-width="15" xlink:href="#c3oLRpwfmX"/>
 <use fill-opacity="0" stroke="#f5f5f5" stroke-width="15" xlink:href="#aHHpFzDXy"/>
 <use fill-opacity="0" stroke="#f5f5f5" stroke-width="15" xlink:href="#c231DnUKgA"/>
 <use fill-opacity="0" stroke="#f5f5f5" stroke-width="15" xlink:href="#b1g6GpQkKa"/>
 <use fill="#f5f5f5" xlink:href="#dpikOXKH6"/>
 <use fill="#f5f5f5" xlink:href="#b5vNZZbpOt"/>
</svg>
