<?xml version="1.0" encoding="UTF-8" standalone="no"?>
<!DOCTYPE svg PUBLIC "-//W3C//DTD SVG 1.1//EN" "http://www.w3.org/Graphics/SVG/1.1/DTD/svg11.dtd">
<svg version="1.1" xmlns="http://www.w3.org/2000/svg" xmlns:xlink="http://www.w3.org/1999/xlink" preserveAspectRatio="xMidYMid meet" viewBox="0 0 640 640" width="16" height="16"><defs><path d="M287.42 17.21C308.95 13.14 331.05 13.14 352.58 17.21C359.43 18.5 357.53 18.14 366.91 19.92C378.47 22.1 386.84 32.2 386.84 43.97C386.84 123.7 386.84 337.44 386.84 415.88C386.84 430.66 374.87 442.63 360.1 442.63C338.71 442.63 302.48 442.63 281.39 442.63C265.8 442.63 253.16 429.99 253.16 414.4C253.16 336.25 253.16 122.98 253.16 43.07C253.16 31.82 261.16 22.17 272.2 20.08C281.76 18.28 280.57 18.5 287.42 17.21Z" id="dEBUOjqC5"></path><path d="M320.37 461.4C364.65 461.53 411.87 441.54 462.05 401.44C474.52 391.48 490.58 408.23 480.11 420.27C422.19 486.86 368.93 520.09 320.33 519.95C273.31 519.81 219.99 487.57 160.35 423.2C148.92 410.87 165.33 392.7 178.76 402.82C230.42 441.75 277.62 461.28 320.37 461.4Z" id="aZ9Sfs01R"></path><path d="M296.84 527.89L343.16 527.89L343.16 622.63L296.84 622.63L296.84 527.89Z" id="g1OswOx9my"></path></defs><g><g><g><g><filter id="shadow11950678" x="232.16" y="-6.5" width="176.68" height="472.13" filterUnits="userSpaceOnUse" primitiveUnits="userSpaceOnUse"><feFlood></feFlood><feComposite in2="SourceAlpha" operator="in"></feComposite><feGaussianBlur stdDeviation="2.24"></feGaussianBlur><feOffset dx="-1" dy="2" result="afterOffset"></feOffset><feFlood flood-color="#212121" flood-opacity="0.5"></feFlood><feComposite in2="afterOffset" operator="in"></feComposite><feMorphology operator="dilate" radius="4"></feMorphology><feComposite in2="SourceAlpha" operator="out"></feComposite></filter><path d="M287.42 17.21C308.95 13.14 331.05 13.14 352.58 17.21C359.43 18.5 357.53 18.14 366.91 19.92C378.47 22.1 386.84 32.2 386.84 43.97C386.84 123.7 386.84 337.44 386.84 415.88C386.84 430.66 374.87 442.63 360.1 442.63C338.71 442.63 302.48 442.63 281.39 442.63C265.8 442.63 253.16 429.99 253.16 414.4C253.16 336.25 253.16 122.98 253.16 43.07C253.16 31.82 261.16 22.17 272.2 20.08C281.76 18.28 280.57 18.5 287.42 17.21Z" id="f535PQL0JR" fill="white" fill-opacity="1" filter="url(#shadow11950678)"></path></g><use xlink:href="#dEBUOjqC5" opacity="1" fill="#600060" fill-opacity="1"></use><g><use xlink:href="#dEBUOjqC5" opacity="1" fill-opacity="0" stroke="#212121" stroke-width="1" stroke-opacity="1"></use></g></g><g><g><filter id="shadow13344412" x="146.51" y="388.41" width="347.99" height="142.55" filterUnits="userSpaceOnUse" primitiveUnits="userSpaceOnUse"><feFlood></feFlood><feComposite in2="SourceAlpha" operator="in"></feComposite><feGaussianBlur stdDeviation="1"></feGaussianBlur><feOffset dx="1" dy="1" result="afterOffset"></feOffset><feFlood flood-color="#000000" flood-opacity="0.5"></feFlood><feComposite in2="afterOffset" operator="in"></feComposite><feMorphology operator="dilate" radius="2"></feMorphology><feComposite in2="SourceAlpha" operator="out"></feComposite></filter><path d="M320.37 461.4C364.65 461.53 411.87 441.54 462.05 401.44C474.52 391.48 490.58 408.23 480.11 420.27C422.19 486.86 368.93 520.09 320.33 519.95C273.31 519.81 219.99 487.57 160.35 423.2C148.92 410.87 165.33 392.7 178.76 402.82C230.42 441.75 277.62 461.28 320.37 461.4Z" id="k20ntbPMWM" fill="white" fill-opacity="1" filter="url(#shadow13344412)"></path></g><use xlink:href="#aZ9Sfs01R" opacity="1" fill="#600060" fill-opacity="1"></use><g><use xlink:href="#aZ9Sfs01R" opacity="1" fill-opacity="0" stroke="#212121" stroke-width="1" stroke-opacity="1"></use></g></g><g><g><filter id="shadow2964381" x="279.84" y="510.89" width="81.32" height="129.74" filterUnits="userSpaceOnUse" primitiveUnits="userSpaceOnUse"><feFlood></feFlood><feComposite in2="SourceAlpha" operator="in"></feComposite><feGaussianBlur stdDeviation="2"></feGaussianBlur><feOffset dx="1" dy="1" result="afterOffset"></feOffset><feFlood flood-color="#000000" flood-opacity="0.5"></feFlood><feComposite in2="afterOffset" operator="in"></feComposite><feMorphology operator="dilate" radius="3"></feMorphology><feComposite in2="SourceAlpha" operator="out"></feComposite></filter><path d="M296.84 527.89L343.16 527.89L343.16 622.63L296.84 622.63L296.84 527.89Z" id="aajwDz34W" fill="white" fill-opacity="1" filter="url(#shadow2964381)"></path></g><use xlink:href="#g1OswOx9my" opacity="1" fill="#600060" fill-opacity="1"></use><g><use xlink:href="#g1OswOx9my" opacity="1" fill-opacity="0" stroke="#600060" stroke-width="1" stroke-opacity="1"></use></g></g></g></g></svg>