<?xml version="1.0" encoding="UTF-8" standalone="no"?>
<!DOCTYPE svg PUBLIC "-//W3C//DTD SVG 1.1//EN" "http://www.w3.org/Graphics/SVG/1.1/DTD/svg11.dtd">
<svg version="1.1" xmlns="http://www.w3.org/2000/svg" xmlns:xlink="http://www.w3.org/1999/xlink" preserveAspectRatio="xMidYMid meet" viewBox="0 0 640 387" width="640" height="387"><defs><path d="M617.08 57.37C624.54 57.37 629.96 64.48 627.99 71.68C618 108.1 593.03 199.17 553.08 344.87L78.84 344.87C133.79 198.16 168.13 106.47 181.86 69.79C184.66 62.32 191.8 57.37 199.78 57.37C286.2 57.37 530.96 57.37 617.08 57.37Z" id="e250P6L0jb"></path><path d="M176.69 93.49L568.73 93.49L617.26 93.49L549.76 342.77L82.15 344.87L176.69 93.49Z" id="a1KkrCuFuz"></path><path d="M89.21 328.77L554.01 328.77L549.31 343.93L82.15 343.93L89.21 328.77Z" id="a1TGKpP6IL"></path><path d="M592.77 345.25C492.04 345.25 290.58 345.25 -11.6 345.25" id="czgA1jgGz"></path><path d="M619.83 93.49L170.59 93.49" id="h1mHsEQpif"></path><path d="M199.5 77.03C199.5 80 197.08 82.41 194.11 82.41C191.14 82.41 188.72 80 188.72 77.03C188.72 74.05 191.14 71.64 194.11 71.64C197.08 71.64 199.5 74.05 199.5 77.03Z" id="a3LoOnw7r8"></path><path d="M224.27 77.03C224.27 80 221.86 82.41 218.89 82.41C215.91 82.41 213.5 80 213.5 77.03C213.5 74.05 215.91 71.64 218.89 71.64C221.86 71.64 224.27 74.05 224.27 77.03Z" id="agK9rHlqJ"></path><path d="M247.98 77.03C247.98 80 245.56 82.41 242.59 82.41C239.62 82.41 237.2 80 237.2 77.03C237.2 74.05 239.62 71.64 242.59 71.64C245.56 71.64 247.98 74.05 247.98 77.03Z" id="a1gOE4EV8"></path><path d="M178.38 71.64L137.64 71.64" id="a2mnqaTw6S"></path><path d="M122.93 71.64L98.49 71.64" id="cuCf98g6U"></path><path d="M169.94 94.92L67.6 94.92" id="i5U8pzZLj"></path><path d="M420.57 127.38C461.02 127.24 493.92 151.81 494.03 182.28C494.04 183.42 494 184.57 493.9 185.7C523.14 190.22 544.68 205.66 544.75 224.09C544.75 224.09 544.75 224.09 544.75 224.09C544.83 246.18 514.05 264.19 475.99 264.33C458.7 264.4 320.42 264.9 303.13 264.96C265.08 265.1 234.16 247.31 234.08 225.23C234.08 225.23 234.08 225.23 234.08 225.23C234.01 205.97 257.4 189.81 288.61 185.9C291.33 165.01 314.68 148.63 343.14 148.52C349.4 148.5 355.4 149.27 361.01 150.69C374.26 136.67 395.98 127.47 420.57 127.38Z" id="b6Kb0FHP"></path><path d="M44.29 95.34L19.85 95.34" id="b2ceawkzE3"></path><path d="M45.84 327.69L21.4 327.69" id="cgQuDNgT6"></path><path d="M286.42 311.26L195.92 311.26" id="i2FcxgT1v"></path><path d="M94.54 313.69L556.17 313.69L553.24 328.84L87.53 328.84L94.54 313.69Z" id="b1yMCW1A2i"></path><path d="M161.86 327.69L59.52 327.69" id="e14uGgSnjI"></path><path d="M345.1 311.26L320.66 311.26" id="a1pui7kG5M"></path><path d="M106.4 271.36L4.06 271.36" id="cOrVDhxQ8"></path><path d="M427.09 145.73L429.26 145.95L431.41 146.25L433.52 146.64L435.61 147.11L437.67 147.66L439.69 148.29L441.68 149L443.63 149.78L445.55 150.64L447.42 151.56L449.25 152.56L451.04 153.62L452.78 154.75L454.48 155.94L456.13 157.2L457.72 158.52L459.27 159.89L460.76 161.33L462.19 162.82L463.57 164.36L464.88 165.96L466.14 167.6L467.33 169.3L468.46 171.04L469.53 172.83L470.52 174.66L471.45 176.53L472.3 178.45L473.08 180.4L473.79 182.39L474.42 184.41L474.97 186.47L475.44 188.56L475.83 190.68L476.14 192.82L476.36 195L476.49 197.19L476.54 199.41L476.49 201.63L476.36 203.83L476.14 206L475.83 208.15L475.44 210.27L474.97 212.36L474.42 214.41L473.79 216.44L473.08 218.43L472.3 220.38L471.45 222.29L470.52 224.17L469.53 226L468.46 227.79L467.33 229.53L466.14 231.23L464.88 232.87L463.57 234.47L462.19 236.01L460.76 237.5L459.27 238.94L457.72 240.31L456.13 241.63L454.48 242.88L452.78 244.08L451.04 245.21L449.25 246.27L447.42 247.27L445.55 248.19L443.63 249.04L441.68 249.82L439.69 250.53L437.67 251.16L435.61 251.71L433.52 252.18L431.41 252.57L429.26 252.88L427.09 253.1L424.89 253.23L422.67 253.28L420.45 253.23L418.25 253.1L416.08 252.88L413.93 252.57L411.81 252.18L409.72 251.71L407.67 251.16L405.64 250.53L403.65 249.82L401.7 249.04L399.79 248.19L397.91 247.27L396.08 246.27L394.29 245.21L392.55 244.08L390.86 242.88L389.21 241.63L387.61 240.31L386.07 238.94L384.58 237.5L383.15 236.01L381.77 234.47L380.45 232.87L379.2 231.23L378 229.53L376.87 227.79L375.81 226L374.82 224.17L373.89 222.29L373.04 220.38L372.26 218.43L371.55 216.44L370.92 214.41L370.37 212.36L369.9 210.27L369.51 208.15L369.2 206L368.98 203.83L368.85 201.63L368.8 199.41L368.85 197.19L368.98 195L369.2 192.82L369.51 190.68L369.9 188.56L370.37 186.47L370.92 184.41L371.55 182.39L372.26 180.4L373.04 178.45L373.89 176.53L374.82 174.66L375.81 172.83L376.87 171.04L378 169.3L379.2 167.6L380.45 165.96L381.77 164.36L383.15 162.82L384.58 161.33L386.07 159.89L387.61 158.52L389.21 157.2L390.86 155.94L392.55 154.75L394.29 153.62L396.08 152.56L397.91 151.56L399.79 150.64L401.7 149.78L403.65 149L405.64 148.29L407.67 147.66L409.72 147.11L411.81 146.64L413.93 146.25L416.08 145.95L418.25 145.73L420.45 145.59L422.67 145.55L424.89 145.59L427.09 145.73ZM409.18 247.27L409.74 247.42L410.31 247.57L410.87 247.71L411.44 247.84L412.01 247.97L412.58 248.1L413.16 248.21L413.74 248.32L414.32 248.42L414.9 248.52L415.49 248.61L416.07 248.69L416.66 248.76L417.26 248.83L417.85 248.89L418.44 248.95L419.04 248.99L419.64 249.03L420.24 249.07L420.85 249.09L421.45 249.11L422.06 249.12L422.67 249.12L423.39 249.12L424.11 249.1L424.83 249.08L425.54 249.04L426.25 249L426.96 248.94L427.67 248.87L428.37 248.8L429.07 248.71L429.77 248.62L430.46 248.51L431.16 248.4L431.84 248.27L432.53 248.14L433.21 248L433.89 247.85L434.56 247.68L435.23 247.51L435.9 247.34L436.56 247.15L437.22 246.95L437.88 246.74L438.53 246.53L439.18 246.3L439.16 246.28L439.14 246.25L439.13 246.22L439.11 246.2L439.1 246.17L439.08 246.14L439.06 246.12L439.05 246.09L439.03 246.06L439.02 246.04L439 246.01L438.99 245.98L438.97 245.95L438.96 245.92L438.95 245.89L438.93 245.87L438.92 245.84L438.9 245.81L438.89 245.78L438.88 245.75L438.86 245.72L438.85 245.69L438.84 245.66L438.82 245.63L423.54 203.77L408.62 247.11L409.18 247.27ZM376.71 180.47L376.44 181.12L376.19 181.78L375.95 182.44L375.71 183.1L375.48 183.77L375.26 184.44L375.05 185.12L374.85 185.8L374.66 186.49L374.48 187.17L374.31 187.87L374.15 188.56L374 189.26L373.86 189.97L373.73 190.67L373.61 191.39L373.49 192.1L373.39 192.82L373.3 193.54L373.22 194.26L373.15 194.99L373.09 195.72L373.04 196.45L373 197.19L372.98 197.93L372.96 198.67L372.95 199.41L373 201.44L373.12 203.44L373.31 205.43L373.59 207.39L373.94 209.32L374.37 211.23L374.87 213.11L375.43 214.96L376.07 216.77L376.78 218.56L377.55 220.31L378.38 222.02L379.28 223.7L380.24 225.34L381.26 226.93L382.34 228.49L383.48 230L384.67 231.47L385.91 232.88L387.21 234.25L388.56 235.57L389.95 236.84L391.4 238.06L392.89 239.22L394.42 240.32L396 241.37L397.62 242.36L399.28 243.29L400.97 244.15L377.26 179.18L376.98 179.82L376.71 180.47ZM466.33 175.89L466.35 176.06L466.37 176.22L466.39 176.39L466.41 176.56L466.43 176.73L466.45 176.9L466.46 177.07L466.48 177.24L466.5 177.42L466.51 177.59L466.52 177.76L466.54 177.94L466.55 178.12L466.56 178.29L466.57 178.47L466.58 178.65L466.59 178.83L466.6 179.01L466.6 179.19L466.61 179.37L466.62 179.56L466.62 179.74L466.62 179.93L466.63 180.11L466.63 180.3L466.63 180.49L466.63 180.68L466.63 181.03L466.61 181.41L466.59 181.8L466.56 182.21L466.52 182.64L466.47 183.09L466.41 183.56L466.34 184.05L466.27 184.55L466.18 185.07L466.09 185.61L465.98 186.17L465.87 186.75L465.75 187.34L465.62 187.96L465.48 188.59L465.33 189.24L465.17 189.91L465.01 190.6L464.83 191.3L464.65 192.03L464.45 192.77L464.25 193.53L464.04 194.31L463.82 195.11L463.59 195.92L463.35 196.76L463.1 197.61L462.85 198.48L447.66 242.38L449.18 241.46L450.65 240.49L452.09 239.47L453.49 238.4L454.85 237.29L456.17 236.13L457.45 234.92L458.68 233.67L459.87 232.37L461.01 231.04L462.11 229.66L463.16 228.25L464.16 226.79L465.11 225.3L466 223.78L466.84 222.22L467.63 220.63L468.37 219L469.04 217.35L469.66 215.67L470.21 213.95L470.71 212.22L471.15 210.45L471.52 208.67L471.82 206.86L472.06 205.03L472.24 203.17L472.34 201.3L472.38 199.41L472.37 198.52L472.34 197.63L472.31 196.75L472.25 195.87L472.18 194.99L472.1 194.12L472 193.25L471.88 192.39L471.75 191.53L471.61 190.68L471.45 189.83L471.28 188.99L471.09 188.15L470.89 187.32L470.68 186.49L470.45 185.67L470.21 184.85L469.95 184.04L469.68 183.24L469.4 182.44L469.11 181.65L468.8 180.87L468.48 180.09L468.14 179.32L467.8 178.55L467.44 177.79L467.07 177.04L466.68 176.3L466.29 175.56L466.31 175.73L466.33 175.89ZM420.08 149.77L418.8 149.85L417.53 149.96L416.26 150.11L415.01 150.29L413.77 150.5L412.54 150.73L411.31 151L410.1 151.3L408.91 151.63L407.72 151.99L406.55 152.38L405.39 152.79L404.24 153.23L403.11 153.7L401.99 154.2L400.89 154.72L399.8 155.27L398.72 155.84L397.67 156.44L396.63 157.07L395.6 157.72L394.6 158.39L393.61 159.09L392.63 159.81L391.68 160.55L390.75 161.32L389.83 162.11L388.93 162.91L388.06 163.75L387.2 164.6L386.37 165.47L385.55 166.36L384.76 167.27L383.99 168.2L383.24 169.15L382.52 170.12L381.81 171.11L381.13 172.11L381.22 172.11L381.31 172.12L381.4 172.12L381.48 172.12L381.57 172.12L381.65 172.12L381.74 172.13L381.83 172.13L381.91 172.13L382 172.13L382.08 172.14L382.16 172.14L382.25 172.14L382.33 172.14L382.41 172.14L382.5 172.14L382.58 172.15L382.66 172.15L382.74 172.15L382.82 172.15L382.9 172.15L382.98 172.15L383.06 172.16L383.14 172.16L383.22 172.16L383.29 172.16L383.37 172.16L383.45 172.16L383.53 172.16L383.6 172.16L383.68 172.16L383.75 172.17L383.83 172.17L383.9 172.17L383.97 172.17L384.05 172.17L384.12 172.17L384.19 172.17L384.26 172.17L384.33 172.17L384.72 172.17L385.13 172.16L385.54 172.16L385.97 172.15L386.39 172.14L386.83 172.13L387.26 172.12L387.71 172.1L388.15 172.09L388.6 172.07L389.04 172.05L389.49 172.03L389.93 172.01L390.37 171.99L390.81 171.97L391.24 171.94L391.67 171.92L392.09 171.9L392.5 171.87L392.91 171.85L393.3 171.83L393.69 171.8L394.06 171.78L394.42 171.76L394.76 171.73L395.09 171.71L395.41 171.69L395.7 171.67L395.98 171.65L396.24 171.63L396.48 171.61L396.7 171.6L396.9 171.58L397.08 171.57L397.23 171.56L397.35 171.55L397.45 171.54L397.52 171.54L397.58 171.53L397.78 171.53L397.97 171.54L398.14 171.56L398.31 171.6L398.47 171.65L398.62 171.72L398.77 171.79L398.9 171.87L399.02 171.96L399.14 172.07L399.24 172.18L399.34 172.29L399.42 172.42L399.5 172.55L399.56 172.68L399.62 172.82L399.67 172.96L399.7 173.11L399.73 173.26L399.75 173.41L399.76 173.56L399.75 173.71L399.74 173.86L399.72 174.01L399.68 174.16L399.64 174.3L399.58 174.44L399.52 174.58L399.44 174.71L399.36 174.84L399.26 174.96L399.15 175.07L399.04 175.18L398.91 175.27L398.77 175.36L398.62 175.44L398.45 175.5L398.28 175.56L398.1 175.6L397.9 175.63L397.86 175.64L397.82 175.64L397.78 175.65L397.73 175.65L397.67 175.66L397.6 175.67L397.52 175.67L397.43 175.68L397.34 175.69L397.24 175.7L397.13 175.72L397.01 175.73L396.89 175.74L396.76 175.75L396.62 175.77L396.48 175.78L396.33 175.79L396.18 175.81L396.02 175.82L395.85 175.84L395.68 175.85L395.51 175.87L395.33 175.89L395.14 175.9L394.95 175.92L394.76 175.93L394.56 175.95L394.36 175.96L394.16 175.98L393.95 176L393.74 176.01L393.53 176.03L393.31 176.04L393.09 176.05L392.88 176.07L392.65 176.08L392.43 176.09L392.21 176.11L410.31 229.95L421.19 197.33L413.45 176.11L413.25 176.09L413.05 176.08L412.85 176.07L412.66 176.05L412.46 176.04L412.26 176.03L412.07 176.01L411.88 176L411.69 175.98L411.51 175.96L411.32 175.95L411.14 175.93L410.97 175.92L410.79 175.9L410.62 175.89L410.46 175.87L410.3 175.85L410.14 175.84L409.98 175.82L409.84 175.81L409.69 175.79L409.56 175.78L409.42 175.77L409.3 175.75L409.18 175.74L409.06 175.73L408.95 175.72L408.85 175.7L408.76 175.69L408.67 175.68L408.59 175.67L408.52 175.67L408.45 175.66L408.39 175.65L408.35 175.65L408.31 175.64L408.27 175.64L408.23 175.63L408.04 175.61L407.85 175.58L407.68 175.53L407.52 175.48L407.37 175.41L407.23 175.32L407.1 175.23L406.98 175.13L406.87 175.02L406.78 174.91L406.69 174.78L406.61 174.65L406.55 174.51L406.49 174.37L406.45 174.23L406.42 174.08L406.39 173.93L406.38 173.78L406.38 173.62L406.38 173.47L406.4 173.32L406.43 173.16L406.46 173.01L406.51 172.87L406.57 172.72L406.63 172.58L406.71 172.45L406.79 172.32L406.89 172.2L406.99 172.09L407.11 171.98L407.23 171.89L407.36 171.8L407.51 171.72L407.66 171.66L407.82 171.61L407.99 171.57L408.17 171.54L408.35 171.53L408.55 171.53L408.61 171.54L408.68 171.54L408.78 171.55L408.91 171.56L409.06 171.57L409.24 171.58L409.44 171.6L409.66 171.61L409.91 171.63L410.17 171.65L410.45 171.67L410.75 171.69L411.07 171.71L411.4 171.73L411.75 171.76L412.11 171.78L412.48 171.8L412.87 171.83L413.26 171.85L413.67 171.87L414.08 171.9L414.5 171.92L414.92 171.94L415.35 171.97L415.78 171.99L416.22 172.01L416.66 172.03L417.1 172.05L417.53 172.07L417.97 172.09L418.4 172.1L418.83 172.12L419.26 172.13L419.67 172.14L420.09 172.15L420.49 172.16L420.88 172.16L421.27 172.17L421.64 172.17L422.04 172.17L422.44 172.16L422.85 172.16L423.27 172.15L423.7 172.14L424.14 172.13L424.57 172.12L425.01 172.1L425.46 172.09L425.9 172.07L426.35 172.05L426.8 172.03L427.24 172.01L427.68 171.99L428.12 171.97L428.55 171.94L428.98 171.92L429.4 171.9L429.81 171.87L430.22 171.85L430.61 171.83L430.99 171.8L431.37 171.78L431.73 171.76L432.07 171.73L432.4 171.71L432.72 171.69L433.01 171.67L433.29 171.65L433.55 171.63L433.79 171.61L434.01 171.6L434.21 171.58L434.39 171.57L434.54 171.56L434.66 171.55L434.76 171.54L434.83 171.54L434.89 171.53L435.09 171.53L435.28 171.54L435.45 171.56L435.62 171.6L435.78 171.65L435.93 171.72L436.08 171.79L436.21 171.87L436.33 171.96L436.45 172.07L436.55 172.18L436.65 172.29L436.73 172.42L436.81 172.55L436.87 172.68L436.93 172.82L436.98 172.96L437.01 173.11L437.04 173.26L437.06 173.41L437.06 173.56L437.06 173.71L437.05 173.86L437.02 174.01L436.99 174.16L436.94 174.3L436.89 174.44L436.82 174.58L436.75 174.71L436.66 174.84L436.57 174.96L436.46 175.07L436.34 175.18L436.21 175.27L436.07 175.36L435.92 175.44L435.76 175.5L435.58 175.56L435.4 175.6L435.21 175.63L435.16 175.64L435.13 175.64L435.08 175.65L435.03 175.65L434.97 175.66L434.9 175.67L434.82 175.67L434.74 175.68L434.64 175.69L434.54 175.7L434.44 175.72L434.32 175.73L434.2 175.74L434.07 175.75L433.93 175.77L433.79 175.78L433.64 175.79L433.49 175.81L433.33 175.82L433.16 175.84L432.99 175.85L432.82 175.87L432.64 175.89L432.45 175.9L432.26 175.92L432.07 175.93L431.87 175.95L431.67 175.96L431.47 175.98L431.26 176L431.05 176.01L430.84 176.03L430.62 176.04L430.41 176.05L430.19 176.07L429.96 176.08L429.74 176.09L429.52 176.11L447.48 229.54L452.45 212.98L452.63 212.49L452.81 212.02L452.99 211.54L453.16 211.07L453.33 210.6L453.49 210.14L453.65 209.69L453.81 209.23L453.95 208.78L454.1 208.34L454.24 207.9L454.37 207.46L454.5 207.03L454.63 206.6L454.75 206.17L454.86 205.75L454.98 205.34L455.08 204.92L455.18 204.52L455.28 204.11L455.37 203.71L455.46 203.32L455.54 202.93L455.62 202.54L455.7 202.16L455.76 201.78L455.83 201.4L455.89 201.03L455.94 200.66L455.99 200.3L456.04 199.94L456.08 199.59L456.11 199.24L456.14 198.89L456.17 198.55L456.19 198.21L456.21 197.88L456.22 197.55L456.23 197.22L456.23 196.9L456.22 196.45L456.21 196L456.19 195.55L456.17 195.12L456.13 194.69L456.09 194.26L456.04 193.85L455.98 193.43L455.92 193.03L455.85 192.63L455.78 192.24L455.7 191.86L455.61 191.48L455.52 191.1L455.43 190.74L455.33 190.37L455.22 190.02L455.12 189.67L455 189.32L454.89 188.98L454.77 188.65L454.64 188.32L454.52 188L454.39 187.68L454.25 187.36L454.12 187.06L453.98 186.75L453.85 186.45L453.71 186.16L453.56 185.87L453.42 185.58L453.28 185.3L453.13 185.02L452.99 184.75L452.85 184.48L452.7 184.21L452.56 183.95L452.41 183.7L452.27 183.44L452.13 183.19L451.94 182.89L451.75 182.58L451.56 182.28L451.38 181.98L451.19 181.68L451.01 181.39L450.83 181.09L450.65 180.8L450.48 180.51L450.3 180.22L450.13 179.93L449.96 179.64L449.8 179.36L449.64 179.07L449.48 178.79L449.32 178.5L449.17 178.22L449.02 177.93L448.88 177.65L448.74 177.37L448.61 177.08L448.48 176.8L448.36 176.51L448.24 176.23L448.13 175.95L448.02 175.66L447.92 175.37L447.83 175.09L447.74 174.8L447.66 174.51L447.58 174.22L447.51 173.93L447.45 173.63L447.4 173.34L447.35 173.04L447.32 172.75L447.29 172.45L447.27 172.14L447.25 171.84L447.25 171.53L447.25 171.19L447.27 170.85L447.31 170.51L447.35 170.18L447.41 169.84L447.47 169.51L447.55 169.19L447.65 168.86L447.75 168.54L447.86 168.23L447.99 167.92L448.13 167.61L448.27 167.32L448.43 167.02L448.6 166.74L448.78 166.46L448.97 166.18L449.16 165.92L449.37 165.66L449.59 165.41L449.81 165.17L450.05 164.94L450.29 164.72L450.55 164.5L450.81 164.3L451.08 164.11L451.35 163.93L451.64 163.76L451.93 163.6L452.23 163.45L452.54 163.32L452.85 163.19L453.17 163.08L453.5 162.99L453.84 162.91L454.18 162.84L454.52 162.78L454.88 162.75L455.23 162.72L455.6 162.71L455.62 162.71L455.63 162.71L455.65 162.72L455.66 162.72L455.68 162.72L455.7 162.72L455.71 162.72L455.73 162.72L455.74 162.72L455.76 162.72L455.77 162.72L455.81 162.72L455.82 162.72L455.84 162.72L455.85 162.72L455.89 162.73L455.92 162.73L455.95 162.73L455.97 162.73L456 162.74L456.05 162.74L456.11 162.75L456.16 162.75L456.17 162.75L456.21 162.75L456.24 162.76L455.57 162.15L454.89 161.56L454.2 160.99L453.5 160.42L452.79 159.87L452.07 159.33L451.34 158.8L450.59 158.29L449.84 157.78L449.08 157.3L448.31 156.82L447.53 156.36L446.75 155.91L445.95 155.48L445.14 155.06L444.33 154.66L443.51 154.27L442.68 153.89L441.84 153.53L440.99 153.19L440.14 152.86L439.28 152.54L438.41 152.24L437.53 151.96L436.65 151.69L435.76 151.44L434.86 151.21L433.96 150.99L433.05 150.79L432.13 150.6L431.21 150.43L430.28 150.28L429.35 150.15L428.41 150.03L427.47 149.93L426.52 149.85L425.56 149.78L424.6 149.74L423.64 149.71L422.67 149.7L421.37 149.72L420.08 149.77Z" id="m3C3fAZ8a"></path><path d="M298.08 176.87L195.74 176.87" id="b1SHOQdxs9"></path><path d="M182.81 176.87L158.37 176.87" id="c6ux75G92z"></path><path d="M262.87 211.18L172.37 211.18" id="b15DRnemf"></path><path d="M270.6 244.59L180.1 244.59" id="a2gwu4JoJE"></path><path d="M167.1 244.59L142.65 244.59" id="b1fyqlB5Yl"></path></defs><g><g><g><use xlink:href="#e250P6L0jb" opacity="1" fill="#a434b7" fill-opacity="1"></use><g><use xlink:href="#e250P6L0jb" opacity="1" fill-opacity="0" stroke="#222222" stroke-width="7" stroke-opacity="1"></use></g></g><g><use xlink:href="#a1KkrCuFuz" opacity="1" fill="#ffffff" fill-opacity="1"></use></g><g><use xlink:href="#a1TGKpP6IL" opacity="1" fill="#600060" fill-opacity="1"></use></g><g><g><use xlink:href="#czgA1jgGz" opacity="1" fill-opacity="0" stroke="#222222" stroke-width="7" stroke-opacity="1"></use></g></g><g><g><use xlink:href="#h1mHsEQpif" opacity="1" fill-opacity="0" stroke="#222222" stroke-width="5" stroke-opacity="1"></use></g></g><g><use xlink:href="#a3LoOnw7r8" opacity="1" fill="#ffffff" fill-opacity="1"></use><g><use xlink:href="#a3LoOnw7r8" opacity="1" fill-opacity="0" stroke="#222222" stroke-width="2" stroke-opacity="1"></use></g></g><g><use xlink:href="#agK9rHlqJ" opacity="1" fill="#ffffff" fill-opacity="1"></use><g><use xlink:href="#agK9rHlqJ" opacity="1" fill-opacity="0" stroke="#222222" stroke-width="2" stroke-opacity="1"></use></g></g><g><use xlink:href="#a1gOE4EV8" opacity="1" fill="#ffffff" fill-opacity="1"></use><g><use xlink:href="#a1gOE4EV8" opacity="1" fill-opacity="0" stroke="#222222" stroke-width="2" stroke-opacity="1"></use></g></g><g><g><use xlink:href="#a2mnqaTw6S" opacity="1" fill-opacity="0" stroke="#222222" stroke-width="4" stroke-opacity="1"></use></g></g><g><g><use xlink:href="#cuCf98g6U" opacity="1" fill-opacity="0" stroke="#222222" stroke-width="4" stroke-opacity="1"></use></g></g><g><g><use xlink:href="#i5U8pzZLj" opacity="1" fill-opacity="0" stroke="#222222" stroke-width="4" stroke-opacity="1"></use></g></g><g><use xlink:href="#b6Kb0FHP" opacity="1" fill="#600060" fill-opacity="0.53"></use></g><g><g><use xlink:href="#b2ceawkzE3" opacity="1" fill-opacity="0" stroke="#222222" stroke-width="4" stroke-opacity="1"></use></g></g><g><g><use xlink:href="#cgQuDNgT6" opacity="1" fill-opacity="0" stroke="#222222" stroke-width="4" stroke-opacity="1"></use></g></g><g><g><use xlink:href="#i2FcxgT1v" opacity="1" fill-opacity="0" stroke="#222222" stroke-width="4" stroke-opacity="1"></use></g></g><g><use xlink:href="#b1yMCW1A2i" opacity="1" fill="#600060" fill-opacity="0.66"></use></g><g><g><use xlink:href="#e14uGgSnjI" opacity="1" fill-opacity="0" stroke="#222222" stroke-width="4" stroke-opacity="1"></use></g></g><g><g><use xlink:href="#a1pui7kG5M" opacity="1" fill-opacity="0" stroke="#222222" stroke-width="4" stroke-opacity="1"></use></g></g><g><g><use xlink:href="#cOrVDhxQ8" opacity="1" fill-opacity="0" stroke="#222222" stroke-width="4" stroke-opacity="1"></use></g></g><g><use xlink:href="#m3C3fAZ8a" opacity="1" fill="#ffffff" fill-opacity="1"></use><g><use xlink:href="#m3C3fAZ8a" opacity="1" fill-opacity="0" stroke="#000000" stroke-width="1" stroke-opacity="0"></use></g></g><g><g><use xlink:href="#b1SHOQdxs9" opacity="1" fill-opacity="0" stroke="#600060" stroke-width="4" stroke-opacity="1"></use></g></g><g><g><use xlink:href="#c6ux75G92z" opacity="1" fill-opacity="0" stroke="#600060" stroke-width="4" stroke-opacity="1"></use></g></g><g><g><use xlink:href="#b15DRnemf" opacity="1" fill-opacity="0" stroke="#600060" stroke-width="4" stroke-opacity="1"></use></g></g><g><g><use xlink:href="#a2gwu4JoJE" opacity="1" fill-opacity="0" stroke="#600060" stroke-width="4" stroke-opacity="1"></use></g></g><g><g><use xlink:href="#b1fyqlB5Yl" opacity="1" fill-opacity="0" stroke="#600060" stroke-width="4" stroke-opacity="1"></use></g></g></g></g></svg>