<?xml version="1.0" encoding="UTF-8" standalone="no"?>
<!DOCTYPE svg PUBLIC "-//W3C//DTD SVG 1.1//EN" "http://www.w3.org/Graphics/SVG/1.1/DTD/svg11.dtd">
<svg version="1.1" xmlns="http://www.w3.org/2000/svg" xmlns:xlink="http://www.w3.org/1999/xlink" preserveAspectRatio="xMidYMid meet" viewBox="0 0 640 480" width="640" height="480"><defs><path d="M498.66 48.51C486.15 36.99 479.2 30.58 477.81 29.3C462.1 14.83 436.47 17.43 421.7 35.17C366.89 99.81 257.87 247.91 333.56 317.65C409.24 387.4 547.95 266.67 607.91 206.77C624.39 190.6 624.89 164.84 609.18 150.37C607.79 149.09 600.84 142.68 588.34 131.16" id="dAHkFp11D"></path><path d="M334.2 316.38C272.69 383.13 238.52 420.21 231.69 427.62C193.04 469.55 128.23 472.83 87.11 434.93C83.48 431.59 54.46 404.85 50.84 401.51C16 369.4 11.03 316.9 37.29 278.09" id="dX4HjmOh3"></path><path d="M473.3 49.09C469.59 45.67 469.58 39.38 473.27 35.38C474.26 34.3 482.22 25.67 483.21 24.59C486.9 20.58 493.17 20.08 496.88 23.51C498.4 24.9 510.51 36.06 512.02 37.45C515.73 40.88 515.75 47.16 512.06 51.17C511.06 52.25 503.11 60.88 502.11 61.96C498.42 65.97 492.15 66.46 488.44 63.04C485.41 60.25 474.82 50.49 473.3 49.09Z" id="b1RI1pPALq"></path><path d="M574.12 142C570.41 138.58 570.39 132.29 574.08 128.28C575.08 127.2 583.03 118.57 584.03 117.49C587.72 113.48 593.99 112.99 597.7 116.41C599.21 117.81 611.32 128.96 612.83 130.36C616.55 133.78 616.56 140.07 612.87 144.07C611.88 145.15 603.92 153.79 602.93 154.86C599.24 158.87 592.97 159.37 589.26 155.95C586.23 153.16 575.63 143.39 574.12 142Z" id="d63HUSeyw"></path><path d="M343.9 335.66C340.49 339.36 335.93 340.86 331.38 340.65C331.09 340.96 328.82 343.42 328.53 343.73C323.14 349.59 314.02 350.31 308.6 345.31C308.54 345.26 308.08 344.84 308.02 344.78C302.6 339.78 302.57 330.64 307.97 324.78C308.26 324.48 310.53 322.01 310.81 321.7C310.23 317.17 311.36 312.51 314.77 308.81C314.82 308.75 315.28 308.26 315.34 308.2C320.73 302.34 329.85 301.62 335.27 306.62C336.19 307.46 343.5 314.2 344.41 315.04C349.84 320.04 350.15 328.88 344.47 335.04C344.35 335.16 343.95 335.6 343.9 335.66Z" id="iqQWxs9RX"></path><path d="M98.97 209.44C82.89 194.61 56.87 196.67 40.87 214.03C24.86 231.4 24.93 257.5 41.02 272.32C57.11 287.15 83.13 285.09 99.13 267.72C115.13 250.36 115.06 224.26 98.97 209.44Z" id="b1Ev0ypE1F"></path></defs><g><g><g><use xlink:href="#dAHkFp11D" opacity="1" fill="#a334b7" fill-opacity="0"></use><g><use xlink:href="#dAHkFp11D" opacity="1" fill-opacity="0" stroke="#f5f5f5" stroke-width="17" stroke-opacity="1"></use></g></g><g><use xlink:href="#dX4HjmOh3" opacity="1" fill="#000000" fill-opacity="0"></use><g><use xlink:href="#dX4HjmOh3" opacity="1" fill-opacity="0" stroke="#f5f5f5" stroke-width="17" stroke-opacity="1"></use></g></g><g><use xlink:href="#b1RI1pPALq" opacity="1" fill="#f5f5f5" fill-opacity="1"></use></g><g><use xlink:href="#d63HUSeyw" opacity="1" fill="#f5f5f5" fill-opacity="1"></use><g><use xlink:href="#d63HUSeyw" opacity="1" fill-opacity="0" stroke="#000000" stroke-width="1" stroke-opacity="0"></use></g></g><g><use xlink:href="#iqQWxs9RX" opacity="1" fill="#f5f5f5" fill-opacity="1"></use><g><use xlink:href="#iqQWxs9RX" opacity="1" fill-opacity="0" stroke="#f5f5f5" stroke-width="6" stroke-opacity="1"></use></g></g><g><use xlink:href="#b1Ev0ypE1F" opacity="1" fill="#000000" fill-opacity="0"></use><g><use xlink:href="#b1Ev0ypE1F" opacity="1" fill-opacity="0" stroke="#f5f5f5" stroke-width="17" stroke-opacity="1"></use></g></g></g></g></svg>