<?xml version="1.0" encoding="UTF-8" standalone="no"?>
<!DOCTYPE svg PUBLIC "-//W3C//DTD SVG 1.1//EN" "http://www.w3.org/Graphics/SVG/1.1/DTD/svg11.dtd">
<svg version="1.1" xmlns="http://www.w3.org/2000/svg" xmlns:xlink="http://www.w3.org/1999/xlink" preserveAspectRatio="xMidYMid meet" viewBox="0 0 120 120" width="144" height="144"><defs><path d="M110.16 24.44L110.19 24.44L110.22 24.45L110.25 24.45L110.28 24.46L110.31 24.47L110.33 24.48L110.36 24.49L110.39 24.5L110.42 24.51L110.44 24.53L110.47 24.54L110.5 24.56L110.52 24.57L110.55 24.59L110.57 24.61L110.59 24.63L110.61 24.65L110.63 24.67L110.66 24.69L110.67 24.71L110.69 24.74L110.71 24.76L110.73 24.78L110.74 24.81L110.76 24.84L110.77 24.86L110.79 24.89L110.8 24.92L110.81 24.95L110.82 24.97L110.83 25L110.84 25.03L110.84 25.06L110.85 25.1L110.85 25.13L110.86 25.16L110.86 25.19L110.86 25.22L110.86 40.9L126.21 40.9L126.24 40.9L126.27 40.9L126.3 40.91L126.33 40.91L126.36 40.92L126.39 40.92L126.42 40.93L126.45 40.94L126.48 40.95L126.51 40.96L126.53 40.98L126.56 40.99L126.59 41L126.61 41.02L126.64 41.04L126.66 41.05L126.69 41.07L126.71 41.09L126.73 41.11L126.75 41.13L126.77 41.15L126.79 41.18L126.81 41.2L126.83 41.22L126.85 41.25L126.86 41.27L126.88 41.3L126.89 41.32L126.9 41.35L126.92 41.38L126.93 41.41L126.94 41.44L126.95 41.47L126.95 41.5L126.96 41.53L126.97 41.56L126.97 41.59L126.97 41.62L126.98 41.65L126.98 41.69L126.98 54.23L126.98 54.26L126.97 54.29L126.97 54.32L126.97 54.36L126.96 54.39L126.95 54.42L126.95 54.45L126.94 54.48L126.93 54.5L126.92 54.53L126.9 54.56L126.89 54.59L126.88 54.61L126.86 54.64L126.85 54.67L126.83 54.69L126.81 54.71L126.79 54.74L126.77 54.76L126.75 54.78L126.73 54.8L126.71 54.82L126.69 54.84L126.66 54.86L126.64 54.88L126.61 54.89L126.59 54.91L126.56 54.92L126.53 54.94L126.51 54.95L126.48 54.96L126.45 54.97L126.42 54.98L126.39 54.99L126.36 55L126.33 55L126.3 55.01L126.27 55.01L126.24 55.01L126.21 55.01L110.86 55.01L110.86 70.69L110.86 70.72L110.86 70.75L110.85 70.79L110.85 70.82L110.84 70.85L110.84 70.88L110.83 70.91L110.82 70.94L110.81 70.97L110.8 71L110.79 71.02L110.77 71.05L110.76 71.08L110.74 71.1L110.73 71.13L110.71 71.15L110.69 71.18L110.67 71.2L110.66 71.22L110.63 71.24L110.61 71.27L110.59 71.29L110.57 71.3L110.55 71.32L110.52 71.34L110.5 71.36L110.47 71.37L110.44 71.39L110.42 71.4L110.39 71.41L110.36 71.42L110.33 71.43L110.31 71.44L110.28 71.45L110.25 71.46L110.22 71.46L110.19 71.47L110.16 71.47L110.12 71.47L110.09 71.47L97.81 71.47L97.78 71.47L97.75 71.47L97.72 71.47L97.69 71.46L97.66 71.46L97.63 71.45L97.6 71.44L97.57 71.43L97.54 71.42L97.51 71.41L97.49 71.4L97.46 71.39L97.43 71.37L97.41 71.36L97.38 71.34L97.36 71.32L97.34 71.3L97.31 71.29L97.29 71.27L97.27 71.24L97.25 71.22L97.23 71.2L97.21 71.18L97.19 71.15L97.18 71.13L97.16 71.1L97.15 71.08L97.13 71.05L97.12 71.02L97.11 71L97.09 70.97L97.08 70.94L97.08 70.91L97.07 70.88L97.06 70.85L97.06 70.82L97.05 70.79L97.05 70.75L97.05 70.72L97.05 70.69L97.05 55.01L81.7 55.01L81.66 55.01L81.63 55.01L81.6 55.01L81.57 55L81.54 55L81.51 54.99L81.48 54.98L81.45 54.97L81.43 54.96L81.4 54.95L81.37 54.94L81.34 54.92L81.32 54.91L81.29 54.89L81.27 54.88L81.24 54.86L81.22 54.84L81.2 54.82L81.17 54.8L81.15 54.78L81.13 54.76L81.11 54.74L81.09 54.71L81.08 54.69L81.06 54.67L81.04 54.64L81.03 54.61L81.01 54.59L81 54.56L80.99 54.53L80.98 54.5L80.97 54.48L80.96 54.45L80.95 54.42L80.94 54.39L80.94 54.36L80.93 54.32L80.93 54.29L80.93 54.26L80.93 54.23L80.93 41.69L80.93 41.65L80.93 41.62L80.93 41.59L80.94 41.56L80.94 41.53L80.95 41.5L80.96 41.47L80.97 41.44L80.98 41.41L80.99 41.38L81 41.35L81.01 41.32L81.03 41.3L81.04 41.27L81.06 41.25L81.08 41.22L81.09 41.2L81.11 41.18L81.13 41.15L81.15 41.13L81.17 41.11L81.2 41.09L81.22 41.07L81.24 41.05L81.27 41.04L81.29 41.02L81.32 41L81.34 40.99L81.37 40.98L81.4 40.96L81.43 40.95L81.45 40.94L81.48 40.93L81.51 40.92L81.54 40.92L81.57 40.91L81.6 40.91L81.63 40.9L81.66 40.9L81.7 40.9L97.05 40.9L97.05 25.22L97.05 25.19L97.05 25.16L97.05 25.13L97.06 25.1L97.06 25.06L97.07 25.03L97.08 25L97.08 24.97L97.09 24.95L97.11 24.92L97.12 24.89L97.13 24.86L97.15 24.84L97.16 24.81L97.18 24.78L97.19 24.76L97.21 24.74L97.23 24.71L97.25 24.69L97.27 24.67L97.29 24.65L97.31 24.63L97.34 24.61L97.36 24.59L97.38 24.57L97.41 24.56L97.43 24.54L97.46 24.53L97.49 24.51L97.51 24.5L97.54 24.49L97.57 24.48L97.6 24.47L97.63 24.46L97.66 24.45L97.69 24.45L97.72 24.44L97.75 24.44L97.78 24.44L97.81 24.44L110.09 24.44L110.12 24.44L110.16 24.44Z" id="a31dXxuaRs"></path><path d="M125.93 96.76C125.93 104.35 120.26 110.5 113.28 110.5C106.3 110.5 100.63 104.35 100.63 96.76C100.63 89.18 106.3 83.03 113.28 83.03C120.26 83.03 125.93 89.18 125.93 96.76Z" id="b1kOoh5G3d"></path><path d="M110.87 1.5C115.45 1.5 119.17 5.21 119.17 9.8C119.17 31.6 119.17 88.73 119.17 110.54C119.17 115.12 115.45 118.83 110.87 118.83C88.99 118.83 31.64 118.83 9.76 118.83C5.18 118.83 1.46 115.12 1.46 110.54C1.46 88.73 1.46 31.6 1.46 9.8C1.46 5.21 5.18 1.5 9.76 1.5C31.64 1.5 88.99 1.5 110.87 1.5Z" id="d1t6dUFlsC"></path><path d="M51.29 36.01L26.25 36.01C15.33 49.92 8.51 58.62 5.78 62.1C5.56 62.37 5.76 62.77 6.1 62.77C12.25 62.77 27.64 62.77 52.25 62.77C52.25 38.48 52.25 23.3 52.25 17.23C52.25 16.4 52.92 15.73 53.75 15.73C54.23 15.73 55.44 15.73 57.37 15.73L125.93 15.73" id="adkHefnUZ"></path><path d="M15.33 97.55L1.46 97.55L1.46 91.92L5.18 91.92" id="gt3GryoEf"></path><path d="M41.46 96.51C41.46 104.1 35.79 110.25 28.81 110.25C21.83 110.25 16.16 104.1 16.16 96.51C16.16 88.93 21.83 82.78 28.81 82.78C35.79 82.78 41.46 88.93 41.46 96.51Z" id="f1SXHIRxa"></path><path d="" id="bAxN05xla"></path><path d="M5.69 62.77L5.69 92.84" id="bS3lMpHBs"></path><path d="M99.81 96.51L42.48 96.76" id="ehqqoIyHw"></path></defs><g><g><g><use xlink:href="#a31dXxuaRs" opacity="1" fill="#ffffff" fill-opacity="0"></use><g><use xlink:href="#a31dXxuaRs" opacity="1" fill-opacity="0" stroke="#a434b7" stroke-width="2" stroke-opacity="1"></use></g></g><g><use xlink:href="#b1kOoh5G3d" opacity="1" fill="#ffffff" fill-opacity="0"></use><g><use xlink:href="#b1kOoh5G3d" opacity="1" fill-opacity="0" stroke="#a434b7" stroke-width="2" stroke-opacity="1"></use></g></g><g><use xlink:href="#d1t6dUFlsC" opacity="1" fill="#ffffff" fill-opacity="0"></use><g><use xlink:href="#d1t6dUFlsC" opacity="1" fill-opacity="0" stroke="#a434b7" stroke-width="2" stroke-opacity="1"></use></g></g><g><g><use xlink:href="#adkHefnUZ" opacity="1" fill-opacity="0" stroke="#a434b7" stroke-width="2" stroke-opacity="1"></use></g></g><g><g><use xlink:href="#gt3GryoEf" opacity="1" fill-opacity="0" stroke="#a434b7" stroke-width="2" stroke-opacity="1"></use></g></g><g><use xlink:href="#f1SXHIRxa" opacity="1" fill="#ffffff" fill-opacity="0"></use><g><use xlink:href="#f1SXHIRxa" opacity="1" fill-opacity="0" stroke="#a434b7" stroke-width="2" stroke-opacity="1"></use></g></g><g><g><use xlink:href="#bAxN05xla" opacity="1" fill-opacity="0" stroke="#a434b7" stroke-width="2" stroke-opacity="1"></use></g></g><g><g><use xlink:href="#bS3lMpHBs" opacity="1" fill-opacity="0" stroke="#a434b7" stroke-width="2" stroke-opacity="1"></use></g></g><g><g><use xlink:href="#ehqqoIyHw" opacity="1" fill-opacity="0" stroke="#a434b7" stroke-width="2" stroke-opacity="1"></use></g></g></g></g></svg>