<?xml version="1.0" encoding="UTF-8" standalone="no"?>
<!DOCTYPE svg PUBLIC "-//W3C//DTD SVG 1.1//EN" "http://www.w3.org/Graphics/SVG/1.1/DTD/svg11.dtd">
<svg version="1.1" xmlns="http://www.w3.org/2000/svg" xmlns:xlink="http://www.w3.org/1999/xlink" preserveAspectRatio="xMidYMid meet" viewBox="0 0 640 640" width="640" height="640"><defs><path d="M147.29 94.86C147.29 88.98 142.46 84.14 136.54 84.14C134.04 84.14 114.07 84.14 111.58 84.14C105.66 84.14 100.82 88.98 100.82 94.86C100.82 95.61 100.82 99.32 100.82 106L100.82 130.29C100.82 144.32 100.82 152.12 100.82 153.68C100.82 159.57 105.66 164.37 111.58 164.37C120.09 164.37 188.18 164.37 196.7 164.37C202.62 164.37 207.48 159.57 207.48 153.68C207.48 148.91 207.48 110.77 207.48 106C207.48 100.11 202.62 95.28 196.7 95.28C193.4 95.28 176.93 95.28 147.29 95.28C147.29 95.03 147.29 94.89 147.29 94.86Z" id="aEoiCzadJ"></path><path d="M317.06 94.86C317.06 88.98 312.23 84.14 306.31 84.14C303.82 84.14 283.88 84.14 281.38 84.14C275.46 84.14 270.6 88.98 270.6 94.86C270.6 95.61 270.6 99.32 270.6 106L270.6 130.29C270.6 144.32 270.6 152.12 270.6 153.68C270.6 159.57 275.46 164.37 281.38 164.37C289.89 164.37 357.96 164.37 366.47 164.37C372.39 164.37 377.26 159.57 377.26 153.68C377.26 148.91 377.26 110.77 377.26 106C377.26 100.11 372.39 95.28 366.47 95.28C363.18 95.28 346.71 95.28 317.06 95.28C317.06 95.03 317.06 94.89 317.06 94.86Z" id="bhMlKhbW4"></path><path d="M317.06 94.86C317.06 88.98 312.23 84.14 306.31 84.14C303.82 84.14 283.88 84.14 281.38 84.14C275.46 84.14 270.6 88.98 270.6 94.86C270.6 95.61 270.6 99.32 270.6 106L270.6 130.29C270.6 144.32 270.6 152.12 270.6 153.68C270.6 159.57 275.46 164.37 281.38 164.37C289.89 164.37 357.96 164.37 366.47 164.37C372.39 164.37 377.26 159.57 377.26 153.68C377.26 148.91 377.26 110.77 377.26 106C377.26 100.11 372.39 95.28 366.47 95.28C363.18 95.28 346.71 95.28 317.06 95.28C317.06 95.03 317.06 94.89 317.06 94.86Z" id="fXFtxy6uX"></path><path d="M486.06 94.86C486.06 88.98 481.23 84.14 475.31 84.14C472.82 84.14 452.88 84.14 450.38 84.14C444.43 84.14 439.6 88.98 439.6 94.86C439.6 95.61 439.6 99.32 439.6 106L439.6 130.29C439.6 144.3 439.6 152.09 439.6 153.65C439.6 159.54 444.43 164.37 450.38 164.37C458.89 164.37 526.96 164.37 535.47 164.37C541.39 164.37 546.26 159.54 546.26 153.65C546.26 148.88 546.26 110.76 546.26 106C546.26 100.11 541.39 95.28 535.47 95.28C532.18 95.28 515.71 95.28 486.06 95.28C486.06 95.03 486.06 94.89 486.06 94.86Z" id="e8xaRC3iE"></path><path d="M47.77 341.21C47.77 337.27 51 334.04 54.97 334.04C74.12 334.04 227.36 334.04 246.52 334.04C250.49 334.04 253.72 337.27 253.72 341.21C253.72 349.71 253.72 392.23 253.72 468.76L47.77 468.76C47.77 392.23 47.77 349.71 47.77 341.21Z" id="d1g88pPRSb"></path><path d="M17.85 491.32C17.85 491.84 17.85 496.01 17.85 496.54C17.85 497.98 19.06 499.19 20.54 499.19C46.71 499.19 256.12 499.19 282.3 499.19C283.77 499.19 284.98 497.98 284.98 496.54C284.98 496.01 284.98 491.84 284.98 491.32C284.98 489.85 283.77 488.63 282.3 488.63C264.84 488.63 177.59 488.63 20.54 488.63C18.74 489.44 17.85 490.34 17.85 491.32Z" id="c2AycQILM3"></path><path d="M17.85 491.32C17.85 491.84 17.85 496.01 17.85 496.54C17.85 497.98 19.06 499.19 20.54 499.19C46.71 499.19 256.12 499.19 282.3 499.19C283.77 499.19 284.98 497.98 284.98 496.54C284.98 496.01 284.98 491.84 284.98 491.32C284.98 489.85 283.77 488.63 282.3 488.63C264.84 488.63 177.59 488.63 20.54 488.63C18.74 489.44 17.85 490.34 17.85 491.32Z" id="acg1MTKCL"></path><path d="M384.63 341.21C384.63 337.27 387.86 334.04 391.83 334.04C410.99 334.04 564.23 334.04 583.38 334.04C587.35 334.04 590.58 337.27 590.58 341.21C590.58 349.71 590.58 392.23 590.58 468.76L384.63 468.76C384.63 392.23 384.63 349.71 384.63 341.21Z" id="aJbcQRGVO"></path><path d="M354.71 491.32C354.71 491.84 354.71 496.01 354.71 496.54C354.71 497.98 355.93 499.19 357.4 499.19C383.58 499.19 592.98 499.19 619.16 499.19C620.63 499.19 621.85 497.98 621.85 496.54C621.85 496.01 621.85 491.84 621.85 491.32C621.85 489.85 620.63 488.63 619.16 488.63C601.71 488.63 514.46 488.63 357.4 488.63C355.61 489.44 354.71 490.34 354.71 491.32Z" id="d3e9hy3tqb"></path><path d="M354.71 491.32C354.71 491.84 354.71 496.01 354.71 496.54C354.71 497.98 355.93 499.19 357.4 499.19C383.58 499.19 592.98 499.19 619.16 499.19C620.63 499.19 621.85 497.98 621.85 496.54C621.85 496.01 621.85 491.84 621.85 491.32C621.85 489.85 620.63 488.63 619.16 488.63C601.71 488.63 514.46 488.63 357.4 488.63C355.61 489.44 354.71 490.34 354.71 491.32Z" id="iUTuATL"></path><path d="M498.39 374.58L502.3 376.22L505.85 378.42L509.02 381.11L511.74 384.25L513.94 387.8L515.58 391.67L516.63 395.83L516.98 400.22L516.63 404.6L515.58 408.79L513.94 412.66L511.74 416.18L509.02 419.35L505.85 422.04L502.3 424.25L498.39 425.88L494.2 426.9L489.82 427.26L485.4 426.9L481.21 425.88L477.3 424.25L473.75 422.04L470.58 419.35L467.86 416.18L465.66 412.66L464.02 408.79L462.97 404.6L462.62 400.22L462.97 395.83L464.02 391.67L465.66 387.8L467.86 384.25L470.58 381.11L473.75 378.42L477.3 376.22L481.21 374.58L485.4 373.56L489.82 373.21L494.2 373.56L498.39 374.58ZM484.44 424.6L486.17 424.92L487.96 425.11L489.82 425.18L491.96 425.08L494.07 424.82L496.15 424.38L498.14 423.77L498.07 423.67L498.04 423.61L497.98 423.51L497.94 423.42L490.23 402.42L482.71 424.18L484.44 424.6ZM465.27 394.97L464.86 397.56L464.73 400.22L465.75 407.35L468.66 413.66L473.11 418.87L478.87 422.68L466.9 390.07L465.98 392.47L465.27 394.97ZM511.96 390.14L511.99 390.84L511.86 392.34L511.51 394.33L510.9 396.79L510.07 399.77L502.42 421.78L507.51 417.91L511.45 412.86L513.98 406.87L514.87 400.22L514.68 397.02L514.07 393.94L513.11 391.03L511.8 388.25L511.9 388.86L511.96 390.14ZM485.53 375.64L483.45 376.09L481.46 376.7L479.54 377.46L477.72 378.36L475.99 379.42L474.33 380.6L472.79 381.91L471.35 383.35L470.04 384.89L468.86 386.52L469.14 386.52L469.27 386.55L471.13 386.55L471.86 386.52L472.6 386.52L473.37 386.49L474.1 386.42L474.78 386.39L475.42 386.36L475.99 386.33L476.47 386.3L476.82 386.26L477.08 386.23L477.14 386.23L477.46 386.26L477.72 386.36L477.94 386.49L478.2 386.94L478.23 387.19L478.23 387.42L478.17 387.67L478.04 387.9L477.85 388.09L477.62 388.22L477.3 388.28L477.27 388.31L477.08 388.31L476.89 388.34L476.7 388.34L476.44 388.38L475.86 388.44L475.51 388.47L475.16 388.47L474.81 388.5L474.42 388.54L483.58 415.54L489.05 399.19L485.14 388.54L484.82 388.5L484.47 388.47L484.18 388.47L483.86 388.44L483.58 388.41L483.32 388.38L483.1 388.34L482.9 388.34L482.74 388.31L482.62 388.31L482.52 388.28L482.2 388.25L481.98 388.12L481.78 387.93L481.66 387.7L481.59 387.48L481.59 387.22L481.62 386.97L481.75 386.71L481.88 386.52L482.1 386.36L482.36 386.26L482.68 386.23L482.78 386.23L483 386.26L483.35 386.3L483.83 386.33L484.41 386.36L485.05 386.39L485.75 386.42L486.49 386.49L487.22 386.52L487.93 386.52L488.63 386.55L489.98 386.55L490.68 386.52L491.45 386.52L492.18 386.49L492.92 386.42L493.62 386.39L494.26 386.36L494.81 386.33L495.29 386.3L495.64 386.26L495.9 386.23L495.96 386.23L496.28 386.26L496.54 386.36L496.76 386.49L496.92 386.71L497.02 386.94L497.05 387.19L497.05 387.42L496.98 387.67L496.86 387.9L496.66 388.09L496.44 388.22L496.12 388.28L496.09 388.31L495.9 388.31L495.7 388.34L495.51 388.34L495.26 388.38L494.68 388.44L494.33 388.47L494.01 388.47L493.62 388.5L493.27 388.54L502.33 415.35L504.82 407.03L505.11 406.23L505.4 405.46L505.66 404.7L505.88 403.99L506.26 402.58L506.52 401.3L506.62 400.66L506.68 400.09L506.71 399.51L506.74 398.97L506.71 398.23L506.65 397.5L506.55 396.82L506.39 396.18L506.23 395.58L506.04 395L505.85 394.46L505.62 393.91L505.4 393.43L505.14 392.95L504.89 392.5L504.66 392.09L504.34 391.58L504.02 391.1L503.74 390.58L503.45 390.1L503.19 389.62L502.97 389.18L502.74 388.7L502.55 388.22L502.39 387.74L502.3 387.26L502.23 386.74L502.2 386.23L502.23 385.66L502.33 385.11L502.52 384.57L502.74 384.06L503.03 383.61L503.38 383.16L503.77 382.78L504.22 382.46L504.73 382.17L505.24 381.98L505.82 381.85L506.42 381.82L506.74 381.82L505.59 380.86L504.38 379.93L503.13 379.1L501.82 378.33L500.44 377.62L499.03 377.02L497.59 376.5L496.09 376.09L494.58 375.74L493.02 375.48L491.42 375.32L489.82 375.29L487.64 375.38L485.53 375.64Z" id="c8fOEikOB"></path><path d="M161.14 379.35L161.18 379.29L161.18 379.22L161.18 379.16L161.18 379.1L161.21 379.03L161.21 378.97L161.3 378.78L161.3 378.71L161.37 378.58L161.4 378.55L161.43 378.49L161.53 378.39L161.56 378.33L161.62 378.3L161.66 378.23L161.78 378.1L161.91 378.04L162.01 377.94L162.07 377.94L162.33 377.82L162.39 377.82L162.46 377.78L162.52 377.78L162.58 377.75L162.65 377.75L162.71 377.75L162.78 377.75L162.84 377.75L169.66 377.75L169.72 377.75L169.78 377.75L169.85 377.75L169.91 377.75L169.98 377.78L170.04 377.78L170.14 377.82L170.2 377.82L170.23 377.85L170.42 377.94L170.49 377.94L170.58 378.04L170.71 378.1L170.94 378.33L170.97 378.39L171.03 378.42L171.1 378.55L171.13 378.58L171.22 378.78L171.22 378.84L171.29 378.97L171.29 379.03L171.32 379.1L171.32 379.16L171.32 379.22L171.35 379.29L171.35 379.35L171.35 379.42L171.35 397.18L178.14 404.79L171.35 404.79L171.35 428.44L156.22 428.44L156.22 428.34L156.22 411.93L156.22 411.86L156.22 411.8L156.22 411.7L156.22 411.64L156.18 411.58L156.18 411.51L156.15 411.45L156.12 411.35L156.12 411.29L155.96 410.97L155.93 410.94L155.9 410.87L155.83 410.81L155.8 410.74L155.51 410.46L155.38 410.39L155.35 410.36L155.03 410.2L154.97 410.2L154.9 410.17L154.84 410.17L154.74 410.14L154.68 410.14L154.62 410.14L154.55 410.1L154.46 410.1L147.45 410.1L147.38 410.1L147.32 410.14L147.26 410.14L147.16 410.14L147.1 410.17L147.03 410.17L146.97 410.2L146.9 410.2L146.58 410.36L146.55 410.39L146.42 410.46L146.07 410.81L146.01 410.94L145.98 410.97L145.78 411.35L145.78 411.45L145.75 411.51L145.75 411.58L145.72 411.64L145.72 411.7L145.72 411.8L145.72 411.86L145.72 411.93L145.72 428.34L145.72 428.44L130.58 428.44L130.58 404.79L123.8 404.79L150.97 374.36L161.14 385.75L161.14 379.42L161.14 379.35Z" id="a432E6BH4z"></path><path d="M298.15 144.88L298.15 110.86L341.64 110.86L341.64 144.88L298.15 144.88ZM303.59 140.62L311.75 134.22L317.19 136.37L325.35 127.86L336.2 139.18L336.2 115.12L303.59 115.12L303.59 140.62Z" id="ac9uaY8Ja"></path><path d="M139.9 114.06L139.9 141.97L163.93 141.97L163.93 121.58L167.54 121.58L167.54 145.17L136.31 145.17L136.31 110.86L153.72 110.86L153.72 114.06L139.9 114.06Z" id="aFukNGXsk"></path><path d="M513.55 116.72C513.55 116.72 513.55 116.72 513.55 116.72C513.55 119.79 511.06 122.26 508.02 122.26C505.73 122.26 487.45 122.26 485.17 122.26C482.1 122.26 479.63 119.79 479.63 116.72C479.63 116.72 479.63 116.72 479.63 116.72C479.63 113.68 482.1 111.22 485.17 111.22C486.69 111.22 494.31 111.22 508.02 111.22C511.71 112.86 513.55 114.69 513.55 116.72Z" id="jH8m67Eif"></path><path d="M513.55 127.31C513.55 127.31 513.55 127.31 513.55 127.31C513.55 130.38 511.06 132.85 508.02 132.85C505.73 132.85 487.45 132.85 485.17 132.85C482.1 132.85 479.63 130.38 479.63 127.31C479.63 127.31 479.63 127.31 479.63 127.31C479.63 124.27 482.1 121.81 485.17 121.81C486.69 121.81 494.31 121.81 508.02 121.81C511.71 123.45 513.55 125.29 513.55 127.31Z" id="ai53wvX5c"></path><path d="M513.55 138.8C513.55 138.8 513.55 138.8 513.55 138.8C513.55 141.87 511.06 144.34 508.02 144.34C505.73 144.34 487.45 144.34 485.17 144.34C482.1 144.34 479.63 141.87 479.63 138.8C479.63 138.8 479.63 138.8 479.63 138.8C479.63 135.76 482.1 133.3 485.17 133.3C486.69 133.3 494.31 133.3 508.02 133.3C511.71 134.94 513.55 136.77 513.55 138.8Z" id="c7aPqSittD"></path><path d="M151.27 165.37L149.74 333.37" id="aAXjfqvPs"></path><path d="M324.14 164.37L322.74 318.37" id="c2864lez78"></path><path d="M494.49 164.37L492.93 334.37" id="a6t6aw3MS"></path><path d="M321.43 316.78L148.24 316.78" id="cUMquiwwd"></path><path d="M493.74 316.78L321.74 316.78" id="f3hgeRaSnR"></path></defs><g><g><g><use xlink:href="#aEoiCzadJ" opacity="1" fill="#000000" fill-opacity="0"></use><g><use xlink:href="#aEoiCzadJ" opacity="1" fill-opacity="0" stroke="#600060" stroke-width="2" stroke-opacity="1"></use></g></g><g><use xlink:href="#bhMlKhbW4" opacity="1" fill="#000000" fill-opacity="0"></use><g><use xlink:href="#bhMlKhbW4" opacity="1" fill-opacity="0" stroke="#000000" stroke-width="1" stroke-opacity="0"></use></g></g><g><use xlink:href="#fXFtxy6uX" opacity="1" fill="#000000" fill-opacity="0"></use><g><use xlink:href="#fXFtxy6uX" opacity="1" fill-opacity="0" stroke="#600060" stroke-width="2" stroke-opacity="1"></use></g></g><g><use xlink:href="#e8xaRC3iE" opacity="1" fill="#000000" fill-opacity="0"></use><g><use xlink:href="#e8xaRC3iE" opacity="1" fill-opacity="0" stroke="#600060" stroke-width="2" stroke-opacity="1"></use></g></g><g><use xlink:href="#d1g88pPRSb" opacity="1" fill="#000000" fill-opacity="0"></use><g><use xlink:href="#d1g88pPRSb" opacity="1" fill-opacity="0" stroke="#600060" stroke-width="2" stroke-opacity="1"></use></g></g><g><use xlink:href="#c2AycQILM3" opacity="1" fill="#600060" fill-opacity="1"></use><g><use xlink:href="#c2AycQILM3" opacity="1" fill-opacity="0" stroke="#000000" stroke-width="1" stroke-opacity="0"></use></g></g><g><use xlink:href="#acg1MTKCL" opacity="1" fill="#000000" fill-opacity="0"></use><g><use xlink:href="#acg1MTKCL" opacity="1" fill-opacity="0" stroke="#000000" stroke-width="1" stroke-opacity="0"></use></g></g><g><use xlink:href="#aJbcQRGVO" opacity="1" fill="#000000" fill-opacity="0"></use><g><use xlink:href="#aJbcQRGVO" opacity="1" fill-opacity="0" stroke="#600060" stroke-width="2" stroke-opacity="1"></use></g></g><g><use xlink:href="#d3e9hy3tqb" opacity="1" fill="#600060" fill-opacity="1"></use><g><use xlink:href="#d3e9hy3tqb" opacity="1" fill-opacity="0" stroke="#000000" stroke-width="1" stroke-opacity="0"></use></g></g><g><use xlink:href="#iUTuATL" opacity="1" fill="#000000" fill-opacity="0"></use><g><use xlink:href="#iUTuATL" opacity="1" fill-opacity="0" stroke="#000000" stroke-width="1" stroke-opacity="0"></use></g></g><g><use xlink:href="#c8fOEikOB" opacity="1" fill="#600060" fill-opacity="1"></use><g><use xlink:href="#c8fOEikOB" opacity="1" fill-opacity="0" stroke="#000000" stroke-width="1" stroke-opacity="0"></use></g></g><g><use xlink:href="#a432E6BH4z" opacity="1" fill="#600060" fill-opacity="1"></use><g><use xlink:href="#a432E6BH4z" opacity="1" fill-opacity="0" stroke="#000000" stroke-width="1" stroke-opacity="0"></use></g></g><g><use xlink:href="#ac9uaY8Ja" opacity="1" fill="#600060" fill-opacity="1"></use></g><g><use xlink:href="#aFukNGXsk" opacity="1" fill="#600060" fill-opacity="1"></use><g><use xlink:href="#aFukNGXsk" opacity="1" fill-opacity="0" stroke="#000000" stroke-width="1" stroke-opacity="0"></use></g></g><g><use xlink:href="#jH8m67Eif" opacity="1" fill="#000000" fill-opacity="0"></use><g><use xlink:href="#jH8m67Eif" opacity="1" fill-opacity="0" stroke="#600060" stroke-width="2" stroke-opacity="1"></use></g></g><g><use xlink:href="#ai53wvX5c" opacity="1" fill="#000000" fill-opacity="0"></use><g><use xlink:href="#ai53wvX5c" opacity="1" fill-opacity="0" stroke="#600060" stroke-width="2" stroke-opacity="1"></use></g></g><g><use xlink:href="#c7aPqSittD" opacity="1" fill="#000000" fill-opacity="0"></use><g><use xlink:href="#c7aPqSittD" opacity="1" fill-opacity="0" stroke="#600060" stroke-width="2" stroke-opacity="1"></use></g></g><g><g><use xlink:href="#aAXjfqvPs" opacity="1" fill-opacity="0" stroke="#600060" stroke-width="3" stroke-opacity="1"></use></g></g><g><g><use xlink:href="#c2864lez78" opacity="1" fill-opacity="0" stroke="#600060" stroke-width="3" stroke-opacity="1"></use></g></g><g><g><use xlink:href="#a6t6aw3MS" opacity="1" fill-opacity="0" stroke="#600060" stroke-width="3" stroke-opacity="1"></use></g></g><g><g><use xlink:href="#cUMquiwwd" opacity="1" fill-opacity="0" stroke="#600060" stroke-width="3" stroke-opacity="1"></use></g></g><g><g><use xlink:href="#f3hgeRaSnR" opacity="1" fill-opacity="0" stroke="#600060" stroke-width="3" stroke-opacity="1"></use></g></g></g></g></svg>