<svg width="295.92" height="189.911" version="1.1" viewBox="0 0 597.56 274.23" xmlns="http://www.w3.org/2000/svg" xmlns:xlink="http://www.w3.org/1999/xlink">
 <defs>
  <path id="boPCLV814" d="m592.96 207.31c6.93 0 11.96 6.6 10.13 13.28-9.27 33.81-32.45 118.34-69.54 253.59h-440.2c51-136.18 82.88-221.3 95.63-255.34 2.6-6.94 9.22-11.53 16.63-11.53z"/>
  <path id="d6LvSObUzx" d="m184.18 240.84h408.95l-62.66 231.4-434.05 1.94z"/>
  <path id="b735RRvvy" d="m102.97 459.24h431.45l-4.37 14.07h-433.63z"/>
  <path id="dsZHuuyHO" d="m570.4 474.54h-561"/>
  <path id="a198vTIs56" d="m595.52 240.84h-417"/>
  <path id="b55t0qiiv" d="m205.35 225.55c0 2.76-2.24 5-5 5s-5-2.24-5-5c0-2.75 2.24-5 5-5s5 2.25 5 5z"/>
  <path id="f1ijglEBmn" d="m228.35 225.55c0 2.76-2.24 5-5 5s-5-2.24-5-5c0-2.75 2.24-5 5-5s5 2.25 5 5z"/>
  <path id="a1aXTfZCjk" d="m250.35 225.55c0 2.76-2.24 5-5 5s-5-2.24-5-5c0-2.75 2.24-5 5-5s5 2.25 5 5z"/>
  <path id="a1ZqWDHCdG" d="m185.74 220.55h-37.81"/>
  <path id="a4DksVlJKg" d="m134.28 220.55h-22.69"/>
  <path id="j3lgmRANnn" d="m177.91 242.16h-95"/>
  <path id="a5bhzuAGJ9" d="m410.55 272.3c37.56-0.14 68.09 22.67 68.2 50.95 0 1.07-0.04 2.13-0.13 3.18 27.14 4.2 47.14 18.53 47.21 35.64 0.07 20.5-28.51 37.22-63.83 37.35-16.05 0.06-144.41 0.53-160.45 0.59-35.33 0.13-64.03-16.39-64.1-36.89-0.07-17.87 21.64-32.87 50.61-36.51 2.53-19.39 24.2-34.59 50.62-34.69 5.81-0.02 11.38 0.69 16.59 2.01 12.3-13.02 32.46-21.55 55.28-21.63z"/>
  <path id="al2N1p7V9" d="m61.28 242.55h-22.69"/>
  <path id="d8T7VgoJ3" d="m62.72 458.24h-22.69"/>
  <path id="c6GxkUn7P1" d="m286.03 442.98h-84"/>
  <path id="ewUl6MtuJ" d="m107.92 445.24h428.5l-2.71 14.07h-432.29z"/>
  <path id="fzP3V14kg" d="m170.41 458.24h-95"/>
  <path id="d2bDSj19Sh" d="m340.5 442.98h-22.68"/>
  <path id="b1h51ytktM" d="m118.94 405.94h-95"/>
  <path id="c1J08IEvZP" d="m416.6 289.33 2.02 0.2 1.99 0.28 1.97 0.37 1.94 0.43 1.91 0.51 1.88 0.59 1.84 0.65 1.82 0.73 1.77 0.79 1.74 0.86 1.7 0.93 1.66 0.98 1.62 1.05 1.57 1.11 1.53 1.16 1.48 1.23 1.44 1.27 1.38 1.34 1.33 1.38 1.28 1.43 1.22 1.48 1.17 1.53 1.1 1.58 1.05 1.61 0.99 1.66 0.92 1.7 0.86 1.74 0.79 1.78 0.73 1.81 0.66 1.85 0.58 1.88 0.51 1.91 0.44 1.93 0.36 1.97 0.28 1.99 0.21 2.02 0.12 2.04 0.04 2.06-0.04 2.06-0.12 2.04-0.21 2.02-0.28 1.99-0.36 1.97-0.44 1.94-0.51 1.91-0.58 1.87-0.66 1.85-0.73 1.81-0.79 1.78-0.86 1.74-0.92 1.7-0.99 1.66-1.05 1.62-1.1 1.57-1.17 1.53-1.22 1.48-1.28 1.43-1.33 1.39-1.38 1.33-1.44 1.27-1.48 1.23-1.53 1.16-1.57 1.11-1.62 1.05-1.66 0.99-1.7 0.92-1.74 0.86-1.77 0.79-1.82 0.73-1.84 0.65-1.88 0.59-1.91 0.51-1.94 0.43-1.97 0.37-1.99 0.28-2.02 0.2-2.03 0.13-2.07 0.04-2.06-0.04-2.04-0.13-2.01-0.2-2-0.28-1.96-0.37-1.94-0.43-1.91-0.51-1.88-0.59-1.85-0.65-1.81-0.73-1.78-0.79-1.73-0.86-1.7-0.92-1.66-0.99-1.62-1.05-1.58-1.11-1.52-1.16-1.49-1.23-1.43-1.27-1.38-1.33-1.33-1.39-1.28-1.43-1.22-1.48-1.17-1.53-1.11-1.57-1.04-1.62-0.99-1.66-0.92-1.7-0.86-1.74-0.8-1.78-0.72-1.81-0.66-1.85-0.58-1.87-0.51-1.91-0.44-1.94-0.36-1.97-0.28-1.99-0.21-2.02-0.12-2.04-0.05-2.06 0.05-2.06 0.12-2.04 0.21-2.02 0.28-1.99 0.36-1.97 0.44-1.93 0.51-1.91 0.58-1.88 0.66-1.85 0.72-1.81 0.8-1.78 0.86-1.74 0.92-1.7 0.99-1.66 1.04-1.61 1.11-1.58 1.17-1.53 1.22-1.48 1.28-1.43 1.33-1.38 1.38-1.34 1.43-1.27 1.49-1.23 1.52-1.16 1.58-1.11 1.62-1.05 1.66-0.98 1.7-0.93 1.73-0.86 1.78-0.79 1.81-0.73 1.85-0.65 1.88-0.59 1.91-0.51 1.94-0.43 1.96-0.37 2-0.28 2.01-0.2 2.04-0.13 2.06-0.04 2.07 0.04zm-16.57 94.26 0.57 0.16 0.57 0.15 0.57 0.14 1.16 0.26 0.58 0.12 1.18 0.22 1.77 0.27 1.2 0.14 0.6 0.06 0.61 0.05 0.6 0.04 0.61 0.04 0.61 0.03 0.61 0.02 0.62 0.01 0.61 0.01 0.74-0.01 0.72-0.02 0.73-0.03 0.72-0.04 0.72-0.05 0.72-0.06 0.71-0.07 0.71-0.08 0.71-0.1 0.7-0.1 1.4-0.24 0.69-0.14 1.38-0.3 0.68-0.17 0.67-0.18 0.68-0.19 0.67-0.19 0.66-0.21 1.32-0.44-0.04-0.06-0.01-0.02-0.02-0.03-0.01-0.03-0.02-0.02-0.02-0.03-0.01-0.03-0.02-0.03-0.01-0.03-0.02-0.02-0.01-0.03-0.02-0.03-0.01-0.03-0.02-0.03-0.02-0.06-0.02-0.03-0.02-0.06-0.02-0.03-0.01-0.03-14.18-38.86-13.85 40.23zm-30.23-61.93-0.26 0.65-0.25 0.66-0.24 0.66-0.23 0.66-0.22 0.67-0.22 0.68-0.2 0.67-0.19 0.69-0.18 0.68-0.17 0.69-0.17 0.7-0.15 0.69-0.14 0.71-0.13 0.7-0.12 0.71-0.1 0.71-0.1 0.72-0.09 0.72-0.07 0.72-0.07 0.73-0.05 0.73-0.04 0.73-0.03 0.74-0.02 0.74v0.74l0.04 2.02 0.13 2 0.21 1.97 0.3 1.95 0.37 1.91 0.46 1.9 0.53 1.85 0.6 1.83 0.68 1.79 0.75 1.76 0.82 1.72 0.89 1.67 0.95 1.64 1.02 1.59 1.08 1.55 1.14 1.5 1.2 1.45 1.25 1.4 1.31 1.35 1.37 1.29 1.42 1.24 1.46 1.18 1.52 1.12 1.56 1.06 1.61 0.99 1.65 0.93 1.69 0.87-22.02-60.31-0.28 0.64zm83.24-4.31 0.02 0.16 0.06 0.51 0.01 0.17 0.04 0.34 0.01 0.17 0.02 0.17 0.01 0.18 0.01 0.17 0.02 0.18 0.01 0.17 0.02 0.36v0.18l0.03 0.54v0.37l0.01 0.19v0.91l-0.02 0.38-0.02 0.4-0.04 0.41-0.04 0.44-0.05 0.45-0.06 0.48-0.08 0.49-0.08 0.51-0.09 0.54-0.1 0.55-0.11 0.57-0.12 0.6-0.13 0.61-0.14 0.63-0.15 0.65-0.16 0.67-0.17 0.69-0.18 0.71-0.19 0.73-0.19 0.75-0.21 0.77-0.22 0.79-0.22 0.81-0.24 0.83-0.25 0.85-0.25 0.86-14.09 40.75 1.5-0.91 1.47-0.98 1.42-1.02 1.39-1.08 1.34-1.13 1.3-1.17 1.25-1.23 1.21-1.27 1.16-1.32 1.11-1.36 1.05-1.4 1.01-1.44 0.94-1.49 0.9-1.52 0.83-1.55 0.78-1.6 0.72-1.62 0.65-1.66 0.6-1.69 0.53-1.71 0.46-1.75 0.4-1.77 0.32-1.8 0.26-1.82 0.18-1.84 0.12-1.87 0.03-1.88v-0.89l-0.03-0.88-0.04-0.89-0.06-0.87-0.07-0.87-0.09-0.87-0.11-0.86-0.12-0.86-0.14-0.86-0.15-0.84-0.17-0.84-0.19-0.84-0.2-0.83-0.21-0.82-0.23-0.82-0.24-0.82-0.26-0.8-0.27-0.8-0.29-0.79-0.3-0.79-0.31-0.78-0.33-0.77-0.34-0.77-0.35-0.75-0.37-0.75-0.38-0.75-0.4-0.73 0.03 0.16zm-42.94-24.27-1.19 0.07-1.18 0.11-1.17 0.13-1.16 0.17-1.16 0.19-1.14 0.22-1.14 0.25-1.12 0.28-1.11 0.31-1.1 0.33-1.09 0.36-1.08 0.38-1.06 0.41-1.05 0.44-1.04 0.46-1.02 0.48-1.02 0.51-0.99 0.54-0.98 0.55-0.97 0.58-0.95 0.61-0.93 0.62-0.92 0.65-0.91 0.67-0.88 0.69-0.87 0.71-0.85 0.73-0.83 0.75-0.81 0.77-0.8 0.79-0.77 0.81-0.76 0.83-0.73 0.85-0.72 0.86-0.69 0.88-0.68 0.9-0.65 0.91-0.63 0.94h0.24l0.08 0.01h0.32l0.08 0.01h0.31l0.08 0.01h0.46l0.07 0.01h0.58l0.07 0.01h1.42l0.38-0.01 0.39-0.01 0.8-0.02 0.82-0.02 0.41-0.02 0.42-0.01 0.82-0.04 0.42-0.02 0.41-0.02 1.2-0.06 0.39-0.02 0.38-0.02 0.38-0.03 0.72-0.04 0.35-0.02 0.33-0.02 0.32-0.02 0.31-0.02 0.29-0.02 0.27-0.02 0.26-0.02 0.25-0.02 0.22-0.01 0.2-0.02 0.19-0.01 0.16-0.01 0.14-0.02h0.11l0.1-0.01 0.06-0.01h0.24l0.17 0.01 0.17 0.02 0.16 0.03 0.14 0.05 0.15 0.06 0.13 0.07 0.12 0.07 0.11 0.09 0.11 0.1 0.1 0.1 0.09 0.11 0.08 0.11 0.07 0.12 0.06 0.13 0.05 0.13 0.08 0.26 0.04 0.28 0.01 0.14-0.02 0.28-0.02 0.14-0.03 0.14-0.04 0.13-0.05 0.13-0.06 0.13-0.07 0.12-0.08 0.12-0.09 0.11-0.1 0.1-0.11 0.1-0.12 0.09-0.13 0.08-0.14 0.07-0.15 0.07-0.16 0.05-0.17 0.04-0.19 0.03h-0.07l-0.04 0.01h-0.05l-0.05 0.01-0.14 0.02h-0.08l-0.18 0.02-0.1 0.01-0.11 0.01-0.11 0.02-0.13 0.01-0.12 0.01-0.13 0.01-0.14 0.02-0.15 0.01-0.14 0.01-0.16 0.02-0.16 0.01-0.16 0.02-0.17 0.01-0.17 0.02-0.17 0.01-0.18 0.01-0.19 0.02-0.18 0.01-0.19 0.02-0.19 0.01-0.2 0.02-0.4 0.02-0.2 0.02-0.2 0.01-0.21 0.01-0.2 0.01-0.21 0.02 16.81 49.97 10.09-30.27-7.18-19.7-0.19-0.02-0.18-0.01-0.19-0.01-0.18-0.01-0.18-0.02-0.36-0.02-0.18-0.02-0.18-0.01-0.17-0.02-0.17-0.01-0.16-0.02-0.17-0.01-0.16-0.01-0.16-0.02-0.15-0.01-0.15-0.02-0.15-0.01-0.14-0.02-0.14-0.01-0.13-0.01-0.13-0.02-0.24-0.02-0.11-0.01-0.11-0.02-0.1-0.01-0.18-0.02-0.08-0.01h-0.07l-0.07-0.01-0.12-0.02h-0.04l-0.04-0.01h-0.07l-0.18-0.02-0.17-0.03-0.16-0.04-0.15-0.06-0.14-0.06-0.13-0.08-0.12-0.08-0.11-0.1-0.1-0.1-0.09-0.11-0.08-0.11-0.07-0.13-0.06-0.12-0.05-0.13-0.04-0.14-0.03-0.14-0.04-0.28v-0.14l0.02-0.28 0.03-0.15 0.03-0.13 0.04-0.14 0.12-0.26 0.07-0.13 0.08-0.12 0.09-0.11 0.09-0.1 0.11-0.1 0.11-0.09 0.13-0.08 0.13-0.07 0.14-0.06 0.15-0.05 0.16-0.04 0.16-0.02 0.18-0.01h0.23l0.07 0.01 0.1 0.01h0.11l0.15 0.02 0.16 0.01 0.19 0.01 0.2 0.02 0.23 0.01 0.24 0.02 0.54 0.04 0.3 0.02 0.31 0.02 0.32 0.02 0.33 0.02 0.35 0.02 0.72 0.04 0.38 0.03 0.38 0.02 0.78 0.04 0.8 0.04 0.41 0.02 0.4 0.02 0.82 0.04 0.4 0.01 0.4 0.02 0.8 0.02 0.39 0.01 0.38 0.01 0.74 0.02h1.44l1.17-0.03 0.41-0.01 0.4-0.01 0.41-0.01 0.41-0.02 0.42-0.01 0.82-0.04 0.42-0.02 0.41-0.02 1.2-0.06 0.39-0.02 0.38-0.02 0.38-0.03 0.37-0.02 0.7-0.04 0.33-0.02 0.32-0.02 0.31-0.02 0.29-0.02 0.28-0.02 0.26-0.02 0.24-0.02 0.22-0.01 0.21-0.02 0.18-0.01 0.16-0.01 0.14-0.02h0.12l0.09-0.01 0.07-0.01h0.23l0.18 0.01 0.16 0.02 0.16 0.03 0.15 0.05 0.14 0.06 0.13 0.07 0.12 0.07 0.12 0.09 0.2 0.2 0.09 0.11 0.08 0.11 0.07 0.12 0.06 0.13 0.05 0.13 0.08 0.26 0.04 0.28v0.28l-0.01 0.14-0.02 0.14-0.03 0.14-0.1 0.26-0.06 0.13-0.07 0.12-0.08 0.12-0.09 0.11-0.1 0.1-0.11 0.1-0.12 0.09-0.13 0.08-0.14 0.07-0.15 0.07-0.16 0.05-0.17 0.04-0.18 0.03h-0.07l-0.04 0.01h-0.05l-0.12 0.02-0.07 0.01h-0.08l-0.18 0.02-0.1 0.01-0.11 0.01-0.12 0.02-0.24 0.02-0.13 0.01-0.14 0.02-0.14 0.01-0.15 0.01-0.16 0.02-0.15 0.01-0.17 0.02-0.16 0.01-0.18 0.02-0.17 0.01-0.18 0.01-0.18 0.02-0.19 0.01-0.19 0.02-0.19 0.01-0.2 0.02-0.19 0.01-0.2 0.01-0.2 0.02-0.21 0.01-0.2 0.01-0.21 0.01-0.21 0.02 16.68 49.59 4.6-15.37 0.18-0.45 0.17-0.44 0.32-0.88 0.16-0.43 0.15-0.43 0.14-0.42 0.15-0.43 0.13-0.41 0.14-0.42 0.13-0.41 0.36-1.2 0.22-0.78 0.1-0.39 0.2-0.76 0.09-0.38 0.16-0.74 0.08-0.36 0.07-0.36 0.07-0.35 0.06-0.36 0.06-0.34 0.06-0.35 0.05-0.34 0.05-0.33 0.04-0.34 0.03-0.33 0.04-0.32 0.03-0.32 0.02-0.32 0.04-0.62 0.01-0.31v-0.3l0.01-0.3-0.02-0.84-0.04-0.82-0.04-0.4-0.03-0.39-0.05-0.39-0.05-0.38-0.12-0.74-0.07-0.37-0.08-0.35-0.07-0.36-0.27-1.02-0.2-0.66-0.1-0.32-0.22-0.62-0.12-0.31-0.11-0.3-0.12-0.29-0.13-0.29-0.12-0.29-0.26-0.56-0.39-0.81-0.13-0.26-0.14-0.26-0.13-0.25-0.14-0.25-0.13-0.25-0.13-0.24-0.14-0.24-0.13-0.23-0.13-0.24-0.18-0.28-0.34-0.56-0.18-0.28-0.17-0.28-0.17-0.27-0.16-0.27-0.17-0.28-0.32-0.54-0.16-0.26-0.16-0.27-0.15-0.27-0.15-0.26-0.15-0.27-0.28-0.52-0.14-0.27-0.13-0.26-0.13-0.27-0.13-0.26-0.11-0.26-0.12-0.27-0.11-0.26-0.1-0.26-0.1-0.27-0.1-0.26-0.08-0.27-0.09-0.27-0.14-0.54-0.12-0.54-0.05-0.27-0.04-0.28-0.04-0.27-0.06-0.84v-0.29l0.01-0.32 0.01-0.31 0.03-0.32 0.04-0.31 0.12-0.62 0.07-0.3 0.09-0.3 0.1-0.3 0.1-0.29 0.12-0.28 0.13-0.29 0.13-0.27 0.15-0.28 0.15-0.26 0.34-0.52 0.38-0.48 0.2-0.23 0.21-0.23 0.22-0.21 0.23-0.21 0.23-0.19 0.24-0.19 0.25-0.18 0.26-0.17 0.26-0.16 0.28-0.15 0.27-0.13 0.29-0.13 0.29-0.11 0.3-0.1 0.3-0.09 0.31-0.08 0.32-0.06 0.32-0.05 0.33-0.04 0.33-0.02 0.34-0.01h0.03l0.02 0.01h0.19l0.01 0.01h0.12l0.03 0.01h0.08l0.04 0.01h0.07l-0.62-0.55-0.63-0.55-0.64-0.54-0.65-0.52-0.66-0.52-0.67-0.5-0.68-0.49-0.68-0.48-0.7-0.46-0.71-0.45-0.71-0.44-0.72-0.43-0.74-0.42-0.74-0.4-0.74-0.39-0.76-0.37-0.76-0.36-0.77-0.35-0.78-0.34-0.79-0.32-0.79-0.3-0.8-0.3-1.62-0.54-0.82-0.25-0.83-0.23-0.83-0.22-0.84-0.2-0.84-0.19-0.85-0.17-0.86-0.16-0.86-0.14-0.87-0.12-0.87-0.11-0.87-0.09-0.88-0.08-0.89-0.06-0.89-0.04-0.9-0.03-0.9-0.01-1.2 0.02z"/>
  <path id="an11iKBy" d="m296.86 318.24h-95"/>
  <path id="a4KuSOUd3X" d="m189.86 318.24h-22.69"/>
  <path id="c7pd3nnOLp" d="m264.17 350.08h-84"/>
  <path id="agcwSmpng" d="m271.35 381.09h-84"/>
  <path id="b1cynh2Jy6" d="m175.27 381.09h-22.69"/>
 </defs>
 <use transform="translate(-9.4,-203.81)" width="100%" height="100%" fill="#a434b7" xlink:href="#boPCLV814"/>
 <use transform="translate(-9.4,-203.81)" width="100%" height="100%" fill-opacity="0" stroke="#222222" stroke-width="7" xlink:href="#boPCLV814"/>
 <use transform="translate(-9.4,-203.81)" width="100%" height="100%" fill="#ffffff" xlink:href="#d6LvSObUzx"/>
 <use transform="translate(-9.4,-203.81)" width="100%" height="100%" fill="#ffe38f" xlink:href="#b735RRvvy"/>
 <use transform="translate(-9.4,-203.81)" width="100%" height="100%" fill-opacity="0" stroke="#222222" stroke-width="7" xlink:href="#dsZHuuyHO"/>
 <use transform="translate(-9.4,-203.81)" width="100%" height="100%" fill-opacity="0" stroke="#222222" stroke-width="5" xlink:href="#a198vTIs56"/>
 <use transform="translate(-9.4,-203.81)" width="100%" height="100%" fill="#ffffff" xlink:href="#b55t0qiiv"/>
 <use transform="translate(-9.4,-203.81)" width="100%" height="100%" fill-opacity="0" stroke="#222222" stroke-width="2" xlink:href="#b55t0qiiv"/>
 <use transform="translate(-9.4,-203.81)" width="100%" height="100%" fill="#ffffff" xlink:href="#f1ijglEBmn"/>
 <use transform="translate(-9.4,-203.81)" width="100%" height="100%" fill-opacity="0" stroke="#222222" stroke-width="2" xlink:href="#f1ijglEBmn"/>
 <use transform="translate(-9.4,-203.81)" width="100%" height="100%" fill="#ffffff" xlink:href="#a1aXTfZCjk"/>
 <g fill-opacity="0" stroke="#222222">
  <use transform="translate(-9.4,-203.81)" width="100%" height="100%" stroke-width="2" xlink:href="#a1aXTfZCjk"/>
  <g stroke-width="4">
   <use transform="translate(-9.4,-203.81)" width="100%" height="100%" xlink:href="#a1ZqWDHCdG"/>
   <use transform="translate(-9.4,-203.81)" width="100%" height="100%" xlink:href="#a4DksVlJKg"/>
   <use transform="translate(-9.4,-203.81)" width="100%" height="100%" xlink:href="#j3lgmRANnn"/>
  </g>
 </g>
 <use transform="translate(-9.4,-203.81)" width="100%" height="100%" fill="#ffe38f" fill-opacity=".53" xlink:href="#a5bhzuAGJ9"/>
 <g fill-opacity="0" stroke="#222222" stroke-width="4">
  <use transform="translate(-9.4,-203.81)" width="100%" height="100%" xlink:href="#al2N1p7V9"/>
  <use transform="translate(-9.4,-203.81)" width="100%" height="100%" xlink:href="#d8T7VgoJ3"/>
  <use transform="translate(-9.4,-203.81)" width="100%" height="100%" xlink:href="#c6GxkUn7P1"/>
 </g>
 <use transform="translate(-9.4,-203.81)" width="100%" height="100%" fill="#ffe38f" fill-opacity=".66" xlink:href="#ewUl6MtuJ"/>
 <g fill-opacity="0" stroke="#222222" stroke-width="4">
  <use transform="translate(-9.4,-203.81)" width="100%" height="100%" xlink:href="#fzP3V14kg"/>
  <use transform="translate(-9.4,-203.81)" width="100%" height="100%" xlink:href="#d2bDSj19Sh"/>
  <use transform="translate(-9.4,-203.81)" width="100%" height="100%" xlink:href="#b1h51ytktM"/>
 </g>
 <use transform="translate(-9.4,-203.81)" width="100%" height="100%" fill="#ffffff" xlink:href="#c1J08IEvZP"/>
 <g fill-opacity="0">
  <use transform="translate(-9.4,-203.81)" width="100%" height="100%" stroke-opacity="0" xlink:href="#c1J08IEvZP"/>
  <g stroke="#fff0c3" stroke-width="4">
   <use transform="translate(-9.4,-203.81)" width="100%" height="100%" xlink:href="#an11iKBy"/>
   <use transform="translate(-9.4,-203.81)" width="100%" height="100%" xlink:href="#a4KuSOUd3X"/>
   <use transform="translate(-9.4,-203.81)" width="100%" height="100%" xlink:href="#c7pd3nnOLp"/>
   <use transform="translate(-9.4,-203.81)" width="100%" height="100%" xlink:href="#agcwSmpng"/>
   <use transform="translate(-9.4,-203.81)" width="100%" height="100%" xlink:href="#b1cynh2Jy6"/>
  </g>
 </g>
</svg>
