<svg xmlns="http://www.w3.org/2000/svg" xmlns:xlink="http://www.w3.org/1999/xlink" width="640" height="640" preserveAspectRatio="xMidYMid meet" version="1.1" viewBox="0 0 640 640"><defs><path id="a38O5Xi4tP" d="M320 10.32C229.68 10.32 175.48 92.9 175.48 175.48C175.48 191.67 178.46 209.73 183.49 226.97C183.57 224.27 187.44 113.55 320 113.55C452.56 113.55 456.43 224.27 456.51 226.97C461.54 209.73 464.52 191.67 464.52 175.48C464.52 92.9 410.32 10.32 320 10.32Z"/><path id="irldzogCl" d="M529.04 310.97C524.74 308.82 503.23 298.06 464.52 278.71C448.7 273.44 439.91 270.51 438.15 269.93C433.55 277.5 428.53 284.07 423.23 289.03C416.34 291.1 381.94 301.42 320 320C258.06 301.42 223.66 291.1 216.77 289.03C211.47 284.07 206.45 277.5 201.85 269.93C200.09 270.51 191.3 273.44 175.48 278.71C136.77 298.06 115.26 308.82 110.96 310.97C86.72 323.09 69.97 346.32 66.14 373.15C65.17 379.93 60.33 413.83 51.61 474.84L588.39 474.84L573.86 373.15C560.14 339.77 545.2 319.05 529.04 310.97Z"/><path id="c18aTsscLw" d="M295.41 237.42L239.68 237.42L222.84 170.06L313.91 200.42L295.41 237.42ZM282.65 216.77L284.8 212.48L251.99 201.55L255.8 216.77L282.65 216.77Z"/><path id="a465aCtX3E" d="M344.59 237.42L326.09 200.42L417.16 170.06L400.32 237.42L344.59 237.42ZM357.35 216.77L384.2 216.77L388.01 201.55L355.2 212.48L357.35 216.77Z"/><path id="dDu4pH5lh" d="M639.96 528.58L639.83 530.68L639.62 532.76L639.32 534.81L638.95 536.84L638.5 538.84L637.97 540.81L637.36 542.75L636.69 544.65L635.94 546.52L635.12 548.36L634.23 550.15L633.28 551.91L632.26 553.62L631.17 555.29L630.03 556.91L628.82 558.49L627.56 560.02L626.24 561.5L624.87 562.93L623.44 564.31L621.96 565.63L620.43 566.89L618.85 568.09L617.22 569.24L615.55 570.32L613.84 571.34L612.09 572.29L610.29 573.18L608.46 574L606.59 574.75L604.68 575.43L602.75 576.03L600.78 576.56L598.78 577.01L596.75 577.39L594.69 577.68L592.61 577.89L590.51 578.02L588.39 578.06L433.55 578.06L433.55 619.35L474.84 619.35L474.84 640L165.16 640L165.16 619.35L206.45 619.35L206.45 578.06L51.61 578.06L50.19 578.03L48.78 577.94L47.37 577.77L45.97 577.55L44.58 577.26L43.19 576.9L41.81 576.48L40.44 576L39.07 575.45L37.71 574.84L36.36 574.16L35.01 573.42L33.67 572.61L32.34 571.74L31.01 570.81L29.69 569.81L28.38 568.74L27.07 567.61L25.77 566.42L24.48 565.16L23.19 563.84L21.91 562.45L20.64 561L19.37 559.48L18.11 557.9L16.86 556.26L15.61 554.55L14.37 552.77L13.14 550.94L11.91 549.03L10.69 547.06L9.47 545.03L8.27 542.94L7.07 540.77L5.87 538.55L4.68 536.26L3.5 533.9L2.33 531.48L1.16 529L0 526.45L0 495.48L640 495.48L640 526.45L639.96 528.58ZM227.1 619.35L412.9 619.35L412.9 578.06L227.1 578.06L227.1 619.35ZM20.65 526.45L20.67 527.73L20.75 528.99L20.88 530.23L21.05 531.47L21.28 532.68L21.55 533.88L21.86 535.07L22.23 536.23L22.63 537.37L23.08 538.49L23.57 539.59L24.11 540.67L24.68 541.72L25.29 542.75L25.94 543.75L26.63 544.73L27.35 545.68L28.11 546.59L28.9 547.48L29.73 548.34L30.58 549.16L31.47 549.96L32.39 550.71L33.34 551.44L34.31 552.12L35.31 552.77L36.34 553.38L37.39 553.96L38.47 554.49L39.57 554.98L40.69 555.43L41.84 555.84L43 556.2L44.18 556.52L45.38 556.79L46.6 557.01L47.83 557.19L49.08 557.32L50.34 557.39L51.61 557.42L588.39 557.42L589.66 557.39L590.92 557.32L592.17 557.19L593.4 557.01L594.62 556.79L595.82 556.52L597 556.2L598.16 555.84L599.31 555.43L600.43 554.98L601.53 554.49L602.61 553.96L603.66 553.38L604.69 552.77L605.69 552.12L606.66 551.44L607.61 550.71L608.53 549.96L609.42 549.16L610.27 548.34L611.1 547.48L611.89 546.59L612.65 545.68L613.37 544.73L614.06 543.75L614.71 542.75L615.32 541.72L615.89 540.67L616.43 539.59L616.92 538.49L617.37 537.37L617.77 536.23L618.14 535.07L618.45 533.88L618.72 532.68L618.95 531.47L619.12 530.23L619.25 528.99L619.33 527.73L619.35 526.45L619.35 516.13L20.65 516.13L20.65 526.45Z"/><path id="baoovY5Fh" d="M516.13 92.9L516.13 113.55C559.48 113.55 583.57 113.55 588.39 113.55C605.46 113.55 619.35 127.44 619.35 144.52C619.35 166.54 619.35 276.65 619.35 474.84L640 474.84C640 276.65 640 166.54 640 144.52C640 116.06 616.85 92.9 588.39 92.9C578.75 92.9 554.67 92.9 516.13 92.9Z"/><path id="cIkl3B4OH" d="M51.61 113.55C56.43 113.55 80.52 113.55 123.87 113.55L123.87 92.9C80.52 92.9 56.43 92.9 51.61 92.9C23.15 92.9 0 116.06 0 144.52C0 166.54 0 276.65 0 474.84L20.65 474.84L20.65 144.52C29.91 123.87 40.23 113.55 51.61 113.55Z"/><path id="h5iJLMZUt" d="M426.49 350.43L419.96 330.86L350.97 353.85L350.97 433.55L371.61 433.55L371.61 368.73L426.49 350.43Z"/><path id="agVlPYevC" d="M371.61 454.19C371.61 454.19 371.61 454.19 371.61 454.19C371.61 466.58 371.61 473.46 371.61 474.84C371.61 474.84 371.61 474.84 371.61 474.84C359.23 474.84 352.34 474.84 350.97 474.84C350.97 474.84 350.97 474.84 350.97 474.84C350.97 462.45 350.97 455.57 350.97 454.19C350.97 454.19 350.97 454.19 350.97 454.19C363.35 454.19 370.24 454.19 371.61 454.19Z"/><path id="c1gKIn2b77" d="M220.04 330.86L213.51 350.43L268.39 368.73L268.39 433.55L289.03 433.55L289.03 353.85L220.04 330.86Z"/><path id="b5J0liQMAA" d="M289.03 454.19C289.03 454.19 289.03 454.19 289.03 454.19C289.03 466.58 289.03 473.46 289.03 474.84C289.03 474.84 289.03 474.84 289.03 474.84C276.65 474.84 269.76 474.84 268.39 474.84C268.39 474.84 268.39 474.84 268.39 474.84C268.39 462.45 268.39 455.57 268.39 454.19C268.39 454.19 268.39 454.19 268.39 454.19C280.77 454.19 287.66 454.19 289.03 454.19Z"/></defs><g><g><g><use fill="#600060" fill-opacity="1" opacity="1" xlink:href="#a38O5Xi4tP"/></g><g><use fill="#600060" fill-opacity="1" opacity="1" xlink:href="#irldzogCl"/></g><g><use fill="#a434b7" fill-opacity="1" opacity="1" xlink:href="#c18aTsscLw"/><g><use fill-opacity="0" stroke="#000" stroke-opacity="0" stroke-width="1" opacity="1" xlink:href="#c18aTsscLw"/></g></g><g><use fill="#a434b7" fill-opacity="1" opacity="1" xlink:href="#a465aCtX3E"/><g><use fill-opacity="0" stroke="#000" stroke-opacity="0" stroke-width="1" opacity="1" xlink:href="#a465aCtX3E"/></g></g><g><g><use fill-opacity="0" stroke="#000" stroke-opacity="1" stroke-width="2" opacity="1" xlink:href="#dDu4pH5lh"/></g></g><g><g><use fill-opacity="0" stroke="#000" stroke-opacity="1" stroke-width="2" opacity="1" xlink:href="#baoovY5Fh"/></g></g><g><g><use fill-opacity="0" stroke="#000" stroke-opacity="1" stroke-width="2" opacity="1" xlink:href="#cIkl3B4OH"/></g></g><g><use fill="#a434b7" fill-opacity="1" opacity="1" xlink:href="#h5iJLMZUt"/></g><g><use fill="#a434b7" fill-opacity="1" opacity="1" xlink:href="#agVlPYevC"/><g><use fill-opacity="0" stroke="#000" stroke-opacity="0" stroke-width="1" opacity="1" xlink:href="#agVlPYevC"/></g></g><g><use fill="#a434b7" fill-opacity="1" opacity="1" xlink:href="#c1gKIn2b77"/></g><g><use fill="#a434b7" fill-opacity="1" opacity="1" xlink:href="#b5J0liQMAA"/><g><use fill-opacity="0" stroke="#000" stroke-opacity="0" stroke-width="1" opacity="1" xlink:href="#b5J0liQMAA"/></g></g></g></g></svg>