<svg width="200" height="200" version="1.1" viewBox="0 0 640 640" xmlns="http://www.w3.org/2000/svg" xmlns:xlink="http://www.w3.org/1999/xlink">
 <defs>
  <path id="bbJJzUMF3" d="m320 10.32c-90.32 0-144.52 82.58-144.52 165.16 0 16.19 2.98 34.25 8.01 51.49 0.08-2.7 3.95-113.42 136.51-113.42s136.43 110.72 136.51 113.42c5.03-17.24 8.01-35.3 8.01-51.49 0-82.58-54.2-165.16-144.52-165.16z"/>
  <path id="c3CvHqDi" d="m529.04 310.97c-4.3-2.15-25.81-12.91-64.52-32.26-15.82-5.27-24.61-8.2-26.37-8.78-4.6 7.57-9.62 14.14-14.92 19.1-6.89 2.07-41.29 12.39-103.23 30.97-61.94-18.58-96.34-28.9-103.23-30.97-5.3-4.96-10.32-11.53-14.92-19.1-1.76 0.58-10.55 3.51-26.37 8.78-38.71 19.35-60.22 30.11-64.52 32.26-24.24 12.12-40.99 35.35-44.82 62.18-0.97 6.78-5.81 40.68-14.53 101.69h536.78l-14.53-101.69c-13.72-33.38-28.66-54.1-44.82-62.18z"/>
  <path id="bPYs1W1qw" d="m295.41 237.42h-55.73l-16.84-67.36 91.07 30.36-18.5 37zm-12.76-20.65 2.15-4.29-32.81-10.93 3.81 15.22h26.85z"/>
  <path id="jafOcQ7JV" d="m344.59 237.42-18.5-37 91.07-30.36-16.84 67.36h-55.73zm12.76-20.65h26.85l3.81-15.22-32.81 10.93 2.15 4.29z"/>
  <path id="l2H5ya91SO" d="m639.96 528.58-0.13 2.1-0.21 2.08-0.3 2.05-0.37 2.03-0.45 2-0.53 1.97-0.61 1.94-0.67 1.9-0.75 1.87-0.82 1.84-0.89 1.79-0.95 1.76-1.02 1.71-1.09 1.67-1.14 1.62-1.21 1.58-1.26 1.53-1.32 1.48-1.37 1.43-1.43 1.38-1.48 1.32-1.53 1.26-1.58 1.2-1.63 1.15-1.67 1.08-1.71 1.02-1.75 0.95-1.8 0.89-1.83 0.82-1.87 0.75-1.91 0.68-1.93 0.6-1.97 0.53-2 0.45-2.03 0.38-2.06 0.29-2.08 0.21-2.1 0.13-2.12 0.04h-154.84v41.29h41.29v20.65h-309.68v-20.65h41.29v-41.29h-154.84l-1.42-0.03-1.41-0.09-1.41-0.17-1.4-0.22-1.39-0.29-1.39-0.36-1.38-0.42-1.37-0.48-1.37-0.55-1.36-0.61-1.35-0.68-1.35-0.74-1.34-0.81-1.33-0.87-1.33-0.93-1.32-1-1.31-1.07-1.31-1.13-1.3-1.19-1.29-1.26-1.29-1.32-1.28-1.39-1.27-1.45-1.27-1.52-1.26-1.58-1.25-1.64-1.25-1.71-1.24-1.78-1.23-1.83-1.23-1.91-1.22-1.97-1.22-2.03-1.2-2.09-1.2-2.17-1.2-2.22-1.19-2.29-1.18-2.36-1.17-2.42-1.17-2.48-1.16-2.55v-30.97h640v30.97l-0.04 2.13zm-412.86 90.77h185.8v-41.29h-185.8v41.29zm-206.45-92.9 0.02 1.28 0.08 1.26 0.13 1.24 0.17 1.24 0.23 1.21 0.27 1.2 0.31 1.19 0.37 1.16 0.4 1.14 0.45 1.12 0.49 1.1 0.54 1.08 0.57 1.05 0.61 1.03 0.65 1 0.69 0.98 0.72 0.95 0.76 0.91 0.79 0.89 0.83 0.86 0.85 0.82 0.89 0.8 0.92 0.75 0.95 0.73 0.97 0.68 1 0.65 1.03 0.61 1.05 0.58 1.08 0.53 1.1 0.49 1.12 0.45 1.15 0.41 1.16 0.36 1.18 0.32 1.2 0.27 1.22 0.22 1.23 0.18 1.25 0.13 1.26 0.07 1.27 0.03h536.78l1.27-0.03 1.26-0.07 1.25-0.13 1.23-0.18 1.22-0.22 1.2-0.27 1.18-0.32 1.16-0.36 1.15-0.41 1.12-0.45 1.1-0.49 1.08-0.53 1.05-0.58 1.03-0.61 1-0.65 0.97-0.68 0.95-0.73 0.92-0.75 0.89-0.8 0.85-0.82 0.83-0.86 0.79-0.89 0.76-0.91 0.72-0.95 0.69-0.98 0.65-1 0.61-1.03 0.57-1.05 0.54-1.08 0.49-1.1 0.45-1.12 0.4-1.14 0.37-1.16 0.31-1.19 0.27-1.2 0.23-1.21 0.17-1.24 0.13-1.24 0.08-1.26 0.02-1.28v-10.32h-598.7v10.32z"/>
  <path id="k2k39iWrEH" d="m516.13 92.9v20.65h72.26c17.07 0 30.96 13.89 30.96 30.97v330.32h20.65v-330.32c0-28.46-23.15-51.62-51.61-51.62h-72.26z"/>
  <path id="g1KPnNnLeK" d="m51.61 113.55h72.26v-20.65h-72.26c-28.46 0-51.61 23.16-51.61 51.62v330.32h20.65v-330.32c9.26-20.65 19.58-30.97 30.96-30.97z"/>
  <path id="c5QsrV3YOa" d="m426.49 350.43-6.53-19.57-68.99 22.99v79.7h20.64v-64.82l54.88-18.3z"/>
  <path id="b1j4XYPOoB" d="m371.61 454.19v20.65h-20.64v-20.65h20.64z"/>
  <path id="b17yn4EJVg" d="m220.04 330.86-6.53 19.57 54.88 18.3v64.82h20.64v-79.7l-68.99-22.99z"/>
  <path id="gaCGMymUY" d="m289.03 454.19v20.65h-20.64v-20.65h20.64z"/>
 </defs>
 <use fill="#ffca28" xlink:href="#bbJJzUMF3"/>
 <use fill="#ffca28" xlink:href="#c3CvHqDi"/>
 <use fill="#a434b7" xlink:href="#bPYs1W1qw"/>
 <use fill-opacity="0" stroke="#000000" stroke-opacity="0" xlink:href="#bPYs1W1qw"/>
 <use fill="#a434b7" xlink:href="#jafOcQ7JV"/>
 <use fill-opacity="0" stroke="#000000" stroke-opacity="0" xlink:href="#jafOcQ7JV"/>
 <use fill-opacity="0" stroke="#000000" stroke-width="2" xlink:href="#l2H5ya91SO"/>
 <use fill-opacity="0" stroke="#000000" stroke-width="2" xlink:href="#k2k39iWrEH"/>
 <use fill-opacity="0" stroke="#000000" stroke-width="2" xlink:href="#g1KPnNnLeK"/>
 <use fill="#a434b7" xlink:href="#c5QsrV3YOa"/>
 <use fill="#a434b7" xlink:href="#b1j4XYPOoB"/>
 <use fill-opacity="0" stroke="#000000" stroke-opacity="0" xlink:href="#b1j4XYPOoB"/>
 <use fill="#a434b7" xlink:href="#b17yn4EJVg"/>
 <use fill="#a434b7" xlink:href="#gaCGMymUY"/>
 <use fill-opacity="0" stroke="#000000" stroke-opacity="0" xlink:href="#gaCGMymUY"/>
</svg>
