<?xml version="1.0" encoding="UTF-8" standalone="no"?>
<!DOCTYPE svg PUBLIC "-//W3C//DTD SVG 1.1//EN" "http://www.w3.org/Graphics/SVG/1.1/DTD/svg11.dtd">
<svg version="1.1" xmlns="http://www.w3.org/2000/svg" xmlns:xlink="http://www.w3.org/1999/xlink" preserveAspectRatio="xMidYMid meet" viewBox="0 0 640 640" width="200" height="200"><defs><path d="M294.91 458.2L16.44 433.99L16.44 31.2L375.73 31.2L375.73 202.84L445.78 377.94L375.73 433.99L332.07 458.2" id="aJUMvDK2y"></path><path d="M220.94 109.62L277.43 109.62L277.43 179.88L315.96 218.41L302.3 232.08L285.68 215.46L285.68 362.65L106.48 362.65L106.48 215.46L89.87 232.08L76.2 218.41L196.08 98.53L220.94 123.4L220.94 109.62ZM125.81 343.33L266.36 343.33L266.36 196.14L196.08 125.86L125.81 196.14L125.81 343.33ZM240.27 142.72L258.11 160.56L258.11 128.95L240.27 128.95L240.27 142.72Z" id="e57ZJGo3NE"></path><path d="M155.89 317.93L155.89 223.4L236.27 223.4L236.27 317.93L155.89 317.93ZM175.22 298.61L216.95 298.61L216.95 242.72L175.22 242.72L175.22 298.61Z" id="apgXJoyq5"></path><path d="M407.88 433.98C407.88 433.98 407.88 433.98 407.88 433.98C407.88 496.6 407.88 531.39 407.88 538.34C407.88 538.34 407.88 538.34 407.88 538.34C173.02 538.34 42.54 538.34 16.44 538.34C16.44 538.34 16.44 538.34 16.44 538.34C16.44 475.73 16.44 440.94 16.44 433.98C16.44 433.98 16.44 433.98 16.44 433.98C251.3 433.98 381.78 433.98 407.88 433.98Z" id="abEswlxHd"></path><path d="M423.72 538.34L375.73 538.34C375.73 337.04 375.73 225.2 375.73 202.83C375.73 189.7 386.37 179.06 399.5 179.06C409.64 179.06 490.75 179.06 500.89 179.06C568.65 179.06 623.56 233.97 623.56 301.71C623.56 317.48 623.56 396.36 623.56 538.34L564.62 538.34" id="b95uva8rl"></path><path d="M139.73 467.92C100.82 467.92 69.28 499.46 69.28 538.36C69.28 577.26 100.82 608.8 139.73 608.8C178.63 608.8 210.17 577.26 210.17 538.36C210.17 499.46 178.63 467.92 139.73 467.92Z" id="cu5kOH64c"></path><path d="M494.17 467.92C455.26 467.92 423.73 499.46 423.73 538.36C423.73 577.26 455.26 608.8 494.17 608.8C533.07 608.8 564.61 577.26 564.61 538.36C564.61 499.46 533.07 467.92 494.17 467.92Z" id="bASbndVr4"></path><path d="M570.73 301.72C570.73 263.22 539.4 231.91 500.89 231.91C496.07 231.9 471.96 231.9 428.56 231.91L428.56 356.07L570.73 356.07C570.73 323.46 570.73 305.34 570.73 301.72Z" id="conm65PSe"></path><path d="M139.73 510.23C124.19 510.23 111.6 522.82 111.6 538.36C111.6 553.9 124.19 566.49 139.73 566.49C155.26 566.49 167.86 553.9 167.86 538.36C167.86 522.82 155.26 510.23 139.73 510.23Z" id="a6W5T8zarV"></path><path d="M494.17 510.23C478.63 510.23 466.04 522.82 466.04 538.36C466.04 553.9 478.63 566.49 494.17 566.49C509.7 566.49 522.3 553.9 522.3 538.36C522.3 522.82 509.7 510.23 494.17 510.23Z" id="d6slbTtsI"></path><path d="M142.7 502.17L144.16 502.32L145.6 502.53L147.03 502.79L148.44 503.11L149.82 503.48L151.19 503.9L152.53 504.38L153.84 504.91L155.13 505.48L156.39 506.11L157.63 506.78L158.83 507.5L160.01 508.26L161.15 509.06L162.26 509.91L163.34 510.8L164.38 511.73L165.38 512.7L166.35 513.7L167.28 514.74L168.17 515.82L169.01 516.93L169.82 518.07L170.58 519.25L171.3 520.45L171.97 521.69L172.59 522.95L173.17 524.24L173.7 525.55L174.17 526.89L174.6 528.26L174.97 529.64L175.29 531.05L175.55 532.47L175.76 533.92L175.91 535.38L176 536.86L176.03 538.36L176 539.85L175.91 541.33L175.76 542.79L175.55 544.24L175.29 545.66L174.97 547.07L174.6 548.45L174.17 549.82L173.7 551.16L173.17 552.47L172.59 553.76L171.97 555.02L171.3 556.26L170.58 557.46L169.82 558.64L169.01 559.78L168.17 560.89L167.28 561.97L166.35 563.01L165.38 564.01L164.38 564.98L163.34 565.91L162.26 566.8L161.15 567.65L160.01 568.45L158.83 569.21L157.63 569.93L156.39 570.6L155.13 571.23L153.84 571.8L152.53 572.33L151.19 572.81L149.82 573.23L148.44 573.6L147.03 573.92L145.6 574.18L144.16 574.39L142.7 574.54L141.22 574.63L139.72 574.66L138.23 574.63L136.75 574.54L135.29 574.39L133.84 574.18L132.41 573.92L131.01 573.6L129.62 573.23L128.26 572.81L126.92 572.33L125.6 571.8L124.31 571.23L123.05 570.6L121.82 569.93L120.61 569.21L119.44 568.45L118.3 567.65L117.18 566.8L116.11 565.91L115.07 564.98L114.06 564.01L113.1 563.01L112.17 561.97L111.28 560.89L110.43 559.78L109.63 558.64L108.86 557.46L108.15 556.26L107.48 555.02L106.85 553.76L106.28 552.47L105.75 551.16L105.27 549.82L104.85 548.45L104.47 547.07L104.16 545.66L103.89 544.24L103.69 542.79L103.54 541.33L103.45 539.85L103.42 538.36L103.45 536.86L103.54 535.38L103.69 533.92L103.89 532.47L104.16 531.05L104.47 529.64L104.85 528.26L105.27 526.89L105.75 525.55L106.27 524.24L106.85 522.95L107.48 521.69L108.15 520.45L108.86 519.25L109.63 518.07L110.43 516.93L111.28 515.82L112.17 514.74L113.1 513.7L114.06 512.7L115.07 511.73L116.11 510.8L117.18 509.91L118.29 509.06L119.44 508.26L120.61 507.5L121.82 506.78L123.05 506.11L124.31 505.48L125.6 504.91L126.92 504.38L128.26 503.9L129.62 503.48L131.01 503.11L132.41 502.79L133.84 502.53L135.29 502.32L136.75 502.17L138.23 502.08L139.72 502.05L141.22 502.08L142.7 502.17ZM137.12 518.57L135.86 518.77L134.63 519.06L133.42 519.42L132.25 519.85L131.11 520.35L130.02 520.92L128.96 521.56L127.95 522.26L126.98 523.01L126.06 523.82L125.19 524.69L124.38 525.61L123.62 526.58L122.93 527.59L122.29 528.65L121.72 529.75L121.22 530.88L120.79 532.05L120.43 533.26L120.14 534.49L119.94 535.76L119.81 537.04L119.77 538.35L119.81 539.66L119.94 540.95L120.14 542.21L120.43 543.45L120.79 544.65L121.22 545.83L121.72 546.96L122.29 548.06L122.93 549.12L123.62 550.13L124.38 551.1L125.19 552.02L126.06 552.88L126.98 553.7L127.95 554.45L128.96 555.15L130.02 555.78L131.11 556.35L132.25 556.86L133.42 557.29L134.63 557.65L135.86 557.93L137.12 558.14L138.41 558.26L139.72 558.31L141.03 558.26L142.32 558.14L143.58 557.93L144.82 557.65L146.02 557.29L147.19 556.86L148.33 556.35L149.43 555.78L150.49 555.15L151.5 554.45L152.47 553.7L153.39 552.88L154.25 552.02L155.07 551.1L155.82 550.13L156.52 549.12L157.15 548.06L157.72 546.96L158.23 545.83L158.66 544.65L159.02 543.45L159.3 542.21L159.51 540.95L159.63 539.66L159.68 538.35L159.63 537.04L159.51 535.76L159.3 534.49L159.02 533.26L158.66 532.05L158.22 530.88L157.72 529.75L157.15 528.65L156.52 527.59L155.82 526.58L155.07 525.61L154.25 524.69L153.39 523.82L152.47 523.01L151.5 522.26L150.49 521.56L149.43 520.92L148.33 520.35L147.19 519.85L146.02 519.42L144.82 519.06L143.58 518.77L142.32 518.57L141.03 518.44L139.72 518.4L138.41 518.44L137.12 518.57Z" id="a2UlBYkmhc"></path><path d="M497.14 502.17L498.6 502.32L500.05 502.53L501.47 502.79L502.88 503.11L504.26 503.48L505.63 503.9L506.97 504.38L508.28 504.91L509.57 505.48L510.83 506.11L512.07 506.78L513.27 507.5L514.45 508.26L515.59 509.06L516.7 509.91L517.78 510.8L518.82 511.73L519.82 512.7L520.79 513.7L521.72 514.74L522.61 515.82L523.46 516.93L524.26 518.07L525.02 519.25L525.74 520.45L526.41 521.69L527.04 522.95L527.61 524.24L528.14 525.55L528.61 526.89L529.04 528.26L529.41 529.64L529.73 531.05L529.99 532.47L530.2 533.92L530.35 535.38L530.44 536.86L530.47 538.36L530.44 539.85L530.35 541.33L530.2 542.79L529.99 544.24L529.73 545.66L529.41 547.07L529.04 548.45L528.61 549.82L528.14 551.16L527.61 552.47L527.04 553.76L526.41 555.02L525.74 556.26L525.02 557.46L524.26 558.64L523.46 559.78L522.61 560.89L521.72 561.97L520.79 563.01L519.82 564.01L518.82 564.98L517.78 565.91L516.7 566.8L515.59 567.65L514.45 568.45L513.27 569.21L512.07 569.93L510.83 570.6L509.57 571.23L508.28 571.8L506.97 572.33L505.63 572.81L504.26 573.23L502.88 573.6L501.47 573.92L500.05 574.18L498.6 574.39L497.14 574.54L495.66 574.63L494.16 574.66L492.67 574.63L491.19 574.54L489.73 574.39L488.28 574.18L486.86 573.92L485.45 573.6L484.06 573.23L482.7 572.81L481.36 572.33L480.05 571.8L478.76 571.23L477.49 570.6L476.26 569.93L475.05 569.21L473.88 568.45L472.74 567.65L471.63 566.8L470.55 565.91L469.51 564.98L468.5 564.01L467.54 563.01L466.61 561.97L465.72 560.89L464.87 559.78L464.07 558.64L463.3 557.46L462.59 556.26L461.92 555.02L461.29 553.76L460.72 552.47L460.19 551.16L459.71 549.82L459.29 548.45L458.91 547.07L458.6 545.66L458.33 544.24L458.13 542.79L457.98 541.33L457.89 539.85L457.86 538.36L457.89 536.86L457.98 535.38L458.13 533.92L458.33 532.47L458.6 531.05L458.91 529.64L459.29 528.26L459.71 526.89L460.19 525.55L460.72 524.24L461.29 522.95L461.92 521.69L462.59 520.45L463.3 519.25L464.07 518.07L464.87 516.93L465.72 515.82L466.61 514.74L467.54 513.7L468.5 512.7L469.51 511.73L470.55 510.8L471.63 509.91L472.74 509.06L473.88 508.26L475.05 507.5L476.26 506.78L477.49 506.11L478.76 505.48L480.05 504.91L481.36 504.38L482.7 503.9L484.06 503.48L485.45 503.11L486.86 502.79L488.28 502.53L489.73 502.32L491.19 502.17L492.67 502.08L494.16 502.05L495.66 502.08L497.14 502.17ZM491.57 518.57L490.3 518.77L489.07 519.06L487.86 519.42L486.69 519.85L485.56 520.35L484.46 520.92L483.4 521.56L482.39 522.26L481.42 523.01L480.5 523.82L479.63 524.69L478.82 525.61L478.06 526.58L477.37 527.59L476.73 528.65L476.16 529.75L475.66 530.88L475.23 532.05L474.87 533.26L474.58 534.49L474.38 535.76L474.25 537.04L474.21 538.35L474.25 539.66L474.38 540.95L474.58 542.21L474.87 543.45L475.23 544.65L475.66 545.83L476.16 546.96L476.73 548.06L477.37 549.12L478.06 550.13L478.82 551.1L479.63 552.02L480.5 552.88L481.42 553.7L482.39 554.45L483.4 555.15L484.46 555.78L485.55 556.35L486.69 556.86L487.86 557.29L489.07 557.65L490.3 557.93L491.57 558.14L492.85 558.26L494.16 558.31L495.47 558.26L496.76 558.14L498.02 557.93L499.26 557.65L500.46 557.29L501.64 556.86L502.77 556.35L503.87 555.78L504.93 555.15L505.94 554.45L506.91 553.7L507.83 552.88L508.69 552.02L509.51 551.1L510.26 550.13L510.96 549.12L511.59 548.06L512.16 546.96L512.67 545.83L513.1 544.65L513.46 543.45L513.74 542.21L513.95 540.95L514.07 539.66L514.12 538.35L514.07 537.04L513.95 535.76L513.74 534.49L513.46 533.26L513.1 532.05L512.67 530.88L512.16 529.75L511.59 528.65L510.96 527.59L510.26 526.58L509.51 525.61L508.69 524.69L507.83 523.82L506.91 523.01L505.94 522.26L504.93 521.56L503.87 520.92L502.77 520.35L501.64 519.85L500.46 519.42L499.26 519.06L498.02 518.77L496.76 518.57L495.47 518.44L494.16 518.4L492.85 518.44L491.57 518.57Z" id="bvWM6VJtt"></path><path d="M559.58 452.06C559.58 448.71 559.58 421.94 559.58 418.59C559.58 412.44 564.57 407.44 570.73 407.44C576.88 407.44 581.87 412.44 581.87 418.59C581.87 421.94 581.87 448.71 581.87 452.06C581.87 458.21 576.88 463.2 570.73 463.2C564.57 463.2 559.58 458.21 559.58 452.06Z" id="cE9g4xDZ4"></path><path d="M593.83 517.97C587.67 517.97 582.68 512.98 582.68 506.82C582.68 500.67 587.67 495.67 593.83 495.67C597.33 495.67 625.35 495.67 628.85 495.67C635.01 495.67 640 500.67 640 506.82C640 512.98 635.01 517.97 628.85 517.97C621.85 517.97 597.33 517.97 593.83 517.97Z" id="fQrjnLMZm"></path><path d="M11.15 517.97C4.99 517.97 0 512.98 0 506.82C0 500.67 4.99 495.67 11.15 495.67C13.91 495.67 35.98 495.67 38.74 495.67C44.89 495.67 49.88 500.67 49.88 506.82C49.88 512.98 44.89 517.97 38.74 517.97C33.22 517.97 13.91 517.97 11.15 517.97Z" id="m2gcrwKkrg"></path></defs><g><g><g><g><use xlink:href="#aJUMvDK2y" opacity="1" fill-opacity="0" stroke="#a434b7" stroke-width="2" stroke-opacity="1"></use></g></g><g><use xlink:href="#e57ZJGo3NE" opacity="1" fill="#a434b7" fill-opacity="1"></use><g><use xlink:href="#e57ZJGo3NE" opacity="1" fill-opacity="0" stroke="#000000" stroke-width="1" stroke-opacity="0"></use></g></g><g><use xlink:href="#apgXJoyq5" opacity="1" fill="#a434b7" fill-opacity="1"></use><g><use xlink:href="#apgXJoyq5" opacity="1" fill-opacity="0" stroke="#000000" stroke-width="1" stroke-opacity="0"></use></g></g><g><use xlink:href="#abEswlxHd" opacity="1" fill="#415e72" fill-opacity="1"></use><g><use xlink:href="#abEswlxHd" opacity="1" fill-opacity="0" stroke="#000000" stroke-width="1" stroke-opacity="0"></use></g></g><g><use xlink:href="#b95uva8rl" opacity="1" fill="#a434b7" fill-opacity="1"></use><g><use xlink:href="#b95uva8rl" opacity="1" fill-opacity="0" stroke="#a434b7" stroke-width="2" stroke-opacity="1"></use></g></g><g><use xlink:href="#cu5kOH64c" opacity="1" fill="#808080" fill-opacity="1"></use><g><use xlink:href="#cu5kOH64c" opacity="1" fill-opacity="0" stroke="#000000" stroke-width="1" stroke-opacity="0"></use></g></g><g><use xlink:href="#bASbndVr4" opacity="1" fill="#808080" fill-opacity="1"></use><g><use xlink:href="#bASbndVr4" opacity="1" fill-opacity="0" stroke="#000000" stroke-width="1" stroke-opacity="0"></use></g></g><g><use xlink:href="#conm65PSe" opacity="1" fill="#ffffff" fill-opacity="1"></use><g><use xlink:href="#conm65PSe" opacity="1" fill-opacity="0" stroke="#000000" stroke-width="1" stroke-opacity="0"></use></g></g><g><use xlink:href="#a6W5T8zarV" opacity="1" fill="#e6e6e6" fill-opacity="1"></use><g><use xlink:href="#a6W5T8zarV" opacity="1" fill-opacity="0" stroke="#000000" stroke-width="1" stroke-opacity="0"></use></g></g><g><use xlink:href="#d6slbTtsI" opacity="1" fill="#e6e6e6" fill-opacity="1"></use><g><use xlink:href="#d6slbTtsI" opacity="1" fill-opacity="0" stroke="#000000" stroke-width="1" stroke-opacity="0"></use></g></g><g><use xlink:href="#a2UlBYkmhc" opacity="1" fill="#314a5f" fill-opacity="1"></use><g><use xlink:href="#a2UlBYkmhc" opacity="1" fill-opacity="0" stroke="#000000" stroke-width="1" stroke-opacity="0"></use></g></g><g><use xlink:href="#bvWM6VJtt" opacity="1" fill="#314a5f" fill-opacity="1"></use><g><use xlink:href="#bvWM6VJtt" opacity="1" fill-opacity="0" stroke="#000000" stroke-width="1" stroke-opacity="0"></use></g></g><g><use xlink:href="#cE9g4xDZ4" opacity="1" fill="#ffffff" fill-opacity="1"></use><g><use xlink:href="#cE9g4xDZ4" opacity="1" fill-opacity="0" stroke="#000000" stroke-width="1" stroke-opacity="0"></use></g></g><g><use xlink:href="#fQrjnLMZm" opacity="1" fill="#cfdce5" fill-opacity="1"></use><g><use xlink:href="#fQrjnLMZm" opacity="1" fill-opacity="0" stroke="#000000" stroke-width="1" stroke-opacity="0"></use></g></g><g><use xlink:href="#m2gcrwKkrg" opacity="1" fill="#cfdce5" fill-opacity="1"></use><g><use xlink:href="#m2gcrwKkrg" opacity="1" fill-opacity="0" stroke="#000000" stroke-width="1" stroke-opacity="0"></use></g></g></g></g></svg>