<?xml version="1.0" encoding="UTF-8" standalone="no"?>
<!DOCTYPE svg PUBLIC "-//W3C//DTD SVG 1.1//EN" "http://www.w3.org/Graphics/SVG/1.1/DTD/svg11.dtd">
<svg version="1.1" xmlns="http://www.w3.org/2000/svg" xmlns:xlink="http://www.w3.org/1999/xlink" preserveAspectRatio="xMidYMid meet" viewBox="0 0 610 610" width="200" height="200"><defs><path d="M592.96 207.31C599.89 207.31 604.92 213.91 603.09 220.59C593.82 254.4 570.64 338.93 533.55 474.18L93.35 474.18C144.35 338 176.23 252.88 188.98 218.84C191.58 211.9 198.2 207.31 205.61 207.31C285.83 207.31 513.03 207.31 592.96 207.31Z" id="boPCLV814"></path><path d="M184.18 240.84L548.09 240.84L593.13 240.84L530.47 472.24L96.42 474.18L184.18 240.84Z" id="d6LvSObUzx"></path><path d="M102.97 459.24L534.42 459.24L530.05 473.31L96.42 473.31L102.97 459.24Z" id="b735RRvvy"></path><path d="M570.4 474.54C476.9 474.54 289.9 474.54 9.4 474.54" id="dsZHuuyHO"></path><path d="M595.52 240.84L178.52 240.84" id="a198vTIs56"></path><path d="M205.35 225.55C205.35 228.31 203.11 230.55 200.35 230.55C197.59 230.55 195.35 228.31 195.35 225.55C195.35 222.8 197.59 220.55 200.35 220.55C203.11 220.55 205.35 222.8 205.35 225.55Z" id="b55t0qiiv"></path><path d="M228.35 225.55C228.35 228.31 226.11 230.55 223.35 230.55C220.59 230.55 218.35 228.31 218.35 225.55C218.35 222.8 220.59 220.55 223.35 220.55C226.11 220.55 228.35 222.8 228.35 225.55Z" id="f1ijglEBmn"></path><path d="M250.35 225.55C250.35 228.31 248.11 230.55 245.35 230.55C242.59 230.55 240.35 228.31 240.35 225.55C240.35 222.8 242.59 220.55 245.35 220.55C248.11 220.55 250.35 222.8 250.35 225.55Z" id="a1aXTfZCjk"></path><path d="M185.74 220.55L147.93 220.55" id="a1ZqWDHCdG"></path><path d="M134.28 220.55L111.59 220.55" id="a4DksVlJKg"></path><path d="M177.91 242.16L82.91 242.16" id="j3lgmRANnn"></path><path d="M410.55 272.3C448.11 272.16 478.64 294.97 478.75 323.25C478.75 324.32 478.71 325.38 478.62 326.43C505.76 330.63 525.76 344.96 525.83 362.07C525.83 362.07 525.83 362.07 525.83 362.07C525.9 382.57 497.32 399.29 462 399.42C445.95 399.48 317.59 399.95 301.55 400.01C266.22 400.14 237.52 383.62 237.45 363.12C237.45 363.12 237.45 363.12 237.45 363.12C237.38 345.25 259.09 330.25 288.06 326.61C290.59 307.22 312.26 292.02 338.68 291.92C344.49 291.9 350.06 292.61 355.27 293.93C367.57 280.91 387.73 272.38 410.55 272.3Z" id="a5bhzuAGJ9"></path><path d="M61.28 242.55L38.59 242.55" id="al2N1p7V9"></path><path d="M62.72 458.24L40.03 458.24" id="d8T7VgoJ3"></path><path d="M286.03 442.98L202.03 442.98" id="c6GxkUn7P1"></path><path d="M107.92 445.24L536.42 445.24L533.71 459.31L101.42 459.31L107.92 445.24Z" id="ewUl6MtuJ"></path><path d="M170.41 458.24L75.41 458.24" id="fzP3V14kg"></path><path d="M340.5 442.98L317.82 442.98" id="d2bDSj19Sh"></path><path d="M118.94 405.94L23.94 405.94" id="b1h51ytktM"></path><path d="M416.6 289.33L418.62 289.53L420.61 289.81L422.58 290.18L424.52 290.61L426.43 291.12L428.31 291.71L430.15 292.36L431.97 293.09L433.74 293.88L435.48 294.74L437.18 295.67L438.84 296.65L440.46 297.7L442.03 298.81L443.56 299.97L445.04 301.2L446.48 302.47L447.86 303.81L449.19 305.19L450.47 306.62L451.69 308.1L452.86 309.63L453.96 311.21L455.01 312.82L456 314.48L456.92 316.18L457.78 317.92L458.57 319.7L459.3 321.51L459.96 323.36L460.54 325.24L461.05 327.15L461.49 329.08L461.85 331.05L462.13 333.04L462.34 335.06L462.46 337.1L462.5 339.16L462.46 341.22L462.34 343.26L462.13 345.28L461.85 347.27L461.49 349.24L461.05 351.18L460.54 353.09L459.96 354.96L459.3 356.81L458.57 358.62L457.78 360.4L456.92 362.14L456 363.84L455.01 365.5L453.96 367.12L452.86 368.69L451.69 370.22L450.47 371.7L449.19 373.13L447.86 374.52L446.48 375.85L445.04 377.12L443.56 378.35L442.03 379.51L440.46 380.62L438.84 381.67L437.18 382.66L435.48 383.58L433.74 384.44L431.97 385.23L430.15 385.96L428.31 386.61L426.43 387.2L424.52 387.71L422.58 388.14L420.61 388.51L418.62 388.79L416.6 388.99L414.57 389.12L412.5 389.16L410.44 389.12L408.4 388.99L406.39 388.79L404.39 388.51L402.43 388.14L400.49 387.71L398.58 387.2L396.7 386.61L394.85 385.96L393.04 385.23L391.26 384.44L389.53 383.58L387.83 382.66L386.17 381.67L384.55 380.62L382.97 379.51L381.45 378.35L379.96 377.12L378.53 375.85L377.15 374.52L375.82 373.13L374.54 371.7L373.32 370.22L372.15 368.69L371.04 367.12L370 365.5L369.01 363.84L368.09 362.14L367.23 360.4L366.43 358.62L365.71 356.81L365.05 354.96L364.47 353.09L363.96 351.18L363.52 349.24L363.16 347.27L362.88 345.28L362.67 343.26L362.55 341.22L362.5 339.16L362.55 337.1L362.67 335.06L362.88 333.04L363.16 331.05L363.52 329.08L363.96 327.15L364.47 325.24L365.05 323.36L365.71 321.51L366.43 319.7L367.23 317.92L368.09 316.18L369.01 314.48L370 312.82L371.04 311.21L372.15 309.63L373.32 308.1L374.54 306.62L375.82 305.19L377.15 303.81L378.53 302.47L379.96 301.2L381.45 299.97L382.97 298.81L384.55 297.7L386.17 296.65L387.83 295.67L389.53 294.74L391.26 293.88L393.04 293.09L394.85 292.36L396.7 291.71L398.58 291.12L400.49 290.61L402.43 290.18L404.39 289.81L406.39 289.53L408.4 289.33L410.44 289.2L412.5 289.16L414.57 289.2L416.6 289.33ZM400.03 383.59L400.6 383.75L401.17 383.9L401.74 384.04L402.32 384.17L402.9 384.3L403.48 384.42L404.07 384.53L404.66 384.64L405.25 384.73L405.84 384.82L406.43 384.91L407.03 384.98L407.63 385.05L408.23 385.11L408.84 385.16L409.44 385.2L410.05 385.24L410.66 385.27L411.27 385.29L411.89 385.3L412.5 385.31L413.24 385.3L413.96 385.28L414.69 385.25L415.41 385.21L416.13 385.16L416.85 385.1L417.56 385.03L418.27 384.95L418.98 384.85L419.68 384.75L420.38 384.63L421.08 384.51L421.77 384.37L422.46 384.22L423.15 384.07L423.83 383.9L424.5 383.72L425.18 383.53L425.85 383.34L426.51 383.13L427.17 382.91L427.83 382.69L427.81 382.66L427.79 382.63L427.78 382.61L427.76 382.58L427.75 382.55L427.73 382.53L427.71 382.5L427.7 382.47L427.68 382.44L427.67 382.41L427.65 382.39L427.64 382.36L427.62 382.33L427.61 382.3L427.59 382.27L427.58 382.24L427.57 382.21L427.55 382.18L427.54 382.15L427.53 382.12L427.51 382.09L427.5 382.06L413.32 343.2L399.47 383.43L400.03 383.59ZM369.8 321.66L369.54 322.31L369.29 322.97L369.05 323.63L368.82 324.29L368.6 324.96L368.38 325.64L368.18 326.31L367.99 327L367.81 327.68L367.64 328.37L367.47 329.07L367.32 329.76L367.18 330.47L367.05 331.17L366.93 331.88L366.83 332.59L366.73 333.31L366.64 334.03L366.57 334.75L366.5 335.48L366.45 336.21L366.41 336.94L366.38 337.68L366.36 338.42L366.36 339.16L366.4 341.18L366.53 343.18L366.74 345.15L367.04 347.1L367.41 349.01L367.87 350.91L368.4 352.76L369 354.59L369.68 356.38L370.43 358.14L371.25 359.86L372.14 361.53L373.09 363.17L374.11 364.76L375.19 366.31L376.33 367.81L377.53 369.26L378.78 370.66L380.09 372.01L381.46 373.3L382.88 374.54L384.34 375.72L385.86 376.84L387.42 377.9L389.03 378.89L390.68 379.82L392.37 380.69L370.35 320.38L370.07 321.02L369.8 321.66ZM453.04 317.35L453.06 317.51L453.08 317.68L453.1 317.85L453.12 318.02L453.13 318.19L453.15 318.36L453.17 318.53L453.18 318.7L453.2 318.87L453.21 319.05L453.22 319.22L453.24 319.4L453.25 319.57L453.26 319.75L453.27 319.93L453.27 320.11L453.28 320.29L453.29 320.47L453.3 320.65L453.3 320.84L453.3 321.02L453.31 321.21L453.31 321.39L453.31 321.58L453.31 321.77L453.31 322.12L453.29 322.5L453.27 322.9L453.23 323.31L453.19 323.75L453.14 324.2L453.08 324.68L453 325.17L452.92 325.68L452.83 326.22L452.73 326.77L452.62 327.34L452.5 327.94L452.37 328.55L452.23 329.18L452.08 329.83L451.92 330.5L451.75 331.19L451.57 331.9L451.38 332.63L451.19 333.38L450.98 334.15L450.76 334.94L450.54 335.75L450.3 336.58L450.05 337.43L449.8 338.29L435.71 379.04L437.21 378.13L438.68 377.15L440.1 376.13L441.49 375.05L442.83 373.92L444.13 372.75L445.38 371.52L446.59 370.25L447.75 368.93L448.86 367.57L449.91 366.17L450.92 364.73L451.86 363.24L452.76 361.72L453.59 360.17L454.37 358.57L455.09 356.95L455.74 355.29L456.34 353.6L456.87 351.89L457.33 350.14L457.73 348.37L458.05 346.57L458.31 344.75L458.49 342.91L458.61 341.04L458.64 339.16L458.64 338.27L458.61 337.39L458.57 336.5L458.51 335.63L458.44 334.76L458.35 333.89L458.24 333.03L458.12 332.17L457.98 331.31L457.83 330.47L457.66 329.63L457.47 328.79L457.27 327.96L457.06 327.14L456.83 326.32L456.59 325.5L456.33 324.7L456.06 323.9L455.77 323.11L455.47 322.32L455.16 321.54L454.83 320.77L454.49 320L454.14 319.25L453.77 318.5L453.39 317.75L452.99 317.02L453.02 317.18L453.04 317.35ZM410.1 293.08L408.91 293.15L407.73 293.26L406.56 293.39L405.4 293.56L404.24 293.75L403.1 293.97L401.96 294.22L400.84 294.5L399.73 294.81L398.63 295.14L397.54 295.5L396.46 295.88L395.4 296.29L394.35 296.73L393.31 297.19L392.29 297.67L391.27 298.18L390.28 298.72L389.3 299.27L388.33 299.85L387.38 300.46L386.45 301.08L385.53 301.73L384.62 302.4L383.74 303.09L382.87 303.8L382.02 304.53L381.19 305.28L380.38 306.05L379.58 306.84L378.81 307.65L378.05 308.48L377.32 309.33L376.6 310.19L375.91 311.07L375.23 311.97L374.58 312.88L373.95 313.82L374.03 313.82L374.11 313.82L374.19 313.82L374.27 313.83L374.35 313.83L374.43 313.83L374.51 313.83L374.59 313.83L374.67 313.84L374.75 313.84L374.83 313.84L374.91 313.84L374.98 313.84L375.06 313.85L375.14 313.85L375.21 313.85L375.29 313.85L375.37 313.85L375.44 313.85L375.52 313.85L375.59 313.86L375.66 313.86L375.74 313.86L375.81 313.86L375.88 313.86L375.96 313.86L376.03 313.86L376.1 313.86L376.17 313.86L376.24 313.87L376.31 313.87L376.38 313.87L376.45 313.87L376.52 313.87L376.58 313.87L376.65 313.87L376.72 313.87L376.79 313.87L376.85 313.87L376.92 313.87L377.28 313.87L377.66 313.87L378.04 313.86L378.43 313.85L378.83 313.84L379.23 313.83L379.64 313.82L380.05 313.81L380.46 313.79L380.88 313.78L381.29 313.76L381.7 313.74L382.12 313.72L382.53 313.7L382.93 313.68L383.33 313.66L383.73 313.64L384.12 313.62L384.5 313.6L384.88 313.57L385.24 313.55L385.6 313.53L385.95 313.51L386.28 313.49L386.6 313.47L386.91 313.45L387.2 313.43L387.47 313.41L387.73 313.39L387.98 313.37L388.2 313.36L388.4 313.34L388.59 313.33L388.75 313.32L388.89 313.3L389 313.3L389.1 313.29L389.16 313.28L389.22 313.28L389.4 313.28L389.57 313.29L389.74 313.31L389.9 313.34L390.04 313.39L390.19 313.45L390.32 313.52L390.44 313.59L390.55 313.68L390.66 313.78L390.76 313.88L390.85 313.99L390.93 314.1L391 314.22L391.06 314.35L391.11 314.48L391.15 314.61L391.19 314.74L391.21 314.88L391.23 315.02L391.24 315.16L391.23 315.3L391.22 315.44L391.2 315.58L391.17 315.72L391.13 315.85L391.08 315.98L391.02 316.11L390.95 316.23L390.87 316.35L390.78 316.46L390.68 316.56L390.57 316.66L390.45 316.75L390.32 316.83L390.18 316.9L390.03 316.97L389.87 317.02L389.7 317.06L389.51 317.09L389.5 317.09L389.47 317.09L389.44 317.09L389.4 317.1L389.35 317.1L389.3 317.11L389.23 317.12L389.16 317.13L389.08 317.13L388.99 317.14L388.9 317.15L388.8 317.16L388.69 317.17L388.58 317.19L388.45 317.2L388.33 317.21L388.2 317.22L388.06 317.24L387.91 317.25L387.77 317.26L387.61 317.28L387.45 317.29L387.29 317.31L387.12 317.32L386.95 317.34L386.78 317.35L386.6 317.36L386.41 317.38L386.23 317.39L386.04 317.41L385.85 317.42L385.65 317.44L385.45 317.45L385.25 317.46L385.05 317.48L384.85 317.49L384.64 317.5L384.44 317.51L384.23 317.53L401.04 367.5L411.13 337.23L403.95 317.53L403.76 317.51L403.58 317.5L403.39 317.49L403.21 317.48L403.03 317.46L402.85 317.45L402.67 317.44L402.49 317.42L402.31 317.41L402.14 317.39L401.97 317.38L401.81 317.36L401.64 317.35L401.48 317.34L401.32 317.32L401.17 317.31L401.02 317.29L400.87 317.28L400.73 317.26L400.59 317.25L400.46 317.24L400.33 317.22L400.21 317.21L400.09 317.2L399.98 317.19L399.87 317.17L399.77 317.16L399.68 317.15L399.59 317.14L399.51 317.13L399.44 317.13L399.37 317.12L399.31 317.11L399.25 317.1L399.21 317.1L399.17 317.09L399.14 317.09L399.1 317.09L398.92 317.07L398.75 317.04L398.59 317L398.44 316.94L398.3 316.88L398.17 316.8L398.05 316.72L397.94 316.62L397.84 316.52L397.75 316.41L397.67 316.3L397.6 316.17L397.54 316.05L397.49 315.92L397.45 315.78L397.42 315.64L397.4 315.5L397.38 315.36L397.38 315.22L397.39 315.08L397.4 314.94L397.43 314.79L397.46 314.66L397.5 314.52L397.56 314.39L397.62 314.26L397.69 314.13L397.77 314.01L397.86 313.9L397.95 313.8L398.06 313.7L398.17 313.61L398.3 313.53L398.43 313.46L398.57 313.4L398.72 313.35L398.88 313.31L399.04 313.29L399.22 313.28L399.4 313.28L399.45 313.28L399.52 313.29L399.62 313.3L399.73 313.3L399.88 313.32L400.04 313.33L400.23 313.34L400.43 313.36L400.66 313.37L400.9 313.39L401.17 313.41L401.44 313.43L401.74 313.45L402.05 313.47L402.37 313.49L402.7 313.51L403.05 313.53L403.41 313.55L403.77 313.57L404.15 313.6L404.53 313.62L404.92 313.64L405.31 313.66L405.71 313.68L406.11 313.7L406.52 313.72L406.92 313.74L407.33 313.76L407.74 313.78L408.14 313.79L408.54 313.81L408.94 313.82L409.34 313.83L409.73 313.84L410.11 313.85L410.48 313.86L410.85 313.87L411.2 313.87L411.55 313.87L411.92 313.87L412.29 313.87L412.68 313.86L413.07 313.85L413.46 313.84L413.87 313.83L414.27 313.82L414.68 313.81L415.09 313.79L415.51 313.78L415.92 313.76L416.33 313.74L416.75 313.72L417.16 313.7L417.56 313.68L417.96 313.66L418.36 313.64L418.75 313.62L419.13 313.6L419.51 313.57L419.88 313.55L420.23 313.53L420.58 313.51L420.91 313.49L421.23 313.47L421.54 313.45L421.83 313.43L422.11 313.41L422.37 313.39L422.61 313.37L422.83 313.36L423.04 313.34L423.22 313.33L423.38 313.32L423.52 313.3L423.64 313.3L423.73 313.29L423.8 313.28L423.85 313.28L424.03 313.28L424.21 313.29L424.37 313.31L424.53 313.34L424.68 313.39L424.82 313.45L424.95 313.52L425.07 313.59L425.19 313.68L425.29 313.78L425.39 313.88L425.48 313.99L425.56 314.1L425.63 314.22L425.69 314.35L425.74 314.48L425.78 314.61L425.82 314.74L425.84 314.88L425.86 315.02L425.86 315.16L425.86 315.3L425.85 315.44L425.83 315.58L425.8 315.72L425.75 315.85L425.7 315.98L425.64 316.11L425.57 316.23L425.49 316.35L425.4 316.46L425.3 316.56L425.19 316.66L425.07 316.75L424.94 316.83L424.8 316.9L424.65 316.97L424.49 317.02L424.32 317.06L424.14 317.09L424.1 317.09L424.07 317.09L424.03 317.1L423.98 317.1L423.92 317.11L423.86 317.12L423.79 317.13L423.71 317.13L423.62 317.14L423.53 317.15L423.43 317.16L423.32 317.17L423.2 317.19L423.08 317.2L422.96 317.21L422.83 317.22L422.69 317.24L422.55 317.25L422.4 317.26L422.24 317.28L422.09 317.29L421.92 317.31L421.76 317.32L421.58 317.34L421.41 317.35L421.23 317.36L421.05 317.38L420.86 317.39L420.67 317.41L420.48 317.42L420.28 317.44L420.09 317.45L419.89 317.46L419.69 317.48L419.48 317.49L419.28 317.5L419.07 317.51L418.86 317.53L435.54 367.12L440.14 351.75L440.32 351.3L440.49 350.86L440.65 350.42L440.81 349.98L440.97 349.55L441.12 349.12L441.26 348.7L441.41 348.27L441.54 347.86L441.68 347.44L441.81 347.03L441.93 346.63L442.05 346.23L442.17 345.83L442.28 345.44L442.39 345.05L442.49 344.66L442.59 344.28L442.69 343.9L442.78 343.52L442.86 343.15L442.94 342.78L443.02 342.42L443.09 342.06L443.16 341.71L443.22 341.35L443.28 341.01L443.34 340.66L443.39 340.32L443.44 339.99L443.48 339.65L443.51 339.32L443.55 339L443.58 338.68L443.6 338.36L443.62 338.05L443.64 337.74L443.65 337.43L443.65 337.13L443.66 336.83L443.65 336.41L443.64 335.99L443.62 335.58L443.6 335.17L443.56 334.77L443.53 334.38L443.48 333.99L443.43 333.61L443.37 333.24L443.31 332.87L443.24 332.5L443.16 332.15L443.09 331.79L443 331.45L442.91 331.11L442.82 330.77L442.72 330.44L442.62 330.11L442.52 329.79L442.41 329.48L442.3 329.17L442.18 328.86L442.07 328.56L441.95 328.27L441.82 327.98L441.7 327.69L441.57 327.41L441.44 327.13L441.31 326.86L441.18 326.59L441.05 326.32L440.92 326.06L440.78 325.8L440.65 325.55L440.51 325.3L440.38 325.05L440.25 324.81L440.11 324.57L439.98 324.34L439.85 324.1L439.67 323.82L439.5 323.54L439.33 323.26L439.15 322.98L438.98 322.7L438.81 322.43L438.65 322.16L438.48 321.88L438.32 321.61L438.16 321.34L438 321.08L437.84 320.81L437.69 320.54L437.54 320.28L437.39 320.01L437.25 319.75L437.11 319.49L436.97 319.22L436.84 318.96L436.71 318.69L436.58 318.43L436.47 318.17L436.35 317.9L436.24 317.64L436.14 317.38L436.04 317.11L435.94 316.85L435.86 316.58L435.77 316.31L435.7 316.04L435.63 315.77L435.57 315.5L435.51 315.23L435.46 314.96L435.42 314.68L435.38 314.41L435.36 314.13L435.34 313.85L435.32 313.57L435.32 313.28L435.33 312.96L435.34 312.65L435.37 312.33L435.41 312.02L435.47 311.71L435.53 311.4L435.6 311.1L435.69 310.8L435.79 310.5L435.89 310.21L436.01 309.93L436.14 309.64L436.27 309.37L436.42 309.09L436.57 308.83L436.74 308.57L436.91 308.31L437.1 308.07L437.29 307.83L437.49 307.6L437.7 307.37L437.92 307.16L438.15 306.95L438.38 306.76L438.62 306.57L438.87 306.39L439.13 306.22L439.39 306.06L439.67 305.91L439.94 305.78L440.23 305.65L440.52 305.54L440.82 305.44L441.12 305.35L441.43 305.27L441.75 305.21L442.07 305.16L442.4 305.12L442.73 305.1L443.07 305.09L443.09 305.09L443.1 305.09L443.12 305.1L443.13 305.1L443.15 305.1L443.16 305.1L443.18 305.1L443.19 305.1L443.2 305.1L443.22 305.1L443.23 305.1L443.26 305.1L443.28 305.1L443.31 305.1L443.32 305.11L443.35 305.11L443.37 305.11L443.4 305.11L443.41 305.11L443.44 305.11L443.47 305.12L443.55 305.12L443.59 305.13L443.6 305.13L443.63 305.13L443.66 305.13L443.04 304.58L442.41 304.03L441.77 303.49L441.12 302.97L440.46 302.45L439.79 301.95L439.11 301.46L438.43 300.98L437.73 300.52L437.02 300.07L436.31 299.63L435.59 299.2L434.85 298.78L434.11 298.38L433.37 297.99L432.61 297.62L431.85 297.26L431.08 296.91L430.3 296.57L429.51 296.25L428.72 295.95L427.92 295.65L427.11 295.38L426.3 295.11L425.48 294.86L424.65 294.63L423.82 294.41L422.98 294.21L422.14 294.02L421.29 293.85L420.43 293.69L419.57 293.55L418.7 293.43L417.83 293.32L416.96 293.23L416.08 293.15L415.19 293.09L414.3 293.05L413.4 293.02L412.5 293.01L411.3 293.03L410.1 293.08Z" id="c1J08IEvZP"></path><path d="M296.86 318.24L201.86 318.24" id="an11iKBy"></path><path d="M189.86 318.24L167.17 318.24" id="a4KuSOUd3X"></path><path d="M264.17 350.08L180.17 350.08" id="c7pd3nnOLp"></path><path d="M271.35 381.09L187.35 381.09" id="agcwSmpng"></path><path d="M175.27 381.09L152.58 381.09" id="b1cynh2Jy6"></path></defs><g><g><g><use xlink:href="#boPCLV814" opacity="1" fill="#a434b7" fill-opacity="1"></use><g><use xlink:href="#boPCLV814" opacity="1" fill-opacity="0" stroke="#222222" stroke-width="7" stroke-opacity="1"></use></g></g><g><use xlink:href="#d6LvSObUzx" opacity="1" fill="#ffffff" fill-opacity="1"></use></g><g><use xlink:href="#b735RRvvy" opacity="1" fill="#ffe38f" fill-opacity="1"></use></g><g><g><use xlink:href="#dsZHuuyHO" opacity="1" fill-opacity="0" stroke="#222222" stroke-width="7" stroke-opacity="1"></use></g></g><g><g><use xlink:href="#a198vTIs56" opacity="1" fill-opacity="0" stroke="#222222" stroke-width="5" stroke-opacity="1"></use></g></g><g><use xlink:href="#b55t0qiiv" opacity="1" fill="#ffffff" fill-opacity="1"></use><g><use xlink:href="#b55t0qiiv" opacity="1" fill-opacity="0" stroke="#222222" stroke-width="2" stroke-opacity="1"></use></g></g><g><use xlink:href="#f1ijglEBmn" opacity="1" fill="#ffffff" fill-opacity="1"></use><g><use xlink:href="#f1ijglEBmn" opacity="1" fill-opacity="0" stroke="#222222" stroke-width="2" stroke-opacity="1"></use></g></g><g><use xlink:href="#a1aXTfZCjk" opacity="1" fill="#ffffff" fill-opacity="1"></use><g><use xlink:href="#a1aXTfZCjk" opacity="1" fill-opacity="0" stroke="#222222" stroke-width="2" stroke-opacity="1"></use></g></g><g><g><use xlink:href="#a1ZqWDHCdG" opacity="1" fill-opacity="0" stroke="#222222" stroke-width="4" stroke-opacity="1"></use></g></g><g><g><use xlink:href="#a4DksVlJKg" opacity="1" fill-opacity="0" stroke="#222222" stroke-width="4" stroke-opacity="1"></use></g></g><g><g><use xlink:href="#j3lgmRANnn" opacity="1" fill-opacity="0" stroke="#222222" stroke-width="4" stroke-opacity="1"></use></g></g><g><use xlink:href="#a5bhzuAGJ9" opacity="1" fill="#ffe38f" fill-opacity="0.53"></use></g><g><g><use xlink:href="#al2N1p7V9" opacity="1" fill-opacity="0" stroke="#222222" stroke-width="4" stroke-opacity="1"></use></g></g><g><g><use xlink:href="#d8T7VgoJ3" opacity="1" fill-opacity="0" stroke="#222222" stroke-width="4" stroke-opacity="1"></use></g></g><g><g><use xlink:href="#c6GxkUn7P1" opacity="1" fill-opacity="0" stroke="#222222" stroke-width="4" stroke-opacity="1"></use></g></g><g><use xlink:href="#ewUl6MtuJ" opacity="1" fill="#ffe38f" fill-opacity="0.66"></use></g><g><g><use xlink:href="#fzP3V14kg" opacity="1" fill-opacity="0" stroke="#222222" stroke-width="4" stroke-opacity="1"></use></g></g><g><g><use xlink:href="#d2bDSj19Sh" opacity="1" fill-opacity="0" stroke="#222222" stroke-width="4" stroke-opacity="1"></use></g></g><g><g><use xlink:href="#b1h51ytktM" opacity="1" fill-opacity="0" stroke="#222222" stroke-width="4" stroke-opacity="1"></use></g></g><g><use xlink:href="#c1J08IEvZP" opacity="1" fill="#ffffff" fill-opacity="1"></use><g><use xlink:href="#c1J08IEvZP" opacity="1" fill-opacity="0" stroke="#000000" stroke-width="1" stroke-opacity="0"></use></g></g><g><g><use xlink:href="#an11iKBy" opacity="1" fill-opacity="0" stroke="#fff0c3" stroke-width="4" stroke-opacity="1"></use></g></g><g><g><use xlink:href="#a4KuSOUd3X" opacity="1" fill-opacity="0" stroke="#fff0c3" stroke-width="4" stroke-opacity="1"></use></g></g><g><g><use xlink:href="#c7pd3nnOLp" opacity="1" fill-opacity="0" stroke="#fff0c3" stroke-width="4" stroke-opacity="1"></use></g></g><g><g><use xlink:href="#agcwSmpng" opacity="1" fill-opacity="0" stroke="#fff0c3" stroke-width="4" stroke-opacity="1"></use></g></g><g><g><use xlink:href="#b1cynh2Jy6" opacity="1" fill-opacity="0" stroke="#fff0c3" stroke-width="4" stroke-opacity="1"></use></g></g></g></g></svg>