<svg xmlns="http://www.w3.org/2000/svg" xmlns:xlink="http://www.w3.org/1999/xlink" width="640" height="480" preserveAspectRatio="xMidYMid meet" version="1.1" viewBox="0 0 640 480"><defs><path id="e3rnFihAUj" d="M498.66 48.51C486.15 36.99 479.2 30.58 477.81 29.3C462.1 14.83 436.47 17.43 421.7 35.17C366.89 99.81 257.87 247.91 333.56 317.65C409.24 387.4 547.95 266.67 607.91 206.77C624.39 190.6 624.89 164.84 609.18 150.37C607.79 149.09 600.84 142.68 588.34 131.16"/><path id="czKsE0oY0" d="M337.2 313.38C275.69 380.13 241.52 417.21 234.69 424.62C196.04 466.55 131.23 469.83 90.11 431.93C86.48 428.59 57.46 401.85 53.84 398.51C19 366.4 14.03 313.9 40.29 275.09"/><path id="c3Ey7mShe" d="M473.3 50.22C469.59 46.79 469.58 40.51 473.27 36.5C474.26 35.42 482.22 26.79 483.21 25.71C486.9 21.7 493.17 21.21 496.88 24.63C498.4 26.02 510.51 37.18 512.02 38.58C515.73 42 515.75 48.29 512.06 52.29C511.06 53.37 503.11 62 502.11 63.08C498.42 67.09 492.15 67.59 488.44 64.16C485.41 61.37 474.82 51.61 473.3 50.22Z"/><path id="l4TNevBWFf" d="M574.12 142C570.41 138.58 570.39 132.29 574.08 128.28C575.08 127.2 583.03 118.57 584.03 117.49C587.72 113.48 593.99 112.99 597.7 116.41C599.21 117.81 611.32 128.96 612.83 130.36C616.55 133.78 616.56 140.07 612.87 144.07C611.88 145.15 603.92 153.79 602.93 154.86C599.24 158.87 592.97 159.37 589.26 155.95C586.23 153.16 575.63 143.39 574.12 142Z"/><path id="c3ytEmFvs" d="M343.9 335.66C340.49 339.36 335.93 340.86 331.38 340.65C331.09 340.96 328.82 343.42 328.53 343.73C323.14 349.59 314.02 350.31 308.6 345.31C308.54 345.26 308.08 344.84 308.02 344.78C302.6 339.78 302.57 330.64 307.97 324.78C308.26 324.48 310.53 322.01 310.81 321.7C310.23 317.17 311.36 312.51 314.77 308.81C314.82 308.75 315.28 308.26 315.34 308.2C320.73 302.34 329.85 301.62 335.27 306.62C336.19 307.46 343.5 314.2 344.41 315.04C349.84 320.04 350.15 328.88 344.47 335.04C344.35 335.16 343.95 335.6 343.9 335.66Z"/><path id="i17wJAJbM6" d="M95.06 212.91C78.98 198.08 52.96 200.14 36.96 217.5C20.95 234.87 21.02 260.97 37.11 275.79C53.2 290.62 79.22 288.56 95.22 271.19C111.22 253.83 111.15 227.73 95.06 212.91Z"/><path id="a4Z6M6EmY" d="M77.6 232.32C70.98 226.23 60.34 227.01 53.83 234.08C47.32 241.14 47.4 251.81 54.02 257.91C60.63 264 71.27 263.21 77.78 256.15C84.29 249.08 84.21 238.42 77.6 232.32Z"/></defs><g><g><g><g><use fill-opacity="0" stroke="#600060" stroke-opacity="1" stroke-width="7" opacity="1" xlink:href="#e3rnFihAUj"/></g></g><g><use fill="#000" fill-opacity="0" opacity="1" xlink:href="#czKsE0oY0"/><g><use fill-opacity="0" stroke="#600060" stroke-opacity="1" stroke-width="7" opacity="1" xlink:href="#czKsE0oY0"/></g></g><g><use fill="#fff" fill-opacity="1" opacity="1" xlink:href="#c3Ey7mShe"/><g><use fill-opacity="0" stroke="#600060" stroke-opacity="1" stroke-width="5" opacity="1" xlink:href="#c3Ey7mShe"/></g></g><g><use fill="#fff" fill-opacity="1" opacity="1" xlink:href="#l4TNevBWFf"/><g><use fill-opacity="0" stroke="#600060" stroke-opacity="1" stroke-width="6" opacity="1" xlink:href="#l4TNevBWFf"/></g></g><g><use fill="#fff" fill-opacity="1" opacity="1" xlink:href="#c3ytEmFvs"/><g><use fill-opacity="0" stroke="#600060" stroke-opacity="1" stroke-width="5" opacity="1" xlink:href="#c3ytEmFvs"/></g></g><g><use fill="#000" fill-opacity="0" opacity="1" xlink:href="#i17wJAJbM6"/><g><use fill-opacity="0" stroke="#600060" stroke-opacity="1" stroke-width="5" opacity="1" xlink:href="#i17wJAJbM6"/></g></g><g><use fill="#000" fill-opacity="0" opacity="1" xlink:href="#a4Z6M6EmY"/><g><use fill-opacity="0" stroke="#600060" stroke-opacity="1" stroke-width="2" opacity="1" xlink:href="#a4Z6M6EmY"/></g></g></g></g></svg>