<svg width="640" height="480" version="1.1" viewBox="0 0 640 480" xmlns="http://www.w3.org/2000/svg" xmlns:xlink="http://www.w3.org/1999/xlink">
 <defs>
  <path id="dAHkFp11D" d="m498.66 48.51c-12.51-11.52-19.46-17.93-20.85-19.21-15.71-14.47-41.34-11.87-56.11 5.87-54.81 64.64-163.83 212.74-88.14 282.48 75.68 69.75 214.39-50.98 274.35-110.88 16.48-16.17 16.98-41.93 1.27-56.4-1.39-1.28-8.34-7.69-20.84-19.21"/>
  <path id="dX4HjmOh3" d="m334.2 316.38c-61.51 66.75-95.68 103.83-102.51 111.24-38.65 41.93-103.46 45.21-144.58 7.31-3.63-3.34-32.65-30.08-36.27-33.42-34.84-32.11-39.81-84.61-13.55-123.42"/>
  <path id="b1RI1pPALq" d="m473.3 49.09c-3.71-3.42-3.72-9.71-0.03-13.71 0.99-1.08 8.95-9.71 9.94-10.79 3.69-4.01 9.96-4.51 13.67-1.08 1.52 1.39 13.63 12.55 15.14 13.94 3.71 3.43 3.73 9.71 0.04 13.72-1 1.08-8.95 9.71-9.95 10.79-3.69 4.01-9.96 4.5-13.67 1.08-3.03-2.79-13.62-12.55-15.14-13.95z"/>
  <path id="d63HUSeyw" d="m574.12 142c-3.71-3.42-3.73-9.71-0.04-13.72 1-1.08 8.95-9.71 9.95-10.79 3.69-4.01 9.96-4.5 13.67-1.08 1.51 1.4 13.62 12.55 15.13 13.95 3.72 3.42 3.73 9.71 0.04 13.71-0.99 1.08-8.95 9.72-9.94 10.79-3.69 4.01-9.96 4.51-13.67 1.09-3.03-2.79-13.63-12.56-15.14-13.95z"/>
  <path id="iqQWxs9RX" d="m343.9 335.66c-3.41 3.7-7.97 5.2-12.52 4.99-0.29 0.31-2.56 2.77-2.85 3.08-5.39 5.86-14.51 6.58-19.93 1.58-0.06-0.05-0.52-0.47-0.58-0.53-5.42-5-5.45-14.14-0.05-20 0.29-0.3 2.56-2.77 2.84-3.08-0.58-4.53 0.55-9.19 3.96-12.89 0.05-0.06 0.51-0.55 0.57-0.61 5.39-5.86 14.51-6.58 19.93-1.58 0.92 0.84 8.23 7.58 9.14 8.42 5.43 5 5.74 13.84 0.06 20-0.12 0.12-0.52 0.56-0.57 0.62z"/>
  <path id="b1Ev0ypE1F" d="m98.97 209.44c-16.08-14.83-42.1-12.77-58.1 4.59-16.01 17.37-15.94 43.47 0.15 58.29 16.09 14.83 42.11 12.77 58.11-4.6 16-17.36 15.93-43.46-0.16-58.28z"/>
 </defs>
 <use fill="#a334b7" fill-opacity="0" xlink:href="#dAHkFp11D"/>
 <use fill-opacity="0" stroke="#f5f5f5" stroke-width="17" xlink:href="#dAHkFp11D"/>
 <use fill="#000000" fill-opacity="0" xlink:href="#dX4HjmOh3"/>
 <use fill-opacity="0" stroke="#f5f5f5" stroke-width="17" xlink:href="#dX4HjmOh3"/>
 <use fill="#f5f5f5" xlink:href="#b1RI1pPALq"/>
 <use fill="#f5f5f5" xlink:href="#d63HUSeyw"/>
 <use fill-opacity="0" stroke="#000000" stroke-opacity="0" xlink:href="#d63HUSeyw"/>
 <use fill="#f5f5f5" xlink:href="#iqQWxs9RX"/>
 <use fill-opacity="0" stroke="#f5f5f5" stroke-width="6" xlink:href="#iqQWxs9RX"/>
 <use fill="#000000" fill-opacity="0" xlink:href="#b1Ev0ypE1F"/>
 <use fill-opacity="0" stroke="#f5f5f5" stroke-width="17" xlink:href="#b1Ev0ypE1F"/>
</svg>
