<svg xmlns="http://www.w3.org/2000/svg" xmlns:xlink="http://www.w3.org/1999/xlink" width="640" height="480"><defs><path d="M498.66 48.51c-12.51-11.52-19.46-17.93-20.85-19.21-15.71-14.47-41.34-11.87-56.11 5.87-54.81 64.64-163.83 212.74-88.14 282.48 75.68 69.75 214.39-50.98 274.35-110.88 16.48-16.17 16.98-41.93 1.27-56.4-1.39-1.28-8.34-7.69-20.84-19.21" id="a"/><path d="M337.2 313.38c-61.51 66.75-95.68 103.83-102.51 111.24-38.65 41.93-103.46 45.21-144.58 7.31-3.63-3.34-32.65-30.08-36.27-33.42C19 366.4 14.03 313.9 40.29 275.09" id="b"/><path d="M473.3 50.22c-3.71-3.43-3.72-9.71-.03-13.72.99-1.08 8.95-9.71 9.94-10.79 3.69-4.01 9.96-4.5 13.67-1.08 1.52 1.39 13.63 12.55 15.14 13.95 3.71 3.42 3.73 9.71.04 13.71-1 1.08-8.95 9.71-9.95 10.79-3.69 4.01-9.96 4.51-13.67 1.08-3.03-2.79-13.62-12.55-15.14-13.94z" id="c"/><path d="M574.12 142c-3.71-3.42-3.73-9.71-.04-13.72 1-1.08 8.95-9.71 9.95-10.79 3.69-4.01 9.96-4.5 13.67-1.08 1.51 1.4 13.62 12.55 15.13 13.95 3.72 3.42 3.73 9.71.04 13.71-.99 1.08-8.95 9.72-9.94 10.79-3.69 4.01-9.96 4.51-13.67 1.09-3.03-2.79-13.63-12.56-15.14-13.95z" id="d"/><path d="M343.9 335.66c-3.41 3.7-7.97 5.2-12.52 4.99-.29.31-2.56 2.77-2.85 3.08-5.39 5.86-14.51 6.58-19.93 1.58-.06-.05-.52-.47-.58-.53-5.42-5-5.45-14.14-.05-20 .29-.3 2.56-2.77 2.84-3.08-.58-4.53.55-9.19 3.96-12.89.05-.06.51-.55.57-.61 5.39-5.86 14.51-6.58 19.93-1.58.92.84 8.23 7.58 9.14 8.42 5.43 5 5.74 13.84.06 20-.12.12-.52.56-.57.62z" id="e"/><path d="M95.06 212.91c-16.08-14.83-42.1-12.77-58.1 4.59-16.01 17.37-15.94 43.47.15 58.29 16.09 14.83 42.11 12.77 58.11-4.6 16-17.36 15.93-43.46-.16-58.28z" id="f"/><path d="M77.6 232.32c-6.62-6.09-17.26-5.31-23.77 1.76-6.51 7.06-6.43 17.73.19 23.83 6.61 6.09 17.25 5.3 23.76-1.76 6.51-7.07 6.43-17.73-.18-23.83z" id="g"/></defs><use xlink:href="#a" fill-opacity="0" stroke="#600060" stroke-width="7"/><use xlink:href="#b" fill-opacity="0"/><use xlink:href="#b" fill-opacity="0" stroke="#600060" stroke-width="7"/><use xlink:href="#c" fill="#fff"/><use xlink:href="#c" fill-opacity="0" stroke="#600060" stroke-width="5"/><use xlink:href="#d" fill="#fff"/><use xlink:href="#d" fill-opacity="0" stroke="#600060" stroke-width="6"/><g><use xlink:href="#e" fill="#fff"/><use xlink:href="#e" fill-opacity="0" stroke="#600060" stroke-width="5"/></g><g><use xlink:href="#f" fill-opacity="0"/><use xlink:href="#f" fill-opacity="0" stroke="#600060" stroke-width="5"/></g><g><use xlink:href="#g" fill-opacity="0"/><use xlink:href="#g" fill-opacity="0" stroke="#600060" stroke-width="2"/></g></svg>