<?xml version="1.0" encoding="UTF-8" standalone="no"?>
<!DOCTYPE svg PUBLIC "-//W3C//DTD SVG 1.1//EN" "http://www.w3.org/Graphics/SVG/1.1/DTD/svg11.dtd">
<svg version="1.1" xmlns="http://www.w3.org/2000/svg" xmlns:xlink="http://www.w3.org/1999/xlink" preserveAspectRatio="xMidYMid meet" viewBox="0 0 640 640" width="640" height="640"><defs><path d="M555.64 18.85L556.42 18.97L557.21 19.13L557.98 19.34L558.76 19.59L559.52 19.88L560.28 20.21L561.04 20.58L561.78 20.99L562.52 21.44L563.24 21.92L563.95 22.44L564.65 22.99L565.33 23.57L566 24.18L566.66 24.82L567.29 25.49L567.91 26.18L568.51 26.9L569.1 27.65L569.66 28.42L570.19 29.21L570.71 30.02L571.2 30.85L571.67 31.7L572.11 32.57L572.53 33.45L572.92 34.35L573.28 35.26L573.61 36.18L573.91 37.12L574.17 38.06L574.41 39.01L574.61 39.97L574.78 40.94L574.91 41.91L575.01 42.88L575.06 43.86L575.08 44.84L575.08 592.66L575.07 593.64L575.02 594.62L574.94 595.59L574.83 596.56L574.7 597.53L574.53 598.49L574.33 599.44L574.11 600.39L573.85 601.32L573.57 602.24L573.26 603.15L572.93 604.05L572.56 604.93L572.17 605.8L571.76 606.65L571.32 607.48L570.85 608.29L570.36 609.08L569.84 609.85L569.3 610.6L568.74 611.32L568.15 612.02L567.54 612.68L566.91 613.32L566.26 613.94L565.58 614.52L564.88 615.07L564.17 615.58L563.43 616.06L562.67 616.51L561.89 616.92L561.09 617.29L560.28 617.62L559.44 617.91L558.59 618.17L557.72 618.37L556.83 618.54L555.92 618.65L555 618.73L554.06 618.75L91.63 618.75L90.84 618.73L90.06 618.67L89.27 618.58L88.49 618.44L87.71 618.27L86.94 618.06L86.17 617.82L85.41 617.54L84.66 617.23L83.91 616.88L83.18 616.49L82.46 616.07L81.75 615.62L81.05 615.14L80.36 614.62L79.69 614.08L79.04 613.5L78.4 612.89L77.78 612.25L77.18 611.58L76.6 610.88L76.04 610.15L75.5 609.39L74.98 608.61L74.49 607.8L74.02 606.96L73.58 606.09L73.17 605.2L72.78 604.28L72.42 603.34L72.09 602.38L71.79 601.39L71.52 600.37L71.29 599.34L71.08 598.28L70.92 597.2L70.79 596.1L70.69 594.97L70.63 593.83L70.61 592.66L70.61 44.84L70.63 43.86L70.69 42.88L70.79 41.91L70.92 40.94L71.08 39.97L71.29 39.01L71.52 38.06L71.79 37.12L72.09 36.18L72.42 35.26L72.78 34.35L73.17 33.45L73.58 32.57L74.02 31.7L74.49 30.85L74.98 30.02L75.5 29.21L76.04 28.42L76.6 27.65L77.18 26.9L77.78 26.18L78.4 25.49L79.04 24.82L79.69 24.18L80.36 23.57L81.05 22.99L81.75 22.44L82.46 21.92L83.18 21.44L83.91 20.99L84.66 20.58L85.41 20.21L86.17 19.88L86.94 19.59L87.71 19.34L88.49 19.13L89.27 18.97L90.06 18.85L90.84 18.78L91.63 18.75L554.06 18.75L554.85 18.78L555.64 18.85ZM91.63 592.66L554.06 592.66L554.06 149.19L91.63 149.19L91.63 592.66ZM259.79 123.1L554.06 123.1L554.06 44.84L259.79 44.84L259.79 123.1ZM91.63 123.1L238.77 123.1L238.77 44.84L91.63 44.84L91.63 123.1Z" id="bXnlAjDeF"></path><path d="M123.16 70.92C117.36 70.92 112.65 76.76 112.65 83.97C112.65 91.17 117.36 97.01 123.16 97.01C128.97 97.01 133.67 91.17 133.67 83.97C133.67 76.76 128.97 70.92 123.16 70.92Z" id="b16UDlor6c"></path><path d="M165.2 70.92C159.4 70.92 154.69 76.76 154.69 83.97C154.69 91.17 159.4 97.01 165.2 97.01C171.01 97.01 175.71 91.17 175.71 83.97C175.71 76.76 171.01 70.92 165.2 70.92Z" id="j2u1WFF5Si"></path><path d="M207.24 70.92C201.44 70.92 196.73 76.76 196.73 83.97C196.73 91.17 201.44 97.01 207.24 97.01C213.04 97.01 217.75 91.17 217.75 83.97C217.75 76.76 213.04 70.92 207.24 70.92Z" id="c7UsUR2I2E"></path><path d="M123.16 227.45C116.86 227.45 112.65 222.23 112.65 214.4C112.65 214.4 112.65 214.4 112.65 214.4C112.65 206.58 116.86 201.36 123.16 201.36C133.67 201.36 217.75 201.36 228.26 201.36C234.57 201.36 238.77 206.58 238.77 214.4C238.77 214.4 238.77 214.4 238.77 214.4C238.77 222.23 234.57 227.45 228.26 227.45C207.24 227.45 133.67 227.45 123.16 227.45Z" id="c1boodGWCg"></path><path d="M123.16 305.71C116.86 305.71 112.65 300.49 112.65 292.66C112.65 292.66 112.65 292.66 112.65 292.66C112.65 284.84 116.86 279.62 123.16 279.62C139.98 279.62 274.5 279.62 291.32 279.62C297.62 279.62 301.83 284.84 301.83 292.66C301.83 292.66 301.83 292.66 301.83 292.66C301.83 300.49 297.62 305.71 291.32 305.71C257.69 305.71 139.98 305.71 123.16 305.71Z" id="d1liwdssHy"></path><path d="M270.3 227.45C263.99 227.45 259.79 222.23 259.79 214.4C259.79 214.4 259.79 214.4 259.79 214.4C259.79 206.58 263.99 201.36 270.3 201.36C278.71 201.36 345.97 201.36 354.38 201.36C360.68 201.36 364.89 206.58 364.89 214.4C364.89 214.4 364.89 214.4 364.89 214.4C364.89 222.23 360.68 227.45 354.38 227.45C337.56 227.45 278.71 227.45 270.3 227.45Z" id="b15hLnAhby"></path><path d="M333.36 305.71C327.05 305.71 322.85 300.49 322.85 292.66C322.85 292.66 322.85 292.66 322.85 292.66C322.85 284.84 327.05 279.62 333.36 279.62C337.56 279.62 371.19 279.62 375.4 279.62C381.7 279.62 385.91 284.84 385.91 292.66C385.91 292.66 385.91 292.66 385.91 292.66C385.91 300.49 381.7 305.71 375.4 305.71C366.99 305.71 337.56 305.71 333.36 305.71Z" id="h4Wymxj8OK"></path><path d="M123.16 383.97C116.86 383.97 112.65 378.75 112.65 370.92C112.65 370.92 112.65 370.92 112.65 370.92C112.65 363.1 116.86 357.88 123.16 357.88C127.37 357.88 161 357.88 165.2 357.88C171.51 357.88 175.71 363.1 175.71 370.92C175.71 370.92 175.71 370.92 175.71 370.92C175.71 378.75 171.51 383.97 165.2 383.97C156.79 383.97 127.37 383.97 123.16 383.97Z" id="bebWeExyj"></path><path d="M228.26 383.97C221.95 383.97 217.75 378.75 217.75 370.92C217.75 370.92 217.75 370.92 217.75 370.92C217.75 363.1 221.95 357.88 228.26 357.88C230.36 357.88 247.18 357.88 249.28 357.88C255.58 357.88 259.79 363.1 259.79 370.92C259.79 370.92 259.79 370.92 259.79 370.92C259.79 378.75 255.58 383.97 249.28 383.97C245.08 383.97 230.36 383.97 228.26 383.97Z" id="g1rW2sspKo"></path><path d="M417.44 305.71C411.13 305.71 406.93 300.49 406.93 292.66C406.93 292.66 406.93 292.66 406.93 292.66C406.93 284.84 411.13 279.62 417.44 279.62C423.74 279.62 474.19 279.62 480.49 279.62C486.8 279.62 491 284.84 491 292.66C491 292.66 491 292.66 491 292.66C491 300.49 486.8 305.71 480.49 305.71C467.88 305.71 423.74 305.71 417.44 305.71Z" id="j5IOriAF4"></path></defs><g><g><g><g><use xlink:href="#bXnlAjDeF" opacity="1" fill-opacity="0" stroke="#f5f5f5" stroke-width="14" stroke-opacity="1"></use></g></g><g><use xlink:href="#b16UDlor6c" opacity="1" fill="#f5f5f5" fill-opacity="1"></use><g><use xlink:href="#b16UDlor6c" opacity="1" fill-opacity="0" stroke="#000000" stroke-width="1" stroke-opacity="0"></use></g></g><g><use xlink:href="#j2u1WFF5Si" opacity="1" fill="#f5f5f5" fill-opacity="1"></use><g><use xlink:href="#j2u1WFF5Si" opacity="1" fill-opacity="0" stroke="#000000" stroke-width="1" stroke-opacity="0"></use></g></g><g><use xlink:href="#c7UsUR2I2E" opacity="1" fill="#f5f5f5" fill-opacity="1"></use><g><use xlink:href="#c7UsUR2I2E" opacity="1" fill-opacity="0" stroke="#000000" stroke-width="1" stroke-opacity="0"></use></g></g><g><use xlink:href="#c1boodGWCg" opacity="1" fill="#f5f5f5" fill-opacity="1"></use></g><g><use xlink:href="#d1liwdssHy" opacity="1" fill="#f5f5f5" fill-opacity="1"></use></g><g><use xlink:href="#b15hLnAhby" opacity="1" fill="#f5f5f5" fill-opacity="1"></use></g><g><use xlink:href="#h4Wymxj8OK" opacity="1" fill="#f5f5f5" fill-opacity="1"></use></g><g><use xlink:href="#bebWeExyj" opacity="1" fill="#f5f5f5" fill-opacity="1"></use></g><g><use xlink:href="#g1rW2sspKo" opacity="1" fill="#f5f5f5" fill-opacity="1"></use></g><g><use xlink:href="#j5IOriAF4" opacity="1" fill="#f5f5f5" fill-opacity="1"></use></g></g></g></svg>