<?xml version="1.0" encoding="UTF-8" standalone="no"?>
<!DOCTYPE svg PUBLIC "-//W3C//DTD SVG 1.1//EN" "http://www.w3.org/Graphics/SVG/1.1/DTD/svg11.dtd">
<svg version="1.1" xmlns="http://www.w3.org/2000/svg" xmlns:xlink="http://www.w3.org/1999/xlink" preserveAspectRatio="xMidYMid meet" viewBox="0 0 640 640" width="640" height="640"><defs><path d="M519.72 144.25L519.84 144.26L519.96 144.28L520.08 144.3L520.2 144.33L520.32 144.36L520.43 144.39L520.55 144.43L520.66 144.47L520.77 144.52L520.88 144.57L520.98 144.62L521.08 144.68L521.18 144.74L521.28 144.81L521.37 144.88L521.46 144.95L521.55 145.02L521.64 145.1L521.72 145.18L521.8 145.26L521.87 145.35L521.94 145.44L522.01 145.53L522.07 145.63L522.14 145.73L522.19 145.82L522.24 145.93L522.29 146.03L522.34 146.14L522.38 146.25L522.41 146.36L522.45 146.47L522.47 146.58L522.49 146.7L522.51 146.81L522.52 146.93L522.53 147.05L522.53 147.17L522.53 205.76L583.93 205.76L584.06 205.76L584.18 205.77L584.31 205.78L584.43 205.8L584.55 205.82L584.67 205.84L584.79 205.87L584.9 205.91L585.02 205.94L585.13 205.99L585.24 206.03L585.34 206.08L585.45 206.14L585.55 206.2L585.65 206.26L585.74 206.32L585.84 206.39L585.93 206.46L586.02 206.54L586.1 206.62L586.18 206.7L586.26 206.78L586.34 206.87L586.41 206.96L586.48 207.05L586.54 207.14L586.6 207.24L586.66 207.34L586.71 207.44L586.76 207.55L586.81 207.65L586.85 207.76L586.88 207.87L586.91 207.98L586.94 208.1L586.96 208.21L586.98 208.33L586.99 208.45L587 208.57L587 208.69L587 255.56L587 255.68L586.99 255.8L586.98 255.91L586.96 256.03L586.94 256.15L586.91 256.26L586.88 256.37L586.85 256.48L586.81 256.59L586.76 256.69L586.71 256.8L586.66 256.9L586.6 257L586.54 257.1L586.48 257.19L586.41 257.28L586.34 257.37L586.26 257.46L586.18 257.54L586.1 257.63L586.02 257.7L585.93 257.78L585.84 257.85L585.74 257.92L585.65 257.98L585.55 258.05L585.45 258.1L585.34 258.16L585.24 258.21L585.13 258.25L585.02 258.3L584.9 258.33L584.79 258.37L584.67 258.4L584.55 258.42L584.43 258.45L584.31 258.46L584.18 258.47L584.06 258.48L583.93 258.48L522.53 258.48L522.53 317.07L522.53 317.19L522.52 317.31L522.51 317.43L522.49 317.55L522.47 317.66L522.45 317.77L522.41 317.89L522.38 318L522.34 318.1L522.29 318.21L522.24 318.31L522.19 318.42L522.14 318.52L522.07 318.61L522.01 318.71L521.94 318.8L521.87 318.89L521.8 318.98L521.72 319.06L521.64 319.14L521.55 319.22L521.46 319.29L521.37 319.37L521.28 319.43L521.18 319.5L521.08 319.56L520.98 319.62L520.88 319.67L520.77 319.72L520.66 319.77L520.55 319.81L520.43 319.85L520.32 319.88L520.2 319.91L520.08 319.94L519.96 319.96L519.84 319.98L519.72 319.99L519.59 320L519.47 320L470.35 320L470.22 320L470.1 319.99L469.97 319.98L469.85 319.96L469.73 319.94L469.61 319.91L469.49 319.88L469.38 319.85L469.26 319.81L469.15 319.77L469.04 319.72L468.94 319.67L468.83 319.62L468.73 319.56L468.63 319.5L468.53 319.43L468.44 319.37L468.35 319.29L468.26 319.22L468.18 319.14L468.1 319.06L468.02 318.98L467.94 318.89L467.87 318.8L467.8 318.71L467.74 318.61L467.68 318.52L467.62 318.42L467.57 318.31L467.52 318.21L467.47 318.1L467.43 318L467.4 317.89L467.37 317.77L467.34 317.66L467.32 317.55L467.3 317.43L467.29 317.31L467.28 317.19L467.28 317.07L467.28 258.48L405.88 258.48L405.75 258.48L405.63 258.47L405.5 258.46L405.38 258.45L405.26 258.42L405.14 258.4L405.03 258.37L404.91 258.33L404.8 258.3L404.69 258.25L404.58 258.21L404.47 258.16L404.37 258.1L404.26 258.05L404.16 257.98L404.07 257.92L403.97 257.85L403.88 257.78L403.79 257.7L403.71 257.63L403.63 257.54L403.55 257.46L403.47 257.37L403.4 257.28L403.33 257.19L403.27 257.1L403.21 257L403.15 256.9L403.1 256.8L403.05 256.69L403.01 256.59L402.97 256.48L402.93 256.37L402.9 256.26L402.87 256.15L402.85 256.03L402.83 255.91L402.82 255.8L402.81 255.68L402.81 255.56L402.81 208.69L402.81 208.57L402.82 208.45L402.83 208.33L402.85 208.21L402.87 208.1L402.9 207.98L402.93 207.87L402.97 207.76L403.01 207.65L403.05 207.55L403.1 207.44L403.15 207.34L403.21 207.24L403.27 207.14L403.33 207.05L403.4 206.96L403.47 206.87L403.55 206.78L403.63 206.7L403.71 206.62L403.79 206.54L403.88 206.46L403.97 206.39L404.07 206.32L404.16 206.26L404.26 206.2L404.37 206.14L404.47 206.08L404.58 206.03L404.69 205.99L404.8 205.94L404.91 205.91L405.03 205.87L405.14 205.84L405.26 205.82L405.38 205.8L405.5 205.78L405.63 205.77L405.75 205.76L405.88 205.76L467.28 205.76L467.28 147.17L467.28 147.05L467.29 146.93L467.3 146.81L467.32 146.7L467.34 146.58L467.37 146.47L467.4 146.36L467.43 146.25L467.47 146.14L467.52 146.03L467.57 145.93L467.62 145.82L467.68 145.73L467.74 145.63L467.8 145.53L467.87 145.44L467.94 145.35L468.02 145.26L468.1 145.18L468.18 145.1L468.26 145.02L468.35 144.95L468.44 144.88L468.53 144.81L468.63 144.74L468.73 144.68L468.83 144.62L468.94 144.57L469.04 144.52L469.15 144.47L469.26 144.43L469.38 144.39L469.49 144.36L469.61 144.33L469.73 144.3L469.85 144.28L469.97 144.26L470.1 144.25L470.22 144.24L470.35 144.24L519.47 144.24L519.59 144.24L519.72 144.25Z" id="a5riws9ou4"></path><path d="M670.3 481.18C670.3 520.88 640.62 553.12 604.05 553.12C567.49 553.12 537.8 520.88 537.8 481.18C537.8 441.47 567.49 409.23 604.05 409.23C640.62 409.23 670.3 441.47 670.3 481.18Z" id="g6ylWVqlo"></path><path d="M287.74 182.85L159.37 182.85C103.32 245.46 68.29 284.59 54.28 300.25C53.29 301.35 54.07 303.1 55.55 303.1C87.17 303.1 166.19 303.1 292.63 303.1C292.63 193.97 292.63 125.76 292.63 98.47C292.63 94.75 295.65 91.73 299.38 91.73C301.98 91.73 308.48 91.73 318.88 91.73L670.3 91.73" id="b20cUmUS9T"></path><path d="M87.56 481.18L32.34 481.18L32.34 451.71L47.12 451.71" id="a2l1Uqg8H3"></path><path d="M227.87 479.87C227.87 519.57 198.18 551.81 161.62 551.81C125.05 551.81 95.37 519.57 95.37 479.87C95.37 440.16 125.05 407.92 161.62 407.92C198.18 407.92 227.87 440.16 227.87 479.87Z" id="c6t0uIZfQb"></path><path d="" id="e5fdIq19Tj"></path><path d="M54.17 301.1L54.17 458.62" id="atlE4eUUQ"></path><path d="M533.5 479.87L233.19 481.18" id="iaSYwS5z7"></path><path d="M276 339.99L247 339.99" id="c2mwklWsKq"></path></defs><g><g><g><use xlink:href="#a5riws9ou4" opacity="1" fill="#ffffff" fill-opacity="0"></use><g><use xlink:href="#a5riws9ou4" opacity="1" fill-opacity="0" stroke="#f5f5f5" stroke-width="15" stroke-opacity="1"></use></g></g><g><use xlink:href="#g6ylWVqlo" opacity="1" fill="#ffffff" fill-opacity="0"></use><g><use xlink:href="#g6ylWVqlo" opacity="1" fill-opacity="0" stroke="#f5f5f5" stroke-width="15" stroke-opacity="1"></use></g></g><g><g><use xlink:href="#b20cUmUS9T" opacity="1" fill-opacity="0" stroke="#f5f5f5" stroke-width="15" stroke-opacity="1"></use></g></g><g><g><use xlink:href="#a2l1Uqg8H3" opacity="1" fill-opacity="0" stroke="#f5f5f5" stroke-width="15" stroke-opacity="1"></use></g></g><g><use xlink:href="#c6t0uIZfQb" opacity="1" fill="#ffffff" fill-opacity="0"></use><g><use xlink:href="#c6t0uIZfQb" opacity="1" fill-opacity="0" stroke="#f5f5f5" stroke-width="15" stroke-opacity="1"></use></g></g><g><g><use xlink:href="#e5fdIq19Tj" opacity="1" fill-opacity="0" stroke="#a434b7" stroke-width="2" stroke-opacity="1"></use></g></g><g><g><use xlink:href="#atlE4eUUQ" opacity="1" fill-opacity="0" stroke="#f5f5f5" stroke-width="15" stroke-opacity="1"></use></g></g><g><g><use xlink:href="#iaSYwS5z7" opacity="1" fill-opacity="0" stroke="#f5f5f5" stroke-width="15" stroke-opacity="1"></use></g></g><g><g><use xlink:href="#c2mwklWsKq" opacity="1" fill-opacity="0" stroke="#f5f5f5" stroke-width="15" stroke-opacity="1"></use></g></g></g></g></svg>