<svg xmlns="http://www.w3.org/2000/svg" xmlns:xlink="http://www.w3.org/1999/xlink" width="640" height="640" preserveAspectRatio="xMidYMid meet" version="1.1" viewBox="0 0 640 640"><defs><path id="d15dbUSOSu" d="M173.29 328.41L173.34 328.42L173.39 328.43L173.44 328.44L173.49 328.45L173.54 328.46L173.59 328.48L173.63 328.49L173.68 328.51L173.73 328.53L173.77 328.55L173.81 328.58L173.85 328.6L173.89 328.63L173.93 328.66L173.97 328.69L174.01 328.72L174.05 328.75L174.08 328.79L174.11 328.83L174.15 328.86L174.18 328.9L174.21 328.94L174.24 328.98L174.26 329.02L174.29 329.07L174.31 329.11L174.33 329.16L174.35 329.2L174.37 329.25L174.39 329.3L174.4 329.35L174.41 329.39L174.43 329.44L174.43 329.5L174.44 329.55L174.45 329.6L174.45 329.65L174.45 329.71L174.45 355.64L199.68 355.64L199.73 355.64L199.78 355.64L199.83 355.65L199.88 355.66L199.93 355.67L199.98 355.68L200.03 355.69L200.07 355.71L200.12 355.72L200.17 355.74L200.21 355.76L200.26 355.79L200.3 355.81L200.34 355.83L200.38 355.86L200.42 355.89L200.46 355.92L200.5 355.95L200.53 355.99L200.57 356.02L200.6 356.06L200.63 356.09L200.66 356.13L200.69 356.17L200.72 356.21L200.75 356.25L200.77 356.3L200.8 356.34L200.82 356.39L200.84 356.43L200.86 356.48L200.87 356.53L200.89 356.58L200.9 356.63L200.91 356.68L200.92 356.73L200.93 356.78L200.93 356.83L200.94 356.88L200.94 356.94L200.94 377.68L200.94 377.74L200.93 377.79L200.93 377.84L200.92 377.9L200.91 377.95L200.9 378L200.89 378.05L200.87 378.09L200.86 378.14L200.84 378.19L200.82 378.24L200.8 378.28L200.77 378.32L200.75 378.37L200.72 378.41L200.69 378.45L200.66 378.49L200.63 378.53L200.6 378.57L200.57 378.6L200.53 378.64L200.5 378.67L200.46 378.7L200.42 378.73L200.38 378.76L200.34 378.79L200.3 378.81L200.26 378.84L200.21 378.86L200.17 378.88L200.12 378.9L200.07 378.92L200.03 378.93L199.98 378.94L199.93 378.96L199.88 378.96L199.83 378.97L199.78 378.98L199.73 378.98L199.68 378.98L174.45 378.98L174.45 404.92L174.45 404.97L174.45 405.02L174.44 405.07L174.43 405.13L174.43 405.18L174.41 405.23L174.4 405.28L174.39 405.33L174.37 405.37L174.35 405.42L174.33 405.47L174.31 405.51L174.29 405.56L174.26 405.6L174.24 405.64L174.21 405.68L174.18 405.72L174.15 405.76L174.11 405.8L174.08 405.83L174.05 405.87L174.01 405.9L173.97 405.93L173.93 405.96L173.89 405.99L173.85 406.02L173.81 406.04L173.77 406.07L173.73 406.09L173.68 406.11L173.63 406.13L173.59 406.15L173.54 406.16L173.49 406.18L173.44 406.19L173.39 406.2L173.34 406.2L173.29 406.21L173.24 406.21L173.19 406.21L153.01 406.21L152.96 406.21L152.91 406.21L152.86 406.2L152.81 406.2L152.76 406.19L152.71 406.18L152.66 406.16L152.61 406.15L152.56 406.13L152.52 406.11L152.47 406.09L152.43 406.07L152.39 406.04L152.35 406.02L152.3 405.99L152.26 405.96L152.23 405.93L152.19 405.9L152.15 405.87L152.12 405.83L152.08 405.8L152.05 405.76L152.02 405.72L151.99 405.68L151.96 405.64L151.94 405.6L151.91 405.56L151.89 405.51L151.87 405.47L151.85 405.42L151.83 405.37L151.81 405.33L151.8 405.28L151.78 405.23L151.77 405.18L151.76 405.13L151.76 405.07L151.75 405.02L151.75 404.97L151.75 404.92L151.75 378.98L126.52 378.98L126.47 378.98L126.42 378.98L126.37 378.97L126.32 378.96L126.27 378.96L126.22 378.94L126.17 378.93L126.12 378.92L126.08 378.9L126.03 378.88L125.99 378.86L125.94 378.84L125.9 378.81L125.86 378.79L125.82 378.76L125.78 378.73L125.74 378.7L125.7 378.67L125.67 378.64L125.63 378.6L125.6 378.57L125.57 378.53L125.53 378.49L125.51 378.45L125.48 378.41L125.45 378.37L125.43 378.32L125.4 378.28L125.38 378.24L125.36 378.19L125.34 378.14L125.33 378.09L125.31 378.05L125.3 378L125.29 377.95L125.28 377.9L125.27 377.84L125.27 377.79L125.26 377.74L125.26 377.68L125.26 356.94L125.26 356.88L125.27 356.83L125.27 356.78L125.28 356.73L125.29 356.68L125.3 356.63L125.31 356.58L125.33 356.53L125.34 356.48L125.36 356.43L125.38 356.39L125.4 356.34L125.43 356.3L125.45 356.25L125.48 356.21L125.51 356.17L125.53 356.13L125.57 356.09L125.6 356.06L125.63 356.02L125.67 355.99L125.7 355.95L125.74 355.92L125.78 355.89L125.82 355.86L125.86 355.83L125.9 355.81L125.94 355.79L125.99 355.76L126.03 355.74L126.08 355.72L126.12 355.71L126.17 355.69L126.22 355.68L126.27 355.67L126.32 355.66L126.37 355.65L126.42 355.64L126.47 355.64L126.52 355.64L151.75 355.64L151.75 329.71L151.75 329.65L151.75 329.6L151.76 329.55L151.76 329.5L151.77 329.44L151.78 329.39L151.8 329.35L151.81 329.3L151.83 329.25L151.85 329.2L151.87 329.16L151.89 329.11L151.91 329.07L151.94 329.02L151.96 328.98L151.99 328.94L152.02 328.9L152.05 328.86L152.08 328.83L152.12 328.79L152.15 328.75L152.19 328.72L152.23 328.69L152.26 328.66L152.3 328.63L152.35 328.6L152.39 328.58L152.43 328.55L152.47 328.53L152.52 328.51L152.56 328.49L152.61 328.48L152.66 328.46L152.71 328.45L152.76 328.44L152.81 328.43L152.86 328.42L152.91 328.41L152.96 328.41L153.01 328.41L173.19 328.41L173.24 328.41L173.29 328.41Z"/><path id="cEBgdKikF" d="M254.97 176.3L135.98 176.3C86.03 244.34 54.81 286.86 42.32 303.87C41.3 305.26 42.3 307.23 44.03 307.23C72.15 307.23 142.47 307.23 254.97 307.23C254.97 259.88 254.97 230.28 254.97 218.44C254.97 218.44 254.97 205.43 254.97 205.43C254.97 192.44 254.97 159.97 254.97 108.01L592.2 108.01"/><path id="d4by12CTH" d="M99.01 490.02L20.51 490.55L20.51 462.1L45.48 462.1"/><path id="afj9ln42p" d="M228.94 489.02C228.94 523.79 200.71 552.02 165.94 552.02C131.17 552.02 102.94 523.79 102.94 489.02C102.94 454.24 131.17 426.02 165.94 426.02C200.71 426.02 228.94 454.24 228.94 489.02Z"/><path id="a2FFgFnVYu"/><path id="b1qJ4lXPN8" d="M41.91 303.41L41.91 461.1"/><path id="b1CzxVhnI4" d="M418.67 484.72L233.91 484.74"/><path id="a3FP49RVQ" d="M586.81 453.01L588.88 108.01"/><path id="c5zBXWZkMK" d="M619.51 486.49L553.67 486.49"/><path id="a2EsB0BexE" d="M248.4 342.45L215.49 342.45"/><path id="hpBwAzIxO" d="M619.51 453.01L583.23 453.01"/><path id="b4S3dTkW61" d="M616.08 488.49L616.19 452.49"/><path id="bpB0ZcUMS" d="M429.73 177.8L433.08 178.14L436.38 178.62L439.64 179.23L442.86 179.97L446.02 180.83L449.14 181.82L452.2 182.93L455.2 184.15L458.14 185.49L461.03 186.94L463.85 188.5L466.6 190.16L469.28 191.93L471.89 193.8L474.43 195.77L476.88 197.84L479.26 199.99L481.55 202.24L483.76 204.58L485.88 206.99L487.9 209.49L489.84 212.08L491.67 214.73L493.41 217.46L495.05 220.27L496.58 223.14L498 226.07L499.32 229.07L500.52 232.13L501.6 235.25L502.57 238.42L503.42 241.64L504.15 244.91L504.75 248.23L505.22 251.6L505.56 255L505.76 258.45L505.83 261.92L505.76 265.4L505.56 268.85L505.22 272.25L504.75 275.62L504.15 278.94L503.42 282.21L502.57 285.43L501.61 288.61L500.52 291.72L499.32 294.78L498 297.78L496.58 300.72L495.05 303.59L493.41 306.39L491.67 309.12L489.84 311.78L487.9 314.36L485.88 316.86L483.76 319.28L481.55 321.61L479.26 323.86L476.88 326.02L474.43 328.08L471.89 330.05L469.28 331.92L466.6 333.69L463.85 335.35L461.03 336.91L458.15 338.36L455.2 339.7L452.2 340.92L449.14 342.03L446.02 343.02L442.86 343.88L439.64 344.62L436.38 345.23L433.08 345.71L429.73 346.05L426.35 346.26L422.94 346.33L419.52 346.26L416.14 346.05L412.8 345.71L409.49 345.23L406.23 344.62L403.02 343.88L399.85 343.02L396.73 342.03L393.67 340.92L390.67 339.7L387.73 338.36L384.84 336.91L382.02 335.35L379.27 333.69L376.59 331.92L373.98 330.05L371.44 328.08L368.99 326.02L366.61 323.86L364.32 321.61L362.11 319.28L360 316.86L357.97 314.36L356.04 311.78L354.2 309.12L352.46 306.39L350.83 303.59L349.3 300.72L347.87 297.78L346.56 294.78L345.36 291.72L344.27 288.61L343.3 285.43L342.45 282.21L341.73 278.94L341.13 275.62L340.66 272.25L340.32 268.85L340.11 265.4L340.04 261.92L340.11 258.45L340.32 255L340.66 251.6L341.13 248.23L341.73 244.91L342.45 241.64L343.3 238.42L344.27 235.25L345.36 232.13L346.56 229.07L347.87 226.07L349.3 223.14L350.83 220.27L352.46 217.46L354.2 214.73L356.04 212.08L357.97 209.49L360 206.99L362.11 204.58L364.32 202.24L366.61 199.99L368.99 197.84L371.44 195.77L373.98 193.8L376.59 191.93L379.27 190.16L382.02 188.5L384.84 186.94L387.73 185.49L390.67 184.15L393.67 182.93L396.73 181.82L399.85 180.83L403.02 179.97L406.23 179.23L409.49 178.62L412.8 178.14L416.14 177.8L419.52 177.59L422.94 177.52L426.35 177.59L429.73 177.8ZM401.84 336.82L402.35 336.96L402.87 337.11L403.39 337.25L403.91 337.39L404.43 337.52L404.96 337.65L405.48 337.78L406.01 337.9L406.54 338.02L407.06 338.14L407.6 338.25L408.13 338.36L408.66 338.47L409.19 338.57L409.73 338.66L410.27 338.76L410.8 338.85L411.34 338.93L411.88 339.01L412.43 339.09L412.97 339.17L413.51 339.24L414.06 339.3L414.61 339.37L415.15 339.43L415.7 339.48L416.25 339.53L416.8 339.58L417.36 339.62L417.91 339.66L418.46 339.69L419.02 339.73L419.58 339.75L420.13 339.77L420.69 339.79L421.25 339.81L421.81 339.82L422.38 339.82L422.94 339.83L423.61 339.82L424.27 339.82L424.93 339.8L425.6 339.78L426.26 339.75L426.92 339.72L427.58 339.69L428.24 339.64L428.89 339.59L429.54 339.54L430.2 339.48L430.85 339.41L431.5 339.34L432.15 339.26L432.79 339.18L433.44 339.09L434.08 339L434.72 338.9L435.36 338.8L436 338.69L436.63 338.57L437.27 338.45L437.9 338.33L438.53 338.2L439.16 338.06L439.79 337.92L440.41 337.77L441.03 337.62L441.65 337.47L442.27 337.3L442.89 337.14L443.5 336.96L444.11 336.79L444.72 336.61L445.33 336.42L445.94 336.22L446.54 336.03L447.14 335.83L447.74 335.62L448.34 335.41L448.32 335.38L448.31 335.36L448.29 335.33L448.28 335.31L448.26 335.28L448.25 335.26L448.24 335.23L448.22 335.21L448.21 335.18L448.19 335.16L448.18 335.13L448.16 335.1L448.15 335.08L448.12 335.03L448.11 335L448.08 334.95L448.07 334.92L448.05 334.9L448.03 334.84L448.01 334.82L447.97 334.74L447.96 334.71L447.93 334.66L447.92 334.63L447.91 334.6L447.9 334.57L447.88 334.55L447.87 334.52L447.86 334.49L447.85 334.46L447.83 334.43L447.81 334.37L447.8 334.35L424.28 268.75L401.32 336.66L401.84 336.82ZM352.44 231.68L352.13 232.42L351.84 233.16L351.56 233.9L351.28 234.65L351.01 235.4L350.74 236.15L350.48 236.91L350.23 237.67L349.99 238.44L349.76 239.21L349.53 239.98L349.31 240.75L349.1 241.53L348.9 242.31L348.7 243.1L348.51 243.89L348.33 244.68L348.16 245.47L347.99 246.27L347.83 247.07L347.68 247.87L347.54 248.68L347.41 249.48L347.29 250.3L347.17 251.11L347.06 251.93L346.96 252.75L346.87 253.57L346.79 254.39L346.71 255.22L346.65 256.05L346.59 256.88L346.54 257.72L346.5 258.55L346.47 259.39L346.45 260.23L346.44 261.08L346.43 261.92L346.46 264.23L346.56 266.52L346.72 268.79L346.95 271.04L347.24 273.27L347.59 275.48L348 277.67L348.47 279.84L348.99 281.99L349.58 284.11L350.22 286.21L350.92 288.28L351.68 290.32L352.48 292.34L353.35 294.33L354.26 296.29L355.23 298.22L356.24 300.11L357.31 301.98L358.42 303.81L359.58 305.61L360.79 307.37L362.05 309.1L363.35 310.78L364.69 312.44L366.08 314.05L367.51 315.62L368.98 317.15L370.5 318.64L372.05 320.09L373.64 321.5L375.27 322.86L376.93 324.17L378.64 325.44L380.37 326.66L382.14 327.83L383.95 328.96L385.79 330.04L387.65 331.06L389.55 332.03L353.06 230.22L352.74 230.95L352.44 231.68ZM490.11 224.92L490.14 225.11L490.16 225.3L490.2 225.68L490.23 225.87L490.29 226.45L490.31 226.64L490.33 226.83L490.34 227.03L490.36 227.22L490.38 227.42L490.4 227.62L490.41 227.81L490.43 228.01L490.44 228.21L490.45 228.41L490.48 228.81L490.51 229.42L490.52 229.63L490.54 230.04L490.55 230.24L490.56 230.66L490.57 230.87L490.57 231.08L490.58 231.29L490.58 231.5L490.59 231.71L490.59 231.92L490.59 232.13L490.59 232.56L490.59 232.97L490.58 233.38L490.56 233.82L490.53 234.27L490.5 234.73L490.46 235.21L490.41 235.7L490.36 236.21L490.3 236.73L490.23 237.27L490.15 237.82L490.07 238.39L489.98 238.98L489.88 239.58L489.77 240.19L489.66 240.82L489.54 241.47L489.41 242.12L489.28 242.8L489.13 243.49L488.99 244.19L488.83 244.91L488.67 245.65L488.49 246.4L488.32 247.17L488.13 247.95L487.94 248.74L487.74 249.55L487.53 250.38L487.31 251.22L487.09 252.08L486.86 252.95L486.63 253.83L486.38 254.74L486.13 255.65L485.87 256.58L485.61 257.53L485.33 258.49L485.05 259.47L484.77 260.46L461.4 329.25L463.09 328.22L464.76 327.14L466.39 326.02L467.99 324.86L469.56 323.66L471.11 322.43L472.61 321.15L474.09 319.83L475.53 318.47L476.94 317.08L478.31 315.65L479.64 314.19L480.94 312.7L482.2 311.16L483.43 309.6L484.61 308L485.76 306.37L486.86 304.72L487.92 303.03L488.94 301.31L489.92 299.56L490.86 297.79L491.75 295.98L492.59 294.15L493.39 292.3L494.15 290.42L494.86 288.52L495.51 286.59L496.13 284.65L496.69 282.68L497.2 280.68L497.66 278.67L498.07 276.64L498.42 274.59L498.73 272.52L498.98 270.43L499.18 268.33L499.32 266.21L499.4 264.08L499.43 261.93L499.42 260.91L499.41 259.9L499.37 258.89L499.33 257.89L499.27 256.88L499.2 255.89L499.12 254.89L499.03 253.9L498.92 252.92L498.81 251.93L498.68 250.95L498.54 249.97L498.38 249.01L498.22 248.04L498.04 247.07L497.85 246.11L497.65 245.16L497.44 244.21L497.22 243.26L496.99 242.32L496.74 241.38L496.48 240.45L496.22 239.52L495.94 238.6L495.65 237.68L495.35 236.77L495.04 235.86L494.72 234.96L494.39 234.06L494.04 233.17L493.69 232.28L493.33 231.4L492.96 230.52L492.57 229.65L492.18 228.79L491.78 227.93L491.36 227.07L490.94 226.23L490.5 225.38L490.06 224.55L490.09 224.73L490.11 224.92ZM418.95 184.13L416.98 184.25L415.02 184.43L413.08 184.66L411.15 184.94L409.24 185.27L407.34 185.64L405.46 186.07L403.6 186.54L401.76 187.05L399.93 187.61L398.13 188.21L396.34 188.86L394.58 189.56L392.84 190.29L391.12 191.07L389.42 191.89L387.74 192.75L386.09 193.65L384.46 194.59L382.86 195.57L381.28 196.59L379.73 197.64L378.21 198.73L376.72 199.86L375.25 201.03L373.81 202.23L372.4 203.46L371.02 204.73L369.67 206.03L368.36 207.37L367.07 208.73L365.82 210.13L364.6 211.56L363.41 213.02L362.26 214.5L361.14 216.02L360.06 217.57L359.02 219.14L359.15 219.14L359.29 219.15L359.42 219.15L359.55 219.15L359.82 219.16L359.95 219.17L360.08 219.17L360.21 219.17L360.34 219.18L360.6 219.18L360.73 219.19L360.99 219.19L361.11 219.19L361.49 219.2L361.86 219.21L361.98 219.21L362.1 219.21L362.22 219.22L362.34 219.22L362.46 219.22L362.58 219.22L362.81 219.22L362.93 219.22L363.05 219.23L363.27 219.23L363.39 219.23L363.72 219.23L363.83 219.23L363.93 219.23L364.54 219.23L365.17 219.22L365.81 219.22L366.45 219.2L367.11 219.19L367.78 219.17L368.45 219.15L369.13 219.13L369.82 219.1L371.19 219.05L371.87 219.01L372.56 218.98L373.23 218.95L373.91 218.91L374.57 218.88L375.23 218.84L375.88 218.81L376.51 218.77L377.14 218.73L377.74 218.7L378.33 218.66L378.91 218.62L379.46 218.58L379.99 218.55L380.5 218.52L380.98 218.48L381.44 218.45L381.87 218.42L382.27 218.39L382.64 218.36L382.98 218.34L383.28 218.31L383.55 218.29L383.78 218.28L383.98 218.26L384.13 218.25L384.24 218.24L384.31 218.24L384.33 218.23L384.63 218.23L384.92 218.25L385.2 218.28L385.46 218.34L385.7 218.42L385.94 218.52L386.15 218.64L386.36 218.77L386.55 218.91L386.72 219.07L386.88 219.24L387.03 219.43L387.16 219.62L387.28 219.82L387.38 220.03L387.47 220.25L387.54 220.48L387.6 220.71L387.64 220.94L387.66 221.17L387.68 221.41L387.67 221.65L387.65 221.88L387.62 222.12L387.56 222.35L387.49 222.57L387.41 222.79L387.31 223.01L387.2 223.21L387.06 223.41L386.91 223.6L386.75 223.78L386.57 223.94L386.37 224.09L386.15 224.23L385.92 224.35L385.67 224.46L385.41 224.54L385.12 224.61L384.82 224.66L384.81 224.66L384.79 224.66L384.75 224.67L384.7 224.67L384.63 224.68L384.55 224.69L384.46 224.7L384.35 224.71L384.23 224.72L384.1 224.74L383.96 224.75L383.8 224.77L383.63 224.79L383.46 224.81L383.26 224.83L383.07 224.85L382.86 224.87L382.64 224.89L382.41 224.91L382.17 224.93L381.93 224.96L381.67 224.98L381.41 225.01L381.14 225.03L380.86 225.06L380.57 225.08L380.28 225.11L379.99 225.13L379.68 225.16L379.37 225.18L379.06 225.2L378.74 225.23L378.42 225.25L378.09 225.27L377.76 225.3L377.42 225.32L377.09 225.34L376.75 225.36L376.4 225.38L376.06 225.4L403.92 309.78L420.66 258.66L408.75 225.4L408.44 225.38L407.83 225.34L407.53 225.32L407.22 225.3L406.63 225.25L406.33 225.23L406.04 225.2L405.76 225.18L405.48 225.16L405.2 225.13L404.93 225.11L404.66 225.08L404.4 225.06L404.14 225.03L403.89 225.01L403.65 224.98L403.42 224.96L403.19 224.93L402.97 224.91L402.76 224.89L402.55 224.87L402.36 224.85L402.17 224.83L402 224.81L401.83 224.79L401.67 224.77L401.53 224.75L401.39 224.74L401.27 224.72L401.16 224.71L401.06 224.7L400.97 224.69L400.89 224.68L400.83 224.67L400.78 224.67L400.75 224.66L400.73 224.66L400.72 224.66L400.42 224.63L400.13 224.58L399.87 224.51L399.62 224.41L399.39 224.31L399.17 224.18L398.98 224.03L398.79 223.88L398.63 223.71L398.48 223.52L398.35 223.33L398.23 223.12L398.13 222.91L398.05 222.69L397.98 222.46L397.93 222.23L397.89 221.99L397.87 221.75L397.86 221.51L397.87 221.27L397.9 221.03L397.94 220.79L398 220.56L398.07 220.33L398.16 220.1L398.26 219.88L398.37 219.67L398.51 219.47L398.65 219.28L398.81 219.11L398.99 218.94L399.18 218.79L399.38 218.65L399.6 218.54L399.83 218.43L400.08 218.35L400.34 218.29L400.62 218.25L400.91 218.23L401.21 218.23L401.23 218.24L401.3 218.24L401.41 218.25L401.57 218.26L401.77 218.28L402 218.29L402.27 218.31L402.58 218.34L403.3 218.39L403.7 218.42L404.14 218.45L404.6 218.48L405.09 218.52L405.6 218.55L406.13 218.58L406.69 218.62L407.26 218.66L407.86 218.7L408.46 218.73L409.08 218.77L409.72 218.81L410.36 218.84L411.01 218.88L411.68 218.91L412.34 218.95L413.01 218.98L414.36 219.05L415.71 219.1L416.37 219.13L417.03 219.15L417.69 219.17L418.33 219.19L418.96 219.2L419.58 219.22L420.19 219.22L420.78 219.23L421.35 219.23L421.96 219.23L422.58 219.22L423.22 219.22L423.87 219.2L424.53 219.19L425.19 219.17L425.87 219.15L426.55 219.13L427.23 219.1L428.6 219.05L429.29 219.01L429.97 218.98L430.65 218.95L431.32 218.91L431.99 218.88L432.64 218.84L433.29 218.81L433.93 218.77L434.55 218.73L435.16 218.7L435.75 218.66L436.32 218.62L436.87 218.58L437.41 218.55L437.91 218.52L438.4 218.48L438.86 218.45L439.29 218.42L439.69 218.39L440.06 218.36L440.4 218.34L440.7 218.31L440.97 218.29L441.2 218.28L441.39 218.26L441.55 218.25L441.66 218.24L441.73 218.24L441.75 218.23L442.05 218.23L442.34 218.25L442.61 218.28L442.87 218.34L443.12 218.42L443.35 218.52L443.57 218.64L443.77 218.77L443.96 218.91L444.14 219.07L444.3 219.24L444.45 219.43L444.57 219.62L444.69 219.82L444.79 220.03L444.88 220.25L444.95 220.48L445.01 220.71L445.05 220.94L445.08 221.17L445.09 221.41L445.08 221.65L445.06 221.88L445.03 222.12L444.97 222.35L444.9 222.57L444.82 222.79L444.72 223.01L444.6 223.21L444.47 223.41L444.32 223.6L444.16 223.78L443.97 223.94L443.78 224.09L443.56 224.23L443.33 224.35L443.08 224.46L442.81 224.54L442.53 224.61L442.23 224.66L442.22 224.66L442.2 224.66L442.16 224.67L442.11 224.67L442.04 224.68L441.96 224.69L441.87 224.7L441.76 224.71L441.64 224.72L441.51 224.74L441.37 224.75L441.21 224.77L441.04 224.79L440.86 224.81L440.68 224.83L440.48 224.85L440.27 224.87L440.05 224.89L439.82 224.91L439.58 224.93L439.34 224.96L439.08 224.98L438.82 225.01L438.55 225.03L438.27 225.06L437.99 225.08L437.7 225.11L437.4 225.13L437.1 225.16L436.79 225.18L436.48 225.2L436.16 225.23L435.84 225.25L435.51 225.27L435.18 225.3L434.84 225.32L434.5 225.34L434.16 225.36L433.82 225.38L433.48 225.4L461.12 309.13L468.76 283.18L469.05 282.42L469.33 281.67L469.6 280.93L469.86 280.19L470.12 279.46L470.37 278.74L470.62 278.02L470.85 277.31L471.08 276.61L471.3 275.91L471.52 275.22L471.73 274.53L471.93 273.86L472.12 273.18L472.3 272.52L472.48 271.86L472.65 271.21L472.82 270.56L472.97 269.92L473.12 269.29L473.27 268.66L473.4 268.04L473.53 267.43L473.65 266.82L473.76 266.22L473.87 265.63L473.97 265.04L474.06 264.46L474.14 263.89L474.22 263.32L474.29 262.76L474.35 262.2L474.4 261.65L474.45 261.11L474.49 260.57L474.52 260.04L474.55 259.52L474.57 259.01L474.58 258.5L474.58 257.99L474.58 257.27L474.56 256.57L474.53 255.87L474.48 255.19L474.43 254.52L474.37 253.85L474.29 253.2L474.2 252.56L474.11 251.93L474 251.3L473.89 250.69L473.77 250.08L473.64 249.49L473.5 248.9L473.35 248.33L473.2 247.76L473.04 247.21L472.87 246.66L472.69 246.11L472.51 245.58L472.33 245.06L472.14 244.54L471.95 244.04L471.75 243.54L471.54 243.04L471.34 242.56L471.13 242.08L470.92 241.61L470.7 241.15L470.48 240.7L470.26 240.25L470.04 239.81L469.82 239.37L469.6 238.94L469.38 238.52L469.15 238.11L468.93 237.7L468.71 237.3L468.49 236.9L468.27 236.51L467.98 236.03L467.69 235.55L467.4 235.08L467.12 234.61L466.84 234.14L466.56 233.68L466.28 233.22L466 232.76L465.73 232.3L465.46 231.85L465.2 231.4L464.94 230.95L464.69 230.5L464.44 230.05L464.19 229.6L463.95 229.16L463.72 228.71L463.49 228.27L463.28 227.82L463.06 227.38L462.86 226.93L462.66 226.49L462.47 226.04L462.29 225.6L462.12 225.15L461.95 224.7L461.8 224.25L461.65 223.8L461.52 223.35L461.39 222.9L461.27 222.45L461.17 221.99L461.08 221.53L461 221.07L460.93 220.6L460.87 220.13L460.82 219.66L460.79 219.19L460.77 218.72L460.76 218.24L460.77 217.7L460.8 217.17L460.85 216.64L460.92 216.11L461.01 215.59L461.11 215.07L461.23 214.56L461.38 214.05L461.53 213.55L461.71 213.06L461.9 212.57L462.11 212.09L462.34 211.63L462.58 211.17L462.84 210.72L463.12 210.28L463.41 209.85L463.71 209.44L464.03 209.03L464.36 208.64L464.71 208.27L465.07 207.9L465.45 207.55L465.84 207.22L466.24 206.9L466.65 206.6L467.08 206.32L467.52 206.05L467.97 205.8L468.43 205.57L468.9 205.36L469.38 205.17L469.88 205L470.38 204.85L470.9 204.72L471.42 204.61L471.96 204.53L472.5 204.47L473.05 204.43L473.61 204.42L473.69 204.42L473.71 204.42L473.79 204.42L473.81 204.42L473.83 204.42L473.86 204.42L473.88 204.42L473.93 204.43L473.96 204.43L474.03 204.43L474.06 204.43L474.2 204.45L474.23 204.45L474.37 204.46L474.4 204.46L474.6 204.48L473.57 203.54L472.52 202.61L471.46 201.71L470.38 200.82L469.29 199.96L468.18 199.11L467.05 198.28L465.91 197.48L464.76 196.69L463.58 195.93L462.4 195.18L461.2 194.46L459.99 193.76L458.76 193.08L457.52 192.43L456.27 191.79L455.01 191.18L453.73 190.59L452.44 190.03L451.13 189.49L449.82 188.97L448.49 188.48L447.16 188.01L445.81 187.56L444.45 187.15L443.08 186.75L441.7 186.38L440.31 186.04L438.91 185.72L437.5 185.43L436.08 185.17L434.65 184.93L433.22 184.72L431.77 184.53L430.32 184.38L428.86 184.25L427.39 184.15L425.91 184.08L424.43 184.04L422.94 184.02L420.94 184.05L418.95 184.13Z"/><path id="b2kLEtSCZC" d="M200.94 490.05C200.94 509.36 185.25 525.05 165.94 525.05C146.62 525.05 130.94 509.36 130.94 490.05C130.94 470.73 146.62 455.05 165.94 455.05C185.25 455.05 200.94 470.73 200.94 490.05Z"/><path id="hstEP7j1C" d="M548.94 490.02C548.94 524.79 520.71 553.02 485.94 553.02C451.17 553.02 422.94 524.79 422.94 490.02C422.94 455.24 451.17 427.02 485.94 427.02C520.71 427.02 548.94 455.24 548.94 490.02Z"/><path id="a3c3FZNBfu" d="M520.94 490.55C520.94 509.86 505.25 525.55 485.94 525.55C466.62 525.55 450.94 509.86 450.94 490.55C450.94 471.23 466.62 455.55 485.94 455.55C505.25 455.55 520.94 471.23 520.94 490.55Z"/><path id="atYPEmdNF" d="M491.1 457.05L491.16 457.06L491.22 457.07L491.28 457.09L491.34 457.11L491.4 457.13L491.46 457.15L491.51 457.18L491.56 457.21L491.61 457.24L491.66 457.28L491.71 457.32L491.75 457.36L491.8 457.4L491.84 457.45L491.89 457.5L491.93 457.55L491.97 457.6L492.01 457.66L492.04 457.72L492.08 457.78L492.12 457.84L492.15 457.9L492.19 457.97L492.22 458.04L492.25 458.11L492.28 458.18L492.32 458.25L492.35 458.33L492.38 458.4L492.41 458.48L492.44 458.56L492.47 458.64L492.5 458.72L492.52 458.8L492.55 458.88L492.58 458.97L492.61 459.05L492.64 459.14L494.09 464.57L494.54 464.72L495.55 465.07L496.53 465.47L497.5 465.9L498.45 466.37L498.52 466.41L503.41 463.58L503.49 463.54L503.57 463.5L503.65 463.46L503.73 463.42L503.81 463.38L503.88 463.35L503.96 463.31L504.04 463.28L504.11 463.24L504.19 463.21L504.26 463.18L504.34 463.15L504.41 463.12L504.48 463.1L504.55 463.07L504.62 463.05L504.69 463.03L504.76 463.01L504.83 463L504.9 462.98L504.97 462.97L505.03 462.96L505.1 462.95L505.16 462.95L505.23 462.95L505.29 462.95L505.35 462.95L505.41 462.96L505.47 462.97L505.53 462.98L505.59 462.99L505.65 463.01L505.7 463.03L505.76 463.06L505.81 463.09L505.87 463.12L505.92 463.16L505.97 463.19L506.02 463.24L506.07 463.28L513.18 470.39L513.23 470.44L513.27 470.49L513.31 470.54L513.35 470.6L513.38 470.65L513.41 470.71L513.44 470.76L513.46 470.82L513.48 470.88L513.5 470.94L513.51 471L513.52 471.06L513.53 471.13L513.54 471.19L513.54 471.26L513.54 471.32L513.53 471.39L513.53 471.46L513.52 471.52L513.51 471.59L513.5 471.66L513.48 471.73L513.47 471.8L513.45 471.87L513.42 471.94L513.4 472.01L513.37 472.09L513.35 472.16L513.32 472.23L513.29 472.31L513.25 472.38L513.22 472.46L513.18 472.53L513.14 472.6L513.1 472.68L513.06 472.75L513.02 472.83L512.97 472.91L512.93 472.98L512.88 473.06L510.06 477.93L510.12 478.04L510.59 478.98L511.02 479.95L511.41 480.94L511.77 481.94L511.91 482.4L517.34 483.85L517.43 483.87L517.52 483.89L517.6 483.91L517.68 483.93L517.77 483.96L517.85 483.98L517.93 484.01L518.01 484.03L518.08 484.06L518.16 484.09L518.23 484.12L518.31 484.15L518.38 484.18L518.45 484.22L518.51 484.25L518.58 484.29L518.64 484.32L518.71 484.36L518.77 484.4L518.82 484.44L518.88 484.48L518.93 484.52L518.98 484.56L519.03 484.61L519.08 484.66L519.12 484.7L519.16 484.75L519.2 484.8L519.24 484.85L519.27 484.91L519.3 484.96L519.33 485.02L519.36 485.08L519.38 485.13L519.39 485.19L519.41 485.26L519.42 485.32L519.43 485.39L519.44 485.45L519.44 485.52L519.44 495.57L519.44 495.64L519.43 495.71L519.42 495.77L519.41 495.83L519.39 495.89L519.38 495.95L519.36 496.01L519.33 496.06L519.3 496.12L519.27 496.17L519.24 496.22L519.2 496.27L519.16 496.32L519.12 496.36L519.08 496.41L519.03 496.45L518.98 496.49L518.93 496.54L518.88 496.58L518.82 496.61L518.77 496.65L518.71 496.69L518.64 496.73L518.58 496.76L518.51 496.8L518.45 496.83L518.38 496.86L518.31 496.89L518.23 496.93L518.16 496.96L518.08 496.99L518.01 497.02L517.93 497.05L517.85 497.08L517.77 497.1L517.68 497.13L517.6 497.16L517.52 497.19L517.43 497.22L517.34 497.25L511.91 498.69L511.77 499.15L511.41 500.15L511.02 501.14L510.59 502.11L510.12 503.05L510.07 503.15L512.88 508.02L512.93 508.09L512.97 508.17L513.02 508.24L513.06 508.32L513.1 508.39L513.14 508.47L513.18 508.54L513.22 508.62L513.25 508.69L513.29 508.77L513.32 508.84L513.35 508.91L513.37 508.98L513.4 509.06L513.42 509.13L513.45 509.2L513.47 509.27L513.48 509.34L513.5 509.41L513.51 509.48L513.52 509.55L513.53 509.62L513.53 509.68L513.54 509.75L513.54 509.82L513.54 509.88L513.53 509.94L513.52 510.01L513.51 510.07L513.5 510.13L513.48 510.19L513.46 510.25L513.44 510.31L513.41 510.36L513.38 510.42L513.35 510.47L513.31 510.53L513.27 510.58L513.23 510.63L513.18 510.68L506.07 517.79L506.02 517.83L505.97 517.88L505.92 517.92L505.87 517.95L505.81 517.99L505.76 518.01L505.7 518.04L505.65 518.06L505.59 518.08L505.53 518.09L505.47 518.11L505.41 518.12L505.35 518.12L505.29 518.13L505.23 518.13L505.16 518.12L505.1 518.12L505.03 518.11L504.97 518.1L504.9 518.09L504.83 518.08L504.76 518.06L504.69 518.04L504.62 518.02L504.55 518L504.48 517.98L504.41 517.95L504.34 517.92L504.26 517.89L504.19 517.86L504.11 517.83L504.04 517.8L503.96 517.76L503.88 517.73L503.81 517.69L503.73 517.65L503.65 517.61L503.57 517.57L503.49 517.53L503.41 517.49L498.54 514.67L498.45 514.73L497.5 515.19L496.53 515.63L495.55 516.02L494.54 516.38L494.09 516.52L492.64 521.95L492.61 522.04L492.58 522.12L492.55 522.21L492.52 522.29L492.5 522.37L492.47 522.46L492.44 522.54L492.41 522.61L492.38 522.69L492.35 522.77L492.32 522.84L492.28 522.91L492.25 522.99L492.22 523.05L492.19 523.12L492.15 523.19L492.12 523.25L492.08 523.31L492.04 523.37L492.01 523.43L491.97 523.49L491.93 523.54L491.89 523.59L491.84 523.64L491.8 523.69L491.75 523.73L491.71 523.77L491.66 523.81L491.61 523.85L491.56 523.88L491.51 523.91L491.46 523.94L491.4 523.96L491.34 523.99L491.28 524L491.22 524.02L491.16 524.03L491.1 524.04L491.03 524.04L490.96 524.05L480.91 524.05L480.84 524.04L480.78 524.04L480.71 524.03L480.65 524.02L480.59 524L480.53 523.99L480.47 523.96L480.41 523.94L480.35 523.91L480.3 523.88L480.25 523.85L480.19 523.81L480.14 523.77L480.09 523.73L480.05 523.69L480 523.64L479.96 523.59L479.91 523.54L479.87 523.49L479.83 523.43L479.79 523.37L479.75 523.31L479.71 523.25L479.68 523.19L479.64 523.12L479.61 523.05L479.57 522.99L479.54 522.91L479.51 522.84L479.48 522.77L479.45 522.69L479.43 522.61L479.4 522.54L479.37 522.46L479.35 522.37L479.32 522.29L479.3 522.21L479.28 522.12L479.26 522.04L479.24 521.95L477.79 516.52L477.33 516.38L476.33 516.02L475.34 515.63L474.38 515.19L473.43 514.73L473.31 514.66L468.47 517.47L468.39 517.52L468.32 517.56L468.24 517.61L468.17 517.65L468.09 517.69L468.02 517.73L467.94 517.77L467.87 517.81L467.79 517.84L467.72 517.87L467.64 517.91L467.57 517.94L467.5 517.96L467.43 517.99L467.35 518.01L467.28 518.03L467.21 518.05L467.14 518.07L467.07 518.09L467 518.1L466.93 518.11L466.87 518.12L466.8 518.12L466.73 518.13L466.67 518.13L466.6 518.12L466.54 518.12L466.48 518.11L466.41 518.1L466.35 518.09L466.29 518.07L466.23 518.05L466.18 518.02L466.12 518L466.06 517.97L466.01 517.93L465.96 517.9L465.9 517.86L465.85 517.81L465.8 517.77L458.7 510.66L458.65 510.61L458.61 510.56L458.57 510.51L458.53 510.46L458.5 510.4L458.47 510.35L458.44 510.29L458.42 510.24L458.4 510.18L458.39 510.12L458.38 510.06L458.37 510L458.36 509.94L458.36 509.88L458.36 509.82L458.36 509.75L458.36 509.69L458.37 509.62L458.38 509.56L458.39 509.49L458.41 509.42L458.42 509.35L458.44 509.28L458.46 509.21L458.48 509.14L458.51 509.07L458.53 509L458.56 508.93L458.59 508.85L458.62 508.78L458.65 508.7L458.69 508.63L458.72 508.55L458.76 508.47L458.79 508.39L458.83 508.32L458.87 508.24L458.91 508.16L458.95 508.08L458.99 508L461.8 503.14L461.76 503.05L461.29 502.11L460.86 501.14L460.46 500.15L460.11 499.15L459.97 498.69L454.53 497.25L454.44 497.22L454.36 497.19L454.28 497.16L454.19 497.13L454.11 497.1L454.03 497.08L453.95 497.05L453.87 497.02L453.79 496.99L453.72 496.96L453.64 496.93L453.57 496.89L453.5 496.86L453.43 496.83L453.36 496.8L453.29 496.76L453.23 496.73L453.17 496.69L453.11 496.65L453.05 496.61L453 496.58L452.94 496.54L452.89 496.49L452.84 496.45L452.8 496.41L452.75 496.36L452.71 496.32L452.67 496.27L452.64 496.22L452.6 496.17L452.57 496.12L452.54 496.06L452.52 496.01L452.5 495.95L452.48 495.89L452.46 495.83L452.45 495.77L452.44 495.71L452.44 495.64L452.44 495.57L452.44 485.52L452.44 485.45L452.44 485.39L452.45 485.32L452.46 485.26L452.48 485.19L452.5 485.13L452.52 485.08L452.54 485.02L452.57 484.96L452.6 484.91L452.64 484.85L452.67 484.8L452.71 484.75L452.75 484.7L452.8 484.66L452.84 484.61L452.89 484.56L452.94 484.52L453 484.48L453.05 484.44L453.11 484.4L453.17 484.36L453.23 484.32L453.29 484.29L453.36 484.25L453.43 484.22L453.5 484.18L453.57 484.15L453.64 484.12L453.72 484.09L453.79 484.06L453.87 484.03L453.95 484.01L454.03 483.98L454.11 483.96L454.19 483.93L454.28 483.91L454.36 483.89L454.44 483.87L454.53 483.85L459.97 482.4L460.11 481.94L460.46 480.94L460.86 479.95L461.29 478.98L461.76 478.04L461.81 477.94L458.99 473.08L458.95 473L458.91 472.92L458.87 472.84L458.83 472.76L458.79 472.68L458.76 472.6L458.72 472.52L458.69 472.45L458.65 472.37L458.62 472.3L458.59 472.22L458.56 472.15L458.53 472.07L458.51 472L458.48 471.93L458.46 471.86L458.44 471.79L458.42 471.72L458.41 471.65L458.39 471.58L458.38 471.52L458.37 471.45L458.36 471.38L458.36 471.32L458.36 471.26L458.36 471.19L458.36 471.13L458.37 471.07L458.38 471.01L458.39 470.95L458.4 470.89L458.42 470.84L458.44 470.78L458.47 470.72L458.5 470.67L458.53 470.62L458.57 470.56L458.61 470.51L458.65 470.46L458.7 470.41L465.8 463.3L465.85 463.26L465.9 463.21L465.96 463.17L466.01 463.14L466.06 463.1L466.12 463.07L466.18 463.05L466.23 463.02L466.29 463L466.35 462.99L466.41 462.97L466.48 462.96L466.54 462.95L466.6 462.95L466.67 462.95L466.73 462.95L466.8 462.95L466.87 462.95L466.93 462.96L467 462.97L467.07 462.99L467.14 463L467.21 463.02L467.28 463.04L467.35 463.06L467.43 463.08L467.5 463.11L467.57 463.14L467.64 463.17L467.72 463.2L467.79 463.23L467.87 463.27L467.94 463.3L468.02 463.34L468.09 463.38L468.17 463.42L468.24 463.47L468.32 463.51L468.39 463.55L468.47 463.6L473.33 466.42L473.43 466.37L474.38 465.9L475.34 465.47L476.33 465.07L477.33 464.72L477.79 464.57L479.24 459.14L479.26 459.05L479.28 458.97L479.3 458.88L479.32 458.8L479.35 458.72L479.37 458.64L479.4 458.56L479.43 458.48L479.45 458.4L479.48 458.33L479.51 458.25L479.54 458.18L479.57 458.11L479.61 458.04L479.64 457.97L479.68 457.9L479.71 457.84L479.75 457.78L479.79 457.72L479.83 457.66L479.87 457.6L479.91 457.55L479.96 457.5L480 457.45L480.05 457.4L480.09 457.36L480.14 457.32L480.19 457.28L480.25 457.24L480.3 457.21L480.35 457.18L480.41 457.15L480.47 457.13L480.53 457.11L480.59 457.09L480.65 457.07L480.71 457.06L480.78 457.05L480.84 457.05L480.91 457.05L490.96 457.05L491.03 457.05L491.1 457.05ZM484.74 475.94L484.14 476L483.56 476.08L482.98 476.19L482.42 476.32L481.86 476.47L481.3 476.64L480.76 476.83L480.23 477.04L479.71 477.27L479.2 477.53L478.7 477.8L478.22 478.09L477.74 478.39L477.28 478.72L476.83 479.06L476.4 479.42L475.98 479.79L475.57 480.18L475.18 480.59L474.81 481.01L474.45 481.44L474.11 481.89L473.78 482.35L473.48 482.83L473.19 483.31L472.92 483.81L472.67 484.32L472.43 484.84L472.22 485.37L472.03 485.91L471.86 486.46L471.71 487.02L471.58 487.59L471.47 488.17L471.39 488.75L471.33 489.34L471.29 489.94L471.28 490.55L471.29 491.15L471.33 491.75L471.39 492.34L471.47 492.92L471.58 493.5L471.71 494.07L471.86 494.63L472.03 495.18L472.22 495.72L472.43 496.25L472.67 496.77L472.92 497.28L473.19 497.78L473.48 498.27L473.78 498.74L474.11 499.2L474.45 499.65L474.81 500.08L475.18 500.5L475.57 500.91L475.98 501.3L476.4 501.67L476.83 502.03L477.28 502.37L477.74 502.7L478.22 503.01L478.7 503.3L479.2 503.57L479.71 503.82L480.23 504.05L480.76 504.26L481.3 504.46L481.86 504.63L482.42 504.78L482.98 504.9L483.56 505.01L484.14 505.09L484.74 505.15L485.33 505.19L485.94 505.2L486.54 505.19L487.14 505.15L487.73 505.09L488.31 505.01L488.89 504.9L489.46 504.78L490.02 504.63L490.57 504.46L491.11 504.26L491.64 504.05L492.16 503.82L492.67 503.57L493.17 503.3L493.66 503.01L494.13 502.7L494.59 502.37L495.04 502.03L495.48 501.67L495.9 501.3L496.3 500.91L496.69 500.5L497.07 500.08L497.42 499.65L497.77 499.2L498.09 498.74L498.4 498.27L498.69 497.78L498.96 497.28L499.21 496.77L499.44 496.25L499.65 495.72L499.85 495.18L500.02 494.63L500.17 494.07L500.3 493.5L500.4 492.92L500.49 492.34L500.55 491.75L500.58 491.15L500.59 490.55L500.58 489.94L500.55 489.34L500.49 488.75L500.4 488.17L500.3 487.59L500.17 487.02L500.02 486.46L499.85 485.91L499.65 485.37L499.44 484.84L499.21 484.32L498.96 483.81L498.69 483.31L498.4 482.83L498.09 482.35L497.77 481.89L497.42 481.44L497.07 481.01L496.69 480.59L496.3 480.18L495.9 479.79L495.48 479.42L495.04 479.06L494.59 478.72L494.13 478.39L493.66 478.09L493.17 477.8L492.67 477.53L492.16 477.27L491.64 477.04L491.11 476.83L490.57 476.64L490.02 476.47L489.46 476.32L488.89 476.19L488.31 476.08L487.73 476L487.14 475.94L486.54 475.9L485.94 475.89L485.33 475.9L484.74 475.94Z"/><path id="d4wHceGM53" d="M171.1 456.05L171.16 456.06L171.22 456.07L171.28 456.09L171.34 456.11L171.4 456.13L171.46 456.15L171.51 456.18L171.56 456.21L171.61 456.24L171.66 456.28L171.71 456.32L171.75 456.36L171.8 456.4L171.84 456.45L171.89 456.5L171.93 456.55L171.97 456.6L172.01 456.66L172.04 456.72L172.08 456.78L172.12 456.84L172.15 456.9L172.19 456.97L172.22 457.04L172.25 457.11L172.28 457.18L172.32 457.25L172.35 457.33L172.38 457.4L172.41 457.48L172.44 457.56L172.47 457.64L172.5 457.72L172.52 457.8L172.55 457.88L172.58 457.97L172.61 458.05L172.64 458.14L174.09 463.57L174.54 463.72L175.55 464.07L176.53 464.47L177.5 464.9L178.45 465.37L178.52 465.41L183.41 462.58L183.49 462.54L183.57 462.5L183.65 462.46L183.73 462.42L183.81 462.38L183.88 462.35L183.96 462.31L184.04 462.28L184.11 462.24L184.19 462.21L184.26 462.18L184.34 462.15L184.41 462.12L184.48 462.1L184.55 462.07L184.62 462.05L184.69 462.03L184.76 462.01L184.83 462L184.9 461.98L184.97 461.97L185.03 461.96L185.1 461.95L185.16 461.95L185.23 461.95L185.29 461.95L185.35 461.95L185.41 461.96L185.47 461.97L185.53 461.98L185.59 461.99L185.65 462.01L185.7 462.03L185.76 462.06L185.81 462.09L185.87 462.12L185.92 462.16L185.97 462.19L186.02 462.24L186.07 462.28L193.18 469.39L193.23 469.44L193.27 469.49L193.31 469.54L193.35 469.6L193.38 469.65L193.41 469.71L193.44 469.76L193.46 469.82L193.48 469.88L193.5 469.94L193.51 470L193.52 470.06L193.53 470.13L193.54 470.19L193.54 470.26L193.54 470.32L193.53 470.39L193.53 470.46L193.52 470.52L193.51 470.59L193.5 470.66L193.48 470.73L193.47 470.8L193.45 470.87L193.42 470.94L193.4 471.01L193.37 471.09L193.35 471.16L193.32 471.23L193.29 471.31L193.25 471.38L193.22 471.46L193.18 471.53L193.14 471.6L193.1 471.68L193.06 471.75L193.02 471.83L192.97 471.91L192.93 471.98L192.88 472.06L190.06 476.93L190.12 477.04L190.59 477.98L191.02 478.95L191.41 479.94L191.77 480.94L191.91 481.4L197.34 482.85L197.43 482.87L197.52 482.89L197.6 482.91L197.68 482.93L197.77 482.96L197.85 482.98L197.93 483.01L198.01 483.03L198.08 483.06L198.16 483.09L198.23 483.12L198.31 483.15L198.38 483.18L198.45 483.22L198.51 483.25L198.58 483.29L198.64 483.32L198.71 483.36L198.77 483.4L198.82 483.44L198.88 483.48L198.93 483.52L198.98 483.56L199.03 483.61L199.08 483.66L199.12 483.7L199.16 483.75L199.2 483.8L199.24 483.85L199.27 483.91L199.3 483.96L199.33 484.02L199.36 484.08L199.38 484.13L199.39 484.19L199.41 484.26L199.42 484.32L199.43 484.39L199.44 484.45L199.44 484.52L199.44 494.57L199.44 494.64L199.43 494.71L199.42 494.77L199.41 494.83L199.39 494.89L199.38 494.95L199.36 495.01L199.33 495.06L199.3 495.12L199.27 495.17L199.24 495.22L199.2 495.27L199.16 495.32L199.12 495.36L199.08 495.41L199.03 495.45L198.98 495.49L198.93 495.54L198.88 495.58L198.82 495.61L198.77 495.65L198.71 495.69L198.64 495.73L198.58 495.76L198.51 495.8L198.45 495.83L198.38 495.86L198.31 495.89L198.23 495.93L198.16 495.96L198.08 495.99L198.01 496.02L197.93 496.05L197.85 496.08L197.77 496.1L197.68 496.13L197.6 496.16L197.52 496.19L197.43 496.22L197.34 496.25L191.91 497.69L191.77 498.15L191.41 499.15L191.02 500.14L190.59 501.11L190.12 502.05L190.07 502.15L192.88 507.02L192.93 507.09L192.97 507.17L193.02 507.24L193.06 507.32L193.1 507.39L193.14 507.47L193.18 507.54L193.22 507.62L193.25 507.69L193.29 507.77L193.32 507.84L193.35 507.91L193.37 507.98L193.4 508.06L193.42 508.13L193.45 508.2L193.47 508.27L193.48 508.34L193.5 508.41L193.51 508.48L193.52 508.55L193.53 508.62L193.53 508.68L193.54 508.75L193.54 508.82L193.54 508.88L193.53 508.94L193.52 509.01L193.51 509.07L193.5 509.13L193.48 509.19L193.46 509.25L193.44 509.31L193.41 509.36L193.38 509.42L193.35 509.47L193.31 509.53L193.27 509.58L193.23 509.63L193.18 509.68L186.07 516.79L186.02 516.83L185.97 516.88L185.92 516.92L185.87 516.95L185.81 516.99L185.76 517.01L185.7 517.04L185.65 517.06L185.59 517.08L185.53 517.09L185.47 517.11L185.41 517.12L185.35 517.12L185.29 517.13L185.23 517.13L185.16 517.12L185.1 517.12L185.03 517.11L184.97 517.1L184.9 517.09L184.83 517.08L184.76 517.06L184.69 517.04L184.62 517.02L184.55 517L184.48 516.98L184.41 516.95L184.34 516.92L184.26 516.89L184.19 516.86L184.11 516.83L184.04 516.8L183.96 516.76L183.88 516.73L183.81 516.69L183.73 516.65L183.65 516.61L183.57 516.57L183.49 516.53L183.41 516.49L178.54 513.67L178.45 513.73L177.5 514.19L176.53 514.63L175.55 515.02L174.54 515.38L174.09 515.52L172.64 520.95L172.61 521.04L172.58 521.12L172.55 521.21L172.52 521.29L172.5 521.37L172.47 521.46L172.44 521.54L172.41 521.61L172.38 521.69L172.35 521.77L172.32 521.84L172.28 521.91L172.25 521.99L172.22 522.05L172.19 522.12L172.15 522.19L172.12 522.25L172.08 522.31L172.04 522.37L172.01 522.43L171.97 522.49L171.93 522.54L171.89 522.59L171.84 522.64L171.8 522.69L171.75 522.73L171.71 522.77L171.66 522.81L171.61 522.85L171.56 522.88L171.51 522.91L171.46 522.94L171.4 522.96L171.34 522.99L171.28 523L171.22 523.02L171.16 523.03L171.1 523.04L171.03 523.04L170.96 523.05L160.91 523.05L160.84 523.04L160.78 523.04L160.71 523.03L160.65 523.02L160.59 523L160.53 522.99L160.47 522.96L160.41 522.94L160.35 522.91L160.3 522.88L160.25 522.85L160.19 522.81L160.14 522.77L160.09 522.73L160.05 522.69L160 522.64L159.96 522.59L159.91 522.54L159.87 522.49L159.83 522.43L159.79 522.37L159.75 522.31L159.71 522.25L159.68 522.19L159.64 522.12L159.61 522.05L159.57 521.99L159.54 521.91L159.51 521.84L159.48 521.77L159.45 521.69L159.43 521.61L159.4 521.54L159.37 521.46L159.35 521.37L159.32 521.29L159.3 521.21L159.28 521.12L159.26 521.04L159.24 520.95L157.79 515.52L157.33 515.38L156.33 515.02L155.34 514.63L154.38 514.19L153.43 513.73L153.31 513.66L148.47 516.47L148.39 516.52L148.32 516.56L148.24 516.61L148.17 516.65L148.09 516.69L148.02 516.73L147.94 516.77L147.87 516.81L147.79 516.84L147.72 516.87L147.64 516.91L147.57 516.94L147.5 516.96L147.43 516.99L147.35 517.01L147.28 517.03L147.21 517.05L147.14 517.07L147.07 517.09L147 517.1L146.93 517.11L146.87 517.12L146.8 517.12L146.73 517.13L146.67 517.13L146.6 517.12L146.54 517.12L146.48 517.11L146.41 517.1L146.35 517.09L146.29 517.07L146.23 517.05L146.18 517.02L146.12 517L146.06 516.97L146.01 516.93L145.96 516.9L145.9 516.86L145.85 516.81L145.8 516.77L138.7 509.66L138.65 509.61L138.61 509.56L138.57 509.51L138.53 509.46L138.5 509.4L138.47 509.35L138.44 509.29L138.42 509.24L138.4 509.18L138.39 509.12L138.38 509.06L138.37 509L138.36 508.94L138.36 508.88L138.36 508.82L138.36 508.75L138.36 508.69L138.37 508.62L138.38 508.56L138.39 508.49L138.41 508.42L138.42 508.35L138.44 508.28L138.46 508.21L138.48 508.14L138.51 508.07L138.53 508L138.56 507.93L138.59 507.85L138.62 507.78L138.65 507.7L138.69 507.63L138.72 507.55L138.76 507.47L138.79 507.39L138.83 507.32L138.87 507.24L138.91 507.16L138.95 507.08L138.99 507L141.8 502.14L141.76 502.05L141.29 501.11L140.86 500.14L140.46 499.15L140.11 498.15L139.97 497.69L134.53 496.25L134.44 496.22L134.36 496.19L134.28 496.16L134.19 496.13L134.11 496.1L134.03 496.08L133.95 496.05L133.87 496.02L133.79 495.99L133.72 495.96L133.64 495.93L133.57 495.89L133.5 495.86L133.43 495.83L133.36 495.8L133.29 495.76L133.23 495.73L133.17 495.69L133.11 495.65L133.05 495.61L133 495.58L132.94 495.54L132.89 495.49L132.84 495.45L132.8 495.41L132.75 495.36L132.71 495.32L132.67 495.27L132.64 495.22L132.6 495.17L132.57 495.12L132.54 495.06L132.52 495.01L132.5 494.95L132.48 494.89L132.46 494.83L132.45 494.77L132.44 494.71L132.44 494.64L132.44 494.57L132.44 484.52L132.44 484.45L132.44 484.39L132.45 484.32L132.46 484.26L132.48 484.19L132.5 484.13L132.52 484.08L132.54 484.02L132.57 483.96L132.6 483.91L132.64 483.85L132.67 483.8L132.71 483.75L132.75 483.7L132.8 483.66L132.84 483.61L132.89 483.56L132.94 483.52L133 483.48L133.05 483.44L133.11 483.4L133.17 483.36L133.23 483.32L133.29 483.29L133.36 483.25L133.43 483.22L133.5 483.18L133.57 483.15L133.64 483.12L133.72 483.09L133.79 483.06L133.87 483.03L133.95 483.01L134.03 482.98L134.11 482.96L134.19 482.93L134.28 482.91L134.36 482.89L134.44 482.87L134.53 482.85L139.97 481.4L140.11 480.94L140.46 479.94L140.86 478.95L141.29 477.98L141.76 477.04L141.81 476.94L138.99 472.08L138.95 472L138.91 471.92L138.87 471.84L138.83 471.76L138.79 471.68L138.76 471.6L138.72 471.52L138.69 471.45L138.65 471.37L138.62 471.3L138.59 471.22L138.56 471.15L138.53 471.07L138.51 471L138.48 470.93L138.46 470.86L138.44 470.79L138.42 470.72L138.41 470.65L138.39 470.58L138.38 470.52L138.37 470.45L138.36 470.38L138.36 470.32L138.36 470.26L138.36 470.19L138.36 470.13L138.37 470.07L138.38 470.01L138.39 469.95L138.4 469.89L138.42 469.84L138.44 469.78L138.47 469.72L138.5 469.67L138.53 469.62L138.57 469.56L138.61 469.51L138.65 469.46L138.7 469.41L145.8 462.3L145.85 462.26L145.9 462.21L145.96 462.17L146.01 462.14L146.06 462.1L146.12 462.07L146.18 462.05L146.23 462.02L146.29 462L146.35 461.99L146.41 461.97L146.48 461.96L146.54 461.95L146.6 461.95L146.67 461.95L146.73 461.95L146.8 461.95L146.87 461.95L146.93 461.96L147 461.97L147.07 461.99L147.14 462L147.21 462.02L147.28 462.04L147.35 462.06L147.43 462.08L147.5 462.11L147.57 462.14L147.64 462.17L147.72 462.2L147.79 462.23L147.87 462.27L147.94 462.3L148.02 462.34L148.09 462.38L148.17 462.42L148.24 462.47L148.32 462.51L148.39 462.55L148.47 462.6L153.33 465.42L153.43 465.37L154.38 464.9L155.34 464.47L156.33 464.07L157.33 463.72L157.79 463.57L159.24 458.14L159.26 458.05L159.28 457.97L159.3 457.88L159.32 457.8L159.35 457.72L159.37 457.64L159.4 457.56L159.43 457.48L159.45 457.4L159.48 457.33L159.51 457.25L159.54 457.18L159.57 457.11L159.61 457.04L159.64 456.97L159.68 456.9L159.71 456.84L159.75 456.78L159.79 456.72L159.83 456.66L159.87 456.6L159.91 456.55L159.96 456.5L160 456.45L160.05 456.4L160.09 456.36L160.14 456.32L160.19 456.28L160.25 456.24L160.3 456.21L160.35 456.18L160.41 456.15L160.47 456.13L160.53 456.11L160.59 456.09L160.65 456.07L160.71 456.06L160.78 456.05L160.84 456.05L160.91 456.05L170.96 456.05L171.03 456.05L171.1 456.05ZM164.74 474.94L164.14 475L163.56 475.08L162.98 475.19L162.42 475.32L161.86 475.47L161.3 475.64L160.76 475.83L160.23 476.04L159.71 476.27L159.2 476.53L158.7 476.8L158.22 477.09L157.74 477.39L157.28 477.72L156.83 478.06L156.4 478.42L155.98 478.79L155.57 479.18L155.18 479.59L154.81 480.01L154.45 480.44L154.11 480.89L153.78 481.35L153.48 481.83L153.19 482.31L152.92 482.81L152.67 483.32L152.43 483.84L152.22 484.37L152.03 484.91L151.86 485.46L151.71 486.02L151.58 486.59L151.47 487.17L151.39 487.75L151.33 488.34L151.29 488.94L151.28 489.55L151.29 490.15L151.33 490.75L151.39 491.34L151.47 491.92L151.58 492.5L151.71 493.07L151.86 493.63L152.03 494.18L152.22 494.72L152.43 495.25L152.67 495.77L152.92 496.28L153.19 496.78L153.48 497.27L153.78 497.74L154.11 498.2L154.45 498.65L154.81 499.08L155.18 499.5L155.57 499.91L155.98 500.3L156.4 500.67L156.83 501.03L157.28 501.37L157.74 501.7L158.22 502.01L158.7 502.3L159.2 502.57L159.71 502.82L160.23 503.05L160.76 503.26L161.3 503.46L161.86 503.63L162.42 503.78L162.98 503.9L163.56 504.01L164.14 504.09L164.74 504.15L165.33 504.19L165.94 504.2L166.54 504.19L167.14 504.15L167.73 504.09L168.31 504.01L168.89 503.9L169.46 503.78L170.02 503.63L170.57 503.46L171.11 503.26L171.64 503.05L172.16 502.82L172.67 502.57L173.17 502.3L173.66 502.01L174.13 501.7L174.59 501.37L175.04 501.03L175.48 500.67L175.9 500.3L176.3 499.91L176.69 499.5L177.07 499.08L177.42 498.65L177.77 498.2L178.09 497.74L178.4 497.27L178.69 496.78L178.96 496.28L179.21 495.77L179.44 495.25L179.65 494.72L179.85 494.18L180.02 493.63L180.17 493.07L180.3 492.5L180.4 491.92L180.49 491.34L180.55 490.75L180.58 490.15L180.59 489.55L180.58 488.94L180.55 488.34L180.49 487.75L180.4 487.17L180.3 486.59L180.17 486.02L180.02 485.46L179.85 484.91L179.65 484.37L179.44 483.84L179.21 483.32L178.96 482.81L178.69 482.31L178.4 481.83L178.09 481.35L177.77 480.89L177.42 480.44L177.07 480.01L176.69 479.59L176.3 479.18L175.9 478.79L175.48 478.42L175.04 478.06L174.59 477.72L174.13 477.39L173.66 477.09L173.17 476.8L172.67 476.53L172.16 476.27L171.64 476.04L171.11 475.83L170.57 475.64L170.02 475.47L169.46 475.32L168.89 475.19L168.31 475.08L167.73 475L167.14 474.94L166.54 474.9L165.94 474.89L165.33 474.9L164.74 474.94Z"/></defs><g><g><g><use fill="#fff" fill-opacity="0" opacity="1" xlink:href="#d15dbUSOSu"/><g><use fill-opacity="0" stroke="#600060" stroke-opacity="1" stroke-width="2" opacity="1" xlink:href="#d15dbUSOSu"/></g></g><g><g><use fill-opacity="0" stroke="#600060" stroke-opacity="1" stroke-width="7" opacity="1" xlink:href="#cEBgdKikF"/></g></g><g><g><use fill-opacity="0" stroke="#600060" stroke-opacity="1" stroke-width="7" opacity="1" xlink:href="#d4by12CTH"/></g></g><g><use fill="#fff" fill-opacity="0" opacity="1" xlink:href="#afj9ln42p"/><g><use fill-opacity="0" stroke="#600060" stroke-opacity="1" stroke-width="7" opacity="1" xlink:href="#afj9ln42p"/></g></g><g><g><use fill-opacity="0" stroke="#600060" stroke-opacity="1" stroke-width="2" opacity="1" xlink:href="#a2FFgFnVYu"/></g></g><g><g><use fill-opacity="0" stroke="#600060" stroke-opacity="1" stroke-width="7" opacity="1" xlink:href="#b1qJ4lXPN8"/></g></g><g><g><use fill-opacity="0" stroke="#600060" stroke-opacity="1" stroke-width="7" opacity="1" xlink:href="#b1CzxVhnI4"/></g></g><g><g><use fill-opacity="0" stroke="#600060" stroke-opacity="1" stroke-width="7" opacity="1" xlink:href="#a3FP49RVQ"/></g></g><g><g><use fill-opacity="0" stroke="#600060" stroke-opacity="1" stroke-width="7" opacity="1" xlink:href="#c5zBXWZkMK"/></g></g><g><g><use fill-opacity="0" stroke="#600060" stroke-opacity="1" stroke-width="4" opacity="1" xlink:href="#a2EsB0BexE"/></g></g><g><g><use fill-opacity="0" stroke="#600060" stroke-opacity="1" stroke-width="7" opacity="1" xlink:href="#hpBwAzIxO"/></g></g><g><g><use fill-opacity="0" stroke="#600060" stroke-opacity="1" stroke-width="7" opacity="1" xlink:href="#b4S3dTkW61"/></g></g><g><use fill="#600060" fill-opacity="1" opacity="1" xlink:href="#bpB0ZcUMS"/></g><g><g><use fill-opacity="0" stroke="#600060" stroke-opacity="1" stroke-width="4" opacity="1" xlink:href="#b2kLEtSCZC"/></g></g><g><use fill="#fff" fill-opacity="0" opacity="1" xlink:href="#hstEP7j1C"/><g><use fill-opacity="0" stroke="#600060" stroke-opacity="1" stroke-width="7" opacity="1" xlink:href="#hstEP7j1C"/></g></g><g><g><use fill-opacity="0" stroke="#600060" stroke-opacity="1" stroke-width="4" opacity="1" xlink:href="#a3c3FZNBfu"/></g></g><g><g><use fill-opacity="0" stroke="#600060" stroke-opacity="1" stroke-width="2" opacity="1" xlink:href="#atYPEmdNF"/></g></g><g><g><use fill-opacity="0" stroke="#600060" stroke-opacity="1" stroke-width="2" opacity="1" xlink:href="#d4wHceGM53"/></g></g></g></g></svg>