<svg width="640" height="640" version="1.1" viewBox="0 0 640 640" xmlns="http://www.w3.org/2000/svg" xmlns:xlink="http://www.w3.org/1999/xlink">
 <defs>
  <path id="a5riws9ou4" d="m519.72 144.25 0.12 0.01 0.24 0.04 0.24 0.06 0.11 0.03 0.12 0.04 0.11 0.04 0.22 0.1 0.1 0.05 0.2 0.12 0.1 0.07 0.27 0.21 0.09 0.08 0.16 0.16 0.21 0.27 0.06 0.1 0.07 0.1 0.05 0.09 0.05 0.11 0.05 0.1 0.05 0.11 0.04 0.11 0.03 0.11 0.04 0.11 0.02 0.11 0.02 0.12 0.02 0.11 0.02 0.24v0.12 58.59h61.4 0.13l0.12 0.01 0.13 0.01 0.36 0.06 0.12 0.03 0.11 0.04 0.12 0.03 0.11 0.05 0.11 0.04 0.1 0.05 0.11 0.06 0.2 0.12 0.09 0.06 0.1 0.07 0.09 0.07 0.09 0.08 0.24 0.24 0.08 0.09 0.14 0.18 0.06 0.09 0.12 0.2 0.05 0.1 0.05 0.11 0.05 0.1 0.04 0.11 0.06 0.22 0.03 0.12 0.02 0.11 0.02 0.12 0.02 0.24v0.12 46.87 0.12l-0.01 0.12-0.01 0.11-0.04 0.24-0.09 0.33-0.04 0.11-0.05 0.1-0.05 0.11-0.05 0.1-0.12 0.2-0.06 0.09-0.14 0.18-0.08 0.09-0.08 0.08-0.08 0.09-0.08 0.07-0.09 0.08-0.09 0.07-0.1 0.07-0.09 0.06-0.1 0.07-0.1 0.05-0.11 0.06-0.1 0.05-0.11 0.04-0.11 0.05-0.12 0.03-0.11 0.04-0.12 0.03-0.12 0.02-0.12 0.03-0.12 0.01-0.13 0.01-0.12 0.01h-0.13-61.4v58.59 0.12l-0.02 0.24-0.02 0.12-0.04 0.22-0.04 0.12-0.03 0.11-0.04 0.1-0.05 0.11-0.05 0.1-0.05 0.11-0.05 0.1-0.07 0.09-0.06 0.1-0.21 0.27-0.16 0.16-0.09 0.08-0.09 0.07-0.09 0.08-0.09 0.06-0.1 0.07-0.2 0.12-0.1 0.05-0.22 0.1-0.11 0.04-0.12 0.04-0.11 0.03-0.24 0.06-0.24 0.04-0.12 0.01-0.13 0.01h-0.12-49.12-0.13l-0.12-0.01-0.13-0.01-0.24-0.04-0.24-0.06-0.11-0.03-0.12-0.04-0.11-0.04-0.11-0.05-0.1-0.05-0.11-0.05-0.2-0.12-0.1-0.07-0.09-0.06-0.09-0.08-0.09-0.07-0.24-0.24-0.08-0.09-0.14-0.18-0.06-0.1-0.06-0.09-0.06-0.1-0.05-0.11-0.05-0.1-0.05-0.11-0.04-0.1-0.03-0.11-0.03-0.12-0.03-0.11-0.02-0.11-0.02-0.12-0.02-0.24v-0.12-58.59h-61.4-0.13l-0.12-0.01-0.13-0.01-0.12-0.01-0.12-0.03-0.12-0.02-0.11-0.03-0.12-0.04-0.11-0.03-0.11-0.05-0.11-0.04-0.11-0.05-0.1-0.06-0.11-0.05-0.1-0.07-0.09-0.06-0.1-0.07-0.09-0.07-0.09-0.08-0.08-0.07-0.08-0.09-0.08-0.08-0.08-0.09-0.14-0.18-0.06-0.09-0.12-0.2-0.05-0.1-0.05-0.11-0.04-0.1-0.08-0.22-0.06-0.22-0.04-0.24-0.01-0.11-0.01-0.12v-0.12-46.87-0.12l0.02-0.24 0.02-0.12 0.02-0.11 0.03-0.12 0.03-0.11 0.08-0.22 0.04-0.1 0.05-0.11 0.05-0.1 0.12-0.2 0.06-0.09 0.14-0.18 0.08-0.09 0.24-0.24 0.09-0.08 0.09-0.07 0.1-0.07 0.09-0.06 0.1-0.06 0.11-0.06 0.1-0.06 0.11-0.05 0.11-0.04 0.11-0.05 0.11-0.03 0.12-0.04 0.11-0.03 0.36-0.06 0.13-0.01 0.12-0.01h0.13 61.4v-58.59-0.12l0.02-0.24 0.02-0.11 0.02-0.12 0.09-0.33 0.04-0.11 0.05-0.11 0.05-0.1 0.05-0.11 0.06-0.09 0.12-0.2 0.14-0.18 0.08-0.09 0.24-0.24 0.27-0.21 0.1-0.07 0.2-0.12 0.11-0.05 0.1-0.05 0.11-0.05 0.11-0.04 0.12-0.04 0.11-0.03 0.24-0.06 0.24-0.04 0.13-0.01 0.12-0.01h0.13 49.12 0.12l0.13 0.01z"/>
  <path id="g6ylWVqlo" d="m670.3 481.18c0 39.7-29.68 71.94-66.25 71.94-36.56 0-66.25-32.24-66.25-71.94 0-39.71 29.69-71.95 66.25-71.95 36.57 0 66.25 32.24 66.25 71.95z"/>
  <path id="b20cUmUS9T" d="m287.74 182.85h-128.37c-56.05 62.61-91.08 101.74-105.09 117.4-0.99 1.1-0.21 2.85 1.27 2.85h237.08v-204.63c0-3.72 3.02-6.74 6.75-6.74h19.5 351.42"/>
  <path id="a2l1Uqg8H3" d="m87.56 481.18h-55.22v-29.47h14.78"/>
  <path id="c6t0uIZfQb" d="m227.87 479.87c0 39.7-29.69 71.94-66.25 71.94-36.57 0-66.25-32.24-66.25-71.94 0-39.71 29.68-71.95 66.25-71.95 36.56 0 66.25 32.24 66.25 71.95z"/>
  <path id="atlE4eUUQ" d="m54.17 301.1v157.52"/>
  <path id="iaSYwS5z7" d="m533.5 479.87-300.31 1.31"/>
  <path id="c2mwklWsKq" d="m276 339.99h-29"/>
 </defs>
 <g transform="translate(22)">
  <use width="100%" height="100%" fill-opacity="0" xlink:href="#a5riws9ou4"/>
  <use width="100%" height="100%" fill-opacity="0" stroke="#f5f5f5" stroke-width="15" xlink:href="#a5riws9ou4"/>
  <use width="100%" height="100%" fill-opacity="0" xlink:href="#g6ylWVqlo"/>
  <use width="100%" height="100%" fill-opacity="0" stroke="#f5f5f5" stroke-width="15" xlink:href="#g6ylWVqlo"/>
  <use width="100%" height="100%" fill-opacity="0" stroke="#f5f5f5" stroke-width="15" xlink:href="#b20cUmUS9T"/>
  <use width="100%" height="100%" fill-opacity="0" stroke="#f5f5f5" stroke-width="15" xlink:href="#a2l1Uqg8H3"/>
  <use width="100%" height="100%" fill-opacity="0" xlink:href="#c6t0uIZfQb"/>
  <use width="100%" height="100%" fill-opacity="0" stroke="#f5f5f5" stroke-width="15" xlink:href="#c6t0uIZfQb"/>
  <use width="100%" height="100%" fill-opacity="0" stroke="#a434b7" stroke-width="2" xlink:href="#e5fdIq19Tj"/>
  <use width="100%" height="100%" fill-opacity="0" stroke="#f5f5f5" stroke-width="15" xlink:href="#atlE4eUUQ"/>
  <use width="100%" height="100%" fill-opacity="0" stroke="#f5f5f5" stroke-width="15" xlink:href="#iaSYwS5z7"/>
  <use width="100%" height="100%" fill-opacity="0" stroke="#f5f5f5" stroke-width="15" xlink:href="#c2mwklWsKq"/>
 </g>
</svg>
