<svg xmlns="http://www.w3.org/2000/svg" xmlns:xlink="http://www.w3.org/1999/xlink" width="640" height="640"><defs><path d="M173.29 328.41l.05.01.05.01.05.01.05.01.05.01.05.02.04.01.05.02.05.02.04.02.04.03.04.02.04.03.04.03.04.03.04.03.04.03.03.04.03.04.04.03.03.04.03.04.03.04.02.04.03.05.02.04.02.05.02.04.02.05.02.05.01.05.01.04.02.05v.06l.01.05.01.05v26.04H199.78l.05.01.05.01.05.01.05.01.05.01.04.02.05.01.05.02.04.02.05.03.04.02.04.02.04.03.04.03.04.03.04.03.03.04.04.03.03.04.03.03.03.04.03.04.03.04.03.04.02.05.03.04.02.05.02.04.02.05.01.05.02.05.01.05.01.05.01.05.01.05v.05l.01.05V377.74l-.01.05v.05l-.01.06-.01.05-.01.05-.01.05-.02.04-.01.05-.02.05-.02.05-.02.04-.03.04-.02.05-.03.04-.03.04-.03.04-.03.04-.03.04-.03.03-.04.04-.03.03-.04.03-.04.03-.04.03-.04.03-.04.02-.04.03-.05.02-.04.02-.05.02-.05.02-.04.01-.05.01-.05.02h-.05l-.05.01-.05.01H174.45V405.02l-.01.05-.01.06v.05l-.02.05-.01.05-.01.05-.02.04-.02.05-.02.05-.02.04-.02.05-.03.04-.02.04-.03.04-.03.04-.03.04-.04.04-.03.03-.03.04-.04.03-.04.03-.04.03-.04.03-.04.03-.04.02-.04.03-.04.02-.05.02-.05.02-.04.02-.05.01-.05.02-.05.01-.05.01h-.05l-.05.01H152.91l-.05-.01h-.05l-.05-.01-.05-.01-.05-.02-.05-.01-.05-.02-.04-.02-.05-.02-.04-.02-.04-.03-.04-.02-.05-.03-.04-.03-.03-.03-.04-.03-.04-.03-.03-.04-.04-.03-.03-.04-.03-.04-.03-.04-.03-.04-.02-.04-.03-.04-.02-.05-.02-.04-.02-.05-.02-.05-.02-.04-.01-.05-.02-.05-.01-.05-.01-.05v-.06l-.01-.05V378.98H126.42l-.05-.01-.05-.01h-.05l-.05-.02-.05-.01-.05-.01-.04-.02-.05-.02-.04-.02-.05-.02-.04-.03-.04-.02-.04-.03-.04-.03-.04-.03-.04-.03-.03-.03-.04-.04-.03-.03-.03-.04-.04-.04-.02-.04-.03-.04-.03-.04-.02-.05-.03-.04-.02-.04-.02-.05-.02-.05-.01-.05-.02-.04-.01-.05-.01-.05-.01-.05-.01-.06v-.05l-.01-.05V356.88l.01-.05v-.05l.01-.05.01-.05.01-.05.01-.05.02-.05.01-.05.02-.05.02-.04.02-.05.03-.04.02-.05.03-.04.03-.04.02-.04.04-.04.03-.03.03-.04.04-.03.03-.04.04-.03.04-.03.04-.03.04-.03.04-.02.04-.02.05-.03.04-.02.05-.02.04-.01.05-.02.05-.01.05-.01.05-.01.05-.01.05-.01H151.75V329.6l.01-.05v-.05l.01-.06.01-.05.02-.04.01-.05.02-.05.02-.05.02-.04.02-.05.02-.04.03-.05.02-.04.03-.04.03-.04.03-.04.03-.03.04-.04.03-.04.04-.03.04-.03.03-.03.04-.03.05-.03.04-.02.04-.03.04-.02.05-.02.04-.02.05-.01.05-.02.05-.01.05-.01.05-.01.05-.01.05-.01H173.29z" id="a"/><path d="M254.97 176.3H135.98c-49.95 68.04-81.17 110.56-93.66 127.57-1.02 1.39-.02 3.36 1.71 3.36h210.94v-88.79-13.01-97.42H592.2" id="b"/><path d="M99.01 490.02l-78.5.53V462.1h24.97" id="c"/><path d="M228.94 489.02c0 34.77-28.23 63-63 63-34.77 0-63-28.23-63-63 0-34.78 28.23-63 63-63 34.77 0 63 28.22 63 63z" id="d"/><path d="M41.91 303.41V461.1" id="f"/><path d="M418.67 484.72l-184.76.02" id="g"/><path d="M586.81 453.01l2.07-345" id="h"/><path d="M619.51 486.49h-65.84" id="i"/><path d="M248.4 342.45h-32.91" id="j"/><path d="M619.51 453.01h-36.28" id="k"/><path d="M616.08 488.49l.11-36" id="l"/><path d="M429.73 177.8l3.35.34 3.3.48 3.26.61 3.22.74 3.16.86 3.12.99 3.06 1.11 3 1.22 2.94 1.34 2.89 1.45 2.82 1.56 2.75 1.66 2.68 1.77 2.61 1.87 2.54 1.97 2.45 2.07 2.38 2.15 2.29 2.25 2.21 2.34 2.12 2.41 2.02 2.5 1.94 2.59 1.83 2.65 1.74 2.73 1.64 2.81 1.53 2.87 1.42 2.93 1.32 3 1.2 3.06 1.08 3.12.97 3.17.85 3.22.73 3.27.6 3.32.47 3.37.34 3.4.2 3.45.07 3.47-.07 3.48-.2 3.45-.34 3.4-.47 3.37-.6 3.32-.73 3.27-.85 3.22-.96 3.18-1.09 3.11-1.2 3.06-1.32 3-1.42 2.94-1.53 2.87-1.64 2.8-1.74 2.73-1.83 2.66-1.94 2.58-2.02 2.5-2.12 2.42-2.21 2.33-2.29 2.25-2.38 2.16-2.45 2.06-2.54 1.97-2.61 1.87-2.68 1.77-2.75 1.66-2.82 1.56-2.88 1.45-2.95 1.34-3 1.22-3.06 1.11-3.12.99-3.16.86-3.22.74-3.26.61-3.3.48-3.35.34-3.38.21-3.41.07-3.42-.07-3.38-.21-3.34-.34-3.31-.48-3.26-.61-3.21-.74-3.17-.86-3.12-.99-3.06-1.11-3-1.22-2.94-1.34-2.89-1.45-2.82-1.56-2.75-1.66-2.68-1.77-2.61-1.87-2.54-1.97-2.45-2.06-2.38-2.16-2.29-2.25-2.21-2.33-2.11-2.42-2.03-2.5-1.93-2.58-1.84-2.66-1.74-2.73-1.63-2.8-1.53-2.87-1.43-2.94-1.31-3-1.2-3.06-1.09-3.11-.97-3.18-.85-3.22-.72-3.27-.6-3.32-.47-3.37-.34-3.4-.21-3.45-.07-3.48.07-3.47.21-3.45.34-3.4.47-3.37.6-3.32.72-3.27.85-3.22.97-3.17 1.09-3.12 1.2-3.06 1.31-3 1.43-2.93 1.53-2.87 1.63-2.81 1.74-2.73 1.84-2.65 1.93-2.59 2.03-2.5 2.11-2.41 2.21-2.34 2.29-2.25 2.38-2.15 2.45-2.07 2.54-1.97 2.61-1.87 2.68-1.77 2.75-1.66 2.82-1.56 2.89-1.45 2.94-1.34 3-1.22 3.06-1.11 3.12-.99 3.17-.86 3.21-.74 3.26-.61 3.31-.48 3.34-.34 3.38-.21 3.42-.07 3.41.07 3.38.21zm-27.89 159.02l.51.14.52.15.52.14.52.14.52.13.53.13.52.13.53.12.53.12.52.12.54.11.53.11.53.11.53.1.54.09.54.1.53.09.54.08.54.08.55.08.54.08.54.07.55.06.55.07.54.06.55.05.55.05.55.05.56.04.55.04.55.03.56.04.56.02.55.02.56.02.56.02.56.01h.57l.56.01.67-.01h.66l.66-.02.67-.02.66-.03.66-.03.66-.03.66-.05.65-.05.65-.05.66-.06.65-.07.65-.07.65-.08.64-.08.65-.09.64-.09.64-.1.64-.1.64-.11.63-.12.64-.12.63-.12.63-.13.63-.14.63-.14.62-.15.62-.15.62-.15.62-.17.62-.16.61-.18.61-.17.61-.18.61-.19.61-.2.6-.19.6-.2.6-.21.6-.21-.02-.03-.01-.02-.02-.03-.01-.02-.02-.03-.01-.02-.01-.03-.02-.02-.01-.03-.02-.02-.01-.03-.02-.03-.01-.02-.03-.05-.01-.03-.03-.05-.01-.03-.02-.02-.02-.06-.02-.02-.04-.08-.01-.03-.03-.05-.01-.03-.01-.03-.01-.03-.02-.02-.01-.03-.01-.03-.01-.03-.02-.03-.02-.06-.01-.02-23.52-65.6-22.96 67.91.52.16zm-49.4-105.14l-.31.74-.29.74-.28.74-.28.75-.27.75-.27.75-.26.76-.25.76-.24.77-.23.77-.23.77-.22.77-.21.78-.2.78-.2.79-.19.79-.18.79-.17.79-.17.8-.16.8-.15.8-.14.81-.13.8-.12.82-.12.81-.11.82-.1.82-.09.82-.08.82-.08.83-.06.83-.06.83-.05.84-.04.83-.03.84-.02.84-.01.85-.01.84.03 2.31.1 2.29.16 2.27.23 2.25.29 2.23.35 2.21.41 2.19.47 2.17.52 2.15.59 2.12.64 2.1.7 2.07.76 2.04.8 2.02.87 1.99.91 1.96.97 1.93 1.01 1.89 1.07 1.87 1.11 1.83 1.16 1.8 1.21 1.76 1.26 1.73 1.3 1.68 1.34 1.66 1.39 1.61 1.43 1.57 1.47 1.53 1.52 1.49 1.55 1.45 1.59 1.41 1.63 1.36 1.66 1.31 1.71 1.27 1.73 1.22 1.77 1.17 1.81 1.13 1.84 1.08 1.86 1.02 1.9.97-36.49-101.81-.32.73-.3.73zm137.67-6.76l.03.19.02.19.04.38.03.19.06.58.02.19.02.19.01.2.02.19.02.2.02.2.01.19.02.2.01.2.01.2.03.4.03.61.01.21.02.41.01.2.01.42.01.21v.21l.01.21v.21l.01.21v1.26l-.01.41-.02.44-.03.45-.03.46-.04.48-.05.49-.05.51-.06.52-.07.54-.08.55-.08.57-.09.59-.1.6-.11.61-.11.63-.12.65-.13.65-.13.68-.15.69-.14.7-.16.72-.16.74-.18.75-.17.77-.19.78-.19.79-.2.81-.21.83-.22.84-.22.86-.23.87-.23.88-.25.91-.25.91-.26.93-.26.95-.28.96-.28.98-.28.99-23.37 68.79 1.69-1.03 1.67-1.08 1.63-1.12 1.6-1.16 1.57-1.2 1.55-1.23 1.5-1.28 1.48-1.32 1.44-1.36 1.41-1.39 1.37-1.43 1.33-1.46 1.3-1.49 1.26-1.54 1.23-1.56 1.18-1.6 1.15-1.63 1.1-1.65 1.06-1.69 1.02-1.72.98-1.75.94-1.77.89-1.81.84-1.83.8-1.85.76-1.88.71-1.9.65-1.93.62-1.94.56-1.97.51-2 .46-2.01.41-2.03.35-2.05.31-2.07.25-2.09.2-2.1.14-2.12.08-2.13.03-2.15-.01-1.02-.01-1.01-.04-1.01-.04-1-.06-1.01-.07-.99-.08-1-.09-.99-.11-.98-.11-.99-.13-.98-.14-.98-.16-.96-.16-.97-.18-.97-.19-.96-.2-.95-.21-.95-.22-.95-.23-.94-.25-.94-.26-.93-.26-.93-.28-.92-.29-.92-.3-.91-.31-.91-.32-.9-.33-.9-.35-.89-.35-.89-.36-.88-.37-.88-.39-.87-.39-.86-.4-.86-.42-.86-.42-.84-.44-.85-.44-.83.03.18.02.19zm-71.16-40.79l-1.97.12-1.96.18-1.94.23-1.93.28-1.91.33-1.9.37-1.88.43-1.86.47-1.84.51-1.83.56-1.8.6-1.79.65-1.76.7-1.74.73-1.72.78-1.7.82-1.68.86-1.65.9-1.63.94-1.6.98-1.58 1.02-1.55 1.05-1.52 1.09-1.49 1.13-1.47 1.17-1.44 1.2-1.41 1.23-1.38 1.27-1.35 1.3-1.31 1.34-1.29 1.36-1.25 1.4-1.22 1.43-1.19 1.46-1.15 1.48-1.12 1.52-1.08 1.55-1.04 1.57h.13l.14.01h.26l.27.01.13.01h.26l.13.01h.26l.13.01h.38l.38.01.37.01h.24l.12.01h.71l.12.01H364.54l.63-.01h.64l.64-.02.66-.01.67-.02.67-.02.68-.02.69-.03 1.37-.05.68-.04.69-.03.67-.03.68-.04.66-.03.66-.04.65-.03.63-.04.63-.04.6-.03.59-.04.58-.04.55-.04.53-.03.51-.03.48-.04.46-.03.43-.03.4-.03.37-.03.34-.02.3-.03.27-.02.23-.01.2-.02.15-.01.11-.01h.07l.02-.01h.3l.29.02.28.03.26.06.24.08.24.1.21.12.21.13.19.14.17.16.16.17.15.19.13.19.12.2.1.21.09.22.07.23.06.23.04.23.02.23.02.24-.01.24-.02.23-.03.24-.06.23-.07.22-.08.22-.1.22-.11.2-.14.2-.15.19-.16.18-.18.16-.2.15-.22.14-.23.12-.25.11-.26.08-.29.07-.3.05h-.03l-.04.01h-.05l-.07.01-.08.01-.09.01-.11.01-.12.01-.13.02-.14.01-.16.02-.17.02-.17.02-.2.02-.19.02-.21.02-.22.02-.23.02-.24.02-.24.03-.26.02-.26.03-.27.02-.28.03-.29.02-.29.03-.29.02-.31.03-.31.02-.31.02-.32.03-.32.02-.33.02-.33.03-.34.02-.33.02-.34.02-.35.02-.34.02 27.86 84.38 16.74-51.12-11.91-33.26-.31-.02-.61-.04-.3-.02-.31-.02-.59-.05-.3-.02-.29-.03-.28-.02-.28-.02-.28-.03-.27-.02-.27-.03-.26-.02-.26-.03-.25-.02-.24-.03-.23-.02-.23-.03-.22-.02-.21-.02-.21-.02-.19-.02-.19-.02-.17-.02-.17-.02-.16-.02-.14-.02-.14-.01-.12-.02-.11-.01-.1-.01-.09-.01-.08-.01-.06-.01h-.05l-.03-.01h-.03l-.3-.03-.29-.05-.26-.07-.25-.1-.23-.1-.22-.13-.19-.15-.19-.15-.16-.17-.15-.19-.13-.19-.12-.21-.1-.21-.08-.22-.07-.23-.05-.23-.04-.24-.02-.24-.01-.24.01-.24.03-.24.04-.24.06-.23.07-.23.09-.23.1-.22.11-.21.14-.2.14-.19.16-.17.18-.17.19-.15.2-.14.22-.11.23-.11.25-.08.26-.06.28-.04.29-.02h.3l.02.01h.07l.11.01.16.01.2.02.23.01.27.02.31.03.72.05.4.03.44.03.46.03.49.04.51.03.53.03.56.04.57.04.6.04.6.03.62.04.64.04.64.03.65.04.67.03.66.04.67.03 1.35.07 1.35.05.66.03.66.02.66.02.64.02.63.01.62.02h.61l.59.01h1.18l.62-.01h.64l.65-.02.66-.01.66-.02.68-.02.68-.02.68-.03 1.37-.05.69-.04.68-.03.68-.03.67-.04.67-.03.65-.04.65-.03.64-.04.62-.04.61-.03.59-.04.57-.04.55-.04.54-.03.5-.03.49-.04.46-.03.43-.03.4-.03.37-.03.34-.02.3-.03.27-.02.23-.01.19-.02.16-.01.11-.01h.07l.02-.01h.3l.29.02.27.03.26.06.25.08.23.1.22.12.2.13.19.14.18.16.16.17.15.19.12.19.12.2.1.21.09.22.07.23.06.23.04.23.03.23.01.24-.01.24-.02.23-.03.24-.06.23-.07.22-.08.22-.1.22-.12.2-.13.2-.15.19-.16.18-.19.16-.19.15-.22.14-.23.12-.25.11-.27.08-.28.07-.3.05h-.03l-.04.01h-.05l-.07.01-.08.01-.09.01-.11.01-.12.01-.13.02-.14.01-.16.02-.17.02-.18.02-.18.02-.2.02-.21.02-.22.02-.23.02-.24.02-.24.03-.26.02-.26.03-.27.02-.28.03-.28.02-.29.03-.3.02-.3.03-.31.02-.31.02-.32.03-.32.02-.33.02-.33.03-.34.02-.34.02-.34.02-.34.02-.34.02 27.64 83.73 7.64-25.95.29-.76.28-.75.27-.74.26-.74.26-.73.25-.72.25-.72.23-.71.23-.7.22-.7.22-.69.21-.69.2-.67.19-.68.18-.66.18-.66.17-.65.17-.65.15-.64.15-.63.15-.63.13-.62.13-.61.12-.61.11-.6.11-.59.1-.59.09-.58.08-.57.08-.57.07-.56.06-.56.05-.55.05-.54.04-.54.03-.53.03-.52.02-.51.01-.51v-1.23l-.02-.7-.03-.7-.05-.68-.05-.67-.06-.67-.08-.65-.09-.64-.09-.63-.11-.63-.11-.61-.12-.61-.13-.59-.14-.59-.15-.57-.15-.57-.16-.55-.17-.55-.18-.55-.18-.53-.18-.52-.19-.52-.19-.5-.2-.5-.21-.5-.2-.48-.21-.48-.21-.47-.22-.46-.22-.45-.22-.45-.22-.44-.22-.44-.22-.43-.22-.42-.23-.41-.22-.41-.22-.4-.22-.4-.22-.39-.29-.48-.29-.48-.29-.47-.28-.47-.28-.47-.28-.46-.28-.46-.28-.46-.27-.46-.27-.45-.26-.45-.26-.45-.25-.45-.25-.45-.25-.45-.24-.44-.23-.45-.23-.44-.21-.45-.22-.44-.2-.45-.2-.44-.19-.45-.18-.44-.17-.45-.17-.45-.15-.45-.15-.45-.13-.45-.13-.45-.12-.45-.1-.46-.09-.46-.08-.46-.07-.47-.06-.47-.05-.47-.03-.47-.02-.47-.01-.48.01-.54.03-.53.05-.53.07-.53.09-.52.1-.52.12-.51.15-.51.15-.5.18-.49.19-.49.21-.48.23-.46.24-.46.26-.45.28-.44.29-.43.3-.41.32-.41.33-.39.35-.37.36-.37.38-.35.39-.33.4-.32.41-.3.43-.28.44-.27.45-.25.46-.23.47-.21.48-.19.5-.17.5-.15.52-.13.52-.11.54-.08.54-.06.55-.04.56-.01H473.88l.05.01h.13l.14.02h.03l.14.01h.03l.2.02-1.03-.94-1.05-.93-1.06-.9-1.08-.89-1.09-.86-1.11-.85-1.13-.83-1.14-.8-1.15-.79-1.18-.76-1.18-.75-1.2-.72-1.21-.7-1.23-.68-1.24-.65-1.25-.64-1.26-.61-1.28-.59-1.29-.56-1.31-.54-1.31-.52-1.33-.49-1.33-.47-1.35-.45-1.36-.41-1.37-.4-1.38-.37-1.39-.34-1.4-.32-1.41-.29-1.42-.26-1.43-.24-1.43-.21-1.45-.19-1.45-.15-1.46-.13-1.47-.1-1.48-.07-1.48-.04-1.49-.02-2 .03-1.99.08z" id="m"/><path d="M200.94 490.05c0 19.31-15.69 35-35 35-19.32 0-35-15.69-35-35 0-19.32 15.68-35 35-35 19.31 0 35 15.68 35 35z" id="n"/><path d="M548.94 490.02c0 34.77-28.23 63-63 63-34.77 0-63-28.23-63-63 0-34.78 28.23-63 63-63 34.77 0 63 28.22 63 63z" id="o"/><path d="M520.94 490.55c0 19.31-15.69 35-35 35-19.32 0-35-15.69-35-35 0-19.32 15.68-35 35-35 19.31 0 35 15.68 35 35z" id="p"/><path d="M491.1 457.05l.06.01.06.01.06.02.06.02.06.02.06.02.05.03.05.03.05.03.05.04.05.04.04.04.05.04.04.05.05.05.04.05.04.05.04.06.03.06.04.06.04.06.03.06.04.07.03.07.03.07.03.07.04.07.03.08.03.07.03.08.03.08.03.08.03.08.02.08.03.08.03.09.03.08.03.09 1.45 5.43.45.15 1.01.35.98.4.97.43.95.47.07.04 4.89-2.83.08-.04.08-.04.08-.04.08-.04.08-.04.07-.03.08-.04.08-.03.07-.04.08-.03.07-.03.08-.03.07-.03.07-.02.07-.03.07-.02.07-.02.07-.02.07-.01.07-.02.07-.01.06-.01.07-.01h.25l.06.01.06.01.06.01.06.01.06.02.05.02.06.03.05.03.06.03.05.04.05.03.05.05.05.04 7.11 7.11.05.05.04.05.04.05.04.06.03.05.03.06.03.05.02.06.02.06.02.06.01.06.01.06.01.07.01.06v.13l-.01.07v.07l-.01.06-.01.07-.01.07-.02.07-.01.07-.02.07-.03.07-.02.07-.03.08-.02.07-.03.07-.03.08-.04.07-.03.08-.04.07-.04.07-.04.08-.04.07-.04.08-.05.08-.04.07-.05.08-2.82 4.87.06.11.47.94.43.97.39.99.36 1 .14.46 5.43 1.45.09.02.09.02.08.02.08.02.09.03.08.02.08.03.08.02.07.03.08.03.07.03.08.03.07.03.07.04.06.03.07.04.06.03.07.04.06.04.05.04.06.04.05.04.05.04.05.05.05.05.04.04.04.05.04.05.04.05.03.06.03.05.03.06.03.06.02.05.01.06.02.07.01.06.01.07.01.06V495.64l-.01.07-.01.06-.01.06-.02.06-.01.06-.02.06-.03.05-.03.06-.03.05-.03.05-.04.05-.04.05-.04.04-.04.05-.05.04-.05.04-.05.05-.05.04-.06.03-.05.04-.06.04-.07.04-.06.03-.07.04-.06.03-.07.03-.07.03-.08.04-.07.03-.08.03-.07.03-.08.03-.08.03-.08.02-.09.03-.08.03-.08.03-.09.03-.09.03-5.43 1.44-.14.46-.36 1-.39.99-.43.97-.47.94-.05.1 2.81 4.87.05.07.04.08.05.07.04.08.04.07.04.08.04.07.04.08.03.07.04.08.03.07.03.07.02.07.03.08.02.07.03.07.02.07.01.07.02.07.01.07.01.07.01.07v.06l.01.07v.13l-.01.06-.01.07-.01.06-.01.06-.02.06-.02.06-.02.06-.03.05-.03.06-.03.05-.04.06-.04.05-.04.05-.05.05-7.11 7.11-.05.04-.05.05-.05.04-.05.03-.06.04-.05.02-.06.03-.05.02-.06.02-.06.01-.06.02-.06.01h-.06l-.06.01h-.06l-.07-.01h-.06l-.07-.01-.06-.01-.07-.01-.07-.01-.07-.02-.07-.02-.07-.02-.07-.02-.07-.02-.07-.03-.07-.03-.08-.03-.07-.03-.08-.03-.07-.03-.08-.04-.08-.03-.07-.04-.08-.04-.08-.04-.08-.04-.08-.04-.08-.04-4.87-2.82-.09.06-.95.46-.97.44-.98.39-1.01.36-.45.14-1.45 5.43-.03.09-.03.08-.03.09-.03.08-.02.08-.03.09-.03.08-.03.07-.03.08-.03.08-.03.07-.04.07-.03.08-.03.06-.03.07-.04.07-.03.06-.04.06-.04.06-.03.06-.04.06-.04.05-.04.05-.05.05-.04.05-.05.04-.04.04-.05.04-.05.04-.05.03-.05.03-.05.03-.06.02-.06.03-.06.01-.06.02-.06.01-.06.01h-.07l-.07.01h-10.05l-.07-.01h-.06l-.07-.01-.06-.01-.06-.02-.06-.01-.06-.03-.06-.02-.06-.03-.05-.03-.05-.03-.06-.04-.05-.04-.05-.04-.04-.04-.05-.05-.04-.05-.05-.05-.04-.05-.04-.06-.04-.06-.04-.06-.04-.06-.03-.06-.04-.07-.03-.07-.04-.06-.03-.08-.03-.07-.03-.07-.03-.08-.02-.08-.03-.07-.03-.08-.02-.09-.03-.08-.02-.08-.02-.09-.02-.08-.02-.09-1.45-5.43-.46-.14-1-.36-.99-.39-.96-.44-.95-.46-.12-.07-4.84 2.81-.08.05-.07.04-.08.05-.07.04-.08.04-.07.04-.08.04-.07.04-.08.03-.07.03-.08.04-.07.03-.07.02-.07.03-.08.02-.07.02-.07.02-.07.02-.07.02-.07.01-.07.01-.06.01h-.07l-.07.01h-.06l-.07-.01h-.06l-.06-.01-.07-.01-.06-.01-.06-.02-.06-.02-.05-.03-.06-.02-.06-.03-.05-.04-.05-.03-.06-.04-.05-.05-.05-.04-7.1-7.11-.05-.05-.04-.05-.04-.05-.04-.05-.03-.06-.03-.05-.03-.06-.02-.05-.02-.06-.01-.06-.01-.06-.01-.06-.01-.06v-.25l.01-.07.01-.06.01-.07.02-.07.01-.07.02-.07.02-.07.02-.07.03-.07.02-.07.03-.07.03-.08.03-.07.03-.08.04-.07.03-.08.04-.08.03-.08.04-.07.04-.08.04-.08.04-.08.04-.08 2.81-4.86-.04-.09-.47-.94-.43-.97-.4-.99-.35-1-.14-.46-5.44-1.44-.09-.03-.08-.03-.08-.03-.09-.03-.08-.03-.08-.02-.08-.03-.08-.03-.08-.03-.07-.03-.08-.03-.07-.04-.07-.03-.07-.03-.07-.03-.07-.04-.06-.03-.06-.04-.06-.04-.06-.04-.05-.03-.06-.04-.05-.05-.05-.04-.04-.04-.05-.05-.04-.04-.04-.05-.03-.05-.04-.05-.03-.05-.03-.06-.02-.05-.02-.06-.02-.06-.02-.06-.01-.06-.01-.06V485.39l.01-.07.01-.06.02-.07.02-.06.02-.05.02-.06.03-.06.03-.05.04-.06.03-.05.04-.05.04-.05.05-.04.04-.05.05-.05.05-.04.06-.04.05-.04.06-.04.06-.04.06-.04.06-.03.07-.04.07-.03.07-.04.07-.03.07-.03.08-.03.07-.03.08-.03.08-.02.08-.03.08-.02.08-.03.09-.02.08-.02.08-.02.09-.02 5.44-1.45.14-.46.35-1 .4-.99.43-.97.47-.94.05-.1-2.82-4.86-.04-.08-.04-.08-.04-.08-.04-.08-.04-.08-.03-.08-.04-.08-.03-.07-.04-.08-.03-.07-.03-.08-.03-.07-.03-.08-.02-.07-.03-.07-.02-.07-.02-.07-.02-.07-.01-.07-.02-.07-.01-.06-.01-.07-.01-.07v-.25l.01-.06.01-.06.01-.06.01-.06.02-.05.02-.06.03-.06.03-.05.03-.05.04-.06.04-.05.04-.05.05-.05 7.1-7.11.05-.04.05-.05.06-.04.05-.03.05-.04.06-.03.06-.02.05-.03.06-.02.06-.01.06-.02.07-.01.06-.01h.33l.06.01.07.01.07.02.07.01.07.02.07.02.07.02.08.02.07.03.07.03.07.03.08.03.07.03.08.04.07.03.08.04.07.04.08.04.07.05.08.04.07.04.08.05 4.86 2.82.1-.05.95-.47.96-.43.99-.4 1-.35.46-.15 1.45-5.43.02-.09.02-.08.02-.09.02-.08.03-.08.02-.08.03-.08.03-.08.02-.08.03-.07.03-.08.03-.07.03-.07.04-.07.03-.07.04-.07.03-.06.04-.06.04-.06.04-.06.04-.06.04-.05.05-.05.04-.05.05-.05.04-.04.05-.04.05-.04.06-.04.05-.03.05-.03.06-.03.06-.02.06-.02.06-.02.06-.02.06-.01.07-.01H491.1zm-6.36 18.89l-.6.06-.58.08-.58.11-.56.13-.56.15-.56.17-.54.19-.53.21-.52.23-.51.26-.5.27-.48.29-.48.3-.46.33-.45.34-.43.36-.42.37-.41.39-.39.41-.37.42-.36.43-.34.45-.33.46-.3.48-.29.48-.27.5-.25.51-.24.52-.21.53-.19.54-.17.55-.15.56-.13.57-.11.58-.08.58-.06.59-.04.6-.01.61.01.6.04.6.06.59.08.58.11.58.13.57.15.56.17.55.19.54.21.53.24.52.25.51.27.5.29.49.3.47.33.46.34.45.36.43.37.42.39.41.41.39.42.37.43.36.45.34.46.33.48.31.48.29.5.27.51.25.52.23.53.21.54.2.56.17.56.15.56.12.58.11.58.08.6.06.59.04.61.01.6-.01.6-.04.59-.06.58-.08.58-.11.57-.12.56-.15.55-.17.54-.2.53-.21.52-.23.51-.25.5-.27.49-.29.47-.31.46-.33.45-.34.44-.36.42-.37.4-.39.39-.41.38-.42.35-.43.35-.45.32-.46.31-.47.29-.49.27-.5.25-.51.23-.52.21-.53.2-.54.17-.55.15-.56.13-.57.1-.58.09-.58.06-.59.03-.6.01-.6-.01-.61-.03-.6-.06-.59-.09-.58-.1-.58-.13-.57-.15-.56-.17-.55-.2-.54-.21-.53-.23-.52-.25-.51-.27-.5-.29-.48-.31-.48-.32-.46-.35-.45-.35-.43-.38-.42-.39-.41-.4-.39-.42-.37-.44-.36-.45-.34-.46-.33-.47-.3-.49-.29-.5-.27-.51-.26-.52-.23-.53-.21-.54-.19-.55-.17-.56-.15-.57-.13-.58-.11-.58-.08-.59-.06-.6-.04-.6-.01-.61.01-.59.04z" id="q"/><path d="M171.1 456.05l.06.01.06.01.06.02.06.02.06.02.06.02.05.03.05.03.05.03.05.04.05.04.04.04.05.04.04.05.05.05.04.05.04.05.04.06.03.06.04.06.04.06.03.06.04.07.03.07.03.07.03.07.04.07.03.08.03.07.03.08.03.08.03.08.03.08.02.08.03.08.03.09.03.08.03.09 1.45 5.43.45.15 1.01.35.98.4.97.43.95.47.07.04 4.89-2.83.08-.04.08-.04.08-.04.08-.04.08-.04.07-.03.08-.04.08-.03.07-.04.08-.03.07-.03.08-.03.07-.03.07-.02.07-.03.07-.02.07-.02.07-.02.07-.01.07-.02.07-.01.06-.01.07-.01h.25l.06.01.06.01.06.01.06.01.06.02.05.02.06.03.05.03.06.03.05.04.05.03.05.05.05.04 7.11 7.11.05.05.04.05.04.05.04.06.03.05.03.06.03.05.02.06.02.06.02.06.01.06.01.06.01.07.01.06v.13l-.01.07v.07l-.01.06-.01.07-.01.07-.02.07-.01.07-.02.07-.03.07-.02.07-.03.08-.02.07-.03.07-.03.08-.04.07-.03.08-.04.07-.04.07-.04.08-.04.07-.04.08-.05.08-.04.07-.05.08-2.82 4.87.06.11.47.94.43.97.39.99.36 1 .14.46 5.43 1.45.09.02.09.02.08.02.08.02.09.03.08.02.08.03.08.02.07.03.08.03.07.03.08.03.07.03.07.04.06.03.07.04.06.03.07.04.06.04.05.04.06.04.05.04.05.04.05.05.05.05.04.04.04.05.04.05.04.05.03.06.03.05.03.06.03.06.02.05.01.06.02.07.01.06.01.07.01.06V494.64l-.01.07-.01.06-.01.06-.02.06-.01.06-.02.06-.03.05-.03.06-.03.05-.03.05-.04.05-.04.05-.04.04-.04.05-.05.04-.05.04-.05.05-.05.04-.06.03-.05.04-.06.04-.07.04-.06.03-.07.04-.06.03-.07.03-.07.03-.08.04-.07.03-.08.03-.07.03-.08.03-.08.03-.08.02-.09.03-.08.03-.08.03-.09.03-.09.03-5.43 1.44-.14.46-.36 1-.39.99-.43.97-.47.94-.05.1 2.81 4.87.05.07.04.08.05.07.04.08.04.07.04.08.04.07.04.08.03.07.04.08.03.07.03.07.02.07.03.08.02.07.03.07.02.07.01.07.02.07.01.07.01.07.01.07v.06l.01.07v.13l-.01.06-.01.07-.01.06-.01.06-.02.06-.02.06-.02.06-.03.05-.03.06-.03.05-.04.06-.04.05-.04.05-.05.05-7.11 7.11-.05.04-.05.05-.05.04-.05.03-.06.04-.05.02-.06.03-.05.02-.06.02-.06.01-.06.02-.06.01h-.06l-.06.01h-.06l-.07-.01h-.06l-.07-.01-.06-.01-.07-.01-.07-.01-.07-.02-.07-.02-.07-.02-.07-.02-.07-.02-.07-.03-.07-.03-.08-.03-.07-.03-.08-.03-.07-.03-.08-.04-.08-.03-.07-.04-.08-.04-.08-.04-.08-.04-.08-.04-.08-.04-4.87-2.82-.09.06-.95.46-.97.44-.98.39-1.01.36-.45.14-1.45 5.43-.03.09-.03.08-.03.09-.03.08-.02.08-.03.09-.03.08-.03.07-.03.08-.03.08-.03.07-.04.07-.03.08-.03.06-.03.07-.04.07-.03.06-.04.06-.04.06-.03.06-.04.06-.04.05-.04.05-.05.05-.04.05-.05.04-.04.04-.05.04-.05.04-.05.03-.05.03-.05.03-.06.02-.06.03-.06.01-.06.02-.06.01-.06.01h-.07l-.07.01h-10.05l-.07-.01h-.06l-.07-.01-.06-.01-.06-.02-.06-.01-.06-.03-.06-.02-.06-.03-.05-.03-.05-.03-.06-.04-.05-.04-.05-.04-.04-.04-.05-.05-.04-.05-.05-.05-.04-.05-.04-.06-.04-.06-.04-.06-.04-.06-.03-.06-.04-.07-.03-.07-.04-.06-.03-.08-.03-.07-.03-.07-.03-.08-.02-.08-.03-.07-.03-.08-.02-.09-.03-.08-.02-.08-.02-.09-.02-.08-.02-.09-1.45-5.43-.46-.14-1-.36-.99-.39-.96-.44-.95-.46-.12-.07-4.84 2.81-.08.05-.07.04-.08.05-.07.04-.08.04-.07.04-.08.04-.07.04-.08.03-.07.03-.08.04-.07.03-.07.02-.07.03-.08.02-.07.02-.07.02-.07.02-.07.02-.07.01-.07.01-.06.01h-.07l-.07.01h-.06l-.07-.01h-.06l-.06-.01-.07-.01-.06-.01-.06-.02-.06-.02-.05-.03-.06-.02-.06-.03-.05-.04-.05-.03-.06-.04-.05-.05-.05-.04-7.1-7.11-.05-.05-.04-.05-.04-.05-.04-.05-.03-.06-.03-.05-.03-.06-.02-.05-.02-.06-.01-.06-.01-.06-.01-.06-.01-.06v-.25l.01-.07.01-.06.01-.07.02-.07.01-.07.02-.07.02-.07.02-.07.03-.07.02-.07.03-.07.03-.08.03-.07.03-.08.04-.07.03-.08.04-.08.03-.08.04-.07.04-.08.04-.08.04-.08.04-.08 2.81-4.86-.04-.09-.47-.94-.43-.97-.4-.99-.35-1-.14-.46-5.44-1.44-.09-.03-.08-.03-.08-.03-.09-.03-.08-.03-.08-.02-.08-.03-.08-.03-.08-.03-.07-.03-.08-.03-.07-.04-.07-.03-.07-.03-.07-.03-.07-.04-.06-.03-.06-.04-.06-.04-.06-.04-.05-.03-.06-.04-.05-.05-.05-.04-.04-.04-.05-.05-.04-.04-.04-.05-.03-.05-.04-.05-.03-.05-.03-.06-.02-.05-.02-.06-.02-.06-.02-.06-.01-.06-.01-.06V484.39l.01-.07.01-.06.02-.07.02-.06.02-.05.02-.06.03-.06.03-.05.04-.06.03-.05.04-.05.04-.05.05-.04.04-.05.05-.05.05-.04.06-.04.05-.04.06-.04.06-.04.06-.04.06-.03.07-.04.07-.03.07-.04.07-.03.07-.03.08-.03.07-.03.08-.03.08-.02.08-.03.08-.02.08-.03.09-.02.08-.02.08-.02.09-.02 5.44-1.45.14-.46.35-1 .4-.99.43-.97.47-.94.05-.1-2.82-4.86-.04-.08-.04-.08-.04-.08-.04-.08-.04-.08-.03-.08-.04-.08-.03-.07-.04-.08-.03-.07-.03-.08-.03-.07-.03-.08-.02-.07-.03-.07-.02-.07-.02-.07-.02-.07-.01-.07-.02-.07-.01-.06-.01-.07-.01-.07v-.25l.01-.06.01-.06.01-.06.01-.06.02-.05.02-.06.03-.06.03-.05.03-.05.04-.06.04-.05.04-.05.05-.05 7.1-7.11.05-.04.05-.05.06-.04.05-.03.05-.04.06-.03.06-.02.05-.03.06-.02.06-.01.06-.02.07-.01.06-.01h.33l.06.01.07.01.07.02.07.01.07.02.07.02.07.02.08.02.07.03.07.03.07.03.08.03.07.03.08.04.07.03.08.04.07.04.08.04.07.05.08.04.07.04.08.05 4.86 2.82.1-.05.95-.47.96-.43.99-.4 1-.35.46-.15 1.45-5.43.02-.09.02-.08.02-.09.02-.08.03-.08.02-.08.03-.08.03-.08.02-.08.03-.07.03-.08.03-.07.03-.07.04-.07.03-.07.04-.07.03-.06.04-.06.04-.06.04-.06.04-.06.04-.05.05-.05.04-.05.05-.05.04-.04.05-.04.05-.04.06-.04.05-.03.05-.03.06-.03.06-.02.06-.02.06-.02.06-.02.06-.01.07-.01H171.1zm-6.36 18.89l-.6.06-.58.08-.58.11-.56.13-.56.15-.56.17-.54.19-.53.21-.52.23-.51.26-.5.27-.48.29-.48.3-.46.33-.45.34-.43.36-.42.37-.41.39-.39.41-.37.42-.36.43-.34.45-.33.46-.3.48-.29.48-.27.5-.25.51-.24.52-.21.53-.19.54-.17.55-.15.56-.13.57-.11.58-.08.58-.06.59-.04.6-.01.61.01.6.04.6.06.59.08.58.11.58.13.57.15.56.17.55.19.54.21.53.24.52.25.51.27.5.29.49.3.47.33.46.34.45.36.43.37.42.39.41.41.39.42.37.43.36.45.34.46.33.48.31.48.29.5.27.51.25.52.23.53.21.54.2.56.17.56.15.56.12.58.11.58.08.6.06.59.04.61.01.6-.01.6-.04.59-.06.58-.08.58-.11.57-.12.56-.15.55-.17.54-.2.53-.21.52-.23.51-.25.5-.27.49-.29.47-.31.46-.33.45-.34.44-.36.42-.37.4-.39.39-.41.38-.42.35-.43.35-.45.32-.46.31-.47.29-.49.27-.5.25-.51.23-.52.21-.53.2-.54.17-.55.15-.56.13-.57.1-.58.09-.58.06-.59.03-.6.01-.6-.01-.61-.03-.6-.06-.59-.09-.58-.1-.58-.13-.57-.15-.56-.17-.55-.2-.54-.21-.53-.23-.52-.25-.51-.27-.5-.29-.48-.31-.48-.32-.46-.35-.45-.35-.43-.38-.42-.39-.41-.4-.39-.42-.37-.44-.36-.45-.34-.46-.33-.47-.3-.49-.29-.5-.27-.51-.26-.52-.23-.53-.21-.54-.19-.55-.17-.56-.15-.57-.13-.58-.11-.58-.08-.59-.06-.6-.04-.6-.01-.61.01-.59.04z" id="r"/></defs><use xlink:href="#a" fill="#fff" fill-opacity="0"/><use xlink:href="#a" fill-opacity="0" stroke="#600060" stroke-width="2"/><use xlink:href="#b" fill-opacity="0" stroke="#600060" stroke-width="7"/><use xlink:href="#c" fill-opacity="0" stroke="#600060" stroke-width="7"/><use xlink:href="#d" fill="#fff" fill-opacity="0"/><use xlink:href="#d" fill-opacity="0" stroke="#600060" stroke-width="7"/><use xlink:href="#e" fill-opacity="0" stroke="#600060" stroke-width="2"/><use xlink:href="#f" fill-opacity="0" stroke="#600060" stroke-width="7"/><use xlink:href="#g" fill-opacity="0" stroke="#600060" stroke-width="7"/><use xlink:href="#h" fill-opacity="0" stroke="#600060" stroke-width="7"/><use xlink:href="#i" fill-opacity="0" stroke="#600060" stroke-width="7"/><use xlink:href="#j" fill-opacity="0" stroke="#600060" stroke-width="4"/><use xlink:href="#k" fill-opacity="0" stroke="#600060" stroke-width="7"/><use xlink:href="#l" fill-opacity="0" stroke="#600060" stroke-width="7"/><use xlink:href="#m" fill="#600060"/><use xlink:href="#n" fill-opacity="0" stroke="#600060" stroke-width="4"/><use xlink:href="#o" fill="#fff" fill-opacity="0"/><use xlink:href="#o" fill-opacity="0" stroke="#600060" stroke-width="7"/><g><use xlink:href="#p" fill-opacity="0" stroke="#600060" stroke-width="4"/></g><g><use xlink:href="#q" fill-opacity="0" stroke="#600060" stroke-width="2"/></g><g><use xlink:href="#r" fill-opacity="0" stroke="#600060" stroke-width="2"/></g></svg>