<?xml version="1.0" encoding="UTF-8" standalone="no"?>
<!DOCTYPE svg PUBLIC "-//W3C//DTD SVG 1.1//EN" "http://www.w3.org/Graphics/SVG/1.1/DTD/svg11.dtd">
<svg version="1.1" xmlns="http://www.w3.org/2000/svg" xmlns:xlink="http://www.w3.org/1999/xlink" preserveAspectRatio="xMidYMid meet" viewBox="0 0 640 420" width="640" height="420"><defs><path d="M375.22 83.06C453.36 83.06 516.71 137.27 516.71 204.15C516.71 206.67 516.63 209.19 516.43 211.66C572.87 221.83 614.37 255.89 614.37 296.35C614.37 296.35 614.37 296.35 614.37 296.35C614.37 344.83 554.79 384.14 481.29 384.14C447.9 384.14 180.84 384.14 147.46 384.14C73.97 384.14 14.37 344.83 14.37 296.35C14.37 296.35 14.37 296.35 14.37 296.35C14.37 254.07 59.66 218.79 119.96 210.45C125.37 164.61 170.57 128.85 225.54 128.85C237.63 128.85 249.21 130.58 260.04 133.75C285.73 103.07 327.74 83.06 375.22 83.06Z" id="boxcLf0zO"></path><path d="M266.98 167.2L177.69 239.11L266.98 311.01L266.98 264.27L389.18 264.27L389.18 311.01L478.48 239.11L389.18 167.2L389.18 213.94L266.98 213.94L266.98 167.2Z" id="bEEBpyEHr"></path></defs><g><g><g><use xlink:href="#boxcLf0zO" opacity="1" fill="#ffffff" fill-opacity="0"></use><g><use xlink:href="#boxcLf0zO" opacity="1" fill-opacity="0" stroke="#f5f5f5" stroke-width="15" stroke-opacity="1"></use></g></g><g><use xlink:href="#bEEBpyEHr" opacity="1" fill="#ffffff" fill-opacity="0"></use><g><use xlink:href="#bEEBpyEHr" opacity="1" fill-opacity="0" stroke="#f5f5f5" stroke-width="15" stroke-opacity="1"></use></g></g></g></g></svg>