<?xml version="1.0" encoding="UTF-8" standalone="no"?>
<!DOCTYPE svg PUBLIC "-//W3C//DTD SVG 1.1//EN" "http://www.w3.org/Graphics/SVG/1.1/DTD/svg11.dtd">
<svg version="1.1" xmlns="http://www.w3.org/2000/svg" xmlns:xlink="http://www.w3.org/1999/xlink" preserveAspectRatio="xMidYMid meet" viewBox="0 0 640 640" width="640" height="640"><defs><path d="M375.22 83.06C453.36 83.06 516.71 163.78 516.71 263.36C516.71 267.11 516.63 270.86 516.43 274.54C572.87 289.68 614.37 340.4 614.37 400.64C614.37 400.64 614.37 400.64 614.37 400.64C614.37 472.83 554.79 531.36 481.29 531.36C447.9 531.36 180.84 531.36 147.46 531.36C73.97 531.36 14.37 472.83 14.37 400.64C14.37 400.64 14.37 400.64 14.37 400.64C14.37 337.7 59.66 285.16 119.96 272.74C125.37 204.49 170.57 151.23 225.54 151.23C237.63 151.23 249.21 153.81 260.04 158.54C285.73 112.85 327.74 83.06 375.22 83.06Z" id="b1jRpq4vkc"></path><path d="M258.9 293.59L169.61 365.5L258.9 437.4L258.9 390.66L381.1 390.66L381.1 437.4L470.4 365.5L381.1 293.59L381.1 340.33L258.9 340.33L258.9 293.59Z" id="cqvrThVkI"></path></defs><g><g><g><g><use xlink:href="#b1jRpq4vkc" opacity="1" fill-opacity="0" stroke="#600060" stroke-width="8" stroke-opacity="1"></use></g></g><g><g><use xlink:href="#cqvrThVkI" opacity="1" fill-opacity="0" stroke="#600060" stroke-width="7" stroke-opacity="1"></use></g></g></g></g></svg>