<svg xmlns="http://www.w3.org/2000/svg" xmlns:xlink="http://www.w3.org/1999/xlink" width="640" height="640">
  <defs>
    <path d="M316.5 205.2l-.69-149.83 21.17 1.41 64.88 9.81-45.46 149.2-39.21 139.23-.69-149.82z" id="a"/>
    <path d="M600.88 337.87c0 156.98-127.45 284.43-284.44 284.43S32 494.85 32 337.87C32 180.88 159.45 53.43 316.44 53.43s284.44 127.45 284.44 284.44z" id="b"/>
    <path d="M316.44 52.43v-24" id="c"/>
    <path d="M80.8 139.84l43.02-37.68 3.12 2.58-43.02 37.68-3.12-2.58z" id="d"/>
    <path d="M116.37 134.29l-4.79-5-6.71-7" id="e"/>
    <path d="M331.44 339c0 8.28-6.72 15-15 15-8.28 0-15-6.72-15-15 0-8.28 6.72-15 15-15 8.28 0 15 6.72 15 15z" id="f"/>
    <path d="M316.44 107.93V75.69" id="g"/>
    <path d="M316.44 598.87v-33.18" id="h"/>
    <path d="M93.98 339H57.16" id="i"/>
    <path d="M572.89 339h-36.82" id="j"/>
    <path d="M279.9 24.43h73.08v4H279.9v-4z" id="k"/>
    <path d="M325.19 324.67l-.19 1.61L396.21 84" id="l"/>
  </defs>
  <use xlink:href="#a" opacity=".39" fill="#600060"/>
  <use xlink:href="#b" fill-opacity="0" stroke="#600060" stroke-width="10"/>
  <use xlink:href="#c" fill-opacity="0" stroke="#600060" stroke-width="16"/>
  <use xlink:href="#d" fill="#600060"/>
  <use xlink:href="#d" fill-opacity="0" stroke="#600060" stroke-width="11"/>
  <use xlink:href="#e" fill-opacity="0" stroke="#600060" stroke-width="17"/>
  <use xlink:href="#f" fill="#f5f5f5"/>
  <use xlink:href="#f" fill-opacity="0" stroke="#600060" stroke-width="7"/>
  <use xlink:href="#g" fill-opacity="0" stroke="#600060" stroke-width="6"/>
  <use xlink:href="#h" fill-opacity="0" stroke="#600060" stroke-width="6"/>
  <use xlink:href="#i" fill-opacity="0" stroke="#600060" stroke-width="6"/>
  <use xlink:href="#j" fill-opacity="0" stroke="#600060" stroke-width="6"/>
  <g>
    <use xlink:href="#k" fill="#600060"/>
    <use xlink:href="#k" fill-opacity="0" stroke="#600060" stroke-width="8"/>
  </g>
  <g>
    <use xlink:href="#l" fill="#a434b7"/>
    <use xlink:href="#l" fill-opacity="0" stroke="#600060" stroke-width="6"/>
  </g>
</svg>
