<?xml version="1.0" encoding="UTF-8" standalone="no"?>
<!DOCTYPE svg PUBLIC "-//W3C//DTD SVG 1.1//EN" "http://www.w3.org/Graphics/SVG/1.1/DTD/svg11.dtd">
<svg version="1.1" xmlns="http://www.w3.org/2000/svg" xmlns:xlink="http://www.w3.org/1999/xlink" preserveAspectRatio="xMidYMid meet" viewBox="0 0 640 640" width="640" height="640"><defs><path d="M316.5 205.2L315.81 55.37L336.98 56.78L401.86 66.59L356.4 215.79L317.19 355.02L316.5 205.2Z" id="a2W73AR4FV"></path><path d="M600.88 337.87C600.88 494.85 473.43 622.3 316.44 622.3C159.45 622.3 32 494.85 32 337.87C32 180.88 159.45 53.43 316.44 53.43C473.43 53.43 600.88 180.88 600.88 337.87Z" id="d5qdWI7j2"></path><path d="M316.44 52.43L316.44 36.86L316.44 28.43" id="cadEo35v9"></path><path d="M80.8 139.84L123.82 102.16L126.94 104.74L83.92 142.42L80.8 139.84Z" id="bMiVMchE"></path><path d="M116.37 134.29L111.58 129.29L104.87 122.29" id="l4UcMOLQYo"></path><path d="M331.44 339C331.44 347.28 324.72 354 316.44 354C308.16 354 301.44 347.28 301.44 339C301.44 330.72 308.16 324 316.44 324C324.72 324 331.44 330.72 331.44 339Z" id="bjHMbZToa"></path><path d="M316.44 107.93L316.44 90.55L316.44 75.69" id="c5ym0WTmhD"></path><path d="M316.44 598.87L316.44 580.98L316.44 565.69" id="a5RlXF2l1"></path><path d="M93.98 339L57.16 339" id="bi3aKDost"></path><path d="M572.89 339L536.07 339" id="a4ji4PygFA"></path><path d="M279.9 24.43L352.98 24.43L352.98 28.43L279.9 28.43L279.9 24.43Z" id="a1e9oPq8EQ"></path><path d="M325.19 324.67L325 326.28L396.21 84" id="e3TeKDdb2w"></path></defs><g><g><g><use xlink:href="#a2W73AR4FV" opacity="0.39" fill="#600060" fill-opacity="1"></use></g><g><g><use xlink:href="#d5qdWI7j2" opacity="1" fill-opacity="0" stroke="#600060" stroke-width="10" stroke-opacity="1"></use></g></g><g><g><use xlink:href="#cadEo35v9" opacity="1" fill-opacity="0" stroke="#600060" stroke-width="16" stroke-opacity="1"></use></g></g><g><use xlink:href="#bMiVMchE" opacity="1" fill="#600060" fill-opacity="1"></use><g><use xlink:href="#bMiVMchE" opacity="1" fill-opacity="0" stroke="#600060" stroke-width="11" stroke-opacity="1"></use></g></g><g><g><use xlink:href="#l4UcMOLQYo" opacity="1" fill-opacity="0" stroke="#600060" stroke-width="17" stroke-opacity="1"></use></g></g><g><use xlink:href="#bjHMbZToa" opacity="1" fill="#f5f5f5" fill-opacity="1"></use><g><use xlink:href="#bjHMbZToa" opacity="1" fill-opacity="0" stroke="#600060" stroke-width="7" stroke-opacity="1"></use></g></g><g><g><use xlink:href="#c5ym0WTmhD" opacity="1" fill-opacity="0" stroke="#600060" stroke-width="6" stroke-opacity="1"></use></g></g><g><g><use xlink:href="#a5RlXF2l1" opacity="1" fill-opacity="0" stroke="#600060" stroke-width="6" stroke-opacity="1"></use></g></g><g><g><use xlink:href="#bi3aKDost" opacity="1" fill-opacity="0" stroke="#600060" stroke-width="6" stroke-opacity="1"></use></g></g><g><g><use xlink:href="#a4ji4PygFA" opacity="1" fill-opacity="0" stroke="#600060" stroke-width="6" stroke-opacity="1"></use></g></g><g><use xlink:href="#a1e9oPq8EQ" opacity="1" fill="#600060" fill-opacity="1"></use><g><use xlink:href="#a1e9oPq8EQ" opacity="1" fill-opacity="0" stroke="#600060" stroke-width="8" stroke-opacity="1"></use></g></g><g><use xlink:href="#e3TeKDdb2w" opacity="1" fill="#a434b7" fill-opacity="1"></use><g><use xlink:href="#e3TeKDdb2w" opacity="1" fill-opacity="0" stroke="#600060" stroke-width="6" stroke-opacity="1"></use></g></g></g></g></svg>
