<?xml version="1.0" encoding="UTF-8" standalone="no"?>
<!DOCTYPE svg PUBLIC "-//W3C//DTD SVG 1.1//EN" "http://www.w3.org/Graphics/SVG/1.1/DTD/svg11.dtd">
<svg version="1.1" xmlns="http://www.w3.org/2000/svg" xmlns:xlink="http://www.w3.org/1999/xlink" preserveAspectRatio="xMidYMid meet" viewBox="0 0 640 640" width="640" height="640"><defs><path d="M363.8 28.99L368.22 29.49L372.63 30.19L377.02 31.09L381.4 32.18L385.77 33.48L390.13 34.97L394.48 36.67L398.81 38.56L403.14 40.66L407.45 42.95L411.74 45.44L416.03 48.13L420.3 51.02L424.56 54.11L428.81 57.4L433.05 60.89L437.28 64.57L441.49 68.46L445.69 72.55L449.88 76.83L454.06 81.32L458.22 86L462.37 90.89L466.51 95.97L470.64 101.25L474.76 106.73L478.86 112.41L482.95 118.29L487.03 124.37L491.1 130.65L495.16 137.13L499.2 143.81L503.23 150.68L507.25 157.76L511.26 165.04L515.25 172.51L519.24 180.19L523.21 188.06L527.08 189.1L530.9 190.27L534.67 191.57L538.38 192.99L542.03 194.54L545.62 196.2L549.15 197.99L552.61 199.88L556 201.88L559.32 204L562.56 206.21L565.73 208.53L568.83 210.95L571.84 213.47L574.77 216.07L577.61 218.77L580.36 221.56L583.03 224.43L585.6 227.38L588.08 230.42L590.46 233.52L592.73 236.71L594.91 239.96L596.98 243.28L598.95 246.67L600.81 250.12L602.55 253.62L604.18 257.19L605.69 260.8L607.09 264.47L608.36 268.19L609.51 271.95L610.53 275.75L611.43 279.6L612.19 283.48L612.82 287.39L613.31 291.33L613.67 295.31L613.88 299.3L613.96 303.32L613.86 308.17L613.56 312.98L613.07 317.73L612.39 322.42L611.52 327.05L610.47 331.62L609.24 336.11L607.84 340.54L606.27 344.89L604.53 349.16L602.62 353.35L600.56 357.45L598.35 361.45L595.98 365.37L593.47 369.18L590.81 372.89L588.01 376.49L585.08 379.99L582.02 383.37L578.82 386.63L575.51 389.77L572.07 392.78L568.52 395.67L564.86 398.42L561.08 401.03L557.21 403.5L553.23 405.83L549.16 408.01L544.99 410.04L540.73 411.91L536.39 413.62L531.97 415.17L527.47 416.55L522.9 417.76L518.25 418.79L513.55 419.64L508.78 420.31L503.95 420.79L499.07 421.09L494.13 421.19L142.59 421.19L137.27 421.08L132 420.76L126.79 420.24L121.65 419.52L116.57 418.59L111.57 417.48L106.65 416.17L101.81 414.68L97.05 413.01L92.38 411.17L87.81 409.15L83.33 406.96L78.96 404.61L74.69 402.1L70.53 399.43L66.48 396.61L62.55 393.65L58.75 390.54L55.06 387.3L51.51 383.92L48.09 380.41L44.81 376.78L41.68 373.02L38.68 369.15L35.84 365.16L33.15 361.06L30.62 356.86L28.25 352.56L26.05 348.16L24.02 343.68L22.16 339.1L20.48 334.44L18.99 329.7L17.68 324.88L16.56 320L15.63 315.05L14.91 310.03L14.38 304.96L14.06 299.83L13.96 294.66L14.01 291.21L14.17 287.76L14.44 284.32L14.81 280.88L15.29 277.44L15.86 274.01L16.54 270.6L17.31 267.19L18.18 263.81L19.15 260.44L20.21 257.09L21.36 253.76L22.6 250.46L23.92 247.19L25.34 243.94L26.84 240.73L28.43 237.55L30.09 234.41L31.84 231.31L33.67 228.25L35.58 225.23L37.56 222.26L39.61 219.34L41.74 216.47L43.94 213.65L46.21 210.89L48.55 208.19L50.96 205.54L53.43 202.96L55.96 200.45L58.55 198L61.21 195.62L63.92 193.32L66.7 191.09L69.52 188.93L72.41 186.85L75.34 184.86L78.32 182.95L81.36 181.13L84.44 179.39L84.44 175.93L84.52 172.3L84.74 168.71L85.11 165.17L85.63 161.66L86.28 158.19L87.07 154.78L88 151.41L89.05 148.1L90.24 144.84L91.55 141.64L92.98 138.5L94.53 135.43L96.2 132.42L97.98 129.49L99.87 126.63L101.87 123.84L103.97 121.14L106.17 118.52L108.48 115.98L110.87 113.53L113.36 111.17L115.94 108.9L118.61 106.74L121.36 104.67L124.19 102.7L127.1 100.84L130.08 99.09L133.14 97.45L136.26 95.92L139.45 94.52L142.7 93.23L146.02 92.06L149.39 91.02L152.81 90.11L156.28 89.34L159.8 88.69L163.37 88.19L166.98 87.82L170.63 87.6L174.31 87.53L174.51 87.53L174.71 87.53L174.92 87.54L175.13 87.55L175.34 87.57L175.56 87.58L175.77 87.6L175.99 87.62L176.22 87.64L176.44 87.66L176.67 87.69L176.9 87.72L177.14 87.74L177.37 87.77L177.61 87.8L177.85 87.83L178.09 87.86L178.33 87.9L178.58 87.93L178.82 87.96L179.07 87.99L179.32 88.03L179.58 88.06L179.83 88.09L180.08 88.12L180.34 88.15L180.6 88.18L180.85 88.21L181.11 88.23L181.37 88.26L181.63 88.28L181.89 88.3L182.16 88.32L182.42 88.34L182.68 88.36L182.94 88.37L183.21 88.38L183.47 88.39L183.74 88.39L184 88.39L184.07 88.46L184.13 88.52L184.2 88.58L184.27 88.63L184.33 88.68L184.4 88.73L184.46 88.77L184.53 88.82L184.6 88.86L184.66 88.9L184.73 88.93L184.79 88.96L184.86 88.99L184.93 89.02L184.99 89.05L185.06 89.07L185.12 89.1L185.19 89.12L185.26 89.14L185.32 89.15L185.39 89.17L185.45 89.18L185.52 89.19L185.59 89.21L185.65 89.22L185.72 89.22L185.79 89.23L185.85 89.24L185.92 89.24L185.98 89.25L186.05 89.25L186.12 89.25L186.18 89.26L186.25 89.26L186.31 89.26L186.38 89.26L186.45 89.26L186.51 89.26L186.58 89.26L186.64 89.26L186.84 89.26L187.03 89.26L187.22 89.26L187.41 89.26L187.6 89.26L187.78 89.26L187.96 89.27L188.14 89.27L188.31 89.27L188.49 89.27L188.66 89.28L188.83 89.28L189 89.29L189.17 89.3L189.34 89.31L189.51 89.32L189.67 89.33L189.84 89.34L190 89.35L190.17 89.37L190.33 89.39L190.5 89.41L190.66 89.43L190.83 89.45L191 89.47L191.17 89.5L191.33 89.53L191.5 89.56L191.68 89.59L191.85 89.63L192.02 89.66L192.2 89.7L192.38 89.75L192.56 89.79L192.74 89.84L192.92 89.89L193.11 89.95L193.3 90L193.5 90.06L193.69 90.13L193.76 90.13L193.83 90.13L193.9 90.14L193.98 90.15L194.06 90.17L194.14 90.18L194.23 90.2L194.31 90.22L194.4 90.24L194.49 90.26L194.58 90.29L194.68 90.32L194.77 90.34L194.87 90.37L194.96 90.4L195.06 90.43L195.16 90.46L195.26 90.5L195.36 90.53L195.55 90.59L195.65 90.63L195.75 90.66L195.85 90.69L195.95 90.72L196.04 90.75L196.14 90.78L196.23 90.81L196.33 90.83L196.42 90.86L196.51 90.88L196.6 90.9L196.68 90.92L196.77 90.94L196.85 90.96L196.93 90.97L197 90.98L197.08 90.99L197.15 90.99L197.22 90.99L197.35 91.06L197.49 91.12L197.63 91.18L197.77 91.23L197.92 91.28L198.06 91.33L198.21 91.38L198.37 91.42L198.52 91.47L198.68 91.51L198.83 91.55L198.99 91.59L199.15 91.62L199.32 91.66L199.48 91.7L199.64 91.73L199.81 91.76L199.97 91.8L200.14 91.83L200.47 91.89L200.63 91.93L200.8 91.96L200.96 91.99L201.12 92.03L201.29 92.06L201.45 92.1L201.61 92.13L201.77 92.17L201.93 92.21L202.08 92.25L202.24 92.3L202.39 92.34L202.54 92.39L202.69 92.44L202.83 92.49L202.97 92.55L203.11 92.6L203.25 92.66L203.38 92.73L203.45 92.73L203.52 92.73L203.6 92.73L203.67 92.73L203.75 92.73L203.83 92.73L203.92 92.73L204 92.73L204.09 92.74L204.18 92.74L204.27 92.75L204.37 92.75L204.46 92.76L204.56 92.76L204.65 92.77L204.75 92.78L204.85 92.79L204.95 92.81L205.05 92.82L205.15 92.84L205.25 92.85L205.34 92.87L205.44 92.89L205.54 92.91L205.64 92.94L205.74 92.97L205.83 92.99L205.93 93.03L206.02 93.06L206.11 93.09L206.2 93.13L206.29 93.17L206.37 93.21L206.46 93.26L206.54 93.31L206.62 93.36L206.7 93.41L206.77 93.47L206.84 93.53L206.91 93.59L207.11 93.66L207.3 93.72L207.49 93.79L207.68 93.85L207.86 93.92L208.04 93.98L208.22 94.05L208.4 94.11L208.57 94.18L208.74 94.24L208.91 94.31L209.07 94.37L209.24 94.44L209.4 94.5L209.56 94.57L209.71 94.63L209.87 94.7L210.02 94.76L210.17 94.83L210.32 94.89L210.47 94.96L210.62 95.02L210.76 95.09L210.9 95.15L211.05 95.22L211.19 95.28L211.33 95.35L211.47 95.41L211.6 95.48L211.74 95.54L211.88 95.61L212.01 95.67L212.15 95.74L212.28 95.8L212.41 95.87L212.55 95.93L212.68 96L212.81 96.06L212.94 96.13L213.08 96.19L213.14 96.2L213.21 96.2L213.27 96.21L213.34 96.22L213.41 96.23L213.47 96.25L213.54 96.26L213.6 96.28L213.67 96.31L213.74 96.33L213.8 96.35L213.87 96.38L213.93 96.41L214 96.44L214.07 96.47L214.13 96.5L214.2 96.53L214.27 96.56L214.33 96.6L214.46 96.66L214.53 96.69L214.6 96.72L214.66 96.76L214.73 96.79L214.79 96.82L214.86 96.85L214.93 96.87L214.99 96.9L215.06 96.93L215.12 96.95L215.19 96.97L215.26 96.99L215.32 97.01L215.39 97.02L215.45 97.04L215.52 97.05L215.59 97.05L215.65 97.06L215.72 97.06L218.2 93.91L220.75 90.82L223.37 87.79L226.06 84.82L228.82 81.93L231.64 79.1L234.52 76.33L237.47 73.63L240.48 71.01L243.54 68.45L246.66 65.96L249.84 63.55L253.07 61.2L256.35 58.93L259.69 56.74L263.07 54.62L266.5 52.57L269.98 50.6L273.5 48.71L277.06 46.9L280.67 45.17L284.31 43.52L288 41.95L291.72 40.47L295.47 39.06L299.26 37.74L303.08 36.51L306.93 35.36L310.81 34.3L314.71 33.32L318.65 32.44L322.6 31.64L326.58 30.93L330.58 30.32L334.6 29.8L338.63 29.37L342.69 29.03L346.75 28.79L350.83 28.64L354.93 28.6L359.37 28.7L363.8 28.99ZM345.27 49.56L341.77 49.77L338.27 50.06L334.77 50.44L331.28 50.89L327.8 51.42L324.32 52.04L320.86 52.73L317.41 53.5L313.98 54.35L310.57 55.27L307.17 56.27L303.8 57.34L300.45 58.49L297.12 59.71L293.82 61.01L290.55 62.37L287.32 63.81L284.11 65.32L280.94 66.9L277.81 68.55L274.71 70.26L271.66 72.05L268.64 73.9L265.67 75.81L262.75 77.8L259.88 79.84L257.05 81.95L254.28 84.13L251.56 86.37L248.9 88.66L246.29 91.02L243.74 93.45L241.26 95.93L238.84 98.46L236.48 101.06L234.19 103.72L231.97 106.43L229.82 109.19L231.26 110.44L232.67 111.72L234.06 113.03L235.41 114.36L236.74 115.72L238.04 117.11L239.32 118.53L240.56 119.97L241.77 121.43L242.95 122.92L244.1 124.44L245.22 125.98L246.3 127.54L247.35 129.13L248.37 130.73L249.35 132.36L250.3 134.02L251.22 135.69L252.1 137.38L252.94 139.09L253.75 140.83L254.52 142.58L255.26 144.35L255.95 146.13L256.61 147.94L257.23 149.76L257.81 151.6L258.35 153.46L258.85 155.33L259.3 157.21L259.72 159.11L260.1 161.03L260.43 162.95L260.72 164.9L260.97 166.85L261.17 168.82L261.33 170.79L261.44 172.78L261.51 174.78L261.53 176.79L261.53 177.18L261.5 177.57L261.46 177.95L261.41 178.32L261.33 178.69L261.25 179.06L261.15 179.42L261.03 179.78L260.91 180.13L260.76 180.48L260.61 180.81L260.44 181.14L260.26 181.47L260.07 181.79L259.86 182.09L259.65 182.39L259.42 182.69L259.18 182.97L258.93 183.24L258.67 183.51L258.4 183.76L258.12 184.01L257.83 184.24L257.54 184.47L257.23 184.68L256.92 184.88L256.6 185.07L256.27 185.25L255.93 185.41L255.59 185.57L255.24 185.71L254.88 185.83L254.52 185.95L254.15 186.04L253.78 186.13L253.4 186.2L253.02 186.25L252.63 186.29L252.24 186.32L251.84 186.33L251.45 186.32L251.06 186.29L250.67 186.25L250.29 186.2L249.91 186.13L249.53 186.04L249.17 185.95L248.8 185.83L248.45 185.71L248.1 185.57L247.75 185.41L247.42 185.25L247.09 185.07L246.77 184.88L246.45 184.68L246.15 184.47L245.85 184.24L245.56 184.01L245.28 183.76L245.01 183.51L244.75 183.24L244.51 182.97L244.27 182.69L244.04 182.39L243.82 182.09L243.62 181.79L243.43 181.47L243.25 181.14L243.08 180.81L242.92 180.48L242.78 180.13L242.65 179.78L242.54 179.42L242.44 179.06L242.35 178.69L242.28 178.32L242.22 177.95L242.18 177.57L242.16 177.18L242.15 176.79L242.13 174.98L242.06 173.17L241.94 171.38L241.79 169.6L241.58 167.83L241.34 166.07L241.05 164.33L240.71 162.6L240.34 160.89L239.92 159.19L239.46 157.51L238.96 155.84L238.42 154.19L237.84 152.57L237.23 150.96L236.57 149.36L235.87 147.79L235.14 146.24L234.37 144.72L233.56 143.21L232.72 141.73L231.84 140.27L230.92 138.83L229.97 137.42L228.99 136.03L227.97 134.67L226.92 133.34L225.83 132.03L224.71 130.76L223.57 129.51L222.39 128.29L221.17 127.1L219.93 125.94L218.66 124.81L217.36 123.71L216.03 122.65L214.67 121.61L213.29 120.62L211.87 119.65L210.43 118.73L210.24 118.66L210.04 118.59L209.85 118.52L209.66 118.44L209.48 118.36L209.3 118.28L209.12 118.2L208.94 118.12L208.76 118.03L208.59 117.94L208.42 117.85L208.24 117.76L208.07 117.67L207.91 117.57L207.74 117.48L207.57 117.38L207.4 117.29L207.24 117.19L207.07 117.09L206.74 116.9L206.58 116.8L206.41 116.7L206.25 116.61L206.08 116.51L205.91 116.41L205.74 116.32L205.57 116.23L205.4 116.14L205.23 116.05L205.05 115.96L204.88 115.87L204.7 115.79L204.52 115.7L204.34 115.62L204.15 115.54L203.96 115.47L203.77 115.4L203.58 115.33L203.38 115.26L203.38 115.25L203.37 115.25L203.36 115.24L203.34 115.22L203.33 115.21L203.31 115.19L203.29 115.17L203.26 115.15L203.23 115.13L203.2 115.1L203.17 115.07L203.14 115.05L203.1 115.02L203.06 114.99L203.02 114.96L202.97 114.92L202.93 114.89L202.88 114.86L202.83 114.83L202.78 114.79L202.73 114.76L202.68 114.73L202.62 114.7L202.57 114.67L202.51 114.64L202.45 114.61L202.39 114.58L202.33 114.55L202.27 114.53L202.21 114.51L202.14 114.48L202.08 114.46L202.02 114.45L201.95 114.43L201.89 114.42L201.82 114.41L201.75 114.4L201.69 114.4L201.62 114.39L201.42 114.27L201.23 114.14L201.03 114.02L200.83 113.9L200.63 113.78L200.43 113.67L200.23 113.56L200.04 113.45L199.84 113.35L199.64 113.24L199.44 113.14L199.24 113.04L199.05 112.95L198.85 112.86L198.65 112.76L198.45 112.67L198.25 112.59L198.05 112.5L197.86 112.42L197.66 112.34L197.46 112.26L197.26 112.18L197.06 112.1L196.86 112.02L196.67 111.95L196.47 111.87L196.27 111.8L196.07 111.73L195.87 111.66L195.68 111.59L195.48 111.52L195.28 111.45L195.08 111.39L194.88 111.32L194.68 111.25L194.49 111.19L194.29 111.12L194.09 111.06L193.89 110.99L193.69 110.93L192.81 110.93L192.61 110.86L192.42 110.8L192.22 110.75L192.02 110.69L191.82 110.64L191.62 110.59L191.42 110.54L191.23 110.5L191.03 110.45L190.83 110.41L190.63 110.37L190.43 110.33L190.23 110.3L190.04 110.26L189.84 110.23L189.64 110.19L189.44 110.16L189.24 110.13L189.05 110.09L188.65 110.03L188.45 110L188.25 109.96L188.05 109.93L187.86 109.89L187.66 109.86L187.46 109.82L187.26 109.79L187.06 109.75L186.86 109.71L186.67 109.67L186.47 109.62L186.27 109.58L186.07 109.53L185.87 109.48L185.68 109.43L185.48 109.38L185.28 109.32L185.08 109.26L184.88 109.19L182.24 109.19L182.04 109.13L181.84 109.07L181.63 109.01L181.42 108.96L181.21 108.91L181 108.86L180.78 108.81L180.56 108.77L180.34 108.73L180.12 108.69L179.9 108.66L179.67 108.62L179.44 108.59L179.22 108.57L178.99 108.54L178.76 108.51L178.53 108.49L178.3 108.47L178.06 108.45L177.83 108.44L177.6 108.42L177.37 108.41L177.14 108.39L176.91 108.38L176.68 108.37L176.45 108.36L176.22 108.36L176 108.35L175.77 108.35L175.55 108.34L175.33 108.34L175.11 108.33L174.89 108.33L174.67 108.33L174.46 108.33L174.25 108.33L174.04 108.33L173.83 108.33L173.63 108.33L173.43 108.33L170.6 108.38L167.79 108.55L165.02 108.83L162.27 109.21L159.56 109.71L156.88 110.3L154.24 110.99L151.64 111.79L149.08 112.68L146.57 113.66L144.1 114.74L141.69 115.91L139.32 117.17L137.01 118.51L134.76 119.94L132.56 121.44L130.43 123.03L128.36 124.7L126.35 126.44L124.42 128.26L122.56 130.15L120.77 132.11L119.05 134.13L117.41 136.22L115.86 138.37L114.39 140.59L113 142.86L111.7 145.19L110.49 147.57L109.37 150.01L108.35 152.49L107.43 155.03L106.6 157.61L105.88 160.24L105.26 162.9L104.75 165.61L104.35 168.35L104.06 171.13L103.88 173.95L103.82 176.79L103.82 192.39L98.54 194.99L95.78 196.34L93.06 197.78L90.38 199.3L87.75 200.92L85.15 202.62L82.6 204.4L80.1 206.26L77.64 208.19L75.23 210.2L72.88 212.28L70.58 214.43L68.33 216.65L66.14 218.93L64 221.28L61.93 223.68L59.91 226.14L57.96 228.65L56.08 231.21L54.26 233.82L52.5 236.48L50.82 239.19L49.21 241.93L47.67 244.71L46.2 247.53L44.81 250.38L43.5 253.27L42.27 256.18L41.12 259.12L40.05 262.08L39.07 265.07L38.17 268.07L37.36 271.09L36.64 274.12L36.01 277.17L35.47 280.22L35.02 283.28L34.67 286.34L34.42 289.4L34.27 292.46L34.22 295.52L34.31 299.92L34.58 304.27L35.02 308.58L35.64 312.83L36.42 317.02L37.37 321.16L38.48 325.23L39.74 329.24L41.16 333.18L42.73 337.04L44.45 340.83L46.31 344.54L48.31 348.16L50.44 351.7L52.71 355.15L55.11 358.5L57.64 361.76L60.29 364.92L63.06 367.97L65.94 370.92L68.94 373.76L72.04 376.48L75.25 379.09L78.56 381.57L81.97 383.93L85.48 386.16L89.08 388.27L92.76 390.23L96.53 392.06L100.38 393.75L104.31 395.3L108.31 396.69L112.39 397.94L116.53 399.03L120.73 399.96L125 400.73L129.32 401.33L133.7 401.77L138.12 402.03L142.59 402.12L493.25 402.12L497.39 402.04L501.49 401.79L505.55 401.39L509.55 400.83L513.5 400.12L517.39 399.25L521.23 398.24L525 397.09L528.7 395.8L532.34 394.37L535.9 392.81L539.38 391.12L542.78 389.3L546.1 387.36L549.33 385.3L552.47 383.12L555.52 380.83L558.47 378.43L561.32 375.92L564.07 373.3L566.71 370.59L569.23 367.78L571.65 364.87L573.94 361.87L576.12 358.79L578.17 355.62L580.09 352.37L581.88 349.04L583.54 345.63L585.06 342.16L586.44 338.62L587.67 335.01L588.76 331.34L589.69 327.61L590.47 323.82L591.09 319.99L591.55 316.1L591.85 312.17L591.98 308.2L591.93 304.19L591.86 300.69L591.67 297.21L591.35 293.74L590.9 290.31L590.32 286.9L589.63 283.52L588.82 280.18L587.89 276.87L586.85 273.59L585.69 270.36L584.43 267.18L583.06 264.04L581.58 260.94L580 257.91L578.32 254.92L576.54 252L574.66 249.13L572.69 246.33L570.63 243.59L568.47 240.92L566.23 238.33L563.91 235.81L561.5 233.36L559.01 231L556.44 228.71L553.79 226.52L551.07 224.41L548.28 222.39L545.42 220.46L542.49 218.63L539.5 216.91L536.45 215.28L533.33 213.76L530.15 212.34L526.92 211.03L523.63 209.84L520.3 208.77L516.91 207.81L513.47 206.97L509.99 206.26L509.88 206.25L509.69 206.23L509.42 206.2L509.07 206.16L508.64 206.12L508.13 206.06L507.56 206L506.91 205.93L506.2 205.85L505.42 205.77L504.58 205.69L503.68 205.6L502.72 205.52L501.71 205.43L500.64 205.34L499.52 205.26L498.35 205.18L497.13 205.1L495.88 205.03L494.57 204.96L493.23 204.9L491.85 204.84L490.44 204.8L488.99 204.76L487.52 204.73L486.01 204.72L484.48 204.72L482.93 204.73L481.35 204.75L479.76 204.8L478.15 204.85L476.53 204.93L474.89 205.02L473.24 205.13L471.59 205.26L469.93 205.42L468.27 205.59L466.61 205.79L464.95 206.01L463.3 206.26L461.53 206.26L461.2 206.25L460.87 206.23L460.54 206.2L460.22 206.16L459.89 206.1L459.56 206.03L459.24 205.95L458.92 205.86L458.6 205.75L458.29 205.64L457.97 205.51L457.66 205.37L457.36 205.22L457.06 205.06L456.76 204.89L456.47 204.71L456.19 204.51L455.91 204.31L455.63 204.1L455.37 203.87L455.11 203.64L454.85 203.4L454.6 203.15L454.37 202.89L454.13 202.62L453.91 202.34L453.7 202.05L453.49 201.76L453.3 201.45L453.11 201.14L452.93 200.82L452.77 200.49L452.61 200.15L452.46 199.81L452.33 199.46L452.21 199.1L452.1 198.73L452 198.36L451.92 197.98L451.84 197.59L451.78 197.2L451.74 196.81L451.72 196.42L451.71 196.04L451.71 195.65L451.73 195.27L451.77 194.89L451.82 194.51L451.89 194.13L451.97 193.76L452.06 193.39L452.17 193.03L452.29 192.67L452.42 192.32L452.57 191.97L452.73 191.63L452.9 191.29L453.09 190.97L453.29 190.65L453.49 190.33L453.71 190.03L453.95 189.73L454.19 189.45L454.44 189.17L454.71 188.9L454.98 188.64L455.27 188.39L455.56 188.16L455.87 187.93L456.18 187.72L456.5 187.52L456.83 187.33L457.17 187.16L457.52 186.99L457.88 186.85L458.24 186.71L458.61 186.59L458.99 186.49L459.38 186.4L459.77 186.33L460.9 186.2L462.02 186.08L463.14 185.96L464.26 185.86L465.38 185.75L466.5 185.66L467.61 185.57L468.72 185.49L469.83 185.41L470.94 185.34L472.04 185.27L473.13 185.21L474.22 185.15L475.31 185.11L476.39 185.06L477.46 185.02L478.53 184.99L479.59 184.96L480.64 184.94L481.69 184.92L482.72 184.9L483.75 184.89L484.77 184.89L485.78 184.89L486.78 184.9L487.77 184.9L488.75 184.92L489.71 184.94L490.67 184.96L491.61 184.98L492.55 185.02L493.46 185.05L494.37 185.09L495.26 185.13L496.14 185.18L497 185.23L497.85 185.28L498.68 185.34L499.5 185.4L500.3 185.46L499.73 179.83L498.94 174.27L497.95 168.76L496.75 163.33L495.35 157.96L493.75 152.68L491.96 147.47L489.98 142.36L487.82 137.33L485.47 132.39L482.95 127.55L480.26 122.82L477.4 118.19L474.38 113.67L471.2 109.27L467.86 104.99L464.38 100.84L460.74 96.81L456.97 92.91L453.05 89.15L449.01 85.54L444.83 82.06L440.53 78.74L436.1 75.58L431.56 72.57L426.91 69.72L422.15 67.04L417.28 64.53L412.31 62.2L407.25 60.05L402.1 58.09L396.86 56.31L391.53 54.72L386.13 53.34L380.65 52.15L375.1 51.17L369.49 50.4L363.81 49.84L358.07 49.51L352.28 49.4L348.78 49.44L345.27 49.56Z" id="cRUabLpvc"></path><path d="M335.4 139.9L337.83 140.16L340.23 140.51L342.6 140.96L344.93 141.51L347.23 142.15L349.5 142.88L351.73 143.69L353.91 144.6L356.06 145.59L358.16 146.66L360.21 147.81L362.21 149.04L364.17 150.34L366.07 151.72L367.92 153.18L369.71 154.7L371.44 156.29L373.11 157.95L374.72 159.67L376.27 161.45L377.75 163.29L379.16 165.2L380.5 167.15L381.77 169.16L382.97 171.23L384.09 173.34L385.13 175.5L386.09 177.7L386.97 179.95L387.76 182.24L388.47 184.58L389.09 186.94L389.62 189.35L390.06 191.79L390.4 194.25L390.65 196.75L390.8 199.28L390.85 201.83L390.85 228.24L395.38 228.24L396.17 228.25L396.95 228.31L397.73 228.39L398.5 228.51L399.26 228.66L400.01 228.84L400.75 229.05L401.48 229.29L402.2 229.56L402.91 229.86L403.6 230.19L404.28 230.54L404.95 230.92L405.6 231.33L406.24 231.76L406.86 232.21L407.46 232.69L408.04 233.19L408.61 233.71L409.16 234.26L409.69 234.82L410.19 235.4L410.68 236.01L411.14 236.63L411.58 237.26L412 237.92L412.4 238.59L412.77 239.27L413.11 239.97L413.43 240.69L413.72 241.42L413.98 242.16L414.22 242.91L414.42 243.67L414.6 244.44L414.74 245.22L414.86 246.01L414.94 246.81L414.99 247.62L415.01 248.43L415.01 327.65L415.1 328.58L415.16 329.49L415.17 330.39L415.15 331.28L415.09 332.16L415 333.01L414.87 333.86L414.71 334.69L414.51 335.5L414.28 336.29L414.01 337.07L413.72 337.83L413.39 338.57L413.03 339.29L412.65 339.99L412.23 340.68L411.79 341.34L411.31 341.98L410.82 342.59L410.29 343.19L409.74 343.76L409.16 344.3L408.57 344.83L407.94 345.32L407.3 345.8L406.63 346.24L405.94 346.66L405.23 347.05L404.5 347.41L403.76 347.75L402.99 348.06L402.21 348.33L401.4 348.58L400.59 348.79L399.75 348.98L398.91 349.13L398.05 349.25L397.17 349.33L396.28 349.38L395.38 349.4L265.55 349.4L264.76 349.38L263.97 349.33L263.2 349.25L262.43 349.13L261.67 348.98L260.92 348.8L260.18 348.59L259.45 348.34L258.73 348.07L258.02 347.77L257.33 347.45L256.65 347.09L255.98 346.71L255.33 346.31L254.69 345.88L254.07 345.42L253.47 344.95L252.89 344.45L252.32 343.92L251.77 343.38L251.24 342.82L250.74 342.23L250.25 341.63L249.79 341.01L249.34 340.37L248.93 339.72L248.53 339.05L248.16 338.36L247.82 337.66L247.5 336.95L247.21 336.22L246.95 335.48L246.71 334.73L246.51 333.97L246.33 333.2L246.19 332.41L246.07 331.62L245.99 330.82L245.94 330.02L245.92 329.21L245.92 249.98L245.94 249.17L245.99 248.37L246.07 247.57L246.19 246.78L246.33 245.99L246.51 245.22L246.71 244.46L246.95 243.71L247.21 242.97L247.5 242.24L247.82 241.53L248.16 240.83L248.53 240.14L248.93 239.47L249.34 238.82L249.79 238.18L250.25 237.56L250.74 236.96L251.24 236.37L251.77 235.81L252.32 235.27L252.89 234.74L253.47 234.24L254.07 233.77L254.69 233.31L255.33 232.88L255.98 232.48L256.65 232.1L257.33 231.74L258.02 231.42L258.73 231.12L259.45 230.85L260.18 230.61L260.92 230.39L261.67 230.21L262.43 230.06L263.2 229.94L263.97 229.86L264.76 229.81L265.55 229.79L270.08 229.79L270.08 201.83L270.13 199.28L270.28 196.75L270.53 194.25L270.87 191.79L271.31 189.35L271.84 186.94L272.46 184.58L273.17 182.24L273.96 179.95L274.84 177.7L275.8 175.5L276.84 173.34L277.96 171.23L279.16 169.16L280.43 167.15L281.77 165.2L283.18 163.29L284.66 161.45L286.2 159.67L287.82 157.95L289.49 156.29L291.22 154.7L293.01 153.18L294.86 151.72L296.76 150.34L298.72 149.04L300.72 147.81L302.77 146.66L304.87 145.59L307.02 144.6L309.2 143.69L311.43 142.88L313.7 142.15L316 141.51L318.33 140.96L320.7 140.51L323.1 140.16L325.53 139.9L327.99 139.75L330.46 139.69L332.94 139.75L335.4 139.9ZM266.68 240.82L266.32 240.98L265.97 241.14L265.62 241.3L265.29 241.47L264.96 241.63L264.65 241.8L264.34 241.97L264.04 242.14L263.75 242.31L263.48 242.49L263.21 242.67L262.95 242.85L262.7 243.03L262.46 243.21L262.23 243.4L262 243.59L261.79 243.77L261.59 243.97L261.4 244.16L261.21 244.35L261.04 244.55L260.87 244.75L260.72 244.95L260.57 245.15L260.43 245.36L260.31 245.57L260.19 245.77L260.08 245.99L259.98 246.2L259.89 246.41L259.81 246.63L259.74 246.85L259.68 247.07L259.63 247.29L259.58 247.51L259.55 247.74L259.53 247.97L259.51 248.2L259.51 248.43L259.51 327.65L259.51 328L259.53 328.34L259.56 328.67L259.6 329L259.65 329.32L259.71 329.64L259.78 329.95L259.86 330.25L259.95 330.54L260.05 330.83L260.16 331.11L260.28 331.39L260.41 331.65L260.55 331.91L260.7 332.16L260.86 332.4L261.03 332.63L261.2 332.86L261.39 333.08L261.58 333.28L261.79 333.48L262 333.67L262.22 333.86L262.44 334.03L262.68 334.19L262.92 334.34L263.17 334.49L263.43 334.62L263.69 334.75L263.97 334.86L264.25 334.97L264.53 335.06L264.83 335.14L265.13 335.22L265.43 335.28L265.74 335.33L266.06 335.37L266.39 335.4L266.72 335.41L267.06 335.42L396.89 335.42L397.23 335.41L397.56 335.4L397.88 335.37L398.2 335.33L398.52 335.28L398.82 335.22L399.12 335.14L399.42 335.06L399.7 334.97L399.98 334.86L400.25 334.75L400.52 334.62L400.78 334.49L401.03 334.34L401.27 334.19L401.51 334.03L401.73 333.86L401.95 333.67L402.16 333.48L402.36 333.28L402.56 333.08L402.74 332.86L402.92 332.63L403.09 332.4L403.25 332.16L403.4 331.91L403.54 331.65L403.67 331.39L403.79 331.11L403.9 330.83L404 330.54L404.09 330.25L404.17 329.95L404.24 329.64L404.3 329.32L404.35 329L404.39 328.67L404.42 328.34L404.43 328L404.44 327.65L404.44 248.43L404.43 248.08L404.42 247.74L404.39 247.41L404.35 247.08L404.3 246.76L404.24 246.44L404.17 246.14L404.09 245.83L404 245.54L403.9 245.25L403.79 244.97L403.67 244.7L403.54 244.43L403.4 244.18L403.25 243.93L403.09 243.68L402.92 243.45L402.74 243.23L402.56 243.01L402.36 242.8L402.16 242.6L401.95 242.41L401.73 242.23L401.51 242.06L401.27 241.89L401.03 241.74L400.78 241.6L400.52 241.46L400.25 241.34L399.98 241.22L399.7 241.12L399.42 241.02L399.12 240.94L398.82 240.87L398.52 240.81L398.2 240.76L397.88 240.72L397.56 240.69L397.23 240.67L396.89 240.66L267.06 240.66L266.68 240.82ZM328.83 160.03L327.28 160.2L325.74 160.43L324.22 160.73L322.72 161.09L321.24 161.52L319.78 162L318.34 162.54L316.92 163.14L315.54 163.79L314.17 164.5L312.84 165.26L311.54 166.07L310.27 166.93L309.03 167.84L307.82 168.8L306.65 169.8L305.52 170.84L304.42 171.93L303.37 173.05L302.35 174.22L301.38 175.42L300.45 176.67L299.57 177.94L298.73 179.25L297.94 180.59L297.21 181.96L296.52 183.36L295.88 184.79L295.3 186.25L294.77 187.73L294.31 189.23L293.89 190.75L293.54 192.3L293.25 193.86L293.02 195.44L292.86 197.04L292.76 198.65L292.72 200.28L292.72 228.24L371.23 228.24L371.23 200.28L371.19 198.65L371.09 197.04L370.93 195.44L370.7 193.86L370.41 192.3L370.05 190.75L369.64 189.23L369.17 187.73L368.65 186.25L368.07 184.79L367.43 183.36L366.74 181.96L366 180.59L365.22 179.25L364.38 177.94L363.5 176.67L362.57 175.42L361.6 174.22L360.58 173.05L359.53 171.93L358.43 170.84L357.3 169.8L356.13 168.8L354.92 167.84L353.68 166.93L352.41 166.07L351.11 165.26L349.77 164.5L348.41 163.79L347.02 163.14L345.61 162.54L344.17 162L342.71 161.52L341.23 161.09L339.73 160.73L338.21 160.43L336.67 160.2L335.12 160.03L333.55 159.92L331.97 159.89L330.39 159.92L328.83 160.03Z" id="gemIGj4z"></path></defs><g><g><g><use xlink:href="#cRUabLpvc" opacity="1" fill="#f5f5f5" fill-opacity="1"></use><g><use xlink:href="#cRUabLpvc" opacity="1" fill-opacity="0" stroke="#000000" stroke-width="4" stroke-opacity="0"></use></g></g><g><use xlink:href="#gemIGj4z" opacity="1" fill="#f5f5f5" fill-opacity="1"></use></g></g></g></svg>