<svg width="640" height="640" version="1.1" viewBox="0 0 640 640" xmlns="http://www.w3.org/2000/svg" xmlns:xlink="http://www.w3.org/1999/xlink">
 <defs>
  <path id="cRUabLpvc" d="m363.8 28.99 4.42 0.5 4.41 0.7 4.39 0.9 4.38 1.09 4.37 1.3 4.36 1.49 4.35 1.7 4.33 1.89 4.33 2.1 4.31 2.29 4.29 2.49 4.29 2.69 4.27 2.89 4.26 3.09 4.25 3.29 4.24 3.49 4.23 3.68 4.21 3.89 4.2 4.09 4.19 4.28 4.18 4.49 4.16 4.68 4.15 4.89 4.14 5.08 4.13 5.28 4.12 5.48 4.1 5.68 4.09 5.88 4.08 6.08 4.07 6.28 4.06 6.48 4.04 6.68 4.03 6.87 4.02 7.08 4.01 7.28 3.99 7.47 3.99 7.68 3.97 7.87 3.87 1.04 3.82 1.17 3.77 1.3 3.71 1.42 3.65 1.55 3.59 1.66 3.53 1.79 3.46 1.89 3.39 2 3.32 2.12 3.24 2.21 3.17 2.32 3.1 2.42 3.01 2.52 2.93 2.6 2.84 2.7 2.75 2.79 2.67 2.87 2.57 2.95 2.48 3.04 2.38 3.1 2.27 3.19 2.18 3.25 2.07 3.32 1.97 3.39 1.86 3.45 1.74 3.5 1.63 3.57 1.51 3.61 1.4 3.67 1.27 3.72 1.15 3.76 1.02 3.8 0.9 3.85 0.76 3.88 0.63 3.91 0.49 3.94 0.36 3.98 0.21 3.99 0.08 4.02-0.1 4.85-0.3 4.81-0.49 4.75-0.68 4.69-0.87 4.63-1.05 4.57-1.23 4.49-1.4 4.43-1.57 4.35-1.74 4.27-1.91 4.19-2.06 4.1-2.21 4-2.37 3.92-2.51 3.81-2.66 3.71-2.8 3.6-2.93 3.5-3.06 3.38-3.2 3.26-3.31 3.14-3.44 3.01-3.55 2.89-3.66 2.75-3.78 2.61-3.87 2.47-3.98 2.33-4.07 2.18-4.17 2.03-4.26 1.87-4.34 1.71-4.42 1.55-4.5 1.38-4.57 1.21-4.65 1.03-4.7 0.85-4.77 0.67-4.83 0.48-4.88 0.3-4.94 0.1h-351.54l-5.32-0.11-5.27-0.32-5.21-0.52-5.14-0.72-5.08-0.93-5-1.11-4.92-1.31-4.84-1.49-4.76-1.67-4.67-1.84-4.57-2.02-4.48-2.19-4.37-2.35-4.27-2.51-4.16-2.67-4.05-2.82-3.93-2.96-3.8-3.11-3.69-3.24-3.55-3.38-3.42-3.51-3.28-3.63-3.13-3.76-3-3.87-2.84-3.99-2.69-4.1-2.53-4.2-2.37-4.3-2.2-4.4-2.03-4.48-1.86-4.58-1.68-4.66-1.49-4.74-1.31-4.82-1.12-4.88-0.93-4.95-0.72-5.02-0.53-5.07-0.32-5.13-0.1-5.17 0.05-3.45 0.16-3.45 0.27-3.44 0.37-3.44 0.48-3.44 0.57-3.43 0.68-3.41 0.77-3.41 0.87-3.38 0.97-3.37 1.06-3.35 1.15-3.33 1.24-3.3 1.32-3.27 1.42-3.25 1.5-3.21 1.59-3.18 1.66-3.14 1.75-3.1 1.83-3.06 1.91-3.02 1.98-2.97 2.05-2.92 2.13-2.87 2.2-2.82 2.27-2.76 2.34-2.7 2.41-2.65 2.47-2.58 2.53-2.51 2.59-2.45 2.66-2.38 2.71-2.3 2.78-2.23 2.82-2.16 2.89-2.08 2.93-1.99 2.98-1.91 3.04-1.82 3.08-1.74v-3.46l0.08-3.63 0.22-3.59 0.37-3.54 0.52-3.51 0.65-3.47 0.79-3.41 0.93-3.37 1.05-3.31 1.19-3.26 1.31-3.2 1.43-3.14 1.55-3.07 1.67-3.01 1.78-2.93 1.89-2.86 2-2.79 2.1-2.7 2.2-2.62 2.31-2.54 2.39-2.45 2.49-2.36 2.58-2.27 2.67-2.16 2.75-2.07 2.83-1.97 2.91-1.86 2.98-1.75 3.06-1.64 3.12-1.53 3.19-1.4 3.25-1.29 3.32-1.17 3.37-1.04 3.42-0.91 3.47-0.77 3.52-0.65 3.57-0.5 3.61-0.37 3.65-0.22 3.68-0.07h0.2 0.2l0.42 0.02 0.21 0.02 0.22 0.01 0.21 0.02 0.22 0.02 0.23 0.02 0.22 0.02 0.46 0.06 0.24 0.02 0.23 0.03 0.72 0.09 0.24 0.04 0.25 0.03 0.24 0.03 0.25 0.03 0.25 0.04 0.26 0.03 0.5 0.06 0.52 0.06 0.25 0.03 0.26 0.02 0.26 0.03 0.52 0.04 0.27 0.02 0.52 0.04 0.26 0.01 0.27 0.01 0.26 0.01h0.27 0.26l0.13 0.13 0.07 0.06 0.07 0.05 0.06 0.05 0.07 0.05 0.06 0.04 0.07 0.05 0.07 0.04 0.06 0.04 0.07 0.03 0.06 0.03 0.14 0.06 0.06 0.03 0.07 0.02 0.06 0.03 0.14 0.04 0.06 0.01 0.07 0.02 0.06 0.01 0.07 0.01 0.07 0.02 0.06 0.01h0.07l0.07 0.01 0.06 0.01h0.07l0.06 0.01h0.07 0.07l0.06 0.01h0.07 0.06 0.07 0.07 0.06 0.07 0.06 0.2 0.19 0.19 0.19 0.19 0.18l0.18 0.01h0.18 0.17 0.18l0.17 0.01h0.17l0.68 0.04 0.16 0.01 0.17 0.01 0.16 0.01 0.17 0.02 0.16 0.02 0.17 0.02 0.16 0.02 0.34 0.04 0.17 0.03 0.16 0.03 0.17 0.03 0.18 0.03 0.17 0.04 0.17 0.03 0.18 0.04 0.18 0.05 0.18 0.04 0.36 0.1 0.19 0.06 0.19 0.05 0.2 0.06 0.19 0.07h0.07 0.07l0.07 0.01 0.08 0.01 0.08 0.02 0.08 0.01 0.09 0.02 0.08 0.02 0.18 0.04 0.09 0.03 0.1 0.03 0.09 0.02 0.1 0.03 0.09 0.03 0.2 0.06 0.1 0.04 0.1 0.03 0.19 0.06 0.1 0.04 0.3 0.09 0.09 0.03 0.1 0.03 0.09 0.03 0.1 0.02 0.09 0.03 0.18 0.04 0.08 0.02 0.09 0.02 0.08 0.02 0.08 0.01 0.07 0.01 0.08 0.01h0.07 0.07l0.13 0.07 0.28 0.12 0.14 0.05 0.15 0.05 0.14 0.05 0.15 0.05 0.16 0.04 0.15 0.05 0.16 0.04 0.15 0.04 0.16 0.04 0.16 0.03 0.17 0.04 0.16 0.04 0.16 0.03 0.17 0.03 0.16 0.04 0.17 0.03 0.33 0.06 0.16 0.04 0.17 0.03 0.16 0.03 0.16 0.04 0.17 0.03 0.16 0.04 0.16 0.03 0.32 0.08 0.15 0.04 0.16 0.05 0.15 0.04 0.3 0.1 0.14 0.05 0.14 0.06 0.14 0.05 0.14 0.06 0.13 0.07h0.07 0.07 0.08 0.07 0.08 0.08 0.09 0.08l0.09 0.01h0.09l0.09 0.01h0.1l0.09 0.01h0.1l0.09 0.01 0.2 0.02 0.1 0.02 0.1 0.01 0.1 0.02 0.1 0.01 0.09 0.02 0.2 0.04 0.2 0.06 0.09 0.02 0.1 0.04 0.18 0.06 0.18 0.08 0.08 0.04 0.09 0.05 0.24 0.15 0.21 0.18 0.2 0.07 0.19 0.06 0.19 0.07 0.19 0.06 0.18 0.07 0.18 0.06 0.18 0.07 0.18 0.06 0.17 0.07 0.17 0.06 0.17 0.07 0.16 0.06 0.17 0.07 0.16 0.06 0.16 0.07 0.15 0.06 0.16 0.07 0.15 0.06 0.15 0.07 0.15 0.06 0.15 0.07 0.15 0.06 0.14 0.07 0.14 0.06 0.15 0.07 0.14 0.06 0.14 0.07 0.14 0.06 0.13 0.07 0.14 0.06 0.14 0.07 0.13 0.06 0.14 0.07 0.13 0.06 0.13 0.07 0.14 0.06 0.13 0.07 0.13 0.06 0.13 0.07 0.14 0.06 0.06 0.01h0.07l0.06 0.01 0.14 0.02 0.06 0.02 0.07 0.01 0.06 0.02 0.07 0.03 0.07 0.02 0.06 0.02 0.07 0.03 0.06 0.03 0.14 0.06 0.06 0.03 0.14 0.06 0.06 0.04 0.13 0.06 0.14 0.06 0.06 0.04 0.07 0.03 0.06 0.03 0.07 0.03 0.07 0.02 0.06 0.03 0.07 0.03 0.06 0.02 0.14 0.04 0.06 0.02 0.07 0.01 0.06 0.02 0.07 0.01h0.07l0.06 0.01h0.07l2.48-3.15 2.55-3.09 2.62-3.03 2.69-2.97 2.76-2.89 2.82-2.83 2.88-2.77 2.95-2.7 3.01-2.62 3.06-2.56 3.12-2.49 3.18-2.41 3.23-2.35 3.28-2.27 3.34-2.19 3.38-2.12 3.43-2.05 3.48-1.97 3.52-1.89 3.56-1.81 3.61-1.73 3.64-1.65 3.69-1.57 3.72-1.48 3.75-1.41 3.79-1.32 3.82-1.23 3.85-1.15 3.88-1.06 3.9-0.98 3.94-0.88 3.95-0.8 3.98-0.71 4-0.61 4.02-0.52 4.03-0.43 4.06-0.34 4.06-0.24 4.08-0.15 4.1-0.04 4.44 0.1 4.43 0.29zm-18.53 20.57-3.5 0.21-3.5 0.29-3.5 0.38-3.49 0.45-3.48 0.53-3.48 0.62-3.46 0.69-3.45 0.77-3.43 0.85-3.41 0.92-3.4 1-3.37 1.07-3.35 1.15-3.33 1.22-3.3 1.3-3.27 1.36-3.23 1.44-3.21 1.51-3.17 1.58-3.13 1.65-3.1 1.71-3.05 1.79-3.02 1.85-2.97 1.91-2.92 1.99-2.87 2.04-2.83 2.11-2.77 2.18-2.72 2.24-2.66 2.29-2.61 2.36-2.55 2.43-2.48 2.48-2.42 2.53-2.36 2.6-2.29 2.66-2.22 2.71-2.15 2.76 1.44 1.25 1.41 1.28 1.39 1.31 1.35 1.33 1.33 1.36 1.3 1.39 1.28 1.42 1.24 1.44 1.21 1.46 1.18 1.49 1.15 1.52 1.12 1.54 1.08 1.56 1.05 1.59 1.02 1.6 0.98 1.63 0.95 1.66 0.92 1.67 0.88 1.69 0.84 1.71 0.81 1.74 0.77 1.75 0.74 1.77 0.69 1.78 0.66 1.81 0.62 1.82 0.58 1.84 0.54 1.86 0.5 1.87 0.45 1.88 0.42 1.9 0.38 1.92 0.33 1.92 0.29 1.95 0.25 1.95 0.2 1.97 0.16 1.97 0.11 1.99 0.07 2 0.02 2.01v0.39l-0.03 0.39-0.04 0.38-0.05 0.37-0.16 0.74-0.1 0.36-0.12 0.36-0.12 0.35-0.15 0.35-0.15 0.33-0.17 0.33-0.18 0.33-0.19 0.32-0.42 0.6-0.23 0.3-0.24 0.28-0.25 0.27-0.26 0.27-0.27 0.25-0.28 0.25-0.58 0.46-0.31 0.21-0.31 0.2-0.32 0.19-0.33 0.18-0.68 0.32-0.35 0.14-0.72 0.24-0.74 0.18-0.38 0.07-0.38 0.05-0.39 0.04-0.39 0.03-0.4 0.01-0.39-0.01-0.39-0.03-0.39-0.04-0.38-0.05-0.38-0.07-0.38-0.09-0.36-0.09-0.37-0.12-0.35-0.12-0.35-0.14-0.35-0.16-0.33-0.16-0.33-0.18-0.32-0.19-0.32-0.2-0.3-0.21-0.3-0.23-0.29-0.23-0.28-0.25-0.27-0.25-0.26-0.27-0.24-0.27-0.24-0.28-0.23-0.3-0.22-0.3-0.2-0.3-0.19-0.32-0.18-0.33-0.17-0.33-0.16-0.33-0.14-0.35-0.13-0.35-0.11-0.36-0.1-0.36-0.09-0.37-0.07-0.37-0.06-0.37-0.04-0.38-0.02-0.39-0.01-0.39-0.02-1.81-0.07-1.81-0.12-1.79-0.15-1.78-0.21-1.77-0.24-1.76-0.29-1.74-0.34-1.73-0.37-1.71-0.42-1.7-0.46-1.68-0.5-1.67-0.54-1.65-0.58-1.62-0.61-1.61-0.66-1.6-0.7-1.57-0.73-1.55-0.77-1.52-0.81-1.51-0.84-1.48-0.88-1.46-0.92-1.44-0.95-1.41-0.98-1.39-1.02-1.36-1.05-1.33-1.09-1.31-1.12-1.27-1.14-1.25-1.18-1.22-1.22-1.19-1.24-1.16-1.27-1.13-1.3-1.1-1.33-1.06-1.36-1.04-1.38-0.99-1.42-0.97-1.44-0.92-0.19-0.07-0.2-0.07-0.19-0.07-0.19-0.08-0.72-0.32-0.18-0.09-0.34-0.18-0.18-0.09-0.17-0.09-0.16-0.1-0.17-0.09-0.17-0.1-0.17-0.09-0.16-0.1-0.17-0.1-0.33-0.19-0.16-0.1-0.17-0.1-0.16-0.09-0.34-0.2-0.68-0.36-0.18-0.09-0.17-0.09-0.18-0.08-0.18-0.09-0.18-0.08-0.19-0.08-0.57-0.21-0.2-0.07v-0.01h-0.01l-0.08-0.08-0.06-0.04-0.06-0.06-0.03-0.02-0.12-0.09-0.05-0.04-0.04-0.03-0.1-0.06-0.05-0.04-0.1-0.06-0.06-0.03-0.05-0.03-0.24-0.12-0.12-0.04-0.07-0.03-0.06-0.02-0.06-0.01-0.07-0.02-0.06-0.01-0.14-0.02h-0.06l-0.07-0.01-0.2-0.12-0.19-0.13-0.6-0.36-0.4-0.22-0.19-0.11-0.2-0.1-0.2-0.11-0.4-0.2-0.19-0.09-0.2-0.09-0.2-0.1-0.2-0.09-0.2-0.08-0.2-0.09-0.19-0.08-1-0.4-0.19-0.07-0.2-0.08-0.6-0.21-0.19-0.07-0.4-0.14-0.2-0.06-0.4-0.14-0.19-0.06-0.2-0.07-0.2-0.06-0.2-0.07-0.2-0.06h-0.88l-0.2-0.07-0.19-0.06-0.2-0.05-0.2-0.06-0.6-0.15-0.19-0.04-0.2-0.05-0.6-0.12-0.2-0.03-0.19-0.04-0.2-0.03-0.2-0.04-0.4-0.06-0.19-0.04-0.6-0.09-0.2-0.04-0.2-0.03-0.19-0.04-0.2-0.03-0.2-0.04-0.2-0.03-0.4-0.08-0.19-0.04-0.2-0.05-0.2-0.04-0.4-0.1-0.19-0.05-0.2-0.05-0.4-0.12-0.2-0.07h-2.64l-0.4-0.12-0.21-0.06-0.63-0.15-0.22-0.05-0.66-0.12-0.22-0.03-0.23-0.04-0.23-0.03-0.22-0.02-0.46-0.06-0.46-0.04-0.24-0.02-0.23-0.01-0.23-0.02-0.23-0.01-0.23-0.02-0.69-0.03h-0.23l-0.22-0.01h-0.23l-0.22-0.01h-0.22l-0.22-0.01h-0.22-0.22-0.21-0.21-0.21-0.21-0.2-0.2l-2.83 0.05-2.81 0.17-2.77 0.28-2.75 0.38-2.71 0.5-2.68 0.59-2.64 0.69-2.6 0.8-2.56 0.89-2.51 0.98-2.47 1.08-2.41 1.17-2.37 1.26-2.31 1.34-2.25 1.43-2.2 1.5-2.13 1.59-2.07 1.67-2.01 1.74-1.93 1.82-1.86 1.89-1.79 1.96-1.72 2.02-1.64 2.09-1.55 2.15-1.47 2.22-1.39 2.27-1.3 2.33-1.21 2.38-1.12 2.44-1.02 2.48-0.92 2.54-0.83 2.58-0.72 2.63-0.62 2.66-0.51 2.71-0.4 2.74-0.29 2.78-0.18 2.82-0.06 2.84v15.6l-5.28 2.6-2.76 1.35-2.72 1.44-2.68 1.52-2.63 1.62-2.6 1.7-2.55 1.78-2.5 1.86-2.46 1.93-2.41 2.01-2.35 2.08-2.3 2.15-2.25 2.22-2.19 2.28-2.14 2.35-2.07 2.4-2.02 2.46-1.95 2.51-1.88 2.56-1.82 2.61-1.76 2.66-1.68 2.71-1.61 2.74-1.54 2.78-1.47 2.82-1.39 2.85-1.31 2.89-1.23 2.91-1.15 2.94-1.07 2.96-0.98 2.99-0.9 3-0.81 3.02-0.72 3.03-0.63 3.05-0.54 3.05-0.45 3.06-0.35 3.06-0.25 3.06-0.15 3.06-0.05 3.06 0.09 4.4 0.27 4.35 0.44 4.31 0.62 4.25 0.78 4.19 0.95 4.14 1.11 4.07 1.26 4.01 1.42 3.94 1.57 3.86 1.72 3.79 1.86 3.71 2 3.62 2.13 3.54 2.27 3.45 2.4 3.35 2.53 3.26 2.65 3.16 2.77 3.05 2.88 2.95 3 2.84 3.1 2.72 3.21 2.61 3.31 2.48 3.41 2.36 3.51 2.23 3.6 2.11 3.68 1.96 3.77 1.83 3.85 1.69 3.93 1.55 4 1.39 4.08 1.25 4.14 1.09 4.2 0.93 4.27 0.77 4.32 0.6 4.38 0.44 4.42 0.26 4.47 0.09h350.66l4.14-0.08 4.1-0.25 4.06-0.4 4-0.56 3.95-0.71 3.89-0.87 3.84-1.01 3.77-1.15 3.7-1.29 3.64-1.43 3.56-1.56 3.48-1.69 3.4-1.82 3.32-1.94 3.23-2.06 3.14-2.18 3.05-2.29 2.95-2.4 2.85-2.51 2.75-2.62 2.64-2.71 2.52-2.81 2.42-2.91 2.29-3 2.18-3.08 2.05-3.17 1.92-3.25 1.79-3.33 1.66-3.41 1.52-3.47 1.38-3.54 1.23-3.61 1.09-3.67 0.93-3.73 0.78-3.79 0.62-3.83 0.46-3.89 0.3-3.93 0.13-3.97-0.05-4.01-0.07-3.5-0.19-3.48-0.32-3.47-0.45-3.43-0.58-3.41-0.69-3.38-0.81-3.34-0.93-3.31-1.04-3.28-1.16-3.23-1.26-3.18-1.37-3.14-1.48-3.1-1.58-3.03-1.68-2.99-1.78-2.92-1.88-2.87-1.97-2.8-2.06-2.74-2.16-2.67-2.24-2.59-2.32-2.52-2.41-2.45-2.49-2.36-2.57-2.29-2.65-2.19-2.72-2.11-2.79-2.02-2.86-1.93-2.93-1.83-2.99-1.72-3.05-1.63-3.12-1.52-3.18-1.42-3.23-1.31-3.29-1.19-3.33-1.07-3.39-0.96-3.44-0.84-3.48-0.71-0.11-0.01-0.19-0.02-0.27-0.03-0.35-0.04-0.43-0.04-0.51-0.06-0.57-0.06-0.65-0.07-0.71-0.08-0.78-0.08-0.84-0.08-0.9-0.09-0.96-0.08-1.01-0.09-1.07-0.09-1.12-0.08-1.17-0.08-1.22-0.08-1.25-0.07-1.31-0.07-1.34-0.06-1.38-0.06-1.41-0.04-1.45-0.04-1.47-0.03-1.51-0.01h-1.53l-1.55 0.01-1.58 0.02-1.59 0.05-1.61 0.05-1.62 0.08-1.64 0.09-1.65 0.11-1.65 0.13-1.66 0.16-1.66 0.17-1.66 0.2-1.66 0.22-1.65 0.25h-1.77l-0.33-0.01-0.33-0.02-0.33-0.03-0.32-0.04-0.33-0.06-0.33-0.07-0.32-0.08-0.32-0.09-0.32-0.11-0.31-0.11-0.32-0.13-0.31-0.14-0.3-0.15-0.3-0.16-0.3-0.17-0.29-0.18-0.56-0.4-0.28-0.21-0.52-0.46-0.26-0.24-0.25-0.25-0.23-0.26-0.24-0.27-0.22-0.28-0.42-0.58-0.38-0.62-0.18-0.32-0.16-0.33-0.16-0.34-0.15-0.34-0.13-0.35-0.12-0.36-0.11-0.37-0.1-0.37-0.08-0.38-0.08-0.39-0.06-0.39-0.04-0.39-0.02-0.39-0.01-0.38v-0.39l0.02-0.38 0.04-0.38 0.05-0.38 0.07-0.38 0.08-0.37 0.09-0.37 0.11-0.36 0.12-0.36 0.13-0.35 0.15-0.35 0.16-0.34 0.17-0.34 0.19-0.32 0.4-0.64 0.22-0.3 0.24-0.3 0.24-0.28 0.25-0.28 0.27-0.27 0.27-0.26 0.29-0.25 0.29-0.23 0.31-0.23 0.31-0.21 0.32-0.2 0.33-0.19 0.34-0.17 0.35-0.17 0.72-0.28 0.37-0.12 0.38-0.1 0.39-0.09 0.39-0.07 1.13-0.13 2.24-0.24 1.12-0.1 1.12-0.11 1.12-0.09 1.11-0.09 2.22-0.16 1.11-0.07 1.1-0.07 2.18-0.12 1.09-0.04 1.08-0.05 1.07-0.04 1.07-0.03 1.06-0.03 2.1-0.04 1.03-0.02 1.03-0.01h1.02 1.01l1 0.01h0.99l0.98 0.02 1.92 0.04 0.94 0.02 0.94 0.04 0.91 0.03 0.91 0.04 0.89 0.04 0.88 0.05 0.86 0.05 0.85 0.05 0.83 0.06 0.82 0.06 0.8 0.06-0.57-5.63-0.79-5.56-0.99-5.51-1.2-5.43-1.4-5.37-1.6-5.28-1.79-5.21-1.98-5.11-2.16-5.03-2.35-4.94-2.52-4.84-2.69-4.73-2.86-4.63-3.02-4.52-3.18-4.4-3.34-4.28-3.48-4.15-3.64-4.03-3.77-3.9-3.92-3.76-4.04-3.61-4.18-3.48-4.3-3.32-4.43-3.16-4.54-3.01-4.65-2.85-4.76-2.68-4.87-2.51-4.97-2.33-5.06-2.15-5.15-1.96-5.24-1.78-5.33-1.59-5.4-1.38-5.48-1.19-5.55-0.98-5.61-0.77-5.68-0.56-5.74-0.33-5.79-0.11-3.5 0.04-3.51 0.12z"/>
  <path id="gemIGj4z" d="m335.4 139.9 2.43 0.26 2.4 0.35 2.37 0.45 2.33 0.55 2.3 0.64 2.27 0.73 2.23 0.81 2.18 0.91 2.15 0.99 2.1 1.07 2.05 1.15 2 1.23 1.96 1.3 1.9 1.38 1.85 1.46 1.79 1.52 1.73 1.59 1.67 1.66 1.61 1.72 1.55 1.78 1.48 1.84 1.41 1.91 1.34 1.95 1.27 2.01 1.2 2.07 1.12 2.11 1.04 2.16 0.96 2.2 0.88 2.25 0.79 2.29 0.71 2.34 0.62 2.36 0.53 2.41 0.44 2.44 0.34 2.46 0.25 2.5 0.15 2.53 0.05 2.55v26.41h4.53l0.79 0.01 0.78 0.06 0.78 0.08 0.77 0.12 0.76 0.15 0.75 0.18 0.74 0.21 0.73 0.24 0.72 0.27 0.71 0.3 0.69 0.33 0.68 0.35 0.67 0.38 0.65 0.41 0.64 0.43 0.62 0.45 0.6 0.48 0.58 0.5 0.57 0.52 0.55 0.55 0.53 0.56 0.5 0.58 0.49 0.61 0.46 0.62 0.44 0.63 0.42 0.66 0.4 0.67 0.37 0.68 0.34 0.7 0.32 0.72 0.29 0.73 0.26 0.74 0.24 0.75 0.2 0.76 0.18 0.77 0.14 0.78 0.12 0.79 0.08 0.8 0.05 0.81 0.02 0.81v79.22l0.09 0.93 0.06 0.91 0.01 0.9-0.02 0.89-0.06 0.88-0.09 0.85-0.13 0.85-0.16 0.83-0.2 0.81-0.23 0.79-0.27 0.78-0.29 0.76-0.33 0.74-0.36 0.72-0.38 0.7-0.42 0.69-0.44 0.66-0.48 0.64-0.49 0.61-0.53 0.6-0.55 0.57-0.58 0.54-0.59 0.53-0.63 0.49-0.64 0.48-0.67 0.44-0.69 0.42-0.71 0.39-0.73 0.36-0.74 0.34-0.77 0.31-0.78 0.27-0.81 0.25-0.81 0.21-0.84 0.19-0.84 0.15-0.86 0.12-0.88 0.08-0.89 0.05-0.9 0.02h-129.83l-0.79-0.02-0.79-0.05-0.77-0.08-0.77-0.12-0.76-0.15-0.75-0.18-0.74-0.21-0.73-0.25-0.72-0.27-0.71-0.3-0.69-0.32-0.68-0.36-0.67-0.38-0.65-0.4-0.64-0.43-0.62-0.46-0.6-0.47-0.58-0.5-0.57-0.53-0.55-0.54-0.53-0.56-0.5-0.59-0.49-0.6-0.46-0.62-0.45-0.64-0.41-0.65-0.4-0.67-0.37-0.69-0.34-0.7-0.32-0.71-0.29-0.73-0.26-0.74-0.24-0.75-0.2-0.76-0.18-0.77-0.14-0.79-0.12-0.79-0.08-0.8-0.05-0.8-0.02-0.81v-79.23l0.02-0.81 0.05-0.8 0.08-0.8 0.12-0.79 0.14-0.79 0.18-0.77 0.2-0.76 0.24-0.75 0.26-0.74 0.29-0.73 0.32-0.71 0.34-0.7 0.37-0.69 0.4-0.67 0.41-0.65 0.45-0.64 0.46-0.62 0.49-0.6 0.5-0.59 0.53-0.56 0.55-0.54 0.57-0.53 0.58-0.5 0.6-0.47 0.62-0.46 0.64-0.43 0.65-0.4 0.67-0.38 0.68-0.36 0.69-0.32 0.71-0.3 0.72-0.27 0.73-0.24 0.74-0.22 0.75-0.18 0.76-0.15 0.77-0.12 0.77-0.08 0.79-0.05 0.79-0.02h4.53v-27.96l0.05-2.55 0.15-2.53 0.25-2.5 0.34-2.46 0.44-2.44 0.53-2.41 0.62-2.36 0.71-2.34 0.79-2.29 0.88-2.25 0.96-2.2 1.04-2.16 1.12-2.11 1.2-2.07 1.27-2.01 1.34-1.95 1.41-1.91 1.48-1.84 1.54-1.78 1.62-1.72 1.67-1.66 1.73-1.59 1.79-1.52 1.85-1.46 1.9-1.38 1.96-1.3 2-1.23 2.05-1.15 2.1-1.07 2.15-0.99 2.18-0.91 2.23-0.81 2.27-0.73 2.3-0.64 2.33-0.55 2.37-0.45 2.4-0.35 2.43-0.26 2.46-0.15 2.47-0.06 2.48 0.06 2.46 0.15zm-68.72 100.92-0.36 0.16-0.7 0.32-0.33 0.17-0.33 0.16-0.62 0.34-0.3 0.17-0.29 0.17-0.54 0.36-0.26 0.18-0.25 0.18-0.24 0.18-0.46 0.38-0.21 0.18-0.58 0.58-0.34 0.4-0.3 0.4-0.14 0.21-0.12 0.21-0.12 0.2-0.11 0.22-0.1 0.21-0.09 0.21-0.08 0.22-0.07 0.22-0.06 0.22-0.1 0.44-0.03 0.23-0.04 0.46v0.23 79.22 0.35l0.02 0.34 0.03 0.33 0.04 0.33 0.05 0.32 0.06 0.32 0.07 0.31 0.08 0.3 0.09 0.29 0.1 0.29 0.11 0.28 0.12 0.28 0.13 0.26 0.14 0.26 0.15 0.25 0.16 0.24 0.34 0.46 0.19 0.22 0.19 0.2 0.21 0.2 0.21 0.19 0.22 0.19 0.22 0.17 0.24 0.16 0.24 0.15 0.25 0.15 0.52 0.26 0.56 0.22 0.28 0.09 0.6 0.16 0.3 0.06 0.31 0.05 0.32 0.04 0.33 0.03 0.33 0.01 0.34 0.01h129.83l0.34-0.01 0.33-0.01 0.32-0.03 0.32-0.04 0.32-0.05 0.3-0.06 0.6-0.16 0.28-0.09 0.28-0.11 0.27-0.11 0.27-0.13 0.26-0.13 0.25-0.15 0.24-0.15 0.24-0.16 0.22-0.17 0.22-0.19 0.21-0.19 0.4-0.4 0.18-0.22 0.18-0.23 0.17-0.23 0.16-0.24 0.15-0.25 0.14-0.26 0.13-0.26 0.12-0.28 0.11-0.28 0.1-0.29 0.09-0.29 0.08-0.3 0.07-0.31 0.06-0.32 0.05-0.32 0.04-0.33 0.03-0.33 0.01-0.34 0.01-0.35v-79.22l-0.01-0.35-0.01-0.34-0.03-0.33-0.04-0.33-0.05-0.32-0.06-0.32-0.07-0.3-0.08-0.31-0.09-0.29-0.1-0.29-0.11-0.28-0.12-0.27-0.13-0.27-0.14-0.25-0.15-0.25-0.16-0.25-0.17-0.23-0.36-0.44-0.2-0.21-0.2-0.2-0.21-0.19-0.22-0.18-0.22-0.17-0.24-0.17-0.24-0.15-0.25-0.14-0.26-0.14-0.54-0.24-0.56-0.2-0.3-0.08-0.3-0.07-0.3-0.06-0.32-0.05-0.32-0.04-0.32-0.03-0.33-0.02-0.34-0.01h-129.83l-0.38 0.16zm62.15-80.79-1.55 0.17-1.54 0.23-1.52 0.3-1.5 0.36-1.48 0.43-1.46 0.48-1.44 0.54-1.42 0.6-1.38 0.65-1.37 0.71-1.33 0.76-1.3 0.81-1.27 0.86-1.24 0.91-1.21 0.96-1.17 1-1.13 1.04-1.1 1.09-1.05 1.12-1.02 1.17-0.97 1.2-0.93 1.25-0.88 1.27-0.84 1.31-0.79 1.34-0.73 1.37-0.69 1.4-0.64 1.43-0.58 1.46-0.53 1.48-0.46 1.5-0.42 1.52-0.35 1.55-0.29 1.56-0.23 1.58-0.16 1.6-0.1 1.61-0.04 1.63v27.96h78.51v-27.96l-0.04-1.63-0.1-1.61-0.16-1.6-0.23-1.58-0.29-1.56-0.36-1.55-0.41-1.52-0.47-1.5-0.52-1.48-0.58-1.46-0.64-1.43-0.69-1.4-0.74-1.37-0.78-1.34-0.84-1.31-0.88-1.27-0.93-1.25-0.97-1.2-1.02-1.17-1.05-1.12-1.1-1.09-1.13-1.04-1.17-1-1.21-0.96-1.24-0.91-1.27-0.86-1.3-0.81-1.34-0.76-1.36-0.71-1.39-0.65-1.41-0.6-1.44-0.54-1.46-0.48-1.48-0.43-1.5-0.36-1.52-0.3-1.54-0.23-1.55-0.17-1.57-0.11-1.58-0.03-1.58 0.03-1.56 0.11z"/>
 </defs>
 <g transform="translate(6,96)">
  <use width="100%" height="100%" fill="#f5f5f5" xlink:href="#cRUabLpvc"/>
  <use width="100%" height="100%" fill-opacity="0" stroke-opacity="0" xlink:href="#cRUabLpvc"/>
  <use width="100%" height="100%" fill="#f5f5f5" xlink:href="#gemIGj4z"/>
 </g>
</svg>
