<?xml version="1.0" encoding="UTF-8" standalone="no"?>
<!DOCTYPE svg PUBLIC "-//W3C//DTD SVG 1.1//EN" "http://www.w3.org/Graphics/SVG/1.1/DTD/svg11.dtd">
<svg version="1.1" xmlns="http://www.w3.org/2000/svg" xmlns:xlink="http://www.w3.org/1999/xlink" preserveAspectRatio="xMidYMid meet" viewBox="0 0 640 640" width="640" height="640"><defs><path d="M371.81 59.87L376.37 60.5L380.93 61.38L385.47 62.52L390 63.91L394.51 65.55L399.02 67.45L403.51 69.59L407.99 71.99L412.45 74.65L416.91 77.55L421.35 80.71L425.78 84.12L430.19 87.79L434.6 91.7L438.99 95.87L443.37 100.29L447.73 104.97L452.09 109.89L456.43 115.07L460.76 120.5L465.07 126.19L469.38 132.13L473.67 138.32L477.95 144.76L482.21 151.45L486.46 158.4L490.71 165.6L494.93 173.05L499.15 180.76L503.35 188.72L507.54 196.93L511.72 205.39L515.89 214.11L520.04 223.08L524.18 232.3L528.31 241.78L532.43 251.5L536.53 261.48L540.53 262.8L544.48 264.29L548.37 265.93L552.21 267.74L555.98 269.7L559.69 271.81L563.33 274.06L566.91 276.46L570.41 279.01L573.84 281.68L577.2 284.49L580.47 287.43L583.67 290.5L586.78 293.69L589.81 296.99L592.74 300.41L595.59 303.94L598.34 307.58L601 311.33L603.56 315.17L606.02 319.11L608.37 323.14L610.62 327.27L612.76 331.48L614.8 335.77L616.71 340.14L618.52 344.58L620.2 349.1L621.76 353.69L623.2 358.34L624.52 363.05L625.71 367.81L626.76 372.64L627.69 377.51L628.48 382.42L629.13 387.38L629.64 392.38L630.01 397.42L630.23 402.48L630.3 407.58L630.2 413.73L629.89 419.82L629.38 425.83L628.68 431.78L627.78 437.65L626.7 443.44L625.43 449.14L623.98 454.75L622.36 460.27L620.56 465.68L618.59 470.98L616.46 476.18L614.17 481.26L611.73 486.22L609.13 491.05L606.38 495.76L603.49 500.32L600.46 504.75L597.3 509.04L594 513.17L590.57 517.15L587.02 520.97L583.35 524.63L579.57 528.11L575.67 531.43L571.66 534.56L567.55 537.51L563.34 540.27L559.04 542.84L554.64 545.21L550.15 547.38L545.58 549.34L540.93 551.09L536.21 552.62L531.41 553.93L526.54 555.01L521.62 555.86L516.63 556.48L511.58 556.85L506.49 556.97L143.23 556.97L137.72 556.84L132.28 556.44L126.9 555.77L121.58 554.85L116.34 553.69L111.17 552.27L106.09 550.62L101.08 548.73L96.17 546.61L91.35 544.27L86.62 541.71L81.99 538.94L77.47 535.96L73.06 532.78L68.76 529.4L64.58 525.83L60.52 522.07L56.58 518.13L52.78 514.02L49.11 509.74L45.58 505.29L42.19 500.68L38.95 495.92L35.85 491.01L32.92 485.96L30.14 480.77L27.52 475.44L25.08 469.99L22.8 464.42L20.7 458.73L18.78 452.93L17.05 447.02L15.5 441.01L14.15 434.91L12.99 428.72L12.03 422.44L11.28 416.08L10.74 409.65L10.41 403.16L10.3 396.59L10.36 392.23L10.53 387.86L10.8 383.49L11.19 379.13L11.68 374.77L12.27 370.43L12.97 366.1L13.77 361.79L14.67 357.49L15.67 353.22L16.76 348.98L17.95 344.76L19.23 340.58L20.6 336.43L22.07 332.31L23.62 328.24L25.26 324.22L26.98 320.23L28.79 316.3L30.67 312.42L32.64 308.6L34.69 304.84L36.81 301.13L39.01 297.49L41.29 293.92L43.63 290.42L46.05 287L48.53 283.65L51.09 280.37L53.7 277.19L56.39 274.08L59.13 271.07L61.94 268.15L64.8 265.32L67.72 262.59L70.7 259.96L73.73 257.43L76.82 255.01L79.95 252.7L83.14 250.5L83.14 246.1L83.22 241.51L83.45 236.96L83.83 232.46L84.36 228.02L85.04 223.63L85.85 219.3L86.81 215.03L87.9 210.83L89.12 206.7L90.48 202.64L91.96 198.67L93.56 194.77L95.28 190.96L97.12 187.25L99.08 183.62L101.14 180.09L103.31 176.66L105.59 173.34L107.97 170.12L110.45 167.01L113.02 164.02L115.69 161.15L118.45 158.4L121.29 155.78L124.21 153.29L127.22 150.93L130.3 148.71L133.46 146.63L136.69 144.7L139.98 142.91L143.34 141.28L146.76 139.81L150.25 138.49L153.78 137.34L157.37 136.35L161.01 135.53L164.7 134.89L168.43 134.43L172.19 134.15L176 134.06L176.21 134.06L176.42 134.07L176.63 134.08L176.85 134.09L177.07 134.11L177.29 134.13L177.51 134.15L177.74 134.17L177.97 134.2L178.21 134.23L178.44 134.26L178.68 134.3L178.92 134.33L179.16 134.37L179.41 134.41L179.66 134.45L179.91 134.49L180.16 134.53L180.41 134.57L180.67 134.61L180.92 134.65L181.18 134.69L181.44 134.73L181.7 134.77L181.97 134.81L182.23 134.85L182.5 134.88L182.76 134.92L183.03 134.95L183.3 134.99L183.57 135.02L183.84 135.04L184.11 135.07L184.38 135.09L184.65 135.11L184.92 135.13L185.2 135.14L185.47 135.15L185.74 135.15L186.02 135.16L186.08 135.24L186.15 135.31L186.22 135.39L186.29 135.45L186.36 135.52L186.42 135.58L186.49 135.64L186.56 135.69L186.63 135.74L186.7 135.79L186.77 135.84L186.83 135.88L186.9 135.92L186.97 135.95L187.04 135.99L187.11 136.02L187.18 136.05L187.24 136.07L187.31 136.1L187.38 136.12L187.45 136.14L187.52 136.16L187.59 136.17L187.65 136.19L187.72 136.2L187.79 136.21L187.86 136.22L187.93 136.23L188 136.23L188.06 136.24L188.13 136.24L188.2 136.25L188.27 136.25L188.34 136.25L188.41 136.25L188.47 136.25L188.54 136.25L188.61 136.26L188.68 136.26L188.75 136.26L188.95 136.26L189.15 136.26L189.35 136.26L189.54 136.26L189.73 136.26L189.92 136.26L190.11 136.26L190.29 136.26L190.47 136.27L190.65 136.27L190.83 136.28L191.01 136.29L191.18 136.29L191.36 136.3L191.53 136.31L191.7 136.33L191.88 136.34L192.05 136.36L192.22 136.37L192.39 136.39L192.56 136.41L192.73 136.44L192.9 136.46L193.07 136.49L193.25 136.52L193.42 136.56L193.59 136.59L193.77 136.63L193.95 136.67L194.12 136.72L194.3 136.77L194.49 136.82L194.67 136.87L194.86 136.93L195.04 136.99L195.24 137.06L195.43 137.12L195.63 137.2L195.83 137.27L196.03 137.35L196.1 137.36L196.17 137.36L196.25 137.37L196.33 137.38L196.41 137.4L196.49 137.42L196.58 137.44L196.67 137.47L196.76 137.5L196.85 137.53L196.95 137.56L197.05 137.59L197.14 137.63L197.24 137.66L197.34 137.7L197.44 137.74L197.54 137.78L197.65 137.82L197.75 137.86L197.95 137.94L198.06 137.99L198.16 138.03L198.26 138.07L198.36 138.1L198.46 138.14L198.56 138.18L198.66 138.22L198.75 138.25L198.85 138.28L198.94 138.31L199.03 138.34L199.12 138.36L199.21 138.39L199.29 138.41L199.37 138.42L199.45 138.43L199.53 138.44L199.6 138.45L199.67 138.45L199.81 138.53L199.95 138.61L200.1 138.68L200.24 138.75L200.39 138.82L200.55 138.88L200.7 138.94L200.86 139L201.02 139.05L201.18 139.1L201.34 139.16L201.51 139.2L201.67 139.25L201.84 139.3L202.01 139.34L202.18 139.38L202.35 139.43L202.52 139.47L202.69 139.51L203.03 139.59L203.2 139.63L203.37 139.68L203.54 139.72L203.71 139.76L203.88 139.81L204.04 139.85L204.21 139.9L204.37 139.95L204.54 140L204.7 140.05L204.86 140.1L205.01 140.16L205.17 140.22L205.32 140.28L205.47 140.35L205.62 140.42L205.76 140.49L205.91 140.57L206.04 140.65L206.11 140.65L206.19 140.65L206.26 140.65L206.34 140.65L206.43 140.65L206.51 140.65L206.6 140.66L206.69 140.66L206.78 140.66L206.87 140.67L206.96 140.67L207.06 140.68L207.16 140.69L207.26 140.7L207.36 140.71L207.46 140.72L207.56 140.73L207.66 140.75L207.76 140.77L207.87 140.79L207.97 140.81L208.07 140.83L208.17 140.86L208.27 140.89L208.37 140.92L208.47 140.95L208.57 140.99L208.67 141.03L208.77 141.07L208.86 141.11L208.95 141.16L209.05 141.21L209.13 141.27L209.22 141.32L209.31 141.39L209.39 141.45L209.47 141.52L209.54 141.59L209.62 141.67L209.69 141.75L209.89 141.83L210.09 141.91L210.29 141.99L210.48 142.08L210.67 142.16L210.86 142.24L211.04 142.32L211.22 142.41L211.4 142.49L211.58 142.57L211.75 142.65L211.92 142.74L212.09 142.82L212.26 142.9L212.42 142.98L212.59 143.07L212.75 143.15L212.9 143.23L213.06 143.31L213.21 143.4L213.37 143.48L213.52 143.56L213.67 143.64L213.82 143.73L213.96 143.81L214.11 143.89L214.25 143.97L214.4 144.05L214.54 144.14L214.68 144.22L214.82 144.3L214.96 144.38L215.1 144.47L215.24 144.55L215.37 144.63L215.51 144.71L215.65 144.8L215.79 144.88L215.92 144.96L216.06 145.04L216.13 145.05L216.2 145.05L216.26 145.06L216.33 145.07L216.4 145.09L216.47 145.11L216.54 145.13L216.61 145.16L216.67 145.19L216.74 145.21L216.81 145.25L216.88 145.28L216.95 145.32L217.02 145.35L217.08 145.39L217.15 145.43L217.22 145.47L217.29 145.51L217.36 145.55L217.49 145.63L217.56 145.67L217.63 145.72L217.7 145.76L217.77 145.79L217.83 145.83L217.9 145.87L217.97 145.9L218.04 145.94L218.11 145.97L218.18 146L218.24 146.03L218.31 146.05L218.38 146.07L218.45 146.09L218.52 146.11L218.59 146.12L218.65 146.13L218.72 146.14L218.79 146.14L221.35 142.14L223.99 138.23L226.7 134.39L229.48 130.63L232.33 126.96L235.24 123.37L238.22 119.87L241.27 116.45L244.37 113.12L247.54 109.87L250.77 106.72L254.05 103.66L257.39 100.69L260.78 97.81L264.22 95.03L267.72 92.34L271.27 89.75L274.86 87.26L278.5 84.86L282.18 82.57L285.9 80.37L289.67 78.28L293.48 76.29L297.32 74.41L301.2 72.63L305.11 70.95L309.06 69.39L313.04 67.93L317.05 66.59L321.09 65.35L325.15 64.23L329.24 63.22L333.35 62.32L337.48 61.55L341.63 60.88L345.8 60.34L349.99 59.91L354.19 59.61L358.41 59.42L362.64 59.36L367.23 59.49L371.81 59.87ZM352.66 85.94L349.04 86.2L345.42 86.57L341.81 87.04L338.2 87.62L334.6 88.3L331.01 89.07L327.44 89.95L323.87 90.93L320.33 92L316.8 93.17L313.29 94.44L309.8 95.8L306.34 97.25L302.91 98.8L299.5 100.44L296.12 102.18L292.77 104L289.46 105.91L286.19 107.91L282.95 110L279.75 112.17L276.59 114.44L273.48 116.78L270.41 119.21L267.39 121.72L264.42 124.32L261.5 126.99L258.64 129.75L255.83 132.59L253.07 135.5L250.38 138.49L247.75 141.56L245.18 144.7L242.68 147.92L240.24 151.21L237.88 154.58L235.58 158.01L233.36 161.52L234.85 163.1L236.31 164.72L237.74 166.38L239.14 168.07L240.52 169.8L241.86 171.56L243.17 173.35L244.46 175.18L245.71 177.03L246.93 178.92L248.12 180.84L249.27 182.8L250.39 184.78L251.48 186.79L252.53 188.82L253.55 190.89L254.53 192.98L255.47 195.1L256.38 197.25L257.26 199.42L258.09 201.61L258.89 203.83L259.65 206.08L260.36 208.34L261.04 210.63L261.68 212.94L262.28 215.27L262.84 217.62L263.35 219.99L263.83 222.38L264.26 224.79L264.65 227.22L264.99 229.66L265.29 232.12L265.55 234.6L265.76 237.09L265.92 239.6L266.04 242.12L266.11 244.65L266.13 247.2L266.12 247.69L266.1 248.18L266.06 248.66L266 249.14L265.93 249.61L265.84 250.08L265.73 250.54L265.62 250.99L265.48 251.43L265.34 251.87L265.18 252.3L265 252.72L264.82 253.13L264.62 253.53L264.4 253.92L264.18 254.3L263.95 254.67L263.7 255.03L263.44 255.38L263.17 255.71L262.9 256.04L262.61 256.35L262.31 256.65L262 256.93L261.69 257.2L261.36 257.45L261.03 257.7L260.69 257.92L260.34 258.13L259.99 258.32L259.63 258.5L259.26 258.66L258.88 258.8L258.5 258.93L258.12 259.04L257.73 259.12L257.33 259.19L256.93 259.24L256.53 259.27L256.12 259.28L255.71 259.27L255.31 259.24L254.91 259.19L254.51 259.12L254.12 259.04L253.73 258.93L253.35 258.8L252.98 258.66L252.61 258.5L252.25 258.32L251.89 258.13L251.55 257.92L251.21 257.7L250.87 257.45L250.55 257.2L250.23 256.93L249.93 256.65L249.63 256.35L249.34 256.04L249.06 255.71L248.79 255.38L248.54 255.03L248.29 254.67L248.06 254.3L247.83 253.92L247.62 253.53L247.42 253.13L247.23 252.72L247.06 252.3L246.9 251.87L246.75 251.43L246.62 250.99L246.5 250.54L246.4 250.08L246.31 249.61L246.24 249.14L246.18 248.66L246.14 248.18L246.11 247.69L246.1 247.2L246.08 244.9L246.01 242.61L245.89 240.34L245.73 238.08L245.52 235.84L245.26 233.61L244.96 231.4L244.62 229.21L244.23 227.04L243.8 224.89L243.33 222.76L242.81 220.65L242.25 218.56L241.65 216.49L241.01 214.45L240.33 212.44L239.62 210.45L238.86 208.48L238.06 206.54L237.23 204.64L236.35 202.76L235.45 200.9L234.5 199.08L233.52 197.3L232.5 195.54L231.45 193.82L230.36 192.13L229.24 190.47L228.09 188.85L226.9 187.27L225.68 185.72L224.43 184.21L223.14 182.74L221.83 181.31L220.49 179.92L219.11 178.57L217.71 177.26L216.28 176L214.82 174.78L213.33 173.6L213.12 173.52L212.92 173.43L212.73 173.34L212.53 173.24L212.34 173.14L212.15 173.04L211.97 172.94L211.78 172.83L211.6 172.72L211.42 172.61L211.24 172.49L211.07 172.38L210.89 172.26L210.72 172.14L210.54 172.02L210.37 171.9L210.2 171.78L210.03 171.65L209.86 171.53L209.52 171.28L209.34 171.16L209.17 171.04L209 170.91L208.83 170.79L208.66 170.67L208.48 170.55L208.31 170.44L208.13 170.32L207.95 170.21L207.77 170.09L207.59 169.98L207.4 169.88L207.22 169.77L207.03 169.67L206.84 169.57L206.64 169.47L206.45 169.38L206.25 169.29L206.04 169.21L206.04 169.2L206.03 169.19L206.02 169.18L206 169.16L205.99 169.14L205.97 169.12L205.94 169.1L205.92 169.07L205.89 169.04L205.86 169.01L205.82 168.97L205.79 168.94L205.75 168.9L205.71 168.86L205.67 168.82L205.62 168.78L205.57 168.74L205.53 168.7L205.48 168.66L205.42 168.62L205.37 168.58L205.31 168.54L205.26 168.5L205.2 168.46L205.14 168.42L205.08 168.38L205.02 168.35L204.96 168.31L204.89 168.28L204.83 168.25L204.76 168.23L204.7 168.2L204.63 168.18L204.56 168.16L204.5 168.14L204.43 168.13L204.36 168.12L204.29 168.11L204.22 168.11L204.02 167.95L203.81 167.79L203.61 167.63L203.4 167.48L203.2 167.34L202.99 167.19L202.79 167.05L202.58 166.92L202.38 166.78L202.18 166.65L201.97 166.53L201.77 166.4L201.56 166.28L201.36 166.16L201.15 166.05L200.95 165.93L200.74 165.82L200.54 165.71L200.33 165.61L200.13 165.5L199.92 165.4L199.72 165.3L199.51 165.2L199.31 165.11L199.1 165.01L198.9 164.92L198.69 164.83L198.49 164.74L198.28 164.65L198.08 164.56L197.87 164.47L197.67 164.39L197.46 164.3L197.26 164.22L197.05 164.13L196.85 164.05L196.64 163.96L196.44 163.88L196.23 163.8L196.03 163.72L195.12 163.72L194.91 163.64L194.71 163.56L194.5 163.49L194.3 163.42L194.1 163.35L193.89 163.29L193.69 163.23L193.48 163.17L193.28 163.12L193.07 163.07L192.87 163.01L192.66 162.97L192.46 162.92L192.25 162.87L192.05 162.83L191.84 162.79L191.64 162.74L191.43 162.7L191.23 162.66L190.82 162.58L190.61 162.54L190.41 162.49L190.2 162.45L190 162.41L189.79 162.36L189.59 162.32L189.38 162.27L189.18 162.22L188.97 162.17L188.77 162.12L188.56 162.07L188.36 162.01L188.15 161.95L187.95 161.89L187.75 161.82L187.54 161.75L187.34 161.68L187.13 161.6L186.93 161.52L184.19 161.52L183.99 161.44L183.78 161.36L183.57 161.29L183.35 161.22L183.13 161.16L182.91 161.1L182.69 161.04L182.46 160.98L182.23 160.93L182 160.89L181.77 160.84L181.54 160.8L181.31 160.76L181.07 160.72L180.83 160.69L180.6 160.66L180.36 160.63L180.12 160.6L179.88 160.58L179.64 160.56L179.4 160.54L179.16 160.52L178.93 160.51L178.69 160.49L178.45 160.48L178.21 160.47L177.98 160.46L177.74 160.45L177.51 160.44L177.28 160.44L177.05 160.43L176.82 160.43L176.6 160.43L176.37 160.43L176.15 160.42L175.93 160.42L175.72 160.42L175.51 160.42L175.3 160.42L175.09 160.42L172.17 160.49L169.27 160.71L166.4 161.06L163.56 161.55L160.76 162.17L157.99 162.92L155.26 163.8L152.58 164.81L149.93 165.94L147.34 167.18L144.79 168.55L142.29 170.03L139.85 171.62L137.46 173.33L135.13 175.14L132.86 177.05L130.66 179.06L128.52 181.18L126.45 183.38L124.45 185.69L122.52 188.08L120.67 190.56L118.9 193.13L117.21 195.78L115.6 198.5L114.08 201.31L112.65 204.19L111.3 207.14L110.05 210.16L108.9 213.25L107.84 216.4L106.89 219.62L106.04 222.89L105.29 226.22L104.65 229.6L104.12 233.03L103.71 236.51L103.41 240.03L103.23 243.6L103.17 247.2L103.17 266.97L97.7 270.27L94.86 271.98L92.05 273.8L89.28 275.74L86.55 277.78L83.87 279.93L81.23 282.19L78.65 284.55L76.11 287L73.62 289.55L71.19 292.19L68.81 294.91L66.49 297.72L64.22 300.62L62.02 303.58L59.87 306.63L57.79 309.74L55.78 312.93L53.83 316.18L51.95 319.49L50.13 322.86L48.39 326.28L46.73 329.76L45.14 333.29L43.62 336.86L42.19 340.48L40.83 344.14L39.56 347.83L38.37 351.55L37.27 355.31L36.25 359.09L35.32 362.9L34.48 366.72L33.74 370.57L33.09 374.43L32.53 378.3L32.07 382.17L31.71 386.05L31.45 389.94L31.3 393.82L31.24 397.69L31.34 403.27L31.61 408.78L32.07 414.24L32.71 419.63L33.52 424.94L34.49 430.19L35.64 435.35L36.95 440.43L38.41 445.42L40.03 450.32L41.81 455.12L43.73 459.82L45.8 464.41L48.01 468.9L50.35 473.27L52.83 477.52L55.44 481.65L58.18 485.65L61.04 489.52L64.02 493.26L67.11 496.86L70.32 500.31L73.64 503.61L77.06 506.76L80.59 509.75L84.21 512.58L87.93 515.24L91.74 517.74L95.63 520.06L99.61 522.2L103.67 524.16L107.81 525.92L112.02 527.5L116.29 528.88L120.64 530.06L125.05 531.04L129.51 531.81L134.03 532.36L138.6 532.69L143.23 532.81L505.57 532.81L509.86 532.7L514.09 532.39L518.28 531.88L522.42 531.17L526.5 530.27L530.52 529.17L534.48 527.89L538.38 526.43L542.21 524.8L545.96 522.99L549.64 521.01L553.24 518.87L556.75 516.56L560.18 514.1L563.52 511.49L566.77 508.73L569.92 505.82L572.97 502.78L575.91 499.59L578.75 496.28L581.48 492.84L584.09 489.28L586.58 485.59L588.96 481.79L591.2 477.88L593.32 473.86L595.31 469.74L597.16 465.52L598.87 461.21L600.44 456.8L601.87 452.31L603.14 447.74L604.27 443.09L605.23 438.36L606.04 433.57L606.68 428.7L607.15 423.78L607.46 418.8L607.59 413.76L607.54 408.68L607.47 404.24L607.27 399.83L606.94 395.44L606.47 391.08L605.88 386.76L605.17 382.48L604.33 378.24L603.37 374.04L602.29 369.9L601.1 365.8L599.79 361.76L598.37 357.78L596.85 353.87L595.21 350.01L593.48 346.23L591.64 342.52L589.7 338.89L587.66 335.34L585.53 331.87L583.3 328.49L580.99 325.2L578.58 322L576.09 318.9L573.52 315.9L570.87 313.01L568.13 310.23L565.32 307.55L562.44 304.99L559.48 302.55L556.46 300.24L553.37 298.05L550.21 295.98L546.99 294.05L543.7 292.26L540.36 290.6L536.97 289.09L533.52 287.73L530.02 286.51L526.47 285.45L522.87 284.55L522.76 284.54L522.56 284.52L522.28 284.48L521.92 284.43L521.47 284.37L520.95 284.3L520.36 284.22L519.69 284.13L518.95 284.03L518.15 283.93L517.28 283.83L516.35 283.72L515.36 283.61L514.31 283.5L513.21 283.39L512.05 283.28L510.84 283.18L509.59 283.08L508.29 282.99L506.94 282.9L505.55 282.82L504.13 282.76L502.67 282.7L501.18 282.65L499.65 282.62L498.1 282.6L496.51 282.6L494.91 282.61L493.28 282.64L491.63 282.7L489.97 282.77L488.29 282.86L486.6 282.98L484.9 283.12L483.19 283.29L481.48 283.48L479.76 283.7L478.04 283.95L476.33 284.24L474.62 284.55L472.8 284.55L472.46 284.54L472.12 284.52L471.78 284.48L471.44 284.42L471.1 284.35L470.76 284.26L470.43 284.16L470.1 284.04L469.77 283.91L469.44 283.76L469.12 283.6L468.8 283.42L468.49 283.23L468.18 283.03L467.87 282.81L467.57 282.58L467.27 282.34L466.99 282.08L466.7 281.81L466.43 281.53L466.16 281.23L465.89 280.93L465.64 280.61L465.39 280.28L465.15 279.94L464.92 279.58L464.7 279.22L464.49 278.84L464.29 278.46L464.09 278.06L463.91 277.66L463.74 277.24L463.58 276.81L463.43 276.38L463.29 275.93L463.16 275.47L463.05 275.01L462.95 274.54L462.86 274.06L462.78 273.56L462.72 273.07L462.68 272.58L462.66 272.08L462.65 271.59L462.65 271.1L462.67 270.62L462.71 270.13L462.76 269.65L462.83 269.18L462.91 268.71L463.01 268.24L463.12 267.78L463.25 267.33L463.38 266.88L463.54 266.44L463.7 266.01L463.88 265.58L464.07 265.17L464.28 264.76L464.49 264.37L464.72 263.98L464.96 263.6L465.21 263.24L465.47 262.89L465.75 262.55L466.03 262.22L466.32 261.91L466.63 261.61L466.94 261.32L467.27 261.05L467.6 260.8L467.94 260.56L468.29 260.34L468.65 260.13L469.02 259.94L469.4 259.77L469.78 259.62L470.17 259.49L470.57 259.38L470.98 259.28L472.14 259.12L473.3 258.97L474.46 258.83L475.62 258.69L476.77 258.56L477.93 258.44L479.08 258.33L480.23 258.22L481.37 258.12L482.52 258.03L483.65 257.95L484.79 257.87L485.91 257.8L487.03 257.74L488.15 257.68L489.26 257.63L490.36 257.59L491.46 257.55L492.55 257.52L493.63 257.5L494.7 257.48L495.76 257.47L496.81 257.47L497.85 257.47L498.89 257.47L499.91 257.48L500.92 257.5L501.92 257.52L502.91 257.55L503.88 257.59L504.84 257.62L505.79 257.67L506.73 257.72L507.65 257.77L508.56 257.83L509.45 257.89L510.33 257.96L511.19 258.03L512.03 258.11L512.86 258.19L512.27 251.05L511.46 244L510.43 237.02L509.19 230.13L507.74 223.34L506.09 216.64L504.24 210.04L502.2 203.55L499.96 197.18L497.54 190.92L494.93 184.79L492.15 178.79L489.2 172.92L486.07 167.2L482.79 161.62L479.34 156.19L475.74 150.93L471.98 145.82L468.08 140.88L464.04 136.12L459.85 131.53L455.54 127.13L451.09 122.92L446.52 118.91L441.83 115.09L437.02 111.49L432.1 108.09L427.07 104.91L421.94 101.96L416.71 99.23L411.38 96.74L405.97 94.49L400.46 92.48L394.88 90.72L389.22 89.22L383.49 87.97L377.68 87L371.82 86.29L365.89 85.87L359.91 85.73L356.29 85.78L352.66 85.94Z" id="ivKZqbtP4"></path><path d="M336.43 247.87L338.54 248.13L340.62 248.48L342.68 248.94L344.71 249.49L346.7 250.14L348.67 250.88L350.6 251.7L352.5 252.62L354.36 253.62L356.18 254.7L357.96 255.86L359.7 257.11L361.4 258.43L363.05 259.82L364.65 261.29L366.2 262.83L367.71 264.44L369.16 266.12L370.56 267.86L371.9 269.66L373.18 271.53L374.41 273.45L375.57 275.43L376.67 277.46L377.71 279.55L378.68 281.69L379.58 283.87L380.42 286.1L381.18 288.38L381.87 290.69L382.48 293.05L383.02 295.45L383.48 297.88L383.86 300.34L384.16 302.84L384.38 305.37L384.51 307.92L384.55 310.5L384.55 337.21L388.48 337.21L389.17 337.23L389.85 337.28L390.52 337.37L391.19 337.49L391.85 337.64L392.5 337.82L393.14 338.04L393.77 338.28L394.4 338.55L395.01 338.86L395.61 339.19L396.2 339.54L396.78 339.93L397.35 340.34L397.9 340.77L398.44 341.23L398.96 341.72L399.47 342.22L399.96 342.75L400.43 343.3L400.89 343.87L401.33 344.46L401.75 345.07L402.16 345.7L402.54 346.34L402.9 347L403.24 347.68L403.57 348.37L403.86 349.08L404.14 349.8L404.39 350.54L404.62 351.29L404.82 352.05L405 352.82L405.15 353.6L405.28 354.39L405.38 355.19L405.45 356L405.5 356.81L405.51 357.64L405.51 437.76L405.59 438.7L405.64 439.62L405.65 440.53L405.63 441.43L405.58 442.32L405.5 443.18L405.39 444.04L405.25 444.88L405.08 445.7L404.88 446.5L404.65 447.29L404.39 448.06L404.11 448.81L403.8 449.54L403.46 450.25L403.1 450.93L402.71 451.6L402.31 452.25L401.87 452.87L401.42 453.47L400.94 454.05L400.44 454.6L399.92 455.13L399.38 455.64L398.82 456.11L398.24 456.56L397.64 456.99L397.03 457.38L396.4 457.75L395.75 458.09L395.08 458.4L394.4 458.68L393.71 458.93L393 459.14L392.28 459.33L391.54 459.48L390.79 459.6L390.03 459.69L389.26 459.74L388.48 459.76L275.83 459.76L275.14 459.74L274.46 459.69L273.79 459.6L273.12 459.48L272.46 459.33L271.81 459.15L271.17 458.93L270.53 458.69L269.91 458.42L269.3 458.11L268.69 457.78L268.1 457.42L267.53 457.04L266.96 456.63L266.41 456.2L265.87 455.74L265.35 455.25L264.84 454.75L264.35 454.22L263.87 453.67L263.42 453.1L262.97 452.51L262.55 451.9L262.15 451.27L261.77 450.63L261.4 449.97L261.06 449.29L260.74 448.59L260.44 447.89L260.17 447.16L259.92 446.43L259.69 445.68L259.48 444.92L259.31 444.15L259.15 443.37L259.03 442.58L258.93 441.78L258.86 440.97L258.81 440.15L258.8 439.33L258.8 359.21L258.81 358.39L258.86 357.57L258.93 356.76L259.03 355.96L259.15 355.17L259.31 354.39L259.48 353.62L259.69 352.86L259.92 352.11L260.17 351.38L260.44 350.65L260.74 349.95L261.06 349.25L261.4 348.57L261.77 347.91L262.15 347.27L262.55 346.64L262.97 346.03L263.42 345.44L263.87 344.87L264.35 344.32L264.84 343.79L265.35 343.29L265.87 342.8L266.41 342.35L266.96 341.91L267.53 341.5L268.1 341.12L268.69 340.76L269.3 340.43L269.91 340.12L270.53 339.85L271.17 339.61L271.81 339.39L272.46 339.21L273.12 339.06L273.79 338.94L274.46 338.85L275.14 338.8L275.83 338.78L279.76 338.78L279.76 310.5L279.8 307.92L279.93 305.37L280.15 302.84L280.45 300.34L280.83 297.88L281.29 295.45L281.82 293.05L282.44 290.69L283.13 288.38L283.89 286.1L284.72 283.87L285.63 281.69L286.6 279.55L287.64 277.46L288.74 275.43L289.9 273.45L291.13 271.53L292.41 269.66L293.75 267.86L295.15 266.12L296.6 264.44L298.1 262.83L299.66 261.29L301.26 259.82L302.91 258.43L304.61 257.11L306.35 255.86L308.13 254.7L309.95 253.62L311.81 252.62L313.71 251.7L315.64 250.88L317.6 250.14L319.6 249.49L321.63 248.94L323.68 248.48L325.77 248.13L327.87 247.87L330 247.71L332.15 247.66L334.31 247.71L336.43 247.87ZM276.81 349.94L276.5 350.1L276.19 350.26L275.89 350.42L275.6 350.59L275.32 350.76L275.04 350.93L274.78 351.1L274.52 351.27L274.27 351.45L274.03 351.63L273.8 351.81L273.57 351.99L273.35 352.17L273.14 352.36L272.94 352.55L272.75 352.73L272.57 352.93L272.39 353.12L272.22 353.32L272.06 353.51L271.91 353.71L271.77 353.91L271.63 354.12L271.51 354.32L271.39 354.53L271.28 354.74L271.18 354.95L271.08 355.16L271 355.38L270.92 355.59L270.85 355.81L270.79 356.03L270.73 356.26L270.69 356.48L270.65 356.71L270.62 356.94L270.6 357.17L270.59 357.4L270.59 357.64L270.59 437.76L270.59 438.11L270.61 438.46L270.63 438.8L270.66 439.13L270.71 439.45L270.76 439.77L270.82 440.08L270.89 440.39L270.97 440.69L271.06 440.98L271.15 441.26L271.26 441.54L271.37 441.81L271.49 442.07L271.62 442.32L271.76 442.56L271.91 442.8L272.06 443.03L272.22 443.25L272.39 443.46L272.56 443.66L272.75 443.85L272.94 444.04L273.13 444.21L273.34 444.37L273.55 444.53L273.76 444.68L273.99 444.81L274.22 444.94L274.45 445.05L274.7 445.16L274.95 445.25L275.2 445.34L275.46 445.41L275.73 445.47L276 445.52L276.27 445.57L276.56 445.59L276.84 445.61L277.14 445.62L389.79 445.62L390.08 445.61L390.37 445.59L390.65 445.57L390.93 445.52L391.2 445.47L391.47 445.41L391.73 445.34L391.98 445.25L392.23 445.16L392.47 445.05L392.71 444.94L392.94 444.81L393.16 444.68L393.38 444.53L393.59 444.37L393.79 444.21L393.99 444.04L394.18 443.85L394.36 443.66L394.54 443.46L394.71 443.25L394.87 443.03L395.02 442.8L395.17 442.56L395.3 442.32L395.43 442.07L395.56 441.81L395.67 441.54L395.77 441.26L395.87 440.98L395.96 440.69L396.04 440.39L396.11 440.08L396.17 439.77L396.22 439.45L396.26 439.13L396.3 438.8L396.32 438.46L396.34 438.11L396.34 437.76L396.34 357.64L396.34 357.29L396.32 356.94L396.3 356.6L396.26 356.27L396.22 355.94L396.17 355.63L396.11 355.31L396.04 355.01L395.96 354.71L395.87 354.42L395.77 354.14L395.67 353.86L395.56 353.59L395.43 353.33L395.3 353.08L395.17 352.83L395.02 352.6L394.87 352.37L394.71 352.15L394.54 351.94L394.36 351.74L394.18 351.55L393.99 351.36L393.79 351.19L393.59 351.02L393.38 350.87L393.16 350.72L392.94 350.59L392.71 350.46L392.47 350.34L392.23 350.24L391.98 350.14L391.73 350.06L391.47 349.99L391.2 349.92L390.93 349.87L390.65 349.83L390.37 349.8L390.08 349.79L389.79 349.78L277.14 349.78L276.81 349.94ZM330.73 268.22L329.39 268.39L328.05 268.63L326.73 268.94L325.43 269.3L324.15 269.73L322.88 270.22L321.63 270.77L320.41 271.37L319.2 272.03L318.02 272.75L316.86 273.52L315.73 274.34L314.63 275.21L313.55 276.13L312.51 277.09L311.49 278.1L310.51 279.16L309.56 280.26L308.64 281.4L307.76 282.58L306.92 283.8L306.11 285.05L305.35 286.34L304.62 287.66L303.94 289.02L303.3 290.41L302.7 291.82L302.15 293.27L301.64 294.74L301.19 296.24L300.78 297.76L300.42 299.3L300.12 300.86L299.86 302.44L299.66 304.04L299.52 305.66L299.43 307.29L299.41 308.93L299.41 337.21L367.52 337.21L367.52 308.93L367.49 307.29L367.41 305.66L367.26 304.04L367.06 302.44L366.81 300.86L366.51 299.3L366.15 297.76L365.74 296.24L365.28 294.74L364.78 293.27L364.23 291.82L363.63 290.41L362.99 289.02L362.31 287.66L361.58 286.34L360.82 285.05L360.01 283.8L359.17 282.58L358.29 281.4L357.37 280.26L356.42 279.16L355.44 278.1L354.42 277.09L353.37 276.13L352.3 275.21L351.2 274.34L350.06 273.52L348.91 272.75L347.73 272.03L346.52 271.37L345.3 270.77L344.05 270.22L342.78 269.73L341.5 269.3L340.19 268.94L338.87 268.63L337.54 268.39L336.19 268.22L334.83 268.12L333.46 268.08L332.09 268.12L330.73 268.22Z" id="c2Y8DhNv8w"></path></defs><g><g><g><g><use xlink:href="#ivKZqbtP4" opacity="1" fill-opacity="0" stroke="#600060" stroke-width="3" stroke-opacity="1"></use></g></g><g><g><use xlink:href="#c2Y8DhNv8w" opacity="1" fill-opacity="0" stroke="#600060" stroke-width="2" stroke-opacity="1"></use></g></g></g></g></svg>