<svg xmlns="http://www.w3.org/2000/svg" width="1991.035" height="351.998">
  <defs>
    <clipPath clipPathUnits="userSpaceOnUse" id="c">
      <path d="M16.149 185.079C-8.747 116.677 26.52 41.044 94.922 16.149 163.323-8.747 238.955 26.52 263.851 94.922c24.897 68.401-10.371 144.033-78.772 168.929-14.884 5.417-30.098 7.986-45.069 7.985-53.833-.005-104.383-33.24-123.861-86.757"/>
    </clipPath>
    <clipPath clipPathUnits="userSpaceOnUse" id="a">
      <path d="M62.116 228.601h186v-199h-186z"/>
    </clipPath>
    <clipPath clipPathUnits="userSpaceOnUse" id="b">
      <path d="M78.116 232.601h172v-181h-172z"/>
    </clipPath>
  </defs>
  <g transform="matrix(1.33333 0 0 -1.33333 -362.884 364.15)">
    <circle transform="scale(1 -1)" r="131.624" cy="-141.114" cx="404.162" fill="#fff" stroke="#600062" stroke-width=".75" stroke-linejoin="round"/>
    <g transform="translate(263.999 1.277)" clip-path="url(#c)" stroke="#600060">
      <path d="M139.759 271.837c-53.743-.104-104.161-33.32-123.611-86.759-23.77-65.31 7.311-137.208 69.709-165.244-52.027 32.155-76.175 97.403-54.432 157.14 24.896 68.402 100.528 103.67 168.93 78.774a133.627 133.627 0 009.064-3.685 132.366 132.366 0 01-24.34 11.789c-14.964 5.446-30.272 8.014-45.32 7.985z" fill="#600060" stroke-width=".9997499999999999"/>
    </g>
  </g>
  <g aria-label="logicalphase" style="line-height:1.25;-inkscape-font-specification:Orbitron;font-variant-ligatures:normal;font-variant-caps:normal;font-variant-numeric:normal;text-align:start" font-weight="400" font-size="72" font-family="Orbitron" letter-spacing="0" word-spacing="0" stroke-width=".307">
    <path d="M419.445 246.817q-11.74 0-20.192-8.218-8.218-8.452-8.218-20.192V66.03h19.253v152.378q0 3.757 2.582 6.575 2.818 2.582 6.575 2.582h23.009v19.253zM487.996 246.817q-11.74 0-20.192-8.218-8.218-8.452-8.218-20.192v-79.359q0-11.739 8.218-19.957 8.452-8.452 20.192-8.452h81.707q11.974 0 20.192 8.452 8.452 8.218 8.452 19.957v79.36q0 11.739-8.452 20.191-8.218 8.218-20.192 8.218zm0-19.253h81.707q3.756 0 6.339-2.582 2.817-2.818 2.817-6.575v-79.359q0-3.756-2.817-6.339-2.583-2.817-6.34-2.817h-81.706q-3.757 0-6.574 2.817-2.583 2.583-2.583 6.34v79.358q0 3.757 2.583 6.575 2.817 2.582 6.574 2.582zM644.696 300.584v-19.488h84.994q3.756 0 6.34-2.817 2.817-2.583 2.817-6.34v-25.122h-90.864q-11.74 0-20.192-8.218-8.218-8.452-8.218-20.192v-79.359q0-11.739 8.218-19.957 8.452-8.452 20.192-8.452h81.707q11.974 0 20.192 8.452 8.217 8.218 8.217 19.957V271.94q0 11.975-8.217 20.192-8.218 8.453-20.192 8.453zm3.287-73.02h81.707q3.756 0 6.34-2.582 2.817-2.818 2.817-6.575v-79.359q0-3.756-2.818-6.339-2.583-2.817-6.34-2.817h-81.706q-3.757 0-6.574 2.817-2.583 2.583-2.583 6.34v79.358q0 3.757 2.583 6.575 2.817 2.582 6.574 2.582zM782.657 246.817V110.639h19.253v136.178zm0-161.535V66.029h19.253v19.253zM856.23 246.817q-11.74 0-20.192-8.218-8.217-8.452-8.217-20.192v-79.359q0-11.739 8.217-19.957 8.453-8.452 20.192-8.452h109.882v19.253H856.23q-3.756 0-6.574 2.817-2.582 2.583-2.582 6.34v79.358q0 3.757 2.582 6.575 2.818 2.582 6.574 2.582h110.352v19.253zM1019.717 246.817q-11.74 0-20.192-8.218-8.217-8.452-8.217-20.192v-49.305h119.273v-30.054q0-3.756-2.817-6.339-2.583-2.817-6.34-2.817H991.308v-19.253h110.116q11.974 0 20.192 8.452 8.453 8.218 8.453 19.957v107.769zm0-19.253h90.864v-39.21h-100.02v30.053q0 3.757 2.582 6.575 2.818 2.582 6.574 2.582zM1180.218 246.817q-11.74 0-20.192-8.218-8.217-8.452-8.217-20.192V66.03h19.252v152.378q0 3.757 2.583 6.575 2.818 2.582 6.574 2.582h23.01v19.253z" style="-inkscape-font-specification:Orbitron" fill="#111"/>
    <path d="M1223.357 300.819v-190.18h110.351q11.74 0 19.957 8.452 8.453 8.218 8.453 19.957v79.36q0 11.739-8.453 20.191-8.217 8.218-19.957 8.218h-91.098v54.002zm28.644-73.255h81.707q3.757 0 6.34-2.582 2.817-2.818 2.817-6.575v-79.359q0-3.756-2.817-6.339-2.583-2.817-6.34-2.817h-81.707q-3.756 0-6.574 2.817-2.817 2.583-2.817 6.34v79.358q0 3.757 2.817 6.575 2.818 2.582 6.574 2.582zM1379.272 246.817V66.029h19.253v44.61h91.098q11.505 0 19.957 8.452 8.453 8.218 8.453 19.957v107.769h-19.253V139.048q0-3.756-2.817-6.339-2.583-2.817-6.34-2.817h-81.707q-3.756 0-6.574 2.817-2.817 2.583-2.817 6.34v107.768zM1565.42 246.817q-11.74 0-20.192-8.218-8.218-8.452-8.218-20.192v-49.305h119.274v-30.054q0-3.756-2.818-6.339-2.583-2.817-6.34-2.817H1537.01v-19.253h110.117q11.974 0 20.192 8.452 8.452 8.218 8.452 19.957v107.769zm0-19.253h90.864v-39.21h-100.02v30.053q0 3.757 2.582 6.575 2.817 2.582 6.574 2.582zM1722.689 246.817q-11.74 0-20.192-8.218-8.218-8.452-8.218-20.192v-1.878h19.253v1.878q0 3.757 2.583 6.575 2.817 2.582 6.574 2.582h81.707q3.756 0 6.339-2.582 2.817-2.818 2.817-6.575v-20.896q0-3.757-2.817-6.34-2.583-2.817-6.34-2.817h-81.706q-11.74 0-20.192-8.217-8.218-8.453-8.218-20.192v-20.897q0-11.739 8.218-19.957 8.452-8.452 20.192-8.452h81.707q11.974 0 20.191 8.452 8.453 8.218 8.453 19.957v1.879h-19.488v-1.879q0-3.756-2.817-6.339-2.583-2.817-6.34-2.817h-81.706q-3.757 0-6.574 2.817-2.583 2.583-2.583 6.34v20.896q0 3.756 2.583 6.574 2.817 2.583 6.574 2.583h81.707q11.974 0 20.191 8.452 8.453 8.218 8.453 19.957v20.896q0 11.74-8.453 20.192-8.217 8.218-20.191 8.218zM1880.684 246.817q-11.74 0-20.192-8.218-8.218-8.452-8.218-20.192v-79.359q0-11.739 8.218-19.957 8.452-8.452 20.192-8.452h81.707q11.974 0 20.192 8.452 8.452 8.218 8.452 19.957v49.306h-119.508v30.053q0 3.757 2.583 6.575 2.817 2.582 6.574 2.582h110.351v19.253zm-9.157-77.715h100.02v-30.054q0-3.756-2.817-6.339-2.583-2.817-6.34-2.817h-81.706q-3.757 0-6.574 2.817-2.583 2.583-2.583 6.34z" style="-inkscape-font-specification:Orbitron" fill="#5f6368"/>
  </g>
  <g>
    <path d="M276.039 264.286c-.147 5.662-.447 12.538-3.76 15.754-4.928 4.784-15.363 5.18-22.315 5.539-11.101.573-22.295.25-33.405.25-26.54 0-53.092.267-79.63-.013-9.757-.104-21.462.156-30.45-4.342-5.103-2.554-6.782-6.503-7.44-12.218-.755-6.57-.27-13.478-.27-20.068V82.3c0-9.92-15.417-9.936-15.417 0v166.89c0 7.363-.383 14.905.523 22.229 2.508 20.264 18.604 27.074 37.12 29.014 12.84 1.347 25.989.814 38.889.814h53.185c14.547 0 29.524.769 44.004-.791 9.746-1.05 20.479-3.005 27.258-10.776 6.08-6.972 6.896-16.539 7.124-25.393.256-9.924-15.16-9.92-15.416 0" fill="#600060"/>
    <path d="M131.887 206.935c35.98 0 71.962.11 107.942 0 28.677-.086 52.178-21.294 52.681-50.505.379-22.015 3.644-48.037-10.81-66.41-9.714-12.345-24.477-19.097-40.078-19.342-6.921-.108-13.852 0-20.773 0-20.991 0-41.984.108-62.975 0-18.439-.093-45.864-2.512-51.533 20.468-3.511 14.23-1.398 30.532-1.398 45.21v127.529c0 9.92 15.416 9.936 15.416 0V158.279c0-12.492.052-24.986 0-37.478-.024-5.668-.206-11.342-.029-17.008.11-3.524.487-8.483 1.428-10.663 1.292-2.993 2.103-3.633 4.972-4.835 5.093-2.133 11.135-2.222 16.548-2.344 17.565-.397 35.236.144 52.81.144 16.269 0 33.242-1.44 49.462.156 15.53 1.528 28.812 13.926 31.193 29.376 1.351 8.759.351 18.292.351 27.106 0 10.093 1.019 20.546-3.85 29.797-6.26 11.897-18.425 18.79-31.72 18.99-35.32.527-70.683 0-106.006 0h-3.63c-9.92 0-9.937 15.415 0 15.415" fill="#600060"/>
  </g>
</svg>
