<svg xmlns="http://www.w3.org/2000/svg" xmlns:xlink="http://www.w3.org/1999/xlink" class="iconLeft" width="1638.344" height="271.357">
  <defs>
    <linearGradient gradientTransform="rotate(25)" id="a" x1="0" y1="0" x2="1" y2="0">
      <stop offset="0%" stop-color="#600060"/>
      <stop offset="100%" stop-color="#b077b0"/>
    </linearGradient>
    <linearGradient xlink:href="#a" id="c" gradientTransform="scale(.93333 1.07143)" x1="10.821" y1="4.853" x2="94.821" y2="4.853" gradientUnits="userSpaceOnUse"/>
    <linearGradient xlink:href="#a" id="b" gradientTransform="scale(.93333 1.07143)" x1="10.821" y1="4.853" x2="94.821" y2="4.853" gradientUnits="userSpaceOnUse"/>
  </defs>
  <path d="M88.5 28.2L68.4 59.9l.1-37.6zm-38.7-23l17.4 33.3-32.5-18.9zm18 33.1v-16l-7 2.2zm20.4 34.9l-37.6-1.5 32.6-18.8zM69.1 60.3l13.7-8-5.4-4.9zM48.7 95.2L31.5 61.9l32.4 19zm1.8-23l13.7 8 1.6-7.1zM10.1 72l20.4-31.6-.4 37.6zm20.8-9.9L30.8 78l7-2.2zM11 27l37.5 1.9-32.7 18.4zm19 13.1l-13.9 7.8 5.4 5zm18.2-11.8l-13.7-8.1-1.6 7.2z" clip-rule="evenodd" fill="url(#c)" transform="matrix(3.01735 0 0 3.01508 -30.475 -15.678)" stroke-width=".332"/>
  <g aria-label="Logical Phase" style="line-height:1.25;-inkscape-font-specification:'Roboto, Light';font-variant-ligatures:normal;font-variant-caps:normal;font-variant-numeric:normal;text-align:start" font-weight="300" font-size="53.333" font-family="Roboto" letter-spacing="-1.5" word-spacing="-1.95" stroke-width=".332">
    <path d="M409.065 204.331v17.685h-99.538V58.009h21.756v146.322zM418.804 159.837q0-26.47 14.88-44.155 14.88-17.798 40.47-17.798 25.588 0 40.468 17.46 14.88 17.347 15.219 43.367v3.717q0 26.471-14.993 44.156-14.88 17.685-40.47 17.685-25.7 0-40.694-17.685-14.88-17.685-14.88-44.156zm20.855 2.591q0 18.136 8.567 31.427 8.68 13.292 26.153 13.292 17.022 0 25.702-13.066 8.68-13.18 8.792-31.315v-2.929q0-17.91-8.68-31.314-8.68-13.517-26.04-13.517-17.247 0-25.927 13.517-8.567 13.404-8.567 31.314zM595.83 270.114q-9.468 0-23.22-4.618-13.754-4.619-21.983-16.559l10.935-12.39q13.527 16.445 32.69 16.445 14.768 0 23.56-8.335 8.793-8.223 8.793-24.218v-10.701q-12.4 14.53-34.156 14.53-21.982 0-34.945-17.571-12.964-17.573-12.964-44.269v-2.365q0-27.935 12.851-45.057 12.964-17.122 35.284-17.122 22.432 0 34.832 15.77l1.015-13.517h18.938v119.288q0 24.218-14.43 37.397-14.428 13.292-37.2 13.292zm-30.435-107.686q0 18.136 7.552 31.202 7.666 12.954 24.575 12.954 19.84 0 29.083-18.023V133.03q-3.945-7.547-10.934-12.504-6.99-5.068-17.924-5.068-17.021 0-24.687 13.291-7.665 13.18-7.665 31.315zM672.981 69.809c0-3.38 1.015-6.233 3.044-8.56 2.104-2.329 5.185-3.493 9.244-3.493 3.983 0 7.026 1.164 9.13 3.492 2.18 2.328 3.27 5.182 3.27 8.56 0 3.23-1.09 6.009-3.27 8.336-2.104 2.253-5.147 3.38-9.13 3.38-4.059 0-7.14-1.127-9.244-3.38-2.03-2.327-3.044-5.106-3.044-8.335zm22.546 30.328v121.879h-20.968V100.137zM771.55 207.147q11.16 0 19.502-6.646 8.454-6.646 9.243-17.009h19.84q-.789 16.333-14.993 28.611-14.203 12.166-33.592 12.166-27.506 0-40.92-18.136-13.302-18.135-13.302-42.691v-4.73q0-24.557 13.302-42.692 13.414-18.136 40.92-18.136 21.418 0 34.607 12.729 13.19 12.616 13.978 31.427h-19.84q-.789-11.264-8.567-19.15-7.665-7.884-20.178-7.884-12.851 0-20.178 6.533-7.215 6.533-10.259 16.559-2.93 10.025-2.93 20.613v4.731q0 10.701 2.93 20.726 2.931 10.025 10.146 16.559 7.327 6.42 20.29 6.42zM912.39 222.016q-2.028-4.393-2.93-12.841-5.862 6.195-14.654 10.7-8.793 4.394-20.066 4.394-18.713 0-29.985-10.476-11.273-10.476-11.273-25.682 0-19.6 14.88-29.738 14.88-10.25 40.018-10.25h20.63v-9.688q0-10.813-6.54-17.234-6.424-6.533-19.163-6.533-11.836 0-19.163 5.857-7.215 5.745-7.215 13.405h-20.854q0-13.067 13.189-24.556 13.189-11.49 35.283-11.49 19.84 0 32.578 10.138 12.739 10.138 12.739 30.639v54.744q0 16.896 4.283 26.809v1.802zm-34.606-15.995q11.272 0 19.502-5.632 8.341-5.632 11.723-12.504v-25.119H889.62q-35.17.676-35.17 22.529 0 8.673 5.861 14.756 5.862 5.97 17.473 5.97zM979.058 56.998v165.018H958.09V56.998z" style="-inkscape-font-specification:Roboto" font-weight="400"/>
    <path d="M1073.514 157.697v64.319h-21.756V58.009h60.534q27.956 0 42.724 14.08 14.88 14.08 14.88 35.933 0 23.768-14.88 36.721-14.768 12.954-42.724 12.954zm0-81.89v64.205h38.778q19.164 0 27.505-8.898 8.342-8.899 8.342-22.867 0-12.615-8.342-22.528-8.341-9.912-27.505-9.912zM1238.366 115.457c-6.689 0-12.588 1.802-17.698 5.406-5.11 3.605-9.131 8.298-12.062 14.08v87.073h-20.855V56.998h20.855v57.67c9.244-11.19 21.23-16.784 35.96-16.784 11.949 0 21.418 3.342 28.407 10.026 7.064 6.683 10.634 17.91 10.71 33.68v80.426h-20.968v-80.089c0-9.537-2.104-16.333-6.313-20.388-4.133-4.055-10.145-6.082-18.036-6.082zM1383.716 222.016q-2.029-4.393-2.93-12.841-5.863 6.195-14.655 10.7-8.793 4.394-20.066 4.394-18.712 0-29.985-10.476t-11.273-25.682q0-19.6 14.88-29.738 14.88-10.25 40.018-10.25h20.63v-9.688q0-10.813-6.539-17.234-6.425-6.533-19.163-6.533-11.837 0-19.164 5.857-7.215 5.745-7.215 13.405H1307.4q0-13.067 13.189-24.556 13.19-11.49 35.284-11.49 19.84 0 32.578 10.138 12.738 10.138 12.738 30.639v54.744q0 16.896 4.283 26.809v1.802zm-34.607-15.995q11.273 0 19.502-5.632 8.342-5.632 11.723-12.504v-25.119h-19.389q-35.17.676-35.17 22.529 0 8.673 5.861 14.756 5.862 5.97 17.473 5.97zM1498.743 189.688q0-6.646-4.96-11.94-4.848-5.407-22.546-9.012-20.403-4.168-32.465-12.052-12.062-7.998-12.062-23.205 0-14.418 12.287-25.006 12.4-10.589 32.917-10.589 21.869 0 34.156 11.152 12.287 11.151 12.287 26.921h-20.854q0-7.547-6.651-14.193-6.651-6.758-18.938-6.758-12.964 0-18.6 5.632-5.637 5.632-5.637 12.278 0 6.646 5.186 10.814 5.298 4.055 22.32 7.885 22.432 5.069 33.367 13.291 11.047 8.223 11.047 23.205 0 16.107-12.963 26.133-12.851 10.025-34.157 10.025-24.236 0-37.087-12.39-12.85-12.392-12.85-27.486h20.966q.677 12.954 9.92 17.91 9.357 4.844 19.051 4.844 12.738 0 19.502-4.956 6.764-4.956 6.764-12.503zM1636.766 200.727q-5.975 9.01-16.91 16.333-10.934 7.209-28.97 7.209-25.477 0-40.807-16.559-15.219-16.558-15.219-42.353v-4.731q0-19.938 7.553-33.905 7.666-14.08 19.84-21.402 12.175-7.435 25.927-7.435 26.153 0 38.102 17.122 12.062 17.009 12.062 42.579v9.349h-82.516q.45 16.784 9.92 28.611 9.581 11.715 26.265 11.715 11.047 0 18.713-4.506 7.665-4.506 13.414-12.053zm-48.586-85.721q-12.4 0-20.967 9.011-8.567 9.012-10.709 25.908h60.985v-1.577q-.789-12.165-7.101-22.754-6.2-10.588-22.208-10.588z" fill="#999"/>
  </g>
</svg>
