<svg width="24" height="24" version="1.1" viewBox="0 0 24 24" xmlns="http://www.w3.org/2000/svg" xmlns:xlink="http://www.w3.org/1999/xlink">
 <defs>
  <path id="b2P0kvB9Hv" d="m23.93 1c-0.34 2.06-3.09 18.52-3.43 20.58-0.04 0.25-0.2 0.46-0.43 0.6-0.12 0.07-0.26 0.11-0.41 0.11-0.11 0-0.22-0.03-0.32-0.07-0.41-0.17-2.43-0.99-6.07-2.48-1.95 2.37-3.03 3.69-3.24 3.95-0.16 0.2-0.4 0.31-0.66 0.31-0.09 0-0.2-0.01-0.29-0.05-0.34-0.12-0.57-0.45-0.57-0.81v-4.67l11.58-14.18-14.32 12.38c-3.18-1.3-4.94-2.02-5.29-2.17-0.31-0.12-0.51-0.4-0.54-0.73-0.01-0.32 0.15-0.63 0.43-0.79 2.23-1.29 20.06-11.57 22.29-12.86 0.13-0.08 0.28-0.12 0.43-0.12 0.17 0 0.34 0.05 0.48 0.15 0.28 0.2 0.41 0.52 0.36 0.85z"/>
 </defs>
 <use fill="#ffffff" xlink:href="#b2P0kvB9Hv"/>
 <use fill-opacity="0" stroke="#000000" stroke-opacity="0" xlink:href="#b2P0kvB9Hv"/>
</svg>
