<?xml version="1.0" encoding="UTF-8" standalone="no"?>
<!DOCTYPE svg PUBLIC "-//W3C//DTD SVG 1.1//EN" "http://www.w3.org/Graphics/SVG/1.1/DTD/svg11.dtd">
<svg preserveAspectRatio="xMidYMid meet" viewBox="0 0 24 24" width="24" height="24"><defs><path d="M23.93 1C23.59 3.06 20.84 19.52 20.5 21.58C20.46 21.83 20.3 22.04 20.07 22.18C19.95 22.25 19.81 22.29 19.66 22.29C19.55 22.29 19.44 22.26 19.34 22.22C18.93 22.05 16.91 21.23 13.27 19.74C11.32 22.11 10.24 23.43 10.03 23.69C9.87 23.89 9.63 24 9.37 24C9.28 24 9.17 23.99 9.08 23.95C8.74 23.83 8.51 23.5 8.51 23.14C8.51 22.83 8.51 21.27 8.51 18.47L20.09 4.29L5.77 16.67C2.59 15.37 0.83 14.65 0.48 14.5C0.17 14.38 -0.03 14.1 -0.06 13.77C-0.07 13.45 0.09 13.14 0.37 12.98C2.6 11.69 20.43 1.41 22.66 0.12C22.79 0.04 22.94 0 23.09 0C23.26 0 23.43 0.05 23.57 0.15C23.85 0.35 23.98 0.67 23.93 1Z" id="b2P0kvB9Hv"></path></defs><g><g><g><use xlink:href="#b2P0kvB9Hv" opacity="1" fill="#ffffff" fill-opacity="1"></use><g><use xlink:href="#b2P0kvB9Hv" opacity="1" fill-opacity="0" stroke="#000000" stroke-width="1" stroke-opacity="0"></use></g></g></g></g></svg>