<?xml version="1.0" encoding="UTF-8" standalone="no"?>
<!DOCTYPE svg PUBLIC "-//W3C//DTD SVG 1.1//EN" "http://www.w3.org/Graphics/SVG/1.1/DTD/svg11.dtd">
<svg version="1.1" xmlns="http://www.w3.org/2000/svg" xmlns:xlink="http://www.w3.org/1999/xlink" preserveAspectRatio="xMidYMid meet" viewBox="0 0 740 740" width="740" height="740"><defs><path d="M400.34 1.23L415.27 2.74L430.01 4.84L444.56 7.52L458.91 10.75L473.04 14.54L486.94 18.87L500.6 23.72L514.01 29.08L527.15 34.95L540.02 41.3L552.61 48.14L564.89 55.44L576.86 63.2L588.51 71.4L599.82 80.03L610.78 89.08L621.39 98.53L631.62 108.38L641.47 118.62L650.93 129.22L659.97 140.18L668.6 151.5L676.8 163.14L684.56 175.11L691.86 187.4L698.7 199.98L705.05 212.85L710.92 225.99L716.28 239.4L721.13 253.06L725.46 266.96L729.25 281.09L732.48 295.44L735.16 309.99L737.26 324.73L738.77 339.66L739.69 354.75L740 370L739.69 385.25L738.77 400.35L737.26 415.28L735.16 430.02L732.48 444.57L729.25 458.92L725.46 473.05L721.14 486.96L716.28 500.62L710.92 514.03L705.05 527.18L698.7 540.05L691.86 552.63L684.56 564.91L676.8 576.88L668.6 588.53L659.97 599.84L650.93 610.8L641.47 621.41L631.62 631.64L621.39 641.49L610.78 650.94L599.82 659.99L588.51 668.62L576.86 676.82L564.89 684.57L552.61 691.87L540.03 698.71L527.16 705.06L514.01 710.93L500.6 716.29L486.94 721.14L473.04 725.46L458.91 729.25L444.56 732.48L430.01 735.16L415.27 737.26L400.34 738.77L385.25 739.69L370 740L354.75 739.69L339.65 738.77L324.73 737.26L309.98 735.16L295.43 732.48L281.08 729.25L266.95 725.46L253.04 721.14L239.38 716.29L225.97 710.93L212.83 705.06L199.96 698.71L187.37 691.87L175.09 684.57L163.12 676.82L151.47 668.62L140.16 659.99L129.2 650.94L118.6 641.49L108.36 631.64L98.51 621.4L89.06 610.8L80.01 599.84L71.38 588.53L63.19 576.88L55.43 564.91L48.13 552.63L41.3 540.05L34.94 527.18L29.07 514.03L23.71 500.62L18.86 486.96L14.54 473.05L10.75 458.92L7.52 444.57L4.84 430.02L2.74 415.28L1.23 400.35L0.31 385.25L0 370L0.31 354.75L1.23 339.66L2.74 324.73L4.84 309.99L7.52 295.44L10.75 281.09L14.54 266.96L18.86 253.06L23.71 239.4L29.07 225.99L34.94 212.85L41.3 199.98L48.13 187.4L55.43 175.11L63.19 163.14L71.38 151.5L80.01 140.18L89.06 129.22L98.51 118.62L108.36 108.38L118.6 98.53L129.2 89.08L140.16 80.03L151.47 71.4L163.12 63.2L175.09 55.44L187.37 48.14L199.96 41.3L212.83 34.95L225.97 29.08L239.38 23.72L253.04 18.87L266.95 14.54L281.08 10.75L295.43 7.52L309.98 4.84L324.73 2.74L339.65 1.23L354.75 0.31L370 0L385.25 0.31L400.34 1.23ZM275.82 698.28L278.12 698.93L280.43 699.56L282.75 700.18L285.07 700.79L287.4 701.38L289.74 701.95L292.08 702.51L294.43 703.05L296.79 703.57L299.15 704.08L301.52 704.57L303.89 705.05L306.27 705.51L308.65 705.95L311.04 706.38L313.44 706.79L315.84 707.18L318.25 707.56L320.66 707.92L323.08 708.26L325.51 708.58L327.94 708.89L330.37 709.19L332.81 709.46L335.26 709.72L337.71 709.96L340.16 710.18L342.62 710.39L345.09 710.58L347.56 710.75L350.03 710.9L352.51 711.04L355 711.15L357.49 711.25L359.98 711.33L362.48 711.4L364.98 711.44L367.49 711.47L370 711.48L372.98 711.47L375.95 711.43L378.91 711.36L381.87 711.28L384.83 711.16L387.77 711.02L390.71 710.86L393.65 710.67L396.57 710.45L399.49 710.22L402.41 709.95L405.31 709.66L408.21 709.35L411.1 709.01L413.99 708.65L416.86 708.27L419.73 707.86L422.59 707.43L425.45 706.97L428.29 706.49L431.13 705.99L433.96 705.46L436.78 704.91L439.59 704.34L442.4 703.74L445.2 703.12L447.98 702.48L450.76 701.82L453.53 701.13L456.29 700.42L459.04 699.69L461.78 698.93L464.52 698.16L467.24 697.36L469.95 696.54L472.66 695.69L475.35 694.83L478.04 693.94L480.71 693.03L483.38 692.1L483.31 692L483.24 691.89L483.18 691.78L483.11 691.67L483.05 691.56L482.98 691.45L482.92 691.34L482.85 691.23L482.79 691.12L482.72 691.01L482.66 690.9L482.6 690.78L482.53 690.67L482.47 690.56L482.41 690.45L482.34 690.33L482.28 690.22L482.22 690.11L482.16 689.99L482.1 689.88L482.04 689.76L481.98 689.64L481.92 689.53L481.86 689.41L481.8 689.29L481.74 689.17L481.68 689.06L481.62 688.94L481.56 688.82L481.51 688.7L481.45 688.58L481.4 688.45L481.34 688.33L481.29 688.21L481.23 688.08L481.18 687.96L481.12 687.84L481.07 687.71L481.02 687.58L480.97 687.46L376.01 399.92L273.52 697.61L275.82 698.28ZM55.31 237.43L53.97 240.66L52.66 243.9L51.39 247.16L50.14 250.44L48.93 253.73L47.75 257.04L46.6 260.36L45.49 263.7L44.41 267.05L43.36 270.42L42.34 273.81L41.36 277.2L40.42 280.61L39.51 284.04L38.63 287.48L37.79 290.93L36.98 294.4L36.21 297.88L35.47 301.37L34.77 304.88L34.1 308.4L33.47 311.93L32.88 315.47L32.33 319.03L31.81 322.6L31.33 326.18L30.88 329.77L30.47 333.37L30.1 336.99L29.77 340.62L29.48 344.25L29.22 347.9L29.01 351.56L28.83 355.23L28.69 358.9L28.59 362.59L28.53 366.29L28.51 370L28.66 380.1L29.1 390.13L29.82 400.08L30.83 409.95L32.11 419.74L33.67 429.44L35.5 439.04L37.59 448.55L39.95 457.96L42.57 467.26L45.44 476.45L48.56 485.53L51.93 494.49L55.53 503.33L59.38 512.05L63.46 520.63L67.77 529.09L72.3 537.4L77.06 545.57L82.04 553.6L87.22 561.48L92.62 569.2L98.22 576.77L104.03 584.17L110.03 591.41L116.23 598.48L122.61 605.37L129.18 612.09L135.93 618.62L142.86 624.97L149.96 631.13L157.23 637.09L164.66 642.85L172.26 648.41L180.01 653.77L187.91 658.91L195.97 663.84L204.17 668.56L212.5 673.04L220.98 677.3L58.09 231.02L56.69 234.22L55.31 237.43ZM669.84 207.81L669.94 208.63L670.05 209.46L670.15 210.29L670.25 211.12L670.35 211.96L670.44 212.8L670.53 213.64L670.62 214.48L670.71 215.33L670.79 216.18L670.87 217.04L670.95 217.89L671.03 218.75L671.1 219.62L671.17 220.48L671.24 221.35L671.3 222.23L671.36 223.1L671.42 223.98L671.48 224.86L671.53 225.75L671.58 226.64L671.63 227.53L671.67 228.42L671.71 229.32L671.75 230.22L671.79 231.13L671.82 232.04L671.85 232.95L671.87 233.86L671.9 234.78L671.92 235.7L671.93 236.63L671.95 237.55L671.96 238.49L671.97 239.42L671.97 240.36L671.97 241.3L671.96 243.06L671.91 244.9L671.83 246.79L671.71 248.76L671.57 250.79L671.39 252.88L671.18 255.04L670.93 257.27L670.66 259.57L670.35 261.93L670.01 264.36L669.63 266.85L669.23 269.41L668.79 272.04L668.32 274.73L667.81 277.49L667.28 280.32L666.71 283.21L666.11 286.16L665.47 289.19L664.81 292.28L664.11 295.44L663.38 298.66L662.61 301.95L661.82 305.31L660.99 308.73L660.13 312.22L659.23 315.77L658.31 319.39L657.35 323.08L656.36 326.83L655.33 330.65L654.28 334.54L653.19 338.49L652.07 342.51L650.91 346.59L649.73 350.74L648.51 354.96L647.26 359.25L645.97 363.6L541.69 665.13L549.24 660.6L556.66 655.88L563.95 650.98L571.1 645.89L578.12 640.63L585 635.2L591.73 629.59L598.31 623.82L604.75 617.88L611.03 611.78L617.15 605.52L623.11 599.11L628.91 592.55L634.54 585.83L640 578.98L645.28 571.98L650.39 564.84L655.32 557.57L660.06 550.17L664.62 542.63L668.99 534.98L673.16 527.2L677.14 519.3L680.91 511.28L684.48 503.16L687.85 494.92L691.01 486.58L693.95 478.14L696.68 469.6L699.18 460.96L701.47 452.23L703.52 443.41L705.35 434.5L706.94 425.51L708.3 416.44L709.42 407.29L710.3 398.07L710.92 388.78L711.3 379.43L711.43 370.01L711.4 365.56L711.32 361.13L711.18 356.71L710.98 352.3L710.73 347.91L710.42 343.54L710.06 339.18L709.64 334.83L709.17 330.51L708.65 326.2L708.07 321.9L707.44 317.62L706.75 313.37L706.02 309.12L705.23 304.9L704.39 300.69L703.5 296.51L702.56 292.34L701.56 288.19L700.52 284.07L699.43 279.96L698.28 275.87L697.09 271.8L695.85 267.76L694.56 263.73L693.22 259.73L691.84 255.75L690.4 251.79L688.92 247.86L687.39 243.95L685.82 240.06L684.2 236.19L682.53 232.35L680.82 228.53L679.06 224.74L677.26 220.98L675.42 217.23L673.53 213.52L671.59 209.83L669.61 206.17L669.73 206.98L669.84 207.81ZM352.22 28.98L343.42 29.54L334.68 30.33L326 31.33L317.4 32.55L308.86 33.99L300.39 35.63L292 37.48L283.69 39.54L275.47 41.79L267.32 44.25L259.26 46.9L251.3 49.75L243.42 52.78L235.64 56.01L227.96 59.42L220.38 63.01L212.9 66.78L205.53 70.72L198.26 74.85L191.11 79.14L184.08 83.6L177.16 88.22L170.36 93.01L163.69 97.96L157.14 103.06L150.72 108.32L144.43 113.74L138.27 119.3L132.25 125L126.37 130.85L120.64 136.84L115.04 142.97L109.6 149.23L104.31 155.62L99.17 162.14L94.18 168.79L89.36 175.56L84.7 182.46L85.3 182.48L85.9 182.49L86.49 182.51L87.09 182.52L87.68 182.54L88.27 182.56L88.86 182.57L89.45 182.59L90.03 182.6L90.61 182.62L91.19 182.63L91.77 182.64L92.34 182.66L92.91 182.67L93.48 182.68L94.05 182.7L94.61 182.71L95.17 182.72L95.73 182.73L96.28 182.74L96.83 182.75L97.38 182.76L97.92 182.77L98.47 182.78L99 182.79L99.54 182.8L100.07 182.81L100.6 182.81L101.12 182.82L101.64 182.83L102.16 182.83L102.67 182.84L103.18 182.84L103.69 182.84L104.19 182.85L104.69 182.85L105.19 182.85L105.68 182.85L106.16 182.86L106.64 182.86L109.36 182.85L112.14 182.82L114.99 182.79L117.88 182.73L120.82 182.67L123.8 182.59L126.81 182.5L129.84 182.4L132.89 182.29L135.95 182.17L139.01 182.05L142.07 181.91L145.12 181.77L148.15 181.62L151.16 181.47L154.13 181.32L157.07 181.16L159.96 181L162.79 180.84L165.57 180.67L168.28 180.51L170.91 180.34L173.46 180.18L175.93 180.02L178.3 179.87L180.57 179.72L182.73 179.57L184.77 179.43L186.69 179.3L188.48 179.17L190.14 179.05L191.64 178.94L193 178.84L194.2 178.75L195.23 178.67L196.1 178.61L196.78 178.56L197.27 178.52L197.58 178.5L197.68 178.49L199.03 178.46L200.31 178.54L201.54 178.71L202.7 178.97L203.8 179.32L204.84 179.74L205.81 180.25L206.72 180.82L207.57 181.46L208.35 182.15L209.07 182.91L209.73 183.71L210.31 184.56L210.84 185.45L211.29 186.38L211.68 187.34L212 188.32L212.26 189.32L212.44 190.34L212.56 191.37L212.61 192.41L212.59 193.45L212.5 194.48L212.34 195.5L212.11 196.52L211.8 197.51L211.43 198.48L210.99 199.42L210.47 200.32L209.88 201.19L209.21 202.01L208.47 202.79L207.66 203.51L206.78 204.17L205.81 204.78L204.78 205.31L203.66 205.77L202.48 206.15L201.21 206.44L199.87 206.65L199.83 206.66L199.73 206.67L199.56 206.69L199.33 206.72L199.03 206.75L198.67 206.79L198.25 206.83L197.78 206.89L197.24 206.94L196.65 207.01L196.01 207.07L195.31 207.15L194.56 207.22L193.77 207.31L192.92 207.39L192.03 207.48L191.1 207.57L190.12 207.67L189.1 207.76L188.03 207.86L186.94 207.97L185.8 208.07L184.63 208.18L183.42 208.28L182.18 208.39L180.91 208.5L179.61 208.61L178.29 208.72L176.93 208.83L175.55 208.93L174.15 209.04L172.73 209.15L171.29 209.25L169.83 209.35L168.35 209.45L166.85 209.55L165.34 209.65L163.82 209.74L162.29 209.83L160.75 209.91L285.13 579.75L359.84 355.68L306.69 209.91L305.31 209.83L303.94 209.74L302.57 209.65L301.21 209.55L299.86 209.45L298.53 209.35L297.2 209.25L295.89 209.15L294.6 209.04L293.32 208.93L292.06 208.83L290.82 208.72L289.61 208.61L288.42 208.5L287.25 208.39L286.11 208.28L285 208.18L283.92 208.07L282.87 207.97L281.85 207.86L280.87 207.76L279.93 207.67L279.02 207.57L278.15 207.48L277.32 207.39L276.53 207.31L275.79 207.22L275.09 207.15L274.44 207.07L273.84 207.01L273.29 206.94L272.79 206.89L272.34 206.83L271.95 206.79L271.61 206.75L271.33 206.72L271.11 206.69L270.95 206.67L270.86 206.66L270.82 206.65L269.49 206.52L268.22 206.3L267.04 205.98L265.93 205.58L264.89 205.1L263.93 204.54L263.05 203.91L262.23 203.22L261.5 202.47L260.83 201.66L260.24 200.81L259.72 199.91L259.27 198.97L258.9 198L258.59 197.01L258.36 195.99L258.2 194.95L258.11 193.9L258.08 192.85L258.13 191.79L258.25 190.74L258.43 189.7L258.68 188.67L259 187.66L259.39 186.67L259.84 185.72L260.36 184.8L260.95 183.92L261.6 183.09L262.32 182.31L263.1 181.59L263.95 180.93L264.86 180.33L265.84 179.81L266.88 179.36L267.98 179L269.15 178.73L270.37 178.55L271.66 178.47L273.01 178.49L273.12 178.5L273.43 178.52L273.93 178.56L274.62 178.61L275.5 178.67L276.55 178.75L277.77 178.84L279.14 178.94L280.67 179.05L282.34 179.17L284.15 179.3L286.09 179.43L288.15 179.57L290.33 179.72L292.61 179.87L295 180.02L297.47 180.18L300.04 180.34L302.68 180.51L305.39 180.67L308.16 180.84L310.99 181L313.86 181.16L316.78 181.32L319.73 181.47L322.71 181.62L325.7 181.77L328.71 181.91L331.72 182.05L334.72 182.17L337.72 182.29L340.69 182.4L343.64 182.5L346.56 182.59L349.43 182.67L352.26 182.73L355.03 182.79L357.74 182.82L360.37 182.85L362.93 182.86L365.64 182.85L368.42 182.82L371.26 182.79L374.16 182.73L377.09 182.67L380.07 182.59L383.08 182.5L386.11 182.4L389.16 182.29L392.22 182.17L395.28 182.05L398.34 181.91L401.39 181.77L404.42 181.62L407.42 181.47L410.4 181.32L413.33 181.16L416.22 181L419.06 180.84L421.84 180.67L424.55 180.51L427.18 180.34L429.74 180.18L432.2 180.02L434.58 179.87L436.85 179.72L439.01 179.57L441.05 179.43L442.97 179.3L444.76 179.17L446.42 179.05L447.93 178.94L449.28 178.84L450.48 178.75L451.52 178.67L452.38 178.61L453.06 178.56L453.56 178.52L453.86 178.5L453.97 178.49L455.31 178.46L456.6 178.54L457.82 178.71L458.98 178.97L460.08 179.32L461.12 179.74L462.09 180.25L463 180.82L463.85 181.46L464.63 182.15L465.35 182.91L466 183.71L466.58 184.56L467.11 185.45L467.56 186.38L467.95 187.34L468.27 188.32L468.52 189.32L468.7 190.34L468.82 191.37L468.87 192.41L468.84 193.45L468.75 194.48L468.59 195.5L468.36 196.52L468.05 197.51L467.68 198.48L467.23 199.42L466.71 200.32L466.12 201.19L465.45 202.01L464.71 202.79L463.9 203.51L463.02 204.17L462.05 204.78L461.02 205.31L459.9 205.77L458.72 206.15L457.45 206.44L456.11 206.65L456.08 206.66L455.97 206.67L455.8 206.69L455.57 206.72L455.28 206.75L454.92 206.79L454.5 206.83L454.02 206.89L453.49 206.94L452.9 207.01L452.26 207.07L451.56 207.15L450.82 207.22L450.02 207.31L449.18 207.39L448.29 207.48L447.36 207.57L446.38 207.67L445.36 207.76L444.3 207.86L443.2 207.97L442.07 208.07L440.9 208.18L439.69 208.28L438.45 208.39L437.19 208.5L435.89 208.61L434.56 208.72L433.21 208.83L431.84 208.93L430.44 209.04L429.01 209.15L427.57 209.25L426.11 209.35L424.63 209.45L423.14 209.55L421.63 209.65L420.11 209.74L418.58 209.83L417.04 209.91L540.45 576.94L574.53 463.17L575.81 459.86L577.06 456.57L578.27 453.31L579.46 450.08L580.61 446.88L581.73 443.71L582.82 440.56L583.87 437.45L584.9 434.36L585.89 431.3L586.84 428.27L587.77 425.27L588.66 422.3L589.52 419.35L590.35 416.44L591.15 413.55L591.91 410.69L592.64 407.86L593.34 405.06L594.01 402.29L594.64 399.54L595.25 396.82L595.81 394.14L596.35 391.48L596.86 388.84L597.33 386.24L597.77 383.67L598.17 381.12L598.55 378.6L598.89 376.11L599.2 373.65L599.48 371.22L599.72 368.81L599.93 366.43L600.11 364.08L600.26 361.76L600.37 359.47L600.45 357.21L600.5 354.97L600.52 352.76L600.49 349.62L600.41 346.53L600.27 343.48L600.08 340.48L599.84 337.53L599.55 334.62L599.22 331.76L598.83 328.94L598.41 326.17L597.94 323.43L597.43 320.75L596.88 318.1L596.3 315.49L595.68 312.93L595.02 310.41L594.33 307.92L593.62 305.48L592.87 303.07L592.09 300.7L591.29 298.37L590.47 296.07L589.62 293.81L588.75 291.59L587.86 289.4L586.95 287.24L586.03 285.12L585.09 283.03L584.15 280.97L583.18 278.95L582.21 276.95L581.24 274.99L580.25 273.05L579.26 271.15L578.27 269.27L577.28 267.42L576.28 265.6L575.29 263.81L574.3 262.04L573.32 260.3L572.34 258.58L571.05 256.48L569.76 254.4L568.48 252.33L567.2 250.27L565.94 248.23L564.69 246.19L563.45 244.17L562.22 242.16L561.01 240.16L559.81 238.17L558.64 236.19L557.48 234.21L556.35 232.24L555.23 230.28L554.14 228.32L553.08 226.36L552.04 224.41L551.03 222.46L550.05 220.51L549.11 218.56L548.19 216.61L547.31 214.66L546.46 212.71L545.65 210.76L544.88 208.8L544.15 206.84L543.45 204.88L542.8 202.9L542.2 200.93L541.64 198.94L541.12 196.95L540.66 194.94L540.24 192.93L539.88 190.91L539.56 188.87L539.3 186.82L539.1 184.76L538.95 182.69L538.86 180.6L538.83 178.5L538.88 176.15L539.01 173.81L539.23 171.48L539.53 169.18L539.92 166.88L540.39 164.61L540.94 162.37L541.57 160.15L542.28 157.96L543.07 155.79L543.93 153.67L544.87 151.57L545.88 149.52L546.96 147.51L548.12 145.54L549.34 143.62L550.63 141.75L551.99 139.92L553.42 138.15L554.91 136.44L556.46 134.79L558.07 133.2L559.75 131.67L561.48 130.21L563.27 128.81L565.12 127.49L567.02 126.25L568.98 125.07L570.99 123.98L573.05 122.97L575.16 122.05L577.32 121.21L579.53 120.46L581.78 119.8L584.08 119.24L586.42 118.77L588.8 118.4L591.23 118.14L593.69 117.97L596.19 117.92L596.3 117.92L596.41 117.92L596.52 117.92L596.63 117.93L596.74 117.93L596.85 117.93L596.96 117.93L597.07 117.94L597.18 117.94L597.29 117.95L597.4 117.95L597.51 117.96L597.62 117.97L597.73 117.97L597.84 117.98L597.95 117.99L598.06 118L598.17 118L598.28 118.01L598.39 118.02L598.5 118.03L598.61 118.04L598.72 118.05L598.83 118.06L598.93 118.07L599.04 118.08L599.15 118.09L599.26 118.1L599.37 118.11L599.59 118.13L599.7 118.13L599.81 118.14L599.92 118.15L600.03 118.16L600.14 118.17L600.25 118.18L600.36 118.19L600.47 118.2L600.58 118.21L595.99 114.07L591.32 110.02L586.58 106.05L581.77 102.17L576.88 98.37L571.93 94.66L566.9 91.03L561.81 87.5L556.66 84.06L551.43 80.7L546.15 77.45L540.8 74.28L535.38 71.21L529.91 68.24L524.38 65.36L518.79 62.58L513.14 59.91L507.43 57.33L501.67 54.86L495.86 52.48L489.99 50.22L484.07 48.06L478.1 46L472.08 44.05L466.01 42.22L459.9 40.49L453.74 38.87L447.54 37.37L441.29 35.98L435 34.7L428.66 33.54L422.29 32.5L415.88 31.58L409.43 30.77L402.94 30.09L396.42 29.53L389.87 29.09L383.28 28.77L376.65 28.58L370 28.52L361.08 28.63L352.22 28.98Z" id="ap6iufGz4"></path></defs><g><g><g><use xlink:href="#ap6iufGz4" opacity="1" fill="#f3f3f3" fill-opacity="1"></use></g></g></g></svg>