<?xml version="1.0" encoding="UTF-8" standalone="no"?>
<!DOCTYPE svg PUBLIC "-//W3C//DTD SVG 1.1//EN" "http://www.w3.org/Graphics/SVG/1.1/DTD/svg11.dtd">
<svg preserveAspectRatio="xMidYMid meet" viewBox="0 0 640 640" width="200" height="200"><defs><path d="M325.25 0.21L327.83 0.47L330.38 0.84L332.9 1.3L335.38 1.86L337.82 2.51L340.23 3.26L342.59 4.1L344.91 5.03L347.19 6.04L349.41 7.14L351.59 8.33L353.71 9.59L355.78 10.93L357.8 12.35L359.75 13.84L361.65 15.41L363.48 17.04L365.26 18.74L366.96 20.52L368.59 22.35L370.16 24.25L371.65 26.2L373.07 28.22L374.41 30.29L375.67 32.41L376.86 34.59L377.96 36.81L378.97 39.09L379.9 41.41L380.74 43.77L381.49 46.18L382.14 48.62L382.7 51.1L383.16 53.62L383.53 56.17L383.79 58.75L383.95 61.36L384 64L383.94 66.64L383.78 69.25L383.52 71.83L383.15 74.38L382.69 76.89L382.13 79.37L381.47 81.82L380.72 84.22L379.88 86.58L378.95 88.9L377.94 91.17L376.84 93.4L375.66 95.57L374.39 97.7L373.05 99.77L371.63 101.78L370.14 103.74L368.58 105.63L366.94 107.47L365.24 109.24L363.47 110.94L361.63 112.58L359.74 114.14L357.78 115.63L355.77 117.05L353.7 118.39L351.57 119.66L349.4 120.84L347.17 121.94L344.9 122.95L342.58 123.88L340.22 124.72L337.82 125.47L335.37 126.13L332.89 126.69L330.38 127.15L327.83 127.52L325.25 127.78L322.64 127.94L320 128L317.36 127.95L314.75 127.79L312.17 127.53L309.62 127.16L307.1 126.7L304.62 126.14L302.18 125.49L299.77 124.74L297.41 123.9L295.09 122.97L292.81 121.96L290.59 120.86L288.41 119.67L286.29 118.41L284.22 117.07L282.2 115.65L280.25 114.16L278.35 112.59L276.52 110.96L274.75 109.26L273.04 107.48L271.41 105.65L269.84 103.75L268.35 101.8L266.93 99.78L265.59 97.71L264.33 95.59L263.14 93.41L262.04 91.19L261.03 88.91L260.1 86.59L259.26 84.23L258.51 81.82L257.86 79.38L257.3 76.9L256.84 74.38L256.47 71.83L256.21 69.25L256.05 66.64L256 64L256.05 61.36L256.21 58.75L256.47 56.17L256.84 53.62L257.3 51.1L257.86 48.62L258.51 46.18L259.26 43.77L260.1 41.41L261.03 39.09L262.04 36.81L263.14 34.59L264.33 32.41L265.59 30.29L266.93 28.22L268.35 26.2L269.84 24.25L271.41 22.35L273.04 20.52L274.75 18.74L276.52 17.04L278.35 15.41L280.25 13.84L282.2 12.35L284.22 10.93L286.29 9.59L288.41 8.33L290.59 7.14L292.81 6.04L295.09 5.03L297.41 4.1L299.77 3.26L302.18 2.51L304.62 1.86L307.1 1.3L309.62 0.84L312.17 0.47L314.75 0.21L317.36 0.05L320 0L322.64 0.05L325.25 0.21ZM316.5 21.47L314.78 21.65L313.08 21.89L311.4 22.2L309.75 22.57L308.12 23.01L306.51 23.51L304.94 24.07L303.39 24.69L301.88 25.36L300.39 26.1L298.94 26.88L297.53 27.73L296.14 28.62L294.8 29.57L293.5 30.56L292.23 31.6L291.01 32.69L289.83 33.83L288.69 35.01L287.6 36.23L286.56 37.5L285.57 38.8L284.62 40.14L283.73 41.53L282.88 42.94L282.1 44.39L281.36 45.88L280.69 47.39L280.07 48.94L279.51 50.51L279.01 52.12L278.57 53.75L278.2 55.4L277.89 57.08L277.65 58.78L277.47 60.5L277.37 62.24L277.33 64L277.37 65.76L277.47 67.5L277.65 69.22L277.89 70.92L278.2 72.6L278.57 74.25L279.01 75.88L279.51 77.49L280.07 79.06L280.69 80.61L281.36 82.12L282.1 83.61L282.88 85.06L283.73 86.47L284.62 87.86L285.57 89.2L286.56 90.5L287.6 91.77L288.69 92.99L289.83 94.17L291.01 95.31L292.23 96.4L293.5 97.44L294.8 98.43L296.14 99.38L297.53 100.27L298.94 101.12L300.39 101.9L301.88 102.64L303.39 103.31L304.94 103.93L306.51 104.49L308.12 104.99L309.75 105.43L311.4 105.8L313.08 106.11L314.78 106.35L316.5 106.53L318.24 106.63L320 106.67L321.76 106.63L323.5 106.53L325.22 106.35L326.92 106.11L328.6 105.8L330.25 105.43L331.88 104.99L333.49 104.49L335.06 103.93L336.61 103.31L338.12 102.64L339.61 101.9L341.06 101.12L342.47 100.27L343.86 99.38L345.2 98.43L346.5 97.44L347.77 96.4L348.99 95.31L350.17 94.17L351.31 92.99L352.4 91.77L353.44 90.5L354.43 89.2L355.38 87.86L356.27 86.47L357.12 85.06L357.9 83.61L358.64 82.12L359.31 80.61L359.93 79.06L360.49 77.49L360.99 75.88L361.43 74.25L361.8 72.6L362.11 70.92L362.35 69.22L362.53 67.5L362.63 65.76L362.67 64L362.63 62.24L362.53 60.5L362.35 58.78L362.11 57.08L361.8 55.4L361.43 53.75L360.99 52.12L360.49 50.51L359.93 48.94L359.31 47.39L358.64 45.88L357.9 44.39L357.12 42.94L356.27 41.53L355.38 40.14L354.43 38.8L353.44 37.5L352.4 36.23L351.31 35.01L350.17 33.83L348.99 32.69L347.77 31.6L346.5 30.56L345.2 29.57L343.86 28.62L342.47 27.73L341.06 26.88L339.61 26.1L338.12 25.36L336.61 24.69L335.06 24.07L333.49 23.51L331.88 23.01L330.25 22.57L328.6 22.2L326.92 21.89L325.22 21.65L323.5 21.47L321.76 21.37L320 21.33L318.24 21.37L316.5 21.47Z" id="a2TCfmDqly"></path><path d="M283.9 140.66L285.71 141.48L287.54 142.26L289.38 143L291.23 143.69L293.1 144.33L294.97 144.93L296.86 145.49L298.75 146L300.66 146.47L302.57 146.89L304.49 147.27L306.41 147.61L308.34 147.9L310.28 148.14L312.22 148.34L314.16 148.5L316.11 148.61L318.05 148.68L320 148.7L321.95 148.68L323.89 148.61L325.84 148.5L327.78 148.34L329.72 148.14L331.66 147.9L333.59 147.61L335.51 147.27L337.43 146.89L339.34 146.47L341.25 146L343.14 145.49L345.03 144.93L346.9 144.33L348.77 143.69L350.62 143L352.46 142.26L354.29 141.48L356.1 140.66L357.9 139.79L360.15 138.67L362.67 138.67L364.86 138.71L367.04 138.85L369.19 139.07L371.31 139.37L373.41 139.76L375.48 140.23L377.51 140.78L379.51 141.4L381.48 142.1L383.42 142.87L385.31 143.72L387.16 144.64L388.98 145.62L390.75 146.68L392.47 147.79L394.15 148.98L395.78 150.22L397.36 151.52L398.89 152.89L400.36 154.31L401.78 155.78L403.14 157.31L404.45 158.89L405.69 160.52L406.87 162.2L407.99 163.92L409.04 165.69L410.03 167.5L410.95 169.36L411.79 171.25L412.57 173.18L413.27 175.15L413.89 177.15L414.44 179.19L414.91 181.26L415.29 183.35L415.6 185.48L415.82 187.63L415.95 189.8L416 192L416 256L415.97 257.32L415.89 258.62L415.76 259.92L415.58 261.19L415.35 262.45L415.07 263.69L414.74 264.91L414.37 266.11L413.95 267.3L413.49 268.46L412.98 269.59L412.43 270.71L411.84 271.79L411.21 272.86L410.53 273.89L409.83 274.9L409.08 275.88L408.3 276.83L407.48 277.74L406.63 278.63L405.74 279.48L404.83 280.3L403.88 281.08L402.9 281.83L401.89 282.53L400.86 283.21L399.79 283.84L398.71 284.43L397.59 284.98L396.46 285.49L395.3 285.95L394.11 286.37L392.91 286.74L391.69 287.07L390.45 287.35L389.19 287.58L387.92 287.76L386.62 287.89L385.32 287.97L384 288L256 288L254.68 287.97L253.38 287.89L252.08 287.76L250.81 287.58L249.55 287.35L248.31 287.07L247.09 286.74L245.89 286.37L244.7 285.95L243.54 285.49L242.41 284.98L241.29 284.43L240.21 283.84L239.14 283.21L238.11 282.53L237.1 281.83L236.12 281.08L235.17 280.3L234.26 279.48L233.37 278.63L232.52 277.74L231.7 276.83L230.92 275.88L230.17 274.9L229.47 273.89L228.79 272.86L228.16 271.79L227.57 270.71L227.02 269.59L226.51 268.46L226.05 267.3L225.63 266.11L225.26 264.91L224.93 263.69L224.65 262.45L224.42 261.19L224.24 259.92L224.11 258.62L224.03 257.32L224 256L224 192L224.05 189.8L224.18 187.63L224.4 185.48L224.71 183.35L225.09 181.26L225.56 179.19L226.11 177.15L226.73 175.15L227.43 173.18L228.21 171.25L229.05 169.36L229.97 167.5L230.96 165.69L232.01 163.92L233.13 162.2L234.31 160.52L235.55 158.89L236.86 157.31L238.22 155.78L239.64 154.31L241.11 152.89L242.64 151.52L244.22 150.22L245.85 148.98L247.53 147.79L249.25 146.68L251.02 145.62L252.84 144.64L254.69 143.72L256.58 142.87L258.52 142.1L260.49 141.4L262.49 140.78L264.52 140.23L266.59 139.76L268.69 139.37L270.81 139.07L272.96 138.85L275.14 138.71L277.33 138.67L279.85 138.67L282.1 139.79L283.9 140.66ZM360.63 161.97L358.46 162.84L356.27 163.66L354.06 164.43L351.85 165.14L349.62 165.81L347.38 166.43L345.14 167L342.88 167.53L340.62 168L338.34 168.42L336.07 168.79L333.78 169.11L331.49 169.39L329.2 169.61L326.9 169.78L324.6 169.91L322.3 169.98L320 170.01L317.7 169.98L315.4 169.91L313.1 169.78L310.8 169.61L308.51 169.39L306.22 169.11L303.94 168.79L301.66 168.42L299.39 168L297.12 167.53L294.86 167L292.62 166.43L290.38 165.81L288.15 165.14L285.94 164.43L283.73 163.66L281.54 162.84L279.37 161.97L277.21 161.05L275.06 160.09L273.81 160.2L272.58 160.36L271.36 160.56L270.16 160.82L268.98 161.11L267.81 161.45L266.66 161.83L265.54 162.25L264.43 162.71L263.35 163.21L262.29 163.75L261.25 164.33L260.24 164.95L259.26 165.6L258.3 166.28L257.36 167L256.46 167.75L255.58 168.53L254.73 169.35L253.92 170.19L253.13 171.07L252.38 171.97L251.66 172.9L250.98 173.86L250.32 174.84L249.71 175.84L249.13 176.87L248.59 177.93L248.09 179L247.62 180.1L247.2 181.21L246.82 182.35L246.48 183.5L246.18 184.67L245.92 185.86L245.71 187.06L245.55 188.27L245.43 189.5L245.36 190.75L245.33 192L245.33 256L245.34 256.44L245.37 256.87L245.41 257.31L245.47 257.73L245.55 258.15L245.64 258.56L245.75 258.97L245.88 259.37L246.02 259.77L246.17 260.15L246.34 260.53L246.52 260.9L246.72 261.26L246.93 261.62L247.16 261.96L247.39 262.3L247.64 262.63L247.9 262.94L248.17 263.25L248.46 263.54L248.75 263.83L249.06 264.1L249.37 264.36L249.7 264.61L250.04 264.84L250.38 265.07L250.74 265.28L251.1 265.48L251.47 265.66L251.85 265.83L252.23 265.98L252.63 266.12L253.03 266.25L253.44 266.36L253.85 266.45L254.27 266.53L254.69 266.59L255.13 266.63L255.56 266.66L256 266.67L384 266.67L384.29 266.66L384.59 266.64L384.88 266.61L385.17 266.56L385.46 266.5L385.74 266.43L386.03 266.34L386.31 266.24L386.59 266.13L386.88 266L387.16 265.86L387.43 265.71L387.71 265.54L387.99 265.36L388.26 265.17L388.53 264.96L388.81 264.74L389.08 264.51L389.34 264.26L389.61 264L389.88 263.73L390.14 263.44L390.41 263.14L390.67 262.83L390.93 262.5L391.19 262.16L391.44 261.81L391.7 261.44L391.96 261.06L392.21 260.67L392.46 260.26L392.71 259.84L392.96 259.41L393.21 258.96L393.46 258.5L393.7 258.03L393.94 257.54L394.19 257.04L394.43 256.53L394.67 256L394.67 192L394.64 190.75L394.57 189.5L394.45 188.27L394.29 187.06L394.08 185.86L393.82 184.67L393.52 183.5L393.18 182.35L392.8 181.21L392.38 180.1L391.91 179L391.41 177.93L390.87 176.87L390.29 175.84L389.67 174.84L389.02 173.86L388.34 172.9L387.62 171.97L386.87 171.07L386.08 170.19L385.27 169.35L384.42 168.53L383.54 167.75L382.64 167L381.7 166.28L380.74 165.6L379.76 164.95L378.74 164.33L377.71 163.75L376.65 163.21L375.57 162.71L374.46 162.25L373.34 161.83L372.19 161.45L371.02 161.11L369.84 160.82L368.64 160.56L367.42 160.36L366.19 160.2L364.94 160.09L362.79 161.05L360.63 161.97Z" id="a1AOxaLswq"></path><path d="M549.25 352.22L551.83 352.48L554.38 352.85L556.89 353.31L559.37 353.87L561.82 354.53L564.22 355.28L566.58 356.12L568.9 357.05L571.17 358.06L573.4 359.16L575.57 360.34L577.7 361.61L579.77 362.95L581.78 364.37L583.74 365.86L585.63 367.42L587.47 369.06L589.24 370.76L590.94 372.53L592.58 374.37L594.14 376.26L595.63 378.22L597.05 380.23L598.39 382.3L599.66 384.43L600.84 386.6L601.94 388.83L602.95 391.1L603.88 393.42L604.72 395.78L605.47 398.18L606.13 400.63L606.69 403.11L607.15 405.62L607.52 408.17L607.78 410.75L607.94 413.36L608 416L607.95 418.64L607.79 421.25L607.53 423.83L607.16 426.38L606.7 428.9L606.14 431.38L605.49 433.82L604.74 436.23L603.9 438.59L602.97 440.91L601.96 443.19L600.86 445.41L599.67 447.59L598.41 449.71L597.07 451.78L595.65 453.8L594.16 455.75L592.59 457.65L590.96 459.48L589.26 461.26L587.48 462.96L585.65 464.59L583.75 466.16L581.8 467.65L579.78 469.07L577.71 470.41L575.59 471.67L573.41 472.86L571.19 473.96L568.91 474.97L566.59 475.9L564.23 476.74L561.82 477.49L559.38 478.14L556.9 478.7L554.38 479.16L551.83 479.53L549.25 479.79L546.64 479.95L544 480L541.36 479.95L538.75 479.79L536.17 479.53L533.62 479.16L531.1 478.7L528.62 478.14L526.18 477.49L523.77 476.74L521.41 475.9L519.09 474.97L516.81 473.96L514.59 472.86L512.41 471.67L510.29 470.41L508.22 469.07L506.2 467.65L504.25 466.16L502.35 464.59L500.52 462.96L498.75 461.26L497.04 459.48L495.41 457.65L493.84 455.75L492.35 453.8L490.93 451.78L489.59 449.71L488.33 447.59L487.14 445.41L486.04 443.19L485.03 440.91L484.1 438.59L483.26 436.23L482.51 433.82L481.86 431.38L481.3 428.9L480.84 426.38L480.47 423.83L480.21 421.25L480.05 418.64L480 416L480.05 413.36L480.21 410.75L480.47 408.17L480.84 405.62L481.3 403.1L481.86 400.62L482.51 398.18L483.26 395.77L484.1 393.41L485.03 391.09L486.04 388.81L487.14 386.59L488.33 384.41L489.59 382.29L490.93 380.22L492.35 378.2L493.84 376.25L495.41 374.35L497.04 372.52L498.75 370.75L500.52 369.04L502.35 367.41L504.25 365.84L506.2 364.35L508.22 362.93L510.29 361.59L512.41 360.33L514.59 359.14L516.81 358.04L519.09 357.03L521.41 356.1L523.77 355.26L526.18 354.51L528.62 353.86L531.1 353.3L533.62 352.84L536.17 352.47L538.75 352.21L541.36 352.05L544 352L546.64 352.06L549.25 352.22ZM540.5 373.47L538.78 373.65L537.08 373.89L535.4 374.2L533.75 374.57L532.12 375.01L530.51 375.51L528.94 376.07L527.39 376.69L525.88 377.36L524.39 378.1L522.94 378.88L521.53 379.73L520.14 380.62L518.8 381.57L517.5 382.56L516.23 383.6L515.01 384.69L513.83 385.83L512.69 387.01L511.6 388.23L510.56 389.5L509.57 390.8L508.62 392.14L507.73 393.53L506.88 394.94L506.1 396.39L505.36 397.88L504.69 399.39L504.07 400.94L503.51 402.51L503.01 404.12L502.57 405.75L502.2 407.4L501.89 409.08L501.65 410.78L501.47 412.5L501.37 414.24L501.33 416L501.37 417.76L501.47 419.5L501.65 421.22L501.89 422.92L502.2 424.6L502.57 426.25L503.01 427.88L503.51 429.49L504.07 431.06L504.69 432.61L505.36 434.12L506.1 435.61L506.88 437.06L507.73 438.47L508.62 439.86L509.57 441.2L510.56 442.5L511.6 443.77L512.69 444.99L513.83 446.17L515.01 447.31L516.23 448.4L517.5 449.44L518.8 450.43L520.14 451.38L521.53 452.27L522.94 453.12L524.39 453.9L525.88 454.64L527.39 455.31L528.94 455.93L530.51 456.49L532.12 456.99L533.75 457.43L535.4 457.8L537.08 458.11L538.78 458.35L540.5 458.53L542.24 458.63L544 458.67L545.76 458.63L547.5 458.53L549.22 458.35L550.92 458.11L552.6 457.8L554.25 457.43L555.88 456.99L557.49 456.49L559.06 455.93L560.61 455.31L562.12 454.64L563.61 453.9L565.06 453.12L566.47 452.27L567.86 451.38L569.2 450.43L570.5 449.44L571.77 448.4L572.99 447.31L574.17 446.17L575.31 444.99L576.4 443.77L577.44 442.5L578.43 441.2L579.38 439.86L580.27 438.47L581.12 437.06L581.9 435.61L582.64 434.12L583.31 432.61L583.93 431.06L584.49 429.49L584.99 427.88L585.43 426.25L585.8 424.6L586.11 422.92L586.35 421.22L586.53 419.5L586.63 417.76L586.67 416L586.63 414.24L586.53 412.5L586.35 410.78L586.11 409.08L585.8 407.4L585.43 405.75L584.99 404.12L584.49 402.51L583.93 400.94L583.31 399.39L582.64 397.88L581.9 396.39L581.12 394.94L580.27 393.53L579.38 392.14L578.43 390.8L577.44 389.5L576.4 388.23L575.31 387.01L574.17 385.83L572.99 384.69L571.77 383.6L570.5 382.56L569.2 381.57L567.86 380.62L566.47 379.73L565.06 378.88L563.61 378.1L562.12 377.36L560.61 376.69L559.06 376.07L557.49 375.51L555.88 375.01L554.25 374.57L552.6 374.2L550.92 373.89L549.22 373.65L547.5 373.47L545.76 373.37L544 373.33L542.24 373.37L540.5 373.47Z" id="a60NscwvMY"></path><path d="M507.9 492.6L509.71 493.43L511.54 494.21L513.38 494.94L515.23 495.63L517.1 496.28L518.97 496.88L520.86 497.44L522.75 497.95L524.66 498.42L526.57 498.84L528.49 499.22L530.41 499.55L532.34 499.84L534.28 500.09L536.22 500.29L538.16 500.44L540.11 500.56L542.05 500.62L544 500.65L545.95 500.62L547.89 500.56L549.84 500.44L551.78 500.29L553.72 500.09L555.66 499.84L557.59 499.55L559.51 499.22L561.43 498.84L563.34 498.42L565.25 497.95L567.14 497.44L569.03 496.88L570.9 496.28L572.77 495.63L574.62 494.94L576.46 494.21L578.29 493.43L580.1 492.6L581.9 491.73L584.15 490.67L586.67 490.67L588.86 490.71L591.04 490.85L593.19 491.07L595.31 491.37L597.41 491.76L599.48 492.23L601.51 492.78L603.51 493.4L605.48 494.1L607.42 494.87L609.31 495.72L611.16 496.64L612.98 497.62L614.75 498.68L616.47 499.79L618.15 500.98L619.78 502.22L621.36 503.52L622.89 504.89L624.36 506.31L625.78 507.78L627.14 509.31L628.45 510.89L629.69 512.52L630.87 514.2L631.99 515.92L633.04 517.69L634.03 519.5L634.95 521.36L635.79 523.25L636.57 525.18L637.27 527.15L637.89 529.15L638.44 531.19L638.91 533.26L639.29 535.35L639.6 537.48L639.82 539.63L639.95 541.8L640 544L640 608L639.97 609.32L639.89 610.62L639.76 611.92L639.58 613.19L639.35 614.45L639.07 615.69L638.74 616.91L638.37 618.11L637.95 619.3L637.49 620.46L636.98 621.59L636.43 622.71L635.84 623.79L635.21 624.86L634.53 625.89L633.83 626.9L633.08 627.88L632.3 628.83L631.48 629.74L630.63 630.63L629.74 631.48L628.83 632.3L627.88 633.08L626.9 633.83L625.89 634.53L624.86 635.21L623.79 635.84L622.71 636.43L621.59 636.98L620.46 637.49L619.3 637.95L618.11 638.37L616.91 638.74L615.69 639.07L614.45 639.35L613.19 639.58L611.92 639.76L610.62 639.89L609.32 639.97L608 640L480 640L478.68 639.97L477.38 639.89L476.08 639.76L474.81 639.58L473.55 639.35L472.31 639.07L471.09 638.74L469.89 638.37L468.7 637.95L467.54 637.49L466.41 636.98L465.29 636.43L464.21 635.84L463.14 635.21L462.11 634.53L461.1 633.83L460.12 633.08L459.17 632.3L458.26 631.48L457.37 630.63L456.52 629.74L455.7 628.83L454.92 627.88L454.17 626.9L453.47 625.89L452.79 624.86L452.16 623.79L451.57 622.71L451.02 621.59L450.51 620.46L450.05 619.3L449.63 618.11L449.26 616.91L448.93 615.69L448.65 614.45L448.42 613.19L448.24 611.92L448.11 610.62L448.03 609.32L448 608L448 544L448.05 541.8L448.18 539.63L448.4 537.48L448.71 535.35L449.09 533.26L449.56 531.19L450.11 529.15L450.73 527.15L451.43 525.18L452.21 523.25L453.05 521.36L453.97 519.5L454.96 517.69L456.01 515.92L457.13 514.2L458.31 512.52L459.55 510.89L460.86 509.31L462.22 507.78L463.64 506.31L465.11 504.89L466.64 503.52L468.22 502.22L469.85 500.98L471.53 499.79L473.25 498.68L475.02 497.62L476.84 496.64L478.69 495.72L480.58 494.87L482.52 494.1L484.49 493.4L486.49 492.78L488.52 492.23L490.59 491.76L492.69 491.37L494.81 491.07L496.96 490.85L499.14 490.71L501.33 490.67L503.85 490.67L506.1 491.73L507.9 492.6ZM584.63 513.97L582.46 514.84L580.27 515.66L578.06 516.43L575.85 517.14L573.62 517.81L571.38 518.43L569.14 519L566.88 519.53L564.62 520L562.34 520.42L560.06 520.79L557.78 521.11L555.49 521.39L553.2 521.61L550.9 521.78L548.6 521.91L546.3 521.98L544 522.01L541.7 521.98L539.4 521.91L537.1 521.78L534.8 521.61L532.51 521.39L530.22 521.11L527.94 520.79L525.66 520.42L523.38 520L521.12 519.53L518.86 519L516.62 518.43L514.38 517.81L512.15 517.14L509.94 516.43L507.73 515.66L505.54 514.84L503.37 513.97L501.21 513.05L499.06 512.09L497.81 512.2L496.58 512.36L495.36 512.56L494.16 512.82L492.98 513.11L491.81 513.45L490.66 513.83L489.54 514.25L488.43 514.71L487.35 515.21L486.29 515.75L485.25 516.33L484.24 516.95L483.26 517.6L482.3 518.28L481.36 519L480.46 519.75L479.58 520.53L478.73 521.35L477.92 522.19L477.13 523.07L476.38 523.97L475.66 524.9L474.98 525.86L474.32 526.84L473.71 527.84L473.13 528.87L472.59 529.93L472.09 531L471.62 532.1L471.2 533.21L470.82 534.35L470.48 535.5L470.18 536.67L469.92 537.86L469.71 539.06L469.55 540.27L469.43 541.5L469.36 542.75L469.33 544L469.33 608L469.34 608.44L469.37 608.87L469.41 609.31L469.47 609.73L469.55 610.15L469.64 610.56L469.75 610.97L469.88 611.37L470.02 611.77L470.17 612.15L470.34 612.53L470.52 612.9L470.72 613.26L470.93 613.62L471.16 613.96L471.39 614.3L471.64 614.63L471.9 614.94L472.17 615.25L472.46 615.54L472.75 615.83L473.06 616.1L473.37 616.36L473.7 616.61L474.04 616.84L474.38 617.07L474.74 617.28L475.1 617.48L475.47 617.66L475.85 617.83L476.23 617.98L476.63 618.12L477.03 618.25L477.44 618.36L477.85 618.45L478.27 618.53L478.69 618.59L479.13 618.63L479.56 618.66L480 618.67L608 618.67L608.29 618.66L608.59 618.64L608.88 618.61L609.17 618.56L609.46 618.5L609.74 618.43L610.03 618.34L610.31 618.24L610.59 618.13L610.88 618L611.16 617.86L611.43 617.71L611.71 617.54L611.99 617.36L612.26 617.17L612.53 616.96L612.81 616.74L613.08 616.51L613.34 616.26L613.61 616L613.88 615.73L614.14 615.44L614.41 615.14L614.67 614.83L614.93 614.5L615.19 614.16L615.44 613.81L615.7 613.44L615.96 613.06L616.21 612.67L616.46 612.26L616.71 611.84L616.96 611.41L617.21 610.96L617.46 610.5L617.7 610.03L617.94 609.54L618.19 609.04L618.43 608.53L618.67 608L618.67 544L618.64 542.75L618.57 541.5L618.45 540.27L618.29 539.06L618.08 537.86L617.82 536.67L617.52 535.5L617.18 534.35L616.8 533.21L616.38 532.1L615.91 531L615.41 529.93L614.87 528.87L614.29 527.84L613.68 526.84L613.02 525.86L612.34 524.9L611.62 523.97L610.87 523.07L610.08 522.19L609.27 521.35L608.42 520.53L607.54 519.75L606.64 519L605.7 518.28L604.74 517.6L603.76 516.95L602.75 516.33L601.71 515.75L600.65 515.21L599.57 514.71L598.46 514.25L597.34 513.83L596.19 513.45L595.02 513.11L593.84 512.82L592.64 512.56L591.42 512.36L590.19 512.2L588.94 512.09L586.79 513.05L584.63 513.97Z" id="bHCdjPb"></path><path d="M101.25 352.22L103.83 352.48L106.38 352.85L108.89 353.31L111.37 353.87L113.82 354.53L116.22 355.28L118.58 356.12L120.9 357.05L123.17 358.06L125.4 359.16L127.57 360.34L129.7 361.61L131.77 362.95L133.78 364.37L135.74 365.86L137.63 367.42L139.47 369.06L141.24 370.76L142.94 372.53L144.58 374.37L146.14 376.26L147.63 378.22L149.05 380.23L150.39 382.3L151.66 384.43L152.84 386.6L153.94 388.83L154.95 391.1L155.88 393.42L156.72 395.78L157.47 398.18L158.13 400.63L158.69 403.11L159.15 405.62L159.52 408.17L159.78 410.75L159.94 413.36L160 416L159.95 418.64L159.79 421.25L159.53 423.83L159.16 426.38L158.7 428.9L158.14 431.38L157.49 433.82L156.74 436.23L155.9 438.59L154.97 440.91L153.96 443.19L152.86 445.41L151.67 447.59L150.41 449.71L149.07 451.78L147.65 453.8L146.16 455.75L144.59 457.65L142.96 459.48L141.26 461.26L139.48 462.96L137.65 464.59L135.75 466.16L133.8 467.65L131.78 469.07L129.71 470.41L127.59 471.67L125.41 472.86L123.19 473.96L120.91 474.97L118.59 475.9L116.23 476.74L113.82 477.49L111.38 478.14L108.9 478.7L106.38 479.16L103.83 479.53L101.25 479.79L98.64 479.95L96 480L93.36 479.95L90.75 479.79L88.17 479.53L85.62 479.16L83.1 478.7L80.62 478.14L78.18 477.49L75.77 476.74L73.41 475.9L71.09 474.97L68.81 473.96L66.59 472.86L64.41 471.67L62.29 470.41L60.22 469.07L58.2 467.65L56.25 466.16L54.35 464.59L52.52 462.96L50.75 461.26L49.04 459.48L47.41 457.65L45.84 455.75L44.35 453.8L42.93 451.78L41.59 449.71L40.33 447.59L39.14 445.41L38.04 443.19L37.03 440.91L36.1 438.59L35.26 436.23L34.51 433.82L33.86 431.38L33.3 428.9L32.84 426.38L32.47 423.83L32.21 421.25L32.05 418.64L32 416L32.05 413.36L32.21 410.75L32.47 408.17L32.84 405.62L33.3 403.1L33.86 400.62L34.51 398.18L35.26 395.77L36.1 393.41L37.03 391.09L38.04 388.81L39.14 386.59L40.33 384.41L41.59 382.29L42.93 380.22L44.35 378.2L45.84 376.25L47.41 374.35L49.04 372.52L50.75 370.75L52.52 369.04L54.35 367.41L56.25 365.84L58.2 364.35L60.22 362.93L62.29 361.59L64.41 360.33L66.59 359.14L68.81 358.04L71.09 357.03L73.41 356.1L75.77 355.26L78.18 354.51L80.62 353.86L83.1 353.3L85.62 352.84L88.17 352.47L90.75 352.21L93.36 352.05L96 352L98.64 352.06L101.25 352.22ZM92.5 373.47L90.78 373.65L89.08 373.89L87.4 374.2L85.75 374.57L84.12 375.01L82.51 375.51L80.94 376.07L79.39 376.69L77.88 377.36L76.39 378.1L74.94 378.88L73.53 379.73L72.14 380.62L70.8 381.57L69.5 382.56L68.23 383.6L67.01 384.69L65.83 385.83L64.69 387.01L63.6 388.23L62.56 389.5L61.57 390.8L60.62 392.14L59.73 393.53L58.88 394.94L58.1 396.39L57.36 397.88L56.69 399.39L56.07 400.94L55.51 402.51L55.01 404.12L54.57 405.75L54.2 407.4L53.89 409.08L53.65 410.78L53.47 412.5L53.37 414.24L53.33 416L53.37 417.76L53.47 419.5L53.65 421.22L53.89 422.92L54.2 424.6L54.57 426.25L55.01 427.88L55.51 429.49L56.07 431.06L56.69 432.61L57.36 434.12L58.1 435.61L58.88 437.06L59.73 438.47L60.62 439.86L61.57 441.2L62.56 442.5L63.6 443.77L64.69 444.99L65.83 446.17L67.01 447.31L68.23 448.4L69.5 449.44L70.8 450.43L72.14 451.38L73.53 452.27L74.94 453.12L76.39 453.9L77.88 454.64L79.39 455.31L80.94 455.93L82.51 456.49L84.12 456.99L85.75 457.43L87.4 457.8L89.08 458.11L90.78 458.35L92.5 458.53L94.24 458.63L96 458.67L97.76 458.63L99.5 458.53L101.22 458.35L102.92 458.11L104.6 457.8L106.25 457.43L107.88 456.99L109.49 456.49L111.06 455.93L112.61 455.31L114.12 454.64L115.61 453.9L117.06 453.12L118.47 452.27L119.86 451.38L121.2 450.43L122.5 449.44L123.77 448.4L124.99 447.31L126.17 446.17L127.31 444.99L128.4 443.77L129.44 442.5L130.43 441.2L131.38 439.86L132.27 438.47L133.12 437.06L133.9 435.61L134.64 434.12L135.31 432.61L135.93 431.06L136.49 429.49L136.99 427.88L137.43 426.25L137.8 424.6L138.11 422.92L138.35 421.22L138.53 419.5L138.63 417.76L138.67 416L138.63 414.24L138.53 412.5L138.35 410.78L138.11 409.08L137.8 407.4L137.43 405.75L136.99 404.12L136.49 402.51L135.93 400.94L135.31 399.39L134.64 397.88L133.9 396.39L133.12 394.94L132.27 393.53L131.38 392.14L130.43 390.8L129.44 389.5L128.4 388.23L127.31 387.01L126.17 385.83L124.99 384.69L123.77 383.6L122.5 382.56L121.2 381.57L119.86 380.62L118.47 379.73L117.06 378.88L115.61 378.1L114.12 377.36L112.61 376.69L111.06 376.07L109.49 375.51L107.88 375.01L106.25 374.57L104.6 374.2L102.92 373.89L101.22 373.65L99.5 373.47L97.76 373.37L96 373.33L94.24 373.37L92.5 373.47Z" id="f6dzv0uuF"></path><path d="M59.9 492.6L61.71 493.43L63.54 494.21L65.38 494.94L67.23 495.63L69.1 496.28L70.97 496.88L72.86 497.44L74.75 497.95L76.66 498.42L78.57 498.84L80.49 499.22L82.41 499.55L84.34 499.84L86.28 500.09L88.22 500.29L90.16 500.44L92.11 500.56L94.05 500.62L96 500.65L97.95 500.62L99.89 500.56L101.84 500.44L103.78 500.29L105.72 500.09L107.66 499.84L109.59 499.55L111.51 499.22L113.43 498.84L115.34 498.42L117.25 497.95L119.14 497.44L121.03 496.88L122.9 496.28L124.77 495.63L126.62 494.94L128.46 494.21L130.29 493.43L132.1 492.6L133.9 491.73L136.15 490.67L138.67 490.67L140.86 490.71L143.04 490.85L145.19 491.07L147.31 491.37L149.41 491.76L151.48 492.23L153.51 492.78L155.51 493.4L157.48 494.1L159.42 494.87L161.31 495.72L163.16 496.64L164.98 497.62L166.75 498.68L168.47 499.79L170.15 500.98L171.78 502.22L173.36 503.52L174.89 504.89L176.36 506.31L177.78 507.78L179.14 509.31L180.45 510.89L181.69 512.52L182.87 514.2L183.99 515.92L185.04 517.69L186.03 519.5L186.95 521.36L187.79 523.25L188.57 525.18L189.27 527.15L189.89 529.15L190.44 531.19L190.91 533.26L191.29 535.35L191.6 537.48L191.82 539.63L191.95 541.8L192 544L192 608L191.97 609.32L191.89 610.62L191.76 611.92L191.58 613.19L191.35 614.45L191.07 615.69L190.74 616.91L190.37 618.11L189.95 619.3L189.49 620.46L188.98 621.59L188.43 622.71L187.84 623.79L187.21 624.86L186.53 625.89L185.83 626.9L185.08 627.88L184.3 628.83L183.48 629.74L182.63 630.63L181.74 631.48L180.83 632.3L179.88 633.08L178.9 633.83L177.89 634.53L176.86 635.21L175.79 635.84L174.71 636.43L173.59 636.98L172.46 637.49L171.3 637.95L170.11 638.37L168.91 638.74L167.69 639.07L166.45 639.35L165.19 639.58L163.92 639.76L162.62 639.89L161.32 639.97L160 640L32 640L30.68 639.97L29.38 639.89L28.08 639.76L26.81 639.58L25.55 639.35L24.31 639.07L23.09 638.74L21.89 638.37L20.7 637.95L19.54 637.49L18.41 636.98L17.29 636.43L16.21 635.84L15.14 635.21L14.11 634.53L13.1 633.83L12.12 633.08L11.17 632.3L10.26 631.48L9.37 630.63L8.52 629.74L7.7 628.83L6.92 627.88L6.17 626.9L5.47 625.89L4.79 624.86L4.16 623.79L3.57 622.71L3.02 621.59L2.51 620.46L2.05 619.3L1.63 618.11L1.26 616.91L0.93 615.69L0.65 614.45L0.42 613.19L0.24 611.92L0.11 610.62L0.03 609.32L0 608L0 544L0.05 541.8L0.18 539.63L0.4 537.48L0.71 535.35L1.09 533.26L1.56 531.19L2.11 529.15L2.73 527.15L3.43 525.18L4.21 523.25L5.05 521.36L5.97 519.5L6.96 517.69L8.01 515.92L9.13 514.2L10.31 512.52L11.55 510.89L12.86 509.31L14.22 507.78L15.64 506.31L17.11 504.89L18.64 503.52L20.22 502.22L21.85 500.98L23.53 499.79L25.25 498.68L27.02 497.62L28.84 496.64L30.69 495.72L32.58 494.87L34.52 494.1L36.49 493.4L38.49 492.78L40.52 492.23L42.59 491.76L44.69 491.37L46.81 491.07L48.96 490.85L51.14 490.71L53.33 490.67L55.85 490.67L58.1 491.73L59.9 492.6ZM136.63 513.97L134.46 514.84L132.27 515.66L130.06 516.43L127.85 517.14L125.62 517.81L123.38 518.43L121.14 519L118.88 519.53L116.62 520L114.34 520.42L112.06 520.79L109.78 521.11L107.49 521.39L105.2 521.61L102.9 521.78L100.6 521.91L98.3 521.98L96 522.01L93.7 521.98L91.4 521.91L89.1 521.78L86.8 521.61L84.51 521.39L82.22 521.11L79.94 520.79L77.66 520.42L75.38 520L73.12 519.53L70.86 519L68.62 518.43L66.38 517.81L64.15 517.14L61.94 516.43L59.73 515.66L57.54 514.84L55.37 513.97L53.21 513.05L51.06 512.09L49.81 512.2L48.58 512.36L47.36 512.56L46.16 512.82L44.98 513.11L43.81 513.45L42.66 513.83L41.54 514.25L40.43 514.71L39.35 515.21L38.29 515.75L37.25 516.33L36.24 516.95L35.26 517.6L34.3 518.28L33.36 519L32.46 519.75L31.58 520.53L30.73 521.35L29.92 522.19L29.13 523.07L28.38 523.97L27.66 524.9L26.98 525.86L26.32 526.84L25.71 527.84L25.13 528.87L24.59 529.93L24.09 531L23.62 532.1L23.2 533.21L22.82 534.35L22.48 535.5L22.18 536.67L21.92 537.86L21.71 539.06L21.55 540.27L21.43 541.5L21.36 542.75L21.33 544L21.33 608L21.34 608.44L21.37 608.87L21.41 609.31L21.47 609.73L21.55 610.15L21.64 610.56L21.75 610.97L21.88 611.37L22.02 611.77L22.17 612.15L22.34 612.53L22.52 612.9L22.72 613.26L22.93 613.62L23.16 613.96L23.39 614.3L23.64 614.63L23.9 614.94L24.17 615.25L24.46 615.54L24.75 615.83L25.06 616.1L25.37 616.36L25.7 616.61L26.04 616.84L26.38 617.07L26.74 617.28L27.1 617.48L27.47 617.66L27.85 617.83L28.23 617.98L28.63 618.12L29.03 618.25L29.44 618.36L29.85 618.45L30.27 618.53L30.69 618.59L31.13 618.63L31.56 618.66L32 618.67L160 618.67L160.29 618.66L160.59 618.64L160.88 618.61L161.17 618.56L161.46 618.5L161.74 618.43L162.03 618.34L162.31 618.24L162.59 618.13L162.88 618L163.16 617.86L163.43 617.71L163.71 617.54L163.99 617.36L164.26 617.17L164.53 616.96L164.81 616.74L165.08 616.51L165.34 616.26L165.61 616L165.88 615.73L166.14 615.44L166.41 615.14L166.67 614.83L166.93 614.5L167.19 614.16L167.44 613.81L167.7 613.44L167.96 613.06L168.21 612.67L168.46 612.26L168.71 611.84L168.96 611.41L169.21 610.96L169.46 610.5L169.7 610.03L169.94 609.54L170.19 609.04L170.43 608.53L170.67 608L170.67 544L170.64 542.75L170.57 541.5L170.45 540.27L170.29 539.06L170.08 537.86L169.82 536.67L169.52 535.5L169.18 534.35L168.8 533.21L168.38 532.1L167.91 531L167.41 529.93L166.87 528.87L166.29 527.84L165.68 526.84L165.02 525.86L164.34 524.9L163.62 523.97L162.87 523.07L162.08 522.19L161.27 521.35L160.42 520.53L159.54 519.75L158.64 519L157.7 518.28L156.74 517.6L155.76 516.95L154.75 516.33L153.71 515.75L152.65 515.21L151.57 514.71L150.46 514.25L149.34 513.83L148.19 513.45L147.02 513.11L145.84 512.82L144.64 512.56L143.42 512.36L142.19 512.2L140.94 512.09L138.79 513.05L136.63 513.97Z" id="e23cn8SmOL"></path><path d="M425.81 541.66C423.5 536.24 417.24 533.72 411.82 536.03C411.82 536.03 411.82 536.03 411.82 536.03C363.65 556.22 310.16 559.9 259.68 546.51C260.68 546.21 268.67 543.87 269.67 543.57C275.32 541.92 278.56 535.99 276.91 530.34C275.25 524.68 269.33 521.44 263.67 523.09C259.4 524.34 225.27 534.35 221 535.61C220.84 535.61 220.73 535.79 220.58 535.84C219.59 536.21 218.66 536.72 217.83 537.37C217.45 537.57 217.1 537.79 216.76 538.04C215.63 539.04 214.74 540.28 214.15 541.66C213.57 543.06 213.29 544.56 213.33 546.07C213.59 547.51 213.95 548.94 214.4 550.34C214.47 550.49 214.4 550.66 214.52 550.81C216.65 554.89 233.72 587.54 235.85 591.63C238.58 596.85 245.03 598.88 250.25 596.15C255.48 593.42 257.5 586.97 254.77 581.75C253.91 580.09 246.96 566.81 246.09 565.15C303.44 582.39 365.02 579.04 420.16 555.68C425.59 553.39 428.12 547.13 425.83 541.7C425.82 541.69 425.82 541.68 425.81 541.66Z" id="a2vMB2SSZd"></path><path d="M589.79 280.46C588.28 281.97 576.21 294.04 574.7 295.55C565.87 202.13 506.55 121.05 420.18 84.35C414.76 82.04 408.5 84.56 406.19 89.98C403.88 95.4 406.4 101.67 411.82 103.98C489.3 136.91 543.16 208.87 552.91 292.49C551.7 291.29 542.08 281.66 540.87 280.46C536.64 276.37 529.89 276.48 525.79 280.72C521.8 284.85 521.8 291.41 525.79 295.54C528.99 298.74 554.59 324.34 557.79 327.54C561.95 331.71 568.71 331.72 572.88 327.56C572.88 327.55 572.89 327.55 572.9 327.54C576.1 324.34 601.7 298.74 604.9 295.54C609.05 291.37 609.05 284.62 604.87 280.46C600.71 276.29 593.96 276.29 589.79 280.46Z" id="c11LIQHpzz"></path><path d="M234.08 90.52C234.08 90.42 233.96 90.36 233.92 90.25C233.88 90.14 233.92 90.07 233.92 89.98C233.63 89.47 233.29 88.97 232.92 88.51C232.57 87.89 232.16 87.3 231.7 86.75C231.07 86.19 230.37 85.72 229.62 85.33C229.25 85.01 228.85 84.73 228.43 84.47C224.16 82.52 190.03 66.93 185.76 64.98C180.31 62.74 174.08 65.35 171.84 70.8C169.73 75.95 171.93 81.87 176.91 84.37C179.12 85.38 196.79 93.46 199 94.47C115.83 138.98 63.94 225.67 64 320C64 325.89 68.78 330.67 74.67 330.67C80.56 330.67 85.33 325.89 85.33 320C85.28 236.94 129.2 160.06 200.78 117.93C200.01 119.54 193.84 132.44 193.07 134.05C190.52 139.35 192.75 145.71 198.05 148.27C199.49 148.97 201.07 149.33 202.67 149.33C206.76 149.33 210.49 146.98 212.27 143.29C214.4 138.83 231.47 103.22 233.6 98.77C233.6 98.67 233.6 98.55 233.69 98.44C233.96 97.71 234.16 96.95 234.26 96.18C234.44 95.61 234.58 95.02 234.67 94.42C234.63 93.73 234.53 93.04 234.36 92.36C234.32 91.74 234.23 91.12 234.08 90.52Z" id="bL7oMSSa"></path></defs><g><g><g><use xlink:href="#a2TCfmDqly" opacity="1" fill="#a334b7" fill-opacity="1"></use></g><g><use xlink:href="#a1AOxaLswq" opacity="1" fill="#a334b7" fill-opacity="1"></use></g><g><use xlink:href="#a60NscwvMY" opacity="1" fill="#4285f4" fill-opacity="1"></use></g><g><use xlink:href="#bHCdjPb" opacity="1" fill="#4285f4" fill-opacity="1"></use></g><g><use xlink:href="#f6dzv0uuF" opacity="1" fill="#77c800" fill-opacity="1"></use></g><g><use xlink:href="#e23cn8SmOL" opacity="1" fill="#77c800" fill-opacity="1"></use></g><g><use xlink:href="#a2vMB2SSZd" opacity="1" fill="#4285f4" fill-opacity="1"></use></g><g><use xlink:href="#c11LIQHpzz" opacity="1" fill="#a334b7" fill-opacity="1"></use></g><g><use xlink:href="#bL7oMSSa" opacity="1" fill="#77c800" fill-opacity="1"></use></g></g></g></svg>