<svg xmlns="http://www.w3.org/2000/svg" xmlns:xlink="http://www.w3.org/1999/xlink" width="300" height="300">
  <defs>
    <path d="M161.47 107.13l.16.09.15.09.13.11.14.11.12.11.11.12.11.13.1.14.09.14.09.14.08.16.08.15.06.16.06.17.06.18.05.17.05.19.04.18.03.2.03.19.03.2.02.21.01.21.02.21.01.22v.91l-.01.23-.01.24-.01.24-.01.24-.02.25-.01.25-.02.25-.02.26-.02.25-2.14 15.84 1.02.85 2.18 1.98 2.1 2.07 2.01 2.14 1.91 2.22.16.19 15.51-2.37.25-.02.25-.02.25-.02.24-.02.24-.02.24-.02.24-.01.23-.02h.23l.23-.01h.66l.21.01.21.01.2.01.2.02.2.02.19.03.19.04.19.03.18.05.17.05.17.05.16.06.16.07.16.07.15.08.14.09.14.1.13.1.13.11.12.11.11.13.11.13.11.14.09.15.09.15.08.17.08.18 10.53 26.13.07.18.05.18.05.18.03.18.03.18.02.18v.35l-.01.18-.02.17-.03.18-.04.18-.05.17-.05.17-.06.18-.07.17-.08.17-.09.17-.09.17-.1.17-.11.17-.11.17-.12.17-.13.16-.13.17-.14.16-.14.17-.15.16-.16.16-.16.16-.16.16-.17.16-.17.16-.18.16-.18.16-.19.15-.19.16-.19.15-.2.15-.2.15-12.45 9.92.04.34.17 2.98.07 3-.05 3.01-.17 3.02-.13 1.35 12.33 9.47.2.15.2.14.19.15.19.15.18.15.18.15.18.15.17.15.17.15.16.16.16.15.15.16.15.16.14.16.14.16.13.16.12.16.12.16.11.17.11.16.1.17.09.17.08.17.08.17.07.17.06.17.05.17.05.17.03.18.03.17.02.18.01.17v.18l-.01.18-.01.18-.03.17-.04.19-.05.18-.06.18-.07.18-10.79 26.5-.08.18-.08.17-.09.16-.1.15-.1.14-.11.14-.12.13-.12.12-.13.11-.13.11-.14.1-.15.09-.15.08-.15.08-.16.08-.17.06-.17.06-.17.06-.18.05-.19.04-.19.04-.19.04-.2.03-.2.02-.2.03-.21.01-.22.02-.21.01-.22.01h-.91l-.24-.01-.24-.01-.24-.01-.24-.01-.25-.01-.25-.02-.25-.01-15.44-1.84-.85 1.05-1.99 2.28-2.07 2.19-2.14 2.1-2.21 2.01-.24.2 1.97 15.76.04.25.04.25.03.24.03.24.02.24.02.24.02.24.01.24.01.23.01.23v.45l-.01.22-.01.22-.02.21-.02.21-.02.21-.03.2-.04.2-.04.2-.05.19-.05.19-.06.18-.06.18-.07.17-.08.17-.08.16-.09.16-.1.15-.1.15-.11.14-.11.13-.12.13-.13.12-.14.12-.14.11-.15.1-.16.1-.17.09-.17.08-25.79 11.34-.18.07-.18.06-.17.05-.17.04-.17.03-.17.02-.17.01h-.17l-.17-.01-.16-.02-.17-.03-.16-.04-.16-.05-.17-.05-.16-.07-.16-.07-.16-.08-.16-.08-.16-.1-.15-.1-.16-.11-.16-.11-.16-.12-.15-.13-.16-.13-.16-.14-.16-.14-.15-.15-.16-.16-.16-.15-.16-.17-.15-.16-.16-.18-.16-.17-.16-.18-.16-.18-.16-.19-.16-.18-.16-.19-.17-.2-9.4-12.49-.31.04-2.92.25-2.93.13-2.95.01-2.95-.1-1.31-.1-9.54 12.82-.16.2-.17.19-.16.19-.16.19-.16.19-.17.19-.16.18-.16.17-.16.18-.15.16-.16.17-.16.16-.16.15-.16.15-.16.14-.16.14-.16.13-.15.13-.16.12-.16.11-.16.11-.16.1-.16.09-.16.09-.16.07-.17.07-.16.06-.16.06-.17.04-.16.03-.17.03-.16.02h-.34l-.17-.01-.17-.03-.17-.03-.18-.04-.17-.06-.18-.07-25.68-10.46-.17-.07-.17-.08-.16-.1-.15-.09-.14-.11-.13-.11-.13-.12-.12-.12-.12-.13-.1-.14-.1-.14-.1-.15-.08-.15-.08-.16-.08-.17-.07-.17-.06-.18-.05-.18-.06-.18-.04-.19-.04-.2-.03-.19-.03-.21-.03-.2-.02-.21-.01-.22-.01-.22-.01-.22v-.22l.01-.23.01-.23.01-.23.01-.23.02-.24.03-.24.03-.24.03-.25.03-.24.04-.25.04-.25 2.13-15.84-1.01-.84-2.18-1.99-2.1-2.07-2.01-2.14-1.92-2.22-.22-.28-15.4 2.35-.24.05-.25.04-.24.04-.23.03-.24.03-.24.03-.23.02-.23.02-.22.02-.23.01h-.22l-.22.01-.22-.01h-.21l-.21-.02-.2-.01-.21-.02-.2-.03-.19-.03-.19-.04-.19-.05-.18-.05-.18-.05-.17-.06-.17-.07-.16-.08-.15-.08-.16-.08-.14-.1-.14-.1-.14-.1-.13-.12-.12-.12-.12-.13-.11-.14-.1-.14-.1-.15-.09-.16-.08-.17-.08-.18-10.53-26.13-.07-.18-.05-.18-.05-.18-.03-.17-.03-.18-.01-.17-.01-.17.01-.18.01-.17.03-.17.03-.17.04-.16.05-.17.06-.17.06-.16.08-.17.08-.17.09-.16.09-.16.1-.17.11-.16.12-.17.12-.16.13-.16.13-.17.14-.16.14-.17.15-.16.15-.16.16-.17.17-.16.16-.17.17-.16.18-.17.18-.17.18-.16.18-.17.19-.17.19-.17.19-.17 12.4-9.88-.03-.27-.18-2.99-.06-3 .05-3.01.17-3.02.13-1.34-12.33-9.48-.2-.16-.18-.17-.19-.16-.18-.16-.18-.16-.18-.16-.17-.16-.17-.16-.16-.16-.17-.16-.15-.16-.15-.16-.15-.16-.14-.16-.14-.16-.13-.16-.13-.16-.12-.16-.11-.16-.11-.16-.1-.16-.09-.16-.09-.16-.08-.16-.07-.17-.07-.16-.05-.16-.05-.17-.04-.17-.03-.17-.02-.16-.01-.17-.01-.18.01-.17.02-.17.02-.18.04-.18.05-.17.05-.18.07-.19 10.8-26.5.07-.17.09-.18.09-.16.1-.15.11-.15.11-.14.12-.14.12-.12.13-.12.14-.11.14-.11.15-.1.15-.09.16-.09.16-.08.17-.07.17-.07.18-.06.18-.05.19-.05.19-.05.19-.04.2-.03.21-.03.2-.03.21-.02.21-.01.22-.01h.22l.22-.01.23.01h.22l.23.02.24.01.23.02.24.02.23.03.24.03.24.03.25.04 15.44 1.83.85-1.05 1.99-2.28 2.07-2.19 2.14-2.1 2.21-2.01.24-.2-1.98-15.76-.02-.25-.01-.26-.02-.25-.01-.25-.02-.24-.01-.25v-.24l-.01-.24-.01-.23v-.23l.01-.23v-.23l.01-.22.01-.22.01-.21.02-.21.03-.21.02-.2.04-.2.03-.19.04-.19.05-.18.05-.18.06-.18.06-.17.07-.16.08-.16.08-.16.09-.15.09-.14.11-.14.1-.13.12-.12.12-.12.14-.12.14-.11.14-.1.16-.09.16-.09.18-.08 25.79-11.34.18-.08.18-.06.17-.05.18-.04.17-.03.18-.02.17-.01h.35l.17.02.17.03.17.03.17.05.17.05.17.06.16.07.17.07.17.09.16.09.16.1.17.1.16.12.16.12.16.12.16.13.16.14.16.14.15.15.16.16.15.16.15.16.16.17.15.18.15.18.15.18.14.19.15.19.15.19.14.2.14.2 9.41 12.49.3-.04 2.92-.24 2.94-.14 2.94-.01 2.95.11 1.32.1 9.54-12.82.14-.21.15-.2.14-.2.15-.2.15-.19.15-.19.15-.18.16-.18.15-.18.16-.17.15-.16.16-.16.16-.16.16-.15.16-.14.16-.14.16-.13.16-.12.16-.12.17-.11.16-.1.17-.1.16-.09.17-.08.17-.08.17-.06.17-.06.17-.05.17-.04.17-.04.17-.02.17-.01.18-.01.17.01.18.01.17.03.18.03.17.05.18.05.17.07 25.69 10.46.17.08.16.08zm-36.54 43.17l-1.57-.45-1.58-.39-1.59-.32-1.59-.26-1.59-.18-1.59-.12-1.59-.06-1.59.01-1.58.07-1.57.13-1.56.19-1.56.26-1.54.32-1.53.37-1.51.44-1.49.49-1.48.55-1.46.61-1.43.66-1.41.72-1.38.77-1.35.83-1.33.88-1.29.93-1.26.98-1.23 1.03-1.19 1.08-1.16 1.13-1.11 1.18-1.07 1.23-1.03 1.27-.98 1.32-.94 1.37-.89 1.41-.84 1.45-.79 1.5-.74 1.54-.68 1.58-.61 1.6-.55 1.62-.48 1.62-.42 1.63-.35 1.63-.28 1.63-.22 1.63-.15 1.63-.09 1.63-.03 1.62.04 1.61.09 1.61.16 1.6.21 1.58.28 1.57.34 1.55.39 1.54.45 1.52.5 1.5.56 1.47.62 1.45.67 1.43.73 1.39.78 1.37.83 1.34.88 1.3.93 1.27.98 1.23 1.04 1.2 1.08 1.15 1.13 1.12 1.17 1.07 1.23 1.02 1.27.98 1.31.93 1.36.88 1.4.82 1.45.78 1.49.72 1.53.66 1.56.59 1.56.53 1.58.46 1.58.39 1.59.32 1.59.25 1.59.19 1.59.12 1.59.06 1.58-.01 1.58-.07 1.58-.14 1.56-.19 1.56-.26 1.54-.31 1.52-.38 1.52-.43 1.49-.5 1.48-.55 1.45-.6 1.43-.67 1.41-.72 1.39-.77 1.35-.82 1.33-.88 1.29-.93 1.26-.98 1.23-1.04 1.19-1.08 1.15-1.13 1.12-1.18 1.07-1.23 1.03-1.27.98-1.32.94-1.36.89-1.41.84-1.46.79-1.49.73-1.54.68-1.58.62-1.61.55-1.61.48-1.62.42-1.63.34-1.63.29-1.63.21-1.64.16-1.63.09-1.62.03-1.62-.04-1.62-.09-1.61-.16-1.59-.22-1.59-.27-1.57-.34-1.55-.39-1.54-.45-1.52-.51-1.49-.56-1.48-.61-1.45-.68-1.42-.72-1.4-.78-1.37-.83-1.33-.88-1.31-.93-1.27-.99-1.23-1.03-1.19-1.08-1.16-1.13-1.11-1.18-1.07-1.22-1.03-1.27-.97-1.31-.93-1.36-.88-1.41-.83-1.44-.77-1.49-.72-1.53-.66-1.56-.6-1.57-.53z" id="b"/>
    <path d="M179.13 190.07c0 38.27-29.94 69.33-66.81 69.33-36.87 0-66.81-31.06-66.81-69.33 0-38.26 29.94-69.33 66.81-69.33 36.87 0 66.81 31.07 66.81 69.33z" id="c"/>
    <path d="M120.3 190.07c0 4.41-3.58 7.99-7.98 7.99-4.41 0-7.98-3.58-7.98-7.99 0-4.4 3.57-7.98 7.98-7.98 4.4 0 7.98 3.58 7.98 7.98z" id="e"/>
    <path d="M111.32 123.89h2v10h-2v-10z" id="f"/>
    <path d="M111.32 246.57h2v10h-2v-10z" id="g"/>
    <path d="M175.51 189.07v2h-10v-2h10z" id="h"/>
    <path d="M58.69 189.07v2h-10v-2h10z" id="i"/>
    <path d="M147.99 136.51l1.68 1.08-5.39 8.42-1.69-1.08 5.4-8.42z" id="j"/>
    <path d="M168.1 159.83l1.11 1.66-8.3 5.57-1.11-1.66 8.3-5.57z" id="k"/>
    <path d="M168.17 222.13l-.95 1.76-8.8-4.75.95-1.76 8.8 4.75z" id="l"/>
    <path d="M146.6 244.97l-1.52 1.3-6.5-7.6 1.52-1.3 6.5 7.6z" id="m"/>
    <path d="M82.83 237.16l1.63 1.16-5.77 8.16-1.64-1.15 5.78-8.17z" id="n"/>
    <path d="M65.21 217.2l1.03 1.72-8.57 5.15-1.03-1.72 8.57-5.15z" id="o"/>
    <path d="M65.81 164.37l-.86 1.81-9.04-4.27.85-1.81 9.05 4.27z" id="p"/>
    <path d="M84.59 141.85l-1.58 1.23-6.16-7.88 1.58-1.23 6.16 7.88z" id="q"/>
    <path d="M118.69 190.07c0 3.52-2.85 6.38-6.37 6.38s-6.38-2.86-6.38-6.38 2.86-6.37 6.38-6.37 6.37 2.85 6.37 6.37z" id="r"/>
    <path d="M111.32 136.51h2v47.19h-2v-47.19z" id="s"/>
    <path d="M146.13 191.08v-2l-27.44-.01v2l27.44.01z" id="t"/>
    <path d="M111.9 189.24l1.42 1.41-37.56 37.67-1.41-1.41 37.55-37.67z" id="u"/>
    <path d="M236.46 31.63l.1.02.1.03.1.03.09.04.09.04.09.05.09.05.08.06.08.06.07.06.07.07.07.08.07.07.07.08.06.09.06.09.06.09.06.1.05.1.05.1.05.11.05.11.05.11.05.11.04.12.05.12.04.13.04.12.04.13.04.13.04.13.03.14.04.13.04.14.03.14.04.15.03.14.04.14 1.66 9.09.73.29 1.6.71 1.56.77 1.53.84 1.48.88.13.08 8.36-3.99.13-.05.14-.06.14-.05.13-.06.13-.05.14-.05.13-.05.13-.05.13-.04.12-.04.13-.04.12-.04.13-.04.12-.03.12-.03.12-.03.12-.02.11-.02.12-.02.11-.02.11-.01h.11l.11-.01h.1l.11.01.1.01.1.01.1.02.1.02.09.03.1.03.09.04.09.04.08.05.09.06.08.06.09.06.07.07.08.08.08.08 10.7 12.56.07.09.07.08.06.1.05.09.05.09.04.1.04.09.03.1.02.1.02.1.02.1.01.11v.31l-.01.11-.01.11-.02.11-.02.11-.03.11-.03.11-.03.11-.04.11-.04.12-.05.11-.04.11-.06.12-.05.12-.06.11-.06.12-.06.11-.07.12-.07.12-.07.12-.08.11-.08.12-.08.12-.08.12-.08.11-.09.12-5.25 7.61.08.18.64 1.61.58 1.64.52 1.67.45 1.69.17.76 8.71 3.08.14.05.14.04.13.05.13.05.14.05.13.05.12.05.13.05.12.06.12.06.12.06.12.06.11.06.11.06.1.06.11.07.1.07.09.07.1.07.09.07.08.08.08.07.08.08.08.08.07.08.06.08.06.09.06.09.05.09.05.09.04.09.04.1.03.09.03.1.02.1.02.11.01.1.01.11v.11l-.01.11-1.31 16.45-.01.11-.02.11-.02.11-.03.1-.03.09-.04.1-.04.09-.05.09-.05.08-.05.08-.07.08-.06.08-.07.07-.07.07-.08.07-.08.06-.09.06-.09.07-.09.05-.1.06-.1.05-.1.06-.11.05-.11.05-.11.05-.11.04-.12.05-.12.04-.12.04-.13.04-.13.04-.13.04-.13.04-.14.04-.13.03-.14.04-.14.04-.14.03-.15.04-.14.03-9.08 1.67-.29.72-.72 1.6-.77 1.56-.83 1.53-.89 1.49-.1.15 3.98 8.33.06.13.07.13.06.13.06.12.06.13.05.13.06.13.05.12.04.13.05.13.04.12.04.12.04.13.03.12.03.12.03.12.02.12.02.12.01.11.02.12v.11l.01.11v.11l-.01.11v.11l-.02.1-.01.11-.03.1-.02.1-.03.1-.04.09-.04.1-.05.09-.05.09-.05.09-.06.08-.07.08-.07.09-.08.07-.08.08-12.56 10.7-.09.08-.08.06-.09.06-.09.05-.1.04-.09.04-.09.04-.1.03-.1.02-.09.02-.1.01-.1.01h-.2l-.11-.01-.1-.01-.11-.02-.1-.02-.11-.02-.11-.03-.11-.03-.11-.04-.11-.04-.11-.04-.11-.05-.12-.04-.11-.06-.12-.05-.11-.06-.12-.06-.12-.06-.12-.06-.12-.07-.12-.07-.13-.07-.12-.07-.12-.08-.13-.07-.13-.08-.12-.08-7.6-5.24-.16.07-1.61.65-1.64.58-1.67.51-1.69.46-.76.17-3.08 8.7-.06.14-.05.14-.06.13-.06.14-.06.13-.05.13-.06.12-.06.13-.06.12-.06.12-.06.12-.06.11-.06.12-.07.1-.06.11-.06.1-.07.1-.07.1-.07.1-.06.09-.08.08-.07.08-.07.08-.08.08-.08.07-.07.06-.09.06-.08.06-.08.05-.09.05-.09.04-.09.04-.09.04-.1.02-.1.03-.1.01-.1.01-.11.01h-.11l-.11-.01-16.45-1.3-.11-.01-.11-.02-.11-.02-.1-.03-.1-.04-.1-.03-.09-.05-.09-.04-.09-.06-.08-.05-.09-.06-.08-.07-.07-.07-.08-.07-.07-.08-.07-.08-.07-.09-.06-.09-.06-.09-.06-.1-.06-.1-.06-.1-.05-.11-.05-.11-.05-.11-.05-.11-.04-.12-.04-.12-.05-.13-.03-.12-.04-.13-.04-.13-.03-.13-.03-.14-.03-.13-.03-.14-.03-.14-.02-.14-.03-.14-.02-.15-1.66-9.08-.73-.29-1.6-.71-1.56-.78-1.53-.83-1.49-.89-.18-.11-8.29 3.96-.13.06-.13.07-.13.06-.13.06-.13.06-.13.05-.12.06-.13.05-.13.05-.12.04-.13.04-.12.04-.12.04-.12.03-.13.03-.12.03-.11.02-.12.02-.12.01-.11.02h-.12l-.11.01h-.11l-.11-.01h-.1l-.11-.02-.1-.01-.11-.02-.1-.03-.09-.03-.1-.04-.09-.04-.1-.04-.09-.05-.08-.06-.09-.06-.08-.07-.08-.07-.08-.08-.07-.08-10.71-12.56-.07-.09-.06-.08-.06-.09-.05-.09-.05-.1-.04-.09-.03-.09-.03-.1-.03-.09-.01-.1-.01-.1-.01-.1v-.31l.02-.1.01-.1.02-.11.03-.11.02-.11.04-.1.03-.11.04-.12.04-.11.05-.11.05-.11.05-.12.05-.12.06-.11.06-.12.06-.12.07-.12.07-.12.06-.12.08-.12.07-.13.07-.12.08-.13.07-.12.08-.13 5.23-7.58-.06-.15-.64-1.61-.58-1.64-.52-1.66-.46-1.7-.17-.76-8.7-3.07-.14-.06-.14-.06-.13-.06-.13-.05-.13-.06-.13-.06-.13-.06-.13-.06-.12-.06-.12-.06-.12-.06-.11-.06-.11-.06-.11-.06-.11-.07-.1-.06-.1-.07-.1-.06-.09-.07-.09-.07-.09-.07-.08-.07-.08-.08-.07-.07-.07-.08-.07-.08-.06-.08-.06-.08-.05-.09-.05-.09-.04-.09-.04-.09-.03-.09-.03-.1-.02-.1-.02-.1-.01-.1-.01-.11v-.11l.01-.11 1.31-16.45.01-.11.01-.11.03-.1.02-.11.04-.1.03-.09.05-.1.05-.09.05-.08.05-.09.07-.08.06-.08.07-.08.08-.07.07-.08.09-.07.08-.06.09-.07.09-.06.1-.06.1-.06.1-.05.11-.06.11-.05.11-.05.12-.04.11-.05.13-.04.12-.04.12-.04.13-.04.13-.03.13-.04.14-.03.13-.03.14-.03.14-.02.14-.03.15-.02.14-.03 9.08-1.66.29-.73.72-1.59.77-1.57.83-1.52.89-1.49.1-.15-3.98-8.33-.06-.14-.05-.14-.06-.13-.05-.14-.05-.13-.05-.13-.05-.13-.05-.13-.04-.13-.04-.13-.05-.12-.03-.13-.04-.12-.03-.12-.03-.12-.03-.12-.02-.12-.03-.12-.01-.11-.02-.11-.01-.12v-.1l-.01-.11v-.11l.01-.1.01-.11.01-.1.02-.1.02-.09.03-.1.03-.09.04-.09.04-.09.05-.09.06-.09.06-.08.06-.08.07-.08.08-.08.08-.07 12.56-10.71.08-.07.09-.06.09-.06.1-.06.09-.04.1-.05.09-.03.1-.03.1-.03.1-.02.1-.01.1-.01.11-.01h.1l.11.01h.11l.1.02.11.02.11.02.11.02.12.03.11.04.11.03.11.05.12.04.11.05.12.05.11.06.12.05.12.07.11.06.12.07.12.07.11.07.12.07.12.08.12.08.12.08.11.09.12.08 7.6 5.25.16-.08 1.61-.64 1.64-.58 1.67-.52 1.69-.45.76-.17 3.08-8.71.04-.14.05-.13.04-.14.05-.13.05-.13.05-.13.06-.13.05-.13.06-.12.05-.12.06-.12.06-.11.06-.12.07-.11.06-.1.07-.1.06-.1.07-.1.07-.09.08-.09.07-.09.08-.08.08-.08.08-.07.08-.07.08-.07.09-.06.08-.06.09-.05.09-.05.1-.04.09-.04.1-.03.1-.03.1-.02.1-.02.11-.01h.33l16.45 1.31.11.01.11.02zm-12.87 30.08l-.97.02-.97.06-.96.1-.95.14-.93.17-.92.21-.92.24-.89.28-.88.31-.87.35-.85.38-.84.41-.81.44-.8.47-.78.5-.75.53-.74.56-.71.58-.7.62-.66.64-.65.66-.61.69-.6.71-.56.74-.54.76-.5.78-.48.8-.45.82-.42.84-.38.86-.35.88-.32.9-.29.91-.24.93-.22.95-.17.96-.14.97-.1.99-.06.99-.01.98.02.98.06.96.1.96.13.95.17.93.21.93.25.91.28.89.31.89.34.86.38.85.41.84.44.81.47.8.51.78.53.76.55.73.59.72.61.69.64.67.67.64.68.62.72.59.73.56.76.54.78.51.8.48.83.44.84.42.86.38.88.36.89.31.92.29.93.25.94.21.96.17.98.14.98.1.99.06.99.02.97-.02.97-.07.96-.09.94-.14.94-.17.92-.21.91-.24.9-.28.88-.32.87-.34.85-.38.83-.41.82-.44.8-.47.78-.5.75-.53.74-.56.71-.59.69-.61.67-.64.64-.66.62-.69.59-.72.57-.73.54-.76.5-.78.48-.8.45-.82.42-.85.38-.86.35-.88.32-.89.28-.92.25-.93.22-.94.17-.96.14-.97.1-.99.05-.99.02-.99-.02-.97-.06-.97-.1-.95-.13-.95-.18-.94-.2-.92-.25-.91-.28-.9-.31-.88-.35-.87-.37-.85-.41-.83-.45-.82-.47-.8-.5-.77-.53-.76-.56-.74-.58-.71-.61-.69-.64-.67-.67-.64-.69-.62-.71-.59-.74-.57-.75-.53-.78-.51-.81-.48-.82-.45-.84-.41-.86-.39-.88-.35-.9-.32-.91-.28-.93-.25-.94-.21-.96-.18-.98-.14-.99-.09-.99-.06-.98-.02z" id="w"/>
    <path d="M119.94 175.19v-.04l.01-.05v-.04l.01-.04.01-.04.01-.05.01-.04.02-.04.02-.04.01-.03.02-.04.03-.04.02-.04.02-.03.03-.04.03-.03.03-.03.03-.03.03-.03.04-.03.03-.03.04-.03.04-.03.03-.02.04-.02.05-.03.04-.02.04-.02.04-.02.05-.01.05-.02.04-.01.05-.01.05-.02h.05l.05-.01.05-.01h.05l.05-.01H126.35l.05.01h.05l.05.01.05.01h.05l.05.02.05.01.05.01.04.02.05.01.04.02.04.02.05.02.04.03.04.02.04.02.03.03.04.03.04.03.03.03.03.03.03.03.03.03.03.03.03.04.02.03.03.04.02.04.02.04.02.03.01.04.02.04.01.04.01.05.01.04.01.04v.04l.01.05v11.25l5.08 4.81h-5.08v14.94h-11.32v-10.51l-.01-.05v-.04l-.01-.05-.01-.04-.02-.05-.01-.04-.02-.04-.02-.04-.02-.05-.02-.04-.03-.03-.02-.04-.03-.04-.03-.04-.03-.03-.03-.04-.04-.03-.03-.03-.04-.03-.03-.03-.04-.03-.04-.03-.04-.02-.05-.03-.04-.02-.05-.02-.04-.02-.05-.02-.04-.01-.05-.02-.05-.01-.05-.01-.05-.01-.06-.01-.05-.01h-.05l-.05-.01H109.64l-.05.01h-.06l-.05.01-.05.01-.05.01-.05.01-.05.01-.05.02-.05.01-.04.02-.05.02-.04.02-.05.02-.04.03-.04.02-.04.03-.04.03-.04.03-.03.03-.04.03-.03.03-.03.04-.03.03-.03.04-.03.04-.03.04-.02.03-.02.04-.02.05-.02.04-.02.04-.02.04-.01.05-.01.04-.01.05-.01.04v.05l-.01.05V206.15H97.07v-14.94h-5.08l20.33-19.22 7.62 7.21v-4.01z" id="x"/>
    <path d="M254.88 86.55c0 16.25-13.53 29.44-30.2 29.44s-30.2-13.19-30.2-29.44 13.53-29.44 30.2-29.44 30.2 13.19 30.2 29.44z" id="y"/>
    <path d="M227.61 51.01l1.45.14 1.44.21 1.41.26 1.4.31 1.37.37 1.36.42 1.33.47 1.3.53 1.28.57 1.25.62 1.23.66 1.19.71 1.17.76 1.13.79 1.1.84 1.07.88 1.03.92.99.96.96 1 .92 1.03.88 1.07.84 1.1.8 1.13.75 1.17.72 1.19.66 1.22.62 1.26.57 1.28.52 1.3.47 1.33.42 1.35.37 1.38.32 1.39.26 1.42.2 1.43.15 1.46.09 1.46.03 1.49-.03 1.48-.09 1.47-.15 1.45-.2 1.44-.26 1.41-.32 1.4-.37 1.37-.42 1.36-.47 1.33-.52 1.3-.57 1.28-.62 1.25-.66 1.23-.72 1.19-.75 1.17-.8 1.13-.84 1.1-.88 1.07-.92 1.03-.96.99-.99.96-1.03.92-1.07.88-1.1.84-1.13.8-1.17.75-1.19.71-1.23.67-1.25.62-1.28.57-1.3.52-1.33.47-1.36.42-1.37.37-1.4.32-1.41.26-1.44.2-1.45.15-1.47.09-1.48.03-1.48-.03-1.47-.09-1.46-.15-1.43-.2-1.42-.26-1.39-.32-1.38-.37-1.35-.42-1.33-.47-1.3-.52-1.28-.57-1.26-.62-1.22-.67-1.2-.71-1.16-.75-1.13-.8-1.1-.84-1.07-.88-1.03-.92-1-.96-.96-.99-.92-1.03-.88-1.07-.84-1.1-.79-1.13-.76-1.17-.71-1.19-.66-1.23-.62-1.25-.57-1.28-.52-1.3-.48-1.33-.42-1.36-.36-1.37-.32-1.4-.26-1.41-.2-1.44-.15-1.45-.09-1.47-.03-1.48.03-1.49.09-1.46.15-1.46.2-1.43.26-1.42.32-1.39.36-1.38.42-1.35.48-1.33.52-1.3.57-1.28.62-1.26.66-1.22.71-1.19.76-1.17.79-1.13.84-1.1.88-1.07.92-1.03.96-1 1-.96 1.03-.92 1.07-.88 1.1-.84 1.13-.79 1.16-.76 1.2-.71 1.22-.66 1.26-.62 1.28-.57 1.3-.53 1.33-.47 1.35-.42 1.38-.37 1.39-.31 1.42-.26 1.43-.21 1.46-.14 1.47-.09 1.48-.03 1.48.03 1.47.09zm-11.78 67.91l.57.15.56.14.58.13.57.12.58.11.58.1.59.1.59.08.59.07.6.06.6.04.6.04.6.03.61.02h.61l.72-.01.72-.02.72-.04.71-.05.71-.07.7-.08.7-.1.69-.11.69-.13.68-.14.68-.16.67-.16.67-.19.66-.19.66-.21.65-.22-.02-.03-.01-.03-.02-.02-.01-.03-.02-.03-.01-.02-.02-.03-.01-.03-.02-.03-.01-.03-.02-.03-.01-.02-.02-.03-.01-.03-.01-.03-.01-.04-10.22-27.97-9.97 28.96.56.16zm-22.07-44.24l-.26.68-.24.67-.23.69-.22.69-.19.69-.19.71-.17.7-.15.72-.14.72-.13.72-.1.73-.1.74-.07.74-.06.74-.04.75-.03.76-.01.76.07 2.06.18 2.03.31 1.99.42 1.95.53 1.9.65 1.86.75 1.81.85 1.75.94 1.69 1.04 1.63 1.13 1.56 1.22 1.49 1.3 1.42 1.38 1.34 1.46 1.26 1.52 1.18 1.6 1.08 1.66 1 1.72.9-15.85-43.42-.28.65-.27.66zm60.09-3.4l.03.17.01.18.02.17.02.17.02.18.01.18.01.17.02.18.01.19.01.18.01.18v.19l.01.18v.19l.01.19v.39l-.01.36-.02.4-.03.43-.05.45-.06.49-.08.51-.09.54-.11.57-.12.6-.13.62-.15.66-.16.68-.17.71-.19.74-.21.77-.21.8-.23.83-.25.85-.26.88-10.15 29.34 1.54-.95 1.47-1.03 1.42-1.1 1.35-1.18 1.29-1.25 1.21-1.31 1.15-1.38 1.07-1.44 1-1.5.91-1.56.83-1.61.75-1.66.65-1.7.56-1.75.47-1.79.37-1.82.26-1.87.16-1.89.06-1.92-.01-.91-.04-.9-.06-.9-.08-.89-.11-.88-.13-.88-.15-.87-.18-.86-.2-.85-.21-.84-.24-.84-.27-.82-.28-.82-.3-.81-.32-.79-.35-.79-.36-.78-.38-.76-.4-.75.02.16.02.17zm-30.92-17.57l-.86.05-.85.08-.84.1-.84.11-.83.14-.82.16-.82.18-.81.2-.8.22-.79.24-.79.26-.77.28-.77.29-.75.32-.75.33-.74.35-.73.36-.71.39-.71.4-.7.42-.68.43-.67.45-.67.47-.64.48-.64.5-.63.51-.61.52-.6.54-.58.56-.58.57-.55.58-.55.6-.53.61-.51.62-.5.63-.49.65-.47.66-.45.67H197.07l.06.01h.29l.06.01h.38l.06.01h.53l.05.01H199.57l.28-.01h.28l.28-.01.29-.01.3-.01.29-.01.3-.01.3-.01.29-.01.3-.01.3-.02.29-.01.3-.02.29-.01.28-.02.28-.01.28-.02.27-.01.26-.02.26-.02.25-.01.24-.02.23-.01.22-.02.21-.01.2-.01.18-.02.18-.01.16-.01.15-.01.13-.01.11-.01.1-.01h.09l.06-.01h.05l.03-.01h.14l.13.01.12.02.11.02.11.03.1.05.09.04.09.06.09.06.07.07.07.07.06.08.06.08.05.09.05.09.04.09.03.1.02.1.02.1.01.1.01.1-.01.1-.01.1-.01.1-.02.1-.03.09-.04.1-.04.09-.05.09-.06.08-.07.08-.07.08-.08.07-.08.06-.1.06-.1.05-.1.05-.12.03-.12.03-.13.02-.03.01h-.06l-.03.01h-.04l-.05.01h-.05l-.06.01-.06.01h-.07l-.07.01-.08.01-.08.01h-.09l-.09.01-.09.01-.1.01-.11.01-.1.01-.11.01-.12.01-.11.01-.13.01-.12.01-.13.01-.12.01-.14.02-.13.01-.14.01-.13.01-.15.01-.14.01-.14.01-.15.01-.14.01h-.15l-.15.01-.15.01 12.1 35.99 7.27-21.81-5.17-14.18-.14-.01-.13-.01h-.13l-.13-.01-.14-.01-.13-.01-.12-.01-.13-.01-.13-.01-.12-.01-.12-.01-.12-.02-.12-.01-.12-.01-.11-.01-.11-.01-.11-.01-.11-.01-.1-.01-.1-.01-.09-.01-.1-.01-.08-.01-.09-.01h-.08l-.08-.01-.07-.01-.07-.01h-.06l-.06-.01-.05-.01h-.05l-.04-.01h-.04l-.03-.01h-.05l-.03-.01-.13-.01-.12-.02-.12-.03-.11-.04-.1-.05-.09-.05-.09-.06-.08-.07-.07-.07-.06-.08-.06-.08-.05-.09-.04-.09-.04-.1-.03-.09-.02-.1-.02-.1-.01-.11v-.2l.02-.1.01-.11.03-.1.03-.09.04-.1.04-.09.05-.09.06-.09.06-.08.07-.07.08-.07.08-.07.09-.06.09-.05.11-.04.1-.04.12-.02.12-.02.12-.01h.13l.04.01h.05l.07.01h.08l.11.01.11.01.14.01.15.01.16.01.18.01.19.02.2.01.21.01.22.02.23.01.24.02.25.01.26.02.26.02.27.01.28.02.28.01.28.02.29.01.29.02.29.01.29.02.29.01.3.01.29.01.29.01.28.01.29.01.28.01.27.01h.27l.27.01h1.04l.27-.01h.28l.29-.01.29-.01.29-.01.3-.01.29-.01.3-.01.3-.01.3-.01.29-.02.3-.01.29-.02.29-.01.29-.02.28-.01.27-.02.27-.01.27-.02.25-.02.25-.01.24-.02.23-.01.22-.02.21-.01.2-.01.19-.02.17-.01.16-.01.15-.01.13-.01.12-.01.1-.01h.08l.07-.01.09-.01h.13l.12.01.12.02.12.02.1.03.1.05.1.04.09.06.08.06.08.07.07.07.06.08.06.08.05.09.04.09.04.09.03.1.02.1.02.1.01.1.01.1v.1l-.01.1-.02.1-.02.1-.03.09-.04.1-.04.09-.05.09-.06.08-.06.08-.08.08-.07.07-.09.06-.09.06-.11.05-.1.05-.12.03-.12.03-.13.02-.03.01h-.05l-.04.01h-.04l-.05.01h-.05l-.05.01-.07.01h-.07l-.07.01-.07.01-.09.01h-.08l-.09.01-.1.01-.1.01-.1.01-.11.01-.11.01-.11.01-.12.01-.12.01-.12.01-.13.01-.13.01-.13.02-.13.01-.14.01-.14.01-.14.01-.14.01-.15.01-.14.01-.15.01h-.15l-.14.01-.15.01 12 35.71 3.32-11.07.12-.32.13-.32.11-.32.12-.31.11-.31.11-.31.11-.31.1-.3.1-.3.09-.3.1-.29.09-.29.08-.29.09-.29.08-.28.08-.29.07-.27.07-.28.07-.27.06-.27.07-.27.05-.26.06-.26.05-.26.05-.26.05-.25.04-.25.04-.25.04-.25.03-.24.03-.24.03-.23.02-.24.02-.23.02-.23.01-.22.01-.23.01-.22.01-.21v-.53l-.01-.3-.02-.29-.01-.29-.03-.29-.03-.29-.03-.27-.04-.28-.04-.27-.04-.26-.05-.27-.06-.25-.05-.26-.06-.25-.07-.24-.06-.24-.07-.24-.08-.24-.07-.23-.08-.22-.08-.23-.08-.22-.09-.21-.08-.22-.09-.21-.09-.2-.09-.2-.1-.2-.09-.2-.09-.2-.1-.19-.09-.19-.1-.18-.1-.18-.09-.18-.1-.18-.1-.17-.09-.18-.1-.17-.09-.16-.13-.21-.12-.2-.13-.2-.12-.2-.13-.2-.12-.2-.12-.2-.12-.19-.12-.2-.11-.19-.12-.19-.11-.19-.11-.2-.11-.19-.1-.19-.11-.19-.1-.19-.1-.19-.09-.19-.09-.19-.09-.19-.09-.19-.08-.19-.08-.19-.08-.19-.07-.19-.06-.19-.07-.19-.06-.19-.05-.2-.05-.19-.05-.2-.04-.19-.03-.2-.03-.2-.03-.2-.02-.2-.01-.2-.01-.2v-.43l.01-.23.02-.23.03-.22.04-.23.05-.22.05-.21.06-.22.07-.21.08-.21.08-.21.09-.2.1-.2.11-.2.11-.19.12-.19.12-.18.14-.18.13-.17.15-.17.15-.16.16-.15.16-.15.17-.14.17-.14.18-.13.19-.12.19-.11.19-.11.21-.1.2-.09.21-.08.22-.07.21-.07.23-.05.23-.05.23-.03.23-.03.24-.01.25-.01H246.78l.03.01H246.92l.04.01h.06l.04.01h.03l-.44-.4-.46-.4-.46-.38-.47-.38-.47-.37-.48-.36-.49-.36-.5-.34-.5-.33-.51-.33-.51-.32-.52-.31-.53-.29-.53-.29-.54-.28-.54-.27-.55-.26-.56-.25-.56-.25-.57-.23-.57-.22-.57-.21-.58-.2-.59-.19-.59-.18-.59-.16-.6-.16-.61-.15-.6-.13-.62-.13-.61-.11-.62-.1-.63-.09-.62-.08-.64-.07-.63-.05-.64-.04-.64-.03-.64-.02-.65-.01-.87.01-.86.04z" id="z"/>
  </defs>
  <filter id="a" x="11.85" y="87.26" width="201.98" height="206.61" filterUnits="userSpaceOnUse" primitiveUnits="userSpaceOnUse">
    <feFlood/>
    <feComposite in2="SourceAlpha" operator="in"/>
    <feGaussianBlur stdDeviation="1"/>
    <feOffset dx="1" dy="1" result="afterOffset"/>
    <feFlood flood-color="#000" flood-opacity=".5"/>
    <feComposite in2="afterOffset" operator="in"/>
    <feMorphology operator="dilate" radius="1"/>
    <feComposite in2="SourceAlpha" operator="out"/>
  </filter>
  <path d="M161.47 107.13l.16.09.15.09.13.11.14.11.12.11.11.12.11.13.1.14.09.14.09.14.08.16.08.15.06.16.06.17.06.18.05.17.05.19.04.18.03.2.03.19.03.2.02.21.01.21.02.21.01.22v.91l-.01.23-.01.24-.01.24-.01.24-.02.25-.01.25-.02.25-.02.26-.02.25-2.14 15.84 1.02.85 2.18 1.98 2.1 2.07 2.01 2.14 1.91 2.22.16.19 15.51-2.37.25-.02.25-.02.25-.02.24-.02.24-.02.24-.02.24-.01.23-.02h.23l.23-.01h.66l.21.01.21.01.2.01.2.02.2.02.19.03.19.04.19.03.18.05.17.05.17.05.16.06.16.07.16.07.15.08.14.09.14.1.13.1.13.11.12.11.11.13.11.13.11.14.09.15.09.15.08.17.08.18 10.53 26.13.07.18.05.18.05.18.03.18.03.18.02.18v.35l-.01.18-.02.17-.03.18-.04.18-.05.17-.05.17-.06.18-.07.17-.08.17-.09.17-.09.17-.1.17-.11.17-.11.17-.12.17-.13.16-.13.17-.14.16-.14.17-.15.16-.16.16-.16.16-.16.16-.17.16-.17.16-.18.16-.18.16-.19.15-.19.16-.19.15-.2.15-.2.15-12.45 9.92.04.34.17 2.98.07 3-.05 3.01-.17 3.02-.13 1.35 12.33 9.47.2.15.2.14.19.15.19.15.18.15.18.15.18.15.17.15.17.15.16.16.16.15.15.16.15.16.14.16.14.16.13.16.12.16.12.16.11.17.11.16.1.17.09.17.08.17.08.17.07.17.06.17.05.17.05.17.03.18.03.17.02.18.01.17v.18l-.01.18-.01.18-.03.17-.04.19-.05.18-.06.18-.07.18-10.79 26.5-.08.18-.08.17-.09.16-.1.15-.1.14-.11.14-.12.13-.12.12-.13.11-.13.11-.14.1-.15.09-.15.08-.15.08-.16.08-.17.06-.17.06-.17.06-.18.05-.19.04-.19.04-.19.04-.2.03-.2.02-.2.03-.21.01-.22.02-.21.01-.22.01h-.91l-.24-.01-.24-.01-.24-.01-.24-.01-.25-.01-.25-.02-.25-.01-15.44-1.84-.85 1.05-1.99 2.28-2.07 2.19-2.14 2.1-2.21 2.01-.24.2 1.97 15.76.04.25.04.25.03.24.03.24.02.24.02.24.02.24.01.24.01.23.01.23v.45l-.01.22-.01.22-.02.21-.02.21-.02.21-.03.2-.04.2-.04.2-.05.19-.05.19-.06.18-.06.18-.07.17-.08.17-.08.16-.09.16-.1.15-.1.15-.11.14-.11.13-.12.13-.13.12-.14.12-.14.11-.15.1-.16.1-.17.09-.17.08-25.79 11.34-.18.07-.18.06-.17.05-.17.04-.17.03-.17.02-.17.01h-.17l-.17-.01-.16-.02-.17-.03-.16-.04-.16-.05-.17-.05-.16-.07-.16-.07-.16-.08-.16-.08-.16-.1-.15-.1-.16-.11-.16-.11-.16-.12-.15-.13-.16-.13-.16-.14-.16-.14-.15-.15-.16-.16-.16-.15-.16-.17-.15-.16-.16-.18-.16-.17-.16-.18-.16-.18-.16-.19-.16-.18-.16-.19-.17-.2-9.4-12.49-.31.04-2.92.25-2.93.13-2.95.01-2.95-.1-1.31-.1-9.54 12.82-.16.2-.17.19-.16.19-.16.19-.16.19-.17.19-.16.18-.16.17-.16.18-.15.16-.16.17-.16.16-.16.15-.16.15-.16.14-.16.14-.16.13-.15.13-.16.12-.16.11-.16.11-.16.1-.16.09-.16.09-.16.07-.17.07-.16.06-.16.06-.17.04-.16.03-.17.03-.16.02h-.34l-.17-.01-.17-.03-.17-.03-.18-.04-.17-.06-.18-.07-25.68-10.46-.17-.07-.17-.08-.16-.1-.15-.09-.14-.11-.13-.11-.13-.12-.12-.12-.12-.13-.1-.14-.1-.14-.1-.15-.08-.15-.08-.16-.08-.17-.07-.17-.06-.18-.05-.18-.06-.18-.04-.19-.04-.2-.03-.19-.03-.21-.03-.2-.02-.21-.01-.22-.01-.22-.01-.22v-.22l.01-.23.01-.23.01-.23.01-.23.02-.24.03-.24.03-.24.03-.25.03-.24.04-.25.04-.25 2.13-15.84-1.01-.84-2.18-1.99-2.1-2.07-2.01-2.14-1.92-2.22-.22-.28-15.4 2.35-.24.05-.25.04-.24.04-.23.03-.24.03-.24.03-.23.02-.23.02-.22.02-.23.01h-.22l-.22.01-.22-.01h-.21l-.21-.02-.2-.01-.21-.02-.2-.03-.19-.03-.19-.04-.19-.05-.18-.05-.18-.05-.17-.06-.17-.07-.16-.08-.15-.08-.16-.08-.14-.1-.14-.1-.14-.1-.13-.12-.12-.12-.12-.13-.11-.14-.1-.14-.1-.15-.09-.16-.08-.17-.08-.18-10.53-26.13-.07-.18-.05-.18-.05-.18-.03-.17-.03-.18-.01-.17-.01-.17.01-.18.01-.17.03-.17.03-.17.04-.16.05-.17.06-.17.06-.16.08-.17.08-.17.09-.16.09-.16.1-.17.11-.16.12-.17.12-.16.13-.16.13-.17.14-.16.14-.17.15-.16.15-.16.16-.17.17-.16.16-.17.17-.16.18-.17.18-.17.18-.16.18-.17.19-.17.19-.17.19-.17 12.4-9.88-.03-.27-.18-2.99-.06-3 .05-3.01.17-3.02.13-1.34-12.33-9.48-.2-.16-.18-.17-.19-.16-.18-.16-.18-.16-.18-.16-.17-.16-.17-.16-.16-.16-.17-.16-.15-.16-.15-.16-.15-.16-.14-.16-.14-.16-.13-.16-.13-.16-.12-.16-.11-.16-.11-.16-.1-.16-.09-.16-.09-.16-.08-.16-.07-.17-.07-.16-.05-.16-.05-.17-.04-.17-.03-.17-.02-.16-.01-.17-.01-.18.01-.17.02-.17.02-.18.04-.18.05-.17.05-.18.07-.19 10.8-26.5.07-.17.09-.18.09-.16.1-.15.11-.15.11-.14.12-.14.12-.12.13-.12.14-.11.14-.11.15-.1.15-.09.16-.09.16-.08.17-.07.17-.07.18-.06.18-.05.19-.05.19-.05.19-.04.2-.03.21-.03.2-.03.21-.02.21-.01.22-.01h.22l.22-.01.23.01h.22l.23.02.24.01.23.02.24.02.23.03.24.03.24.03.25.04 15.44 1.83.85-1.05 1.99-2.28 2.07-2.19 2.14-2.1 2.21-2.01.24-.2-1.98-15.76-.02-.25-.01-.26-.02-.25-.01-.25-.02-.24-.01-.25v-.24l-.01-.24-.01-.23v-.23l.01-.23v-.23l.01-.22.01-.22.01-.21.02-.21.03-.21.02-.2.04-.2.03-.19.04-.19.05-.18.05-.18.06-.18.06-.17.07-.16.08-.16.08-.16.09-.15.09-.14.11-.14.1-.13.12-.12.12-.12.14-.12.14-.11.14-.1.16-.09.16-.09.18-.08 25.79-11.34.18-.08.18-.06.17-.05.18-.04.17-.03.18-.02.17-.01h.35l.17.02.17.03.17.03.17.05.17.05.17.06.16.07.17.07.17.09.16.09.16.1.17.1.16.12.16.12.16.12.16.13.16.14.16.14.15.15.16.16.15.16.15.16.16.17.15.18.15.18.15.18.14.19.15.19.15.19.14.2.14.2 9.41 12.49.3-.04 2.92-.24 2.94-.14 2.94-.01 2.95.11 1.32.1 9.54-12.82.14-.21.15-.2.14-.2.15-.2.15-.19.15-.19.15-.18.16-.18.15-.18.16-.17.15-.16.16-.16.16-.16.16-.15.16-.14.16-.14.16-.13.16-.12.16-.12.17-.11.16-.1.17-.1.16-.09.17-.08.17-.08.17-.06.17-.06.17-.05.17-.04.17-.04.17-.02.17-.01.18-.01.17.01.18.01.17.03.18.03.17.05.18.05.17.07 25.69 10.46.17.08.16.08zm-36.54 43.17l-1.57-.45-1.58-.39-1.59-.32-1.59-.26-1.59-.18-1.59-.12-1.59-.06-1.59.01-1.58.07-1.57.13-1.56.19-1.56.26-1.54.32-1.53.37-1.51.44-1.49.49-1.48.55-1.46.61-1.43.66-1.41.72-1.38.77-1.35.83-1.33.88-1.29.93-1.26.98-1.23 1.03-1.19 1.08-1.16 1.13-1.11 1.18-1.07 1.23-1.03 1.27-.98 1.32-.94 1.37-.89 1.41-.84 1.45-.79 1.5-.74 1.54-.68 1.58-.61 1.6-.55 1.62-.48 1.62-.42 1.63-.35 1.63-.28 1.63-.22 1.63-.15 1.63-.09 1.63-.03 1.62.04 1.61.09 1.61.16 1.6.21 1.58.28 1.57.34 1.55.39 1.54.45 1.52.5 1.5.56 1.47.62 1.45.67 1.43.73 1.39.78 1.37.83 1.34.88 1.3.93 1.27.98 1.23 1.04 1.2 1.08 1.15 1.13 1.12 1.17 1.07 1.23 1.02 1.27.98 1.31.93 1.36.88 1.4.82 1.45.78 1.49.72 1.53.66 1.56.59 1.56.53 1.58.46 1.58.39 1.59.32 1.59.25 1.59.19 1.59.12 1.59.06 1.58-.01 1.58-.07 1.58-.14 1.56-.19 1.56-.26 1.54-.31 1.52-.38 1.52-.43 1.49-.5 1.48-.55 1.45-.6 1.43-.67 1.41-.72 1.39-.77 1.35-.82 1.33-.88 1.29-.93 1.26-.98 1.23-1.04 1.19-1.08 1.15-1.13 1.12-1.18 1.07-1.23 1.03-1.27.98-1.32.94-1.36.89-1.41.84-1.46.79-1.49.73-1.54.68-1.58.62-1.61.55-1.61.48-1.62.42-1.63.34-1.63.29-1.63.21-1.64.16-1.63.09-1.62.03-1.62-.04-1.62-.09-1.61-.16-1.59-.22-1.59-.27-1.57-.34-1.55-.39-1.54-.45-1.52-.51-1.49-.56-1.48-.61-1.45-.68-1.42-.72-1.4-.78-1.37-.83-1.33-.88-1.31-.93-1.27-.99-1.23-1.03-1.19-1.08-1.16-1.13-1.11-1.18-1.07-1.22-1.03-1.27-.97-1.31-.93-1.36-.88-1.41-.83-1.44-.77-1.49-.72-1.53-.66-1.56-.6-1.57-.53z" fill="#fff" filter="url(#a)"/>
  <use xlink:href="#b" fill="#1c401a"/>
  <use xlink:href="#c" fill="#fff"/>
  <use xlink:href="#c" fill-opacity="0" stroke="#000"/>
  <filter id="d" x="34.51" y="109.74" width="156.61" height="161.66" filterUnits="userSpaceOnUse" primitiveUnits="userSpaceOnUse">
    <feFlood/>
    <feComposite in2="SourceAlpha" operator="out"/>
    <feGaussianBlur stdDeviation="1"/>
    <feOffset dx="1" dy="1" result="afterOffset"/>
    <feFlood flood-color="#fff" flood-opacity=".8"/>
    <feComposite in2="afterOffset" operator="in"/>
    <feMorphology operator="dilate" radius="3"/>
    <feComposite in2="SourceAlpha" operator="in"/>
  </filter>
  <path d="M179.13 190.07c0 38.27-29.94 69.33-66.81 69.33-36.87 0-66.81-31.06-66.81-69.33 0-38.26 29.94-69.33 66.81-69.33 36.87 0 66.81 31.07 66.81 69.33z" fill="#fff" filter="url(#d)"/>
  <use xlink:href="#e"/>
  <use xlink:href="#f" fill="#1c401a"/>
  <use xlink:href="#g"/>
  <use xlink:href="#h"/>
  <use xlink:href="#i"/>
  <use xlink:href="#j"/>
  <use xlink:href="#k"/>
  <use xlink:href="#l"/>
  <use xlink:href="#m"/>
  <use xlink:href="#n"/>
  <use xlink:href="#o"/>
  <use xlink:href="#p"/>
  <use xlink:href="#q"/>
  <use xlink:href="#r" fill="#fff"/>
  <use xlink:href="#s"/>
  <use xlink:href="#t"/>
  <g>
    <use xlink:href="#u" fill="#1c401a"/>
  </g>
  <g>
    <filter id="v" x="159.17" y="21.29" width="129.97" height="129.97" filterUnits="userSpaceOnUse" primitiveUnits="userSpaceOnUse">
      <feFlood/>
      <feComposite in2="SourceAlpha" operator="in"/>
      <feGaussianBlur stdDeviation="1"/>
      <feOffset dx="1" dy="1" result="afterOffset"/>
      <feFlood flood-color="#000" flood-opacity=".5"/>
      <feComposite in2="afterOffset" operator="in"/>
      <feMorphology operator="dilate" radius="1"/>
      <feComposite in2="SourceAlpha" operator="out"/>
    </filter>
    <path d="M236.46 31.63l.1.02.1.03.1.03.09.04.09.04.09.05.09.05.08.06.08.06.07.06.07.07.07.08.07.07.07.08.06.09.06.09.06.09.06.1.05.1.05.1.05.11.05.11.05.11.05.11.04.12.05.12.04.13.04.12.04.13.04.13.04.13.03.14.04.13.04.14.03.14.04.15.03.14.04.14 1.66 9.09.73.29 1.6.71 1.56.77 1.53.84 1.48.88.13.08 8.36-3.99.13-.05.14-.06.14-.05.13-.06.13-.05.14-.05.13-.05.13-.05.13-.04.12-.04.13-.04.12-.04.13-.04.12-.03.12-.03.12-.03.12-.02.11-.02.12-.02.11-.02.11-.01h.11l.11-.01h.1l.11.01.1.01.1.01.1.02.1.02.09.03.1.03.09.04.09.04.08.05.09.06.08.06.09.06.07.07.08.08.08.08 10.7 12.56.07.09.07.08.06.1.05.09.05.09.04.1.04.09.03.1.02.1.02.1.02.1.01.11v.31l-.01.11-.01.11-.02.11-.02.11-.03.11-.03.11-.03.11-.04.11-.04.12-.05.11-.04.11-.06.12-.05.12-.06.11-.06.12-.06.11-.07.12-.07.12-.07.12-.08.11-.08.12-.08.12-.08.12-.08.11-.09.12-5.25 7.61.08.18.64 1.61.58 1.64.52 1.67.45 1.69.17.76 8.71 3.08.14.05.14.04.13.05.13.05.14.05.13.05.12.05.13.05.12.06.12.06.12.06.12.06.11.06.11.06.1.06.11.07.1.07.09.07.1.07.09.07.08.08.08.07.08.08.08.08.07.08.06.08.06.09.06.09.05.09.05.09.04.09.04.1.03.09.03.1.02.1.02.11.01.1.01.11v.11l-.01.11-1.31 16.45-.01.11-.02.11-.02.11-.03.1-.03.09-.04.1-.04.09-.05.09-.05.08-.05.08-.07.08-.06.08-.07.07-.07.07-.08.07-.08.06-.09.06-.09.07-.09.05-.1.06-.1.05-.1.06-.11.05-.11.05-.11.05-.11.04-.12.05-.12.04-.12.04-.13.04-.13.04-.13.04-.13.04-.14.04-.13.03-.14.04-.14.04-.14.03-.15.04-.14.03-9.08 1.67-.29.72-.72 1.6-.77 1.56-.83 1.53-.89 1.49-.1.15 3.98 8.33.06.13.07.13.06.13.06.12.06.13.05.13.06.13.05.12.04.13.05.13.04.12.04.12.04.13.03.12.03.12.03.12.02.12.02.12.01.11.02.12v.11l.01.11v.11l-.01.11v.11l-.02.1-.01.11-.03.1-.02.1-.03.1-.04.09-.04.1-.05.09-.05.09-.05.09-.06.08-.07.08-.07.09-.08.07-.08.08-12.56 10.7-.09.08-.08.06-.09.06-.09.05-.1.04-.09.04-.09.04-.1.03-.1.02-.09.02-.1.01-.1.01h-.2l-.11-.01-.1-.01-.11-.02-.1-.02-.11-.02-.11-.03-.11-.03-.11-.04-.11-.04-.11-.04-.11-.05-.12-.04-.11-.06-.12-.05-.11-.06-.12-.06-.12-.06-.12-.06-.12-.07-.12-.07-.13-.07-.12-.07-.12-.08-.13-.07-.13-.08-.12-.08-7.6-5.24-.16.07-1.61.65-1.64.58-1.67.51-1.69.46-.76.17-3.08 8.7-.06.14-.05.14-.06.13-.06.14-.06.13-.05.13-.06.12-.06.13-.06.12-.06.12-.06.12-.06.11-.06.12-.07.1-.06.11-.06.1-.07.1-.07.1-.07.1-.06.09-.08.08-.07.08-.07.08-.08.08-.08.07-.07.06-.09.06-.08.06-.08.05-.09.05-.09.04-.09.04-.09.04-.1.02-.1.03-.1.01-.1.01-.11.01h-.11l-.11-.01-16.45-1.3-.11-.01-.11-.02-.11-.02-.1-.03-.1-.04-.1-.03-.09-.05-.09-.04-.09-.06-.08-.05-.09-.06-.08-.07-.07-.07-.08-.07-.07-.08-.07-.08-.07-.09-.06-.09-.06-.09-.06-.1-.06-.1-.06-.1-.05-.11-.05-.11-.05-.11-.05-.11-.04-.12-.04-.12-.05-.13-.03-.12-.04-.13-.04-.13-.03-.13-.03-.14-.03-.13-.03-.14-.03-.14-.02-.14-.03-.14-.02-.15-1.66-9.08-.73-.29-1.6-.71-1.56-.78-1.53-.83-1.49-.89-.18-.11-8.29 3.96-.13.06-.13.07-.13.06-.13.06-.13.06-.13.05-.12.06-.13.05-.13.05-.12.04-.13.04-.12.04-.12.04-.12.03-.13.03-.12.03-.11.02-.12.02-.12.01-.11.02h-.12l-.11.01h-.11l-.11-.01h-.1l-.11-.02-.1-.01-.11-.02-.1-.03-.09-.03-.1-.04-.09-.04-.1-.04-.09-.05-.08-.06-.09-.06-.08-.07-.08-.07-.08-.08-.07-.08-10.71-12.56-.07-.09-.06-.08-.06-.09-.05-.09-.05-.1-.04-.09-.03-.09-.03-.1-.03-.09-.01-.1-.01-.1-.01-.1v-.31l.02-.1.01-.1.02-.11.03-.11.02-.11.04-.1.03-.11.04-.12.04-.11.05-.11.05-.11.05-.12.05-.12.06-.11.06-.12.06-.12.07-.12.07-.12.06-.12.08-.12.07-.13.07-.12.08-.13.07-.12.08-.13 5.23-7.58-.06-.15-.64-1.61-.58-1.64-.52-1.66-.46-1.7-.17-.76-8.7-3.07-.14-.06-.14-.06-.13-.06-.13-.05-.13-.06-.13-.06-.13-.06-.13-.06-.12-.06-.12-.06-.12-.06-.11-.06-.11-.06-.11-.06-.11-.07-.1-.06-.1-.07-.1-.06-.09-.07-.09-.07-.09-.07-.08-.07-.08-.08-.07-.07-.07-.08-.07-.08-.06-.08-.06-.08-.05-.09-.05-.09-.04-.09-.04-.09-.03-.09-.03-.1-.02-.1-.02-.1-.01-.1-.01-.11v-.11l.01-.11 1.31-16.45.01-.11.01-.11.03-.1.02-.11.04-.1.03-.09.05-.1.05-.09.05-.08.05-.09.07-.08.06-.08.07-.08.08-.07.07-.08.09-.07.08-.06.09-.07.09-.06.1-.06.1-.06.1-.05.11-.06.11-.05.11-.05.12-.04.11-.05.13-.04.12-.04.12-.04.13-.04.13-.03.13-.04.14-.03.13-.03.14-.03.14-.02.14-.03.15-.02.14-.03 9.08-1.66.29-.73.72-1.59.77-1.57.83-1.52.89-1.49.1-.15-3.98-8.33-.06-.14-.05-.14-.06-.13-.05-.14-.05-.13-.05-.13-.05-.13-.05-.13-.04-.13-.04-.13-.05-.12-.03-.13-.04-.12-.03-.12-.03-.12-.03-.12-.02-.12-.03-.12-.01-.11-.02-.11-.01-.12v-.1l-.01-.11v-.11l.01-.1.01-.11.01-.1.02-.1.02-.09.03-.1.03-.09.04-.09.04-.09.05-.09.06-.09.06-.08.06-.08.07-.08.08-.08.08-.07 12.56-10.71.08-.07.09-.06.09-.06.1-.06.09-.04.1-.05.09-.03.1-.03.1-.03.1-.02.1-.01.1-.01.11-.01h.1l.11.01h.11l.1.02.11.02.11.02.11.02.12.03.11.04.11.03.11.05.12.04.11.05.12.05.11.06.12.05.12.07.11.06.12.07.12.07.11.07.12.07.12.08.12.08.12.08.11.09.12.08 7.6 5.25.16-.08 1.61-.64 1.64-.58 1.67-.52 1.69-.45.76-.17 3.08-8.71.04-.14.05-.13.04-.14.05-.13.05-.13.05-.13.06-.13.05-.13.06-.12.05-.12.06-.12.06-.11.06-.12.07-.11.06-.1.07-.1.06-.1.07-.1.07-.09.08-.09.07-.09.08-.08.08-.08.08-.07.08-.07.08-.07.09-.06.08-.06.09-.05.09-.05.1-.04.09-.04.1-.03.1-.03.1-.02.1-.02.11-.01h.33l16.45 1.31.11.01.11.02zm-12.87 30.08l-.97.02-.97.06-.96.1-.95.14-.93.17-.92.21-.92.24-.89.28-.88.31-.87.35-.85.38-.84.41-.81.44-.8.47-.78.5-.75.53-.74.56-.71.58-.7.62-.66.64-.65.66-.61.69-.6.71-.56.74-.54.76-.5.78-.48.8-.45.82-.42.84-.38.86-.35.88-.32.9-.29.91-.24.93-.22.95-.17.96-.14.97-.1.99-.06.99-.01.98.02.98.06.96.1.96.13.95.17.93.21.93.25.91.28.89.31.89.34.86.38.85.41.84.44.81.47.8.51.78.53.76.55.73.59.72.61.69.64.67.67.64.68.62.72.59.73.56.76.54.78.51.8.48.83.44.84.42.86.38.88.36.89.31.92.29.93.25.94.21.96.17.98.14.98.1.99.06.99.02.97-.02.97-.07.96-.09.94-.14.94-.17.92-.21.91-.24.9-.28.88-.32.87-.34.85-.38.83-.41.82-.44.8-.47.78-.5.75-.53.74-.56.71-.59.69-.61.67-.64.64-.66.62-.69.59-.72.57-.73.54-.76.5-.78.48-.8.45-.82.42-.85.38-.86.35-.88.32-.89.28-.92.25-.93.22-.94.17-.96.14-.97.1-.99.05-.99.02-.99-.02-.97-.06-.97-.1-.95-.13-.95-.18-.94-.2-.92-.25-.91-.28-.9-.31-.88-.35-.87-.37-.85-.41-.83-.45-.82-.47-.8-.5-.77-.53-.76-.56-.74-.58-.71-.61-.69-.64-.67-.67-.64-.69-.62-.71-.59-.74-.57-.75-.53-.78-.51-.81-.48-.82-.45-.84-.41-.86-.39-.88-.35-.9-.32-.91-.28-.93-.25-.94-.21-.96-.18-.98-.14-.99-.09-.99-.06-.98-.02z" fill="#fff" filter="url(#v)"/>
    <use xlink:href="#w" fill="#9b9b9b" fill-opacity="0"/>
  </g>
  <g>
    <use xlink:href="#x" fill="#1c401a" fill-opacity=".75"/>
  </g>
  <g>
    <use xlink:href="#y" fill="#fff"/>
  </g>
  <g>
    <use xlink:href="#z" fill="#1c401a" fill-opacity=".57"/>
  </g>
</svg>
