<?xml version="1.0" encoding="UTF-8" standalone="no"?>
<!DOCTYPE svg PUBLIC "-//W3C//DTD SVG 1.1//EN" "http://www.w3.org/Graphics/SVG/1.1/DTD/svg11.dtd">
<svg preserveAspectRatio="xMidYMid meet" viewBox="0 0 640 640" width="200" height="200"><defs><path d="M23.49 267.76L392.27 267.76L392.27 247.2L23.49 247.2C23.49 228.7 23.49 218.43 23.49 216.37C23.49 210.71 28.08 206.09 33.73 206.09C49.93 206.09 130.93 206.09 276.73 206.09C287.61 173.31 293.66 155.1 294.87 151.46C296.27 147.25 300.18 144.43 304.59 144.43C324.63 144.43 484.91 144.43 504.95 144.43C510.6 144.43 515.19 149.04 515.19 154.7C515.19 160.87 515.19 191.7 515.19 247.2L535.68 247.2C535.68 191.7 535.68 160.87 535.68 154.7C535.68 137.7 521.89 123.87 504.95 123.87C484.91 123.87 324.63 123.87 304.59 123.87C291.34 123.87 279.62 132.34 275.44 144.95C274.54 147.66 270.04 161.19 261.95 185.54C125.02 185.54 48.95 185.54 33.73 185.54C16.79 185.54 3 199.37 3 216.37C3 241.04 3 438.37 3 463.04C3 480.04 16.79 493.87 33.73 493.87C49.44 493.87 127.97 493.87 269.34 493.87L269.34 473.32C127.97 473.32 49.44 473.32 33.73 473.32C28.08 473.32 23.49 468.7 23.49 463.04C23.49 437 23.49 371.91 23.49 267.76Z" id="cmZlKKjUW"></path><path d="M454.19 24.65L454.19 107.23L474.84 107.23L474.84 4L61.94 4L61.94 169.16L82.58 169.16L82.58 24.65L454.19 24.65Z" id="c2r5cMRv6X"></path><path d="M123.87 45.29C123.87 45.29 123.87 45.29 123.87 45.29C123.87 57.68 123.87 64.56 123.87 65.94C123.87 65.94 123.87 65.94 123.87 65.94C111.48 65.94 104.6 65.94 103.23 65.94C103.23 65.94 103.23 65.94 103.23 65.94C103.23 53.55 103.23 46.67 103.23 45.29C103.23 45.29 103.23 45.29 103.23 45.29C115.61 45.29 122.49 45.29 123.87 45.29Z" id="a3RRYLejEA"></path><path d="M433.55 45.29C433.55 45.29 433.55 45.29 433.55 45.29C433.55 57.68 433.55 64.56 433.55 65.94C433.55 65.94 433.55 65.94 433.55 65.94C260.13 65.94 163.78 65.94 144.52 65.94C144.52 65.94 144.52 65.94 144.52 65.94C144.52 53.55 144.52 46.67 144.52 45.29C144.52 45.29 144.52 45.29 144.52 45.29C317.94 45.29 414.28 45.29 433.55 45.29Z" id="aTSkhgzzl"></path><path d="M392.26 86.58C392.26 86.58 392.26 86.58 392.26 86.58C392.26 98.97 392.26 105.85 392.26 107.23C392.26 107.23 392.26 107.23 392.26 107.23C218.84 107.23 122.49 107.23 103.23 107.23C103.23 107.23 103.23 107.23 103.23 107.23C103.23 94.84 103.23 87.96 103.23 86.58C103.23 86.58 103.23 86.58 103.23 86.58C276.65 86.58 372.99 86.58 392.26 86.58Z" id="b8f2giQxb"></path><path d="M433.55 86.58C433.55 86.58 433.55 86.58 433.55 86.58C433.55 98.97 433.55 105.85 433.55 107.23C433.55 107.23 433.55 107.23 433.55 107.23C421.16 107.23 414.28 107.23 412.9 107.23C412.9 107.23 412.9 107.23 412.9 107.23C412.9 94.84 412.9 87.96 412.9 86.58C412.9 86.58 412.9 86.58 412.9 86.58C425.29 86.58 432.17 86.58 433.55 86.58Z" id="bH00xFJ9R"></path><path d="M468.96 247.4L471.35 248.69L473.82 249.95L476.37 251.21L478.98 252.44L481.67 253.67L484.44 254.87L487.28 256.06L490.19 257.24L493.17 258.4L496.23 259.54L499.37 260.67L502.57 261.78L505.85 262.88L509.21 263.97L512.63 265.03L516.13 266.09L519.71 267.12L523.36 268.14L527.08 269.15L530.88 270.14L534.75 271.12L538.69 272.07L542.71 273.02L546.8 273.95L550.96 274.86L555.2 275.76L559.51 276.64L563.89 277.51L568.35 278.36L572.89 279.2L577.49 280.02L582.17 280.82L586.93 281.61L591.75 282.39L596.65 283.15L601.63 283.89L606.68 284.62L611.8 285.33L616.99 286.03L637 286.03L637 461.52L636.85 468.74L636.42 475.89L635.7 482.96L634.7 489.94L633.43 496.84L631.89 503.64L630.09 510.33L628.04 516.92L625.74 523.4L623.19 529.76L620.4 535.99L617.38 542.09L614.14 548.06L610.67 553.89L606.99 559.56L603.1 565.09L599 570.45L594.71 575.66L590.22 580.69L585.54 585.54L580.69 590.22L575.66 594.71L570.45 599L565.09 603.1L559.56 606.99L553.89 610.67L548.06 614.14L542.09 617.38L535.99 620.4L529.76 623.19L523.4 625.74L516.92 628.04L510.33 630.09L503.64 631.89L496.84 633.43L489.94 634.7L482.96 635.7L475.89 636.42L468.74 636.85L461.52 637L454.29 636.85L447.14 636.42L440.07 635.7L433.09 634.7L426.19 633.43L419.4 631.89L412.7 630.09L406.11 628.04L399.63 625.74L393.27 623.19L387.04 620.4L380.94 617.38L374.97 614.14L369.15 610.67L363.47 606.99L357.94 603.1L352.58 599L347.38 594.71L342.34 590.22L337.49 585.54L332.81 580.69L328.33 575.66L324.03 570.45L319.93 565.09L316.04 559.56L312.36 553.89L308.89 548.06L305.65 542.09L302.63 535.99L299.84 529.76L297.3 523.4L294.99 516.92L292.94 510.33L291.14 503.64L289.6 496.84L288.33 489.94L287.34 482.96L286.62 475.89L286.18 468.74L286.03 461.52L286.03 286.03L306.04 286.03L309.98 286.01L313.93 285.93L317.87 285.8L321.81 285.62L325.74 285.39L329.66 285.11L333.59 284.77L337.5 284.39L341.41 283.95L345.31 283.47L349.21 282.93L353.09 282.35L356.97 281.71L360.83 281.02L364.69 280.29L368.54 279.5L372.38 278.67L376.2 277.78L380.01 276.85L383.81 275.87L387.6 274.83L391.38 273.75L395.14 272.62L398.88 271.45L402.61 270.22L406.33 268.94L410.02 267.62L413.71 266.25L417.37 264.83L421.02 263.37L424.65 261.85L428.26 260.29L431.85 258.68L435.42 257.02L438.97 255.32L442.5 253.57L446.01 251.77L449.49 249.93L452.96 248.04L456.4 246.1L461.52 243.17L466.64 246.1L468.96 247.4ZM454.36 270.69L450.76 272.52L447.13 274.31L443.48 276.05L439.81 277.74L436.12 279.38L432.41 280.98L428.68 282.53L424.94 284.04L421.17 285.5L417.39 286.91L413.6 288.27L409.78 289.58L405.96 290.85L402.11 292.07L398.26 293.24L394.38 294.37L390.5 295.44L386.6 296.47L382.69 297.45L378.77 298.38L374.83 299.26L370.89 300.1L366.93 300.88L362.97 301.61L358.99 302.3L355.01 302.94L351.02 303.52L347.01 304.06L343.01 304.55L338.99 304.99L334.97 305.37L330.94 305.71L326.91 306L322.87 306.24L318.83 306.42L314.78 306.56L310.73 306.64L306.68 306.68L306.68 461.52L306.81 467.89L307.19 474.2L307.83 480.43L308.71 486.6L309.83 492.68L311.19 498.68L312.77 504.59L314.58 510.4L316.62 516.12L318.86 521.73L321.32 527.23L323.99 532.61L326.85 537.88L329.91 543.02L333.16 548.03L336.59 552.9L340.21 557.64L344 562.23L347.96 566.67L352.08 570.95L356.36 575.08L360.8 579.04L365.39 582.83L370.13 586.44L375 589.87L380.01 593.12L385.15 596.18L390.42 599.05L395.8 601.71L401.3 604.17L406.91 606.42L412.63 608.45L418.44 610.26L424.35 611.85L430.35 613.2L436.43 614.32L442.6 615.21L448.84 615.84L455.14 616.23L461.52 616.35L465.78 616.26L470.01 615.97L474.23 615.48L478.43 614.81L482.61 613.94L486.77 612.87L490.91 611.61L495.03 610.16L499.13 608.52L503.21 606.68L507.27 604.65L511.31 602.42L515.33 600L519.33 597.39L523.31 594.58L527.27 591.58L531.21 588.39L535.13 585L539.03 581.42L542.91 577.65L546.78 573.68L550.62 569.52L554.44 565.16L558.24 560.61L562.02 555.87L565.78 550.94L569.52 545.81L573.25 540.48L576.95 534.97L580.63 529.26L584.29 523.35L587.93 517.26L591.56 510.97L595.16 504.48L598.74 497.81L602.3 490.94L605.85 483.87L609.37 476.61L612.87 469.16L616.35 461.52L616.35 306.68L612.3 306.64L608.25 306.56L604.2 306.42L600.16 306.24L596.12 306L592.09 305.71L588.06 305.37L584.04 304.99L580.03 304.55L576.02 304.06L572.02 303.52L568.02 302.94L564.04 302.3L560.07 301.61L556.1 300.88L552.14 300.1L548.2 299.26L544.26 298.38L540.34 297.45L536.43 296.47L532.53 295.44L528.65 294.37L524.78 293.24L520.92 292.07L517.08 290.85L513.25 289.58L509.44 288.27L505.64 286.91L501.86 285.5L498.1 284.04L494.35 282.53L490.62 280.98L486.92 279.38L483.23 277.74L479.56 276.05L475.91 274.31L472.28 272.52L468.67 270.69L465.08 268.82L461.52 266.89L457.95 268.82L454.36 270.69Z" id="d3cRNfKIRg"></path><path d="M467.05 454.3L468.3 454.42L469.53 454.6L470.75 454.82L471.95 455.1L473.13 455.41L474.29 455.78L475.44 456.18L476.56 456.63L477.66 457.12L478.73 457.66L479.79 458.23L480.82 458.84L481.82 459.49L482.79 460.18L483.74 460.9L484.66 461.66L485.55 462.45L486.4 463.27L487.23 464.13L488.02 465.02L488.78 465.94L489.5 466.88L490.19 467.86L490.84 468.86L491.45 469.89L492.02 470.94L492.55 472.02L493.05 473.12L493.5 474.24L493.9 475.38L494.26 476.55L494.58 477.73L494.85 478.93L495.08 480.15L495.25 481.38L495.38 482.63L495.46 483.89L495.48 485.16L495.47 486.17L495.42 487.16L495.34 488.15L495.23 489.13L495.09 490.09L494.92 491.05L494.72 492L494.49 492.94L494.23 493.86L493.94 494.77L493.63 495.67L493.29 496.56L492.92 497.43L492.53 498.29L492.11 499.14L491.67 499.97L491.2 500.78L490.71 501.58L490.19 502.37L489.66 503.13L489.09 503.88L488.51 504.61L487.91 505.33L487.28 506.02L486.64 506.7L485.97 507.35L485.29 507.99L484.58 508.61L483.86 509.2L483.12 509.77L482.36 510.33L481.59 510.86L480.8 511.36L479.99 511.85L479.17 512.3L478.33 512.74L477.48 513.15L476.61 513.54L475.73 513.9L474.84 514.23L474.84 536.77L454.19 536.77L454.19 514.23L453.3 513.9L452.42 513.54L451.56 513.15L450.7 512.74L449.87 512.3L449.04 511.85L448.24 511.36L447.44 510.86L446.67 510.33L445.91 509.77L445.17 509.2L444.45 508.61L443.75 507.99L443.06 507.35L442.39 506.7L441.75 506.02L441.12 505.33L440.52 504.61L439.94 503.88L439.38 503.13L438.84 502.37L438.32 501.58L437.83 500.78L437.36 499.97L436.92 499.14L436.5 498.29L436.11 497.43L435.74 496.56L435.4 495.67L435.09 494.77L434.8 493.86L434.54 492.94L434.32 492L434.11 491.05L433.94 490.09L433.8 489.13L433.69 488.15L433.61 487.16L433.56 486.17L433.55 485.16L433.57 483.89L433.65 482.63L433.78 481.38L433.95 480.15L434.18 478.93L434.45 477.73L434.77 476.55L435.13 475.38L435.54 474.24L435.99 473.12L436.48 472.02L437.01 470.94L437.58 469.89L438.2 468.86L438.84 467.86L439.53 466.88L440.25 465.94L441.01 465.02L441.8 464.13L442.63 463.27L443.49 462.45L444.37 461.66L445.29 460.9L446.24 460.18L447.21 459.49L448.22 458.84L449.24 458.23L450.3 457.66L451.37 457.12L452.47 456.63L453.6 456.18L454.74 455.78L455.9 455.41L457.08 455.1L458.28 454.82L459.5 454.6L460.73 454.42L461.98 454.3L463.24 454.22L464.52 454.19L465.79 454.22L467.05 454.3ZM461.77 475.21L460.5 475.65L459.31 476.25L458.21 476.99L457.22 477.87L456.35 478.86L455.6 479.96L455.01 481.15L454.56 482.42L454.29 483.76L454.19 485.16L454.29 486.56L454.56 487.9L455.01 489.17L455.6 490.37L456.35 491.46L457.22 492.46L458.21 493.33L459.31 494.07L460.5 494.67L461.77 495.11L463.12 495.39L464.52 495.48L465.92 495.39L467.26 495.11L468.53 494.67L469.72 494.07L470.82 493.33L471.81 492.46L472.69 491.46L473.43 490.37L474.03 489.17L474.47 487.9L474.74 486.56L474.84 485.16L474.74 483.76L474.47 482.42L474.03 481.15L473.43 479.96L472.69 478.86L471.81 477.87L470.82 476.99L469.72 476.25L468.53 475.65L467.26 475.21L465.92 474.93L464.52 474.84L463.12 474.93L461.77 475.21Z" id="i2COeG9Cd1"></path><path d="M470.43 309.92L473.34 310.21L476.22 310.62L479.06 311.15L481.86 311.78L484.61 312.52L487.33 313.37L489.99 314.32L492.61 315.36L495.18 316.51L497.69 317.75L500.15 319.09L502.55 320.52L504.88 322.03L507.16 323.64L509.37 325.32L511.51 327.09L513.58 328.94L515.58 330.86L517.51 332.86L519.36 334.94L521.12 337.08L522.81 339.29L524.41 341.56L525.93 343.9L527.36 346.3L528.7 348.76L529.94 351.27L531.09 353.84L532.13 356.45L533.08 359.12L533.93 361.83L534.67 364.59L535.3 367.39L535.83 370.23L536.24 373.11L536.53 376.02L536.71 378.96L536.77 381.94L536.77 414.8L537.67 415.14L538.55 415.5L539.41 415.88L540.26 416.29L541.1 416.73L541.92 417.19L542.73 417.67L543.52 418.18L544.3 418.71L545.06 419.26L545.8 419.83L546.52 420.43L547.22 421.04L547.91 421.68L548.57 422.33L549.22 423.01L549.84 423.7L550.45 424.42L551.03 425.15L551.59 425.9L552.13 426.67L552.64 427.45L553.14 428.25L553.6 429.06L554.05 429.89L554.47 430.74L554.86 431.6L555.23 432.47L555.57 433.36L555.88 434.26L556.16 435.17L556.42 436.1L556.65 437.03L556.85 437.98L557.02 438.94L557.16 439.91L557.28 440.88L557.36 441.87L557.4 442.87L557.42 443.87L557.42 547.1L557.39 548.37L557.32 549.63L557.19 550.88L557.01 552.11L556.79 553.33L556.52 554.53L556.2 555.71L555.84 556.87L555.43 558.02L554.98 559.14L554.49 560.24L553.96 561.32L553.38 562.37L552.77 563.4L552.12 564.4L551.44 565.37L550.71 566.32L549.96 567.24L549.16 568.13L548.34 568.98L547.48 569.81L546.59 570.6L545.68 571.36L544.73 572.08L543.75 572.77L542.75 573.42L541.72 574.03L540.67 574.6L539.59 575.14L538.49 575.63L537.37 576.08L536.23 576.48L535.07 576.85L533.88 577.16L532.68 577.43L531.47 577.66L530.23 577.83L528.99 577.96L527.73 578.04L526.45 578.06L402.58 578.06L401.31 578.04L400.04 577.96L398.8 577.83L397.56 577.66L396.35 577.43L395.15 577.16L393.97 576.85L392.8 576.48L391.66 576.08L390.54 575.63L389.44 575.14L388.36 574.6L387.31 574.03L386.28 573.42L385.28 572.77L384.3 572.08L383.36 571.36L382.44 570.6L381.55 569.81L380.69 568.98L379.87 568.13L379.08 567.24L378.32 566.32L377.6 565.37L376.91 564.4L376.26 563.4L375.65 562.37L375.08 561.32L374.54 560.24L374.05 559.14L373.6 558.02L373.19 556.87L372.83 555.71L372.51 554.53L372.24 553.33L372.02 552.11L371.84 550.88L371.72 549.63L371.64 548.37L371.61 547.1L371.61 443.87L371.63 442.87L371.68 441.87L371.76 440.88L371.87 439.91L372.01 438.94L372.18 437.98L372.38 437.03L372.61 436.1L372.87 435.17L373.15 434.26L373.47 433.36L373.81 432.47L374.17 431.6L374.57 430.74L374.99 429.89L375.43 429.06L375.9 428.25L376.39 427.45L376.9 426.67L377.44 425.9L378 425.15L378.58 424.42L379.19 423.7L379.81 423.01L380.46 422.33L381.12 421.68L381.81 421.04L382.51 420.43L383.24 419.83L383.98 419.26L384.73 418.71L385.51 418.18L386.3 417.67L387.11 417.19L387.93 416.73L388.77 416.29L389.62 415.88L390.49 415.5L391.37 415.14L392.26 414.8L392.26 381.94L392.32 378.96L392.5 376.02L392.79 373.11L393.21 370.23L393.73 367.39L394.36 364.59L395.1 361.83L395.95 359.12L396.9 356.45L397.95 353.84L399.09 351.27L400.34 348.76L401.67 346.3L403.1 343.9L404.62 341.56L406.22 339.29L407.91 337.08L409.68 334.94L411.52 332.86L413.45 330.86L415.45 328.94L417.52 327.09L419.66 325.32L421.87 323.64L424.15 322.03L426.49 320.52L428.88 319.09L431.34 317.75L433.85 316.51L436.42 315.36L439.04 314.32L441.7 313.37L444.42 312.52L447.18 311.78L449.97 311.15L452.81 310.62L455.69 310.21L458.6 309.92L461.54 309.74L464.52 309.68L467.49 309.74L470.43 309.92ZM402.16 433.56L401.73 433.58L401.32 433.63L400.91 433.68L400.5 433.76L400.1 433.85L399.71 433.96L399.32 434.08L398.94 434.21L398.56 434.36L398.2 434.53L397.84 434.7L397.49 434.89L397.14 435.1L396.81 435.31L396.49 435.54L396.17 435.78L395.86 436.04L395.57 436.3L395.28 436.58L395.01 436.86L394.74 437.16L394.49 437.46L394.25 437.78L394.02 438.11L393.81 438.44L393.6 438.78L393.41 439.13L393.23 439.49L393.07 439.86L392.92 440.23L392.78 440.61L392.66 441L392.56 441.39L392.47 441.79L392.39 442.2L392.33 442.61L392.29 443.03L392.27 443.45L392.26 443.87L392.26 547.1L392.27 547.52L392.29 547.94L392.33 548.36L392.39 548.77L392.47 549.17L392.56 549.57L392.66 549.97L392.78 550.35L392.92 550.74L393.07 551.11L393.23 551.48L393.41 551.83L393.6 552.19L393.81 552.53L394.02 552.86L394.25 553.19L394.49 553.5L394.74 553.81L395.01 554.11L395.28 554.39L395.57 554.67L395.86 554.93L396.17 555.18L396.49 555.42L396.81 555.65L397.14 555.87L397.49 556.07L397.84 556.26L398.2 556.44L398.56 556.61L398.94 556.76L399.32 556.89L399.71 557.01L400.1 557.12L400.5 557.21L400.91 557.28L401.32 557.34L401.73 557.39L402.16 557.41L402.58 557.42L526.45 557.42L526.88 557.41L527.3 557.39L527.71 557.34L528.13 557.28L528.53 557.21L528.93 557.12L529.33 557.01L529.71 556.89L530.09 556.76L530.47 556.61L530.84 556.44L531.19 556.26L531.55 556.07L531.89 555.87L532.22 555.65L532.55 555.42L532.86 555.18L533.17 554.93L533.46 554.67L533.75 554.39L534.02 554.11L534.29 553.81L534.54 553.5L534.78 553.19L535.01 552.86L535.23 552.53L535.43 552.19L535.62 551.83L535.8 551.48L535.96 551.11L536.11 550.74L536.25 550.35L536.37 549.97L536.47 549.57L536.56 549.17L536.64 548.77L536.7 548.36L536.74 547.94L536.77 547.52L536.77 547.1L536.77 443.87L536.77 443.45L536.74 443.03L536.7 442.61L536.64 442.2L536.56 441.79L536.47 441.39L536.37 441L536.25 440.61L536.11 440.23L535.96 439.86L535.8 439.49L535.62 439.13L535.43 438.78L535.23 438.44L535.01 438.11L534.78 437.78L534.54 437.46L534.29 437.16L534.02 436.86L533.75 436.58L533.46 436.3L533.17 436.04L532.86 435.78L532.55 435.54L532.22 435.31L531.89 435.1L531.55 434.89L531.19 434.7L530.84 434.53L530.47 434.36L530.09 434.21L529.71 434.08L529.33 433.96L528.93 433.85L528.53 433.76L528.13 433.68L527.71 433.63L527.3 433.58L526.88 433.56L526.45 433.55L402.58 433.55L402.16 433.56ZM460.29 330.49L458.21 330.71L456.16 331L454.13 331.37L452.13 331.83L450.16 332.35L448.22 332.96L446.32 333.64L444.45 334.39L442.61 335.2L440.82 336.09L439.06 337.05L437.35 338.07L435.68 339.15L434.05 340.29L432.48 341.5L430.95 342.76L429.47 344.08L428.04 345.46L426.66 346.89L425.34 348.37L424.08 349.89L422.87 351.47L421.73 353.1L420.65 354.77L419.63 356.48L418.67 358.24L417.79 360.03L416.97 361.86L416.22 363.73L415.54 365.64L414.93 367.58L414.41 369.55L413.95 371.55L413.58 373.57L413.29 375.63L413.07 377.71L412.95 379.81L412.9 381.94L412.9 412.9L516.13 412.9L516.13 381.94L516.09 379.81L515.96 377.71L515.75 375.63L515.45 373.57L515.08 371.55L514.63 369.55L514.1 367.58L513.49 365.64L512.82 363.73L512.07 361.86L511.25 360.03L510.36 358.24L509.4 356.48L508.39 354.77L507.3 353.1L506.16 351.47L504.95 349.89L503.69 348.37L502.37 346.89L500.99 345.46L499.57 344.08L498.09 342.76L496.56 341.5L494.98 340.29L493.35 339.15L491.68 338.07L489.97 337.05L488.22 336.09L486.42 335.2L484.59 334.38L482.72 333.64L480.81 332.96L478.87 332.35L476.9 331.83L474.9 331.37L472.88 331L470.82 330.71L468.74 330.49L466.64 330.37L464.52 330.32L462.39 330.37L460.29 330.49Z" id="d4GZQg9MqS"></path><path d="M495.48 165.16C495.48 165.16 495.48 165.16 495.48 165.16C495.48 177.55 495.48 184.43 495.48 185.81C495.48 185.81 495.48 185.81 495.48 185.81C384 185.81 322.06 185.81 309.68 185.81C309.68 185.81 309.68 185.81 309.68 185.81C309.68 173.42 309.68 166.54 309.68 165.16C309.68 165.16 309.68 165.16 309.68 165.16C421.16 165.16 483.1 165.16 495.48 165.16Z" id="b7CYhef79"></path></defs><g><g><g><use xlink:href="#cmZlKKjUW" opacity="1" fill="#4285f4" fill-opacity="1"></use></g><g><use xlink:href="#c2r5cMRv6X" opacity="1" fill="#a434b7" fill-opacity="1"></use></g><g><use xlink:href="#a3RRYLejEA" opacity="1" fill="#a434b7" fill-opacity="1"></use></g><g><use xlink:href="#aTSkhgzzl" opacity="1" fill="#a434b7" fill-opacity="1"></use></g><g><use xlink:href="#b8f2giQxb" opacity="1" fill="#a434b7" fill-opacity="1"></use></g><g><use xlink:href="#bH00xFJ9R" opacity="1" fill="#a434b7" fill-opacity="1"></use></g><g><use xlink:href="#d3cRNfKIRg" opacity="1" fill="#ffca28" fill-opacity="1"></use></g><g><use xlink:href="#i2COeG9Cd1" opacity="1" fill="#ffca28" fill-opacity="1"></use></g><g><use xlink:href="#d4GZQg9MqS" opacity="1" fill="#ffca28" fill-opacity="1"></use></g><g><use xlink:href="#b7CYhef79" opacity="1" fill="#4285f4" fill-opacity="1"></use></g></g></g></svg>