<svg width="200" height="200" version="1.1" viewBox="0 0 640 640" xmlns="http://www.w3.org/2000/svg" xmlns:xlink="http://www.w3.org/1999/xlink">
 <defs>
  <path id="a1c3PW4HoT" d="m9.39 0c-5.18 0-9.39 4.21-9.39 9.39v180.36c0 5.18 4.21 9.39 9.39 9.39h356.53c5.19 0 9.4-4.21 9.4-9.39 0-5.19-4.21-9.4-9.4-9.4h-347.13v-161.56h602.42v161.56h-211.04c-5.18 0-9.39 4.21-9.39 9.4 0 5.18 4.21 9.39 9.39 9.39h220.44c5.18 0 9.39-4.21 9.39-9.39v-180.36c0-5.18-4.2-9.39-9.39-9.39h-621.22z"/>
  <path id="c2hoWdua8" d="m290.57 49.47v100.2c0 5.19 4.2 9.39 9.39 9.39s9.39-4.2 9.39-9.39v-100.2c0-5.19-4.2-9.39-9.39-9.39s-9.39 4.2-9.39 9.39z"/>
  <path id="c1fl6Y5Swl" d="m383.35 60.25 1.59 0.16 1.57 0.22 1.55 0.29 1.53 0.35 1.5 0.4 1.48 0.46 1.46 0.52 1.43 0.57 1.4 0.63 1.37 0.68 1.34 0.73 1.31 0.78 1.28 0.82 1.24 0.88 1.21 0.92 1.17 0.97 1.13 1.01 1.09 1.05 1.05 1.09 1.01 1.13 0.97 1.17 0.92 1.21 0.87 1.24 0.83 1.27 0.78 1.31 0.73 1.34 0.68 1.38 0.62 1.4 0.58 1.43 0.52 1.45 0.46 1.48 0.4 1.51 0.35 1.53 0.28 1.55 0.23 1.57 0.16 1.59 0.1 1.61 0.03 1.62-0.03 1.62-0.1 1.61-0.16 1.59-0.23 1.57-0.28 1.55-0.35 1.53-0.4 1.51-0.46 1.48-0.52 1.45-0.58 1.43-0.62 1.4-0.68 1.38-0.73 1.34-0.78 1.31-0.83 1.27-0.87 1.24-0.92 1.21-0.97 1.17-1.01 1.13-1.05 1.09-1.09 1.05-1.13 1.01-1.17 0.97-1.21 0.92-1.24 0.88-1.28 0.82-1.31 0.78-1.34 0.73-1.37 0.68-1.4 0.63-1.43 0.57-1.46 0.52-1.48 0.46-1.5 0.4-1.53 0.35-1.55 0.29-1.57 0.22-1.59 0.16-1.61 0.1-1.62 0.03-1.63-0.03-1.6-0.1-1.59-0.16-1.57-0.22-1.55-0.29-1.53-0.35-1.51-0.4-1.48-0.46-1.46-0.52-1.42-0.57-1.41-0.63-1.37-0.68-1.34-0.73-1.31-0.78-1.28-0.82-1.24-0.88-1.2-0.92-1.17-0.97-1.13-1.01-1.1-1.05-1.05-1.09-1.01-1.13-0.96-1.17-0.92-1.21-0.88-1.24-0.83-1.27-0.78-1.31-0.72-1.34-0.68-1.38-0.63-1.4-0.57-1.43-0.52-1.45-0.46-1.48-0.41-1.51-0.34-1.53-0.29-1.55-0.22-1.57-0.16-1.59-0.1-1.61-0.03-1.62 0.03-1.62 0.1-1.61 0.16-1.59 0.22-1.57 0.29-1.55 0.34-1.53 0.41-1.51 0.46-1.48 0.52-1.45 0.57-1.43 0.63-1.4 0.68-1.38 0.72-1.34 0.78-1.31 0.83-1.27 0.88-1.24 0.92-1.21 0.96-1.17 1.01-1.13 1.05-1.09 1.1-1.05 1.13-1.01 1.17-0.97 1.2-0.92 1.24-0.88 1.28-0.82 1.31-0.78 1.34-0.73 1.37-0.68 1.41-0.63 1.42-0.57 1.46-0.52 1.48-0.46 1.51-0.4 1.53-0.35 1.55-0.29 1.57-0.22 1.59-0.16 1.6-0.1 1.63-0.03 1.62 0.03 1.61 0.1zm-5.92 18.83-1.31 0.21-1.28 0.3-1.25 0.37-1.21 0.45-1.18 0.52-1.13 0.59-1.1 0.66-1.05 0.72-1 0.78-0.95 0.84-0.9 0.9-0.84 0.95-0.78 1-0.73 1.05-0.65 1.1-0.59 1.14-0.52 1.17-0.45 1.22-0.37 1.24-0.3 1.28-0.21 1.31-0.13 1.33-0.05 1.36 0.05 1.36 0.13 1.33 0.21 1.31 0.3 1.28 0.37 1.24 0.45 1.22 0.52 1.17 0.59 1.14 0.65 1.1 0.72 1.05 0.79 1 0.84 0.95 0.9 0.9 0.95 0.84 1 0.78 1.05 0.72 1.1 0.66 1.13 0.59 1.18 0.52 1.21 0.45 1.25 0.37 1.28 0.3 1.31 0.21 1.33 0.13 1.36 0.05 1.35-0.05 1.34-0.13 1.31-0.21 1.27-0.3 1.25-0.37 1.22-0.45 1.17-0.52 1.14-0.59 1.09-0.66 1.05-0.72 1.01-0.78 0.95-0.84 0.9-0.9 0.84-0.95 0.78-1 0.72-1.05 0.66-1.1 0.59-1.14 0.52-1.17 0.45-1.22 0.37-1.24 0.29-1.28 0.22-1.31 0.13-1.33 0.04-1.36-0.04-1.36-0.13-1.33-0.22-1.31-0.29-1.28-0.37-1.24-0.45-1.22-0.52-1.17-0.59-1.14-0.66-1.1-0.72-1.05-0.78-1-0.85-0.95-0.89-0.9-0.95-0.84-1.01-0.78-1.05-0.72-1.09-0.66-1.14-0.59-1.17-0.52-1.22-0.45-1.25-0.37-1.27-0.3-1.31-0.21-1.34-0.13-1.35-0.04-1.36 0.04-1.33 0.13z"/>
  <path id="a6otZW7Uq" d="m563.7 60.25 1.59 0.16 1.57 0.22 1.55 0.29 1.53 0.35 1.51 0.4 1.48 0.46 1.45 0.52 1.43 0.57 1.4 0.63 1.38 0.68 1.34 0.73 1.31 0.78 1.27 0.82 1.24 0.88 1.21 0.92 1.17 0.97 1.13 1.01 1.09 1.05 1.05 1.09 1.01 1.13 0.97 1.17 0.92 1.21 0.88 1.24 0.82 1.27 0.78 1.31 0.73 1.34 0.68 1.38 0.63 1.4 0.57 1.43 0.52 1.45 0.46 1.48 0.4 1.51 0.35 1.53 0.29 1.55 0.22 1.57 0.16 1.59 0.1 1.61 0.03 1.62-0.03 1.62-0.1 1.61-0.16 1.59-0.22 1.57-0.29 1.55-0.35 1.53-0.4 1.51-0.46 1.48-0.52 1.45-0.57 1.43-0.63 1.4-0.68 1.38-0.73 1.34-0.78 1.31-0.82 1.27-0.88 1.24-0.92 1.21-0.97 1.17-1.01 1.13-1.05 1.09-1.09 1.05-1.13 1.01-1.17 0.97-1.21 0.92-1.24 0.88-1.27 0.82-1.31 0.78-1.34 0.73-1.38 0.68-1.4 0.63-1.43 0.57-1.45 0.52-1.48 0.46-1.51 0.4-1.53 0.35-1.55 0.29-1.57 0.22-1.59 0.16-1.61 0.1-1.62 0.03-1.62-0.03-1.61-0.1-1.59-0.16-1.57-0.22-1.55-0.29-1.53-0.35-1.51-0.4-1.48-0.46-1.45-0.52-1.43-0.57-1.4-0.63-1.38-0.68-1.34-0.73-1.31-0.78-1.27-0.82-1.24-0.88-1.21-0.92-1.17-0.97-1.13-1.01-1.09-1.05-1.05-1.09-1.01-1.13-0.97-1.17-0.92-1.21-0.88-1.24-0.82-1.27-0.78-1.31-0.73-1.34-0.68-1.38-0.63-1.4-0.57-1.43-0.52-1.45-0.46-1.48-0.4-1.51-0.35-1.53-0.29-1.55-0.22-1.57-0.16-1.59-0.1-1.61-0.03-1.62 0.03-1.62 0.1-1.61 0.16-1.59 0.22-1.57 0.29-1.55 0.35-1.53 0.4-1.51 0.46-1.48 0.52-1.45 0.57-1.43 0.63-1.4 0.68-1.38 0.73-1.34 0.78-1.31 0.82-1.27 0.88-1.24 0.92-1.21 0.97-1.17 1.01-1.13 1.05-1.09 1.09-1.05 1.13-1.01 1.17-0.97 1.21-0.92 1.24-0.88 1.27-0.82 1.31-0.78 1.34-0.73 1.38-0.68 1.4-0.63 1.43-0.57 1.45-0.52 1.48-0.46 1.51-0.4 1.53-0.35 1.55-0.29 1.57-0.22 1.59-0.16 1.61-0.1 1.62-0.03 1.62 0.03 1.61 0.1zm-5.92 18.83-1.31 0.21-1.28 0.3-1.24 0.37-1.22 0.45-1.17 0.52-1.14 0.59-1.1 0.66-1.05 0.72-1 0.78-0.95 0.84-0.9 0.9-0.84 0.95-0.78 1-0.72 1.05-0.66 1.1-0.59 1.14-0.52 1.17-0.45 1.22-0.37 1.24-0.3 1.28-0.21 1.31-0.13 1.33-0.04 1.36 0.04 1.36 0.13 1.33 0.21 1.31 0.3 1.28 0.37 1.24 0.45 1.22 0.52 1.17 0.59 1.14 0.66 1.1 0.72 1.05 0.78 1 0.84 0.95 0.9 0.9 0.95 0.84 1 0.78 1.05 0.72 1.1 0.66 1.13 0.59 1.18 0.52 1.22 0.45 1.24 0.37 1.28 0.3 1.31 0.21 1.33 0.13 1.36 0.05 1.36-0.05 1.33-0.13 1.31-0.21 1.28-0.3 1.24-0.37 1.22-0.45 1.18-0.52 1.13-0.59 1.1-0.66 1.05-0.72 1-0.78 0.95-0.84 0.9-0.9 0.84-0.95 0.78-1 0.72-1.05 0.66-1.1 0.59-1.14 0.52-1.17 0.45-1.22 0.37-1.24 0.3-1.28 0.21-1.31 0.13-1.33 0.05-1.36-0.05-1.36-0.13-1.33-0.21-1.31-0.3-1.28-0.37-1.24-0.45-1.22-0.52-1.17-0.59-1.14-0.66-1.1-0.72-1.05-0.78-1-0.84-0.95-0.9-0.9-0.95-0.84-1-0.78-1.05-0.72-1.1-0.66-1.14-0.59-1.17-0.52-1.22-0.45-1.24-0.37-1.28-0.3-1.31-0.21-1.33-0.13-1.36-0.04-1.36 0.04-1.33 0.13z"/>
  <path id="a1XKTaFmBr" d="m473.52 60.25 1.59 0.16 1.57 0.22 1.55 0.29 1.53 0.35 1.51 0.4 1.48 0.46 1.46 0.52 1.43 0.57 1.4 0.63 1.37 0.68 1.34 0.73 1.31 0.78 1.28 0.82 1.24 0.88 1.21 0.92 1.16 0.97 1.14 1.01 1.09 1.05 1.05 1.09 1.01 1.13 0.96 1.17 0.92 1.21 0.88 1.24 0.83 1.27 0.78 1.31 0.73 1.34 0.67 1.38 0.63 1.4 0.57 1.43 0.52 1.45 0.46 1.48 0.41 1.51 0.34 1.53 0.29 1.55 0.22 1.57 0.17 1.59 0.09 1.61 0.04 1.62-0.04 1.62-0.09 1.61-0.17 1.59-0.22 1.57-0.29 1.55-0.34 1.53-0.41 1.51-0.46 1.48-0.52 1.45-0.57 1.43-0.63 1.4-0.67 1.38-0.73 1.34-0.78 1.31-0.83 1.27-0.88 1.24-0.92 1.21-0.96 1.17-1.01 1.13-1.05 1.09-1.09 1.05-1.14 1.01-1.16 0.97-1.21 0.92-1.24 0.88-1.28 0.82-1.31 0.78-1.34 0.73-1.37 0.68-1.4 0.63-1.43 0.57-1.46 0.52-1.48 0.46-1.51 0.4-1.53 0.35-1.55 0.29-1.57 0.22-1.59 0.16-1.6 0.1-1.63 0.03-1.62-0.03-1.61-0.1-1.59-0.16-1.57-0.22-1.55-0.29-1.53-0.35-1.5-0.4-1.48-0.46-1.46-0.52-1.43-0.57-1.4-0.63-1.37-0.68-1.34-0.73-1.31-0.78-1.28-0.82-1.24-0.88-1.21-0.92-1.17-0.97-1.13-1.01-1.09-1.05-1.05-1.09-1.01-1.13-0.97-1.17-0.92-1.21-0.87-1.24-0.83-1.27-0.78-1.31-0.73-1.34-0.68-1.38-0.62-1.4-0.58-1.43-0.51-1.45-0.47-1.48-0.4-1.51-0.35-1.53-0.28-1.55-0.23-1.57-0.16-1.59-0.1-1.61-0.03-1.62 0.03-1.62 0.1-1.61 0.16-1.59 0.23-1.57 0.28-1.55 0.35-1.53 0.4-1.51 0.47-1.48 0.51-1.45 0.58-1.43 0.62-1.4 0.68-1.38 0.73-1.34 0.78-1.31 0.83-1.27 0.87-1.24 0.92-1.21 0.97-1.17 1.01-1.13 1.05-1.09 1.09-1.05 1.13-1.01 1.17-0.97 1.21-0.92 1.24-0.88 1.28-0.82 1.31-0.78 1.34-0.73 1.37-0.68 1.4-0.63 1.43-0.57 1.46-0.52 1.48-0.46 1.5-0.4 1.53-0.35 1.55-0.29 1.57-0.22 1.59-0.16 1.61-0.1 1.62-0.03 1.63 0.03 1.6 0.1zm-5.92 18.83-1.3 0.21-1.28 0.3-1.25 0.37-1.21 0.45-1.18 0.52-1.14 0.59-1.09 0.66-1.05 0.72-1 0.78-0.96 0.84-0.89 0.9-0.85 0.95-0.78 1-0.72 1.05-0.66 1.1-0.59 1.14-0.52 1.17-0.45 1.22-0.37 1.24-0.29 1.28-0.22 1.31-0.13 1.33-0.04 1.36 0.04 1.36 0.13 1.33 0.22 1.31 0.29 1.28 0.37 1.24 0.45 1.22 0.52 1.17 0.59 1.14 0.66 1.1 0.72 1.05 0.78 1 0.85 0.95 0.89 0.9 0.96 0.84 1 0.78 1.05 0.72 1.09 0.66 1.14 0.59 1.18 0.52 1.21 0.45 1.25 0.37 1.28 0.3 1.3 0.21 1.34 0.13 1.35 0.05 1.36-0.05 1.33-0.13 1.31-0.21 1.28-0.3 1.25-0.37 1.21-0.45 1.18-0.52 1.14-0.59 1.09-0.66 1.05-0.72 1-0.78 0.95-0.84 0.9-0.9 0.84-0.95 0.79-1 0.72-1.05 0.66-1.1 0.59-1.14 0.52-1.17 0.44-1.22 0.38-1.24 0.29-1.28 0.21-1.31 0.13-1.33 0.05-1.36-0.05-1.36-0.13-1.33-0.21-1.31-0.29-1.28-0.38-1.24-0.44-1.22-0.52-1.17-0.59-1.14-0.66-1.1-0.72-1.05-0.79-1-0.84-0.95-0.9-0.9-0.95-0.84-1-0.78-1.05-0.72-1.09-0.66-1.14-0.59-1.18-0.52-1.21-0.45-1.25-0.37-1.28-0.3-1.31-0.21-1.33-0.13-1.36-0.04-1.35 0.04-1.34 0.13z"/>
  <path id="h2LSxZjDN" d="m230.59 210.44 0.38 0.04 0.38 0.05 0.37 0.07 0.36 0.08 0.36 0.1 0.35 0.11 0.35 0.12 0.34 0.14 0.33 0.15 0.33 0.16 0.32 0.17 0.62 0.38 0.29 0.21 0.29 0.22 0.28 0.23 0.27 0.24 0.26 0.25 0.25 0.26 0.24 0.27 0.23 0.28 0.22 0.29 0.2 0.29 0.2 0.31 0.19 0.31 0.17 0.32 0.16 0.32 0.15 0.34 0.14 0.34 0.12 0.34 0.11 0.36 0.18 0.72 0.12 0.74 0.04 0.38 0.02 0.39 0.01 0.38v130.89h30.68l0.63 0.02 0.62 0.06 0.59 0.09 0.58 0.14 0.56 0.17 0.54 0.2 0.51 0.23 0.5 0.27 0.48 0.29 0.45 0.33 0.44 0.34 0.4 0.37 0.39 0.4 0.36 0.41 0.34 0.44 0.31 0.45 0.29 0.47 0.26 0.48 0.23 0.5 0.2 0.51 0.18 0.52 0.15 0.53 0.12 0.54 0.09 0.54 0.06 0.55 0.02 0.55v0.55l-0.04 0.55-0.06 0.55-0.11 0.54-0.13 0.54-0.17 0.54-0.21 0.52-0.24 0.52-0.28 0.5-0.31 0.5-0.35 0.47-0.39 0.47-0.43 0.44-0.46 0.43-70.14 60.12-0.54 0.42-0.27 0.2-0.29 0.18-0.28 0.17-0.3 0.17-0.29 0.15-0.3 0.14-0.62 0.24-0.31 0.11-0.64 0.18-0.32 0.07-0.32 0.06-0.33 0.05-0.32 0.04-0.33 0.03-0.66 0.02-0.32-0.01-0.33-0.01-0.33-0.03-0.32-0.04-0.33-0.05-0.32-0.06-0.32-0.07-0.64-0.18-0.31-0.11-0.62-0.24-0.3-0.14-0.3-0.15-0.58-0.34-0.28-0.18-0.27-0.2-0.54-0.42-70.14-60.12-0.46-0.43-0.43-0.44-0.39-0.47-0.35-0.47-0.31-0.5-0.28-0.5-0.24-0.52-0.21-0.52-0.17-0.54-0.13-0.54-0.11-0.54-0.07-0.55-0.03-0.55v-0.55l0.02-0.55 0.06-0.55 0.09-0.54 0.12-0.54 0.15-0.53 0.17-0.52 0.21-0.51 0.23-0.5 0.26-0.48 0.29-0.47 0.31-0.45 0.34-0.44 0.36-0.41 0.38-0.4 0.41-0.37 0.44-0.35 0.45-0.32 0.48-0.29 0.5-0.27 0.51-0.23 0.54-0.2 0.56-0.17 0.58-0.14 0.59-0.1 0.62-0.06 0.63-0.02h30.68v-130.88l0.01-0.38 0.02-0.39 0.04-0.38 0.12-0.74 0.18-0.72 0.11-0.36 0.12-0.34 0.14-0.34 0.15-0.34 0.16-0.32 0.17-0.32 0.19-0.31 0.2-0.31 0.2-0.29 0.22-0.29 0.23-0.28 0.24-0.27 0.25-0.26 0.26-0.25 0.27-0.24 0.28-0.23 0.29-0.22 0.29-0.21 0.62-0.38 0.32-0.17 0.33-0.16 0.33-0.15 0.34-0.14 0.35-0.12 0.35-0.11 0.36-0.1 0.36-0.08 0.37-0.07 0.38-0.05 0.38-0.04 0.38-0.02 0.39-0.01h60.11l0.39 0.01 0.38 0.02zm-51.49 149.64-0.01 0.38-0.02 0.39-0.04 0.38-0.05 0.37-0.07 0.37-0.08 0.36-0.1 0.36-0.11 0.36-0.12 0.34-0.14 0.34-0.15 0.34-0.16 0.32-0.17 0.32-0.19 0.32-0.19 0.3-0.21 0.3-0.22 0.28-0.23 0.28-0.24 0.27-0.25 0.26-0.26 0.25-0.27 0.24-0.28 0.23-0.29 0.22-0.29 0.21-0.62 0.38-0.32 0.17-0.32 0.16-0.34 0.15-0.34 0.14-0.34 0.12-0.36 0.11-0.36 0.1-0.36 0.08-0.37 0.07-0.37 0.05-0.38 0.04-0.39 0.02-0.38 0.01h-14.69l44.75 38.35 44.74-38.35h-14.68l-0.39-0.01-0.39-0.02-0.37-0.04-0.38-0.05-0.37-0.07-0.36-0.08-0.36-0.1-0.35-0.11-0.35-0.12-0.68-0.28-0.64-0.34-0.62-0.38-0.29-0.21-0.29-0.22-0.28-0.23-0.27-0.24-0.26-0.25-0.25-0.26-0.24-0.27-0.23-0.28-0.22-0.28-0.4-0.6-0.19-0.32-0.17-0.31-0.16-0.33-0.15-0.34-0.14-0.34-0.12-0.34-0.11-0.36-0.1-0.35-0.08-0.37-0.07-0.37-0.05-0.37-0.04-0.38-0.02-0.38-0.01-0.39v-130.88h-41.33v130.88z"/>
  <path id="g3JjaIQSwA" d="m440.89 210.43 0.32 0.03 0.33 0.04 0.32 0.05 0.32 0.06 0.64 0.16 0.31 0.1 0.32 0.11 0.31 0.12 0.3 0.13 0.3 0.14 0.3 0.15 0.3 0.16 0.29 0.18 0.56 0.38 0.27 0.21 0.27 0.22 70.14 60.12 0.46 0.43 0.43 0.44 0.39 0.46 0.35 0.48 0.31 0.5 0.28 0.5 0.24 0.52 0.21 0.52 0.17 0.54 0.13 0.54 0.11 0.54 0.06 0.55 0.04 0.55v0.55l-0.02 0.55-0.06 0.55-0.09 0.54-0.12 0.54-0.15 0.53-0.18 0.52-0.2 0.51-0.23 0.49-0.26 0.49-0.29 0.47-0.31 0.45-0.34 0.44-0.36 0.41-0.39 0.4-0.4 0.37-0.44 0.34-0.45 0.33-0.48 0.29-0.5 0.27-0.51 0.23-0.54 0.2-0.56 0.17-0.58 0.14-0.59 0.09-0.62 0.06-0.63 0.03h-30.68v130.88l-0.01 0.38-0.02 0.39-0.04 0.38-0.12 0.74-0.18 0.72-0.11 0.36-0.12 0.34-0.14 0.34-0.15 0.34-0.16 0.32-0.17 0.32-0.19 0.31-0.2 0.31-0.2 0.29-0.22 0.29-0.23 0.28-0.24 0.27-0.25 0.26-0.26 0.25-0.27 0.24-0.28 0.23-0.29 0.22-0.29 0.21-0.62 0.38-0.32 0.17-0.33 0.16-0.33 0.15-0.34 0.14-0.35 0.12-0.35 0.11-0.36 0.1-0.36 0.08-0.37 0.07-0.38 0.05-0.38 0.04-0.38 0.02-0.39 0.01h-60.11l-0.39-0.01-0.38-0.02-0.38-0.04-0.38-0.05-0.37-0.07-0.36-0.08-0.36-0.1-0.35-0.11-0.35-0.12-0.34-0.14-0.33-0.15-0.33-0.16-0.32-0.17-0.62-0.38-0.29-0.21-0.29-0.22-0.28-0.23-0.27-0.24-0.26-0.25-0.25-0.26-0.24-0.27-0.23-0.28-0.22-0.29-0.2-0.29-0.2-0.31-0.19-0.31-0.17-0.32-0.16-0.32-0.15-0.34-0.14-0.34-0.12-0.34-0.11-0.36-0.18-0.72-0.12-0.74-0.04-0.38-0.02-0.39-0.01-0.38v-130.88h-30.68l-0.63-0.03-0.62-0.06-0.59-0.09-0.58-0.14-0.56-0.17-0.54-0.2-0.51-0.23-0.5-0.27-0.48-0.29-0.45-0.33-0.44-0.34-0.41-0.37-0.38-0.4-0.36-0.41-0.34-0.44-0.31-0.45-0.29-0.47-0.26-0.49-0.23-0.49-0.21-0.51-0.17-0.52-0.15-0.53-0.12-0.54-0.09-0.54-0.06-0.55-0.03-0.55 0.01-0.55 0.03-0.55 0.07-0.55 0.11-0.54 0.13-0.54 0.17-0.54 0.21-0.52 0.24-0.52 0.28-0.5 0.31-0.5 0.35-0.48 0.39-0.46 0.43-0.44 0.46-0.43 70.14-60.12 0.27-0.22 0.27-0.21 0.56-0.38 0.29-0.18 0.3-0.16 0.29-0.15 0.31-0.14 0.3-0.13 0.31-0.12 0.31-0.11 0.32-0.1 0.64-0.16 0.32-0.06 0.32-0.05 0.33-0.04 0.32-0.03 0.33-0.01 0.32-0.01 0.66 0.02zm-30.71 60.1 0.38 0.01 0.39 0.02 0.37 0.04 0.38 0.05 0.37 0.07 0.36 0.08 0.36 0.1 0.35 0.11 0.35 0.12 0.68 0.28 0.64 0.34 0.62 0.38 0.29 0.21 0.29 0.22 0.28 0.23 0.27 0.24 0.26 0.25 0.25 0.26 0.24 0.27 0.23 0.28 0.22 0.28 0.4 0.6 0.19 0.32 0.17 0.31 0.16 0.33 0.15 0.34 0.14 0.34 0.12 0.34 0.11 0.36 0.1 0.35 0.08 0.37 0.07 0.37 0.05 0.37 0.04 0.38 0.02 0.38 0.01 0.39v130.88h41.33v-130.88l0.01-0.26 0.01-0.25 0.03-0.26 0.04-0.26 0.12-0.5 0.08-0.25 0.09-0.25 0.1-0.25 0.11-0.25 0.12-0.25 0.14-0.24 0.14-0.25 0.16-0.24 0.17-0.24 0.18-0.24 0.4-0.48 0.22-0.23 0.23-0.24 0.24-0.23 0.25-0.24 0.54-0.46 0.29-0.23 0.3-0.23 0.31-0.22 0.32-0.23 0.34-0.22 0.34-0.23 0.36-0.22 0.37-0.22 0.38-0.22 0.8-0.44 0.42-0.21 0.43-0.22 0.44-0.21 0.45-0.21 0.46-0.21h14.69l-44.75-38.35-44.74 38.35h14.69z"/>
  <path id="a3sux91Kn" d="m230.45 49.47v100.2c0 5.19 4.21 9.39 9.39 9.39 5.19 0 9.4-4.2 9.4-9.39v-100.2c0-5.19-4.21-9.39-9.4-9.39-5.18 0-9.39 4.2-9.39 9.39z"/>
  <path id="a3LNPUpVAT" d="m170.33 49.47v100.2c0 5.19 4.21 9.39 9.4 9.39s9.39-4.2 9.39-9.39v-100.2c0-5.19-4.2-9.39-9.39-9.39s-9.4 4.2-9.4 9.39z"/>
  <path id="cP4Ys1Ix8" d="m100.82 49.47v100.2c0 5.19 4.21 9.39 9.4 9.39 5.18 0 9.39-4.2 9.39-9.39v-100.2c0-5.19-4.21-9.39-9.39-9.39-5.19 0-9.4 4.2-9.4 9.39z"/>
  <path id="d2VW75HUxh" d="m40.7 49.47v100.2c0 5.19 4.21 9.39 9.4 9.39s9.39-4.2 9.39-9.39v-100.2c0-5.19-4.2-9.39-9.39-9.39s-9.4 4.2-9.4 9.39z"/>
  <path id="f2IeYCSgIf" d="m9.39 440.86c-5.18 0-9.39 4.21-9.39 9.39v180.36c0 5.18 4.21 9.39 9.39 9.39h356.53c5.19 0 9.4-4.21 9.4-9.39 0-5.19-4.21-9.4-9.4-9.4h-347.13v-161.56h602.42v161.56h-211.04c-5.18 0-9.39 4.21-9.39 9.4 0 5.18 4.21 9.39 9.39 9.39h220.44c5.18 0 9.39-4.21 9.39-9.39v-180.36c0-5.18-4.2-9.39-9.39-9.39h-621.22z"/>
  <path id="b21uGIGnFS" d="m290.57 490.33v100.2c0 5.19 4.2 9.39 9.39 9.39s9.39-4.2 9.39-9.39v-100.2c0-5.19-4.2-9.39-9.39-9.39s-9.39 4.2-9.39 9.39z"/>
  <path id="dAIsHOve5" d="m383.35 501.11 1.59 0.16 1.57 0.22 1.55 0.29 1.53 0.35 1.5 0.4 1.48 0.46 1.46 0.52 1.43 0.57 1.4 0.63 1.37 0.68 1.34 0.73 1.31 0.78 1.28 0.82 1.24 0.88 1.21 0.92 1.17 0.97 1.13 1.01 1.09 1.05 1.05 1.09 1.01 1.13 0.97 1.17 0.92 1.21 0.87 1.24 0.83 1.27 0.78 1.31 0.73 1.34 0.68 1.38 0.62 1.4 0.58 1.43 0.52 1.45 0.46 1.48 0.4 1.51 0.35 1.53 0.28 1.55 0.23 1.57 0.16 1.59 0.1 1.61 0.03 1.62-0.03 1.62-0.1 1.61-0.16 1.59-0.23 1.57-0.28 1.55-0.35 1.53-0.4 1.51-0.46 1.48-0.52 1.45-0.58 1.43-0.62 1.4-0.68 1.38-0.73 1.34-0.78 1.31-0.83 1.27-0.87 1.24-0.92 1.21-0.97 1.17-1.01 1.13-1.05 1.09-1.09 1.05-1.13 1.01-1.17 0.97-1.21 0.92-1.24 0.88-1.28 0.82-1.31 0.78-1.34 0.73-1.37 0.68-1.4 0.63-1.43 0.57-1.46 0.52-1.48 0.46-1.5 0.4-1.53 0.35-1.55 0.29-1.57 0.22-1.59 0.16-1.61 0.1-1.62 0.03-1.63-0.03-1.6-0.1-1.59-0.16-1.57-0.22-1.55-0.29-1.53-0.35-1.51-0.4-1.48-0.46-1.46-0.52-1.42-0.57-1.41-0.63-1.37-0.68-1.34-0.73-1.31-0.78-1.28-0.82-1.24-0.88-1.2-0.92-1.17-0.97-1.13-1.01-1.1-1.05-1.05-1.09-1.01-1.13-0.96-1.17-0.92-1.21-0.88-1.24-0.83-1.27-0.78-1.31-0.72-1.34-0.68-1.38-0.63-1.4-0.57-1.43-0.52-1.45-0.46-1.48-0.41-1.51-0.34-1.53-0.29-1.55-0.22-1.57-0.16-1.59-0.1-1.61-0.03-1.62 0.03-1.62 0.1-1.61 0.16-1.59 0.22-1.57 0.29-1.55 0.34-1.53 0.41-1.51 0.46-1.48 0.52-1.45 0.57-1.43 0.63-1.4 0.68-1.38 0.72-1.34 0.78-1.31 0.83-1.27 0.88-1.24 0.92-1.21 0.96-1.17 1.01-1.13 1.05-1.09 1.1-1.05 1.13-1.01 1.17-0.97 1.2-0.92 1.24-0.88 1.28-0.82 1.31-0.78 1.34-0.73 1.37-0.68 1.41-0.63 1.42-0.57 1.46-0.52 1.48-0.46 1.51-0.4 1.53-0.35 1.55-0.29 1.57-0.22 1.59-0.16 1.6-0.1 1.63-0.03 1.62 0.03 1.61 0.1zm-5.92 18.83-1.31 0.21-1.28 0.3-1.25 0.37-1.21 0.45-1.18 0.52-1.13 0.59-1.1 0.66-1.05 0.72-1 0.78-0.95 0.84-0.9 0.9-0.84 0.95-0.78 1-0.73 1.05-0.65 1.1-0.59 1.14-0.52 1.17-0.45 1.22-0.37 1.24-0.3 1.28-0.21 1.31-0.13 1.33-0.05 1.36 0.05 1.36 0.13 1.33 0.21 1.31 0.3 1.28 0.37 1.24 0.45 1.22 0.52 1.17 0.59 1.14 0.65 1.1 0.72 1.05 0.79 1 0.84 0.95 0.9 0.9 0.95 0.84 1 0.78 1.05 0.72 1.1 0.66 1.13 0.59 1.18 0.52 1.21 0.45 1.25 0.37 1.28 0.3 1.31 0.21 1.33 0.13 1.36 0.05 1.35-0.05 1.34-0.13 1.31-0.21 1.27-0.3 1.25-0.37 1.22-0.45 1.17-0.52 1.14-0.59 1.09-0.66 1.05-0.72 1.01-0.78 0.95-0.84 0.9-0.9 0.84-0.95 0.78-1 0.72-1.05 0.66-1.1 0.59-1.14 0.52-1.17 0.45-1.22 0.37-1.24 0.29-1.28 0.22-1.31 0.13-1.33 0.04-1.36-0.04-1.36-0.13-1.33-0.22-1.31-0.29-1.28-0.37-1.24-0.45-1.22-0.52-1.17-0.59-1.14-0.66-1.1-0.72-1.05-0.78-1-0.85-0.95-0.89-0.9-0.95-0.84-1.01-0.78-1.05-0.72-1.09-0.66-1.14-0.59-1.17-0.52-1.22-0.45-1.25-0.37-1.27-0.3-1.31-0.21-1.34-0.13-1.35-0.04-1.36 0.04-1.33 0.13z"/>
  <path id="h7l8GgL2R" d="m563.7 501.11 1.59 0.16 1.57 0.22 1.55 0.29 1.53 0.35 1.51 0.4 1.48 0.46 1.45 0.52 1.43 0.57 1.4 0.63 1.38 0.68 1.34 0.73 1.31 0.78 1.27 0.82 1.24 0.88 1.21 0.92 1.17 0.97 1.13 1.01 1.09 1.05 1.05 1.09 1.01 1.13 0.97 1.17 0.92 1.21 0.88 1.24 0.82 1.27 0.78 1.31 0.73 1.34 0.68 1.38 0.63 1.4 0.57 1.43 0.52 1.45 0.46 1.48 0.4 1.51 0.35 1.53 0.29 1.55 0.22 1.57 0.16 1.59 0.1 1.61 0.03 1.62-0.03 1.62-0.1 1.61-0.16 1.59-0.22 1.57-0.29 1.55-0.35 1.53-0.4 1.51-0.46 1.48-0.52 1.45-0.57 1.43-0.63 1.4-0.68 1.38-0.73 1.34-0.78 1.31-0.82 1.27-0.88 1.24-0.92 1.21-0.97 1.17-1.01 1.13-1.05 1.09-1.09 1.05-1.13 1.01-1.17 0.97-1.21 0.92-1.24 0.88-1.27 0.82-1.31 0.78-1.34 0.73-1.38 0.68-1.4 0.63-1.43 0.57-1.45 0.52-1.48 0.46-1.51 0.4-1.53 0.35-1.55 0.29-1.57 0.22-1.59 0.16-1.61 0.1-1.62 0.03-1.62-0.03-1.61-0.1-1.59-0.16-1.57-0.22-1.55-0.29-1.53-0.35-1.51-0.4-1.48-0.46-1.45-0.52-1.43-0.57-1.4-0.63-1.38-0.68-1.34-0.73-1.31-0.78-1.27-0.82-1.24-0.88-1.21-0.92-1.17-0.97-1.13-1.01-1.09-1.05-1.05-1.09-1.01-1.13-0.97-1.17-0.92-1.21-0.88-1.24-0.82-1.27-0.78-1.31-0.73-1.34-0.68-1.38-0.63-1.4-0.57-1.43-0.52-1.45-0.46-1.48-0.4-1.51-0.35-1.53-0.29-1.55-0.22-1.57-0.16-1.59-0.1-1.61-0.03-1.62 0.03-1.62 0.1-1.61 0.16-1.59 0.22-1.57 0.29-1.55 0.35-1.53 0.4-1.51 0.46-1.48 0.52-1.45 0.57-1.43 0.63-1.4 0.68-1.38 0.73-1.34 0.78-1.31 0.82-1.27 0.88-1.24 0.92-1.21 0.97-1.17 1.01-1.13 1.05-1.09 1.09-1.05 1.13-1.01 1.17-0.97 1.21-0.92 1.24-0.88 1.27-0.82 1.31-0.78 1.34-0.73 1.38-0.68 1.4-0.63 1.43-0.57 1.45-0.52 1.48-0.46 1.51-0.4 1.53-0.35 1.55-0.29 1.57-0.22 1.59-0.16 1.61-0.1 1.62-0.03 1.62 0.03 1.61 0.1zm-5.92 18.83-1.31 0.21-1.28 0.3-1.24 0.37-1.22 0.45-1.17 0.52-1.14 0.59-1.1 0.66-1.05 0.72-1 0.78-0.95 0.84-0.9 0.9-0.84 0.95-0.78 1-0.72 1.05-0.66 1.1-0.59 1.14-0.52 1.17-0.45 1.22-0.37 1.24-0.3 1.28-0.21 1.31-0.13 1.33-0.04 1.36 0.04 1.36 0.13 1.33 0.21 1.31 0.3 1.28 0.37 1.24 0.45 1.22 0.52 1.17 0.59 1.14 0.66 1.1 0.72 1.05 0.78 1 0.84 0.95 0.9 0.9 0.95 0.84 1 0.78 1.05 0.72 1.1 0.66 1.13 0.59 1.18 0.52 1.22 0.45 1.24 0.37 1.28 0.3 1.31 0.21 1.33 0.13 1.36 0.05 1.36-0.05 1.33-0.13 1.31-0.21 1.28-0.3 1.24-0.37 1.22-0.45 1.18-0.52 1.13-0.59 1.1-0.66 1.05-0.72 1-0.78 0.95-0.84 0.9-0.9 0.84-0.95 0.78-1 0.72-1.05 0.66-1.1 0.59-1.14 0.52-1.17 0.45-1.22 0.37-1.24 0.3-1.28 0.21-1.31 0.13-1.33 0.05-1.36-0.05-1.36-0.13-1.33-0.21-1.31-0.3-1.28-0.37-1.24-0.45-1.22-0.52-1.17-0.59-1.14-0.66-1.1-0.72-1.05-0.78-1-0.84-0.95-0.9-0.9-0.95-0.84-1-0.78-1.05-0.72-1.1-0.66-1.14-0.59-1.17-0.52-1.22-0.45-1.24-0.37-1.28-0.3-1.31-0.21-1.33-0.13-1.36-0.04-1.36 0.04-1.33 0.13z"/>
  <path id="ed19q3pMh" d="m473.52 501.11 1.59 0.16 1.57 0.22 1.55 0.29 1.53 0.35 1.51 0.4 1.48 0.46 1.46 0.52 1.43 0.57 1.4 0.63 1.37 0.68 1.34 0.73 1.31 0.78 1.28 0.82 1.24 0.88 1.21 0.92 1.16 0.97 1.14 1.01 1.09 1.05 1.05 1.09 1.01 1.13 0.96 1.17 0.92 1.21 0.88 1.24 0.83 1.27 0.78 1.31 0.73 1.34 0.67 1.38 0.63 1.4 0.57 1.43 0.52 1.45 0.46 1.48 0.41 1.51 0.34 1.53 0.29 1.55 0.22 1.57 0.17 1.59 0.09 1.61 0.04 1.62-0.04 1.62-0.09 1.61-0.17 1.59-0.22 1.57-0.29 1.55-0.34 1.53-0.41 1.51-0.46 1.48-0.52 1.45-0.57 1.43-0.63 1.4-0.67 1.38-0.73 1.34-0.78 1.31-0.83 1.27-0.88 1.24-0.92 1.21-0.96 1.17-1.01 1.13-1.05 1.09-1.09 1.05-1.14 1.01-1.16 0.97-1.21 0.92-1.24 0.88-1.28 0.82-1.31 0.78-1.34 0.73-1.37 0.68-1.4 0.63-1.43 0.57-1.46 0.52-1.48 0.46-1.51 0.4-1.53 0.35-1.55 0.29-1.57 0.22-1.59 0.16-1.6 0.1-1.63 0.03-1.62-0.03-1.61-0.1-1.59-0.16-1.57-0.22-1.55-0.29-1.53-0.35-1.5-0.4-1.48-0.46-1.46-0.52-1.43-0.57-1.4-0.63-1.37-0.68-1.34-0.73-1.31-0.78-1.28-0.82-1.24-0.88-1.21-0.92-1.17-0.97-1.13-1.01-1.09-1.05-1.05-1.09-1.01-1.13-0.97-1.17-0.92-1.21-0.87-1.24-0.83-1.27-0.78-1.31-0.73-1.34-0.68-1.38-0.62-1.4-0.58-1.43-0.51-1.45-0.47-1.48-0.4-1.51-0.35-1.53-0.28-1.55-0.23-1.57-0.16-1.59-0.1-1.61-0.03-1.62 0.03-1.62 0.1-1.61 0.16-1.59 0.23-1.57 0.28-1.55 0.35-1.53 0.4-1.51 0.47-1.48 0.51-1.45 0.58-1.43 0.62-1.4 0.68-1.38 0.73-1.34 0.78-1.31 0.83-1.27 0.87-1.24 0.92-1.21 0.97-1.17 1.01-1.13 1.05-1.09 1.09-1.05 1.13-1.01 1.17-0.97 1.21-0.92 1.24-0.88 1.28-0.82 1.31-0.78 1.34-0.73 1.37-0.68 1.4-0.63 1.43-0.57 1.46-0.52 1.48-0.46 1.5-0.4 1.53-0.35 1.55-0.29 1.57-0.22 1.59-0.16 1.61-0.1 1.62-0.03 1.63 0.03 1.6 0.1zm-5.92 18.83-1.3 0.21-1.28 0.3-1.25 0.37-1.21 0.45-1.18 0.52-1.14 0.59-1.09 0.66-1.05 0.72-1 0.78-0.96 0.84-0.89 0.9-0.85 0.95-0.78 1-0.72 1.05-0.66 1.1-0.59 1.14-0.52 1.17-0.45 1.22-0.37 1.24-0.29 1.28-0.22 1.31-0.13 1.33-0.04 1.36 0.04 1.36 0.13 1.33 0.22 1.31 0.29 1.28 0.37 1.24 0.45 1.22 0.52 1.17 0.59 1.14 0.66 1.1 0.72 1.05 0.78 1 0.85 0.95 0.89 0.9 0.96 0.84 1 0.78 1.05 0.72 1.09 0.66 1.14 0.59 1.18 0.52 1.21 0.45 1.25 0.37 1.28 0.3 1.3 0.21 1.34 0.13 1.35 0.05 1.36-0.05 1.33-0.13 1.31-0.21 1.28-0.3 1.25-0.37 1.21-0.45 1.18-0.52 1.14-0.59 1.09-0.66 1.05-0.72 1-0.78 0.95-0.84 0.9-0.9 0.84-0.95 0.79-1 0.72-1.05 0.66-1.1 0.59-1.14 0.52-1.17 0.44-1.22 0.38-1.24 0.29-1.28 0.21-1.31 0.13-1.33 0.05-1.36-0.05-1.36-0.13-1.33-0.21-1.31-0.29-1.28-0.38-1.24-0.44-1.22-0.52-1.17-0.59-1.14-0.66-1.1-0.72-1.05-0.79-1-0.84-0.95-0.9-0.9-0.95-0.84-1-0.78-1.05-0.72-1.09-0.66-1.14-0.59-1.18-0.52-1.21-0.45-1.25-0.37-1.28-0.3-1.31-0.21-1.33-0.13-1.36-0.04-1.35 0.04-1.34 0.13z"/>
  <path id="cahjuy4oa" d="m230.45 490.33v100.2c0 5.19 4.21 9.39 9.39 9.39 5.19 0 9.4-4.2 9.4-9.39v-100.2c0-5.19-4.21-9.39-9.4-9.39-5.18 0-9.39 4.2-9.39 9.39z"/>
  <path id="b299AtCdZC" d="m170.33 490.33v100.2c0 5.19 4.21 9.39 9.4 9.39s9.39-4.2 9.39-9.39v-100.2c0-5.19-4.2-9.39-9.39-9.39s-9.4 4.2-9.4 9.39z"/>
  <path id="a54ppihZKd" d="m100.82 490.33v100.2c0 5.19 4.21 9.39 9.4 9.39 5.18 0 9.39-4.2 9.39-9.39v-100.2c0-5.19-4.21-9.39-9.39-9.39-5.19 0-9.4 4.2-9.4 9.39z"/>
  <path id="e27cBqGrHC" d="m40.7 490.33v100.2c0 5.19 4.21 9.39 9.4 9.39s9.39-4.2 9.39-9.39v-100.2c0-5.19-4.2-9.39-9.39-9.39s-9.4 4.2-9.4 9.39z"/>
 </defs>
 <use fill-opacity="0" stroke="#939393" stroke-width="3" xlink:href="#a1c3PW4HoT"/>
 <use fill="#939393" xlink:href="#c2hoWdua8"/>
 <use fill-opacity="0" stroke="#a434b7" stroke-width="2" xlink:href="#c1fl6Y5Swl"/>
 <use fill-opacity="0" stroke="#a434b7" stroke-width="2" xlink:href="#a6otZW7Uq"/>
 <use fill-opacity="0" stroke="#77c800" stroke-width="2" xlink:href="#a1XKTaFmBr"/>
 <use fill-opacity="0" stroke="#77c800" stroke-width="2" xlink:href="#h2LSxZjDN"/>
 <use fill-opacity="0" stroke="#77c800" stroke-width="2" xlink:href="#g3JjaIQSwA"/>
 <use fill="#939393" xlink:href="#a3sux91Kn"/>
 <use fill="#939393" xlink:href="#a3LNPUpVAT"/>
 <use fill="#939393" xlink:href="#cP4Ys1Ix8"/>
 <use fill="#939393" xlink:href="#d2VW75HUxh"/>
 <use fill-opacity="0" stroke="#939393" stroke-width="3" xlink:href="#f2IeYCSgIf"/>
 <use fill="#939393" xlink:href="#b21uGIGnFS"/>
 <use fill-opacity="0" stroke="#a434b7" stroke-width="2" xlink:href="#dAIsHOve5"/>
 <use fill-opacity="0" stroke="#a434b7" stroke-width="2" xlink:href="#h7l8GgL2R"/>
 <use fill-opacity="0" stroke="#77c800" stroke-width="2" xlink:href="#ed19q3pMh"/>
 <use fill="#939393" xlink:href="#cahjuy4oa"/>
 <use fill="#939393" xlink:href="#b299AtCdZC"/>
 <use fill="#939393" xlink:href="#a54ppihZKd"/>
 <use fill="#939393" xlink:href="#e27cBqGrHC"/>
</svg>
