<svg class="wordpress-animated-bg" xmlns="http://www.w3.org/2000/svg" xmlns:xlink="http://www.w3.org/1999/xlink" viewBox="0 0 640 640" width="300" height="300">
  <defs>
    <path d="M52.45 35.89v-.13c0-1.84-1.51-3.35-3.36-3.35h-7.8c-1.85 0-3.36 1.51-3.36 3.35v18.38c0 1.84 1.51 3.34 3.36 3.34h26.6c1.85 0 3.37-1.5 3.37-3.34v-14.9c0-1.84-1.52-3.35-3.37-3.35H52.45z" id="a"/>
    <path d="M99.29 35.89v-.13c0-1.84-1.51-3.35-3.36-3.35h-7.79c-1.85 0-3.37 1.51-3.37 3.35v18.38c0 1.84 1.52 3.34 3.37 3.34h26.59c1.85 0 3.37-1.5 3.37-3.34v-14.9c0-1.84-1.52-3.35-3.37-3.35H99.29z" id="b"/>
    <path d="M146.36 35.78v-.13c0-1.84-1.51-3.35-3.36-3.35h-7.79c-1.86 0-3.37 1.51-3.37 3.35v18.37c0 1.84 1.51 3.35 3.37 3.35h26.59c1.85 0 3.37-1.51 3.37-3.35V39.13c0-1.84-1.52-3.35-3.37-3.35h-15.44z" id="c"/>
    <path d="M9.35 131.79V91.93c0-1.23 1.01-2.24 2.25-2.24h59.86c1.24 0 2.25 1.01 2.25 2.24v39.86H9.35z" id="d"/>
    <path d="M.84 138c-.46 0-.84.38-.84.84v1.63c0 .45.38.83.84.83h81.8c.46 0 .84-.38.84-.83v-1.63c0-.46-.38-.84-.84-.84H.84z" id="e"/>
    <path d="M125.87 131.79V91.93c0-1.23 1.01-2.24 2.25-2.24h59.86c1.24 0 2.25 1.01 2.25 2.24v39.86h-64.36z" id="f"/>
    <path d="M117.36 138c-.46 0-.84.38-.84.84v1.63c0 .45.38.83.84.83h81.8c.46 0 .84-.38.84-.83v-1.63c0-.46-.38-.84-.84-.84h-81.8z" id="g"/>
    <path d="M161.42 102.36l1.22.51 1.11.69.99.84.85.98.69 1.11.51 1.21.33 1.3.11 1.37-.11 1.37-.33 1.31-.51 1.21-.69 1.1-.85.99-.99.84-1.11.69-1.22.51-1.31.32-1.37.11-1.38-.11-1.31-.32-1.22-.51-1.11-.69-.99-.84-.85-.99-.69-1.1-.51-1.21-.33-1.31-.11-1.37.11-1.37.33-1.3.51-1.21.69-1.11.85-.98.99-.84 1.11-.69 1.22-.51 1.31-.32 1.38-.11 1.37.11 1.31.32zm-4.36 15.63l.54.1.56.06.58.02.67-.03.66-.08.65-.14.62-.19-.02-.03-.01-.02-.02-.03-.01-.03-2.41-6.56-2.35 6.8.54.13zm-5.99-9.26l-.13.81-.04.83.32 2.23.91 1.97 1.39 1.63 1.8 1.19-3.74-10.19-.29.75-.22.78zm14.58-1.71l.01.2.01.22-.04.47-.11.62-.19.77-.26.93-2.39 6.88 1.59-1.21 1.23-1.58.79-1.87.28-2.08-.06-1-.19-.96-.3-.91-.41-.87.03.19.01.2zm-8.25-4.33l-.65.14-.62.19-.6.24-.57.28-.54.33-.52.37-.48.41-.45.45-.41.48-.37.51h.09l.04.01h.58l.23-.01h.23l.24-.01.23-.02.21-.01.2-.01.18-.01.15-.01.11-.01.08-.01h.02l.1.01.08.03.07.04.04.07.04.07.01.08v.07l-.02.08-.04.07-.06.06-.07.04-.1.02-.01.01h-.06l-.06.01h-.06l-.08.01-.09.01-.09.01-.11.01h-.11l-.11.01-.12.01 2.86 8.44 1.71-5.11-1.22-3.33-.1-.01-.11-.01h-.09l-.1-.01-.09-.01-.08-.01-.07-.01h-.06l-.05-.01h-.04l-.03-.01-.1-.01-.07-.04-.06-.06-.04-.07-.02-.07v-.08l.01-.08.04-.08.04-.06.07-.05.08-.03.1-.01h.03l.07.01.11.01.15.01.18.01.2.01.22.01.23.02.23.01h.22l.22.01H158.79l.22-.01h.24l.23-.01.23-.02.22-.01.2-.01.17-.01.15-.01.11-.01.08-.01h.02l.1.01.08.03.07.04.05.07.03.07.01.08v.07l-.02.08-.04.07-.06.06-.07.04-.1.02-.01.01h-.06l-.06.01h-.06l-.08.01-.09.01-.09.01-.11.01h-.1l-.12.01-.11.01 2.83 8.38.78-2.6.09-.25.09-.24.08-.24.07-.22.06-.22.06-.22.04-.2.04-.2.03-.2.02-.18.01-.18.01-.17-.01-.23-.02-.23-.03-.21-.05-.2-.05-.19-.06-.18-.06-.17-.07-.17-.07-.15-.08-.15-.08-.14-.07-.13-.1-.16-.1-.15-.09-.16-.09-.15-.08-.15-.07-.14-.07-.15-.06-.15-.05-.15-.03-.15-.02-.16-.01-.16.01-.18.03-.17.06-.17.07-.16.09-.14.11-.14.12-.12.14-.1.16-.09.16-.06.18-.04.19-.01H164.03l-.36-.3-.38-.29-.39-.26-.41-.24-.43-.22-.44-.19-.45-.16-.47-.13-.47-.11-.49-.08-.5-.05-.5-.01-.68.03-.66.08z" id="h"/>
    <path d="M44.78 103.87v-.02l.01-.02v-.06l.01-.02v-.02l.01-.02.01-.02.01-.02v-.02l.01-.02.01-.02.01-.01.01-.02.02-.02.01-.01.01-.02.02-.01.01-.02.01-.01.02-.02.01-.01.02-.01.02-.01.01-.01.02-.02h.02l.02-.01.02-.01.02-.01.02-.01h.02l.02-.01h.02l.02-.01h2.29l.02.01h.02l.03.01h.02l.01.01.02.01.02.01.02.01h.02l.02.02.01.01.02.01.02.01.01.01.02.02.01.01.02.02.01.01.01.02.02.01.01.02.01.02.01.01.01.02.01.02.01.02v.02l.01.02.01.02v.02l.01.02v.04l.01.02v5.59l2.12 2.38h-2.12v7.39h-4.73V113.94l-.01-.02v-.02l-.01-.02-.01-.03v-.02l-.01-.02-.01-.02-.01-.02-.01-.02-.01-.02-.01-.01-.01-.02-.02-.02-.01-.02-.01-.01-.02-.02-.01-.01-.02-.02-.01-.01-.02-.02-.02-.01-.02-.01-.01-.01-.02-.01-.02-.01-.02-.01-.02-.01-.02-.01h-.02l-.02-.01h-.02l-.03-.01h-.04l-.02-.01H40.48l-.02.01h-.05l-.02.01h-.02l-.02.01h-.02l-.02.01-.02.01-.02.01-.02.01-.02.01-.01.01-.02.01-.02.01-.02.02-.01.01-.02.02-.01.01-.02.02-.01.01-.02.02-.01.02-.01.02-.01.01-.01.02-.01.02-.01.02-.01.02-.01.02-.01.02v.03l-.01.02v.02l-.01.02v5.25h-4.73v-7.39h-2.12l8.49-9.51 3.18 3.56v-1.98z" id="i"/>
    <path d="M93.38 51.39V40.76h13.59v10.63H93.38zm1.7-1.33l2.55-2 1.7.67 2.55-2.66 3.39 3.54v-7.52H95.08v7.97zm3.1-6.48l.06.01.06.01h.05l.06.01.06.02.05.01.06.02.05.01.06.02.05.02.05.02.05.02.05.03.04.03.05.02.04.03.04.03.05.03.04.03.03.04.04.03.03.04.04.03.03.04.03.04.03.04.02.04.02.04.03.04.02.05.01.04.02.04.01.05.01.04.01.05.01.05v.19l-.01.05-.01.04-.01.05-.01.04-.02.05-.01.04-.02.04-.03.05-.02.04-.02.04-.03.04-.03.04-.03.03-.04.04-.03.04-.04.03-.03.03-.04.04-.05.03-.04.03-.04.02-.05.03-.04.03-.05.02-.05.02-.05.03-.05.02-.06.01-.05.02-.06.02-.05.01-.06.01-.06.01-.05.01-.06.01h-.12l-.06.01-.07-.01h-.12l-.06-.01-.05-.01-.06-.01-.06-.01-.05-.01-.06-.02-.05-.02-.06-.01-.05-.02-.05-.03-.05-.02-.05-.02-.04-.03-.05-.03-.04-.02-.04-.03-.05-.03-.04-.04-.03-.03-.04-.03-.03-.04-.04-.04-.03-.03-.03-.04-.03-.04-.02-.04-.02-.04-.03-.05-.02-.04-.01-.04-.02-.05-.01-.04-.01-.05-.01-.04-.01-.05v-.19l.01-.05.01-.05.01-.04.01-.05.02-.04.01-.04.02-.05.03-.04.02-.04.02-.04.03-.04.03-.04.03-.04.04-.03.03-.04.04-.03.03-.04.04-.03.05-.03.04-.03.04-.03.05-.02.04-.03.05-.03.05-.02.05-.02.05-.02.06-.02.05-.01.06-.02.05-.01.06-.02.06-.01h.05l.06-.01.06-.01h.25z" id="j"/>
    <path d="M54.46 41.76h-4.32v8.72h7.51v-6.37h1.13v7.37h-9.76V40.76h5.44v1zm.75 1.77v-2.77l3.57 2.77h-3.57z" id="k"/>
    <path d="M153.22 40.76c.95 0 1.73.77 1.73 1.72 0 .35 0-.34 0 0 0 .96-.78 1.73-1.73 1.73h-7.14c-.96 0-1.73-.77-1.73-1.73 0-.34 0 .35 0 0 0-.95.77-1.72 1.73-1.72h7.14z" id="l"/>
    <path d="M153.22 44.07c.95 0 1.73.77 1.73 1.72 0 .35 0-.34 0 0 0 .96-.78 1.73-1.73 1.73h-7.14c-.96 0-1.73-.77-1.73-1.73 0-.34 0 .35 0 0 0-.95.77-1.72 1.73-1.72h7.14z" id="m"/>
    <path d="M153.22 47.66c.95 0 1.73.77 1.73 1.72 0 .35 0-.34 0 0 0 .96-.78 1.73-1.73 1.73h-7.14c-.96 0-1.73-.77-1.73-1.73 0-.34 0 .35 0 0 0-.95.77-1.72 1.73-1.72h7.14z" id="n"/>
    <path d="M126.15 112.5H75" id="o"/>
  </defs>
  <use xlink:href="#a" fill-opacity="0" stroke="#4285f4" stroke-width="2"/>
  <use xlink:href="#b" fill-opacity="0"/>
  <use xlink:href="#b" fill-opacity="0" stroke="#a434b7" stroke-width="2"/>
  <use xlink:href="#c" fill-opacity="0" stroke="#77c800" stroke-width="2"/>
  <use xlink:href="#d" fill-opacity="0" stroke="#a434b7" stroke-width="2"/>
  <use xlink:href="#e" fill="#a434b7"/>
  <use xlink:href="#e" fill-opacity="0" stroke="#a334b7" stroke-opacity="0"/>
  <use xlink:href="#f" fill-opacity="0" stroke="#a434b7" stroke-width="2"/>
  <use xlink:href="#g" fill="#a434b7"/>
  <use xlink:href="#g" fill-opacity="0" stroke="#a334b7" stroke-opacity="0"/>
  <use xlink:href="#h" fill="#a434b7"/>
  <use xlink:href="#i" fill="#a434b7"/>
  <use xlink:href="#j" fill="#a434b7"/>
  <use xlink:href="#k" fill="#4285f4"/>
  <use xlink:href="#l" fill-opacity="0" stroke="#77c800" stroke-width="2"/>
  <g>
    <use xlink:href="#m" fill-opacity="0" stroke="#77c800" stroke-width="2"/>
  </g>
  <g>
    <use xlink:href="#n" fill-opacity="0" stroke="#77c800" stroke-width="2"/>
  </g>
  <g>
    <use xlink:href="#o" fill-opacity="0" stroke="#a434b7" stroke-width="2" class="purple-line" />
  </g>
</svg>
