<?xml version="1.0" encoding="UTF-8" standalone="no"?>
<!DOCTYPE svg PUBLIC "-//W3C//DTD SVG 1.1//EN" "http://www.w3.org/Graphics/SVG/1.1/DTD/svg11.dtd">
<svg preserveAspectRatio="xMidYMid meet" viewBox="0 0 200 200" width="200" height="200"><defs><path d="M45.45 27.89C45.45 27.81 45.45 27.77 45.45 27.76C45.45 25.92 43.94 24.41 42.09 24.41C41.31 24.41 35.07 24.41 34.29 24.41C32.44 24.41 30.93 25.92 30.93 27.76C30.93 27.99 30.93 29.15 30.93 31.24L30.93 38.83C30.93 43.21 30.93 45.65 30.93 46.14C30.93 47.98 32.44 49.48 34.29 49.48C36.95 49.48 58.23 49.48 60.89 49.48C62.74 49.48 64.26 47.98 64.26 46.14C64.26 44.65 64.26 32.73 64.26 31.24C64.26 29.4 62.74 27.89 60.89 27.89C58.83 27.89 53.69 27.89 45.45 27.89Z" id="b7n6ICDteE"></path><path d="M92.29 27.89C92.29 27.81 92.29 27.77 92.29 27.76C92.29 25.92 90.78 24.41 88.93 24.41C88.15 24.41 81.91 24.41 81.14 24.41C79.29 24.41 77.77 25.92 77.77 27.76C77.77 27.99 77.77 29.15 77.77 31.24L77.77 38.83C77.77 43.21 77.77 45.65 77.77 46.14C77.77 47.98 79.29 49.48 81.14 49.48C83.8 49.48 105.07 49.48 107.73 49.48C109.58 49.48 111.1 47.98 111.1 46.14C111.1 44.65 111.1 32.73 111.1 31.24C111.1 29.4 109.58 27.89 107.73 27.89C105.68 27.89 100.53 27.89 92.29 27.89Z" id="k50ni86SIE"></path><path d="M139.36 27.78C139.36 27.7 139.36 27.66 139.36 27.65C139.36 25.81 137.85 24.3 136 24.3C135.22 24.3 128.98 24.3 128.21 24.3C126.35 24.3 124.84 25.81 124.84 27.65C124.84 27.88 124.84 29.04 124.84 31.13L124.84 38.72C124.84 43.1 124.84 45.54 124.84 46.02C124.84 47.86 126.35 49.37 128.21 49.37C130.87 49.37 152.14 49.37 154.8 49.37C156.65 49.37 158.17 47.86 158.17 46.02C158.17 44.53 158.17 32.62 158.17 31.13C158.17 29.29 156.65 27.78 154.8 27.78C152.74 27.78 147.6 27.78 139.36 27.78Z" id="k1oScKCyPq"></path><path d="M9.35 131.79C9.35 107.87 9.35 94.58 9.35 91.93C9.35 90.7 10.36 89.69 11.6 89.69C17.58 89.69 65.47 89.69 71.46 89.69C72.7 89.69 73.71 90.7 73.71 91.93C73.71 94.58 73.71 107.87 73.71 131.79L9.35 131.79Z" id="h7SCWcbfD"></path><path d="M0.84 138C0.38 138 0 138.38 0 138.84C0 139 0 140.3 0 140.47C0 140.92 0.38 141.3 0.84 141.3C9.02 141.3 74.46 141.3 82.64 141.3C83.1 141.3 83.48 140.92 83.48 140.47C83.48 140.3 83.48 139 83.48 138.84C83.48 138.38 83.1 138 82.64 138C66.28 138 9.02 138 0.84 138Z" id="d71ebFIRKX"></path><path d="M125.87 131.79C125.87 107.87 125.87 94.58 125.87 91.93C125.87 90.7 126.88 89.69 128.12 89.69C134.11 89.69 182 89.69 187.98 89.69C189.22 89.69 190.23 90.7 190.23 91.93C190.23 94.58 190.23 107.87 190.23 131.79L125.87 131.79Z" id="aflYMXM6h"></path><path d="M117.36 138C116.9 138 116.52 138.38 116.52 138.84C116.52 139 116.52 140.3 116.52 140.47C116.52 140.92 116.9 141.3 117.36 141.3C125.54 141.3 190.98 141.3 199.16 141.3C199.62 141.3 200 140.92 200 140.47C200 140.3 200 139 200 138.84C200 138.38 199.62 138 199.16 138C182.8 138 125.54 138 117.36 138Z" id="i22nOBYKr"></path><path d="M142.65 80.33C123.94 54.97 69.44 40.83 42.11 78.4" id="bSwrWQ3nb"></path><path d="M42.01 73.48C39.09 73.26 36.54 75.43 36.32 78.33C36.09 81.23 38.28 83.77 41.19 83.99C44.11 84.21 46.66 82.04 46.88 79.14C47.11 76.24 44.92 73.7 42.01 73.48Z" id="c9eTLIctfI"></path><path d="M161.42 102.36L162.64 102.87L163.75 103.56L164.74 104.4L165.59 105.38L166.28 106.49L166.79 107.7L167.12 109L167.23 110.37L167.12 111.74L166.79 113.05L166.28 114.26L165.59 115.36L164.74 116.35L163.75 117.19L162.64 117.88L161.42 118.39L160.11 118.71L158.74 118.82L157.36 118.71L156.05 118.39L154.83 117.88L153.72 117.19L152.73 116.35L151.88 115.36L151.19 114.26L150.68 113.05L150.35 111.74L150.24 110.37L150.35 109L150.68 107.7L151.19 106.49L151.88 105.38L152.73 104.4L153.72 103.56L154.83 102.87L156.05 102.36L157.36 102.04L158.74 101.93L160.11 102.04L161.42 102.36ZM157.06 117.99L157.6 118.09L158.16 118.15L158.74 118.17L159.41 118.14L160.07 118.06L160.72 117.92L161.34 117.73L161.32 117.7L161.31 117.68L161.29 117.65L161.28 117.62L158.87 111.06L156.52 117.86L157.06 117.99ZM151.07 108.73L150.94 109.54L150.9 110.37L151.22 112.6L152.13 114.57L153.52 116.2L155.32 117.39L151.58 107.2L151.29 107.95L151.07 108.73ZM165.65 107.02L165.66 107.22L165.67 107.44L165.63 107.91L165.52 108.53L165.33 109.3L165.07 110.23L162.68 117.11L164.27 115.9L165.5 114.32L166.29 112.45L166.57 110.37L166.51 109.37L166.32 108.41L166.02 107.5L165.61 106.63L165.64 106.82L165.65 107.02ZM157.4 102.69L156.75 102.83L156.13 103.02L155.53 103.26L154.96 103.54L154.42 103.87L153.9 104.24L153.42 104.65L152.97 105.1L152.56 105.58L152.19 106.09L152.23 106.09L152.28 106.09L152.32 106.1L152.37 106.1L152.41 106.1L152.45 106.1L152.5 106.1L152.54 106.1L152.58 106.1L152.62 106.1L152.65 106.1L152.69 106.1L152.9 106.1L153.13 106.09L153.36 106.09L153.6 106.08L153.83 106.06L154.04 106.05L154.24 106.04L154.42 106.03L154.57 106.02L154.68 106.01L154.76 106L154.78 106L154.88 106.01L154.96 106.04L155.03 106.08L155.07 106.15L155.11 106.22L155.12 106.3L155.12 106.37L155.1 106.45L155.06 106.52L155 106.58L154.93 106.62L154.83 106.64L154.82 106.65L154.8 106.65L154.76 106.65L154.7 106.66L154.64 106.66L154.56 106.67L154.47 106.68L154.38 106.69L154.27 106.7L154.16 106.7L154.05 106.71L153.93 106.72L156.79 115.16L158.5 110.05L157.28 106.72L157.18 106.71L157.07 106.7L156.98 106.7L156.88 106.69L156.79 106.68L156.71 106.67L156.64 106.66L156.58 106.66L156.53 106.65L156.49 106.65L156.46 106.64L156.36 106.63L156.29 106.59L156.23 106.53L156.19 106.46L156.17 106.39L156.17 106.31L156.18 106.23L156.22 106.15L156.26 106.09L156.33 106.04L156.41 106.01L156.51 106L156.54 106L156.61 106.01L156.72 106.02L156.87 106.03L157.05 106.04L157.25 106.05L157.47 106.06L157.7 106.08L157.93 106.09L158.15 106.09L158.37 106.1L158.57 106.1L158.79 106.1L159.01 106.09L159.25 106.09L159.48 106.08L159.71 106.06L159.93 106.05L160.13 106.04L160.3 106.03L160.45 106.02L160.56 106.01L160.64 106L160.66 106L160.76 106.01L160.84 106.04L160.91 106.08L160.96 106.15L160.99 106.22L161 106.3L161 106.37L160.98 106.45L160.94 106.52L160.88 106.58L160.81 106.62L160.71 106.64L160.7 106.65L160.68 106.65L160.64 106.65L160.58 106.66L160.52 106.66L160.44 106.67L160.35 106.68L160.26 106.69L160.15 106.7L160.05 106.7L159.93 106.71L159.82 106.72L162.65 115.1L163.43 112.5L163.52 112.25L163.61 112.01L163.69 111.77L163.76 111.55L163.82 111.33L163.88 111.11L163.92 110.91L163.96 110.71L163.99 110.51L164.01 110.33L164.02 110.15L164.03 109.98L164.02 109.75L164 109.52L163.97 109.31L163.92 109.11L163.87 108.92L163.81 108.74L163.75 108.57L163.68 108.4L163.61 108.25L163.53 108.1L163.45 107.96L163.38 107.83L163.28 107.67L163.18 107.52L163.09 107.36L163 107.21L162.92 107.06L162.85 106.92L162.78 106.77L162.72 106.62L162.67 106.47L162.64 106.32L162.62 106.16L162.61 106L162.62 105.82L162.65 105.65L162.71 105.48L162.78 105.32L162.87 105.18L162.98 105.04L163.1 104.92L163.24 104.82L163.4 104.73L163.56 104.67L163.74 104.63L163.93 104.62L163.94 104.62L163.94 104.62L163.95 104.62L163.96 104.62L163.97 104.62L163.99 104.62L164.02 104.62L164.03 104.62L163.67 104.32L163.29 104.03L162.9 103.77L162.49 103.53L162.06 103.31L161.62 103.12L161.17 102.96L160.7 102.83L160.23 102.72L159.74 102.64L159.24 102.59L158.74 102.58L158.06 102.61L157.4 102.69Z" id="a6w3swPyB"></path><path d="M145.67 71.06L142.75 80.99L130.88 77.53" id="g11YjMMuwj"></path><path d="M44.78 103.87L44.78 103.85L44.79 103.83L44.79 103.81L44.79 103.79L44.79 103.77L44.8 103.75L44.8 103.73L44.81 103.71L44.82 103.69L44.83 103.67L44.83 103.65L44.84 103.63L44.85 103.61L44.86 103.6L44.87 103.58L44.89 103.56L44.9 103.55L44.91 103.53L44.93 103.52L44.94 103.5L44.95 103.49L44.97 103.47L44.98 103.46L45 103.45L45.02 103.44L45.03 103.43L45.05 103.41L45.07 103.41L45.09 103.4L45.11 103.39L45.13 103.38L45.15 103.37L45.17 103.37L45.19 103.36L45.21 103.36L45.23 103.35L45.25 103.35L45.27 103.35L45.29 103.35L45.31 103.35L47.44 103.35L47.46 103.35L47.48 103.35L47.5 103.35L47.52 103.35L47.54 103.36L47.56 103.36L47.59 103.37L47.61 103.37L47.62 103.38L47.64 103.39L47.66 103.4L47.68 103.41L47.7 103.41L47.72 103.43L47.73 103.44L47.75 103.45L47.77 103.46L47.78 103.47L47.8 103.49L47.81 103.5L47.83 103.52L47.84 103.53L47.85 103.55L47.87 103.56L47.88 103.58L47.89 103.6L47.9 103.61L47.91 103.63L47.92 103.65L47.93 103.67L47.93 103.69L47.94 103.71L47.95 103.73L47.95 103.75L47.96 103.77L47.96 103.79L47.96 103.81L47.97 103.83L47.97 103.85L47.97 103.87L47.97 109.42L50.09 111.8L47.97 111.8L47.97 119.19L43.24 119.19L43.24 119.19L43.24 119.16L43.24 114.03L43.24 114.01L43.24 113.99L43.24 113.96L43.24 113.94L43.23 113.92L43.23 113.9L43.22 113.88L43.21 113.85L43.21 113.83L43.2 113.81L43.19 113.79L43.18 113.77L43.17 113.75L43.16 113.73L43.15 113.72L43.14 113.7L43.12 113.68L43.11 113.66L43.1 113.65L43.08 113.63L43.07 113.62L43.05 113.6L43.04 113.59L43.02 113.57L43 113.56L42.98 113.55L42.97 113.54L42.95 113.53L42.93 113.52L42.91 113.51L42.89 113.5L42.87 113.49L42.85 113.49L42.83 113.48L42.81 113.48L42.78 113.47L42.76 113.47L42.74 113.47L42.72 113.46L42.69 113.46L40.5 113.46L40.48 113.46L40.46 113.47L40.44 113.47L40.41 113.47L40.39 113.48L40.37 113.48L40.35 113.49L40.33 113.49L40.31 113.5L40.29 113.51L40.27 113.52L40.25 113.53L40.23 113.54L40.22 113.55L40.2 113.56L40.18 113.57L40.16 113.59L40.15 113.6L40.13 113.62L40.12 113.63L40.1 113.65L40.09 113.66L40.07 113.68L40.06 113.7L40.05 113.72L40.04 113.73L40.03 113.75L40.02 113.77L40.01 113.79L40 113.81L39.99 113.83L39.98 113.85L39.98 113.88L39.97 113.9L39.97 113.92L39.96 113.94L39.96 113.96L39.96 113.99L39.96 114.01L39.96 114.03L39.96 119.16L39.96 119.19L39.96 119.19L35.23 119.19L35.23 111.8L33.11 111.8L41.6 102.29L44.78 105.85L44.78 103.87Z" id="b2xCcqQLNv"></path><path d="M86.38 43.39L86.38 32.76L99.97 32.76L99.97 43.39L86.38 43.39ZM88.08 42.06L90.63 40.06L92.33 40.73L94.88 38.07L98.27 41.61L98.27 34.09L88.08 34.09L88.08 42.06ZM91.18 35.58L91.24 35.59L91.3 35.6L91.35 35.6L91.41 35.61L91.47 35.63L91.52 35.64L91.58 35.66L91.63 35.67L91.69 35.69L91.74 35.71L91.79 35.73L91.84 35.75L91.89 35.78L91.93 35.81L91.98 35.83L92.02 35.86L92.06 35.89L92.11 35.92L92.15 35.95L92.18 35.99L92.22 36.02L92.25 36.06L92.29 36.09L92.32 36.13L92.35 36.17L92.38 36.21L92.4 36.25L92.42 36.29L92.45 36.33L92.47 36.38L92.48 36.42L92.5 36.46L92.51 36.51L92.52 36.55L92.53 36.6L92.54 36.65L92.54 36.7L92.54 36.74L92.54 36.79L92.54 36.84L92.53 36.89L92.52 36.93L92.51 36.98L92.5 37.02L92.48 37.07L92.47 37.11L92.45 37.15L92.42 37.2L92.4 37.24L92.38 37.28L92.35 37.32L92.32 37.36L92.29 37.39L92.25 37.43L92.22 37.47L92.18 37.5L92.15 37.53L92.11 37.57L92.06 37.6L92.02 37.63L91.98 37.65L91.93 37.68L91.89 37.71L91.84 37.73L91.79 37.75L91.74 37.78L91.69 37.8L91.63 37.81L91.58 37.83L91.52 37.85L91.47 37.86L91.41 37.87L91.35 37.88L91.3 37.89L91.24 37.9L91.18 37.9L91.12 37.9L91.06 37.91L90.99 37.9L90.93 37.9L90.87 37.9L90.81 37.89L90.76 37.88L90.7 37.87L90.64 37.86L90.59 37.85L90.53 37.83L90.48 37.81L90.42 37.8L90.37 37.78L90.32 37.75L90.27 37.73L90.22 37.71L90.18 37.68L90.13 37.65L90.09 37.63L90.05 37.6L90 37.57L89.96 37.53L89.93 37.5L89.89 37.47L89.86 37.43L89.82 37.39L89.79 37.36L89.76 37.32L89.73 37.28L89.71 37.24L89.69 37.2L89.66 37.15L89.64 37.11L89.63 37.07L89.61 37.02L89.6 36.98L89.59 36.93L89.58 36.89L89.57 36.84L89.57 36.79L89.57 36.74L89.57 36.7L89.57 36.65L89.58 36.6L89.59 36.55L89.6 36.51L89.61 36.46L89.63 36.42L89.64 36.38L89.66 36.33L89.69 36.29L89.71 36.25L89.73 36.21L89.76 36.17L89.79 36.13L89.82 36.09L89.86 36.06L89.89 36.02L89.93 35.99L89.96 35.95L90 35.92L90.05 35.89L90.09 35.86L90.13 35.83L90.18 35.81L90.22 35.78L90.27 35.75L90.32 35.73L90.37 35.71L90.42 35.69L90.48 35.67L90.53 35.66L90.59 35.64L90.64 35.63L90.7 35.61L90.76 35.6L90.81 35.6L90.87 35.59L90.93 35.58L90.99 35.58L91.06 35.58L91.12 35.58L91.18 35.58Z" id="g1f5O0D1sE"></path><path d="M47.46 33.76L43.14 33.76L43.14 42.48L50.65 42.48L50.65 36.11L51.78 36.11L51.78 43.48L42.02 43.48L42.02 32.76L47.46 32.76L47.46 33.76ZM48.21 35.53L48.21 32.76L51.78 35.53L48.21 35.53Z" id="d1sRTbcRVS"></path><path d="M146.22 32.76C147.17 32.76 147.95 33.53 147.95 34.48C147.95 34.83 147.95 34.14 147.95 34.48C147.95 35.44 147.17 36.21 146.22 36.21C144.45 36.21 140.85 36.21 139.08 36.21C138.12 36.21 137.35 35.44 137.35 34.48C137.35 34.14 137.35 34.83 137.35 34.48C137.35 33.53 138.12 32.76 139.08 32.76C140.85 32.76 144.45 32.76 146.22 32.76Z" id="b1Gv0xgInI"></path><path d="M146.22 36.07C147.17 36.07 147.95 36.84 147.95 37.79C147.95 38.14 147.95 37.45 147.95 37.79C147.95 38.75 147.17 39.52 146.22 39.52C144.45 39.52 140.85 39.52 139.08 39.52C138.12 39.52 137.35 38.75 137.35 37.79C137.35 37.45 137.35 38.14 137.35 37.79C137.35 36.84 138.12 36.07 139.08 36.07C140.85 36.07 144.45 36.07 146.22 36.07Z" id="a3PY56zkDT"></path><path d="M146.22 39.66C147.17 39.66 147.95 40.43 147.95 41.38C147.95 41.73 147.95 41.04 147.95 41.38C147.95 42.34 147.17 43.11 146.22 43.11C144.45 43.11 140.85 43.11 139.08 43.11C138.12 43.11 137.35 42.34 137.35 41.38C137.35 41.04 137.35 41.73 137.35 41.38C137.35 40.43 138.12 39.66 139.08 39.66C140.85 39.66 144.45 39.66 146.22 39.66Z" id="a4HFMeXXY"></path></defs><g><g><g><g><use xlink:href="#b7n6ICDteE" opacity="1" fill-opacity="0" stroke="#4285f4" stroke-width="2" stroke-opacity="1"></use></g></g><g><use xlink:href="#k50ni86SIE" opacity="1" fill="#000000" fill-opacity="0"></use><g><use xlink:href="#k50ni86SIE" opacity="1" fill-opacity="0" stroke="#a434b7" stroke-width="2" stroke-opacity="1"></use></g></g><g><g><use xlink:href="#k1oScKCyPq" opacity="1" fill-opacity="0" stroke="#77c800" stroke-width="2" stroke-opacity="1"></use></g></g><g><g><use xlink:href="#h7SCWcbfD" opacity="1" fill-opacity="0" stroke="#a434b7" stroke-width="2" stroke-opacity="1"></use></g></g><g><use xlink:href="#d71ebFIRKX" opacity="1" fill="#a434b7" fill-opacity="1"></use><g><use xlink:href="#d71ebFIRKX" opacity="1" fill-opacity="0" stroke="#a434b7" stroke-width="1" stroke-opacity="0"></use></g></g><g><g><use xlink:href="#aflYMXM6h" opacity="1" fill-opacity="0" stroke="#a434b7" stroke-width="2" stroke-opacity="1"></use></g></g><g><use xlink:href="#i22nOBYKr" opacity="1" fill="#a434b7" fill-opacity="1"></use><g><use xlink:href="#i22nOBYKr" opacity="1" fill-opacity="0" stroke="#a434b7" stroke-width="1" stroke-opacity="0"></use></g></g><g><use xlink:href="#bSwrWQ3nb" opacity="1" fill="#000000" fill-opacity="0"></use><g><use xlink:href="#bSwrWQ3nb" opacity="1" fill-opacity="0" stroke="#a434b7" stroke-width="3" stroke-opacity="1"></use></g></g><g><use xlink:href="#c9eTLIctfI" opacity="1" fill="#a434b7" fill-opacity="1"></use><g><use xlink:href="#c9eTLIctfI" opacity="1" fill-opacity="0" stroke="#000000" stroke-width="1" stroke-opacity="0"></use></g></g><g><use xlink:href="#a6w3swPyB" opacity="1" fill="#a434b7" fill-opacity="1"></use></g><g><g><use xlink:href="#g11YjMMuwj" opacity="1" fill-opacity="0" stroke="#a434b7" stroke-width="3" stroke-opacity="1"></use></g></g><g><use xlink:href="#b2xCcqQLNv" opacity="1" fill="#a434b7" fill-opacity="1"></use></g><g><use xlink:href="#g1f5O0D1sE" opacity="1" fill="#a434b7" fill-opacity="1"></use></g><g><use xlink:href="#d1sRTbcRVS" opacity="1" fill="#4285f4" fill-opacity="1"></use></g><g><g><use xlink:href="#b1Gv0xgInI" opacity="1" fill-opacity="0" stroke="#77c800" stroke-width="2" stroke-opacity="1"></use></g></g><g><g><use xlink:href="#a3PY56zkDT" opacity="1" fill-opacity="0" stroke="#77c800" stroke-width="2" stroke-opacity="1"></use></g></g><g><g><use xlink:href="#a4HFMeXXY" opacity="1" fill-opacity="0" stroke="#77c800" stroke-width="2" stroke-opacity="1"></use></g></g></g></g></svg>