<?xml version="1.0" encoding="UTF-8" standalone="no"?>
<!DOCTYPE svg PUBLIC "-//W3C//DTD SVG 1.1//EN" "http://www.w3.org/Graphics/SVG/1.1/DTD/svg11.dtd">
<svg version="1.1" xmlns="http://www.w3.org/2000/svg" xmlns:xlink="http://www.w3.org/1999/xlink" preserveAspectRatio="xMidYMid meet" viewBox="0 0 640 640" width="640" height="640"><defs><path d="M294.91 458.2L16.44 433.99L16.44 31.2L375.73 31.2L375.73 202.84L445.78 377.94L375.73 433.99L332.07 458.2" id="fjPbamIZ0"></path><path d="M407.88 433.98C407.88 433.98 407.88 433.98 407.88 433.98C407.88 496.6 407.88 531.39 407.88 538.34C407.88 538.34 407.88 538.34 407.88 538.34C173.02 538.34 42.54 538.34 16.44 538.34C16.44 538.34 16.44 538.34 16.44 538.34C16.44 475.73 16.44 440.94 16.44 433.98C16.44 433.98 16.44 433.98 16.44 433.98C251.3 433.98 381.78 433.98 407.88 433.98Z" id="c7g3Tta89R"></path><path d="M423.72 538.34L375.73 538.34C375.73 337.04 375.73 225.2 375.73 202.83C375.73 189.7 386.37 179.06 399.5 179.06C409.64 179.06 490.75 179.06 500.89 179.06C568.65 179.06 623.56 233.97 623.56 301.71C623.56 317.48 623.56 396.36 623.56 538.34L564.62 538.34" id="a1HAxxi7Ay"></path><path d="M139.73 467.92C100.82 467.92 69.28 499.46 69.28 538.36C69.28 577.26 100.82 608.8 139.73 608.8C178.63 608.8 210.17 577.26 210.17 538.36C210.17 499.46 178.63 467.92 139.73 467.92Z" id="b2w1Z05E6F"></path><path d="M494.17 467.92C455.26 467.92 423.73 499.46 423.73 538.36C423.73 577.26 455.26 608.8 494.17 608.8C533.07 608.8 564.61 577.26 564.61 538.36C564.61 499.46 533.07 467.92 494.17 467.92Z" id="b7eBZUrlj"></path><path d="M570.73 301.72C570.73 263.22 539.4 231.91 500.89 231.91C496.07 231.9 471.96 231.9 428.56 231.91L428.56 356.07L570.73 356.07C570.73 323.46 570.73 305.34 570.73 301.72Z" id="d2ouIx8fv5"></path><path d="M139.73 510.23C124.19 510.23 111.6 522.82 111.6 538.36C111.6 553.9 124.19 566.49 139.73 566.49C155.26 566.49 167.86 553.9 167.86 538.36C167.86 522.82 155.26 510.23 139.73 510.23Z" id="d1gaHKAd4s"></path><path d="M494.17 510.23C478.63 510.23 466.04 522.82 466.04 538.36C466.04 553.9 478.63 566.49 494.17 566.49C509.7 566.49 522.3 553.9 522.3 538.36C522.3 522.82 509.7 510.23 494.17 510.23Z" id="b6vxFSKM1Q"></path><path d="M142.7 502.17L144.16 502.32L145.6 502.53L147.03 502.79L148.44 503.11L149.82 503.48L151.19 503.9L152.53 504.38L153.84 504.91L155.13 505.48L156.39 506.11L157.63 506.78L158.83 507.5L160.01 508.26L161.15 509.06L162.26 509.91L163.34 510.8L164.38 511.73L165.38 512.7L166.35 513.7L167.28 514.74L168.17 515.82L169.01 516.93L169.82 518.07L170.58 519.25L171.3 520.45L171.97 521.69L172.59 522.95L173.17 524.24L173.7 525.55L174.17 526.89L174.6 528.26L174.97 529.64L175.29 531.05L175.55 532.47L175.76 533.92L175.91 535.38L176 536.86L176.03 538.36L176 539.85L175.91 541.33L175.76 542.79L175.55 544.24L175.29 545.66L174.97 547.07L174.6 548.45L174.17 549.82L173.7 551.16L173.17 552.47L172.59 553.76L171.97 555.02L171.3 556.26L170.58 557.46L169.82 558.64L169.01 559.78L168.17 560.89L167.28 561.97L166.35 563.01L165.38 564.01L164.38 564.98L163.34 565.91L162.26 566.8L161.15 567.65L160.01 568.45L158.83 569.21L157.63 569.93L156.39 570.6L155.13 571.23L153.84 571.8L152.53 572.33L151.19 572.81L149.82 573.23L148.44 573.6L147.03 573.92L145.6 574.18L144.16 574.39L142.7 574.54L141.22 574.63L139.72 574.66L138.23 574.63L136.75 574.54L135.29 574.39L133.84 574.18L132.41 573.92L131.01 573.6L129.62 573.23L128.26 572.81L126.92 572.33L125.6 571.8L124.31 571.23L123.05 570.6L121.82 569.93L120.61 569.21L119.44 568.45L118.3 567.65L117.18 566.8L116.11 565.91L115.07 564.98L114.06 564.01L113.1 563.01L112.17 561.97L111.28 560.89L110.43 559.78L109.63 558.64L108.86 557.46L108.15 556.26L107.48 555.02L106.85 553.76L106.28 552.47L105.75 551.16L105.27 549.82L104.85 548.45L104.47 547.07L104.16 545.66L103.89 544.24L103.69 542.79L103.54 541.33L103.45 539.85L103.42 538.36L103.45 536.86L103.54 535.38L103.69 533.92L103.89 532.47L104.16 531.05L104.47 529.64L104.85 528.26L105.27 526.89L105.75 525.55L106.27 524.24L106.85 522.95L107.48 521.69L108.15 520.45L108.86 519.25L109.63 518.07L110.43 516.93L111.28 515.82L112.17 514.74L113.1 513.7L114.06 512.7L115.07 511.73L116.11 510.8L117.18 509.91L118.29 509.06L119.44 508.26L120.61 507.5L121.82 506.78L123.05 506.11L124.31 505.48L125.6 504.91L126.92 504.38L128.26 503.9L129.62 503.48L131.01 503.11L132.41 502.79L133.84 502.53L135.29 502.32L136.75 502.17L138.23 502.08L139.72 502.05L141.22 502.08L142.7 502.17ZM137.12 518.57L135.86 518.77L134.63 519.06L133.42 519.42L132.25 519.85L131.11 520.35L130.02 520.92L128.96 521.56L127.95 522.26L126.98 523.01L126.06 523.82L125.19 524.69L124.38 525.61L123.62 526.58L122.93 527.59L122.29 528.65L121.72 529.75L121.22 530.88L120.79 532.05L120.43 533.26L120.14 534.49L119.94 535.76L119.81 537.04L119.77 538.35L119.81 539.66L119.94 540.95L120.14 542.21L120.43 543.45L120.79 544.65L121.22 545.83L121.72 546.96L122.29 548.06L122.93 549.12L123.62 550.13L124.38 551.1L125.19 552.02L126.06 552.88L126.98 553.7L127.95 554.45L128.96 555.15L130.02 555.78L131.11 556.35L132.25 556.86L133.42 557.29L134.63 557.65L135.86 557.93L137.12 558.14L138.41 558.26L139.72 558.31L141.03 558.26L142.32 558.14L143.58 557.93L144.82 557.65L146.02 557.29L147.19 556.86L148.33 556.35L149.43 555.78L150.49 555.15L151.5 554.45L152.47 553.7L153.39 552.88L154.25 552.02L155.07 551.1L155.82 550.13L156.52 549.12L157.15 548.06L157.72 546.96L158.23 545.83L158.66 544.65L159.02 543.45L159.3 542.21L159.51 540.95L159.63 539.66L159.68 538.35L159.63 537.04L159.51 535.76L159.3 534.49L159.02 533.26L158.66 532.05L158.22 530.88L157.72 529.75L157.15 528.65L156.52 527.59L155.82 526.58L155.07 525.61L154.25 524.69L153.39 523.82L152.47 523.01L151.5 522.26L150.49 521.56L149.43 520.92L148.33 520.35L147.19 519.85L146.02 519.42L144.82 519.06L143.58 518.77L142.32 518.57L141.03 518.44L139.72 518.4L138.41 518.44L137.12 518.57Z" id="df1Ep9fhK"></path><path d="M497.14 502.17L498.6 502.32L500.05 502.53L501.47 502.79L502.88 503.11L504.26 503.48L505.63 503.9L506.97 504.38L508.28 504.91L509.57 505.48L510.83 506.11L512.07 506.78L513.27 507.5L514.45 508.26L515.59 509.06L516.7 509.91L517.78 510.8L518.82 511.73L519.82 512.7L520.79 513.7L521.72 514.74L522.61 515.82L523.46 516.93L524.26 518.07L525.02 519.25L525.74 520.45L526.41 521.69L527.04 522.95L527.61 524.24L528.14 525.55L528.61 526.89L529.04 528.26L529.41 529.64L529.73 531.05L529.99 532.47L530.2 533.92L530.35 535.38L530.44 536.86L530.47 538.36L530.44 539.85L530.35 541.33L530.2 542.79L529.99 544.24L529.73 545.66L529.41 547.07L529.04 548.45L528.61 549.82L528.14 551.16L527.61 552.47L527.04 553.76L526.41 555.02L525.74 556.26L525.02 557.46L524.26 558.64L523.46 559.78L522.61 560.89L521.72 561.97L520.79 563.01L519.82 564.01L518.82 564.98L517.78 565.91L516.7 566.8L515.59 567.65L514.45 568.45L513.27 569.21L512.07 569.93L510.83 570.6L509.57 571.23L508.28 571.8L506.97 572.33L505.63 572.81L504.26 573.23L502.88 573.6L501.47 573.92L500.05 574.18L498.6 574.39L497.14 574.54L495.66 574.63L494.16 574.66L492.67 574.63L491.19 574.54L489.73 574.39L488.28 574.18L486.86 573.92L485.45 573.6L484.06 573.23L482.7 572.81L481.36 572.33L480.05 571.8L478.76 571.23L477.49 570.6L476.26 569.93L475.05 569.21L473.88 568.45L472.74 567.65L471.63 566.8L470.55 565.91L469.51 564.98L468.5 564.01L467.54 563.01L466.61 561.97L465.72 560.89L464.87 559.78L464.07 558.64L463.3 557.46L462.59 556.26L461.92 555.02L461.29 553.76L460.72 552.47L460.19 551.16L459.71 549.82L459.29 548.45L458.91 547.07L458.6 545.66L458.33 544.24L458.13 542.79L457.98 541.33L457.89 539.85L457.86 538.36L457.89 536.86L457.98 535.38L458.13 533.92L458.33 532.47L458.6 531.05L458.91 529.64L459.29 528.26L459.71 526.89L460.19 525.55L460.72 524.24L461.29 522.95L461.92 521.69L462.59 520.45L463.3 519.25L464.07 518.07L464.87 516.93L465.72 515.82L466.61 514.74L467.54 513.7L468.5 512.7L469.51 511.73L470.55 510.8L471.63 509.91L472.74 509.06L473.88 508.26L475.05 507.5L476.26 506.78L477.49 506.11L478.76 505.48L480.05 504.91L481.36 504.38L482.7 503.9L484.06 503.48L485.45 503.11L486.86 502.79L488.28 502.53L489.73 502.32L491.19 502.17L492.67 502.08L494.16 502.05L495.66 502.08L497.14 502.17ZM491.57 518.57L490.3 518.77L489.07 519.06L487.86 519.42L486.69 519.85L485.56 520.35L484.46 520.92L483.4 521.56L482.39 522.26L481.42 523.01L480.5 523.82L479.63 524.69L478.82 525.61L478.06 526.58L477.37 527.59L476.73 528.65L476.16 529.75L475.66 530.88L475.23 532.05L474.87 533.26L474.58 534.49L474.38 535.76L474.25 537.04L474.21 538.35L474.25 539.66L474.38 540.95L474.58 542.21L474.87 543.45L475.23 544.65L475.66 545.83L476.16 546.96L476.73 548.06L477.37 549.12L478.06 550.13L478.82 551.1L479.63 552.02L480.5 552.88L481.42 553.7L482.39 554.45L483.4 555.15L484.46 555.78L485.55 556.35L486.69 556.86L487.86 557.29L489.07 557.65L490.3 557.93L491.57 558.14L492.85 558.26L494.16 558.31L495.47 558.26L496.76 558.14L498.02 557.93L499.26 557.65L500.46 557.29L501.64 556.86L502.77 556.35L503.87 555.78L504.93 555.15L505.94 554.45L506.91 553.7L507.83 552.88L508.69 552.02L509.51 551.1L510.26 550.13L510.96 549.12L511.59 548.06L512.16 546.96L512.67 545.83L513.1 544.65L513.46 543.45L513.74 542.21L513.95 540.95L514.07 539.66L514.12 538.35L514.07 537.04L513.95 535.76L513.74 534.49L513.46 533.26L513.1 532.05L512.67 530.88L512.16 529.75L511.59 528.65L510.96 527.59L510.26 526.58L509.51 525.61L508.69 524.69L507.83 523.82L506.91 523.01L505.94 522.26L504.93 521.56L503.87 520.92L502.77 520.35L501.64 519.85L500.46 519.42L499.26 519.06L498.02 518.77L496.76 518.57L495.47 518.44L494.16 518.4L492.85 518.44L491.57 518.57Z" id="d1fEQLWwq"></path><path d="M559.58 452.06C559.58 448.71 559.58 421.94 559.58 418.59C559.58 412.44 564.57 407.44 570.73 407.44C576.88 407.44 581.87 412.44 581.87 418.59C581.87 421.94 581.87 448.71 581.87 452.06C581.87 458.21 576.88 463.2 570.73 463.2C564.57 463.2 559.58 458.21 559.58 452.06Z" id="b3Azcz5uDS"></path><path d="M593.83 517.97C587.67 517.97 582.68 512.98 582.68 506.82C582.68 500.67 587.67 495.67 593.83 495.67C597.33 495.67 625.35 495.67 628.85 495.67C635.01 495.67 640 500.67 640 506.82C640 512.98 635.01 517.97 628.85 517.97C621.85 517.97 597.33 517.97 593.83 517.97Z" id="cvRcdNPkp"></path><path d="M11.15 517.97C4.99 517.97 0 512.98 0 506.82C0 500.67 4.99 495.67 11.15 495.67C13.91 495.67 35.98 495.67 38.74 495.67C44.89 495.67 49.88 500.67 49.88 506.82C49.88 512.98 44.89 517.97 38.74 517.97C33.22 517.97 13.91 517.97 11.15 517.97Z" id="be5GusKnu"></path><path d="M209.84 120.4L214.68 120.89L219.46 121.57L224.18 122.44L228.84 123.49L233.42 124.72L237.93 126.12L242.36 127.69L246.71 129.43L250.97 131.34L255.14 133.39L259.22 135.61L263.21 137.98L267.09 140.5L270.87 143.16L274.54 145.96L278.09 148.89L281.53 151.96L284.85 155.15L288.04 158.47L291.11 161.91L294.04 165.46L296.84 169.14L299.5 172.91L302.02 176.79L304.39 180.78L306.61 184.86L308.66 189.03L310.57 193.29L312.31 197.64L313.88 202.07L315.28 206.58L316.51 211.16L317.56 215.82L318.43 220.54L319.11 225.32L319.6 230.16L319.9 235.05L320 240L319.9 244.95L319.6 249.84L319.11 254.69L318.43 259.47L317.56 264.18L316.51 268.84L315.28 273.42L313.88 277.93L312.31 282.36L310.57 286.71L308.66 290.98L306.61 295.15L304.39 299.23L302.02 303.21L299.5 307.1L296.84 310.87L294.04 314.54L291.11 318.1L288.04 321.54L284.85 324.86L281.53 328.05L278.09 331.12L274.54 334.05L270.87 336.85L267.09 339.51L263.21 342.02L259.22 344.39L255.14 346.61L250.97 348.67L246.71 350.57L242.36 352.31L237.93 353.88L233.42 355.28L228.84 356.51L224.18 357.56L219.46 358.43L214.68 359.11L209.84 359.6L204.95 359.9L200 360L195.05 359.9L190.16 359.6L185.32 359.11L180.53 358.43L175.82 357.56L171.16 356.51L166.58 355.28L162.07 353.88L157.64 352.31L153.29 350.57L149.03 348.67L144.85 346.61L140.77 344.39L136.79 342.02L132.9 339.51L129.13 336.85L125.46 334.05L121.9 331.12L118.46 328.05L115.14 324.86L111.95 321.54L108.88 318.1L105.95 314.54L103.15 310.87L100.49 307.1L97.98 303.21L95.61 299.23L93.39 295.15L91.33 290.98L89.43 286.71L87.69 282.36L86.12 277.93L84.72 273.42L83.49 268.84L82.44 264.18L81.57 259.47L80.89 254.69L80.4 249.84L80.1 244.95L80 240L80.1 235.05L80.4 230.16L80.89 225.32L81.57 220.54L82.44 215.82L83.49 211.16L84.72 206.58L86.12 202.07L87.69 197.64L89.43 193.29L91.33 189.03L93.39 184.86L95.61 180.78L97.98 176.79L100.49 172.91L103.15 169.14L105.95 165.46L108.88 161.91L111.95 158.47L115.14 155.15L118.46 151.96L121.9 148.89L125.46 145.96L129.13 143.16L132.9 140.5L136.79 137.98L140.77 135.61L144.85 133.39L149.03 131.34L153.29 129.43L157.64 127.69L162.07 126.12L166.58 124.72L171.16 123.49L175.82 122.44L180.53 121.57L185.32 120.89L190.16 120.4L195.05 120.1L200 120L204.95 120.1L209.84 120.4ZM169.46 346.47L170.2 346.68L170.95 346.88L171.7 347.09L172.46 347.28L173.21 347.47L173.97 347.66L174.73 347.84L175.49 348.02L176.26 348.18L177.02 348.35L177.79 348.51L178.56 348.66L179.33 348.81L180.1 348.96L180.88 349.1L181.66 349.23L182.43 349.36L183.22 349.48L184 349.6L184.78 349.71L185.57 349.81L186.36 349.91L187.15 350.01L187.94 350.1L188.73 350.18L189.53 350.26L190.32 350.33L191.12 350.4L191.92 350.46L192.72 350.51L193.52 350.56L194.33 350.61L195.14 350.64L195.94 350.68L196.75 350.7L197.56 350.72L198.37 350.74L199.19 350.75L200 350.75L200.97 350.75L201.93 350.73L202.89 350.71L203.85 350.69L204.81 350.65L205.76 350.6L206.72 350.55L207.67 350.49L208.62 350.42L209.56 350.34L210.51 350.25L211.45 350.16L212.39 350.06L213.33 349.95L214.27 349.83L215.2 349.71L216.13 349.58L217.06 349.44L217.98 349.29L218.9 349.13L219.83 348.97L220.74 348.8L221.66 348.62L222.57 348.43L223.48 348.24L224.39 348.04L225.29 347.83L226.19 347.62L227.09 347.39L227.99 347.16L228.88 346.93L229.77 346.68L230.66 346.43L231.54 346.17L232.42 345.9L233.3 345.63L234.17 345.35L235.04 345.06L235.91 344.77L236.77 344.46L236.75 344.43L236.73 344.4L236.71 344.36L236.68 344.33L236.66 344.29L236.64 344.25L236.62 344.22L236.6 344.18L236.58 344.15L236.56 344.11L236.54 344.08L236.52 344.04L236.5 344L236.46 343.93L236.43 343.89L236.4 343.82L236.38 343.78L236.36 343.74L236.32 343.67L236.3 343.63L236.24 343.51L236.22 343.48L236.18 343.4L236.17 343.36L236.15 343.32L236.13 343.28L236.11 343.24L236.09 343.2L236.07 343.16L236.06 343.12L236.04 343.08L236.01 343L235.99 342.96L201.95 249.7L168.71 346.25L169.46 346.47ZM97.94 197L97.5 198.05L97.08 199.1L96.67 200.16L96.26 201.22L95.87 202.29L95.49 203.36L95.11 204.44L94.75 205.52L94.4 206.61L94.06 207.7L93.73 208.8L93.41 209.9L93.11 211.01L92.81 212.12L92.53 213.24L92.26 214.36L91.99 215.48L91.74 216.61L91.5 217.74L91.28 218.88L91.06 220.02L90.86 221.17L90.66 222.31L90.49 223.47L90.32 224.63L90.16 225.79L90.02 226.95L89.88 228.12L89.76 229.29L89.66 230.47L89.56 231.65L89.48 232.83L89.41 234.02L89.35 235.21L89.3 236.4L89.27 237.6L89.25 238.8L89.25 240L89.3 243.28L89.44 246.53L89.67 249.76L90 252.96L90.41 256.13L90.92 259.28L91.51 262.39L92.19 265.48L92.96 268.53L93.81 271.54L94.74 274.52L95.75 277.47L96.84 280.38L98.01 283.24L99.26 286.07L100.58 288.85L101.98 291.6L103.45 294.29L104.99 296.94L106.61 299.55L108.29 302.1L110.04 304.61L111.86 307.06L113.74 309.46L115.69 311.81L117.7 314.1L119.77 316.34L121.9 318.52L124.09 320.63L126.33 322.69L128.64 324.69L130.99 326.62L133.4 328.49L135.87 330.3L138.38 332.03L140.94 333.7L143.56 335.3L146.22 336.83L148.92 338.28L151.67 339.66L98.84 194.93L98.39 195.96L97.94 197ZM297.25 187.4L297.28 187.66L297.31 187.93L297.38 188.47L297.41 188.74L297.5 189.56L297.53 189.84L297.55 190.11L297.58 190.39L297.61 190.67L297.63 190.95L297.65 191.23L297.68 191.51L297.7 191.79L297.72 192.07L297.74 192.36L297.78 192.93L297.83 193.79L297.84 194.08L297.86 194.67L297.88 194.96L297.9 195.55L297.9 195.85L297.91 196.14L297.92 196.44L297.92 196.74L297.93 197.04L297.93 197.35L297.94 197.65L297.94 198.26L297.93 198.83L297.92 199.43L297.89 200.04L297.85 200.68L297.81 201.34L297.75 202.02L297.68 202.72L297.6 203.44L297.51 204.18L297.41 204.95L297.3 205.74L297.18 206.55L297.05 207.38L296.9 208.23L296.75 209.1L296.59 210L296.42 210.91L296.23 211.85L296.04 212.81L295.83 213.79L295.61 214.79L295.39 215.82L295.15 216.86L294.9 217.93L294.64 219.02L294.38 220.13L294.1 221.26L293.8 222.41L293.51 223.59L293.19 224.78L292.87 226L292.54 227.24L292.2 228.5L291.85 229.78L291.48 231.08L291.11 232.41L290.72 233.75L290.33 235.12L289.92 236.51L289.5 237.92L255.68 335.72L258.13 334.25L260.54 332.72L262.9 331.13L265.22 329.48L267.5 327.77L269.73 326.01L271.91 324.19L274.05 322.32L276.14 320.39L278.17 318.42L280.16 316.38L282.09 314.31L283.97 312.18L285.8 310L287.57 307.78L289.28 305.51L290.94 303.19L292.54 300.83L294.07 298.43L295.55 295.99L296.97 293.51L298.32 290.98L299.61 288.42L300.84 285.82L301.99 283.19L303.09 280.51L304.11 277.81L305.06 275.07L305.95 272.3L306.76 269.5L307.5 266.67L308.17 263.81L308.76 260.92L309.28 258L309.72 255.06L310.08 252.09L310.37 249.1L310.57 246.09L310.69 243.06L310.73 240L310.72 238.56L310.7 237.12L310.65 235.69L310.59 234.26L310.51 232.84L310.41 231.42L310.29 230L310.15 228.59L310 227.19L309.83 225.79L309.64 224.4L309.44 223.01L309.22 221.63L308.98 220.26L308.72 218.89L308.45 217.52L308.16 216.17L307.86 214.81L307.53 213.47L307.2 212.13L306.84 210.8L306.47 209.47L306.08 208.15L305.68 206.84L305.26 205.53L304.83 204.24L304.38 202.95L303.91 201.66L303.43 200.39L302.94 199.12L302.43 197.86L301.9 196.6L301.36 195.36L300.81 194.12L300.24 192.89L299.65 191.67L299.06 190.45L298.44 189.25L297.81 188.05L297.17 186.87L297.21 187.13L297.25 187.4ZM228.86 178.04L229.22 178.16L229.55 178.29L229.87 178.46L230.16 178.64L230.44 178.85L230.69 179.08L230.92 179.32L231.14 179.58L231.32 179.86L231.5 180.15L231.64 180.45L231.77 180.76L231.87 181.08L231.95 181.4L232.01 181.73L232.05 182.07L232.07 182.4L232.06 182.74L232.03 183.07L231.98 183.41L231.9 183.74L231.8 184.06L231.68 184.37L231.53 184.68L231.37 184.97L231.17 185.25L230.96 185.52L230.72 185.77L230.45 186L230.17 186.22L229.85 186.42L229.52 186.59L229.16 186.74L228.77 186.86L228.36 186.95L227.93 187.02L227.92 187.02L227.88 187.03L227.83 187.03L227.75 187.04L227.66 187.05L227.54 187.07L227.41 187.08L227.25 187.1L227.08 187.12L226.89 187.14L226.68 187.16L226.45 187.18L226.21 187.21L225.95 187.24L225.68 187.26L225.39 187.29L225.09 187.32L224.77 187.35L224.44 187.38L224.1 187.41L223.74 187.45L223.37 187.48L222.99 187.52L222.6 187.55L222.2 187.59L221.79 187.62L221.37 187.66L220.94 187.69L220.5 187.73L220.06 187.76L219.6 187.8L219.14 187.83L218.67 187.86L218.2 187.9L217.72 187.93L217.23 187.96L216.74 187.99L216.25 188.02L215.76 188.05L215.26 188.08L255.28 307.12L266.33 270.22L266.75 269.14L267.15 268.08L267.55 267.02L267.93 265.97L268.31 264.93L268.67 263.91L269.02 262.88L269.36 261.88L269.7 260.87L270.02 259.88L270.33 258.9L270.63 257.93L270.92 256.96L271.2 256.01L271.46 255.06L271.72 254.12L271.97 253.2L272.21 252.28L272.43 251.37L272.65 250.47L272.86 249.58L273.05 248.7L273.24 247.83L273.41 246.97L273.58 246.11L273.73 245.27L273.87 244.43L274 243.61L274.12 242.79L274.23 241.98L274.34 241.18L274.43 240.4L274.5 239.61L274.57 238.84L274.63 238.08L274.68 237.33L274.71 236.58L274.74 235.85L274.76 235.13L274.76 234.41L274.75 233.39L274.73 232.39L274.68 231.4L274.62 230.43L274.54 229.47L274.45 228.53L274.34 227.6L274.22 226.68L274.08 225.78L273.93 224.9L273.76 224.03L273.58 223.17L273.39 222.32L273.19 221.49L272.98 220.67L272.76 219.87L272.53 219.07L272.28 218.29L272.03 217.52L271.77 216.77L271.5 216.02L271.23 215.29L270.95 214.57L270.66 213.86L270.36 213.16L270.06 212.47L269.76 211.79L269.45 211.13L269.14 210.47L268.82 209.82L268.51 209.19L268.19 208.56L267.87 207.94L267.55 207.33L267.23 206.73L266.9 206.14L266.58 205.56L266.26 204.99L265.94 204.42L265.62 203.86L265.21 203.18L264.79 202.51L264.37 201.84L263.96 201.17L263.55 200.51L263.14 199.85L262.74 199.19L262.34 198.54L261.95 197.89L261.56 197.24L261.18 196.6L260.8 195.96L260.44 195.32L260.07 194.69L259.72 194.05L259.38 193.41L259.04 192.78L258.71 192.15L258.39 191.52L258.09 190.88L257.79 190.25L257.51 189.62L257.23 188.99L256.97 188.35L256.72 187.72L256.48 187.08L256.25 186.45L256.04 185.81L255.85 185.17L255.67 184.52L255.5 183.88L255.35 183.22L255.21 182.57L255.1 181.92L254.99 181.26L254.91 180.59L254.84 179.92L254.79 179.25L254.77 178.57L254.76 177.89L254.77 177.13L254.81 176.37L254.89 175.62L254.98 174.87L255.11 174.12L255.26 173.39L255.44 172.66L255.64 171.94L255.87 171.23L256.13 170.53L256.41 169.84L256.71 169.16L257.04 168.49L257.39 167.84L257.77 167.2L258.16 166.58L258.58 165.97L259.02 165.38L259.49 164.81L259.97 164.25L260.47 163.72L261 163.2L261.54 162.7L262.1 162.23L262.68 161.78L263.28 161.35L263.9 160.95L264.53 160.56L265.19 160.21L265.85 159.88L266.54 159.58L267.24 159.31L267.96 159.07L268.69 158.85L269.43 158.67L270.19 158.52L270.96 158.4L271.75 158.32L272.55 158.26L273.36 158.24L273.47 158.24L273.5 158.25L273.61 158.25L273.64 158.25L273.68 158.25L273.72 158.25L273.75 158.25L273.82 158.26L273.86 158.26L273.97 158.27L274 158.27L274.22 158.29L274.25 158.29L274.46 158.31L274.5 158.31L274.78 158.34L273.29 157L271.78 155.68L270.24 154.39L268.68 153.14L267.1 151.9L265.49 150.7L263.86 149.52L262.21 148.38L260.54 147.26L258.84 146.17L257.13 145.12L255.39 144.09L253.64 143.1L251.86 142.13L250.07 141.2L248.26 140.3L246.42 139.43L244.57 138.59L242.7 137.79L240.82 137.02L238.92 136.29L237 135.59L235.06 134.92L233.11 134.29L231.14 133.69L229.16 133.13L227.16 132.61L225.15 132.12L223.12 131.67L221.08 131.25L219.02 130.88L216.96 130.54L214.88 130.24L212.79 129.98L210.68 129.76L208.57 129.58L206.44 129.43L204.31 129.33L202.16 129.27L200 129.25L197.11 129.29L194.23 129.4L191.38 129.58L188.54 129.84L185.73 130.16L182.94 130.56L180.17 131.02L177.42 131.56L174.7 132.16L172.01 132.82L169.34 133.55L166.7 134.35L164.08 135.21L161.5 136.14L158.95 137.12L156.42 138.17L153.93 139.27L151.47 140.44L149.05 141.66L146.66 142.94L144.3 144.28L141.98 145.67L139.7 147.11L137.46 148.61L135.25 150.17L133.09 151.77L130.96 153.42L128.88 155.13L126.84 156.89L124.84 158.69L122.89 160.54L120.98 162.44L119.13 164.38L117.31 166.37L115.55 168.4L113.83 170.47L112.16 172.59L110.54 174.74L108.98 176.94L107.47 179.18L107.66 179.18L107.86 179.19L108.05 179.19L108.25 179.2L108.63 179.21L108.82 179.21L109.01 179.22L109.2 179.22L109.39 179.23L109.76 179.23L109.95 179.24L110.32 179.25L110.5 179.25L111.05 179.26L111.58 179.27L111.76 179.28L111.94 179.28L112.11 179.28L112.28 179.29L112.46 179.29L112.63 179.29L112.96 179.3L113.13 179.3L113.3 179.3L113.63 179.3L113.79 179.3L114.27 179.3L114.43 179.31L114.59 179.31L115.47 179.3L116.37 179.29L117.29 179.28L118.23 179.26L119.18 179.24L120.15 179.22L121.13 179.19L122.11 179.16L123.1 179.12L125.08 179.04L126.08 179L127.07 178.95L128.05 178.9L129.02 178.86L129.99 178.81L130.94 178.75L131.88 178.7L132.8 178.65L133.7 178.6L134.58 178.54L135.43 178.49L136.26 178.44L137.06 178.38L137.83 178.34L138.56 178.29L139.26 178.24L139.93 178.19L140.55 178.15L141.13 178.11L141.67 178.07L142.15 178.03L142.59 178L142.98 177.97L143.32 177.95L143.6 177.93L143.82 177.91L143.98 177.9L144.08 177.89L144.11 177.89L144.55 177.88L144.97 177.9L145.36 177.96L145.74 178.04L146.1 178.16L146.43 178.29L146.75 178.46L147.04 178.64L147.32 178.85L147.57 179.08L147.81 179.32L148.02 179.58L148.21 179.86L148.38 180.15L148.53 180.45L148.65 180.76L148.76 181.08L148.84 181.4L148.9 181.73L148.94 182.07L148.95 182.4L148.95 182.74L148.92 183.07L148.87 183.41L148.79 183.74L148.69 184.06L148.57 184.37L148.43 184.68L148.26 184.97L148.07 185.25L147.85 185.52L147.61 185.77L147.35 186L147.06 186.22L146.75 186.42L146.42 186.59L146.05 186.74L145.67 186.86L145.26 186.95L144.82 187.02L144.81 187.02L144.78 187.03L144.72 187.03L144.65 187.04L144.55 187.05L144.43 187.07L144.3 187.08L144.14 187.1L143.97 187.12L143.78 187.14L143.57 187.16L143.34 187.18L143.1 187.21L142.84 187.24L142.57 187.26L142.28 187.29L141.98 187.32L141.66 187.35L141.33 187.38L140.98 187.41L140.63 187.45L140.26 187.48L139.88 187.52L139.49 187.55L139.09 187.59L138.67 187.62L138.25 187.66L137.82 187.69L137.38 187.73L136.94 187.76L136.48 187.8L136.02 187.83L135.55 187.86L135.08 187.9L134.6 187.93L134.11 187.96L133.62 187.99L133.13 188.02L132.63 188.05L132.14 188.08L172.47 308.03L196.7 235.36L179.47 188.08L179.02 188.05L178.13 187.99L177.69 187.96L177.25 187.93L176.39 187.86L175.96 187.83L175.55 187.8L175.13 187.76L174.72 187.73L174.32 187.69L173.93 187.66L173.54 187.62L173.16 187.59L172.79 187.55L172.43 187.52L172.08 187.48L171.74 187.45L171.41 187.41L171.09 187.38L170.79 187.35L170.49 187.32L170.21 187.29L169.94 187.26L169.69 187.24L169.45 187.21L169.22 187.18L169.01 187.16L168.81 187.14L168.63 187.12L168.47 187.1L168.33 187.08L168.2 187.07L168.09 187.05L168 187.04L167.93 187.03L167.88 187.03L167.85 187.02L167.83 187.02L167.4 186.98L166.99 186.91L166.61 186.8L166.25 186.67L165.91 186.52L165.6 186.34L165.31 186.13L165.05 185.91L164.81 185.67L164.59 185.4L164.4 185.13L164.23 184.84L164.09 184.53L163.97 184.22L163.87 183.9L163.79 183.56L163.74 183.23L163.71 182.89L163.7 182.55L163.72 182.2L163.76 181.86L163.82 181.52L163.9 181.19L164 180.86L164.13 180.54L164.27 180.23L164.44 179.94L164.63 179.65L164.84 179.38L165.08 179.13L165.33 178.89L165.61 178.68L165.9 178.49L166.22 178.32L166.56 178.17L166.91 178.05L167.29 177.97L167.69 177.91L168.11 177.88L168.54 177.89L168.58 177.89L168.68 177.9L168.84 177.91L169.07 177.93L169.35 177.95L169.69 177.97L170.09 178L170.53 178.03L171.57 178.11L172.16 178.15L172.79 178.19L173.45 178.24L174.16 178.29L174.9 178.34L175.68 178.38L176.48 178.44L177.31 178.49L178.17 178.54L179.05 178.6L179.94 178.65L180.86 178.7L181.79 178.75L182.74 178.81L183.7 178.86L184.66 178.9L185.63 178.95L187.58 179.04L189.53 179.12L190.49 179.16L191.45 179.19L192.4 179.22L193.33 179.24L194.25 179.26L195.14 179.28L196.02 179.29L196.88 179.3L197.71 179.31L198.59 179.3L199.49 179.29L200.41 179.28L201.35 179.26L202.3 179.24L203.27 179.22L204.24 179.19L205.22 179.16L206.21 179.12L208.2 179.04L209.19 179L210.18 178.95L211.16 178.9L212.14 178.86L213.1 178.81L214.05 178.75L214.99 178.7L215.91 178.65L216.81 178.6L217.69 178.54L218.54 178.49L219.38 178.44L220.17 178.38L220.94 178.34L221.68 178.29L222.38 178.24L223.04 178.19L223.67 178.15L224.25 178.11L224.78 178.07L225.27 178.03L225.71 178L226.1 177.97L226.44 177.95L226.72 177.93L226.94 177.91L227.1 177.9L227.2 177.89L227.23 177.89L227.67 177.88L228.09 177.9L228.48 177.96L228.86 178.04Z" id="a8ZbP81f5q"></path></defs><g><g><g><g><use xlink:href="#fjPbamIZ0" opacity="1" fill-opacity="0" stroke="#a434b7" stroke-width="2" stroke-opacity="1"></use></g></g><g><use xlink:href="#c7g3Tta89R" opacity="1" fill="#415e72" fill-opacity="1"></use><g><use xlink:href="#c7g3Tta89R" opacity="1" fill-opacity="0" stroke="#000000" stroke-width="1" stroke-opacity="0"></use></g></g><g><use xlink:href="#a1HAxxi7Ay" opacity="1" fill="#600060" fill-opacity="1"></use></g><g><use xlink:href="#b2w1Z05E6F" opacity="1" fill="#808080" fill-opacity="1"></use><g><use xlink:href="#b2w1Z05E6F" opacity="1" fill-opacity="0" stroke="#000000" stroke-width="1" stroke-opacity="0"></use></g></g><g><use xlink:href="#b7eBZUrlj" opacity="1" fill="#808080" fill-opacity="1"></use><g><use xlink:href="#b7eBZUrlj" opacity="1" fill-opacity="0" stroke="#000000" stroke-width="1" stroke-opacity="0"></use></g></g><g><use xlink:href="#d2ouIx8fv5" opacity="1" fill="#ffffff" fill-opacity="1"></use><g><use xlink:href="#d2ouIx8fv5" opacity="1" fill-opacity="0" stroke="#000000" stroke-width="1" stroke-opacity="0"></use></g></g><g><use xlink:href="#d1gaHKAd4s" opacity="1" fill="#e6e6e6" fill-opacity="1"></use><g><use xlink:href="#d1gaHKAd4s" opacity="1" fill-opacity="0" stroke="#000000" stroke-width="1" stroke-opacity="0"></use></g></g><g><use xlink:href="#b6vxFSKM1Q" opacity="1" fill="#e6e6e6" fill-opacity="1"></use><g><use xlink:href="#b6vxFSKM1Q" opacity="1" fill-opacity="0" stroke="#000000" stroke-width="1" stroke-opacity="0"></use></g></g><g><use xlink:href="#df1Ep9fhK" opacity="1" fill="#314a5f" fill-opacity="1"></use><g><use xlink:href="#df1Ep9fhK" opacity="1" fill-opacity="0" stroke="#000000" stroke-width="1" stroke-opacity="0"></use></g></g><g><use xlink:href="#d1fEQLWwq" opacity="1" fill="#314a5f" fill-opacity="1"></use><g><use xlink:href="#d1fEQLWwq" opacity="1" fill-opacity="0" stroke="#000000" stroke-width="1" stroke-opacity="0"></use></g></g><g><use xlink:href="#b3Azcz5uDS" opacity="1" fill="#ffffff" fill-opacity="1"></use><g><use xlink:href="#b3Azcz5uDS" opacity="1" fill-opacity="0" stroke="#000000" stroke-width="1" stroke-opacity="0"></use></g></g><g><use xlink:href="#cvRcdNPkp" opacity="1" fill="#cfdce5" fill-opacity="1"></use><g><use xlink:href="#cvRcdNPkp" opacity="1" fill-opacity="0" stroke="#000000" stroke-width="1" stroke-opacity="0"></use></g></g><g><use xlink:href="#be5GusKnu" opacity="1" fill="#cfdce5" fill-opacity="1"></use><g><use xlink:href="#be5GusKnu" opacity="1" fill-opacity="0" stroke="#000000" stroke-width="1" stroke-opacity="0"></use></g></g><g><use xlink:href="#a8ZbP81f5q" opacity="1" fill="#600060" fill-opacity="1"></use><g><use xlink:href="#a8ZbP81f5q" opacity="1" fill-opacity="0" stroke="#000000" stroke-width="1" stroke-opacity="0"></use></g></g></g></g></svg>