<svg width="200" height="200" version="1.1" viewBox="0 0 640 640" xmlns="http://www.w3.org/2000/svg" xmlns:xlink="http://www.w3.org/1999/xlink">
 <defs>
  <path id="aJUMvDK2y" d="m294.91 458.2-278.47-24.21v-402.79h359.29v171.64l70.05 175.1-70.05 56.05-43.66 24.21"/>
  <path id="e57ZJGo3NE" d="m220.94 109.62h56.49v70.26l38.53 38.53-13.66 13.67-16.62-16.62v147.19h-179.2v-147.19l-16.61 16.62-13.67-13.67 119.88-119.88 24.86 24.87v-13.78zm-95.13 233.71h140.55v-147.19l-70.28-70.28-70.27 70.28v147.19zm114.46-200.61 17.84 17.84v-31.61h-17.84v13.77z"/>
  <path id="apgXJoyq5" d="m155.89 317.93v-94.53h80.38v94.53h-80.38zm19.33-19.32h41.73v-55.89h-41.73v55.89z"/>
  <path id="abEswlxHd" d="m407.88 433.98v104.36h-391.44v-104.36h391.44z"/>
  <path id="b95uva8rl" d="m423.72 538.34h-47.99v-335.51c0-13.13 10.64-23.77 23.77-23.77h101.39c67.76 0 122.67 54.91 122.67 122.65v236.63h-58.94"/>
  <path id="cu5kOH64c" d="m139.73 467.92c-38.91 0-70.45 31.54-70.45 70.44s31.54 70.44 70.45 70.44c38.9 0 70.44-31.54 70.44-70.44s-31.54-70.44-70.44-70.44z"/>
  <path id="bASbndVr4" d="m494.17 467.92c-38.91 0-70.44 31.54-70.44 70.44s31.53 70.44 70.44 70.44c38.9 0 70.44-31.54 70.44-70.44s-31.54-70.44-70.44-70.44z"/>
  <path id="conm65PSe" d="m570.73 301.72c0-38.5-31.33-69.81-69.84-69.81-4.82-0.01-28.93-0.01-72.33 0v124.16h142.17v-54.35z"/>
  <path id="a6W5T8zarV" d="m139.73 510.23c-15.54 0-28.13 12.59-28.13 28.13s12.59 28.13 28.13 28.13c15.53 0 28.13-12.59 28.13-28.13s-12.6-28.13-28.13-28.13z"/>
  <path id="d6slbTtsI" d="m494.17 510.23c-15.54 0-28.13 12.59-28.13 28.13s12.59 28.13 28.13 28.13c15.53 0 28.13-12.59 28.13-28.13s-12.6-28.13-28.13-28.13z"/>
  <path id="a2UlBYkmhc" d="m142.7 502.17 1.46 0.15 1.44 0.21 1.43 0.26 1.41 0.32 1.38 0.37 1.37 0.42 1.34 0.48 1.31 0.53 1.29 0.57 1.26 0.63 1.24 0.67 1.2 0.72 1.18 0.76 1.14 0.8 1.11 0.85 1.08 0.89 1.04 0.93 1 0.97 0.97 1 0.93 1.04 0.89 1.08 0.84 1.11 0.81 1.14 0.76 1.18 0.72 1.2 0.67 1.24 0.62 1.26 0.58 1.29 0.53 1.31 0.47 1.34 0.43 1.37 0.37 1.38 0.32 1.41 0.26 1.42 0.21 1.45 0.15 1.46 0.09 1.48 0.03 1.5-0.03 1.49-0.09 1.48-0.15 1.46-0.21 1.45-0.26 1.42-0.32 1.41-0.37 1.38-0.43 1.37-0.47 1.34-0.53 1.31-0.58 1.29-0.62 1.26-0.67 1.24-0.72 1.2-0.76 1.18-0.81 1.14-0.84 1.11-0.89 1.08-0.93 1.04-0.97 1-1 0.97-1.04 0.93-1.08 0.89-1.11 0.85-1.14 0.8-1.18 0.76-1.2 0.72-1.24 0.67-1.26 0.63-1.29 0.57-1.31 0.53-1.34 0.48-1.37 0.42-1.38 0.37-1.41 0.32-1.43 0.26-1.44 0.21-1.46 0.15-1.48 0.09-1.5 0.03-1.49-0.03-1.48-0.09-1.46-0.15-1.45-0.21-1.43-0.26-1.4-0.32-1.39-0.37-1.36-0.42-1.34-0.48-1.32-0.53-1.29-0.57-1.26-0.63-1.23-0.67-1.21-0.72-1.17-0.76-1.14-0.8-1.12-0.85-1.07-0.89-1.04-0.93-1.01-0.97-0.96-1-0.93-1.04-0.89-1.08-0.85-1.11-0.8-1.14-0.77-1.18-0.71-1.2-0.67-1.24-0.63-1.26-0.57-1.29-0.53-1.31-0.48-1.34-0.42-1.37-0.38-1.38-0.31-1.41-0.27-1.42-0.2-1.45-0.15-1.46-0.09-1.48-0.03-1.49 0.03-1.5 0.09-1.48 0.15-1.46 0.2-1.45 0.27-1.42 0.31-1.41 0.38-1.38 0.42-1.37 0.48-1.34 0.52-1.31 0.58-1.29 0.63-1.26 0.67-1.24 0.71-1.2 0.77-1.18 0.8-1.14 0.85-1.11 0.89-1.08 0.93-1.04 0.96-1 1.01-0.97 1.04-0.93 1.07-0.89 1.11-0.85 1.15-0.8 1.17-0.76 1.21-0.72 1.23-0.67 1.26-0.63 1.29-0.57 1.32-0.53 1.34-0.48 1.36-0.42 1.39-0.37 1.4-0.32 1.43-0.26 1.45-0.21 1.46-0.15 1.48-0.09 1.49-0.03 1.5 0.03 1.48 0.09zm-5.58 16.4-1.26 0.2-1.23 0.29-1.21 0.36-1.17 0.43-1.14 0.5-1.09 0.57-1.06 0.64-1.01 0.7-0.97 0.75-0.92 0.81-0.87 0.87-0.81 0.92-0.76 0.97-0.69 1.01-0.64 1.06-0.57 1.1-0.5 1.13-0.43 1.17-0.36 1.21-0.29 1.23-0.2 1.27-0.13 1.28-0.04 1.31 0.04 1.31 0.13 1.29 0.2 1.26 0.29 1.24 0.36 1.2 0.43 1.18 0.5 1.13 0.57 1.1 0.64 1.06 0.69 1.01 0.76 0.97 0.81 0.92 0.87 0.86 0.92 0.82 0.97 0.75 1.01 0.7 1.06 0.63 1.09 0.57 1.14 0.51 1.17 0.43 1.21 0.36 1.23 0.28 1.26 0.21 1.29 0.12 1.31 0.05 1.31-0.05 1.29-0.12 1.26-0.21 1.24-0.28 1.2-0.36 1.17-0.43 1.14-0.51 1.1-0.57 1.06-0.63 1.01-0.7 0.97-0.75 0.92-0.82 0.86-0.86 0.82-0.92 0.75-0.97 0.7-1.01 0.63-1.06 0.57-1.1 0.51-1.13 0.43-1.18 0.36-1.2 0.28-1.24 0.21-1.26 0.12-1.29 0.05-1.31-0.05-1.31-0.12-1.28-0.21-1.27-0.28-1.23-0.36-1.21-0.44-1.17-0.5-1.13-0.57-1.1-0.63-1.06-0.7-1.01-0.75-0.97-0.82-0.92-0.86-0.87-0.92-0.81-0.97-0.75-1.01-0.7-1.06-0.64-1.1-0.57-1.14-0.5-1.17-0.43-1.2-0.36-1.24-0.29-1.26-0.2-1.29-0.13-1.31-0.04-1.31 0.04-1.29 0.13z"/>
  <path id="bvWM6VJtt" d="m497.14 502.17 1.46 0.15 1.45 0.21 1.42 0.26 1.41 0.32 1.38 0.37 1.37 0.42 1.34 0.48 1.31 0.53 1.29 0.57 1.26 0.63 1.24 0.67 1.2 0.72 1.18 0.76 1.14 0.8 1.11 0.85 1.08 0.89 1.04 0.93 1 0.97 0.97 1 0.93 1.04 0.89 1.08 0.85 1.11 0.8 1.14 0.76 1.18 0.72 1.2 0.67 1.24 0.63 1.26 0.57 1.29 0.53 1.31 0.47 1.34 0.43 1.37 0.37 1.38 0.32 1.41 0.26 1.42 0.21 1.45 0.15 1.46 0.09 1.48 0.03 1.5-0.03 1.49-0.09 1.48-0.15 1.46-0.21 1.45-0.26 1.42-0.32 1.41-0.37 1.38-0.43 1.37-0.47 1.34-0.53 1.31-0.57 1.29-0.63 1.26-0.67 1.24-0.72 1.2-0.76 1.18-0.8 1.14-0.85 1.11-0.89 1.08-0.93 1.04-0.97 1-1 0.97-1.04 0.93-1.08 0.89-1.11 0.85-1.14 0.8-1.18 0.76-1.2 0.72-1.24 0.67-1.26 0.63-1.29 0.57-1.31 0.53-1.34 0.48-1.37 0.42-1.38 0.37-1.41 0.32-1.42 0.26-1.45 0.21-1.46 0.15-1.48 0.09-1.5 0.03-1.49-0.03-1.48-0.09-1.46-0.15-1.45-0.21-1.42-0.26-1.41-0.32-1.39-0.37-1.36-0.42-1.34-0.48-1.31-0.53-1.29-0.57-1.27-0.63-1.23-0.67-1.21-0.72-1.17-0.76-1.14-0.8-1.11-0.85-1.08-0.89-1.04-0.93-1.01-0.97-0.96-1-0.93-1.04-0.89-1.08-0.85-1.11-0.8-1.14-0.77-1.18-0.71-1.2-0.67-1.24-0.63-1.26-0.57-1.29-0.53-1.31-0.48-1.34-0.42-1.37-0.38-1.38-0.31-1.41-0.27-1.42-0.2-1.45-0.15-1.46-0.09-1.48-0.03-1.49 0.03-1.5 0.09-1.48 0.15-1.46 0.2-1.45 0.27-1.42 0.31-1.41 0.38-1.38 0.42-1.37 0.48-1.34 0.53-1.31 0.57-1.29 0.63-1.26 0.67-1.24 0.71-1.2 0.77-1.18 0.8-1.14 0.85-1.11 0.89-1.08 0.93-1.04 0.96-1 1.01-0.97 1.04-0.93 1.08-0.89 1.11-0.85 1.14-0.8 1.17-0.76 1.21-0.72 1.23-0.67 1.27-0.63 1.29-0.57 1.31-0.53 1.34-0.48 1.36-0.42 1.39-0.37 1.41-0.32 1.42-0.26 1.45-0.21 1.46-0.15 1.48-0.09 1.49-0.03 1.5 0.03 1.48 0.09zm-5.57 16.4-1.27 0.2-1.23 0.29-1.21 0.36-1.17 0.43-1.13 0.5-1.1 0.57-1.06 0.64-1.01 0.7-0.97 0.75-0.92 0.81-0.87 0.87-0.81 0.92-0.76 0.97-0.69 1.01-0.64 1.06-0.57 1.1-0.5 1.13-0.43 1.17-0.36 1.21-0.29 1.23-0.2 1.27-0.13 1.28-0.04 1.31 0.04 1.31 0.13 1.29 0.2 1.26 0.29 1.24 0.36 1.2 0.43 1.18 0.5 1.13 0.57 1.1 0.64 1.06 0.69 1.01 0.76 0.97 0.81 0.92 0.87 0.86 0.92 0.82 0.97 0.75 1.01 0.7 1.06 0.63 1.09 0.57 1.14 0.51 1.17 0.43 1.21 0.36 1.23 0.28 1.27 0.21 1.28 0.12 1.31 0.05 1.31-0.05 1.29-0.12 1.26-0.21 1.24-0.28 1.2-0.36 1.18-0.43 1.13-0.51 1.1-0.57 1.06-0.63 1.01-0.7 0.97-0.75 0.92-0.82 0.86-0.86 0.82-0.92 0.75-0.97 0.7-1.01 0.63-1.06 0.57-1.1 0.51-1.13 0.43-1.18 0.36-1.2 0.28-1.24 0.21-1.26 0.12-1.29 0.05-1.31-0.05-1.31-0.12-1.28-0.21-1.27-0.28-1.23-0.36-1.21-0.43-1.17-0.51-1.13-0.57-1.1-0.63-1.06-0.7-1.01-0.75-0.97-0.82-0.92-0.86-0.87-0.92-0.81-0.97-0.75-1.01-0.7-1.06-0.64-1.1-0.57-1.13-0.5-1.18-0.43-1.2-0.36-1.24-0.29-1.26-0.2-1.29-0.13-1.31-0.04-1.31 0.04-1.28 0.13z"/>
  <path id="cE9g4xDZ4" d="m559.58 452.06v-33.47c0-6.15 4.99-11.15 11.15-11.15 6.15 0 11.14 5 11.14 11.15v33.47c0 6.15-4.99 11.14-11.14 11.14-6.16 0-11.15-4.99-11.15-11.14z"/>
  <path id="fQrjnLMZm" d="m593.83 517.97c-6.16 0-11.15-4.99-11.15-11.15 0-6.15 4.99-11.15 11.15-11.15h35.02c6.16 0 11.15 5 11.15 11.15 0 6.16-4.99 11.15-11.15 11.15h-35.02z"/>
  <path id="m2gcrwKkrg" d="m11.15 517.97c-6.16 0-11.15-4.99-11.15-11.15 0-6.15 4.99-11.15 11.15-11.15h27.59c6.15 0 11.14 5 11.14 11.15 0 6.16-4.99 11.15-11.14 11.15h-27.59z"/>
 </defs>
 <use fill-opacity="0" stroke="#a434b7" stroke-width="2" xlink:href="#aJUMvDK2y"/>
 <use fill="#a434b7" xlink:href="#e57ZJGo3NE"/>
 <use fill-opacity="0" stroke="#000000" stroke-opacity="0" xlink:href="#e57ZJGo3NE"/>
 <use fill="#a434b7" xlink:href="#apgXJoyq5"/>
 <use fill-opacity="0" stroke="#000000" stroke-opacity="0" xlink:href="#apgXJoyq5"/>
 <use fill="#415e72" xlink:href="#abEswlxHd"/>
 <use fill-opacity="0" stroke="#000000" stroke-opacity="0" xlink:href="#abEswlxHd"/>
 <use fill="#a434b7" xlink:href="#b95uva8rl"/>
 <use fill-opacity="0" stroke="#a434b7" stroke-width="2" xlink:href="#b95uva8rl"/>
 <use fill="#808080" xlink:href="#cu5kOH64c"/>
 <use fill-opacity="0" stroke="#000000" stroke-opacity="0" xlink:href="#cu5kOH64c"/>
 <use fill="#808080" xlink:href="#bASbndVr4"/>
 <use fill-opacity="0" stroke="#000000" stroke-opacity="0" xlink:href="#bASbndVr4"/>
 <use fill="#ffffff" xlink:href="#conm65PSe"/>
 <use fill-opacity="0" stroke="#000000" stroke-opacity="0" xlink:href="#conm65PSe"/>
 <use fill="#e6e6e6" xlink:href="#a6W5T8zarV"/>
 <use fill-opacity="0" stroke="#000000" stroke-opacity="0" xlink:href="#a6W5T8zarV"/>
 <use fill="#e6e6e6" xlink:href="#d6slbTtsI"/>
 <use fill-opacity="0" stroke="#000000" stroke-opacity="0" xlink:href="#d6slbTtsI"/>
 <use fill="#314a5f" xlink:href="#a2UlBYkmhc"/>
 <use fill-opacity="0" stroke="#000000" stroke-opacity="0" xlink:href="#a2UlBYkmhc"/>
 <use fill="#314a5f" xlink:href="#bvWM6VJtt"/>
 <use fill-opacity="0" stroke="#000000" stroke-opacity="0" xlink:href="#bvWM6VJtt"/>
 <use fill="#ffffff" xlink:href="#cE9g4xDZ4"/>
 <use fill-opacity="0" stroke="#000000" stroke-opacity="0" xlink:href="#cE9g4xDZ4"/>
 <use fill="#cfdce5" xlink:href="#fQrjnLMZm"/>
 <use fill-opacity="0" stroke="#000000" stroke-opacity="0" xlink:href="#fQrjnLMZm"/>
 <use fill="#cfdce5" xlink:href="#m2gcrwKkrg"/>
 <use fill-opacity="0" stroke="#000000" stroke-opacity="0" xlink:href="#m2gcrwKkrg"/>
</svg>
