<svg width="200" height="200" version="1.1" viewBox="0 0 200 200" xmlns="http://www.w3.org/2000/svg" xmlns:xlink="http://www.w3.org/1999/xlink">
 <defs>
  <path id="b7n6ICDteE" d="m45.45 27.89v-0.13c0-1.84-1.51-3.35-3.36-3.35h-7.8c-1.85 0-3.36 1.51-3.36 3.35v3.48 7.59 7.31c0 1.84 1.51 3.34 3.36 3.34h26.6c1.85 0 3.37-1.5 3.37-3.34v-14.9c0-1.84-1.52-3.35-3.37-3.35h-15.44z"/>
  <path id="k50ni86SIE" d="m92.29 27.89v-0.13c0-1.84-1.51-3.35-3.36-3.35h-7.79c-1.85 0-3.37 1.51-3.37 3.35v3.48 7.59 7.31c0 1.84 1.52 3.34 3.37 3.34h26.59c1.85 0 3.37-1.5 3.37-3.34v-14.9c0-1.84-1.52-3.35-3.37-3.35h-15.44z"/>
  <path id="k1oScKCyPq" d="m139.36 27.78v-0.13c0-1.84-1.51-3.35-3.36-3.35h-7.79c-1.86 0-3.37 1.51-3.37 3.35v3.48 7.59 7.3c0 1.84 1.51 3.35 3.37 3.35h26.59c1.85 0 3.37-1.51 3.37-3.35v-14.89c0-1.84-1.52-3.35-3.37-3.35h-15.44z"/>
  <path id="h7SCWcbfD" d="m9.35 131.79v-39.86c0-1.23 1.01-2.24 2.25-2.24h59.86c1.24 0 2.25 1.01 2.25 2.24v39.86h-64.36z"/>
  <path id="d71ebFIRKX" d="m0.84 138c-0.46 0-0.84 0.38-0.84 0.84v1.63c0 0.45 0.38 0.83 0.84 0.83h81.8c0.46 0 0.84-0.38 0.84-0.83v-1.63c0-0.46-0.38-0.84-0.84-0.84h-81.8z"/>
  <path id="aflYMXM6h" d="m125.87 131.79v-39.86c0-1.23 1.01-2.24 2.25-2.24h59.86c1.24 0 2.25 1.01 2.25 2.24v39.86h-64.36z"/>
  <path id="i22nOBYKr" d="m117.36 138c-0.46 0-0.84 0.38-0.84 0.84v1.63c0 0.45 0.38 0.83 0.84 0.83h81.8c0.46 0 0.84-0.38 0.84-0.83v-1.63c0-0.46-0.38-0.84-0.84-0.84h-81.8z"/>
  <path id="bSwrWQ3nb" d="m142.65 80.33c-18.71-25.36-73.21-39.5-100.54-1.93"/>
  <path id="c9eTLIctfI" d="m42.01 73.48c-2.92-0.22-5.47 1.95-5.69 4.85-0.23 2.9 1.96 5.44 4.87 5.66 2.92 0.22 5.47-1.95 5.69-4.85 0.23-2.9-1.96-5.44-4.87-5.66z"/>
  <path id="a6w3swPyB" d="m161.42 102.36 1.22 0.51 1.11 0.69 0.99 0.84 0.85 0.98 0.69 1.11 0.51 1.21 0.33 1.3 0.11 1.37-0.11 1.37-0.33 1.31-0.51 1.21-0.69 1.1-0.85 0.99-0.99 0.84-1.11 0.69-1.22 0.51-1.31 0.32-1.37 0.11-1.38-0.11-1.31-0.32-1.22-0.51-1.11-0.69-0.99-0.84-0.85-0.99-0.69-1.1-0.51-1.21-0.33-1.31-0.11-1.37 0.11-1.37 0.33-1.3 0.51-1.21 0.69-1.11 0.85-0.98 0.99-0.84 1.11-0.69 1.22-0.51 1.31-0.32 1.38-0.11 1.37 0.11 1.31 0.32zm-4.36 15.63 0.54 0.1 0.56 0.06 0.58 0.02 0.67-0.03 0.66-0.08 0.65-0.14 0.62-0.19-0.02-0.03-0.01-0.02-0.02-0.03-0.01-0.03-2.41-6.56-2.35 6.8 0.54 0.13zm-5.99-9.26-0.13 0.81-0.04 0.83 0.32 2.23 0.91 1.97 1.39 1.63 1.8 1.19-3.74-10.19-0.29 0.75-0.22 0.78zm14.58-1.71 0.01 0.2 0.01 0.22-0.04 0.47-0.11 0.62-0.19 0.77-0.26 0.93-2.39 6.88 1.59-1.21 1.23-1.58 0.79-1.87 0.28-2.08-0.06-1-0.19-0.96-0.3-0.91-0.41-0.87 0.03 0.19 0.01 0.2zm-8.25-4.33-0.65 0.14-0.62 0.19-0.6 0.24-0.57 0.28-0.54 0.33-0.52 0.37-0.48 0.41-0.45 0.45-0.41 0.48-0.37 0.51h0.04 0.05l0.04 0.01h0.05 0.04 0.04 0.05 0.04 0.04 0.04 0.03 0.04 0.21l0.23-0.01h0.23l0.24-0.01 0.23-0.02 0.21-0.01 0.2-0.01 0.18-0.01 0.15-0.01 0.11-0.01 0.08-0.01h0.02l0.1 0.01 0.08 0.03 0.07 0.04 0.08 0.14 0.01 0.08v0.07l-0.02 0.08-0.04 0.07-0.06 0.06-0.07 0.04-0.1 0.02-0.01 0.01h-0.02-0.04l-0.06 0.01h-0.06l-0.08 0.01-0.18 0.02-0.11 0.01h-0.11l-0.11 0.01-0.12 0.01 2.86 8.44 1.71-5.11-1.22-3.33-0.1-0.01-0.11-0.01h-0.09l-0.1-0.01-0.09-0.01-0.08-0.01-0.07-0.01h-0.06l-0.05-0.01h-0.04l-0.03-0.01-0.1-0.01-0.07-0.04-0.06-0.06-0.04-0.07-0.02-0.07v-0.08l0.01-0.08 0.04-0.08 0.04-0.06 0.07-0.05 0.08-0.03 0.1-0.01h0.03l0.07 0.01 0.11 0.01 0.15 0.01 0.18 0.01 0.2 0.01 0.22 0.01 0.23 0.02 0.23 0.01h0.22l0.22 0.01h0.2 0.22l0.22-0.01h0.24l0.23-0.01 0.23-0.02 0.22-0.01 0.2-0.01 0.17-0.01 0.15-0.01 0.11-0.01 0.08-0.01h0.02l0.1 0.01 0.08 0.03 0.07 0.04 0.05 0.07 0.03 0.07 0.01 0.08v0.07l-0.02 0.08-0.04 0.07-0.06 0.06-0.07 0.04-0.1 0.02-0.01 0.01h-0.02-0.04l-0.06 0.01h-0.06l-0.08 0.01-0.18 0.02-0.11 0.01h-0.1l-0.12 0.01-0.11 0.01 2.83 8.38 0.78-2.6 0.09-0.25 0.09-0.24 0.08-0.24 0.07-0.22 0.12-0.44 0.08-0.4 0.03-0.2 0.02-0.18 0.01-0.18 0.01-0.17-0.01-0.23-0.02-0.23-0.03-0.21-0.05-0.2-0.05-0.19-0.06-0.18-0.06-0.17-0.07-0.17-0.07-0.15-0.08-0.15-0.08-0.14-0.07-0.13-0.1-0.16-0.1-0.15-0.09-0.16-0.09-0.15-0.08-0.15-0.07-0.14-0.07-0.15-0.06-0.15-0.05-0.15-0.03-0.15-0.02-0.16-0.01-0.16 0.01-0.18 0.03-0.17 0.06-0.17 0.07-0.16 0.09-0.14 0.11-0.14 0.12-0.12 0.14-0.1 0.16-0.09 0.16-0.06 0.18-0.04 0.19-0.01h0.01 0.01 0.01 0.01 0.02 0.03 0.01l-0.36-0.3-0.38-0.29-0.39-0.26-0.41-0.24-0.43-0.22-0.44-0.19-0.45-0.16-0.47-0.13-0.47-0.11-0.49-0.08-0.5-0.05-0.5-0.01-0.68 0.03-0.66 0.08z"/>
  <path id="g11YjMMuwj" d="m145.67 71.06-2.92 9.93-11.87-3.46"/>
  <path id="b2xCcqQLNv" d="m44.78 103.87v-0.02l0.01-0.02v-0.02-0.02-0.02l0.01-0.02v-0.02l0.03-0.06v-0.02l0.02-0.04 0.01-0.01 0.01-0.02 0.03-0.03 0.01-0.02 0.02-0.01 0.01-0.02 0.04-0.04 0.04-0.02 0.03-0.03h0.02l0.08-0.04h0.02l0.02-0.01h0.02l0.02-0.01h0.02 0.02 0.02 0.02 2.13 0.02 0.02 0.02 0.02l0.02 0.01h0.02l0.03 0.01h0.02l0.01 0.01 0.06 0.03h0.02l0.03 0.03 0.04 0.02 0.07 0.07 0.01 0.02 0.02 0.01 0.02 0.04 0.01 0.01 0.03 0.06v0.02l0.02 0.04v0.02l0.01 0.02v0.02 0.02l0.01 0.02v0.02 0.02 5.55l2.12 2.38h-2.12v7.39h-4.73v-0.03-5.13-0.02-0.02-0.03-0.02l-0.01-0.02v-0.02l-0.01-0.02-0.01-0.03v-0.02l-0.05-0.1-0.01-0.01-0.01-0.02-0.02-0.02-0.01-0.02-0.09-0.09-0.04-0.02-0.01-0.01-0.1-0.05h-0.02l-0.02-0.01h-0.02l-0.03-0.01h-0.02-0.02l-0.02-0.01h-0.03-2.19-0.02l-0.02 0.01h-0.02-0.03l-0.02 0.01h-0.02l-0.02 0.01h-0.02l-0.1 0.05-0.01 0.01-0.04 0.02-0.11 0.11-0.02 0.04-0.01 0.01-0.06 0.12v0.03l-0.01 0.02v0.02l-0.01 0.02v0.02 0.03 0.02 0.02 5.13 0.03h-4.73v-7.39h-2.12l8.49-9.51 3.18 3.56v-1.98z"/>
  <path id="g1f5O0D1sE" d="m86.38 43.39v-10.63h13.59v10.63h-13.59zm1.7-1.33 2.55-2 1.7 0.67 2.55-2.66 3.39 3.54v-7.52h-10.19v7.97zm3.1-6.48 0.12 0.02h0.05l0.06 0.01 0.06 0.02 0.05 0.01 0.06 0.02 0.05 0.01 0.06 0.02 0.15 0.06 0.05 0.03 0.04 0.03 0.05 0.02 0.08 0.06 0.05 0.03 0.04 0.03 0.03 0.04 0.04 0.03 0.03 0.04 0.04 0.03 0.09 0.12 0.04 0.08 0.03 0.04 0.02 0.05 0.01 0.04 0.02 0.04 0.01 0.05 0.01 0.04 0.02 0.1v0.05 0.04 0.05 0.05l-0.01 0.05-0.01 0.04-0.01 0.05-0.01 0.04-0.02 0.05-0.01 0.04-0.02 0.04-0.03 0.05-0.04 0.08-0.06 0.08-0.07 0.07-0.03 0.04-0.04 0.03-0.07 0.07-0.05 0.03-0.04 0.03-0.04 0.02-0.05 0.03-0.04 0.03-0.1 0.04-0.05 0.03-0.05 0.02-0.06 0.01-0.05 0.02-0.06 0.02-0.05 0.01-0.12 0.02-0.05 0.01-0.06 0.01h-0.06-0.06l-0.06 0.01-0.07-0.01h-0.06-0.06l-0.06-0.01-0.05-0.01-0.12-0.02-0.05-0.01-0.06-0.02-0.05-0.02-0.06-0.01-0.05-0.02-0.05-0.03-0.1-0.04-0.04-0.03-0.05-0.03-0.04-0.02-0.04-0.03-0.05-0.03-0.07-0.07-0.04-0.03-0.03-0.04-0.07-0.07-0.06-0.08-0.04-0.08-0.03-0.05-0.02-0.04-0.01-0.04-0.02-0.05-0.01-0.04-0.01-0.05-0.01-0.04-0.01-0.05v-0.05-0.05-0.04-0.05l0.02-0.1 0.01-0.04 0.01-0.05 0.02-0.04 0.01-0.04 0.02-0.05 0.03-0.04 0.04-0.08 0.09-0.12 0.04-0.03 0.03-0.04 0.04-0.03 0.03-0.04 0.04-0.03 0.05-0.03 0.08-0.06 0.05-0.02 0.04-0.03 0.05-0.03 0.15-0.06 0.06-0.02 0.05-0.01 0.06-0.02 0.05-0.01 0.06-0.02 0.06-0.01h0.05l0.12-0.02h0.06 0.07 0.06 0.06z"/>
  <path id="d1sRTbcRVS" d="m47.46 33.76h-4.32v8.72h7.51v-6.37h1.13v7.37h-9.76v-10.72h5.44v1zm0.75 1.77v-2.77l3.57 2.77h-3.57z"/>
  <path id="b1Gv0xgInI" d="m146.22 32.76c0.95 0 1.73 0.77 1.73 1.72v0c0 0.96-0.78 1.73-1.73 1.73h-7.14c-0.96 0-1.73-0.77-1.73-1.73v0c0-0.95 0.77-1.72 1.73-1.72h7.14z"/>
  <path id="a3PY56zkDT" d="m146.22 36.07c0.95 0 1.73 0.77 1.73 1.72v0c0 0.96-0.78 1.73-1.73 1.73h-7.14c-0.96 0-1.73-0.77-1.73-1.73v0c0-0.95 0.77-1.72 1.73-1.72h7.14z"/>
  <path id="a4HFMeXXY" d="m146.22 39.66c0.95 0 1.73 0.77 1.73 1.72v0c0 0.96-0.78 1.73-1.73 1.73h-7.14c-0.96 0-1.73-0.77-1.73-1.73v0c0-0.95 0.77-1.72 1.73-1.72h7.14z"/>
 </defs>
 <g transform="translate(.84746 19.492)">
  <use width="100%" height="100%" fill-opacity="0" stroke="#4285f4" stroke-width="2" xlink:href="#b7n6ICDteE"/>
  <use width="100%" height="100%" fill-opacity="0" xlink:href="#k50ni86SIE"/>
  <use width="100%" height="100%" fill-opacity="0" stroke="#a434b7" stroke-width="2" xlink:href="#k50ni86SIE"/>
  <use width="100%" height="100%" fill-opacity="0" stroke="#77c800" stroke-width="2" xlink:href="#k1oScKCyPq"/>
  <use width="100%" height="100%" fill-opacity="0" stroke="#a434b7" stroke-width="2" xlink:href="#h7SCWcbfD"/>
  <use width="100%" height="100%" fill="#a434b7" xlink:href="#d71ebFIRKX"/>
  <use width="100%" height="100%" fill-opacity="0" stroke-opacity="0" xlink:href="#d71ebFIRKX"/>
  <use width="100%" height="100%" fill-opacity="0" stroke="#a434b7" stroke-width="2" xlink:href="#aflYMXM6h"/>
  <use width="100%" height="100%" fill="#a434b7" xlink:href="#i22nOBYKr"/>
  <use width="100%" height="100%" fill-opacity="0" stroke-opacity="0" xlink:href="#i22nOBYKr"/>
  <use width="100%" height="100%" fill-opacity="0" xlink:href="#bSwrWQ3nb"/>
  <use width="100%" height="100%" fill-opacity="0" stroke="#a434b7" stroke-width="3" xlink:href="#bSwrWQ3nb"/>
  <use width="100%" height="100%" fill="#a434b7" xlink:href="#c9eTLIctfI"/>
  <use width="100%" height="100%" fill-opacity="0" stroke-opacity="0" xlink:href="#c9eTLIctfI"/>
  <use width="100%" height="100%" fill="#a434b7" xlink:href="#a6w3swPyB"/>
  <use width="100%" height="100%" fill-opacity="0" stroke="#a434b7" stroke-width="3" xlink:href="#g11YjMMuwj"/>
  <use width="100%" height="100%" fill="#a434b7" xlink:href="#b2xCcqQLNv"/>
  <use width="100%" height="100%" fill="#a434b7" xlink:href="#g1f5O0D1sE"/>
  <use width="100%" height="100%" fill="#4285f4" xlink:href="#d1sRTbcRVS"/>
  <use width="100%" height="100%" fill-opacity="0" stroke="#77c800" stroke-width="2" xlink:href="#b1Gv0xgInI"/>
  <use width="100%" height="100%" fill-opacity="0" stroke="#77c800" stroke-width="2" xlink:href="#a3PY56zkDT"/>
  <use width="100%" height="100%" fill-opacity="0" stroke="#77c800" stroke-width="2" xlink:href="#a4HFMeXXY"/>
 </g>
</svg>
