<?xml version="1.0" encoding="UTF-8" standalone="no"?>
<!DOCTYPE svg PUBLIC "-//W3C//DTD SVG 1.1//EN" "http://www.w3.org/Graphics/SVG/1.1/DTD/svg11.dtd">
<svg version="1.1" xmlns="http://www.w3.org/2000/svg" xmlns:xlink="http://www.w3.org/1999/xlink" preserveAspectRatio="xMidYMid meet" viewBox="0 0 640 640" width="200" height="200"><defs><path d="M17.04 494.48C7.67 494.48 0 486.81 0 477.44C0 437.58 0 118.66 0 78.79C0 69.42 7.67 61.76 17.04 61.76C77.63 61.76 562.37 61.76 622.96 61.76C632.33 61.76 640 69.42 640 78.79C640 118.66 640 437.58 640 477.44C640 486.81 632.33 494.48 622.96 494.48C501.78 494.48 77.63 494.48 17.04 494.48Z" id="aFsi2Dajn"></path><path d="M612.74 88.73C612.74 88.73 612.74 88.73 612.74 88.73C612.74 284.82 612.74 393.76 612.74 415.55C612.74 415.55 612.74 415.55 612.74 415.55C261.28 415.55 66.03 415.55 26.97 415.55C26.97 415.55 26.97 415.55 26.97 415.55C26.97 219.46 26.97 110.52 26.97 88.73C26.97 88.73 26.97 88.73 26.97 88.73C378.43 88.73 573.69 88.73 612.74 88.73Z" id="a1xc9R4psJ"></path><path d="M162.98 560.35C162.98 550.98 170.65 543.32 180.02 543.32C208.01 543.32 431.99 543.32 459.98 543.32C469.35 543.32 477.02 550.98 477.02 560.35C477.02 561.55 477.02 567.51 477.02 578.24L162.98 578.24C162.98 567.51 162.98 561.55 162.98 560.35Z" id="acs5RJSkP"></path><path d="M373.95 494.2C373.95 494.2 373.95 494.2 373.95 494.2C373.95 525.03 373.95 542.16 373.95 545.59C373.95 545.59 373.95 545.59 373.95 545.59C307.85 545.59 271.12 545.59 263.78 545.59C263.78 545.59 263.78 545.59 263.78 545.59C263.78 514.75 263.78 497.62 263.78 494.2C263.78 494.2 263.78 494.2 263.78 494.2C329.88 494.2 366.6 494.2 373.95 494.2Z" id="aNbLM5Gkm"></path><path d="M339.31 223.6C337.6 223.6 336.47 224.74 336.47 226.44C336.47 231.98 336.47 276.27 336.47 281.81C336.47 283.51 337.6 284.65 339.31 284.65C345.24 284.65 392.72 284.65 398.65 284.65C400.35 284.65 401.49 283.51 401.49 281.81C401.49 276.27 401.49 231.98 401.49 226.44C401.49 225.02 400.07 223.6 398.65 223.6C386.78 223.6 345.24 223.6 339.31 223.6Z" id="arAZINIX"></path><path d="M424.77 176.47C423.07 176.47 421.93 177.6 421.93 179.31C421.93 189.59 421.93 271.82 421.93 282.09C421.93 283.8 423.07 284.93 424.77 284.93C430.71 284.93 478.18 284.93 484.12 284.93C485.82 284.93 486.96 283.8 486.96 282.09C486.96 271.82 486.96 189.59 486.96 179.31C486.96 177.89 485.82 176.47 484.12 176.47C472.25 176.47 430.71 176.47 424.77 176.47Z" id="c2fM59xSHr"></path><path d="M510.24 125.08C508.54 125.08 507.4 126.21 507.4 127.91C507.4 143.33 507.4 266.68 507.4 282.09C507.4 283.8 508.54 284.93 510.24 284.93C516.17 284.93 563.65 284.93 569.58 284.93C571.29 284.93 572.42 283.8 572.42 282.09C572.42 266.68 572.42 143.33 572.42 127.91C572.42 126.21 571.29 125.08 569.58 125.08C557.71 125.08 516.17 125.08 510.24 125.08Z" id="ap5NDtqdy"></path><path d="M188.41 128.46L191.57 128.78L194.68 129.22L197.75 129.78L200.78 130.47L203.76 131.26L206.7 132.18L209.58 133.2L212.41 134.33L215.19 135.57L217.9 136.91L220.56 138.35L223.15 139.89L225.68 141.53L228.14 143.25L230.52 145.07L232.84 146.98L235.07 148.98L237.23 151.06L239.31 153.21L241.3 155.45L243.21 157.77L245.03 160.15L246.76 162.61L248.4 165.14L249.94 167.73L251.38 170.38L252.72 173.1L253.96 175.87L255.09 178.7L256.11 181.59L257.02 184.52L257.82 187.51L258.5 190.54L259.07 193.61L259.51 196.72L259.83 199.87L260.02 203.06L260.09 206.28L260.02 209.5L259.83 212.69L259.51 215.84L259.07 218.96L258.5 222.03L257.82 225.06L257.02 228.04L256.11 230.98L255.09 233.86L253.96 236.69L252.72 239.46L251.38 242.18L249.94 244.84L248.4 247.43L246.76 249.95L245.03 252.41L243.21 254.8L241.3 257.11L239.31 259.35L237.23 261.51L235.07 263.59L232.84 265.58L230.52 267.49L228.14 269.31L225.68 271.04L223.15 272.68L220.56 274.22L217.9 275.66L215.19 277L212.41 278.23L209.58 279.37L206.7 280.39L203.76 281.3L200.78 282.1L197.75 282.78L194.68 283.34L191.57 283.79L188.41 284.11L185.23 284.3L182.01 284.37L178.78 284.3L175.6 284.11L172.44 283.79L169.33 283.34L166.26 282.78L163.23 282.1L160.25 281.3L157.31 280.39L154.43 279.37L151.6 278.23L148.82 277L146.11 275.66L143.45 274.22L140.86 272.68L138.33 271.04L135.88 269.31L133.49 267.49L131.18 265.58L128.94 263.59L126.78 261.51L124.7 259.35L122.71 257.11L120.8 254.8L118.98 252.41L117.25 249.95L115.61 247.43L114.07 244.84L112.63 242.18L111.29 239.46L110.05 236.69L108.92 233.86L107.9 230.98L106.99 228.04L106.19 225.06L105.51 222.03L104.94 218.96L104.5 215.84L104.18 212.69L103.99 209.5L103.92 206.28L103.99 203.06L104.18 199.87L104.5 196.72L104.94 193.61L105.51 190.54L106.19 187.51L106.99 184.52L107.9 181.59L108.92 178.7L110.05 175.87L111.29 173.1L112.63 170.38L114.07 167.73L115.61 165.14L117.25 162.61L118.98 160.15L120.8 157.77L122.71 155.45L124.7 153.21L126.78 151.06L128.94 148.98L131.18 146.98L133.49 145.07L135.88 143.25L138.33 141.53L140.86 139.89L143.45 138.35L146.11 136.91L148.82 135.57L151.6 134.33L154.43 133.2L157.31 132.18L160.25 131.26L163.23 130.47L166.26 129.78L169.33 129.22L172.44 128.78L175.6 128.46L178.78 128.26L182.01 128.2L185.23 128.26L188.41 128.46ZM178.76 166.66L177.16 166.82L175.58 167.05L174.02 167.33L172.48 167.67L170.97 168.08L169.48 168.54L168.01 169.06L166.57 169.63L165.16 170.25L163.78 170.93L162.43 171.66L161.11 172.44L159.82 173.27L158.57 174.14L157.35 175.07L156.17 176.03L155.03 177.05L153.93 178.1L152.87 179.2L151.85 180.33L150.88 181.51L149.95 182.72L149.07 183.97L148.23 185.26L147.44 186.58L146.71 187.93L146.02 189.31L145.39 190.73L144.81 192.17L144.29 193.64L143.82 195.14L143.41 196.67L143.07 198.22L142.78 199.79L142.55 201.38L142.39 203L142.29 204.63L142.25 206.28L142.29 207.91L142.38 209.53L142.55 211.13L142.77 212.71L143.05 214.27L143.4 215.81L143.8 217.32L144.26 218.81L144.78 220.28L145.35 221.72L145.98 223.13L146.65 224.51L147.38 225.86L148.16 227.18L148.99 228.47L149.87 229.72L150.79 230.94L151.76 232.11L152.77 233.26L153.82 234.36L154.92 235.42L156.06 236.43L157.23 237.41L158.45 238.34L159.69 239.22L160.98 240.06L162.3 240.84L163.65 241.58L165.04 242.26L166.45 242.9L167.89 243.48L169.37 244L170.87 244.46L172.39 244.87L173.94 245.22L175.51 245.51L177.1 245.74L178.72 245.9L180.35 246L182.01 246.03L183.64 246L185.25 245.9L186.85 245.74L188.43 245.51L189.99 245.22L191.53 244.87L193.04 244.46L194.54 244L196 243.48L197.44 242.9L198.85 242.26L200.23 241.58L201.58 240.84L202.9 240.06L204.19 239.22L205.44 238.34L206.66 237.41L207.84 236.43L208.98 235.42L210.08 234.36L211.14 233.26L212.16 232.11L213.13 230.94L214.06 229.72L214.94 228.47L215.78 227.18L216.57 225.86L217.3 224.51L217.99 223.13L218.62 221.72L219.2 220.28L219.72 218.81L220.19 217.32L220.6 215.81L220.95 214.27L221.23 212.71L221.46 211.13L221.62 209.53L221.72 207.91L221.76 206.28L221.72 204.65L221.63 203.03L221.47 201.44L221.24 199.86L220.96 198.3L220.61 196.76L220.21 195.24L219.75 193.75L219.23 192.29L218.66 190.85L218.03 189.44L217.36 188.05L216.63 186.7L215.85 185.38L215.02 184.1L214.14 182.84L213.22 181.63L212.25 180.45L211.24 179.31L210.19 178.21L209.09 177.15L207.95 176.13L206.78 175.16L205.57 174.23L204.32 173.34L203.03 172.51L201.71 171.72L200.36 170.98L198.97 170.3L197.56 169.67L196.12 169.09L194.64 168.57L193.15 168.1L191.62 167.69L190.07 167.34L188.5 167.05L186.91 166.83L185.29 166.66L183.66 166.56L182.01 166.53L180.37 166.56L178.76 166.66Z" id="a1iNzcowU"></path><path d="M182.29 246.32C160.14 246.32 142.54 228.43 142.54 206.57C142.54 184.42 160.43 166.81 182.29 166.81C182.57 166.81 183.14 166.81 183.43 166.81C183.43 162.95 183.43 132.06 183.43 128.2C183.14 128.2 182.57 128.2 182.29 128.2C139.13 128.2 104.21 163.12 104.21 206.28C104.21 249.44 139.13 284.37 182.29 284.37C203.87 284.37 223.18 275.56 237.37 261.65C235.58 259.85 226.58 250.86 210.4 234.68C199.04 242.44 189.67 246.32 182.29 246.32Z" id="a2yfez44wK"></path><path d="M344.99 377.78C340.16 377.78 336.47 374.09 336.47 369.26C336.47 369.26 336.47 369.26 336.47 369.26C336.47 364.44 340.16 360.75 344.99 360.75C359.84 360.75 478.64 360.75 493.49 360.75C498.03 360.75 502.01 364.44 502.01 369.26C502.01 369.26 502.01 369.26 502.01 369.26C502.01 373.81 498.03 377.78 493.49 377.78C463.79 377.78 359.84 377.78 344.99 377.78Z" id="diy8vUBRw"></path><path d="M306.65 461.54C301.83 461.54 298.14 457.57 298.14 453.03C298.14 453.03 298.14 453.03 298.14 453.03C298.14 448.48 301.83 444.51 306.65 444.51C309.07 444.51 328.38 444.51 330.79 444.51C335.62 444.51 339.31 448.2 339.31 453.03C339.31 453.03 339.31 453.03 339.31 453.03C339.59 457.85 335.62 461.54 331.07 461.54C326.19 461.54 309.1 461.54 306.65 461.54Z" id="bD5yp0BAy"></path><path d="M344.7 335.19C339.88 335.19 336.18 331.5 336.18 326.67C336.18 326.67 336.18 326.67 336.18 326.67C336.18 322.13 339.88 318.15 344.7 318.15C366.71 318.15 542.75 318.15 564.76 318.15C569.3 318.15 573.27 321.85 573.27 326.67C573.27 326.67 573.27 326.67 573.27 326.67C573.27 331.22 569.58 335.19 564.76 335.19C520.75 335.19 366.71 335.19 344.7 335.19Z" id="fUfHecm7R"></path><path d="M71.84 377.78C67.29 377.78 63.32 374.09 63.32 369.26C63.32 369.26 63.32 369.26 63.32 369.26C63.32 364.44 67.01 360.75 71.84 360.75C87.48 360.75 212.64 360.75 228.29 360.75C233.11 360.75 236.81 364.44 236.81 369.26C236.81 369.26 236.81 369.26 236.81 369.26C236.81 373.81 233.11 377.78 228.29 377.78C197 377.78 87.48 377.78 71.84 377.78Z" id="b1wR4T57EN"></path><path d="M71.84 335.19C67.29 335.19 63.32 331.5 63.32 326.67C63.32 326.67 63.32 326.67 63.32 326.67C63.32 322.13 67.01 318.15 71.84 318.15C93.84 318.15 269.88 318.15 291.89 318.15C296.72 318.15 300.41 321.85 300.41 326.67C300.41 326.67 300.41 326.67 300.41 326.67C300.41 331.22 296.72 335.19 291.89 335.19C247.88 335.19 93.84 335.19 71.84 335.19Z" id="b2KManUZ6V"></path></defs><g><g><g><use xlink:href="#aFsi2Dajn" opacity="1" fill="#e7e7e7" fill-opacity="1"></use><g><use xlink:href="#aFsi2Dajn" opacity="1" fill-opacity="0" stroke="#000000" stroke-width="1" stroke-opacity="0"></use></g></g><g><use xlink:href="#a1xc9R4psJ" opacity="1" fill="#ffffff" fill-opacity="1"></use><g><use xlink:href="#a1xc9R4psJ" opacity="1" fill-opacity="0" stroke="#000000" stroke-width="1" stroke-opacity="0"></use></g></g><g><use xlink:href="#acs5RJSkP" opacity="1" fill="#d1d1d1" fill-opacity="1"></use><g><use xlink:href="#acs5RJSkP" opacity="1" fill-opacity="0" stroke="#000000" stroke-width="1" stroke-opacity="0"></use></g></g><g><use xlink:href="#aNbLM5Gkm" opacity="1" fill="#d1d1d1" fill-opacity="1"></use><g><use xlink:href="#aNbLM5Gkm" opacity="1" fill-opacity="0" stroke="#000000" stroke-width="1" stroke-opacity="0"></use></g></g><g><use xlink:href="#arAZINIX" opacity="1" fill="#a434b7" fill-opacity="1"></use><g><use xlink:href="#arAZINIX" opacity="1" fill-opacity="0" stroke="#000000" stroke-width="1" stroke-opacity="0"></use></g></g><g><use xlink:href="#c2fM59xSHr" opacity="1" fill="#a434b7" fill-opacity="1"></use><g><use xlink:href="#c2fM59xSHr" opacity="1" fill-opacity="0" stroke="#000000" stroke-width="1" stroke-opacity="0"></use></g></g><g><use xlink:href="#ap5NDtqdy" opacity="1" fill="#a434b7" fill-opacity="1"></use><g><use xlink:href="#ap5NDtqdy" opacity="1" fill-opacity="0" stroke="#000000" stroke-width="1" stroke-opacity="0"></use></g></g><g><use xlink:href="#a1iNzcowU" opacity="1" fill="#ffca28" fill-opacity="1"></use><g><use xlink:href="#a1iNzcowU" opacity="1" fill-opacity="0" stroke="#000000" stroke-width="1" stroke-opacity="0"></use></g></g><g><use xlink:href="#a2yfez44wK" opacity="1" fill="#77c800" fill-opacity="1"></use><g><use xlink:href="#a2yfez44wK" opacity="1" fill-opacity="0" stroke="#000000" stroke-width="1" stroke-opacity="0"></use></g></g><g><use xlink:href="#diy8vUBRw" opacity="1" fill="#e7e7e7" fill-opacity="1"></use><g><use xlink:href="#diy8vUBRw" opacity="1" fill-opacity="0" stroke="#000000" stroke-width="1" stroke-opacity="0"></use></g></g><g><use xlink:href="#bD5yp0BAy" opacity="1" fill="#ffffff" fill-opacity="1"></use><g><use xlink:href="#bD5yp0BAy" opacity="1" fill-opacity="0" stroke="#000000" stroke-width="1" stroke-opacity="0"></use></g></g><g><use xlink:href="#fUfHecm7R" opacity="1" fill="#e7e7e7" fill-opacity="1"></use><g><use xlink:href="#fUfHecm7R" opacity="1" fill-opacity="0" stroke="#000000" stroke-width="1" stroke-opacity="0"></use></g></g><g><use xlink:href="#b1wR4T57EN" opacity="1" fill="#e7e7e7" fill-opacity="1"></use><g><use xlink:href="#b1wR4T57EN" opacity="1" fill-opacity="0" stroke="#000000" stroke-width="1" stroke-opacity="0"></use></g></g><g><use xlink:href="#b2KManUZ6V" opacity="1" fill="#e7e7e7" fill-opacity="1"></use><g><use xlink:href="#b2KManUZ6V" opacity="1" fill-opacity="0" stroke="#000000" stroke-width="1" stroke-opacity="0"></use></g></g></g></g></svg>