<svg xmlns="http://www.w3.org/2000/svg" xmlns:xlink="http://www.w3.org/1999/xlink" width="172.87" height="169.72" version="1.1" viewBox="0 0 259.3 254.58"><defs><path id="e5K7LwzShy" d="m161.47 107.13 0.16 0.09 0.15 0.09 0.13 0.11 0.14 0.11 0.12 0.11 0.11 0.12 0.11 0.13 0.1 0.14 0.18 0.28 0.08 0.16 0.08 0.15 0.06 0.16 0.06 0.17 0.06 0.18 0.05 0.17 0.05 0.19 0.04 0.18 0.03 0.2 0.03 0.19 0.03 0.2 0.02 0.21 0.01 0.21 0.02 0.21 0.01 0.22v0.91l-0.01 0.23-0.03 0.72-0.02 0.25-0.01 0.25-0.02 0.25-0.02 0.26-0.02 0.25-2.14 15.84 1.02 0.85 2.18 1.98 2.1 2.07 2.01 2.14 1.91 2.22 0.16 0.19 15.51-2.37 0.75-0.06 0.72-0.06 0.24-0.01 0.23-0.02h0.23l0.23-0.01h0.66l0.42 0.02 0.2 0.01 0.4 0.04 0.19 0.03 0.19 0.04 0.19 0.03 0.18 0.05 0.34 0.1 0.16 0.06 0.32 0.14 0.15 0.08 0.14 0.09 0.14 0.1 0.13 0.1 0.13 0.11 0.12 0.11 0.22 0.26 0.11 0.14 0.18 0.3 0.08 0.17 0.08 0.18 10.53 26.13 0.07 0.18 0.1 0.36 0.06 0.36 0.02 0.18v0.35l-0.01 0.18-0.02 0.17-0.03 0.18-0.04 0.18-0.1 0.34-0.06 0.18-0.07 0.17-0.08 0.17-0.18 0.34-0.1 0.17-0.22 0.34-0.12 0.17-0.13 0.16-0.13 0.17-0.14 0.16-0.14 0.17-0.15 0.16-0.48 0.48-0.34 0.32-0.36 0.32-0.19 0.15-0.19 0.16-0.19 0.15-0.4 0.3-12.45 9.92 0.04 0.34 0.17 2.98 0.07 3-0.05 3.01-0.17 3.02-0.13 1.35 12.33 9.47 0.2 0.15 0.2 0.14 0.38 0.3 0.54 0.45 0.34 0.3 0.16 0.16 0.16 0.15 0.3 0.32 0.28 0.32 0.13 0.16 0.24 0.32 0.11 0.17 0.11 0.16 0.1 0.17 0.09 0.17 0.16 0.34 0.07 0.17 0.06 0.17 0.1 0.34 0.03 0.18 0.03 0.17 0.02 0.18 0.01 0.17v0.18l-0.02 0.36-0.03 0.17-0.04 0.19-0.05 0.18-0.06 0.18-0.07 0.18-10.79 26.5-0.08 0.18-0.08 0.17-0.09 0.16-0.1 0.15-0.1 0.14-0.11 0.14-0.12 0.13-0.12 0.12-0.26 0.22-0.14 0.1-0.15 0.09-0.3 0.16-0.16 0.08-0.51 0.18-0.18 0.05-0.57 0.12-0.2 0.03-0.2 0.02-0.2 0.03-0.21 0.01-0.22 0.02-0.21 0.01-0.22 0.01h-0.91l-0.96-0.04-0.25-0.01-0.25-0.02-0.25-0.01-15.44-1.84-0.85 1.05-1.99 2.28-2.07 2.19-2.14 2.1-2.21 2.01-0.24 0.2 1.97 15.76 0.08 0.5 0.06 0.48 0.06 0.72 0.01 0.24 0.02 0.46v0.45l-0.02 0.44-0.06 0.63-0.03 0.2-0.08 0.4-0.1 0.38-0.12 0.36-0.07 0.17-0.08 0.17-0.08 0.16-0.09 0.16-0.2 0.3-0.11 0.14-0.11 0.13-0.12 0.13-0.13 0.12-0.14 0.12-0.14 0.11-0.15 0.1-0.16 0.1-0.17 0.09-0.17 0.08-25.79 11.34-0.18 0.07-0.18 0.06-0.17 0.05-0.17 0.04-0.17 0.03-0.17 0.02-0.17 0.01h-0.17l-0.17-0.01-0.16-0.02-0.17-0.03-0.16-0.04-0.16-0.05-0.17-0.05-0.32-0.14-0.32-0.16-0.16-0.1-0.15-0.1-0.32-0.22-0.16-0.12-0.15-0.13-0.16-0.13-0.32-0.28-0.31-0.31-0.16-0.15-0.16-0.17-0.15-0.16-0.16-0.18-0.16-0.17-0.32-0.36-0.16-0.19-0.16-0.18-0.16-0.19-0.17-0.2-9.4-12.49-0.31 0.04-2.92 0.25-2.93 0.13-2.95 0.01-2.95-0.1-1.31-0.1-9.54 12.82-0.16 0.2-0.17 0.19-0.48 0.57-0.17 0.19-0.16 0.18-0.16 0.17-0.16 0.18-0.15 0.16-0.16 0.17-0.16 0.16-0.32 0.3-0.32 0.28-0.16 0.13-0.15 0.13-0.16 0.12-0.32 0.22-0.16 0.1-0.32 0.18-0.16 0.07-0.17 0.07-0.32 0.12-0.17 0.04-0.16 0.03-0.17 0.03-0.16 0.02h-0.34l-0.17-0.01-0.34-0.06-0.18-0.04-0.17-0.06-0.18-0.07-25.68-10.46-0.17-0.07-0.17-0.08-0.16-0.1-0.15-0.09-0.14-0.11-0.13-0.11-0.13-0.12-0.12-0.12-0.12-0.13-0.2-0.28-0.1-0.15-0.08-0.15-0.08-0.16-0.08-0.17-0.07-0.17-0.06-0.18-0.05-0.18-0.06-0.18-0.04-0.19-0.04-0.2-0.03-0.19-0.03-0.21-0.03-0.2-0.02-0.21-0.03-0.66v-0.22l0.04-0.92 0.02-0.24 0.06-0.48 0.03-0.25 0.03-0.24 0.08-0.5 2.13-15.84-1.01-0.84-2.18-1.99-2.1-2.07-2.01-2.14-1.92-2.22-0.22-0.28-15.4 2.35-0.24 0.05-0.25 0.04-0.24 0.04-0.23 0.03-0.48 0.06-0.46 0.04-0.22 0.02-0.23 0.01h-0.22l-0.22 0.01-0.22-0.01h-0.21l-0.21-0.02-0.2-0.01-0.21-0.02-0.2-0.03-0.19-0.03-0.19-0.04-0.19-0.05-0.36-0.1-0.17-0.06-0.17-0.07-0.16-0.08-0.15-0.08-0.16-0.08-0.42-0.3-0.13-0.12-0.12-0.12-0.12-0.13-0.11-0.14-0.1-0.14-0.1-0.15-0.09-0.16-0.08-0.17-0.08-0.18-10.53-26.13-0.07-0.18-0.1-0.36-0.03-0.17-0.03-0.18-0.02-0.34 0.01-0.18 0.01-0.17 0.06-0.34 0.04-0.16 0.05-0.17 0.06-0.17 0.06-0.16 0.16-0.34 0.18-0.32 0.1-0.17 0.11-0.16 0.12-0.17 0.12-0.16 0.13-0.16 0.13-0.17 0.14-0.16 0.14-0.17 0.3-0.32 0.16-0.17 0.17-0.16 0.16-0.17 0.17-0.16 0.36-0.34 0.18-0.16 0.18-0.17 0.57-0.51 12.4-9.88-0.03-0.27-0.18-2.99-0.06-3 0.05-3.01 0.17-3.02 0.13-1.34-12.33-9.48-0.2-0.16-0.18-0.17-0.19-0.16-0.54-0.48-0.34-0.32-0.16-0.16-0.17-0.16-0.45-0.48-0.28-0.32-0.26-0.32-0.12-0.16-0.22-0.32-0.1-0.16-0.18-0.32-0.08-0.16-0.07-0.17-0.07-0.16-0.05-0.16-0.05-0.17-0.04-0.17-0.03-0.17-0.02-0.16-0.01-0.17-0.01-0.18 0.01-0.17 0.02-0.17 0.02-0.18 0.04-0.18 0.05-0.17 0.05-0.18 0.07-0.19 10.8-26.5 0.07-0.17 0.09-0.18 0.09-0.16 0.1-0.15 0.11-0.15 0.11-0.14 0.12-0.14 0.12-0.12 0.13-0.12 0.28-0.22 0.15-0.1 0.15-0.09 0.16-0.09 0.16-0.08 0.34-0.14 0.18-0.06 0.18-0.05 0.38-0.1 0.19-0.04 0.2-0.03 0.21-0.03 0.2-0.03 0.21-0.02 0.21-0.01 0.22-0.01h0.22l0.22-0.01 0.23 0.01h0.22l0.23 0.02 0.24 0.01 0.23 0.02 0.24 0.02 0.23 0.03 0.48 0.06 0.25 0.04 15.44 1.83 0.85-1.05 1.99-2.28 2.07-2.19 2.14-2.1 2.21-2.01 0.24-0.2-1.98-15.76-0.02-0.25-0.01-0.26-0.02-0.25-0.01-0.25-0.02-0.24-0.01-0.25v-0.24l-0.01-0.24-0.01-0.23v-0.23l0.01-0.23v-0.23l0.02-0.44 0.01-0.21 0.02-0.21 0.03-0.21 0.02-0.2 0.04-0.2 0.03-0.19 0.04-0.19 0.1-0.36 0.06-0.18 0.06-0.17 0.07-0.16 0.16-0.32 0.09-0.15 0.09-0.14 0.11-0.14 0.1-0.13 0.24-0.24 0.14-0.12 0.14-0.11 0.14-0.1 0.32-0.18 0.18-0.08 25.79-11.34 0.18-0.08 0.18-0.06 0.17-0.05 0.18-0.04 0.17-0.03 0.18-0.02 0.17-0.01h0.35l0.17 0.02 0.34 0.06 0.34 0.1 0.17 0.06 0.16 0.07 0.17 0.07 0.17 0.09 0.16 0.09 0.16 0.1 0.17 0.1 0.48 0.36 0.16 0.13 0.32 0.28 0.31 0.31 0.3 0.32 0.16 0.17 0.45 0.54 0.14 0.19 0.3 0.38 0.28 0.4 9.41 12.49 0.3-0.04 2.92-0.24 2.94-0.14 2.94-0.01 2.95 0.11 1.32 0.1 9.54-12.82 0.14-0.21 0.15-0.2 0.14-0.2 0.15-0.2 0.3-0.38 0.15-0.18 0.16-0.18 0.15-0.18 0.16-0.17 0.15-0.16 0.32-0.32 0.16-0.15 0.32-0.28 0.16-0.13 0.32-0.24 0.17-0.11 0.16-0.1 0.17-0.1 0.16-0.09 0.34-0.16 0.34-0.12 0.17-0.05 0.34-0.08 0.17-0.02 0.17-0.01 0.18-0.01 0.17 0.01 0.18 0.01 0.17 0.03 0.18 0.03 0.17 0.05 0.18 0.05 0.17 0.07 25.69 10.46 0.17 0.08zm-36.54 43.17-1.57-0.45-1.58-0.39-1.59-0.32-1.59-0.26-1.59-0.18-1.59-0.12-1.59-0.06-1.59 0.01-1.58 0.07-1.57 0.13-1.56 0.19-1.56 0.26-1.54 0.32-1.53 0.37-1.51 0.44-1.49 0.49-1.48 0.55-1.46 0.61-1.43 0.66-1.41 0.72-1.38 0.77-1.35 0.83-1.33 0.88-1.29 0.93-1.26 0.98-1.23 1.03-1.19 1.08-1.16 1.13-1.11 1.18-1.07 1.23-1.03 1.27-0.98 1.32-0.94 1.37-0.89 1.41-0.84 1.45-0.79 1.5-0.74 1.54-0.68 1.58-0.61 1.6-0.55 1.62-0.48 1.62-0.42 1.63-0.35 1.63-0.28 1.63-0.22 1.63-0.15 1.63-0.09 1.63-0.03 1.62 0.04 1.61 0.09 1.61 0.16 1.6 0.21 1.58 0.28 1.57 0.34 1.55 0.39 1.54 0.45 1.52 0.5 1.5 0.56 1.47 0.62 1.45 0.67 1.43 0.73 1.39 0.78 1.37 0.83 1.34 0.88 1.3 0.93 1.27 0.98 1.23 1.04 1.2 1.08 1.15 1.13 1.12 1.17 1.07 1.23 1.02 1.27 0.98 1.31 0.93 1.36 0.88 1.4 0.82 1.45 0.78 1.49 0.72 1.53 0.66 1.56 0.59 1.56 0.53 1.58 0.46 1.58 0.39 1.59 0.32 1.59 0.25 1.59 0.19 1.59 0.12 1.59 0.06 1.58-0.01 1.58-0.07 1.58-0.14 1.56-0.19 1.56-0.26 1.54-0.31 1.52-0.38 1.52-0.43 1.49-0.5 1.48-0.55 1.45-0.6 1.43-0.67 1.41-0.72 1.39-0.77 1.35-0.82 1.33-0.88 1.29-0.93 1.26-0.98 1.23-1.04 1.19-1.08 1.15-1.13 1.12-1.18 1.07-1.23 1.03-1.27 0.98-1.32 0.94-1.36 0.89-1.41 0.84-1.46 0.79-1.49 0.73-1.54 0.68-1.58 0.62-1.61 0.55-1.61 0.48-1.62 0.42-1.63 0.34-1.63 0.29-1.63 0.21-1.64 0.16-1.63 0.09-1.62 0.03-1.62-0.04-1.62-0.09-1.61-0.16-1.59-0.22-1.59-0.27-1.57-0.34-1.55-0.39-1.54-0.45-1.52-0.51-1.49-0.56-1.48-0.61-1.45-0.68-1.42-0.72-1.4-0.78-1.37-0.83-1.33-0.88-1.31-0.93-1.27-0.99-1.23-1.03-1.19-1.08-1.16-1.13-1.11-1.18-1.07-1.22-1.03-1.27-0.97-1.31-0.93-1.36-0.88-1.41-0.83-1.44-0.77-1.49-0.72-1.53-0.66-1.56-0.6z"/><path id="br5Pe1aCW" d="m179.13 190.07c0 38.27-29.94 69.33-66.81 69.33s-66.81-31.06-66.81-69.33c0-38.26 29.94-69.33 66.81-69.33s66.81 31.07 66.81 69.33z"/><path id="g2NB20zWBg" d="m120.3 190.07c0 4.41-3.58 7.99-7.98 7.99-4.41 0-7.98-3.58-7.98-7.99 0-4.4 3.57-7.98 7.98-7.98 4.4 0 7.98 3.58 7.98 7.98z"/><path id="bXv6BgzEk" d="m111.32 123.89h2v10h-2z"/><path id="f2zb2sw5j2" d="m111.32 246.57h2v10h-2z"/><path id="f2cExv9tty" d="m175.51 189.07v2h-10v-2z"/><path id="c1jUIyfk4m" d="m58.69 189.07v2h-10v-2z"/><path id="g2leou0I8a" d="m147.99 136.51 1.68 1.08-5.39 8.42-1.69-1.08z"/><path id="icDdOqm04" d="m168.1 159.83 1.11 1.66-8.3 5.57-1.11-1.66z"/><path id="g63IufyhD" d="m168.17 222.13-0.95 1.76-8.8-4.75 0.95-1.76z"/><path id="i4Zoyr5qT" d="m146.6 244.97-1.52 1.3-6.5-7.6 1.52-1.3z"/><path id="a1vVGklmMG" d="m82.83 237.16 1.63 1.16-5.77 8.16-1.64-1.15z"/><path id="b5zYj6077" d="m65.21 217.2 1.03 1.72-8.57 5.15-1.03-1.72z"/><path id="c49JFI23n4" d="m65.81 164.37-0.86 1.81-9.04-4.27 0.85-1.81z"/><path id="aDUsmrPV1" d="m84.59 141.85-1.58 1.23-6.16-7.88 1.58-1.23z"/><path id="dlJRbwQUb" d="m118.69 190.07c0 3.52-2.85 6.38-6.37 6.38s-6.38-2.86-6.38-6.38 2.86-6.37 6.38-6.37 6.37 2.85 6.37 6.37z"/><path id="c3od2X4KXw" d="m111.32 136.51h2v47.19h-2z"/><path id="c3VW0VDvyZ" d="m146.13 191.08v-2l-27.44-0.01v2z"/><path id="d31ERgTKr4" d="m111.9 189.24 1.42 1.41-37.56 37.67-1.41-1.41z"/><path id="a1XW3OeET" d="m236.46 31.63 0.1 0.02 0.2 0.06 0.18 0.08 0.18 0.1 0.16 0.12 0.07 0.06 0.07 0.07 0.07 0.08 0.07 0.07 0.07 0.08 0.18 0.27 0.06 0.1 0.1 0.2 0.2 0.44 0.04 0.12 0.05 0.12 0.04 0.13 0.04 0.12 0.12 0.39 0.03 0.14 0.04 0.13 0.04 0.14 0.03 0.14 0.04 0.15 0.03 0.14 0.04 0.14 1.66 9.09 0.73 0.29 1.6 0.71 1.56 0.77 1.53 0.84 1.48 0.88 0.13 0.08 8.36-3.99 0.13-0.05 0.14-0.06 0.14-0.05 0.13-0.06 0.13-0.05 0.14-0.05 0.26-0.1 0.13-0.04 0.12-0.04 0.13-0.04 0.12-0.04 0.13-0.04 0.36-0.09 0.12-0.02 0.11-0.02 0.12-0.02 0.11-0.02 0.11-0.01h0.11l0.11-0.01h0.1l0.11 0.01 0.2 0.02 0.2 0.04 0.09 0.03 0.1 0.03 0.18 0.08 0.08 0.05 0.09 0.06 0.08 0.06 0.09 0.06 0.23 0.23 10.7 12.56 0.07 0.09 0.07 0.08 0.06 0.1 0.1 0.18 0.04 0.1 0.04 0.09 0.03 0.1 0.06 0.3 0.01 0.11v0.31l-0.02 0.22-0.04 0.22-0.09 0.33-0.04 0.11-0.04 0.12-0.05 0.11-0.04 0.11-0.06 0.12-0.05 0.12-0.06 0.11-0.06 0.12-0.06 0.11-0.21 0.36-0.08 0.11-0.24 0.36-0.08 0.11-0.09 0.12-5.25 7.61 0.08 0.18 0.64 1.61 0.58 1.64 0.52 1.67 0.45 1.69 0.17 0.76 8.71 3.08 0.14 0.05 0.14 0.04 0.26 0.1 0.14 0.05 0.13 0.05 0.12 0.05 0.13 0.05 0.48 0.24 0.22 0.12 0.1 0.06 0.11 0.07 0.1 0.07 0.09 0.07 0.1 0.07 0.09 0.07 0.08 0.08 0.08 0.07 0.16 0.16 0.07 0.08 0.06 0.08 0.12 0.18 0.1 0.18 0.04 0.09 0.04 0.1 0.03 0.09 0.03 0.1 0.02 0.1 0.02 0.11 0.01 0.1 0.01 0.11v0.11l-0.01 0.11-1.31 16.45-0.01 0.11-0.04 0.22-0.03 0.1-0.03 0.09-0.04 0.1-0.04 0.09-0.05 0.09-0.1 0.16-0.07 0.08-0.06 0.08-0.14 0.14-0.08 0.07-0.08 0.06-0.09 0.06-0.09 0.07-0.09 0.05-0.1 0.06-0.1 0.05-0.1 0.06-0.33 0.15-0.11 0.04-0.12 0.05-0.24 0.08-0.52 0.16-0.14 0.04-0.13 0.03-0.28 0.08-0.14 0.03-0.15 0.04-0.14 0.03-9.08 1.67-0.29 0.72-0.72 1.6-0.77 1.56-0.83 1.53-0.89 1.49-0.1 0.15 3.98 8.33 0.06 0.13 0.07 0.13 0.06 0.13 0.06 0.12 0.06 0.13 0.05 0.13 0.06 0.13 0.05 0.12 0.04 0.13 0.05 0.13 0.08 0.24 0.04 0.13 0.09 0.36 0.04 0.24 0.01 0.11 0.02 0.12v0.11l0.01 0.11v0.11l-0.01 0.11v0.11l-0.02 0.1-0.01 0.11-0.03 0.1-0.02 0.1-0.03 0.1-0.04 0.09-0.04 0.1-0.15 0.27-0.06 0.08-0.07 0.08-0.07 0.09-0.08 0.07-0.08 0.08-12.56 10.7-0.09 0.08-0.08 0.06-0.09 0.06-0.09 0.05-0.1 0.04-0.18 0.08-0.1 0.03-0.1 0.02-0.09 0.02-0.2 0.02h-0.2l-0.11-0.01-0.1-0.01-0.11-0.02-0.1-0.02-0.11-0.02-0.22-0.06-0.33-0.12-0.11-0.05-0.12-0.04-0.11-0.06-0.12-0.05-0.11-0.06-0.36-0.18-0.24-0.14-0.13-0.07-0.12-0.07-0.12-0.08-0.13-0.07-0.13-0.08-0.12-0.08-7.6-5.24-0.16 0.07-1.61 0.65-1.64 0.58-1.67 0.51-1.69 0.46-0.76 0.17-3.08 8.7-0.06 0.14-0.05 0.14-0.06 0.13-0.06 0.14-0.06 0.13-0.05 0.13-0.06 0.12-0.06 0.13-0.18 0.36-0.06 0.11-0.06 0.12-0.07 0.1-0.06 0.11-0.06 0.1-0.21 0.3-0.06 0.09-0.08 0.08-0.14 0.16-0.08 0.08-0.08 0.07-0.07 0.06-0.09 0.06-0.08 0.06-0.08 0.05-0.09 0.05-0.27 0.12-0.1 0.02-0.1 0.03-0.2 0.02-0.11 0.01h-0.11l-0.11-0.01-16.45-1.3-0.11-0.01-0.22-0.04-0.1-0.03-0.1-0.04-0.1-0.03-0.09-0.05-0.09-0.04-0.09-0.06-0.08-0.05-0.09-0.06-0.08-0.07-0.07-0.07-0.08-0.07-0.14-0.16-0.07-0.09-0.12-0.18-0.18-0.3-0.2-0.44-0.08-0.24-0.05-0.13-0.03-0.12-0.08-0.26-0.03-0.13-0.03-0.14-0.03-0.13-0.06-0.28-0.02-0.14-0.03-0.14-0.02-0.15-1.66-9.08-0.73-0.29-1.6-0.71-1.56-0.78-1.53-0.83-1.49-0.89-0.18-0.11-8.29 3.96-0.13 0.06-0.13 0.07-0.39 0.18-0.13 0.05-0.12 0.06-0.26 0.1-0.12 0.04-0.13 0.04-0.24 0.08-0.12 0.03-0.13 0.03-0.12 0.03-0.11 0.02-0.12 0.02-0.12 0.01-0.11 0.02h-0.12l-0.11 0.01h-0.11l-0.11-0.01h-0.1l-0.11-0.02-0.1-0.01-0.11-0.02-0.1-0.03-0.09-0.03-0.1-0.04-0.09-0.04-0.1-0.04-0.09-0.05-0.08-0.06-0.09-0.06-0.16-0.14-0.08-0.08-0.07-0.08-10.71-12.56-0.07-0.09-0.06-0.08-0.06-0.09-0.05-0.09-0.05-0.1-0.04-0.09-0.03-0.09-0.03-0.1-0.03-0.09-0.03-0.3v-0.31l0.02-0.1 0.01-0.1 0.02-0.11 0.03-0.11 0.02-0.11 0.04-0.1 0.03-0.11 0.04-0.12 0.04-0.11 0.1-0.22 0.1-0.24 0.06-0.11 0.12-0.24 0.14-0.24 0.06-0.12 0.08-0.12 0.07-0.13 0.07-0.12 0.08-0.13 0.07-0.12 0.08-0.13 5.23-7.58-0.06-0.15-0.64-1.61-0.58-1.64-0.52-1.66-0.46-1.7-0.17-0.76-8.7-3.07-0.28-0.12-0.13-0.06-0.13-0.05-0.52-0.24-0.36-0.18-0.33-0.18-0.11-0.07-0.1-0.06-0.1-0.07-0.1-0.06-0.27-0.21-0.08-0.07-0.15-0.15-0.14-0.16-0.12-0.16-0.1-0.18-0.08-0.18-0.03-0.09-0.03-0.1-0.04-0.2-0.01-0.1-0.01-0.11v-0.11l0.01-0.11 1.31-16.45 0.02-0.22 0.03-0.1 0.02-0.11 0.04-0.1 0.03-0.09 0.05-0.1 0.05-0.09 0.05-0.08 0.05-0.09 0.07-0.08 0.06-0.08 0.07-0.08 0.08-0.07 0.07-0.08 0.09-0.07 0.08-0.06 0.09-0.07 0.09-0.06 0.2-0.12 0.1-0.05 0.11-0.06 0.22-0.1 0.12-0.04 0.11-0.05 0.13-0.04 0.24-0.08 0.13-0.04 0.13-0.03 0.13-0.04 0.14-0.03 0.13-0.03 0.14-0.03 0.14-0.02 0.14-0.03 0.15-0.02 0.14-0.03 9.08-1.66 0.29-0.73 0.72-1.59 0.77-1.57 0.83-1.52 0.89-1.49 0.1-0.15-3.98-8.33-0.06-0.14-0.05-0.14-0.06-0.13-0.05-0.14-0.2-0.52-0.08-0.26-0.05-0.12-0.03-0.13-0.04-0.12-0.09-0.36-0.02-0.12-0.03-0.12-0.01-0.11-0.02-0.11-0.01-0.12v-0.1l-0.01-0.11v-0.11l0.01-0.1 0.01-0.11 0.01-0.1 0.02-0.1 0.02-0.09 0.03-0.1 0.03-0.09 0.08-0.18 0.05-0.09 0.06-0.09 0.12-0.16 0.07-0.08 0.08-0.08 0.08-0.07 12.56-10.71 0.08-0.07 0.18-0.12 0.1-0.06 0.09-0.04 0.1-0.05 0.09-0.03 0.2-0.06 0.1-0.02 0.2-0.02 0.11-0.01h0.1l0.11 0.01h0.11l0.1 0.02 0.33 0.06 0.12 0.03 0.11 0.04 0.11 0.03 0.11 0.05 0.12 0.04 0.11 0.05 0.12 0.05 0.11 0.06 0.12 0.05 0.12 0.07 0.11 0.06 0.24 0.14 0.11 0.07 0.12 0.07 0.36 0.24 0.11 0.09 0.12 0.08 7.6 5.25 0.16-0.08 1.61-0.64 1.64-0.58 1.67-0.52 1.69-0.45 0.76-0.17 3.08-8.71 0.04-0.14 0.05-0.13 0.04-0.14 0.15-0.39 0.06-0.13 0.05-0.13 0.06-0.12 0.05-0.12 0.06-0.12 0.06-0.11 0.06-0.12 0.07-0.11 0.06-0.1 0.07-0.1 0.06-0.1 0.07-0.1 0.07-0.09 0.08-0.09 0.07-0.09 0.16-0.16 0.24-0.21 0.09-0.06 0.08-0.06 0.18-0.1 0.1-0.04 0.09-0.04 0.2-0.06 0.2-0.04 0.11-0.01h0.33l16.45 1.31 0.11 0.01zm-12.87 30.08-0.97 0.02-0.97 0.06-0.96 0.1-0.95 0.14-0.93 0.17-0.92 0.21-0.92 0.24-0.89 0.28-0.88 0.31-0.87 0.35-0.85 0.38-0.84 0.41-0.81 0.44-0.8 0.47-0.78 0.5-0.75 0.53-0.74 0.56-0.71 0.58-0.7 0.62-0.66 0.64-0.65 0.66-0.61 0.69-0.6 0.71-0.56 0.74-0.54 0.76-0.5 0.78-0.48 0.8-0.45 0.82-0.42 0.84-0.38 0.86-0.35 0.88-0.32 0.9-0.29 0.91-0.24 0.93-0.22 0.95-0.17 0.96-0.14 0.97-0.1 0.99-0.06 0.99-0.01 0.98 0.02 0.98 0.06 0.96 0.1 0.96 0.13 0.95 0.17 0.93 0.21 0.93 0.25 0.91 0.28 0.89 0.31 0.89 0.34 0.86 0.38 0.85 0.41 0.84 0.44 0.81 0.47 0.8 0.51 0.78 0.53 0.76 0.55 0.73 0.59 0.72 0.61 0.69 0.64 0.67 0.67 0.64 0.68 0.62 0.72 0.59 0.73 0.56 0.76 0.54 0.78 0.51 0.8 0.48 0.83 0.44 0.84 0.42 0.86 0.38 0.88 0.36 0.89 0.31 0.92 0.29 0.93 0.25 0.94 0.21 0.96 0.17 0.98 0.14 0.98 0.1 0.99 0.06 0.99 0.02 0.97-0.02 0.97-0.07 0.96-0.09 0.94-0.14 0.94-0.17 0.92-0.21 0.91-0.24 0.9-0.28 0.88-0.32 0.87-0.34 0.85-0.38 0.83-0.41 0.82-0.44 0.8-0.47 0.78-0.5 0.75-0.53 0.74-0.56 0.71-0.59 0.69-0.61 0.67-0.64 0.64-0.66 0.62-0.69 0.59-0.72 0.57-0.73 0.54-0.76 0.5-0.78 0.48-0.8 0.45-0.82 0.42-0.85 0.38-0.86 0.35-0.88 0.32-0.89 0.28-0.92 0.25-0.93 0.22-0.94 0.17-0.96 0.14-0.97 0.1-0.99 0.05-0.99 0.02-0.99-0.02-0.97-0.06-0.97-0.1-0.95-0.13-0.95-0.18-0.94-0.2-0.92-0.25-0.91-0.28-0.9-0.31-0.88-0.35-0.87-0.37-0.85-0.41-0.83-0.45-0.82-0.47-0.8-0.5-0.77-0.53-0.76-0.56-0.74-0.58-0.71-0.61-0.69-0.64-0.67-0.67-0.64-0.69-0.62-0.71-0.59-0.74-0.57-0.75-0.53-0.78-0.51-0.81-0.48-0.82-0.45-0.84-0.41-0.86-0.39-0.88-0.35-0.9-0.32-0.91-0.28-0.93-0.25-0.94-0.21-0.96-0.18-0.98-0.14-0.99-0.09-0.99-0.06z"/><path id="g4OHFRlqM" d="m261.29 72.98c7.11 20.89-3.99 43.58-24.76 50.64-20.77 7.07-43.4-4.16-50.51-25.05-7.1-20.89 4-43.59 24.77-50.65s43.4 4.17 50.5 25.06z"/><path id="a7grvnixN" d="m248.15 61.07c13.34 13.98 13.06 36.4-0.61 50.03-13.68 13.63-35.62 13.35-48.96-0.63-13.34-13.97-13.07-36.39 0.61-50.02 13.68-13.64 35.61-13.35 48.96 0.62z"/><path id="e5K7wFgFhY" d="m231.28 70.77 0.01-0.04v-0.09l0.01-0.04 0.01-0.05 0.02-0.08 0.04-0.08 0.01-0.04 0.02-0.03 0.03-0.04 0.02-0.04 0.02-0.03 0.03-0.04 0.09-0.09 0.03-0.04 0.04-0.03 0.03-0.02 0.08-0.06 0.03-0.02 0.04-0.03 0.05-0.02 0.08-0.04 0.05-0.02 0.04-0.01 0.05-0.02 0.04-0.01 0.05-0.02 0.1-0.02h0.05l0.05-0.01h0.05l0.05-0.01h5.19l0.05 0.01h0.05l0.05 0.01h0.05l0.1 0.02 0.05 0.02 0.05 0.01 0.04 0.02 0.05 0.01 0.04 0.02 0.05 0.02 0.08 0.04 0.04 0.03 0.04 0.02 0.04 0.03 0.03 0.03 0.04 0.02 0.03 0.03 0.03 0.04 0.09 0.09 0.03 0.04 0.02 0.03 0.03 0.04 0.02 0.04 0.02 0.03 0.02 0.04 0.01 0.04 0.02 0.04 0.02 0.08 0.01 0.05 0.01 0.04v0.04l0.01 0.05v11.25l5.08 4.81h-5.08v14.94h-11.32v-10.51l-0.01-0.05v-0.04l-0.01-0.05-0.01-0.04-0.02-0.05-0.01-0.04-0.02-0.04-0.02-0.05-0.04-0.08-0.03-0.04-0.02-0.03-0.06-0.08-0.03-0.03-0.03-0.04-0.03-0.03-0.08-0.06-0.03-0.03-0.08-0.06-0.04-0.02-0.05-0.03-0.08-0.04-0.1-0.04-0.04-0.02-0.1-0.02-0.05-0.02-0.05-0.01h-0.05l-0.06-0.01-0.05-0.01h-5.46l-0.06 0.01-0.05 0.01h-0.05l-0.05 0.01-0.05 0.02-0.1 0.02-0.05 0.02-0.04 0.02-0.05 0.02-0.04 0.02-0.05 0.02-0.04 0.03-0.04 0.02-0.12 0.09-0.03 0.03-0.04 0.03-0.03 0.03-0.03 0.04-0.03 0.03-0.06 0.08-0.03 0.03-0.06 0.12-0.02 0.05-0.02 0.04-0.01 0.04-0.02 0.05-0.01 0.04-0.01 0.05-0.01 0.04v0.05l-0.01 0.05v10.46h-11.31v-14.94h-5.08l20.33-19.22 7.62 7.2z"/></defs><filter id="shadow5008135" width="201.98" height="206.61" x="11.85" y="87.26" filterUnits="userSpaceOnUse"><feFlood/><feComposite in2="SourceAlpha" operator="in"/><feGaussianBlur stdDeviation="1"/><feOffset dx="1" dy="1" result="afterOffset"/><feFlood flood-color="#000" flood-opacity=".5"/><feComposite in2="afterOffset" operator="in"/><feMorphology operator="dilate" radius="1"/><feComposite in2="SourceAlpha" operator="out"/></filter><path fill="#fff" d="m140.62 77.84 0.16 0.09 0.15 0.09 0.13 0.11 0.14 0.11 0.12 0.11 0.11 0.12 0.11 0.13 0.1 0.14 0.18 0.28 0.08 0.16 0.08 0.15 0.06 0.16 0.06 0.17 0.06 0.18 0.05 0.17 0.05 0.19 0.04 0.18 0.03 0.2 0.03 0.19 0.03 0.2 0.02 0.21 0.01 0.21 0.02 0.21 0.01 0.22v0.91l-0.01 0.23-0.03 0.72-0.02 0.25-0.01 0.25-0.02 0.25-0.02 0.26-0.02 0.25-2.14 15.84 1.02 0.85 2.18 1.98 2.1 2.07 2.01 2.14 1.91 2.22 0.16 0.19 15.51-2.37 0.75-0.06 0.72-0.06 0.24-0.01 0.23-0.02h0.23l0.23-0.01h0.66l0.42 0.02 0.2 0.01 0.4 0.04 0.19 0.03 0.19 0.04 0.19 0.03 0.18 0.05 0.34 0.1 0.16 0.06 0.32 0.14 0.15 0.08 0.14 0.09 0.14 0.1 0.13 0.1 0.13 0.11 0.12 0.11 0.22 0.26 0.11 0.14 0.18 0.3 0.08 0.17 0.08 0.18 10.53 26.13 0.07 0.18 0.1 0.36 0.06 0.36 0.02 0.18v0.35l-0.01 0.18-0.02 0.17-0.03 0.18-0.04 0.18-0.1 0.34-0.06 0.18-0.07 0.17-0.08 0.17-0.18 0.34-0.1 0.17-0.22 0.34-0.12 0.17-0.13 0.16-0.13 0.17-0.14 0.16-0.14 0.17-0.15 0.16-0.48 0.48-0.34 0.32-0.36 0.32-0.19 0.15-0.19 0.16-0.19 0.15-0.4 0.3-12.45 9.92 0.04 0.34 0.17 2.98 0.07 3-0.05 3.01-0.17 3.02-0.13 1.35 12.33 9.47 0.2 0.15 0.2 0.14 0.38 0.3 0.54 0.45 0.34 0.3 0.16 0.16 0.16 0.15 0.3 0.32 0.28 0.32 0.13 0.16 0.24 0.32 0.11 0.17 0.11 0.16 0.1 0.17 0.09 0.17 0.16 0.34 0.07 0.17 0.06 0.17 0.1 0.34 0.03 0.18 0.03 0.17 0.02 0.18 0.01 0.17v0.18l-0.02 0.36-0.03 0.17-0.04 0.19-0.05 0.18-0.06 0.18-0.07 0.18-10.79 26.5-0.08 0.18-0.08 0.17-0.09 0.16-0.1 0.15-0.1 0.14-0.11 0.14-0.12 0.13-0.12 0.12-0.26 0.22-0.14 0.1-0.15 0.09-0.3 0.16-0.16 0.08-0.51 0.18-0.18 0.05-0.57 0.12-0.2 0.03-0.2 0.02-0.2 0.03-0.21 0.01-0.22 0.02-0.21 0.01-0.22 0.01h-0.91l-0.96-0.04-0.25-0.01-0.25-0.02-0.25-0.01-15.44-1.84-0.85 1.05-1.99 2.28-2.07 2.19-2.14 2.1-2.21 2.01-0.24 0.2 1.97 15.76 0.08 0.5 0.06 0.48 0.06 0.72 0.01 0.24 0.02 0.46v0.45l-0.02 0.44-0.06 0.63-0.03 0.2-0.08 0.4-0.1 0.38-0.12 0.36-0.07 0.17-0.08 0.17-0.08 0.16-0.09 0.16-0.2 0.3-0.11 0.14-0.11 0.13-0.12 0.13-0.13 0.12-0.14 0.12-0.14 0.11-0.15 0.1-0.16 0.1-0.17 0.09-0.17 0.08-25.79 11.34-0.18 0.07-0.18 0.06-0.17 0.05-0.17 0.04-0.17 0.03-0.17 0.02-0.17 0.01h-0.17l-0.17-0.01-0.16-0.02-0.17-0.03-0.16-0.04-0.16-0.05-0.17-0.05-0.32-0.14-0.32-0.16-0.16-0.1-0.15-0.1-0.32-0.22-0.16-0.12-0.15-0.13-0.16-0.13-0.32-0.28-0.31-0.31-0.16-0.15-0.16-0.17-0.15-0.16-0.16-0.18-0.16-0.17-0.32-0.36-0.16-0.19-0.16-0.18-0.16-0.19-0.17-0.2-9.4-12.49-0.31 0.04-2.92 0.25-2.93 0.13-2.95 0.01-2.95-0.1-1.31-0.1-9.54 12.82-0.16 0.2-0.17 0.19-0.48 0.57-0.17 0.19-0.16 0.18-0.16 0.17-0.16 0.18-0.15 0.16-0.16 0.17-0.16 0.16-0.32 0.3-0.32 0.28-0.16 0.13-0.15 0.13-0.16 0.12-0.32 0.22-0.16 0.1-0.32 0.18-0.16 0.07-0.17 0.07-0.32 0.12-0.17 0.04-0.16 0.03-0.17 0.03-0.16 0.02h-0.34l-0.17-0.01-0.34-0.06-0.18-0.04-0.17-0.06-0.18-0.07-25.68-10.46-0.17-0.07-0.17-0.08-0.16-0.1-0.15-0.09-0.14-0.11-0.13-0.11-0.13-0.12-0.12-0.12-0.12-0.13-0.2-0.28-0.1-0.15-0.08-0.15-0.08-0.16-0.08-0.17-0.07-0.17-0.06-0.18-0.05-0.18-0.06-0.18-0.04-0.19-0.04-0.2-0.03-0.19-0.03-0.21-0.03-0.2-0.02-0.21-0.03-0.66v-0.22l0.04-0.92 0.02-0.24 0.06-0.48 0.03-0.25 0.03-0.24 0.08-0.5 2.13-15.84-1.01-0.84-2.18-1.99-2.1-2.07-2.01-2.14-1.92-2.22-0.22-0.28-15.4 2.35-0.24 0.05-0.25 0.04-0.24 0.04-0.23 0.03-0.48 0.06-0.46 0.04-0.22 0.02-0.23 0.01h-0.22l-0.22 0.01-0.22-0.01h-0.21l-0.21-0.02-0.2-0.01-0.21-0.02-0.2-0.03-0.19-0.03-0.19-0.04-0.19-0.05-0.36-0.1-0.17-0.06-0.17-0.07-0.16-0.08-0.15-0.08-0.16-0.08-0.42-0.3-0.13-0.12-0.12-0.12-0.12-0.13-0.11-0.14-0.1-0.14-0.1-0.15-0.09-0.16-0.08-0.17-0.08-0.18-10.53-26.13-0.07-0.18-0.1-0.36-0.03-0.17-0.03-0.18-0.02-0.34 0.01-0.18 0.01-0.17 0.06-0.34 0.04-0.16 0.05-0.17 0.06-0.17 0.06-0.16 0.16-0.34 0.18-0.32 0.1-0.17 0.11-0.16 0.12-0.17 0.12-0.16 0.13-0.16 0.13-0.17 0.14-0.16 0.14-0.17 0.3-0.32 0.16-0.17 0.17-0.16 0.16-0.17 0.17-0.16 0.36-0.34 0.18-0.16 0.18-0.17 0.57-0.51 12.4-9.88-0.03-0.27-0.18-2.99-0.06-3 0.05-3.01 0.17-3.02 0.13-1.34-12.33-9.48-0.2-0.16-0.18-0.17-0.19-0.16-0.54-0.48-0.34-0.32-0.16-0.16-0.17-0.16-0.45-0.48-0.28-0.32-0.26-0.32-0.12-0.16-0.22-0.32-0.1-0.16-0.18-0.32-0.08-0.16-0.07-0.17-0.07-0.16-0.05-0.16-0.05-0.17-0.04-0.17-0.03-0.17-0.02-0.16-0.01-0.17-0.01-0.18 0.01-0.17 0.02-0.17 0.02-0.18 0.04-0.18 0.05-0.17 0.05-0.18 0.07-0.19 10.8-26.5 0.07-0.17 0.09-0.18 0.09-0.16 0.1-0.15 0.11-0.15 0.11-0.14 0.12-0.14 0.12-0.12 0.13-0.12 0.28-0.22 0.15-0.1 0.15-0.09 0.16-0.09 0.16-0.08 0.34-0.14 0.18-0.06 0.18-0.05 0.38-0.1 0.19-0.04 0.2-0.03 0.21-0.03 0.2-0.03 0.21-0.02 0.21-0.01 0.22-0.01h0.22l0.22-0.01 0.23 0.01h0.22l0.23 0.02 0.24 0.01 0.23 0.02 0.24 0.02 0.23 0.03 0.48 0.06 0.25 0.04 15.44 1.83 0.85-1.05 1.99-2.28 2.07-2.19 2.14-2.1 2.21-2.01 0.24-0.2-1.98-15.76-0.02-0.25-0.01-0.26-0.02-0.25-0.01-0.25-0.02-0.24-0.01-0.25v-0.24l-0.01-0.24-0.01-0.23v-0.23l0.01-0.23v-0.23l0.02-0.44 0.01-0.21 0.02-0.21 0.03-0.21 0.02-0.2 0.04-0.2 0.03-0.19 0.04-0.19 0.1-0.36 0.06-0.18 0.06-0.17 0.07-0.16 0.16-0.32 0.09-0.15 0.09-0.14 0.11-0.14 0.1-0.13 0.24-0.24 0.14-0.12 0.14-0.11 0.14-0.1 0.32-0.18 0.18-0.08 25.79-11.34 0.18-0.08 0.18-0.06 0.17-0.05 0.18-0.04 0.17-0.03 0.18-0.02 0.17-0.01h0.35l0.17 0.02 0.34 0.06 0.34 0.1 0.17 0.06 0.16 0.07 0.17 0.07 0.17 0.09 0.16 0.09 0.16 0.1 0.17 0.1 0.48 0.36 0.16 0.13 0.32 0.28 0.31 0.31 0.3 0.32 0.16 0.17 0.45 0.54 0.14 0.19 0.3 0.38 0.28 0.4 9.41 12.49 0.3-0.04 2.92-0.24 2.94-0.14 2.94-0.01 2.95 0.11 1.32 0.1 9.54-12.82 0.14-0.21 0.15-0.2 0.14-0.2 0.15-0.2 0.3-0.38 0.15-0.18 0.16-0.18 0.15-0.18 0.16-0.17 0.15-0.16 0.32-0.32 0.16-0.15 0.32-0.28 0.16-0.13 0.32-0.24 0.17-0.11 0.16-0.1 0.17-0.1 0.16-0.09 0.34-0.16 0.34-0.12 0.17-0.05 0.34-0.08 0.17-0.02 0.17-0.01 0.18-0.01 0.17 0.01 0.18 0.01 0.17 0.03 0.18 0.03 0.17 0.05 0.18 0.05 0.17 0.07 25.69 10.46 0.17 0.08zm-36.54 43.17-1.57-0.45-1.58-0.39-1.59-0.32-1.59-0.26-1.59-0.18-1.59-0.12-1.59-0.06-1.59 0.01-1.58 0.07-1.57 0.13-1.56 0.19-1.56 0.26-1.54 0.32-1.53 0.37-1.51 0.44-1.49 0.49-1.48 0.55-1.46 0.61-1.43 0.66-1.41 0.72-1.38 0.77-1.35 0.83-1.33 0.88-1.29 0.93-1.26 0.98-1.23 1.03-1.19 1.08-1.16 1.13-1.11 1.18-1.07 1.23-1.03 1.27-0.98 1.32-0.94 1.37-0.89 1.41-0.84 1.45-0.79 1.5-0.74 1.54-0.68 1.58-0.61 1.6-0.55 1.62-0.48 1.62-0.42 1.63-0.35 1.63-0.28 1.63-0.22 1.63-0.15 1.63-0.09 1.63-0.03 1.62 0.04 1.61 0.09 1.61 0.16 1.6 0.21 1.58 0.28 1.57 0.34 1.55 0.39 1.54 0.45 1.52 0.5 1.5 0.56 1.47 0.62 1.45 0.67 1.43 0.73 1.39 0.78 1.37 0.83 1.34 0.88 1.3 0.93 1.27 0.98 1.23 1.04 1.2 1.08 1.15 1.13 1.12 1.17 1.07 1.23 1.02 1.27 0.98 1.31 0.93 1.36 0.88 1.4 0.82 1.45 0.78 1.49 0.72 1.53 0.66 1.56 0.59 1.56 0.53 1.58 0.46 1.58 0.39 1.59 0.32 1.59 0.25 1.59 0.19 1.59 0.12 1.59 0.06 1.58-0.01 1.58-0.07 1.58-0.14 1.56-0.19 1.56-0.26 1.54-0.31 1.52-0.38 1.52-0.43 1.49-0.5 1.48-0.55 1.45-0.6 1.43-0.67 1.41-0.72 1.39-0.77 1.35-0.82 1.33-0.88 1.29-0.93 1.26-0.98 1.23-1.04 1.19-1.08 1.15-1.13 1.12-1.18 1.07-1.23 1.03-1.27 0.98-1.32 0.94-1.36 0.89-1.41 0.84-1.46 0.79-1.49 0.73-1.54 0.68-1.58 0.62-1.61 0.55-1.61 0.48-1.62 0.42-1.63 0.34-1.63 0.29-1.63 0.21-1.64 0.16-1.63 0.09-1.62 0.03-1.62-0.04-1.62-0.09-1.61-0.16-1.59-0.22-1.59-0.27-1.57-0.34-1.55-0.39-1.54-0.45-1.52-0.51-1.49-0.56-1.48-0.61-1.45-0.68-1.42-0.72-1.4-0.78-1.37-0.83-1.33-0.88-1.31-0.93-1.27-0.99-1.23-1.03-1.19-1.08-1.16-1.13-1.11-1.18-1.07-1.22-1.03-1.27-0.97-1.31-0.93-1.36-0.88-1.41-0.83-1.44-0.77-1.49-0.72-1.53-0.66-1.56-0.6z" filter="url(#shadow5008135)" transform="matrix(-1,0,0,1,259.3,0)"/><use width="100%" height="100%" fill="#a434b7" transform="matrix(-1,0,0,1,280.15,-29.29)" xlink:href="#e5K7LwzShy"/><use width="100%" height="100%" fill="#fff" transform="matrix(-1,0,0,1,280.15,-29.29)" xlink:href="#br5Pe1aCW"/><use width="100%" height="100%" fill-opacity="0" stroke="#000" transform="matrix(-1,0,0,1,280.15,-29.29)" xlink:href="#br5Pe1aCW"/><filter id="shadow9732846" width="156.61" height="161.66" x="34.51" y="109.74" filterUnits="userSpaceOnUse"><feFlood/><feComposite in2="SourceAlpha" operator="out"/><feGaussianBlur stdDeviation="1"/><feOffset dx="1" dy="1" result="afterOffset"/><feFlood flood-color="#fff" flood-opacity=".8"/><feComposite in2="afterOffset" operator="in"/><feMorphology operator="dilate" radius="3"/><feComposite in2="SourceAlpha" operator="in"/></filter><path id="g12wOL0lTR" fill="#fff" d="m158.28 160.78c0 38.27-29.94 69.33-66.81 69.33s-66.81-31.06-66.81-69.33c0-38.26 29.94-69.33 66.81-69.33s66.81 31.07 66.81 69.33z" filter="url(#shadow9732846)" transform="matrix(-1,0,0,1,259.3,0)"/><use width="100%" height="100%" fill="#000" transform="matrix(-1,0,0,1,280.15,-29.29)" xlink:href="#g2NB20zWBg"/><use width="100%" height="100%" fill="#1d82b7" transform="matrix(-1,0,0,1,280.15,-29.29)" xlink:href="#bXv6BgzEk"/><g fill="#000"><use width="100%" height="100%" transform="matrix(-1,0,0,1,280.15,-29.29)" xlink:href="#f2zb2sw5j2"/><use width="100%" height="100%" transform="matrix(-1,0,0,1,280.15,-29.29)" xlink:href="#f2cExv9tty"/><use width="100%" height="100%" transform="matrix(-1,0,0,1,280.15,-29.29)" xlink:href="#c1jUIyfk4m"/><use width="100%" height="100%" transform="matrix(-1,0,0,1,280.15,-29.29)" xlink:href="#g2leou0I8a"/><use width="100%" height="100%" transform="matrix(-1,0,0,1,280.15,-29.29)" xlink:href="#icDdOqm04"/><use width="100%" height="100%" transform="matrix(-1,0,0,1,280.15,-29.29)" xlink:href="#g63IufyhD"/><use width="100%" height="100%" transform="matrix(-1,0,0,1,280.15,-29.29)" xlink:href="#i4Zoyr5qT"/><use width="100%" height="100%" transform="matrix(-1,0,0,1,280.15,-29.29)" xlink:href="#a1vVGklmMG"/><use width="100%" height="100%" transform="matrix(-1,0,0,1,280.15,-29.29)" xlink:href="#b5zYj6077"/><use width="100%" height="100%" transform="matrix(-1,0,0,1,280.15,-29.29)" xlink:href="#c49JFI23n4"/><use width="100%" height="100%" transform="matrix(-1,0,0,1,280.15,-29.29)" xlink:href="#aDUsmrPV1"/></g><use width="100%" height="100%" fill="#fff" transform="matrix(-1,0,0,1,280.15,-29.29)" xlink:href="#dlJRbwQUb"/><use width="100%" height="100%" fill="#000" transform="matrix(-1,0,0,1,280.15,-29.29)" xlink:href="#c3od2X4KXw"/><use width="100%" height="100%" fill="#000" transform="matrix(-1,0,0,1,280.15,-29.29)" xlink:href="#c3VW0VDvyZ"/><use width="100%" height="100%" fill="#a434b7" transform="matrix(-1,0,0,1,280.15,-29.29)" xlink:href="#d31ERgTKr4"/><filter id="shadow13056887" width="129.97" height="129.97" x="159.17" y="21.29" filterUnits="userSpaceOnUse"><feFlood/><feComposite in2="SourceAlpha" operator="in"/><feGaussianBlur stdDeviation="1"/><feOffset dx="1" dy="1" result="afterOffset"/><feFlood flood-color="#000" flood-opacity=".5"/><feComposite in2="afterOffset" operator="in"/><feMorphology operator="dilate" radius="1"/><feComposite in2="SourceAlpha" operator="out"/></filter><path id="c4tvKzyvpW" fill="#fff" d="m215.61 2.34 0.1 0.02 0.2 0.06 0.18 0.08 0.18 0.1 0.16 0.12 0.07 0.06 0.07 0.07 0.07 0.08 0.07 0.07 0.07 0.08 0.18 0.27 0.06 0.1 0.1 0.2 0.2 0.44 0.04 0.12 0.05 0.12 0.04 0.13 0.04 0.12 0.12 0.39 0.03 0.14 0.04 0.13 0.04 0.14 0.03 0.14 0.04 0.15 0.03 0.14 0.04 0.14 1.66 9.09 0.73 0.29 1.6 0.71 1.56 0.77 1.53 0.84 1.48 0.88 0.13 0.08 8.36-3.99 0.13-0.05 0.14-0.06 0.14-0.05 0.13-0.06 0.13-0.05 0.14-0.05 0.26-0.1 0.13-0.04 0.12-0.04 0.13-0.04 0.12-0.04 0.13-0.04 0.36-0.09 0.12-0.02 0.11-0.02 0.12-0.02 0.11-0.02 0.11-0.01h0.11l0.11-0.01h0.1l0.11 0.01 0.2 0.02 0.2 0.04 0.09 0.03 0.1 0.03 0.18 0.08 0.08 0.05 0.09 0.06 0.08 0.06 0.09 0.06 0.23 0.23 10.7 12.56 0.07 0.09 0.07 0.08 0.06 0.1 0.1 0.18 0.04 0.1 0.04 0.09 0.03 0.1 0.06 0.3 0.01 0.11v0.31l-0.02 0.22-0.04 0.22-0.09 0.33-0.04 0.11-0.04 0.12-0.05 0.11-0.04 0.11-0.06 0.12-0.05 0.12-0.06 0.11-0.06 0.12-0.06 0.11-0.21 0.36-0.08 0.11-0.24 0.36-0.08 0.11-0.09 0.12-5.25 7.61 0.08 0.18 0.64 1.61 0.58 1.64 0.52 1.67 0.45 1.69 0.17 0.76 8.71 3.08 0.14 0.05 0.14 0.04 0.26 0.1 0.14 0.05 0.13 0.05 0.12 0.05 0.13 0.05 0.48 0.24 0.22 0.12 0.1 0.06 0.11 0.07 0.1 0.07 0.09 0.07 0.1 0.07 0.09 0.07 0.08 0.08 0.08 0.07 0.16 0.16 0.07 0.08 0.06 0.08 0.12 0.18 0.1 0.18 0.04 0.09 0.04 0.1 0.03 0.09 0.03 0.1 0.02 0.1 0.02 0.11 0.01 0.1 0.01 0.11v0.11l-0.01 0.11-1.31 16.45-0.01 0.11-0.04 0.22-0.03 0.1-0.03 0.09-0.04 0.1-0.04 0.09-0.05 0.09-0.1 0.16-0.07 0.08-0.06 0.08-0.14 0.14-0.08 0.07-0.08 0.06-0.09 0.06-0.09 0.07-0.09 0.05-0.1 0.06-0.1 0.05-0.1 0.06-0.33 0.15-0.11 0.04-0.12 0.05-0.24 0.08-0.52 0.16-0.14 0.04-0.13 0.03-0.28 0.08-0.14 0.03-0.15 0.04-0.14 0.03-9.08 1.67-0.29 0.72-0.72 1.6-0.77 1.56-0.83 1.53-0.89 1.49-0.1 0.15 3.98 8.33 0.06 0.13 0.07 0.13 0.06 0.13 0.06 0.12 0.06 0.13 0.05 0.13 0.06 0.13 0.05 0.12 0.04 0.13 0.05 0.13 0.08 0.24 0.04 0.13 0.09 0.36 0.04 0.24 0.01 0.11 0.02 0.12v0.11l0.01 0.11v0.11l-0.01 0.11v0.11l-0.02 0.1-0.01 0.11-0.03 0.1-0.02 0.1-0.03 0.1-0.04 0.09-0.04 0.1-0.15 0.27-0.06 0.08-0.07 0.08-0.07 0.09-0.08 0.07-0.08 0.08-12.56 10.7-0.09 0.08-0.08 0.06-0.09 0.06-0.09 0.05-0.1 0.04-0.18 0.08-0.1 0.03-0.1 0.02-0.09 0.02-0.2 0.02h-0.2l-0.11-0.01-0.1-0.01-0.11-0.02-0.1-0.02-0.11-0.02-0.22-0.06-0.33-0.12-0.11-0.05-0.12-0.04-0.11-0.06-0.12-0.05-0.11-0.06-0.36-0.18-0.24-0.14-0.13-0.07-0.12-0.07-0.12-0.08-0.13-0.07-0.13-0.08-0.12-0.08-7.6-5.24-0.16 0.07-1.61 0.65-1.64 0.58-1.67 0.51-1.69 0.46-0.76 0.17-3.08 8.7-0.06 0.14-0.05 0.14-0.06 0.13-0.06 0.14-0.06 0.13-0.05 0.13-0.06 0.12-0.06 0.13-0.18 0.36-0.06 0.11-0.06 0.12-0.07 0.1-0.06 0.11-0.06 0.1-0.21 0.3-0.06 0.09-0.08 0.08-0.14 0.16-0.08 0.08-0.08 0.07-0.07 0.06-0.09 0.06-0.08 0.06-0.08 0.05-0.09 0.05-0.27 0.12-0.1 0.02-0.1 0.03-0.2 0.02-0.11 0.01h-0.11l-0.11-0.01-16.45-1.3-0.11-0.01-0.22-0.04-0.1-0.03-0.1-0.04-0.1-0.03-0.09-0.05-0.09-0.04-0.09-0.06-0.08-0.05-0.09-0.06-0.08-0.07-0.07-0.07-0.08-0.07-0.14-0.16-0.07-0.09-0.12-0.18-0.18-0.3-0.2-0.44-0.08-0.24-0.05-0.13-0.03-0.12-0.08-0.26-0.03-0.13-0.03-0.14-0.03-0.13-0.06-0.28-0.02-0.14-0.03-0.14-0.02-0.15-1.66-9.08-0.73-0.29-1.6-0.71-1.56-0.78-1.53-0.83-1.49-0.89-0.18-0.11-8.29 3.96-0.13 0.06-0.13 0.07-0.39 0.18-0.13 0.05-0.12 0.06-0.26 0.1-0.12 0.04-0.13 0.04-0.24 0.08-0.12 0.03-0.13 0.03-0.12 0.03-0.11 0.02-0.12 0.02-0.12 0.01-0.11 0.02h-0.12l-0.11 0.01h-0.11l-0.11-0.01h-0.1l-0.11-0.02-0.1-0.01-0.11-0.02-0.1-0.03-0.09-0.03-0.1-0.04-0.09-0.04-0.1-0.04-0.09-0.05-0.08-0.06-0.09-0.06-0.16-0.14-0.08-0.08-0.07-0.08-10.71-12.56-0.07-0.09-0.06-0.08-0.06-0.09-0.05-0.09-0.05-0.1-0.04-0.09-0.03-0.09-0.03-0.1-0.03-0.09-0.03-0.3v-0.31l0.02-0.1 0.01-0.1 0.02-0.11 0.03-0.11 0.02-0.11 0.04-0.1 0.03-0.11 0.04-0.12 0.04-0.11 0.1-0.22 0.1-0.24 0.06-0.11 0.12-0.24 0.14-0.24 0.06-0.12 0.08-0.12 0.07-0.13 0.07-0.12 0.08-0.13 0.07-0.12 0.08-0.13 5.23-7.58-0.06-0.15-0.64-1.61-0.58-1.64-0.52-1.66-0.46-1.7-0.17-0.76-8.7-3.07-0.28-0.12-0.13-0.06-0.13-0.05-0.52-0.24-0.36-0.18-0.33-0.18-0.11-0.07-0.1-0.06-0.1-0.07-0.1-0.06-0.27-0.21-0.08-0.07-0.15-0.15-0.14-0.16-0.12-0.16-0.1-0.18-0.08-0.18-0.03-0.09-0.03-0.1-0.04-0.2-0.01-0.1-0.01-0.11v-0.11l0.01-0.11 1.31-16.45 0.02-0.22 0.03-0.1 0.02-0.11 0.04-0.1 0.03-0.09 0.05-0.1 0.05-0.09 0.05-0.08 0.05-0.09 0.07-0.08 0.06-0.08 0.07-0.08 0.08-0.07 0.07-0.08 0.09-0.07 0.08-0.06 0.09-0.07 0.09-0.06 0.2-0.12 0.1-0.05 0.11-0.06 0.22-0.1 0.12-0.04 0.11-0.05 0.13-0.04 0.24-0.08 0.13-0.04 0.13-0.03 0.13-0.04 0.14-0.03 0.13-0.03 0.14-0.03 0.14-0.02 0.14-0.03 0.15-0.02 0.14-0.03 9.08-1.66 0.29-0.73 0.72-1.59 0.77-1.57 0.83-1.52 0.89-1.49 0.1-0.15-3.98-8.33-0.06-0.14-0.05-0.14-0.06-0.13-0.05-0.14-0.2-0.52-0.08-0.26-0.05-0.12-0.03-0.13-0.04-0.12-0.09-0.36-0.02-0.12-0.03-0.12-0.01-0.11-0.02-0.11-0.01-0.12v-0.1l-0.01-0.11v-0.11l0.01-0.1 0.01-0.11 0.01-0.1 0.02-0.1 0.02-0.09 0.03-0.1 0.03-0.09 0.08-0.18 0.05-0.09 0.06-0.09 0.12-0.16 0.07-0.08 0.08-0.08 0.08-0.07 12.56-10.71 0.08-0.07 0.18-0.12 0.1-0.06 0.09-0.04 0.1-0.05 0.09-0.03 0.2-0.06 0.1-0.02 0.2-0.02 0.11-0.01h0.1l0.11 0.01h0.11l0.1 0.02 0.33 0.06 0.12 0.03 0.11 0.04 0.11 0.03 0.11 0.05 0.12 0.04 0.11 0.05 0.12 0.05 0.11 0.06 0.12 0.05 0.12 0.07 0.11 0.06 0.24 0.14 0.11 0.07 0.12 0.07 0.36 0.24 0.11 0.09 0.12 0.08 7.6 5.25 0.16-0.08 1.61-0.64 1.64-0.58 1.67-0.52 1.69-0.45 0.76-0.17 3.08-8.71 0.04-0.14 0.05-0.13 0.04-0.14 0.15-0.39 0.06-0.13 0.05-0.13 0.06-0.12 0.05-0.12 0.06-0.12 0.06-0.11 0.06-0.12 0.07-0.11 0.06-0.1 0.07-0.1 0.06-0.1 0.07-0.1 0.07-0.09 0.08-0.09 0.07-0.09 0.16-0.16 0.24-0.21 0.09-0.06 0.08-0.06 0.18-0.1 0.1-0.04 0.09-0.04 0.2-0.06 0.2-0.04 0.11-0.01h0.33l16.45 1.31 0.11 0.01zm-12.87 30.08-0.97 0.02-0.97 0.06-0.96 0.1-0.95 0.14-0.93 0.17-0.92 0.21-0.92 0.24-0.89 0.28-0.88 0.31-0.87 0.35-0.85 0.38-0.84 0.41-0.81 0.44-0.8 0.47-0.78 0.5-0.75 0.53-0.74 0.56-0.71 0.58-0.7 0.62-0.66 0.64-0.65 0.66-0.61 0.69-0.6 0.71-0.56 0.74-0.54 0.76-0.5 0.78-0.48 0.8-0.45 0.82-0.42 0.84-0.38 0.86-0.35 0.88-0.32 0.9-0.29 0.91-0.24 0.93-0.22 0.95-0.17 0.96-0.14 0.97-0.1 0.99-0.06 0.99-0.01 0.98 0.02 0.98 0.06 0.96 0.1 0.96 0.13 0.95 0.17 0.93 0.21 0.93 0.25 0.91 0.28 0.89 0.31 0.89 0.34 0.86 0.38 0.85 0.41 0.84 0.44 0.81 0.47 0.8 0.51 0.78 0.53 0.76 0.55 0.73 0.59 0.72 0.61 0.69 0.64 0.67 0.67 0.64 0.68 0.62 0.72 0.59 0.73 0.56 0.76 0.54 0.78 0.51 0.8 0.48 0.83 0.44 0.84 0.42 0.86 0.38 0.88 0.36 0.89 0.31 0.92 0.29 0.93 0.25 0.94 0.21 0.96 0.17 0.98 0.14 0.98 0.1 0.99 0.06 0.99 0.02 0.97-0.02 0.97-0.07 0.96-0.09 0.94-0.14 0.94-0.17 0.92-0.21 0.91-0.24 0.9-0.28 0.88-0.32 0.87-0.34 0.85-0.38 0.83-0.41 0.82-0.44 0.8-0.47 0.78-0.5 0.75-0.53 0.74-0.56 0.71-0.59 0.69-0.61 0.67-0.64 0.64-0.66 0.62-0.69 0.59-0.72 0.57-0.73 0.54-0.76 0.5-0.78 0.48-0.8 0.45-0.82 0.42-0.85 0.38-0.86 0.35-0.88 0.32-0.89 0.28-0.92 0.25-0.93 0.22-0.94 0.17-0.96 0.14-0.97 0.1-0.99 0.05-0.99 0.02-0.99-0.02-0.97-0.06-0.97-0.1-0.95-0.13-0.95-0.18-0.94-0.2-0.92-0.25-0.91-0.28-0.9-0.31-0.88-0.35-0.87-0.37-0.85-0.41-0.83-0.45-0.82-0.47-0.8-0.5-0.77-0.53-0.76-0.56-0.74-0.58-0.71-0.61-0.69-0.64-0.67-0.67-0.64-0.69-0.62-0.71-0.59-0.74-0.57-0.75-0.53-0.78-0.51-0.81-0.48-0.82-0.45-0.84-0.41-0.86-0.39-0.88-0.35-0.9-0.32-0.91-0.28-0.93-0.25-0.94-0.21-0.96-0.18-0.98-0.14-0.99-0.09-0.99-0.06z" filter="url(#shadow13056887)" transform="matrix(-1,0,0,1,259.3,0)"/><use width="100%" height="100%" fill-opacity="0" stroke="#000" stroke-width="2" transform="matrix(-1,0,0,1,280.15,-29.29)" xlink:href="#a1XW3OeET"/><use width="100%" height="100%" fill="#77c800" transform="matrix(-1,0,0,1,280.15,-29.29)" xlink:href="#g4OHFRlqM"/><use width="100%" height="100%" fill-opacity="0" stroke="#000" transform="matrix(-1,0,0,1,280.15,-29.29)" xlink:href="#g4OHFRlqM"/><use width="100%" height="100%" fill="#77c800" transform="matrix(-1,0,0,1,280.15,-29.29)" xlink:href="#a7grvnixN"/><use width="100%" height="100%" fill-opacity="0" stroke="#000" transform="matrix(-1,0,0,1,280.15,-29.29)" xlink:href="#a7grvnixN"/><use width="100%" height="100%" fill="#000" fill-opacity=".75" transform="matrix(-1,0,0,1,280.15,-29.29)" xlink:href="#e5K7wFgFhY"/></svg>