<?xml version="1.0" encoding="UTF-8" standalone="no"?>
<!DOCTYPE svg PUBLIC "-//W3C//DTD SVG 1.1//EN" "http://www.w3.org/Graphics/SVG/1.1/DTD/svg11.dtd">
<svg version="1.1" xmlns="http://www.w3.org/2000/svg" xmlns:xlink="http://www.w3.org/1999/xlink" preserveAspectRatio="xMidYMid meet" viewBox="0 0 640 640" width="200" height="200"><defs><path d="M320 24.77C156.95 24.77 24.77 156.95 24.77 320C24.77 483.05 156.95 615.23 320 615.23C483.05 615.23 615.23 483.05 615.23 320C615.23 156.95 483.05 24.77 320 24.77Z" id="a25tuEaVrD"></path><path d="M427.35 546.68C427.35 546.68 395.15 537.6 395.15 447.59C395.15 421.16 253.11 421.57 253.11 449.65C253.11 536.36 220.08 546.27 220.08 546.27C219.62 546.27 215.99 546.27 215.54 546.27C211.41 546.27 207.28 548.34 207.28 552.46C207.28 552.84 207.28 555.81 207.28 556.18C207.28 560.31 211.82 564.85 215.54 564.85C237.25 564.85 411 564.85 432.72 564.85C436.85 564.85 440.15 559.9 440.15 556.18C440.15 555.81 440.15 552.84 440.15 552.46C440.15 549.16 436.85 546.68 432.72 546.68C431.65 546.68 427.89 546.68 427.35 546.68Z" id="a1j7qjApdG"></path><path d="M71.02 98.27C61.11 98.27 51.2 101.57 51.2 111.48C51.2 146.7 51.2 428.47 51.2 463.69C51.2 473.6 61.11 488.46 71.02 488.46C121.52 488.46 525.5 488.46 576 488.46C585.91 488.46 589.21 473.6 589.21 463.69C589.21 428.47 589.21 146.7 589.21 111.48C589.63 101.57 585.91 98.27 576 98.27C475 98.27 121.52 98.27 71.02 98.27Z" id="a8LS7uojw"></path><path d="M77.63 127.59L563.2 127.59L563.2 405.06L77.63 405.06L77.63 127.59Z" id="d46LFynrKh"></path><path d="M323.72 467.82C311.74 467.82 301.83 457.91 301.83 445.94C301.83 433.96 311.74 424.05 323.72 424.05C335.69 423.64 345.6 433.55 345.6 445.94C345.6 458.32 335.69 467.82 323.72 467.82Z" id="d3xaHtn5NR"></path><path d="M87.12 135.43L554.94 135.43L554.94 176.31L87.12 176.31L87.12 135.43Z" id="aF0u2VVyJ"></path><path d="M95.79 149.47L95.79 144.1L119.33 144.1L119.33 149.47L95.79 149.47Z" id="aDs6cmPfr"></path><path d="M89.6 188.7L549.99 188.7L549.99 232.48L89.6 232.48L89.6 188.7Z" id="cxSUUNGK"></path><path d="M516.27 228.28C516.27 245.61 502.22 259.66 484.89 259.66C467.56 259.66 453.51 245.61 453.51 228.28C453.51 210.95 467.56 196.9 484.89 196.9C502.22 196.9 516.27 210.95 516.27 228.28Z" id="b29PhBzn0S"></path><path d="M87.12 337.9L87.12 308.17L236.59 308.17L236.59 337.9L87.12 337.9Z" id="b24UENsMTy"></path><path d="M241.52 273.03L341.52 273.03L341.52 373.03L241.52 373.03L241.52 273.03Z" id="aMd2LBdEJ"></path><path d="M87.12 302.76L87.12 273.03L236.59 273.03L236.59 302.76L87.12 302.76Z" id="a4Hokr8r8N"></path><path d="M87.12 373.03L87.12 343.3L236.59 343.3L236.59 373.03L87.12 373.03Z" id="a1Jpw14oXc"></path><path d="M345.6 273.03L445.6 273.03L445.6 373.03L345.6 373.03L345.6 273.03Z" id="a7uXdGFqpL"></path><path d="M449.99 273.03L549.99 273.03L549.99 373.03L449.99 373.03L449.99 273.03Z" id="a1HCuAwOQE"></path><path d="M587.13 564.85C574.12 564.85 470.08 564.85 457.07 564.85C450.72 564.85 445.6 560.43 445.6 555.05C445.6 529.81 445.6 327.89 445.6 302.66C445.6 297.27 450.72 292.85 457.07 292.85C470.08 292.85 574.12 292.85 587.13 292.85C593.48 292.85 598.6 297.27 598.6 302.66C598.6 319.48 598.6 403.61 598.6 555.05C595.19 561.58 591.36 564.85 587.13 564.85Z" id="bFfJnjHHd"></path><path d="M454.41 305.15L589.38 305.15L589.38 553.87L454.41 553.87L454.41 305.15Z" id="a4OZeBQ3w5"></path><path d="M463.62 400.69L463.62 399.15L465.26 399.15L465.26 400.69L463.62 400.69Z" id="aRNs1e86Q"></path><path d="M516.26 383.97C516.26 384.16 516.26 383.97 516.26 383.97C516.26 383.97 516.26 383.97 516.26 383.97Z" id="b2Muf0PnXV"></path><path d="M454.41 318.8L589.38 318.8L589.38 343.41L454.41 343.41L454.41 318.8Z" id="a2Sly4vl9c"></path><path d="M462.8 327.26L462.8 323.99L477.76 323.99L477.76 327.26L462.8 327.26Z" id="au7QKGMpB"></path><path d="M454.41 385.5L454.41 352.06L589.17 352.06L589.38 385.5L454.41 385.5ZM456.11 384.16L587.69 384.16L587.69 353.4L456.11 353.4L456.11 384.16Z" id="axRNRSo7U"></path><path d="M521.88 362.63C510.69 362.63 501.61 371.15 501.61 381.66C501.61 392.17 510.69 400.69 521.88 400.69C533.08 400.69 542.16 392.17 542.16 381.66C542.16 371.15 533.08 362.63 521.88 362.63Z" id="ap2bYv6FA"></path><path d="M524.65 362.03L525.99 362.23L527.3 362.51L528.57 362.87L529.81 363.3L531.01 363.79L532.18 364.36L533.29 364.98L534.36 365.67L535.39 366.42L536.36 367.23L537.27 368.09L538.13 369L538.93 369.96L539.66 370.96L540.33 372.01L540.93 373.1L541.46 374.23L541.92 375.39L542.3 376.59L542.6 377.82L542.81 379.07L542.95 380.36L542.99 381.66L542.95 382.94L542.81 384.21L542.6 385.45L542.3 386.66L541.92 387.85L541.46 389.01L540.93 390.14L540.33 391.22L539.66 392.27L538.93 393.28L538.13 394.24L537.27 395.16L536.36 396.02L535.39 396.83L534.36 397.59L533.29 398.29L532.18 398.92L531.01 399.49L529.81 400L528.57 400.43L527.3 400.8L525.99 401.08L524.65 401.29L523.28 401.42L521.9 401.46L520.51 401.42L519.14 401.29L517.8 401.09L516.49 400.81L515.22 400.45L513.98 400.02L512.78 399.53L511.61 398.96L510.5 398.34L509.43 397.65L508.4 396.9L507.43 396.09L506.52 395.23L505.66 394.32L504.86 393.36L504.13 392.36L503.46 391.31L502.86 390.22L502.33 389.09L501.87 387.93L501.49 386.73L501.19 385.5L500.98 384.25L500.84 382.96L500.8 381.66L500.84 380.36L500.98 379.07L501.19 377.82L501.49 376.59L501.87 375.39L502.33 374.23L502.86 373.1L503.46 372.01L504.13 370.96L504.86 369.96L505.66 369L506.52 368.09L507.43 367.23L508.4 366.42L509.43 365.67L510.5 364.98L511.61 364.36L512.78 363.79L513.98 363.3L515.22 362.87L516.49 362.51L517.8 362.23L519.14 362.03L520.51 361.9L521.9 361.86L523.28 361.9L524.65 362.03ZM519.16 363.58L517.84 363.81L516.54 364.11L515.28 364.5L514.06 364.97L512.88 365.51L511.74 366.12L510.66 366.8L509.62 367.55L508.64 368.36L507.72 369.22L506.86 370.14L506.07 371.11L505.34 372.13L504.69 373.2L504.11 374.31L503.61 375.45L503.2 376.64L502.87 377.85L502.63 379.1L502.49 380.37L502.44 381.66L502.49 382.95L502.63 384.22L502.87 385.47L503.2 386.68L503.61 387.87L504.11 389.01L504.69 390.12L505.34 391.19L506.07 392.21L506.86 393.18L507.72 394.1L508.64 394.96L509.62 395.77L510.66 396.52L511.74 397.2L512.88 397.81L514.06 398.35L515.28 398.82L516.54 399.21L517.84 399.51L519.16 399.74L520.52 399.88L521.9 399.92L523.27 399.88L524.63 399.74L525.95 399.51L527.25 399.21L528.51 398.82L529.73 398.35L530.91 397.81L532.05 397.2L533.13 396.52L534.17 395.77L535.15 394.96L536.07 394.1L536.93 393.18L537.72 392.21L538.45 391.19L539.1 390.12L539.68 389.01L540.18 387.87L540.59 386.68L540.92 385.47L541.16 384.22L541.3 382.95L541.35 381.66L541.3 380.37L541.16 379.1L540.93 377.85L540.61 376.64L540.2 375.45L539.71 374.31L539.14 373.2L538.5 372.13L537.78 371.11L537 370.14L536.14 369.22L535.23 368.36L534.25 367.55L533.22 366.8L532.14 366.12L531 365.51L529.82 364.97L528.59 364.5L527.32 364.11L526.01 363.81L524.67 363.58L523.3 363.44L521.9 363.4L520.52 363.44L519.16 363.58Z" id="dYXkyibji"></path><path d="M584.19 308.51L584.19 314.47L579.68 314.47L579.68 308.51L580.7 308.51L580.7 307.93L583.16 307.93L583.16 308.51L584.19 308.51ZM582.96 311.97L583.78 311.01L583.57 311.01L582.96 311.97ZM580.29 311.2L580.5 311.2L580.5 311.78L580.29 311.78L580.29 311.97L580.91 311.97L580.7 311.01L580.5 311.01L580.29 311.2ZM583.57 311.97L583.78 311.78L583.66 311.67L583.6 311.66L583.57 311.75L583.57 311.97ZM580.91 311.78L581.52 311.78L581.55 311.77L581.62 311.75L581.7 311.69L581.73 311.58L581.73 311.78L582.34 311.78L582.37 311.77L582.44 311.75L582.51 311.69L582.55 311.58L582.55 311.01L580.91 311.01L580.91 311.78ZM582.78 311.3L582.85 311.32L582.92 311.23L582.96 311.01L582.75 311.2L582.78 311.3Z" id="caqZG0Dvx"></path><path d="M454.41 553.25L454.41 528.65L589.38 528.65L589.38 553.25L454.41 553.25Z" id="a6qgTCRSdp"></path><path d="M462.78 533.36L462.84 533.41L462.89 533.47L462.95 533.55L463 533.64L463.06 533.74L463.12 533.86L463.17 533.99L463.23 534.13L463.28 534.29L463.29 534.34L463.3 534.39L463.33 534.44L463.36 534.5L463.39 534.55L463.43 534.6L463.48 534.65L463.53 534.71L463.58 534.76L463.64 534.81L463.69 534.86L463.74 534.92L463.79 534.98L463.82 535.06L463.86 535.13L463.88 535.21L463.91 535.29L463.94 535.36L463.97 535.44L464.01 535.51L464.05 535.58L464.1 535.63L464.15 535.68L464.2 535.74L464.23 535.79L464.27 535.84L464.29 535.89L464.32 535.95L464.35 536L464.38 536.05L464.42 536.1L464.46 536.16L464.51 536.21L464.51 536.21L464.51 536.23L464.52 536.24L464.52 536.27L464.53 536.29L464.55 536.32L464.57 536.34L464.59 536.37L464.63 536.38L464.67 536.4L464.72 536.4L464.77 536.45L464.81 536.49L464.84 536.52L464.87 536.55L464.89 536.58L464.9 536.61L464.91 536.63L464.92 536.66L464.92 536.7L464.92 536.74L464.92 536.79L464.92 537.17L464.92 537.22L464.9 537.27L464.88 537.33L464.85 537.38L464.82 537.43L464.77 537.48L464.73 537.54L464.68 537.59L464.62 537.64L464.57 537.69L464.51 537.75L464.45 537.8L464.38 537.85L464.31 537.9L464.23 537.96L464.15 538.01L464.06 538.06L463.98 538.11L463.9 538.17L463.82 538.22L463.75 538.27L463.63 538.38L463.56 538.43L463.49 538.48L463.41 538.53L463.33 538.59L463.24 538.64L463.16 538.69L463.08 538.74L463 538.8L462.94 538.85L462.87 538.9L462.82 538.95L462.76 539L462.71 539.06L462.66 539.11L462.61 539.16L462.57 539.21L462.54 539.27L462.51 539.32L462.48 539.37L462.47 539.42L462.46 539.48L462.46 539.86L462.47 539.87L462.47 539.88L462.47 539.9L462.47 539.92L462.48 539.94L462.5 539.97L462.52 540L462.54 540.02L462.58 540.04L462.62 540.05L462.67 540.05L462.67 540.1L462.69 540.14L462.71 540.17L462.73 540.2L462.76 540.21L462.79 540.23L462.81 540.24L462.84 540.24L462.86 540.24L462.87 540.25L462.87 540.25L463.05 540.51L463.23 540.77L463.42 541.03L463.62 541.28L463.82 541.54L464.03 541.79L464.24 542.03L464.46 542.27L464.68 542.5L464.9 542.72L465.13 542.94L465.36 543.14L465.59 543.34L465.84 543.53L466.09 543.72L466.35 543.9L466.62 544.09L466.89 544.27L467.16 544.46L467.44 544.65L467.72 544.85L468 545.05L468.2 545.24L468.25 545.25L468.29 545.26L468.33 545.28L468.35 545.3L468.37 545.33L468.39 545.35L468.39 545.38L468.4 545.4L468.4 545.42L468.4 545.43L468.4 545.44L468.81 545.44L468.87 545.44L468.91 545.43L468.95 545.43L468.99 545.43L469.02 545.42L469.07 545.4L469.11 545.39L469.17 545.36L469.24 545.33L469.33 545.29L469.43 545.24L469.48 545.19L469.54 545.14L469.6 545.08L469.65 545.02L469.71 544.96L469.76 544.9L469.82 544.83L469.88 544.75L469.93 544.67L469.99 544.57L470.04 544.47L470.1 544.42L470.15 544.35L470.21 544.28L470.27 544.21L470.32 544.13L470.38 544.05L470.43 543.97L470.49 543.9L470.55 543.83L470.6 543.76L470.66 543.71L470.71 543.65L470.77 543.6L470.83 543.55L470.88 543.51L470.94 543.46L470.99 543.42L471.05 543.39L471.1 543.36L471.16 543.34L471.22 543.33L471.27 543.32L471.48 543.32L471.53 543.33L471.57 543.34L471.61 543.36L471.64 543.38L471.67 543.4L471.7 543.43L471.72 543.46L471.76 543.48L471.79 543.5L471.84 543.51L471.89 543.51L472.09 543.71L472.15 543.75L472.2 543.79L472.26 543.83L472.31 543.86L472.37 543.88L472.43 543.91L472.48 543.94L472.54 543.97L472.59 544L472.65 544.04L472.71 544.09L472.77 544.14L472.84 544.18L472.91 544.21L472.99 544.24L473.07 544.27L473.16 544.3L473.24 544.32L473.32 544.35L473.4 544.39L473.46 544.43L473.53 544.47L473.59 544.52L473.65 544.56L473.73 544.6L473.8 544.63L473.87 544.65L473.94 544.68L474.01 544.71L474.06 544.74L474.1 544.77L474.13 544.81L474.14 544.86L474.3 544.92L474.44 544.98L474.56 545.05L474.66 545.12L474.74 545.19L474.81 545.25L474.87 545.31L474.91 545.36L474.94 545.4L474.95 545.43L474.96 545.44L475.26 545.53L475.51 545.61L475.72 545.68L475.87 545.73L475.99 545.78L476.07 545.82L476.13 545.85L476.16 545.89L476.18 545.92L476.19 545.96L476.19 546.01L476.19 546.07L476.19 546.13L476.18 546.2L476.18 546.28L476.17 546.36L476.15 546.44L476.14 546.51L476.11 546.59L476.08 546.66L476.03 546.72L475.98 546.78L475.98 546.88L475.97 546.97L475.95 547.06L475.92 547.13L475.89 547.2L475.87 547.27L475.84 547.33L475.82 547.39L475.8 547.44L475.78 547.5L475.78 547.55L475.72 547.66L475.64 547.76L475.56 547.87L475.46 547.98L475.35 548.09L475.23 548.21L475.09 548.33L474.93 548.46L474.75 548.6L474.56 548.74L474.34 548.9L474.13 549L473.92 549.09L473.71 549.17L473.51 549.24L473.32 549.3L473.12 549.35L472.92 549.4L472.72 549.43L472.52 549.45L472.31 549.47L472.09 549.47L471.48 549.47L471.42 549.47L471.37 549.47L471.31 549.47L471.25 549.46L471.2 549.45L471.14 549.44L471.09 549.42L471.03 549.4L470.97 549.37L470.92 549.33L470.86 549.28L470.81 549.28L470.75 549.26L470.69 549.25L470.64 549.22L470.58 549.2L470.53 549.17L470.47 549.15L470.42 549.12L470.36 549.1L470.3 549.09L470.19 549.08L470.14 549.07L470.08 549.05L470.02 549.03L469.97 549.01L469.91 548.98L469.86 548.95L469.8 548.93L469.75 548.91L469.69 548.9L469.63 548.9L469.53 548.85L469.43 548.81L469.34 548.78L469.27 548.75L469.2 548.73L469.15 548.72L469.1 548.71L469.06 548.71L469.04 548.7L469.02 548.7L469.02 548.7L468.8 548.65L468.59 548.58L468.39 548.51L468.19 548.43L467.99 548.34L467.79 548.25L467.6 548.15L467.4 548.05L467.2 547.95L466.98 547.85L466.77 547.74L466.48 547.58L466.19 547.39L465.89 547.19L465.59 546.98L465.28 546.75L464.97 546.52L464.67 546.27L464.36 546.02L464.07 545.77L463.77 545.51L463.49 545.24L463.21 544.98L462.93 544.7L462.66 544.42L462.39 544.14L462.13 543.85L461.88 543.56L461.64 543.27L461.41 542.99L461.2 542.71L461 542.43L460.83 542.17L460.71 542.01L460.6 541.84L460.5 541.66L460.39 541.47L460.29 541.28L460.19 541.08L460.1 540.88L460.01 540.68L459.93 540.47L459.86 540.26L459.8 540.05L459.8 540.05L459.8 540.03L459.8 540.01L459.79 539.98L459.78 539.93L459.77 539.88L459.75 539.82L459.72 539.75L459.69 539.67L459.65 539.58L459.55 539.38L459.5 539.29L459.47 539.21L459.45 539.13L459.43 539.07L459.41 539.02L459.4 538.98L459.4 538.94L459.39 538.92L459.39 538.9L459.39 538.9L459.39 538.85L459.37 538.81L459.36 538.77L459.33 538.74L459.3 538.7L459.28 538.66L459.25 538.62L459.23 538.56L459.21 538.5L459.19 538.42L459.19 538.32L459.19 538.27L459.19 538.2L459.18 538.13L459.18 538.07L459.17 538L459.15 537.93L459.14 537.87L459.11 537.82L459.08 537.78L459.03 537.76L458.98 537.75L458.98 537.17L458.99 536.96L459 536.75L459.03 536.54L459.06 536.34L459.11 536.14L459.17 535.94L459.23 535.75L459.31 535.57L459.39 535.39L459.49 535.22L459.6 535.06L459.71 534.85L459.82 534.66L459.93 534.48L460.04 534.31L460.16 534.16L460.27 534.03L460.38 533.92L460.49 533.83L460.6 533.76L460.71 533.72L460.83 533.71L460.89 533.71L460.96 533.69L461.03 533.67L461.11 533.65L461.19 533.63L461.28 533.6L461.36 533.58L461.44 533.55L461.52 533.53L461.59 533.52L461.65 533.52L461.75 533.51L461.85 533.5L461.94 533.48L462.02 533.46L462.1 533.43L462.17 533.41L462.23 533.38L462.29 533.36L462.35 533.34L462.41 533.33L462.46 533.33L462.67 533.33L462.73 533.33L462.78 533.36Z" id="b3W035Yus"></path><path d="M531.06 296.68C532.35 296.68 533.41 297.74 533.41 299.03C533.41 299.51 533.41 298.56 533.41 299.03C533.41 300.33 532.35 301.39 531.06 301.39C527.62 301.39 519.65 301.39 516.22 301.39C514.92 301.39 513.87 300.33 513.87 299.03C513.87 298.56 513.87 299.51 513.87 299.03C513.87 297.74 514.92 296.68 516.22 296.68C519.65 296.68 527.62 296.68 531.06 296.68Z" id="e2KEXbkSrN"></path><path d="M458.98 409.07L518.07 409.07L518.07 455.63L458.98 455.63L458.98 409.07Z" id="e1zrZGwB05"></path><path d="M525.09 409.07L584.19 409.07L584.19 455.63L525.09 455.63L525.09 409.07Z" id="a1rmz93i1G"></path><path d="M458.98 460.24L518.07 460.24L518.07 506.79L458.98 506.79L458.98 460.24Z" id="a1IlGgFCYp"></path><path d="M525.09 460.24L584.19 460.24L584.19 506.79L525.09 506.79L525.09 460.24Z" id="bkfDh9n2"></path><path d="M525.23 534.92L525.23 534.9L525.23 534.88L525.23 534.86L525.24 534.84L525.24 534.83L525.25 534.81L525.25 534.79L525.26 534.77L525.27 534.76L525.27 534.74L525.28 534.72L525.29 534.71L525.3 534.69L525.31 534.68L525.33 534.66L525.34 534.65L525.35 534.63L525.36 534.62L525.38 534.6L525.39 534.59L525.41 534.58L525.42 534.57L525.44 534.56L525.46 534.55L525.48 534.54L525.49 534.53L525.51 534.52L525.53 534.51L525.55 534.5L525.57 534.49L525.59 534.49L525.61 534.48L525.63 534.47L525.65 534.47L525.67 534.47L525.7 534.46L525.72 534.46L525.74 534.46L525.76 534.46L525.79 534.46L528.01 534.46L528.03 534.46L528.06 534.46L528.08 534.46L528.1 534.46L528.12 534.47L528.14 534.47L528.16 534.47L528.19 534.48L528.21 534.49L528.23 534.49L528.25 534.5L528.27 534.51L528.28 534.52L528.3 534.53L528.32 534.54L528.34 534.55L528.35 534.56L528.37 534.57L528.39 534.58L528.4 534.59L528.42 534.6L528.43 534.62L528.45 534.63L528.46 534.65L528.47 534.66L528.48 534.68L528.49 534.69L528.5 534.71L528.51 534.72L528.52 534.74L528.53 534.76L528.54 534.77L528.54 534.79L528.55 534.81L528.55 534.83L528.56 534.84L528.56 534.86L528.56 534.88L528.57 534.9L528.57 534.92L528.57 539.79L530.79 541.88L528.57 541.88L528.57 548.37L523.62 548.37L523.62 548.37L523.62 548.35L523.62 543.84L523.62 543.82L523.61 543.8L523.61 543.78L523.61 543.76L523.6 543.74L523.6 543.72L523.59 543.7L523.59 543.69L523.58 543.67L523.57 543.65L523.56 543.63L523.55 543.61L523.54 543.6L523.53 543.58L523.52 543.56L523.51 543.55L523.49 543.53L523.48 543.52L523.46 543.5L523.45 543.49L523.43 543.48L523.42 543.46L523.4 543.45L523.38 543.44L523.36 543.43L523.34 543.42L523.33 543.41L523.31 543.4L523.29 543.39L523.27 543.38L523.25 543.38L523.22 543.37L523.2 543.36L523.18 543.36L523.16 543.35L523.14 543.35L523.11 543.35L523.09 543.35L523.07 543.34L523.04 543.34L520.75 543.34L520.72 543.34L520.7 543.35L520.68 543.35L520.65 543.35L520.63 543.35L520.61 543.36L520.59 543.36L520.57 543.37L520.55 543.38L520.52 543.38L520.5 543.39L520.48 543.4L520.46 543.41L520.45 543.42L520.43 543.43L520.41 543.44L520.39 543.45L520.37 543.46L520.36 543.48L520.34 543.49L520.33 543.5L520.31 543.52L520.3 543.53L520.28 543.55L520.27 543.56L520.26 543.58L520.25 543.6L520.24 543.61L520.23 543.63L520.22 543.65L520.21 543.67L520.2 543.69L520.2 543.7L520.19 543.72L520.19 543.74L520.18 543.76L520.18 543.78L520.18 543.8L520.17 543.82L520.17 543.84L520.17 548.35L520.17 548.37L520.17 548.37L515.22 548.37L515.22 541.88L513 541.88L521.9 533.53L525.23 536.66L525.23 534.92Z" id="b1yHdxCeMl"></path><path d="M566.15 548.37L566.15 535.1L584.19 535.1L584.19 548.37L566.15 548.37ZM575.05 543.95L567.84 538.5L567.84 546.6L582.49 546.6L582.49 538.29L575.07 543.9L575.05 543.95ZM575.03 541.38L581 536.87L569.06 536.87L575.03 541.38Z" id="a156UwS07P"></path><path d="M542.16 541.29C542.16 537.5 546.31 534.43 551.43 534.43C556.55 534.43 560.7 537.5 560.7 541.29C560.7 545.08 556.55 548.16 551.43 548.16C550.19 548.16 549 547.98 547.92 547.65C547.69 547.77 546.55 548.38 544.49 549.47L545.02 546.25C543.12 544.25 542.16 542.59 542.16 541.29Z" id="b5Vo3HY7YM"></path><path d="M491.18 532.88L491.21 532.88L491.24 532.88L491.28 532.89L491.31 532.89L491.34 532.9L491.37 532.9L491.4 532.91L491.43 532.92L491.45 532.92L491.48 532.93L491.51 532.94L491.53 532.95L491.56 532.96L491.59 532.97L491.61 532.99L491.63 533L491.66 533.01L491.68 533.03L491.7 533.04L491.72 533.05L491.74 533.07L491.76 533.08L491.78 533.1L491.79 533.12L491.81 533.13L491.82 533.15L491.84 533.17L491.85 533.19L491.86 533.21L491.87 533.23L491.88 533.24L491.89 533.26L491.9 533.28L491.9 533.3L491.91 533.32L491.91 533.34L491.91 533.37L491.91 533.39L491.91 534.22L493.78 534.22L493.78 533.39L493.78 533.37L493.78 533.34L493.78 533.32L493.79 533.3L493.79 533.28L493.8 533.26L493.81 533.24L493.82 533.23L493.83 533.21L493.84 533.19L493.85 533.17L493.87 533.15L493.88 533.13L493.9 533.12L493.91 533.1L493.93 533.08L493.95 533.07L493.97 533.05L493.99 533.04L494.01 533.03L494.03 533.01L494.06 533L494.08 532.99L494.1 532.97L494.13 532.96L494.15 532.95L494.18 532.94L494.21 532.93L494.24 532.92L494.26 532.92L494.29 532.91L494.32 532.9L494.35 532.9L494.38 532.89L494.41 532.89L494.45 532.88L494.48 532.88L494.51 532.88L494.54 532.88L494.57 532.88L494.61 532.88L494.64 532.88L494.67 532.88L494.7 532.88L494.74 532.89L494.77 532.89L494.8 532.9L494.83 532.9L494.86 532.91L494.89 532.92L494.91 532.92L494.94 532.93L494.97 532.94L495 532.95L495.02 532.96L495.05 532.97L495.07 532.99L495.09 533L495.12 533.01L495.14 533.03L495.16 533.04L495.18 533.05L495.2 533.07L495.22 533.08L495.24 533.1L495.25 533.12L495.27 533.13L495.28 533.15L495.3 533.17L495.31 533.19L495.32 533.21L495.33 533.23L495.34 533.24L495.35 533.26L495.36 533.28L495.36 533.3L495.37 533.32L495.37 533.34L495.37 533.37L495.37 533.39L495.37 534.22L497.24 534.22L497.24 533.39L497.24 533.37L497.24 533.34L497.24 533.32L497.25 533.3L497.25 533.28L497.26 533.26L497.27 533.24L497.28 533.23L497.29 533.21L497.3 533.19L497.31 533.17L497.33 533.15L497.34 533.13L497.36 533.12L497.37 533.1L497.39 533.08L497.41 533.07L497.43 533.05L497.45 533.04L497.47 533.03L497.49 533.01L497.52 533L497.54 532.99L497.56 532.97L497.59 532.96L497.61 532.95L497.64 532.94L497.67 532.93L497.7 532.92L497.72 532.92L497.75 532.91L497.78 532.9L497.81 532.9L497.84 532.89L497.87 532.89L497.91 532.88L497.94 532.88L497.97 532.88L498 532.88L498.04 532.88L498.07 532.88L498.1 532.88L498.13 532.88L498.16 532.88L498.2 532.89L498.23 532.89L498.26 532.9L498.29 532.9L498.32 532.91L498.35 532.92L498.37 532.92L498.4 532.93L498.43 532.94L498.46 532.95L498.48 532.96L498.51 532.97L498.53 532.99L498.55 533L498.58 533.01L498.6 533.03L498.62 533.04L498.64 533.05L498.66 533.07L498.68 533.08L498.7 533.1L498.71 533.12L498.73 533.13L498.74 533.15L498.76 533.17L498.77 533.19L498.78 533.21L498.79 533.23L498.8 533.24L498.81 533.26L498.82 533.28L498.82 533.3L498.83 533.32L498.83 533.34L498.83 533.37L498.83 533.39L498.83 534.22L503.09 534.22L503.09 549.02L486.06 549.02L486.06 534.22L490.32 534.22L490.32 533.39L490.32 533.37L490.32 533.34L490.32 533.32L490.33 533.3L490.33 533.28L490.34 533.26L490.35 533.24L490.36 533.23L490.37 533.21L490.38 533.19L490.39 533.17L490.41 533.15L490.42 533.13L490.44 533.12L490.45 533.1L490.47 533.08L490.49 533.07L490.51 533.05L490.53 533.04L490.55 533.03L490.57 533.01L490.59 533L490.62 532.99L490.64 532.97L490.67 532.96L490.69 532.95L490.72 532.94L490.75 532.93L490.78 532.92L490.8 532.92L490.83 532.91L490.86 532.9L490.89 532.9L490.92 532.89L490.95 532.89L490.98 532.88L491.02 532.88L491.05 532.88L491.08 532.88L491.11 532.88L491.15 532.88L491.18 532.88ZM487.65 547.49L501.5 547.49L501.5 535.75L498.83 535.75L498.83 536.45L498.83 536.47L498.83 536.49L498.83 536.51L498.82 536.53L498.82 536.55L498.81 536.57L498.8 536.59L498.79 536.61L498.78 536.63L498.77 536.65L498.76 536.66L498.74 536.68L498.73 536.7L498.71 536.72L498.7 536.73L498.68 536.75L498.66 536.77L498.64 536.78L498.62 536.79L498.6 536.81L498.58 536.82L498.55 536.84L498.53 536.85L498.51 536.86L498.48 536.87L498.46 536.88L498.43 536.89L498.4 536.9L498.37 536.91L498.35 536.92L498.32 536.93L498.29 536.93L498.26 536.94L498.23 536.94L498.2 536.95L498.16 536.95L498.13 536.95L498.1 536.96L498.07 536.96L498.04 536.96L498 536.96L497.97 536.96L497.94 536.95L497.91 536.95L497.87 536.95L497.84 536.94L497.81 536.94L497.78 536.93L497.75 536.93L497.72 536.92L497.7 536.91L497.67 536.9L497.64 536.89L497.61 536.88L497.59 536.87L497.56 536.86L497.54 536.85L497.52 536.84L497.49 536.82L497.47 536.81L497.45 536.79L497.43 536.78L497.41 536.77L497.39 536.75L497.37 536.73L497.36 536.72L497.34 536.7L497.33 536.68L497.31 536.66L497.3 536.65L497.29 536.63L497.28 536.61L497.27 536.59L497.26 536.57L497.25 536.55L497.25 536.53L497.24 536.51L497.24 536.49L497.24 536.47L497.24 536.45L497.24 535.75L495.37 535.75L495.37 536.45L495.37 536.47L495.37 536.49L495.37 536.51L495.36 536.53L495.36 536.55L495.35 536.57L495.34 536.59L495.33 536.61L495.32 536.63L495.31 536.65L495.3 536.66L495.28 536.68L495.27 536.7L495.25 536.72L495.24 536.73L495.22 536.75L495.2 536.77L495.18 536.78L495.16 536.79L495.14 536.81L495.12 536.82L495.09 536.84L495.07 536.85L495.05 536.86L495.02 536.87L495 536.88L494.97 536.89L494.94 536.9L494.91 536.91L494.89 536.92L494.86 536.93L494.83 536.93L494.8 536.94L494.77 536.94L494.74 536.95L494.7 536.95L494.67 536.95L494.64 536.96L494.61 536.96L494.57 536.96L494.54 536.96L494.51 536.96L494.48 536.95L494.45 536.95L494.41 536.95L494.38 536.94L494.35 536.94L494.32 536.93L494.29 536.93L494.26 536.92L494.24 536.91L494.21 536.9L494.18 536.89L494.15 536.88L494.13 536.87L494.1 536.86L494.08 536.85L494.06 536.84L494.03 536.82L494.01 536.81L493.99 536.79L493.97 536.78L493.95 536.77L493.93 536.75L493.91 536.73L493.9 536.72L493.88 536.7L493.87 536.68L493.85 536.66L493.84 536.65L493.83 536.63L493.82 536.61L493.81 536.59L493.8 536.57L493.79 536.55L493.79 536.53L493.78 536.51L493.78 536.49L493.78 536.47L493.78 536.45L493.78 535.75L491.91 535.75L491.91 536.45L491.91 536.47L491.91 536.49L491.91 536.51L491.9 536.53L491.9 536.55L491.89 536.57L491.88 536.59L491.87 536.61L491.86 536.63L491.85 536.65L491.84 536.66L491.82 536.68L491.81 536.7L491.79 536.72L491.78 536.73L491.76 536.75L491.74 536.77L491.72 536.78L491.7 536.79L491.68 536.81L491.66 536.82L491.63 536.84L491.61 536.85L491.59 536.86L491.56 536.87L491.53 536.88L491.51 536.89L491.48 536.9L491.45 536.91L491.43 536.92L491.4 536.93L491.37 536.93L491.34 536.94L491.31 536.94L491.28 536.95L491.24 536.95L491.21 536.95L491.18 536.96L491.15 536.96L491.11 536.96L491.08 536.96L491.05 536.96L491.02 536.95L490.98 536.95L490.95 536.95L490.92 536.94L490.89 536.94L490.86 536.93L490.83 536.93L490.8 536.92L490.78 536.91L490.75 536.9L490.72 536.89L490.69 536.88L490.67 536.87L490.64 536.86L490.62 536.85L490.59 536.84L490.57 536.82L490.55 536.81L490.53 536.79L490.51 536.78L490.49 536.77L490.47 536.75L490.45 536.73L490.44 536.72L490.42 536.7L490.41 536.68L490.39 536.66L490.38 536.65L490.37 536.63L490.36 536.61L490.35 536.59L490.34 536.57L490.33 536.55L490.33 536.53L490.32 536.51L490.32 536.49L490.32 536.47L490.32 536.45L490.32 535.75L487.65 535.75L487.65 547.49ZM497.24 546.14L497.24 544.18L499.29 544.18L499.29 546.14L497.24 546.14ZM489.78 546.14L489.78 544.18L491.84 544.18L491.84 546.14L489.78 546.14ZM493.59 546.14L493.59 544.18L495.64 544.18L495.64 546.14L493.59 546.14ZM493.59 543.01L493.59 541.04L495.64 541.04L495.64 543.01L493.59 543.01ZM489.78 543.01L489.78 541.04L491.84 541.04L491.84 543.01L489.78 543.01ZM497.24 543.01L497.24 541.04L499.29 541.04L499.29 543.01L497.24 543.01ZM493.59 539.95L493.59 537.98L495.64 537.98L495.64 539.95L493.59 539.95ZM489.78 539.95L489.78 537.98L491.84 537.98L491.84 539.95L489.78 539.95ZM497.24 539.95L497.24 537.98L499.29 537.98L499.29 539.95L497.24 539.95Z" id="a5MZ8ZaSf"></path><path d="M570.69 307.93L569.18 312.87L570.69 312.87L569.61 316.43L573.69 311.49L571.54 311.49L573.05 307.93L570.69 307.93Z" id="aLKrs8kph"></path></defs><g><g><g><use xlink:href="#a25tuEaVrD" opacity="1" fill="#ebecf0" fill-opacity="1"></use><g><use xlink:href="#a25tuEaVrD" opacity="1" fill-opacity="0" stroke="#000000" stroke-width="1" stroke-opacity="0"></use></g></g><g><use xlink:href="#a1j7qjApdG" opacity="1" fill="#ffffff" fill-opacity="1"></use><g><use xlink:href="#a1j7qjApdG" opacity="1" fill-opacity="0" stroke="#8c91a5" stroke-width="1" stroke-opacity="1"></use></g></g><g><use xlink:href="#a8LS7uojw" opacity="1" fill="#ffffff" fill-opacity="1"></use><g><use xlink:href="#a8LS7uojw" opacity="1" fill-opacity="0" stroke="#8c91a5" stroke-width="1" stroke-opacity="1"></use></g></g><g><use xlink:href="#d46LFynrKh" opacity="1" fill="#ffffff" fill-opacity="1"></use><g><use xlink:href="#d46LFynrKh" opacity="1" fill-opacity="0" stroke="#8c91a5" stroke-width="1" stroke-opacity="1"></use></g></g><g><use xlink:href="#d3xaHtn5NR" opacity="1" fill="#ffffff" fill-opacity="1"></use><g><use xlink:href="#d3xaHtn5NR" opacity="1" fill-opacity="0" stroke="#8c91a5" stroke-width="0.25" stroke-opacity="1"></use></g></g><g><use xlink:href="#aF0u2VVyJ" opacity="1" fill="#ad52bd" fill-opacity="1"></use><g><use xlink:href="#aF0u2VVyJ" opacity="1" fill-opacity="0" stroke="#000000" stroke-width="1" stroke-opacity="0"></use></g></g><g><use xlink:href="#aDs6cmPfr" opacity="1" fill="#8c91a5" fill-opacity="1"></use><g><use xlink:href="#aDs6cmPfr" opacity="1" fill-opacity="0" stroke="#000000" stroke-width="1" stroke-opacity="0"></use></g></g><g><use xlink:href="#cxSUUNGK" opacity="1" fill="#000000" fill-opacity="0"></use><g><use xlink:href="#cxSUUNGK" opacity="1" fill-opacity="0" stroke="#c9cedf" stroke-width="0.75" stroke-opacity="1"></use></g></g><g><use xlink:href="#b29PhBzn0S" opacity="1" fill="#ad52bd" fill-opacity="1"></use><g><use xlink:href="#b29PhBzn0S" opacity="1" fill-opacity="0" stroke="#c9cedf" stroke-width="0.75" stroke-opacity="1"></use></g></g><g><use xlink:href="#b24UENsMTy" opacity="1" fill="#ad52bd" fill-opacity="1"></use><g><use xlink:href="#b24UENsMTy" opacity="1" fill-opacity="0" stroke="#000000" stroke-width="1" stroke-opacity="0"></use></g></g><g><use xlink:href="#aMd2LBdEJ" opacity="1" fill="#ad52bd" fill-opacity="1"></use></g><g><use xlink:href="#a4Hokr8r8N" opacity="1" fill="#ad52bd" fill-opacity="1"></use><g><use xlink:href="#a4Hokr8r8N" opacity="1" fill-opacity="0" stroke="#000000" stroke-width="1" stroke-opacity="0"></use></g></g><g><use xlink:href="#a1Jpw14oXc" opacity="1" fill="#ad52bd" fill-opacity="1"></use><g><use xlink:href="#a1Jpw14oXc" opacity="1" fill-opacity="0" stroke="#000000" stroke-width="1" stroke-opacity="0"></use></g></g><g><use xlink:href="#a7uXdGFqpL" opacity="1" fill="#ad52bd" fill-opacity="1"></use></g><g><use xlink:href="#a1HCuAwOQE" opacity="1" fill="#ad52bd" fill-opacity="1"></use></g><g><use xlink:href="#bFfJnjHHd" opacity="1" fill="#ffffff" fill-opacity="1"></use><g><use xlink:href="#bFfJnjHHd" opacity="1" fill-opacity="0" stroke="#8c91a5" stroke-width="1" stroke-opacity="1"></use></g></g><g><use xlink:href="#a4OZeBQ3w5" opacity="1" fill="#fdfdfc" fill-opacity="1"></use><g><use xlink:href="#a4OZeBQ3w5" opacity="1" fill-opacity="0" stroke="#8c91a5" stroke-width="0.75" stroke-opacity="1"></use></g></g><g><use xlink:href="#aRNs1e86Q" opacity="1" fill="#bfbfbe" fill-opacity="1"></use><g><use xlink:href="#aRNs1e86Q" opacity="1" fill-opacity="0" stroke="#000000" stroke-width="1" stroke-opacity="0"></use></g></g><g><use xlink:href="#b2Muf0PnXV" opacity="1" fill="#eed3b7" fill-opacity="1"></use><g><use xlink:href="#b2Muf0PnXV" opacity="1" fill-opacity="0" stroke="#000000" stroke-width="1" stroke-opacity="0"></use></g></g><g><use xlink:href="#a2Sly4vl9c" opacity="1" fill="#c7cbdb" fill-opacity="1"></use><g><use xlink:href="#a2Sly4vl9c" opacity="1" fill-opacity="0" stroke="#000000" stroke-width="1" stroke-opacity="0"></use></g></g><g><use xlink:href="#au7QKGMpB" opacity="1" fill="#898da1" fill-opacity="1"></use><g><use xlink:href="#au7QKGMpB" opacity="1" fill-opacity="0" stroke="#000000" stroke-width="1" stroke-opacity="0"></use></g></g><g><use xlink:href="#axRNRSo7U" opacity="1" fill="#c7cbdb" fill-opacity="1"></use><g><use xlink:href="#axRNRSo7U" opacity="1" fill-opacity="0" stroke="#000000" stroke-width="1" stroke-opacity="0"></use></g></g><g><use xlink:href="#ap2bYv6FA" opacity="1" fill="#ad52bd" fill-opacity="1"></use><g><use xlink:href="#ap2bYv6FA" opacity="1" fill-opacity="0" stroke="#000000" stroke-width="1" stroke-opacity="0"></use></g></g><g><use xlink:href="#dYXkyibji" opacity="1" fill="#c7cbdb" fill-opacity="1"></use><g><use xlink:href="#dYXkyibji" opacity="1" fill-opacity="0" stroke="#a434b7" stroke-width="6" stroke-opacity="0"></use></g></g><g><use xlink:href="#caqZG0Dvx" opacity="1" fill="#3a3e4b" fill-opacity="1"></use><g><use xlink:href="#caqZG0Dvx" opacity="1" fill-opacity="0" stroke="#000000" stroke-width="1" stroke-opacity="0"></use></g></g><g><use xlink:href="#a6qgTCRSdp" opacity="1" fill="#c7cbdb" fill-opacity="1"></use><g><use xlink:href="#a6qgTCRSdp" opacity="1" fill-opacity="0" stroke="#000000" stroke-width="1" stroke-opacity="0"></use></g></g><g><use xlink:href="#b3W035Yus" opacity="1" fill="#898da1" fill-opacity="1"></use><g><use xlink:href="#b3W035Yus" opacity="1" fill-opacity="0" stroke="#000000" stroke-width="1" stroke-opacity="0"></use></g></g><g><use xlink:href="#e2KEXbkSrN" opacity="1" fill="#cccccc" fill-opacity="1"></use></g><g><use xlink:href="#e1zrZGwB05" opacity="1" fill="#ad52bd" fill-opacity="1"></use></g><g><use xlink:href="#a1rmz93i1G" opacity="1" fill="#ad52bd" fill-opacity="1"></use></g><g><use xlink:href="#a1IlGgFCYp" opacity="1" fill="#ad52bd" fill-opacity="1"></use></g><g><use xlink:href="#bkfDh9n2" opacity="1" fill="#ad52bd" fill-opacity="1"></use></g><g><use xlink:href="#b1yHdxCeMl" opacity="1" fill="#898da1" fill-opacity="1"></use></g><g><use xlink:href="#a156UwS07P" opacity="1" fill="#898da1" fill-opacity="1"></use></g><g><use xlink:href="#b5Vo3HY7YM" opacity="1" fill="#898da1" fill-opacity="1"></use></g><g><use xlink:href="#a5MZ8ZaSf" opacity="1" fill="#898da1" fill-opacity="1"></use></g><g><use xlink:href="#aLKrs8kph" opacity="1" fill="#3a3e4b" fill-opacity="1"></use></g></g></g></svg>