<svg xmlns="http://www.w3.org/2000/svg" xmlns:xlink="http://www.w3.org/1999/xlink" width="300" height="300" preserveAspectRatio="xMidYMid meet" version="1.1" viewBox="0 0 300 300"><defs><path id="c37L18DSqK" d="M161.47 107.13L161.63 107.22L161.78 107.31L161.91 107.42L162.05 107.53L162.17 107.64L162.28 107.76L162.39 107.89L162.49 108.03L162.58 108.17L162.67 108.31L162.75 108.47L162.83 108.62L162.89 108.78L162.95 108.95L163.01 109.13L163.06 109.3L163.11 109.49L163.15 109.67L163.18 109.87L163.21 110.06L163.24 110.26L163.26 110.47L163.27 110.68L163.29 110.89L163.3 111.11L163.3 111.33L163.3 111.56L163.3 111.78L163.3 112.02L163.29 112.25L163.28 112.49L163.27 112.73L163.26 112.97L163.24 113.22L163.23 113.47L163.21 113.72L163.19 113.98L163.17 114.23L161.03 130.07L162.05 130.92L164.23 132.9L166.33 134.97L168.34 137.11L170.25 139.33L170.41 139.52L185.92 137.15L186.17 137.13L186.42 137.11L186.67 137.09L186.91 137.07L187.15 137.05L187.39 137.03L187.63 137.02L187.86 137L188.09 137L188.32 136.99L188.54 136.99L188.76 136.99L188.98 136.99L189.19 137L189.4 137.01L189.6 137.02L189.8 137.04L190 137.06L190.19 137.09L190.38 137.13L190.57 137.16L190.75 137.21L190.92 137.26L191.09 137.31L191.25 137.37L191.41 137.44L191.57 137.51L191.72 137.59L191.86 137.68L192 137.78L192.13 137.88L192.26 137.99L192.38 138.1L192.49 138.23L192.6 138.36L192.71 138.5L192.8 138.65L192.89 138.8L192.97 138.97L193.05 139.15L203.58 165.28L203.65 165.46L203.7 165.64L203.75 165.82L203.78 166L203.81 166.18L203.83 166.36L203.83 166.53L203.83 166.71L203.82 166.89L203.8 167.06L203.77 167.24L203.73 167.42L203.68 167.59L203.63 167.76L203.57 167.94L203.5 168.11L203.42 168.28L203.33 168.45L203.24 168.62L203.14 168.79L203.03 168.96L202.92 169.13L202.8 169.3L202.67 169.46L202.54 169.63L202.4 169.79L202.26 169.96L202.11 170.12L201.95 170.28L201.79 170.44L201.63 170.6L201.46 170.76L201.29 170.92L201.11 171.08L200.93 171.24L200.74 171.39L200.55 171.55L200.36 171.7L200.16 171.85L199.96 172L187.51 181.92L187.55 182.26L187.72 185.24L187.79 188.24L187.74 191.25L187.57 194.27L187.44 195.62L199.77 205.09L199.97 205.24L200.17 205.38L200.36 205.53L200.55 205.68L200.73 205.83L200.91 205.98L201.09 206.13L201.26 206.28L201.43 206.43L201.59 206.59L201.75 206.74L201.9 206.9L202.05 207.06L202.19 207.22L202.33 207.38L202.46 207.54L202.58 207.7L202.7 207.86L202.81 208.03L202.92 208.19L203.02 208.36L203.11 208.53L203.19 208.7L203.27 208.87L203.34 209.04L203.4 209.21L203.45 209.38L203.5 209.55L203.53 209.73L203.56 209.9L203.58 210.08L203.59 210.25L203.59 210.43L203.58 210.61L203.57 210.79L203.54 210.96L203.5 211.15L203.45 211.33L203.39 211.51L203.32 211.69L192.53 238.19L192.45 238.37L192.37 238.54L192.28 238.7L192.18 238.85L192.08 238.99L191.97 239.13L191.85 239.26L191.73 239.38L191.6 239.49L191.47 239.6L191.33 239.7L191.18 239.79L191.03 239.87L190.88 239.95L190.72 240.03L190.55 240.09L190.38 240.15L190.21 240.21L190.03 240.26L189.84 240.3L189.65 240.34L189.46 240.38L189.26 240.41L189.06 240.43L188.86 240.46L188.65 240.47L188.43 240.49L188.22 240.5L188 240.51L187.77 240.51L187.55 240.51L187.32 240.51L187.09 240.51L186.85 240.5L186.61 240.49L186.37 240.48L186.13 240.47L185.88 240.46L185.63 240.44L185.38 240.43L169.94 238.59L169.09 239.64L167.1 241.92L165.03 244.11L162.89 246.21L160.68 248.22L160.44 248.42L162.41 264.18L162.45 264.43L162.49 264.68L162.52 264.92L162.55 265.16L162.57 265.4L162.59 265.64L162.61 265.88L162.62 266.12L162.63 266.35L162.64 266.58L162.64 266.8L162.64 267.03L162.63 267.25L162.62 267.47L162.6 267.68L162.58 267.89L162.56 268.1L162.53 268.3L162.49 268.5L162.45 268.7L162.4 268.89L162.35 269.08L162.29 269.26L162.23 269.44L162.16 269.61L162.08 269.78L162 269.94L161.91 270.1L161.81 270.25L161.71 270.4L161.6 270.54L161.49 270.67L161.37 270.8L161.24 270.92L161.1 271.04L160.96 271.15L160.81 271.25L160.65 271.35L160.48 271.44L160.31 271.52L134.52 282.86L134.34 282.93L134.16 282.99L133.99 283.04L133.82 283.08L133.65 283.11L133.48 283.13L133.31 283.14L133.14 283.14L132.97 283.13L132.81 283.11L132.64 283.08L132.48 283.04L132.32 282.99L132.15 282.94L131.99 282.87L131.83 282.8L131.67 282.72L131.51 282.64L131.35 282.54L131.2 282.44L131.04 282.33L130.88 282.22L130.72 282.1L130.57 281.97L130.41 281.84L130.25 281.7L130.09 281.56L129.94 281.41L129.78 281.25L129.62 281.1L129.46 280.93L129.31 280.77L129.15 280.59L128.99 280.42L128.83 280.24L128.67 280.06L128.51 279.87L128.35 279.69L128.19 279.5L128.02 279.3L118.62 266.81L118.31 266.85L115.39 267.1L112.46 267.23L109.51 267.24L106.56 267.14L105.25 267.04L95.71 279.86L95.55 280.06L95.38 280.25L95.22 280.44L95.06 280.63L94.9 280.82L94.73 281.01L94.57 281.19L94.41 281.36L94.25 281.54L94.1 281.7L93.94 281.87L93.78 282.03L93.62 282.18L93.46 282.33L93.3 282.47L93.14 282.61L92.98 282.74L92.83 282.87L92.67 282.99L92.51 283.1L92.35 283.21L92.19 283.31L92.03 283.4L91.87 283.49L91.71 283.56L91.54 283.63L91.38 283.69L91.22 283.75L91.05 283.79L90.89 283.82L90.72 283.85L90.56 283.87L90.39 283.87L90.22 283.87L90.05 283.86L89.88 283.83L89.71 283.8L89.53 283.76L89.36 283.7L89.18 283.63L63.5 273.17L63.33 273.1L63.16 273.02L63 272.92L62.85 272.83L62.71 272.72L62.58 272.61L62.45 272.49L62.33 272.37L62.21 272.24L62.11 272.1L62.01 271.96L61.91 271.81L61.83 271.66L61.75 271.5L61.67 271.33L61.6 271.16L61.54 270.98L61.49 270.8L61.43 270.62L61.39 270.43L61.35 270.23L61.32 270.04L61.29 269.83L61.26 269.63L61.24 269.42L61.23 269.2L61.22 268.98L61.21 268.76L61.21 268.54L61.22 268.31L61.23 268.08L61.24 267.85L61.25 267.62L61.27 267.38L61.3 267.14L61.33 266.9L61.36 266.65L61.39 266.41L61.43 266.16L61.47 265.91L63.6 250.07L62.59 249.23L60.41 247.24L58.31 245.17L56.3 243.03L54.38 240.81L54.16 240.53L38.76 242.88L38.52 242.93L38.27 242.97L38.03 243.01L37.8 243.04L37.56 243.07L37.32 243.1L37.09 243.12L36.86 243.14L36.64 243.16L36.41 243.17L36.19 243.17L35.97 243.18L35.75 243.17L35.54 243.17L35.33 243.15L35.13 243.14L34.92 243.12L34.72 243.09L34.53 243.06L34.34 243.02L34.15 242.97L33.97 242.92L33.79 242.87L33.62 242.81L33.45 242.74L33.29 242.66L33.14 242.58L32.98 242.5L32.84 242.4L32.7 242.3L32.56 242.2L32.43 242.08L32.31 241.96L32.19 241.83L32.08 241.69L31.98 241.55L31.88 241.4L31.79 241.24L31.71 241.07L31.63 240.89L21.1 214.76L21.03 214.58L20.98 214.4L20.93 214.22L20.9 214.05L20.87 213.87L20.86 213.7L20.85 213.53L20.86 213.35L20.87 213.18L20.9 213.01L20.93 212.84L20.97 212.68L21.02 212.51L21.08 212.34L21.14 212.18L21.22 212.01L21.3 211.84L21.39 211.68L21.48 211.52L21.58 211.35L21.69 211.19L21.81 211.02L21.93 210.86L22.06 210.7L22.19 210.53L22.33 210.37L22.47 210.2L22.62 210.04L22.77 209.88L22.93 209.71L23.1 209.55L23.26 209.38L23.43 209.22L23.61 209.05L23.79 208.88L23.97 208.72L24.15 208.55L24.34 208.38L24.53 208.21L24.72 208.04L37.12 198.16L37.09 197.89L36.91 194.9L36.85 191.9L36.9 188.89L37.07 185.87L37.2 184.53L24.87 175.05L24.67 174.89L24.49 174.72L24.3 174.56L24.12 174.4L23.94 174.24L23.76 174.08L23.59 173.92L23.42 173.76L23.26 173.6L23.09 173.44L22.94 173.28L22.79 173.12L22.64 172.96L22.5 172.8L22.36 172.64L22.23 172.48L22.1 172.32L21.98 172.16L21.87 172L21.76 171.84L21.66 171.68L21.57 171.52L21.48 171.36L21.4 171.2L21.33 171.03L21.26 170.87L21.21 170.71L21.16 170.54L21.12 170.37L21.09 170.2L21.07 170.04L21.06 169.87L21.05 169.69L21.06 169.52L21.08 169.35L21.1 169.17L21.14 168.99L21.19 168.82L21.24 168.64L21.31 168.45L32.11 141.95L32.18 141.78L32.27 141.6L32.36 141.44L32.46 141.29L32.57 141.14L32.68 141L32.8 140.86L32.92 140.74L33.05 140.62L33.19 140.51L33.33 140.4L33.48 140.3L33.63 140.21L33.79 140.12L33.95 140.04L34.12 139.97L34.29 139.9L34.47 139.84L34.65 139.79L34.84 139.74L35.03 139.69L35.22 139.65L35.42 139.62L35.63 139.59L35.83 139.56L36.04 139.54L36.25 139.53L36.47 139.52L36.69 139.52L36.91 139.51L37.14 139.52L37.36 139.52L37.59 139.54L37.83 139.55L38.06 139.57L38.3 139.59L38.53 139.62L38.77 139.65L39.01 139.68L39.26 139.72L54.7 141.55L55.55 140.5L57.54 138.22L59.61 136.03L61.75 133.93L63.96 131.92L64.2 131.72L62.22 115.96L62.2 115.71L62.19 115.45L62.17 115.2L62.16 114.95L62.14 114.71L62.13 114.46L62.13 114.22L62.12 113.98L62.11 113.75L62.11 113.52L62.12 113.29L62.12 113.06L62.13 112.84L62.14 112.62L62.15 112.41L62.17 112.2L62.2 111.99L62.22 111.79L62.26 111.59L62.29 111.4L62.33 111.21L62.38 111.03L62.43 110.85L62.49 110.67L62.55 110.5L62.62 110.34L62.7 110.18L62.78 110.02L62.87 109.87L62.96 109.73L63.07 109.59L63.17 109.46L63.29 109.34L63.41 109.22L63.55 109.1L63.69 108.99L63.83 108.89L63.99 108.8L64.15 108.71L64.33 108.63L90.12 97.29L90.3 97.21L90.48 97.15L90.65 97.1L90.83 97.06L91 97.03L91.18 97.01L91.35 97L91.52 97L91.7 97L91.87 97.02L92.04 97.05L92.21 97.08L92.38 97.13L92.55 97.18L92.72 97.24L92.88 97.31L93.05 97.38L93.22 97.47L93.38 97.56L93.54 97.66L93.71 97.76L93.87 97.88L94.03 98L94.19 98.12L94.35 98.25L94.51 98.39L94.67 98.53L94.82 98.68L94.98 98.84L95.13 99L95.28 99.16L95.44 99.33L95.59 99.51L95.74 99.69L95.89 99.87L96.03 100.06L96.18 100.25L96.33 100.44L96.47 100.64L96.61 100.84L106.02 113.33L106.32 113.29L109.24 113.05L112.18 112.91L115.12 112.9L118.07 113.01L119.39 113.11L128.93 100.29L129.07 100.08L129.22 99.88L129.36 99.68L129.51 99.48L129.66 99.29L129.81 99.1L129.96 98.92L130.12 98.74L130.27 98.56L130.43 98.39L130.58 98.23L130.74 98.07L130.9 97.91L131.06 97.76L131.22 97.62L131.38 97.48L131.54 97.35L131.7 97.23L131.86 97.11L132.03 97L132.19 96.9L132.36 96.8L132.52 96.71L132.69 96.63L132.86 96.55L133.03 96.49L133.2 96.43L133.37 96.38L133.54 96.34L133.71 96.3L133.88 96.28L134.05 96.27L134.23 96.26L134.4 96.27L134.58 96.28L134.75 96.31L134.93 96.34L135.1 96.39L135.28 96.44L135.45 96.51L161.14 106.97L161.31 107.05L161.47 107.13ZM124.93 150.3L123.36 149.85L121.78 149.46L120.19 149.14L118.6 148.88L117.01 148.7L115.42 148.58L113.83 148.52L112.24 148.53L110.66 148.6L109.09 148.73L107.53 148.92L105.97 149.18L104.43 149.5L102.9 149.87L101.39 150.31L99.9 150.8L98.42 151.35L96.96 151.96L95.53 152.62L94.12 153.34L92.74 154.11L91.39 154.94L90.06 155.82L88.77 156.75L87.51 157.73L86.28 158.76L85.09 159.84L83.93 160.97L82.82 162.15L81.75 163.38L80.72 164.65L79.74 165.97L78.8 167.34L77.91 168.75L77.07 170.2L76.28 171.7L75.54 173.24L74.86 174.82L74.25 176.42L73.7 178.04L73.22 179.66L72.8 181.29L72.45 182.92L72.17 184.55L71.95 186.18L71.8 187.81L71.71 189.44L71.68 191.06L71.72 192.67L71.81 194.28L71.97 195.88L72.18 197.46L72.46 199.03L72.8 200.58L73.19 202.12L73.64 203.64L74.14 205.14L74.7 206.61L75.32 208.06L75.99 209.49L76.72 210.88L77.5 212.25L78.33 213.59L79.21 214.89L80.14 216.16L81.12 217.39L82.16 218.59L83.24 219.74L84.37 220.86L85.54 221.93L86.77 222.95L88.04 223.93L89.35 224.86L90.71 225.74L92.11 226.56L93.56 227.34L95.05 228.06L96.58 228.72L98.14 229.31L99.7 229.84L101.28 230.3L102.86 230.69L104.45 231.01L106.04 231.26L107.63 231.45L109.22 231.57L110.81 231.63L112.39 231.62L113.97 231.55L115.55 231.41L117.11 231.22L118.67 230.96L120.21 230.65L121.73 230.27L123.25 229.84L124.74 229.34L126.22 228.79L127.67 228.19L129.1 227.52L130.51 226.8L131.9 226.03L133.25 225.21L134.58 224.33L135.87 223.4L137.13 222.42L138.36 221.38L139.55 220.3L140.7 219.17L141.82 217.99L142.89 216.76L143.92 215.49L144.9 214.17L145.84 212.81L146.73 211.4L147.57 209.94L148.36 208.45L149.09 206.91L149.77 205.33L150.39 203.72L150.94 202.11L151.42 200.49L151.84 198.86L152.18 197.23L152.47 195.6L152.68 193.96L152.84 192.33L152.93 190.71L152.96 189.09L152.92 187.47L152.83 185.86L152.67 184.27L152.45 182.68L152.18 181.11L151.84 179.56L151.45 178.02L151 176.5L150.49 175.01L149.93 173.53L149.32 172.08L148.64 170.66L147.92 169.26L147.14 167.89L146.31 166.56L145.43 165.25L144.5 163.98L143.51 162.75L142.48 161.56L141.4 160.4L140.27 159.29L139.09 158.22L137.87 157.19L136.6 156.22L135.29 155.29L133.93 154.41L132.52 153.58L131.08 152.81L129.59 152.09L128.06 151.43L126.5 150.83L124.93 150.3Z"/><path id="b3eHCII9g3" d="M179.13 190.07C179.13 228.34 149.19 259.4 112.32 259.4C75.45 259.4 45.51 228.34 45.51 190.07C45.51 151.81 75.45 120.74 112.32 120.74C149.19 120.74 179.13 151.81 179.13 190.07Z"/><path id="e7YKAeMk30" d="M120.3 190.07C120.3 194.48 116.72 198.06 112.32 198.06C107.91 198.06 104.34 194.48 104.34 190.07C104.34 185.67 107.91 182.09 112.32 182.09C116.72 182.09 120.3 185.67 120.3 190.07Z"/><path id="f3Lt5qpsSy" d="M111.32 123.89L113.32 123.89L113.32 133.89L111.32 133.89L111.32 123.89Z"/><path id="aaYjuMvxI" d="M111.32 246.57L113.32 246.57L113.32 256.57L111.32 256.57L111.32 246.57Z"/><path id="as4eT2Mx1" d="M175.51 189.07L175.51 191.07L165.51 191.07L165.51 189.07L175.51 189.07Z"/><path id="ajJUO2vye" d="M58.69 189.07L58.69 191.07L48.69 191.07L48.69 189.07L58.69 189.07Z"/><path id="c4GQqGACOY" d="M147.99 136.51L149.67 137.59L144.28 146.01L142.59 144.93L147.99 136.51Z"/><path id="dZEmaj06T" d="M168.1 159.83L169.21 161.49L160.91 167.06L159.8 165.4L168.1 159.83Z"/><path id="aoWL0cnS0" d="M168.17 222.13L167.22 223.89L158.42 219.14L159.37 217.38L168.17 222.13Z"/><path id="adzCmw1lJ" d="M146.6 244.97L145.08 246.27L138.58 238.67L140.1 237.37L146.6 244.97Z"/><path id="c2v03Al5T" d="M82.83 237.16L84.46 238.32L78.69 246.48L77.05 245.33L82.83 237.16Z"/><path id="ig7rYL9TT" d="M65.21 217.2L66.24 218.92L57.67 224.07L56.64 222.35L65.21 217.2Z"/><path id="cCrq4OZMk" d="M65.81 164.37L64.95 166.18L55.91 161.91L56.76 160.1L65.81 164.37Z"/><path id="aEoTer4KD" d="M84.59 141.85L83.01 143.08L76.85 135.2L78.43 133.97L84.59 141.85Z"/><path id="bvyNje7F" d="M118.69 190.07C118.69 193.59 115.84 196.45 112.32 196.45C108.8 196.45 105.94 193.59 105.94 190.07C105.94 186.55 108.8 183.7 112.32 183.7C115.84 183.7 118.69 186.55 118.69 190.07Z"/><path id="cCFGzO5Jw" d="M111.32 136.51L113.32 136.51L113.32 183.7L111.32 183.7L111.32 136.51Z"/><path id="b5jJLL6GjR" d="M146.13 191.08L146.13 189.08L118.69 189.07L118.69 191.07L146.13 191.08Z"/><path id="a30V8Cxzg5" d="M111.9 189.24L113.32 190.65L75.76 228.32L74.35 226.91L111.9 189.24Z"/><path id="bUSvYLuoK" d="M236.46 31.63L236.56 31.65L236.66 31.68L236.76 31.71L236.85 31.75L236.94 31.79L237.03 31.84L237.12 31.89L237.2 31.95L237.28 32.01L237.35 32.07L237.42 32.14L237.49 32.22L237.56 32.29L237.63 32.37L237.69 32.46L237.75 32.55L237.81 32.64L237.87 32.74L237.92 32.84L237.97 32.94L238.02 33.05L238.07 33.16L238.12 33.27L238.17 33.38L238.21 33.5L238.26 33.62L238.3 33.75L238.34 33.87L238.38 34L238.42 34.13L238.46 34.26L238.49 34.4L238.53 34.53L238.57 34.67L238.6 34.81L238.64 34.96L238.67 35.1L238.71 35.24L240.37 44.33L241.1 44.62L242.7 45.33L244.26 46.1L245.79 46.94L247.27 47.82L247.4 47.9L255.76 43.91L255.89 43.86L256.03 43.8L256.17 43.75L256.3 43.69L256.43 43.64L256.57 43.59L256.7 43.54L256.83 43.49L256.96 43.45L257.08 43.41L257.21 43.37L257.33 43.33L257.46 43.29L257.58 43.26L257.7 43.23L257.82 43.2L257.94 43.18L258.05 43.16L258.17 43.14L258.28 43.12L258.39 43.11L258.5 43.11L258.61 43.1L258.71 43.1L258.82 43.11L258.92 43.12L259.02 43.13L259.12 43.15L259.22 43.17L259.31 43.2L259.41 43.23L259.5 43.27L259.59 43.31L259.67 43.36L259.76 43.42L259.84 43.48L259.93 43.54L260 43.61L260.08 43.69L260.16 43.77L270.86 56.33L270.93 56.42L271 56.5L271.06 56.6L271.11 56.69L271.16 56.78L271.2 56.88L271.24 56.97L271.27 57.07L271.29 57.17L271.31 57.27L271.33 57.37L271.34 57.48L271.34 57.58L271.34 57.68L271.34 57.79L271.33 57.9L271.32 58.01L271.3 58.12L271.28 58.23L271.25 58.34L271.22 58.45L271.19 58.56L271.15 58.67L271.11 58.79L271.06 58.9L271.02 59.01L270.96 59.13L270.91 59.25L270.85 59.36L270.79 59.48L270.73 59.59L270.66 59.71L270.59 59.83L270.52 59.95L270.44 60.06L270.36 60.18L270.28 60.3L270.2 60.42L270.12 60.53L270.03 60.65L264.78 68.26L264.86 68.44L265.5 70.05L266.08 71.69L266.6 73.36L267.05 75.05L267.22 75.81L275.93 78.89L276.07 78.94L276.21 78.98L276.34 79.03L276.47 79.08L276.61 79.13L276.74 79.18L276.86 79.23L276.99 79.28L277.11 79.34L277.23 79.4L277.35 79.46L277.47 79.52L277.58 79.58L277.69 79.64L277.79 79.7L277.9 79.77L278 79.84L278.09 79.91L278.19 79.98L278.28 80.05L278.36 80.13L278.44 80.2L278.52 80.28L278.6 80.36L278.67 80.44L278.73 80.52L278.79 80.61L278.85 80.7L278.9 80.79L278.95 80.88L278.99 80.97L279.03 81.07L279.06 81.16L279.09 81.26L279.11 81.36L279.13 81.47L279.14 81.57L279.15 81.68L279.15 81.79L279.14 81.9L277.83 98.35L277.82 98.46L277.8 98.57L277.78 98.68L277.75 98.78L277.72 98.87L277.68 98.97L277.64 99.06L277.59 99.15L277.54 99.23L277.49 99.31L277.42 99.39L277.36 99.47L277.29 99.54L277.22 99.61L277.14 99.68L277.06 99.74L276.97 99.8L276.88 99.87L276.79 99.92L276.69 99.98L276.59 100.03L276.49 100.09L276.38 100.14L276.27 100.19L276.16 100.24L276.05 100.28L275.93 100.33L275.81 100.37L275.69 100.41L275.56 100.45L275.43 100.49L275.3 100.53L275.17 100.57L275.03 100.61L274.9 100.64L274.76 100.68L274.62 100.72L274.48 100.75L274.33 100.79L274.19 100.82L265.11 102.49L264.82 103.21L264.1 104.81L263.33 106.37L262.5 107.9L261.61 109.39L261.51 109.54L265.49 117.87L265.55 118L265.62 118.13L265.68 118.26L265.74 118.38L265.8 118.51L265.85 118.64L265.91 118.77L265.96 118.89L266 119.02L266.05 119.15L266.09 119.27L266.13 119.39L266.17 119.52L266.2 119.64L266.23 119.76L266.26 119.88L266.28 120L266.3 120.12L266.31 120.23L266.33 120.35L266.33 120.46L266.34 120.57L266.34 120.68L266.33 120.79L266.33 120.9L266.31 121L266.3 121.11L266.27 121.21L266.25 121.31L266.22 121.41L266.18 121.5L266.14 121.6L266.09 121.69L266.04 121.78L265.99 121.87L265.93 121.95L265.86 122.03L265.79 122.12L265.71 122.19L265.63 122.27L253.07 132.97L252.98 133.05L252.9 133.11L252.81 133.17L252.72 133.22L252.62 133.26L252.53 133.3L252.44 133.34L252.34 133.37L252.24 133.39L252.15 133.41L252.05 133.42L251.95 133.43L251.85 133.43L251.75 133.43L251.64 133.42L251.54 133.41L251.43 133.39L251.33 133.37L251.22 133.35L251.11 133.32L251 133.29L250.89 133.25L250.78 133.21L250.67 133.17L250.56 133.12L250.44 133.08L250.33 133.02L250.21 132.97L250.1 132.91L249.98 132.85L249.86 132.79L249.74 132.73L249.62 132.66L249.5 132.59L249.37 132.52L249.25 132.45L249.13 132.37L249 132.3L248.87 132.22L248.75 132.14L241.15 126.9L240.99 126.97L239.38 127.62L237.74 128.2L236.07 128.71L234.38 129.17L233.62 129.34L230.54 138.04L230.48 138.18L230.43 138.32L230.37 138.45L230.31 138.59L230.25 138.72L230.2 138.85L230.14 138.97L230.08 139.1L230.02 139.22L229.96 139.34L229.9 139.46L229.84 139.57L229.78 139.69L229.71 139.79L229.65 139.9L229.59 140L229.52 140.1L229.45 140.2L229.38 140.3L229.32 140.39L229.24 140.47L229.17 140.55L229.1 140.63L229.02 140.71L228.94 140.78L228.87 140.84L228.78 140.9L228.7 140.96L228.62 141.01L228.53 141.06L228.44 141.1L228.35 141.14L228.26 141.18L228.16 141.2L228.06 141.23L227.96 141.24L227.86 141.25L227.75 141.26L227.64 141.26L227.53 141.25L211.08 139.95L210.97 139.94L210.86 139.92L210.75 139.9L210.65 139.87L210.55 139.83L210.45 139.8L210.36 139.75L210.27 139.71L210.18 139.65L210.1 139.6L210.01 139.54L209.93 139.47L209.86 139.4L209.78 139.33L209.71 139.25L209.64 139.17L209.57 139.08L209.51 138.99L209.45 138.9L209.39 138.8L209.33 138.7L209.27 138.6L209.22 138.49L209.17 138.38L209.12 138.27L209.07 138.16L209.03 138.04L208.99 137.92L208.94 137.79L208.91 137.67L208.87 137.54L208.83 137.41L208.8 137.28L208.77 137.14L208.74 137.01L208.71 136.87L208.68 136.73L208.66 136.59L208.63 136.45L208.61 136.3L206.95 127.22L206.22 126.93L204.62 126.22L203.06 125.44L201.53 124.61L200.04 123.72L199.86 123.61L191.57 127.57L191.44 127.63L191.31 127.7L191.18 127.76L191.05 127.82L190.92 127.88L190.79 127.93L190.67 127.99L190.54 128.04L190.41 128.09L190.29 128.13L190.16 128.17L190.04 128.21L189.92 128.25L189.8 128.28L189.67 128.31L189.55 128.34L189.44 128.36L189.32 128.38L189.2 128.39L189.09 128.41L188.97 128.41L188.86 128.42L188.75 128.42L188.64 128.41L188.54 128.41L188.43 128.39L188.33 128.38L188.22 128.36L188.12 128.33L188.03 128.3L187.93 128.26L187.84 128.22L187.74 128.18L187.65 128.13L187.57 128.07L187.48 128.01L187.4 127.94L187.32 127.87L187.24 127.79L187.17 127.71L176.46 115.15L176.39 115.06L176.33 114.98L176.27 114.89L176.22 114.8L176.17 114.7L176.13 114.61L176.1 114.52L176.07 114.42L176.04 114.33L176.03 114.23L176.02 114.13L176.01 114.03L176.01 113.93L176.01 113.83L176.01 113.72L176.03 113.62L176.04 113.52L176.06 113.41L176.09 113.3L176.11 113.19L176.15 113.09L176.18 112.98L176.22 112.86L176.26 112.75L176.31 112.64L176.36 112.53L176.41 112.41L176.46 112.29L176.52 112.18L176.58 112.06L176.64 111.94L176.71 111.82L176.78 111.7L176.84 111.58L176.92 111.46L176.99 111.33L177.06 111.21L177.14 111.08L177.21 110.96L177.29 110.83L182.52 103.25L182.46 103.1L181.82 101.49L181.24 99.85L180.72 98.19L180.26 96.49L180.09 95.73L171.39 92.66L171.25 92.6L171.11 92.54L170.98 92.48L170.85 92.43L170.72 92.37L170.59 92.31L170.46 92.25L170.33 92.19L170.21 92.13L170.09 92.07L169.97 92.01L169.86 91.95L169.75 91.89L169.64 91.83L169.53 91.76L169.43 91.7L169.33 91.63L169.23 91.57L169.14 91.5L169.05 91.43L168.96 91.36L168.88 91.29L168.8 91.21L168.73 91.14L168.66 91.06L168.59 90.98L168.53 90.9L168.47 90.82L168.42 90.73L168.37 90.64L168.33 90.55L168.29 90.46L168.26 90.37L168.23 90.27L168.21 90.17L168.19 90.07L168.18 89.97L168.17 89.86L168.17 89.75L168.18 89.64L169.49 73.19L169.5 73.08L169.51 72.97L169.54 72.87L169.56 72.76L169.6 72.66L169.63 72.57L169.68 72.47L169.73 72.38L169.78 72.3L169.83 72.21L169.9 72.13L169.96 72.05L170.03 71.97L170.11 71.9L170.18 71.82L170.27 71.75L170.35 71.69L170.44 71.62L170.53 71.56L170.63 71.5L170.73 71.44L170.83 71.39L170.94 71.33L171.05 71.28L171.16 71.23L171.28 71.19L171.39 71.14L171.52 71.1L171.64 71.06L171.76 71.02L171.89 70.98L172.02 70.95L172.15 70.91L172.29 70.88L172.42 70.85L172.56 70.82L172.7 70.8L172.84 70.77L172.99 70.75L173.13 70.72L182.21 69.06L182.5 68.33L183.22 66.74L183.99 65.17L184.82 63.65L185.71 62.16L185.81 62.01L181.83 53.68L181.77 53.54L181.72 53.4L181.66 53.27L181.61 53.13L181.56 53L181.51 52.87L181.46 52.74L181.41 52.61L181.37 52.48L181.33 52.35L181.28 52.23L181.25 52.1L181.21 51.98L181.18 51.86L181.15 51.74L181.12 51.62L181.1 51.5L181.07 51.38L181.06 51.27L181.04 51.16L181.03 51.04L181.03 50.94L181.02 50.83L181.02 50.72L181.03 50.62L181.04 50.51L181.05 50.41L181.07 50.31L181.09 50.22L181.12 50.12L181.15 50.03L181.19 49.94L181.23 49.85L181.28 49.76L181.34 49.67L181.4 49.59L181.46 49.51L181.53 49.43L181.61 49.35L181.69 49.28L194.25 38.57L194.33 38.5L194.42 38.44L194.51 38.38L194.61 38.32L194.7 38.28L194.8 38.23L194.89 38.2L194.99 38.17L195.09 38.14L195.19 38.12L195.29 38.11L195.39 38.1L195.5 38.09L195.6 38.09L195.71 38.1L195.82 38.1L195.92 38.12L196.03 38.14L196.14 38.16L196.25 38.18L196.37 38.21L196.48 38.25L196.59 38.28L196.7 38.33L196.82 38.37L196.93 38.42L197.05 38.47L197.16 38.53L197.28 38.58L197.4 38.65L197.51 38.71L197.63 38.78L197.75 38.85L197.86 38.92L197.98 38.99L198.1 39.07L198.22 39.15L198.34 39.23L198.45 39.32L198.57 39.4L206.17 44.65L206.33 44.57L207.94 43.93L209.58 43.35L211.25 42.83L212.94 42.38L213.7 42.21L216.78 33.5L216.82 33.36L216.87 33.23L216.91 33.09L216.96 32.96L217.01 32.83L217.06 32.7L217.12 32.57L217.17 32.44L217.23 32.32L217.28 32.2L217.34 32.08L217.4 31.97L217.46 31.85L217.53 31.74L217.59 31.64L217.66 31.54L217.72 31.44L217.79 31.34L217.86 31.25L217.94 31.16L218.01 31.07L218.09 30.99L218.17 30.91L218.25 30.84L218.33 30.77L218.41 30.7L218.5 30.64L218.58 30.58L218.67 30.53L218.76 30.48L218.86 30.44L218.95 30.4L219.05 30.37L219.15 30.34L219.25 30.32L219.35 30.3L219.46 30.29L219.57 30.29L219.68 30.29L219.79 30.29L236.24 31.6L236.35 31.61L236.46 31.63ZM223.59 61.71L222.62 61.73L221.65 61.79L220.69 61.89L219.74 62.03L218.81 62.2L217.89 62.41L216.97 62.65L216.08 62.93L215.2 63.24L214.33 63.59L213.48 63.97L212.64 64.38L211.83 64.82L211.03 65.29L210.25 65.79L209.5 66.32L208.76 66.88L208.05 67.46L207.35 68.08L206.69 68.72L206.04 69.38L205.43 70.07L204.83 70.78L204.27 71.52L203.73 72.28L203.23 73.06L202.75 73.86L202.3 74.68L201.88 75.52L201.5 76.38L201.15 77.26L200.83 78.16L200.54 79.07L200.3 80L200.08 80.95L199.91 81.91L199.77 82.88L199.67 83.87L199.61 84.86L199.6 85.84L199.62 86.82L199.68 87.78L199.78 88.74L199.91 89.69L200.08 90.62L200.29 91.55L200.54 92.46L200.82 93.35L201.13 94.24L201.47 95.1L201.85 95.95L202.26 96.79L202.7 97.6L203.17 98.4L203.68 99.18L204.21 99.94L204.76 100.67L205.35 101.39L205.96 102.08L206.6 102.75L207.27 103.39L207.95 104.01L208.67 104.6L209.4 105.16L210.16 105.7L210.94 106.21L211.74 106.69L212.57 107.13L213.41 107.55L214.27 107.93L215.15 108.29L216.04 108.6L216.96 108.89L217.89 109.14L218.83 109.35L219.79 109.52L220.77 109.66L221.75 109.76L222.74 109.82L223.73 109.84L224.7 109.82L225.67 109.75L226.63 109.66L227.57 109.52L228.51 109.35L229.43 109.14L230.34 108.9L231.24 108.62L232.12 108.3L232.99 107.96L233.84 107.58L234.67 107.17L235.49 106.73L236.29 106.26L237.07 105.76L237.82 105.23L238.56 104.67L239.27 104.08L239.96 103.47L240.63 102.83L241.27 102.17L241.89 101.48L242.48 100.76L243.05 100.03L243.59 99.27L244.09 98.49L244.57 97.69L245.02 96.87L245.44 96.02L245.82 95.16L246.17 94.28L246.49 93.39L246.77 92.47L247.02 91.54L247.24 90.6L247.41 89.64L247.55 88.67L247.65 87.68L247.7 86.69L247.72 85.7L247.7 84.73L247.64 83.76L247.54 82.81L247.41 81.86L247.23 80.92L247.03 80L246.78 79.09L246.5 78.19L246.19 77.31L245.84 76.44L245.47 75.59L245.06 74.76L244.61 73.94L244.14 73.14L243.64 72.37L243.11 71.61L242.55 70.87L241.97 70.16L241.36 69.47L240.72 68.8L240.05 68.16L239.36 67.54L238.65 66.95L237.91 66.38L237.16 65.85L236.38 65.34L235.57 64.86L234.75 64.41L233.91 64L233.05 63.61L232.17 63.26L231.27 62.94L230.36 62.66L229.43 62.41L228.49 62.2L227.53 62.02L226.55 61.88L225.56 61.79L224.57 61.73L223.59 61.71Z"/><path id="e2Z1oEzIs" d="M119.94 175.19L119.94 175.15L119.95 175.1L119.95 175.06L119.96 175.02L119.97 174.98L119.98 174.93L119.99 174.89L120.01 174.85L120.03 174.81L120.04 174.78L120.06 174.74L120.09 174.7L120.11 174.66L120.13 174.63L120.16 174.59L120.19 174.56L120.22 174.53L120.25 174.5L120.28 174.47L120.32 174.44L120.35 174.41L120.39 174.38L120.43 174.35L120.46 174.33L120.5 174.31L120.55 174.28L120.59 174.26L120.63 174.24L120.67 174.22L120.72 174.21L120.77 174.19L120.81 174.18L120.86 174.17L120.91 174.15L120.96 174.15L121.01 174.14L121.06 174.13L121.11 174.13L121.16 174.12L121.21 174.12L126.3 174.12L126.35 174.12L126.4 174.13L126.45 174.13L126.5 174.14L126.55 174.15L126.6 174.15L126.65 174.17L126.7 174.18L126.75 174.19L126.79 174.21L126.84 174.22L126.88 174.24L126.92 174.26L126.97 174.28L127.01 174.31L127.05 174.33L127.09 174.35L127.12 174.38L127.16 174.41L127.2 174.44L127.23 174.47L127.26 174.5L127.29 174.53L127.32 174.56L127.35 174.59L127.38 174.63L127.4 174.66L127.43 174.7L127.45 174.74L127.47 174.78L127.49 174.81L127.5 174.85L127.52 174.89L127.53 174.93L127.54 174.98L127.55 175.02L127.56 175.06L127.56 175.1L127.57 175.15L127.57 175.19L127.57 186.4L132.65 191.21L127.57 191.21L127.57 206.15L116.25 206.15L116.25 206.15L116.25 206.1L116.25 195.73L116.25 195.69L116.25 195.64L116.24 195.59L116.24 195.55L116.23 195.5L116.22 195.46L116.2 195.41L116.19 195.37L116.17 195.33L116.15 195.29L116.13 195.24L116.11 195.2L116.08 195.17L116.06 195.13L116.03 195.09L116 195.05L115.97 195.02L115.94 194.98L115.9 194.95L115.87 194.92L115.83 194.89L115.8 194.86L115.76 194.83L115.72 194.8L115.68 194.78L115.63 194.75L115.59 194.73L115.54 194.71L115.5 194.69L115.45 194.67L115.41 194.66L115.36 194.64L115.31 194.63L115.26 194.62L115.21 194.61L115.15 194.6L115.1 194.59L115.05 194.59L115 194.58L114.94 194.58L109.69 194.58L109.64 194.58L109.59 194.59L109.53 194.59L109.48 194.6L109.43 194.61L109.38 194.62L109.33 194.63L109.28 194.64L109.23 194.66L109.18 194.67L109.14 194.69L109.09 194.71L109.05 194.73L109 194.75L108.96 194.78L108.92 194.8L108.88 194.83L108.84 194.86L108.8 194.89L108.77 194.92L108.73 194.95L108.7 194.98L108.67 195.02L108.64 195.05L108.61 195.09L108.58 195.13L108.55 195.17L108.53 195.2L108.51 195.24L108.49 195.29L108.47 195.33L108.45 195.37L108.43 195.41L108.42 195.46L108.41 195.5L108.4 195.55L108.39 195.59L108.39 195.64L108.38 195.69L108.38 195.73L108.38 206.1L108.38 206.15L108.38 206.15L97.07 206.15L97.07 191.21L91.99 191.21L112.32 171.99L119.94 179.2L119.94 175.19Z"/><path id="a18WHkwR3j" d="M254.88 86.55C254.88 102.8 241.35 115.99 224.68 115.99C208.01 115.99 194.48 102.8 194.48 86.55C194.48 70.3 208.01 57.11 224.68 57.11C241.35 57.11 254.88 70.3 254.88 86.55Z"/><path id="a2ykQPat8u" d="M227.61 51.01L229.06 51.15L230.5 51.36L231.91 51.62L233.31 51.93L234.68 52.3L236.04 52.72L237.37 53.19L238.67 53.72L239.95 54.29L241.2 54.91L242.43 55.57L243.62 56.28L244.79 57.04L245.92 57.83L247.02 58.67L248.09 59.55L249.12 60.47L250.11 61.43L251.07 62.43L251.99 63.46L252.87 64.53L253.71 65.63L254.51 66.76L255.26 67.93L255.98 69.12L256.64 70.34L257.26 71.6L257.83 72.88L258.35 74.18L258.82 75.51L259.24 76.86L259.61 78.24L259.93 79.63L260.19 81.05L260.39 82.48L260.54 83.94L260.63 85.4L260.66 86.89L260.63 88.37L260.54 89.84L260.39 91.29L260.19 92.73L259.93 94.14L259.61 95.54L259.24 96.91L258.82 98.27L258.35 99.6L257.83 100.9L257.26 102.18L256.64 103.43L255.98 104.66L255.26 105.85L254.51 107.02L253.71 108.15L252.87 109.25L251.99 110.32L251.07 111.35L250.11 112.34L249.12 113.3L248.09 114.22L247.02 115.1L245.92 115.94L244.79 116.74L243.62 117.49L242.43 118.2L241.2 118.87L239.95 119.49L238.67 120.06L237.37 120.58L236.04 121.05L234.68 121.47L233.31 121.84L231.91 122.16L230.5 122.42L229.06 122.62L227.61 122.77L226.14 122.86L224.66 122.89L223.18 122.86L221.71 122.77L220.25 122.62L218.82 122.42L217.4 122.16L216.01 121.84L214.63 121.47L213.28 121.05L211.95 120.58L210.65 120.06L209.37 119.49L208.11 118.87L206.89 118.2L205.69 117.49L204.53 116.74L203.4 115.94L202.3 115.1L201.23 114.22L200.2 113.3L199.2 112.34L198.24 111.35L197.32 110.32L196.44 109.25L195.6 108.15L194.81 107.02L194.05 105.85L193.34 104.66L192.68 103.43L192.06 102.18L191.49 100.9L190.97 99.6L190.49 98.27L190.07 96.91L189.71 95.54L189.39 94.14L189.13 92.73L188.93 91.29L188.78 89.84L188.69 88.37L188.66 86.89L188.69 85.4L188.78 83.94L188.93 82.48L189.13 81.05L189.39 79.63L189.71 78.24L190.07 76.86L190.49 75.51L190.97 74.18L191.49 72.88L192.06 71.6L192.68 70.34L193.34 69.12L194.05 67.93L194.81 66.76L195.6 65.63L196.44 64.53L197.32 63.46L198.24 62.43L199.2 61.43L200.2 60.47L201.23 59.55L202.3 58.67L203.4 57.83L204.53 57.04L205.69 56.28L206.89 55.57L208.11 54.91L209.37 54.29L210.65 53.72L211.95 53.19L213.28 52.72L214.63 52.3L216.01 51.93L217.4 51.62L218.82 51.36L220.25 51.15L221.71 51.01L223.18 50.92L224.66 50.89L226.14 50.92L227.61 51.01ZM215.83 118.92L216.4 119.07L216.96 119.21L217.54 119.34L218.11 119.46L218.69 119.57L219.27 119.67L219.86 119.77L220.45 119.85L221.04 119.92L221.64 119.98L222.24 120.02L222.84 120.06L223.44 120.09L224.05 120.11L224.66 120.11L225.38 120.1L226.1 120.08L226.82 120.04L227.53 119.99L228.24 119.92L228.94 119.84L229.64 119.74L230.33 119.63L231.02 119.5L231.7 119.36L232.38 119.2L233.05 119.04L233.72 118.85L234.38 118.66L235.04 118.45L235.69 118.23L235.67 118.2L235.66 118.17L235.64 118.15L235.63 118.12L235.61 118.09L235.6 118.07L235.58 118.04L235.57 118.01L235.55 117.98L235.54 117.95L235.52 117.92L235.51 117.9L235.49 117.87L235.48 117.84L235.47 117.81L235.46 117.77L225.24 89.8L215.27 118.76L215.83 118.92ZM193.76 74.68L193.5 75.36L193.26 76.03L193.03 76.72L192.81 77.41L192.62 78.1L192.43 78.81L192.26 79.51L192.11 80.23L191.97 80.95L191.84 81.67L191.74 82.4L191.64 83.14L191.57 83.88L191.51 84.62L191.47 85.37L191.44 86.13L191.43 86.89L191.5 88.95L191.68 90.98L191.99 92.97L192.41 94.92L192.94 96.82L193.59 98.68L194.34 100.49L195.19 102.24L196.13 103.93L197.17 105.56L198.3 107.12L199.52 108.61L200.82 110.03L202.2 111.37L203.66 112.63L205.18 113.81L206.78 114.89L208.44 115.89L210.16 116.79L194.31 73.37L194.03 74.02L193.76 74.68ZM253.85 71.28L253.88 71.45L253.89 71.63L253.91 71.8L253.93 71.97L253.95 72.15L253.96 72.33L253.97 72.5L253.99 72.68L254 72.87L254.01 73.05L254.02 73.23L254.02 73.42L254.03 73.6L254.03 73.79L254.04 73.98L254.04 74.17L254.04 74.37L254.03 74.73L254.01 75.13L253.98 75.56L253.93 76.01L253.87 76.5L253.79 77.01L253.7 77.55L253.59 78.12L253.47 78.72L253.34 79.34L253.19 80L253.03 80.68L252.86 81.39L252.67 82.13L252.46 82.9L252.25 83.7L252.02 84.53L251.77 85.38L251.51 86.26L241.36 115.6L242.9 114.65L244.37 113.62L245.79 112.52L247.14 111.34L248.43 110.09L249.64 108.78L250.79 107.4L251.86 105.96L252.86 104.46L253.77 102.9L254.6 101.29L255.35 99.63L256 97.93L256.56 96.18L257.03 94.39L257.4 92.57L257.66 90.7L257.82 88.81L257.88 86.89L257.87 85.98L257.83 85.08L257.77 84.18L257.69 83.29L257.58 82.41L257.45 81.53L257.3 80.66L257.12 79.8L256.92 78.95L256.71 78.11L256.47 77.27L256.2 76.45L255.92 75.63L255.62 74.82L255.3 74.03L254.95 73.24L254.59 72.46L254.21 71.7L253.81 70.95L253.83 71.11L253.85 71.28ZM222.93 53.71L222.07 53.76L221.22 53.84L220.38 53.94L219.54 54.05L218.71 54.19L217.89 54.35L217.07 54.53L216.26 54.73L215.46 54.95L214.67 55.19L213.88 55.45L213.11 55.73L212.34 56.02L211.59 56.34L210.84 56.67L210.1 57.02L209.37 57.38L208.66 57.77L207.95 58.17L207.25 58.59L206.57 59.02L205.9 59.47L205.23 59.94L204.59 60.42L203.95 60.92L203.32 61.43L202.71 61.95L202.11 62.49L201.53 63.05L200.95 63.62L200.4 64.2L199.85 64.8L199.32 65.41L198.81 66.03L198.31 66.66L197.82 67.31L197.35 67.97L196.9 68.64L196.96 68.64L197.02 68.64L197.07 68.64L197.13 68.65L197.19 68.65L197.25 68.65L197.3 68.65L197.36 68.65L197.42 68.65L197.48 68.66L197.53 68.66L197.59 68.66L197.64 68.66L197.7 68.66L197.75 68.66L197.81 68.66L197.86 68.66L197.92 68.67L197.97 68.67L198.03 68.67L198.08 68.67L198.13 68.67L198.19 68.67L198.24 68.67L198.29 68.67L198.34 68.67L198.4 68.67L198.45 68.67L198.5 68.68L198.55 68.68L198.6 68.68L198.65 68.68L198.7 68.68L198.75 68.68L198.8 68.68L198.85 68.68L198.89 68.68L198.94 68.68L198.99 68.68L199.04 68.68L199.3 68.68L199.57 68.68L199.85 68.67L200.13 68.67L200.41 68.66L200.7 68.65L201 68.64L201.29 68.63L201.59 68.62L201.89 68.61L202.18 68.6L202.48 68.59L202.78 68.57L203.07 68.56L203.37 68.54L203.66 68.53L203.94 68.51L204.22 68.5L204.5 68.48L204.77 68.47L205.03 68.45L205.29 68.43L205.54 68.42L205.78 68.4L206.01 68.39L206.23 68.37L206.44 68.36L206.64 68.35L206.82 68.33L207 68.32L207.16 68.31L207.31 68.3L207.44 68.29L207.55 68.28L207.65 68.27L207.74 68.27L207.8 68.26L207.85 68.26L207.88 68.25L207.89 68.25L208.02 68.25L208.15 68.26L208.27 68.28L208.38 68.3L208.49 68.33L208.59 68.38L208.68 68.42L208.77 68.48L208.86 68.54L208.93 68.61L209 68.68L209.06 68.76L209.12 68.84L209.17 68.93L209.22 69.02L209.26 69.11L209.29 69.21L209.31 69.31L209.33 69.41L209.34 69.51L209.35 69.61L209.34 69.71L209.33 69.81L209.32 69.91L209.3 70.01L209.27 70.1L209.23 70.2L209.19 70.29L209.14 70.38L209.08 70.46L209.01 70.54L208.94 70.62L208.86 70.69L208.78 70.75L208.68 70.81L208.58 70.86L208.48 70.91L208.36 70.94L208.24 70.97L208.11 70.99L208.08 71L208.02 71L207.99 71.01L207.95 71.01L207.9 71.02L207.85 71.02L207.79 71.03L207.73 71.04L207.66 71.04L207.59 71.05L207.51 71.06L207.43 71.07L207.34 71.07L207.25 71.08L207.16 71.09L207.06 71.1L206.95 71.11L206.85 71.12L206.74 71.13L206.62 71.14L206.51 71.15L206.38 71.16L206.26 71.17L206.13 71.18L206.01 71.19L205.87 71.21L205.74 71.22L205.6 71.23L205.47 71.24L205.32 71.25L205.18 71.26L205.04 71.27L204.89 71.28L204.75 71.29L204.6 71.29L204.45 71.3L204.3 71.31L216.4 107.3L223.67 85.49L218.5 71.31L218.36 71.3L218.23 71.29L218.1 71.29L217.97 71.28L217.83 71.27L217.7 71.26L217.58 71.25L217.45 71.24L217.32 71.23L217.2 71.22L217.08 71.21L216.96 71.19L216.84 71.18L216.72 71.17L216.61 71.16L216.5 71.15L216.39 71.14L216.28 71.13L216.18 71.12L216.08 71.11L215.99 71.1L215.89 71.09L215.81 71.08L215.72 71.07L215.64 71.07L215.56 71.06L215.49 71.05L215.42 71.04L215.36 71.04L215.3 71.03L215.25 71.02L215.2 71.02L215.16 71.01L215.12 71.01L215.09 71L215.06 71L215.04 71L215.01 70.99L214.88 70.98L214.76 70.96L214.64 70.93L214.53 70.89L214.43 70.84L214.34 70.79L214.25 70.73L214.17 70.66L214.1 70.59L214.04 70.51L213.98 70.43L213.93 70.34L213.89 70.25L213.85 70.15L213.82 70.06L213.8 69.96L213.78 69.86L213.77 69.75L213.77 69.65L213.77 69.55L213.79 69.45L213.8 69.34L213.83 69.24L213.86 69.15L213.9 69.05L213.94 68.96L213.99 68.87L214.05 68.78L214.11 68.7L214.18 68.63L214.26 68.56L214.34 68.49L214.43 68.43L214.52 68.38L214.63 68.34L214.73 68.3L214.85 68.28L214.97 68.26L215.09 68.25L215.22 68.25L215.26 68.26L215.31 68.26L215.38 68.27L215.46 68.27L215.57 68.28L215.68 68.29L215.82 68.3L215.97 68.31L216.13 68.32L216.31 68.33L216.5 68.35L216.7 68.36L216.91 68.37L217.13 68.39L217.36 68.4L217.6 68.42L217.85 68.43L218.11 68.45L218.37 68.47L218.64 68.48L218.92 68.5L219.2 68.51L219.48 68.53L219.77 68.54L220.06 68.56L220.35 68.57L220.64 68.59L220.93 68.6L221.23 68.61L221.52 68.62L221.81 68.63L222.09 68.64L222.38 68.65L222.66 68.66L222.93 68.67L223.2 68.67L223.47 68.68L223.72 68.68L223.97 68.68L224.24 68.68L224.51 68.68L224.78 68.67L225.06 68.67L225.35 68.66L225.64 68.65L225.93 68.64L226.23 68.63L226.52 68.62L226.82 68.61L227.12 68.6L227.42 68.59L227.71 68.57L228.01 68.56L228.3 68.54L228.59 68.53L228.88 68.51L229.16 68.5L229.43 68.48L229.7 68.47L229.97 68.45L230.22 68.43L230.47 68.42L230.71 68.4L230.94 68.39L231.16 68.37L231.37 68.36L231.57 68.35L231.76 68.33L231.93 68.32L232.09 68.31L232.24 68.3L232.37 68.29L232.49 68.28L232.59 68.27L232.67 68.27L232.74 68.26L232.83 68.25L232.96 68.25L233.08 68.26L233.2 68.28L233.32 68.3L233.42 68.33L233.52 68.38L233.62 68.42L233.71 68.48L233.79 68.54L233.87 68.61L233.94 68.68L234 68.76L234.06 68.84L234.11 68.93L234.15 69.02L234.19 69.11L234.22 69.21L234.24 69.31L234.26 69.41L234.27 69.51L234.28 69.61L234.28 69.71L234.27 69.81L234.25 69.91L234.23 70.01L234.2 70.1L234.16 70.2L234.12 70.29L234.07 70.38L234.01 70.46L233.95 70.54L233.87 70.62L233.8 70.69L233.71 70.75L233.62 70.81L233.51 70.86L233.41 70.91L233.29 70.94L233.17 70.97L233.04 70.99L233.01 71L232.96 71L232.92 71.01L232.88 71.01L232.83 71.02L232.78 71.02L232.73 71.03L232.66 71.04L232.59 71.04L232.52 71.05L232.45 71.06L232.36 71.07L232.28 71.07L232.19 71.08L232.09 71.09L231.99 71.1L231.89 71.11L231.78 71.12L231.67 71.13L231.56 71.14L231.44 71.15L231.32 71.16L231.2 71.17L231.07 71.18L230.94 71.19L230.81 71.21L230.68 71.22L230.54 71.23L230.4 71.24L230.26 71.25L230.12 71.26L229.97 71.27L229.83 71.28L229.68 71.29L229.53 71.29L229.39 71.3L229.24 71.31L241.24 107.02L244.56 95.95L244.68 95.63L244.81 95.31L244.92 94.99L245.04 94.68L245.15 94.37L245.26 94.06L245.37 93.75L245.47 93.45L245.57 93.15L245.66 92.85L245.76 92.56L245.85 92.27L245.93 91.98L246.02 91.69L246.1 91.41L246.18 91.12L246.25 90.85L246.32 90.57L246.39 90.3L246.45 90.03L246.52 89.76L246.57 89.5L246.63 89.24L246.68 88.98L246.73 88.72L246.78 88.47L246.82 88.22L246.86 87.97L246.9 87.72L246.93 87.48L246.96 87.24L246.99 87.01L247.01 86.77L247.03 86.54L247.05 86.31L247.06 86.09L247.07 85.86L247.08 85.64L247.09 85.43L247.09 85.21L247.09 84.9L247.08 84.6L247.06 84.31L247.05 84.02L247.02 83.73L246.99 83.44L246.96 83.17L246.92 82.89L246.88 82.62L246.84 82.36L246.79 82.09L246.73 81.84L246.68 81.58L246.62 81.33L246.55 81.09L246.49 80.85L246.42 80.61L246.34 80.37L246.27 80.14L246.19 79.92L246.11 79.69L246.03 79.47L245.94 79.26L245.86 79.04L245.77 78.83L245.68 78.63L245.59 78.43L245.49 78.23L245.4 78.03L245.31 77.83L245.21 77.64L245.12 77.45L245.02 77.27L244.92 77.09L244.83 76.91L244.73 76.73L244.63 76.56L244.54 76.38L244.44 76.21L244.35 76.05L244.22 75.84L244.1 75.64L243.97 75.44L243.85 75.24L243.72 75.04L243.6 74.84L243.48 74.64L243.36 74.45L243.24 74.25L243.13 74.06L243.01 73.87L242.9 73.68L242.79 73.48L242.68 73.29L242.58 73.1L242.47 72.91L242.37 72.72L242.27 72.53L242.18 72.34L242.09 72.15L242 71.96L241.91 71.77L241.83 71.58L241.75 71.39L241.67 71.2L241.6 71.01L241.54 70.82L241.47 70.63L241.41 70.44L241.36 70.24L241.31 70.05L241.26 69.85L241.22 69.66L241.19 69.46L241.16 69.26L241.13 69.06L241.11 68.86L241.1 68.66L241.09 68.46L241.09 68.25L241.09 68.03L241.1 67.8L241.12 67.57L241.15 67.35L241.19 67.12L241.24 66.9L241.29 66.69L241.35 66.47L241.42 66.26L241.5 66.05L241.58 65.84L241.67 65.64L241.77 65.44L241.88 65.24L241.99 65.05L242.11 64.86L242.23 64.68L242.37 64.5L242.5 64.33L242.65 64.16L242.8 64L242.96 63.85L243.12 63.7L243.29 63.56L243.46 63.42L243.64 63.29L243.83 63.17L244.02 63.06L244.21 62.95L244.42 62.85L244.62 62.76L244.83 62.68L245.05 62.61L245.26 62.54L245.49 62.49L245.72 62.44L245.95 62.41L246.18 62.38L246.42 62.37L246.67 62.36L246.69 62.36L246.7 62.36L246.72 62.36L246.74 62.36L246.76 62.36L246.78 62.36L246.81 62.37L246.82 62.37L246.84 62.37L246.86 62.37L246.88 62.37L246.9 62.37L246.92 62.37L246.96 62.38L247.02 62.38L247.06 62.39L247.09 62.39L246.65 61.99L246.19 61.59L245.73 61.21L245.26 60.83L244.79 60.46L244.31 60.1L243.82 59.74L243.32 59.4L242.82 59.07L242.31 58.74L241.8 58.42L241.28 58.11L240.75 57.82L240.22 57.53L239.68 57.25L239.14 56.98L238.59 56.72L238.03 56.47L237.47 56.22L236.9 55.99L236.33 55.77L235.76 55.56L235.18 55.36L234.59 55.17L234 54.99L233.41 54.83L232.81 54.67L232.2 54.52L231.6 54.39L230.98 54.26L230.37 54.15L229.75 54.05L229.12 53.96L228.5 53.88L227.86 53.81L227.23 53.76L226.59 53.72L225.95 53.69L225.31 53.67L224.66 53.66L223.79 53.67L222.93 53.71Z"/></defs><g><g><g><g><filter id="shadow14193592" width="201.98" height="206.61" x="11.85" y="87.26" filterUnits="userSpaceOnUse" primitiveUnits="userSpaceOnUse"><feFlood/><feComposite in2="SourceAlpha" operator="in"/><feGaussianBlur stdDeviation="1"/><feOffset dx="1" dy="1" result="afterOffset"/><feFlood flood-color="#000" flood-opacity=".5"/><feComposite in2="afterOffset" operator="in"/><feMorphology operator="dilate" radius="1"/><feComposite in2="SourceAlpha" operator="out"/></filter><path id="b1eEdK9MQF" fill="#fff" fill-opacity="1" d="M161.47 107.13L161.63 107.22L161.78 107.31L161.91 107.42L162.05 107.53L162.17 107.64L162.28 107.76L162.39 107.89L162.49 108.03L162.58 108.17L162.67 108.31L162.75 108.47L162.83 108.62L162.89 108.78L162.95 108.95L163.01 109.13L163.06 109.3L163.11 109.49L163.15 109.67L163.18 109.87L163.21 110.06L163.24 110.26L163.26 110.47L163.27 110.68L163.29 110.89L163.3 111.11L163.3 111.33L163.3 111.56L163.3 111.78L163.3 112.02L163.29 112.25L163.28 112.49L163.27 112.73L163.26 112.97L163.24 113.22L163.23 113.47L163.21 113.72L163.19 113.98L163.17 114.23L161.03 130.07L162.05 130.92L164.23 132.9L166.33 134.97L168.34 137.11L170.25 139.33L170.41 139.52L185.92 137.15L186.17 137.13L186.42 137.11L186.67 137.09L186.91 137.07L187.15 137.05L187.39 137.03L187.63 137.02L187.86 137L188.09 137L188.32 136.99L188.54 136.99L188.76 136.99L188.98 136.99L189.19 137L189.4 137.01L189.6 137.02L189.8 137.04L190 137.06L190.19 137.09L190.38 137.13L190.57 137.16L190.75 137.21L190.92 137.26L191.09 137.31L191.25 137.37L191.41 137.44L191.57 137.51L191.72 137.59L191.86 137.68L192 137.78L192.13 137.88L192.26 137.99L192.38 138.1L192.49 138.23L192.6 138.36L192.71 138.5L192.8 138.65L192.89 138.8L192.97 138.97L193.05 139.15L203.58 165.28L203.65 165.46L203.7 165.64L203.75 165.82L203.78 166L203.81 166.18L203.83 166.36L203.83 166.53L203.83 166.71L203.82 166.89L203.8 167.06L203.77 167.24L203.73 167.42L203.68 167.59L203.63 167.76L203.57 167.94L203.5 168.11L203.42 168.28L203.33 168.45L203.24 168.62L203.14 168.79L203.03 168.96L202.92 169.13L202.8 169.3L202.67 169.46L202.54 169.63L202.4 169.79L202.26 169.96L202.11 170.12L201.95 170.28L201.79 170.44L201.63 170.6L201.46 170.76L201.29 170.92L201.11 171.08L200.93 171.24L200.74 171.39L200.55 171.55L200.36 171.7L200.16 171.85L199.96 172L187.51 181.92L187.55 182.26L187.72 185.24L187.79 188.24L187.74 191.25L187.57 194.27L187.44 195.62L199.77 205.09L199.97 205.24L200.17 205.38L200.36 205.53L200.55 205.68L200.73 205.83L200.91 205.98L201.09 206.13L201.26 206.28L201.43 206.43L201.59 206.59L201.75 206.74L201.9 206.9L202.05 207.06L202.19 207.22L202.33 207.38L202.46 207.54L202.58 207.7L202.7 207.86L202.81 208.03L202.92 208.19L203.02 208.36L203.11 208.53L203.19 208.7L203.27 208.87L203.34 209.04L203.4 209.21L203.45 209.38L203.5 209.55L203.53 209.73L203.56 209.9L203.58 210.08L203.59 210.25L203.59 210.43L203.58 210.61L203.57 210.79L203.54 210.96L203.5 211.15L203.45 211.33L203.39 211.51L203.32 211.69L192.53 238.19L192.45 238.37L192.37 238.54L192.28 238.7L192.18 238.85L192.08 238.99L191.97 239.13L191.85 239.26L191.73 239.38L191.6 239.49L191.47 239.6L191.33 239.7L191.18 239.79L191.03 239.87L190.88 239.95L190.72 240.03L190.55 240.09L190.38 240.15L190.21 240.21L190.03 240.26L189.84 240.3L189.65 240.34L189.46 240.38L189.26 240.41L189.06 240.43L188.86 240.46L188.65 240.47L188.43 240.49L188.22 240.5L188 240.51L187.77 240.51L187.55 240.51L187.32 240.51L187.09 240.51L186.85 240.5L186.61 240.49L186.37 240.48L186.13 240.47L185.88 240.46L185.63 240.44L185.38 240.43L169.94 238.59L169.09 239.64L167.1 241.92L165.03 244.11L162.89 246.21L160.68 248.22L160.44 248.42L162.41 264.18L162.45 264.43L162.49 264.68L162.52 264.92L162.55 265.16L162.57 265.4L162.59 265.64L162.61 265.88L162.62 266.12L162.63 266.35L162.64 266.58L162.64 266.8L162.64 267.03L162.63 267.25L162.62 267.47L162.6 267.68L162.58 267.89L162.56 268.1L162.53 268.3L162.49 268.5L162.45 268.7L162.4 268.89L162.35 269.08L162.29 269.26L162.23 269.44L162.16 269.61L162.08 269.78L162 269.94L161.91 270.1L161.81 270.25L161.71 270.4L161.6 270.54L161.49 270.67L161.37 270.8L161.24 270.92L161.1 271.04L160.96 271.15L160.81 271.25L160.65 271.35L160.48 271.44L160.31 271.52L134.52 282.86L134.34 282.93L134.16 282.99L133.99 283.04L133.82 283.08L133.65 283.11L133.48 283.13L133.31 283.14L133.14 283.14L132.97 283.13L132.81 283.11L132.64 283.08L132.48 283.04L132.32 282.99L132.15 282.94L131.99 282.87L131.83 282.8L131.67 282.72L131.51 282.64L131.35 282.54L131.2 282.44L131.04 282.33L130.88 282.22L130.72 282.1L130.57 281.97L130.41 281.84L130.25 281.7L130.09 281.56L129.94 281.41L129.78 281.25L129.62 281.1L129.46 280.93L129.31 280.77L129.15 280.59L128.99 280.42L128.83 280.24L128.67 280.06L128.51 279.87L128.35 279.69L128.19 279.5L128.02 279.3L118.62 266.81L118.31 266.85L115.39 267.1L112.46 267.23L109.51 267.24L106.56 267.14L105.25 267.04L95.71 279.86L95.55 280.06L95.38 280.25L95.22 280.44L95.06 280.63L94.9 280.82L94.73 281.01L94.57 281.19L94.41 281.36L94.25 281.54L94.1 281.7L93.94 281.87L93.78 282.03L93.62 282.18L93.46 282.33L93.3 282.47L93.14 282.61L92.98 282.74L92.83 282.87L92.67 282.99L92.51 283.1L92.35 283.21L92.19 283.31L92.03 283.4L91.87 283.49L91.71 283.56L91.54 283.63L91.38 283.69L91.22 283.75L91.05 283.79L90.89 283.82L90.72 283.85L90.56 283.87L90.39 283.87L90.22 283.87L90.05 283.86L89.88 283.83L89.71 283.8L89.53 283.76L89.36 283.7L89.18 283.63L63.5 273.17L63.33 273.1L63.16 273.02L63 272.92L62.85 272.83L62.71 272.72L62.58 272.61L62.45 272.49L62.33 272.37L62.21 272.24L62.11 272.1L62.01 271.96L61.91 271.81L61.83 271.66L61.75 271.5L61.67 271.33L61.6 271.16L61.54 270.98L61.49 270.8L61.43 270.62L61.39 270.43L61.35 270.23L61.32 270.04L61.29 269.83L61.26 269.63L61.24 269.42L61.23 269.2L61.22 268.98L61.21 268.76L61.21 268.54L61.22 268.31L61.23 268.08L61.24 267.85L61.25 267.62L61.27 267.38L61.3 267.14L61.33 266.9L61.36 266.65L61.39 266.41L61.43 266.16L61.47 265.91L63.6 250.07L62.59 249.23L60.41 247.24L58.31 245.17L56.3 243.03L54.38 240.81L54.16 240.53L38.76 242.88L38.52 242.93L38.27 242.97L38.03 243.01L37.8 243.04L37.56 243.07L37.32 243.1L37.09 243.12L36.86 243.14L36.64 243.16L36.41 243.17L36.19 243.17L35.97 243.18L35.75 243.17L35.54 243.17L35.33 243.15L35.13 243.14L34.92 243.12L34.72 243.09L34.53 243.06L34.34 243.02L34.15 242.97L33.97 242.92L33.79 242.87L33.62 242.81L33.45 242.74L33.29 242.66L33.14 242.58L32.98 242.5L32.84 242.4L32.7 242.3L32.56 242.2L32.43 242.08L32.31 241.96L32.19 241.83L32.08 241.69L31.98 241.55L31.88 241.4L31.79 241.24L31.71 241.07L31.63 240.89L21.1 214.76L21.03 214.58L20.98 214.4L20.93 214.22L20.9 214.05L20.87 213.87L20.86 213.7L20.85 213.53L20.86 213.35L20.87 213.18L20.9 213.01L20.93 212.84L20.97 212.68L21.02 212.51L21.08 212.34L21.14 212.18L21.22 212.01L21.3 211.84L21.39 211.68L21.48 211.52L21.58 211.35L21.69 211.19L21.81 211.02L21.93 210.86L22.06 210.7L22.19 210.53L22.33 210.37L22.47 210.2L22.62 210.04L22.77 209.88L22.93 209.71L23.1 209.55L23.26 209.38L23.43 209.22L23.61 209.05L23.79 208.88L23.97 208.72L24.15 208.55L24.34 208.38L24.53 208.21L24.72 208.04L37.12 198.16L37.09 197.89L36.91 194.9L36.85 191.9L36.9 188.89L37.07 185.87L37.2 184.53L24.87 175.05L24.67 174.89L24.49 174.72L24.3 174.56L24.12 174.4L23.94 174.24L23.76 174.08L23.59 173.92L23.42 173.76L23.26 173.6L23.09 173.44L22.94 173.28L22.79 173.12L22.64 172.96L22.5 172.8L22.36 172.64L22.23 172.48L22.1 172.32L21.98 172.16L21.87 172L21.76 171.84L21.66 171.68L21.57 171.52L21.48 171.36L21.4 171.2L21.33 171.03L21.26 170.87L21.21 170.71L21.16 170.54L21.12 170.37L21.09 170.2L21.07 170.04L21.06 169.87L21.05 169.69L21.06 169.52L21.08 169.35L21.1 169.17L21.14 168.99L21.19 168.82L21.24 168.64L21.31 168.45L32.11 141.95L32.18 141.78L32.27 141.6L32.36 141.44L32.46 141.29L32.57 141.14L32.68 141L32.8 140.86L32.92 140.74L33.05 140.62L33.19 140.51L33.33 140.4L33.48 140.3L33.63 140.21L33.79 140.12L33.95 140.04L34.12 139.97L34.29 139.9L34.47 139.84L34.65 139.79L34.84 139.74L35.03 139.69L35.22 139.65L35.42 139.62L35.63 139.59L35.83 139.56L36.04 139.54L36.25 139.53L36.47 139.52L36.69 139.52L36.91 139.51L37.14 139.52L37.36 139.52L37.59 139.54L37.83 139.55L38.06 139.57L38.3 139.59L38.53 139.62L38.77 139.65L39.01 139.68L39.26 139.72L54.7 141.55L55.55 140.5L57.54 138.22L59.61 136.03L61.75 133.93L63.96 131.92L64.2 131.72L62.22 115.96L62.2 115.71L62.19 115.45L62.17 115.2L62.16 114.95L62.14 114.71L62.13 114.46L62.13 114.22L62.12 113.98L62.11 113.75L62.11 113.52L62.12 113.29L62.12 113.06L62.13 112.84L62.14 112.62L62.15 112.41L62.17 112.2L62.2 111.99L62.22 111.79L62.26 111.59L62.29 111.4L62.33 111.21L62.38 111.03L62.43 110.85L62.49 110.67L62.55 110.5L62.62 110.34L62.7 110.18L62.78 110.02L62.87 109.87L62.96 109.73L63.07 109.59L63.17 109.46L63.29 109.34L63.41 109.22L63.55 109.1L63.69 108.99L63.83 108.89L63.99 108.8L64.15 108.71L64.33 108.63L90.12 97.29L90.3 97.21L90.48 97.15L90.65 97.1L90.83 97.06L91 97.03L91.18 97.01L91.35 97L91.52 97L91.7 97L91.87 97.02L92.04 97.05L92.21 97.08L92.38 97.13L92.55 97.18L92.72 97.24L92.88 97.31L93.05 97.38L93.22 97.47L93.38 97.56L93.54 97.66L93.71 97.76L93.87 97.88L94.03 98L94.19 98.12L94.35 98.25L94.51 98.39L94.67 98.53L94.82 98.68L94.98 98.84L95.13 99L95.28 99.16L95.44 99.33L95.59 99.51L95.74 99.69L95.89 99.87L96.03 100.06L96.18 100.25L96.33 100.44L96.47 100.64L96.61 100.84L106.02 113.33L106.32 113.29L109.24 113.05L112.18 112.91L115.12 112.9L118.07 113.01L119.39 113.11L128.93 100.29L129.07 100.08L129.22 99.88L129.36 99.68L129.51 99.48L129.66 99.29L129.81 99.1L129.96 98.92L130.12 98.74L130.27 98.56L130.43 98.39L130.58 98.23L130.74 98.07L130.9 97.91L131.06 97.76L131.22 97.62L131.38 97.48L131.54 97.35L131.7 97.23L131.86 97.11L132.03 97L132.19 96.9L132.36 96.8L132.52 96.71L132.69 96.63L132.86 96.55L133.03 96.49L133.2 96.43L133.37 96.38L133.54 96.34L133.71 96.3L133.88 96.28L134.05 96.27L134.23 96.26L134.4 96.27L134.58 96.28L134.75 96.31L134.93 96.34L135.1 96.39L135.28 96.44L135.45 96.51L161.14 106.97L161.31 107.05L161.47 107.13ZM124.93 150.3L123.36 149.85L121.78 149.46L120.19 149.14L118.6 148.88L117.01 148.7L115.42 148.58L113.83 148.52L112.24 148.53L110.66 148.6L109.09 148.73L107.53 148.92L105.97 149.18L104.43 149.5L102.9 149.87L101.39 150.31L99.9 150.8L98.42 151.35L96.96 151.96L95.53 152.62L94.12 153.34L92.74 154.11L91.39 154.94L90.06 155.82L88.77 156.75L87.51 157.73L86.28 158.76L85.09 159.84L83.93 160.97L82.82 162.15L81.75 163.38L80.72 164.65L79.74 165.97L78.8 167.34L77.91 168.75L77.07 170.2L76.28 171.7L75.54 173.24L74.86 174.82L74.25 176.42L73.7 178.04L73.22 179.66L72.8 181.29L72.45 182.92L72.17 184.55L71.95 186.18L71.8 187.81L71.71 189.44L71.68 191.06L71.72 192.67L71.81 194.28L71.97 195.88L72.18 197.46L72.46 199.03L72.8 200.58L73.19 202.12L73.64 203.64L74.14 205.14L74.7 206.61L75.32 208.06L75.99 209.49L76.72 210.88L77.5 212.25L78.33 213.59L79.21 214.89L80.14 216.16L81.12 217.39L82.16 218.59L83.24 219.74L84.37 220.86L85.54 221.93L86.77 222.95L88.04 223.93L89.35 224.86L90.71 225.74L92.11 226.56L93.56 227.34L95.05 228.06L96.58 228.72L98.14 229.31L99.7 229.84L101.28 230.3L102.86 230.69L104.45 231.01L106.04 231.26L107.63 231.45L109.22 231.57L110.81 231.63L112.39 231.62L113.97 231.55L115.55 231.41L117.11 231.22L118.67 230.96L120.21 230.65L121.73 230.27L123.25 229.84L124.74 229.34L126.22 228.79L127.67 228.19L129.1 227.52L130.51 226.8L131.9 226.03L133.25 225.21L134.58 224.33L135.87 223.4L137.13 222.42L138.36 221.38L139.55 220.3L140.7 219.17L141.82 217.99L142.89 216.76L143.92 215.49L144.9 214.17L145.84 212.81L146.73 211.4L147.57 209.94L148.36 208.45L149.09 206.91L149.77 205.33L150.39 203.72L150.94 202.11L151.42 200.49L151.84 198.86L152.18 197.23L152.47 195.6L152.68 193.96L152.84 192.33L152.93 190.71L152.96 189.09L152.92 187.47L152.83 185.86L152.67 184.27L152.45 182.68L152.18 181.11L151.84 179.56L151.45 178.02L151 176.5L150.49 175.01L149.93 173.53L149.32 172.08L148.64 170.66L147.92 169.26L147.14 167.89L146.31 166.56L145.43 165.25L144.5 163.98L143.51 162.75L142.48 161.56L141.4 160.4L140.27 159.29L139.09 158.22L137.87 157.19L136.6 156.22L135.29 155.29L133.93 154.41L132.52 153.58L131.08 152.81L129.59 152.09L128.06 151.43L126.5 150.83L124.93 150.3Z" filter="url(#shadow14193592)"/></g><use fill="#1c401a" fill-opacity="1" opacity="1" xlink:href="#c37L18DSqK"/></g><g><use fill="#fff" fill-opacity="1" opacity="1" xlink:href="#b3eHCII9g3"/><g><use fill-opacity="0" stroke="#000" stroke-opacity="1" stroke-width="1" opacity="1" xlink:href="#b3eHCII9g3"/></g><g><filter id="shadow2943793" width="156.61" height="161.66" x="34.51" y="109.74" filterUnits="userSpaceOnUse" primitiveUnits="userSpaceOnUse"><feFlood/><feComposite in2="SourceAlpha" operator="out"/><feGaussianBlur stdDeviation="1"/><feOffset dx="1" dy="1" result="afterOffset"/><feFlood flood-color="#fff" flood-opacity=".8"/><feComposite in2="afterOffset" operator="in"/><feMorphology operator="dilate" radius="3"/><feComposite in2="SourceAlpha" operator="in"/></filter><path id="h22YSjgBeg" fill="#fff" fill-opacity="1" d="M179.13 190.07C179.13 228.34 149.19 259.4 112.32 259.4C75.45 259.4 45.51 228.34 45.51 190.07C45.51 151.81 75.45 120.74 112.32 120.74C149.19 120.74 179.13 151.81 179.13 190.07Z" filter="url(#shadow2943793)"/></g></g><g><use fill="#000" fill-opacity="1" opacity="1" xlink:href="#e7YKAeMk30"/></g><g><use fill="#1c401a" fill-opacity="1" opacity="1" xlink:href="#f3Lt5qpsSy"/></g><g><use fill="#000" fill-opacity="1" opacity="1" xlink:href="#aaYjuMvxI"/></g><g><use fill="#000" fill-opacity="1" opacity="1" xlink:href="#as4eT2Mx1"/></g><g><use fill="#000" fill-opacity="1" opacity="1" xlink:href="#ajJUO2vye"/></g><g><use fill="#000" fill-opacity="1" opacity="1" xlink:href="#c4GQqGACOY"/></g><g><use fill="#000" fill-opacity="1" opacity="1" xlink:href="#dZEmaj06T"/></g><g><use fill="#000" fill-opacity="1" opacity="1" xlink:href="#aoWL0cnS0"/></g><g><use fill="#000" fill-opacity="1" opacity="1" xlink:href="#adzCmw1lJ"/></g><g><use fill="#000" fill-opacity="1" opacity="1" xlink:href="#c2v03Al5T"/></g><g><use fill="#000" fill-opacity="1" opacity="1" xlink:href="#ig7rYL9TT"/></g><g><use fill="#000" fill-opacity="1" opacity="1" xlink:href="#cCrq4OZMk"/></g><g><use fill="#000" fill-opacity="1" opacity="1" xlink:href="#aEoTer4KD"/></g><g><use fill="#fff" fill-opacity="1" opacity="1" xlink:href="#bvyNje7F"/></g><g><use fill="#000" fill-opacity="1" opacity="1" xlink:href="#cCFGzO5Jw"/></g><g><use fill="#000" fill-opacity="1" opacity="1" xlink:href="#b5jJLL6GjR"/></g><g><use fill="#1c401a" fill-opacity="1" opacity="1" xlink:href="#a30V8Cxzg5"/></g><g><g><filter id="shadow5813150" width="129.97" height="129.97" x="159.17" y="21.29" filterUnits="userSpaceOnUse" primitiveUnits="userSpaceOnUse"><feFlood/><feComposite in2="SourceAlpha" operator="in"/><feGaussianBlur stdDeviation="1"/><feOffset dx="1" dy="1" result="afterOffset"/><feFlood flood-color="#000" flood-opacity=".5"/><feComposite in2="afterOffset" operator="in"/><feMorphology operator="dilate" radius="1"/><feComposite in2="SourceAlpha" operator="out"/></filter><path id="a1rol58Gzr" fill="#fff" fill-opacity="1" d="M236.46 31.63L236.56 31.65L236.66 31.68L236.76 31.71L236.85 31.75L236.94 31.79L237.03 31.84L237.12 31.89L237.2 31.95L237.28 32.01L237.35 32.07L237.42 32.14L237.49 32.22L237.56 32.29L237.63 32.37L237.69 32.46L237.75 32.55L237.81 32.64L237.87 32.74L237.92 32.84L237.97 32.94L238.02 33.05L238.07 33.16L238.12 33.27L238.17 33.38L238.21 33.5L238.26 33.62L238.3 33.75L238.34 33.87L238.38 34L238.42 34.13L238.46 34.26L238.49 34.4L238.53 34.53L238.57 34.67L238.6 34.81L238.64 34.96L238.67 35.1L238.71 35.24L240.37 44.33L241.1 44.62L242.7 45.33L244.26 46.1L245.79 46.94L247.27 47.82L247.4 47.9L255.76 43.91L255.89 43.86L256.03 43.8L256.17 43.75L256.3 43.69L256.43 43.64L256.57 43.59L256.7 43.54L256.83 43.49L256.96 43.45L257.08 43.41L257.21 43.37L257.33 43.33L257.46 43.29L257.58 43.26L257.7 43.23L257.82 43.2L257.94 43.18L258.05 43.16L258.17 43.14L258.28 43.12L258.39 43.11L258.5 43.11L258.61 43.1L258.71 43.1L258.82 43.11L258.92 43.12L259.02 43.13L259.12 43.15L259.22 43.17L259.31 43.2L259.41 43.23L259.5 43.27L259.59 43.31L259.67 43.36L259.76 43.42L259.84 43.48L259.93 43.54L260 43.61L260.08 43.69L260.16 43.77L270.86 56.33L270.93 56.42L271 56.5L271.06 56.6L271.11 56.69L271.16 56.78L271.2 56.88L271.24 56.97L271.27 57.07L271.29 57.17L271.31 57.27L271.33 57.37L271.34 57.48L271.34 57.58L271.34 57.68L271.34 57.79L271.33 57.9L271.32 58.01L271.3 58.12L271.28 58.23L271.25 58.34L271.22 58.45L271.19 58.56L271.15 58.67L271.11 58.79L271.06 58.9L271.02 59.01L270.96 59.13L270.91 59.25L270.85 59.36L270.79 59.48L270.73 59.59L270.66 59.71L270.59 59.83L270.52 59.95L270.44 60.06L270.36 60.18L270.28 60.3L270.2 60.42L270.12 60.53L270.03 60.65L264.78 68.26L264.86 68.44L265.5 70.05L266.08 71.69L266.6 73.36L267.05 75.05L267.22 75.81L275.93 78.89L276.07 78.94L276.21 78.98L276.34 79.03L276.47 79.08L276.61 79.13L276.74 79.18L276.86 79.23L276.99 79.28L277.11 79.34L277.23 79.4L277.35 79.46L277.47 79.52L277.58 79.58L277.69 79.64L277.79 79.7L277.9 79.77L278 79.84L278.09 79.91L278.19 79.98L278.28 80.05L278.36 80.13L278.44 80.2L278.52 80.28L278.6 80.36L278.67 80.44L278.73 80.52L278.79 80.61L278.85 80.7L278.9 80.79L278.95 80.88L278.99 80.97L279.03 81.07L279.06 81.16L279.09 81.26L279.11 81.36L279.13 81.47L279.14 81.57L279.15 81.68L279.15 81.79L279.14 81.9L277.83 98.35L277.82 98.46L277.8 98.57L277.78 98.68L277.75 98.78L277.72 98.87L277.68 98.97L277.64 99.06L277.59 99.15L277.54 99.23L277.49 99.31L277.42 99.39L277.36 99.47L277.29 99.54L277.22 99.61L277.14 99.68L277.06 99.74L276.97 99.8L276.88 99.87L276.79 99.92L276.69 99.98L276.59 100.03L276.49 100.09L276.38 100.14L276.27 100.19L276.16 100.24L276.05 100.28L275.93 100.33L275.81 100.37L275.69 100.41L275.56 100.45L275.43 100.49L275.3 100.53L275.17 100.57L275.03 100.61L274.9 100.64L274.76 100.68L274.62 100.72L274.48 100.75L274.33 100.79L274.19 100.82L265.11 102.49L264.82 103.21L264.1 104.81L263.33 106.37L262.5 107.9L261.61 109.39L261.51 109.54L265.49 117.87L265.55 118L265.62 118.13L265.68 118.26L265.74 118.38L265.8 118.51L265.85 118.64L265.91 118.77L265.96 118.89L266 119.02L266.05 119.15L266.09 119.27L266.13 119.39L266.17 119.52L266.2 119.64L266.23 119.76L266.26 119.88L266.28 120L266.3 120.12L266.31 120.23L266.33 120.35L266.33 120.46L266.34 120.57L266.34 120.68L266.33 120.79L266.33 120.9L266.31 121L266.3 121.11L266.27 121.21L266.25 121.31L266.22 121.41L266.18 121.5L266.14 121.6L266.09 121.69L266.04 121.78L265.99 121.87L265.93 121.95L265.86 122.03L265.79 122.12L265.71 122.19L265.63 122.27L253.07 132.97L252.98 133.05L252.9 133.11L252.81 133.17L252.72 133.22L252.62 133.26L252.53 133.3L252.44 133.34L252.34 133.37L252.24 133.39L252.15 133.41L252.05 133.42L251.95 133.43L251.85 133.43L251.75 133.43L251.64 133.42L251.54 133.41L251.43 133.39L251.33 133.37L251.22 133.35L251.11 133.32L251 133.29L250.89 133.25L250.78 133.21L250.67 133.17L250.56 133.12L250.44 133.08L250.33 133.02L250.21 132.97L250.1 132.91L249.98 132.85L249.86 132.79L249.74 132.73L249.62 132.66L249.5 132.59L249.37 132.52L249.25 132.45L249.13 132.37L249 132.3L248.87 132.22L248.75 132.14L241.15 126.9L240.99 126.97L239.38 127.62L237.74 128.2L236.07 128.71L234.38 129.17L233.62 129.34L230.54 138.04L230.48 138.18L230.43 138.32L230.37 138.45L230.31 138.59L230.25 138.72L230.2 138.85L230.14 138.97L230.08 139.1L230.02 139.22L229.96 139.34L229.9 139.46L229.84 139.57L229.78 139.69L229.71 139.79L229.65 139.9L229.59 140L229.52 140.1L229.45 140.2L229.38 140.3L229.32 140.39L229.24 140.47L229.17 140.55L229.1 140.63L229.02 140.71L228.94 140.78L228.87 140.84L228.78 140.9L228.7 140.96L228.62 141.01L228.53 141.06L228.44 141.1L228.35 141.14L228.26 141.18L228.16 141.2L228.06 141.23L227.96 141.24L227.86 141.25L227.75 141.26L227.64 141.26L227.53 141.25L211.08 139.95L210.97 139.94L210.86 139.92L210.75 139.9L210.65 139.87L210.55 139.83L210.45 139.8L210.36 139.75L210.27 139.71L210.18 139.65L210.1 139.6L210.01 139.54L209.93 139.47L209.86 139.4L209.78 139.33L209.71 139.25L209.64 139.17L209.57 139.08L209.51 138.99L209.45 138.9L209.39 138.8L209.33 138.7L209.27 138.6L209.22 138.49L209.17 138.38L209.12 138.27L209.07 138.16L209.03 138.04L208.99 137.92L208.94 137.79L208.91 137.67L208.87 137.54L208.83 137.41L208.8 137.28L208.77 137.14L208.74 137.01L208.71 136.87L208.68 136.73L208.66 136.59L208.63 136.45L208.61 136.3L206.95 127.22L206.22 126.93L204.62 126.22L203.06 125.44L201.53 124.61L200.04 123.72L199.86 123.61L191.57 127.57L191.44 127.63L191.31 127.7L191.18 127.76L191.05 127.82L190.92 127.88L190.79 127.93L190.67 127.99L190.54 128.04L190.41 128.09L190.29 128.13L190.16 128.17L190.04 128.21L189.92 128.25L189.8 128.28L189.67 128.31L189.55 128.34L189.44 128.36L189.32 128.38L189.2 128.39L189.09 128.41L188.97 128.41L188.86 128.42L188.75 128.42L188.64 128.41L188.54 128.41L188.43 128.39L188.33 128.38L188.22 128.36L188.12 128.33L188.03 128.3L187.93 128.26L187.84 128.22L187.74 128.18L187.65 128.13L187.57 128.07L187.48 128.01L187.4 127.94L187.32 127.87L187.24 127.79L187.17 127.71L176.46 115.15L176.39 115.06L176.33 114.98L176.27 114.89L176.22 114.8L176.17 114.7L176.13 114.61L176.1 114.52L176.07 114.42L176.04 114.33L176.03 114.23L176.02 114.13L176.01 114.03L176.01 113.93L176.01 113.83L176.01 113.72L176.03 113.62L176.04 113.52L176.06 113.41L176.09 113.3L176.11 113.19L176.15 113.09L176.18 112.98L176.22 112.86L176.26 112.75L176.31 112.64L176.36 112.53L176.41 112.41L176.46 112.29L176.52 112.18L176.58 112.06L176.64 111.94L176.71 111.82L176.78 111.7L176.84 111.58L176.92 111.46L176.99 111.33L177.06 111.21L177.14 111.08L177.21 110.96L177.29 110.83L182.52 103.25L182.46 103.1L181.82 101.49L181.24 99.85L180.72 98.19L180.26 96.49L180.09 95.73L171.39 92.66L171.25 92.6L171.11 92.54L170.98 92.48L170.85 92.43L170.72 92.37L170.59 92.31L170.46 92.25L170.33 92.19L170.21 92.13L170.09 92.07L169.97 92.01L169.86 91.95L169.75 91.89L169.64 91.83L169.53 91.76L169.43 91.7L169.33 91.63L169.23 91.57L169.14 91.5L169.05 91.43L168.96 91.36L168.88 91.29L168.8 91.21L168.73 91.14L168.66 91.06L168.59 90.98L168.53 90.9L168.47 90.82L168.42 90.73L168.37 90.64L168.33 90.55L168.29 90.46L168.26 90.37L168.23 90.27L168.21 90.17L168.19 90.07L168.18 89.97L168.17 89.86L168.17 89.75L168.18 89.64L169.49 73.19L169.5 73.08L169.51 72.97L169.54 72.87L169.56 72.76L169.6 72.66L169.63 72.57L169.68 72.47L169.73 72.38L169.78 72.3L169.83 72.21L169.9 72.13L169.96 72.05L170.03 71.97L170.11 71.9L170.18 71.82L170.27 71.75L170.35 71.69L170.44 71.62L170.53 71.56L170.63 71.5L170.73 71.44L170.83 71.39L170.94 71.33L171.05 71.28L171.16 71.23L171.28 71.19L171.39 71.14L171.52 71.1L171.64 71.06L171.76 71.02L171.89 70.98L172.02 70.95L172.15 70.91L172.29 70.88L172.42 70.85L172.56 70.82L172.7 70.8L172.84 70.77L172.99 70.75L173.13 70.72L182.21 69.06L182.5 68.33L183.22 66.74L183.99 65.17L184.82 63.65L185.71 62.16L185.81 62.01L181.83 53.68L181.77 53.54L181.72 53.4L181.66 53.27L181.61 53.13L181.56 53L181.51 52.87L181.46 52.74L181.41 52.61L181.37 52.48L181.33 52.35L181.28 52.23L181.25 52.1L181.21 51.98L181.18 51.86L181.15 51.74L181.12 51.62L181.1 51.5L181.07 51.38L181.06 51.27L181.04 51.16L181.03 51.04L181.03 50.94L181.02 50.83L181.02 50.72L181.03 50.62L181.04 50.51L181.05 50.41L181.07 50.31L181.09 50.22L181.12 50.12L181.15 50.03L181.19 49.94L181.23 49.85L181.28 49.76L181.34 49.67L181.4 49.59L181.46 49.51L181.53 49.43L181.61 49.35L181.69 49.28L194.25 38.57L194.33 38.5L194.42 38.44L194.51 38.38L194.61 38.32L194.7 38.28L194.8 38.23L194.89 38.2L194.99 38.17L195.09 38.14L195.19 38.12L195.29 38.11L195.39 38.1L195.5 38.09L195.6 38.09L195.71 38.1L195.82 38.1L195.92 38.12L196.03 38.14L196.14 38.16L196.25 38.18L196.37 38.21L196.48 38.25L196.59 38.28L196.7 38.33L196.82 38.37L196.93 38.42L197.05 38.47L197.16 38.53L197.28 38.58L197.4 38.65L197.51 38.71L197.63 38.78L197.75 38.85L197.86 38.92L197.98 38.99L198.1 39.07L198.22 39.15L198.34 39.23L198.45 39.32L198.57 39.4L206.17 44.65L206.33 44.57L207.94 43.93L209.58 43.35L211.25 42.83L212.94 42.38L213.7 42.21L216.78 33.5L216.82 33.36L216.87 33.23L216.91 33.09L216.96 32.96L217.01 32.83L217.06 32.7L217.12 32.57L217.17 32.44L217.23 32.32L217.28 32.2L217.34 32.08L217.4 31.97L217.46 31.85L217.53 31.74L217.59 31.64L217.66 31.54L217.72 31.44L217.79 31.34L217.86 31.25L217.94 31.16L218.01 31.07L218.09 30.99L218.17 30.91L218.25 30.84L218.33 30.77L218.41 30.7L218.5 30.64L218.58 30.58L218.67 30.53L218.76 30.48L218.86 30.44L218.95 30.4L219.05 30.37L219.15 30.34L219.25 30.32L219.35 30.3L219.46 30.29L219.57 30.29L219.68 30.29L219.79 30.29L236.24 31.6L236.35 31.61L236.46 31.63ZM223.59 61.71L222.62 61.73L221.65 61.79L220.69 61.89L219.74 62.03L218.81 62.2L217.89 62.41L216.97 62.65L216.08 62.93L215.2 63.24L214.33 63.59L213.48 63.97L212.64 64.38L211.83 64.82L211.03 65.29L210.25 65.79L209.5 66.32L208.76 66.88L208.05 67.46L207.35 68.08L206.69 68.72L206.04 69.38L205.43 70.07L204.83 70.78L204.27 71.52L203.73 72.28L203.23 73.06L202.75 73.86L202.3 74.68L201.88 75.52L201.5 76.38L201.15 77.26L200.83 78.16L200.54 79.07L200.3 80L200.08 80.95L199.91 81.91L199.77 82.88L199.67 83.87L199.61 84.86L199.6 85.84L199.62 86.82L199.68 87.78L199.78 88.74L199.91 89.69L200.08 90.62L200.29 91.55L200.54 92.46L200.82 93.35L201.13 94.24L201.47 95.1L201.85 95.95L202.26 96.79L202.7 97.6L203.17 98.4L203.68 99.18L204.21 99.94L204.76 100.67L205.35 101.39L205.96 102.08L206.6 102.75L207.27 103.39L207.95 104.01L208.67 104.6L209.4 105.16L210.16 105.7L210.94 106.21L211.74 106.69L212.57 107.13L213.41 107.55L214.27 107.93L215.15 108.29L216.04 108.6L216.96 108.89L217.89 109.14L218.83 109.35L219.79 109.52L220.77 109.66L221.75 109.76L222.74 109.82L223.73 109.84L224.7 109.82L225.67 109.75L226.63 109.66L227.57 109.52L228.51 109.35L229.43 109.14L230.34 108.9L231.24 108.62L232.12 108.3L232.99 107.96L233.84 107.58L234.67 107.17L235.49 106.73L236.29 106.26L237.07 105.76L237.82 105.23L238.56 104.67L239.27 104.08L239.96 103.47L240.63 102.83L241.27 102.17L241.89 101.48L242.48 100.76L243.05 100.03L243.59 99.27L244.09 98.49L244.57 97.69L245.02 96.87L245.44 96.02L245.82 95.16L246.17 94.28L246.49 93.39L246.77 92.47L247.02 91.54L247.24 90.6L247.41 89.64L247.55 88.67L247.65 87.68L247.7 86.69L247.72 85.7L247.7 84.73L247.64 83.76L247.54 82.81L247.41 81.86L247.23 80.92L247.03 80L246.78 79.09L246.5 78.19L246.19 77.31L245.84 76.44L245.47 75.59L245.06 74.76L244.61 73.94L244.14 73.14L243.64 72.37L243.11 71.61L242.55 70.87L241.97 70.16L241.36 69.47L240.72 68.8L240.05 68.16L239.36 67.54L238.65 66.95L237.91 66.38L237.16 65.85L236.38 65.34L235.57 64.86L234.75 64.41L233.91 64L233.05 63.61L232.17 63.26L231.27 62.94L230.36 62.66L229.43 62.41L228.49 62.2L227.53 62.02L226.55 61.88L225.56 61.79L224.57 61.73L223.59 61.71Z" filter="url(#shadow5813150)"/></g><use fill="#9b9b9b" fill-opacity="0" opacity="1" xlink:href="#bUSvYLuoK"/></g><g><use fill="#1c401a" fill-opacity=".75" opacity="1" xlink:href="#e2Z1oEzIs"/></g><g><use fill="#fff" fill-opacity="1" opacity="1" xlink:href="#a18WHkwR3j"/></g><g><use fill="#1c401a" fill-opacity=".57" opacity="1" xlink:href="#a2ykQPat8u"/></g></g></g></svg>