<svg xmlns="http://www.w3.org/2000/svg" xmlns:xlink="http://www.w3.org/1999/xlink" width="640" height="640"><defs><path id="a" d="M604.88 336.87c0 156.98-127.45 284.43-284.44 284.43S36 493.85 36 336.87C36 179.88 163.45 52.43 320.44 52.43s284.44 127.45 284.44 284.44z"/><path id="b" d="M320.44 52.43v-24"/><path id="c" d="M84.8 139.84l43.02-37.68 3.12 2.58-43.02 37.68-3.12-2.58z"/><path id="d" d="M120.37 134.29l-4.79-5-6.71-7"/><path id="e" d="M335.44 320c0 8.28-6.72 15-15 15-8.28 0-15-6.72-15-15 0-8.28 6.72-15 15-15 8.28 0 15 6.72 15 15z"/><path id="f" d="M320.44 107.93V75.69"/><path id="g" d="M320.44 600.26v-33.19"/><path id="h" d="M99.37 320H62.55"/><path id="i" d="M576.89 320h-36.82"/><path id="j" d="M283.9 24.43h73.08v4H283.9v-4z"/><path id="k" d="M320.44 305.29v-183"/></defs><use fill-opacity="0" stroke="#600060" stroke-width="7" xlink:href="#a"/><use fill-opacity="0" stroke="#600060" stroke-width="7" xlink:href="#b"/><use fill="#600060" xlink:href="#c"/><use fill-opacity="0" stroke="#600060" stroke-width="7" xlink:href="#d"/><use fill-opacity="0" xlink:href="#e"/><use fill-opacity="0" stroke="#600060" stroke-width="7" xlink:href="#e"/><use fill-opacity="0" stroke="#600060" stroke-width="7" xlink:href="#f"/><use fill-opacity="0" stroke="#600060" stroke-width="7" xlink:href="#g"/><use fill-opacity="0" stroke="#600060" stroke-width="7" xlink:href="#h"/><use fill-opacity="0" stroke="#600060" stroke-width="7" xlink:href="#i"/><use fill="#600060" xlink:href="#j"/><g><use fill-opacity="0" stroke="#600060" stroke-width="7" xlink:href="#k"/></g></svg>