<svg xmlns="http://www.w3.org/2000/svg" xmlns:xlink="http://www.w3.org/1999/xlink" width="640" height="640">
  <defs>
    <path d="M604.88 336.87c0 156.98-127.45 284.43-284.44 284.43S36 493.85 36 336.87C36 179.88 163.45 52.43 320.44 52.43s284.44 127.45 284.44 284.44z" id="a"/>
    <path d="M320.44 52.43v-24" id="b"/>
    <path d="M84.8 139.84l43.02-37.68 3.12 2.58-43.02 37.68-3.12-2.58z" id="c"/>
    <path d="M120.37 134.29l-4.79-5-6.71-7" id="d"/>
    <path d="M335.44 320c0 8.28-6.72 15-15 15-8.28 0-15-6.72-15-15 0-8.28 6.72-15 15-15 8.28 0 15 6.72 15 15z" id="e"/>
    <path d="M320.44 107.93V75.69" id="f"/>
    <path d="M320.44 600.26v-33.19" id="g"/>
    <path d="M99.37 320H62.55" id="h"/>
    <path d="M576.89 320h-36.82" id="i"/>
    <path d="M283.9 24.43h73.08v4H283.9v-4z" id="j"/>
    <path d="M320.44 305.29v-183" id="k"/>
  </defs>
  <use xlink:href="#a" fill-opacity="0" stroke="#600060" stroke-width="7"/>
  <use xlink:href="#b" fill-opacity="0" stroke="#600060" stroke-width="7"/>
  <use xlink:href="#c" fill="#600060"/>
  <use xlink:href="#d" fill-opacity="0" stroke="#600060" stroke-width="7"/>
  <use xlink:href="#e" fill-opacity="0"/>
  <use xlink:href="#e" fill-opacity="0" stroke="#600060" stroke-width="7"/>
  <use xlink:href="#f" fill-opacity="0" stroke="#600060" stroke-width="7"/>
  <use xlink:href="#g" fill-opacity="0" stroke="#600060" stroke-width="7"/>
  <use xlink:href="#h" fill-opacity="0" stroke="#600060" stroke-width="7"/>
  <use xlink:href="#i" fill-opacity="0" stroke="#600060" stroke-width="7"/>
  <use xlink:href="#j" fill="#600060"/>
  <g>
    <use xlink:href="#k" fill-opacity="0" stroke="#600060" stroke-width="7"/>
  </g>
</svg>
