<?xml version="1.0" encoding="UTF-8" standalone="no"?>
<!DOCTYPE svg PUBLIC "-//W3C//DTD SVG 1.1//EN" "http://www.w3.org/Graphics/SVG/1.1/DTD/svg11.dtd">
<svg version="1.1" xmlns="http://www.w3.org/2000/svg" xmlns:xlink="http://www.w3.org/1999/xlink" preserveAspectRatio="xMidYMid meet" viewBox="0 0 640 640" width="640" height="640"><defs><path d="M576.88 337.87C576.88 494.85 449.43 622.3 292.44 622.3C135.45 622.3 8 494.85 8 337.87C8 180.88 135.45 53.43 292.44 53.43C449.43 53.43 576.88 180.88 576.88 337.87Z" id="b22Rzcveg"></path><path d="M292.44 52.43L292.44 36.86L292.44 28.43" id="a77Q3PZpDV"></path><path d="M56.8 139.84L99.82 102.16L102.94 104.74L59.92 142.42L56.8 139.84Z" id="b18wdmpTbN"></path><path d="M92.37 134.29L87.58 129.29L80.87 122.29" id="b1EodgJYN"></path><path d="M307.44 339C307.44 347.28 300.72 354 292.44 354C284.16 354 277.44 347.28 277.44 339C277.44 330.72 284.16 324 292.44 324C300.72 324 307.44 330.72 307.44 339Z" id="bfnWLDO8D"></path><path d="M292.44 107.93L292.44 90.55L292.44 75.69" id="a7dKgxDHye"></path><path d="M292.44 598.87L292.44 580.98L292.44 565.69" id="aw6vf4rPJ"></path><path d="M69.98 339L33.16 339" id="a8KBEzFOgY"></path><path d="M548.89 339L512.07 339" id="byoLzTlEs"></path><path d="M255.9 24.43L328.98 24.43L328.98 28.43L255.9 28.43L255.9 24.43Z" id="c1hnhuc18V"></path><path d="M292.44 322.29L292.44 214.48L292.44 122.29" id="a2cWJJcLrC"></path><path d="M370.45 66.01C444.83 71.73 557.22 164.84 557.22 239.51C557.22 244.17 559.37 251.52 562.24 256.02C566.72 263.07 564.62 267.2 567.12 274.12C572.46 288.87 568.52 303.67 573.34 320C575.39 326.94 586.3 335.86 576.88 339C557.35 345.51 577.68 330.67 576.88 339C576.63 341.58 552.21 340.06 532.73 340.19C489.37 340.47 429.02 339 420.32 339C399.67 339 326.35 338.94 308.94 339C291.53 339.06 319.5 338.65 307.44 332.33C284.93 320.55 289.82 331.92 292.44 303.5C293.18 295.48 293.94 334.18 293.94 325.5C293.94 302.95 294.51 111.85 292.72 59.83C292.64 57.38 292.54 55.24 292.44 53.43C290.54 19.88 279.9 53.51 304 54.75C328.09 56 331.44 56.55 356.09 63.73C360.28 64.95 394.73 75.69 399.48 75.69C402.09 75.69 367.75 65.8 370.45 66.01Z" id="a6hrfmgmjv"></path></defs><g><g><g><g><use xlink:href="#b22Rzcveg" opacity="1" fill-opacity="0" stroke="#600060" stroke-width="10" stroke-opacity="1"></use></g></g><g><g><use xlink:href="#a77Q3PZpDV" opacity="1" fill-opacity="0" stroke="#600060" stroke-width="16" stroke-opacity="1"></use></g></g><g><use xlink:href="#b18wdmpTbN" opacity="1" fill="#600060" fill-opacity="1"></use><g><use xlink:href="#b18wdmpTbN" opacity="1" fill-opacity="0" stroke="#600060" stroke-width="11" stroke-opacity="1"></use></g></g><g><g><use xlink:href="#b1EodgJYN" opacity="1" fill-opacity="0" stroke="#600060" stroke-width="17" stroke-opacity="1"></use></g></g><g><use xlink:href="#bfnWLDO8D" opacity="1" fill="#f5f5f5" fill-opacity="1"></use><g><use xlink:href="#bfnWLDO8D" opacity="1" fill-opacity="0" stroke="#600060" stroke-width="7" stroke-opacity="1"></use></g></g><g><g><use xlink:href="#a7dKgxDHye" opacity="1" fill-opacity="0" stroke="#600060" stroke-width="6" stroke-opacity="1"></use></g></g><g><g><use xlink:href="#aw6vf4rPJ" opacity="1" fill-opacity="0" stroke="#600060" stroke-width="6" stroke-opacity="1"></use></g></g><g><g><use xlink:href="#a8KBEzFOgY" opacity="1" fill-opacity="0" stroke="#600060" stroke-width="6" stroke-opacity="1"></use></g></g><g><g><use xlink:href="#byoLzTlEs" opacity="1" fill-opacity="0" stroke="#600060" stroke-width="6" stroke-opacity="1"></use></g></g><g><use xlink:href="#c1hnhuc18V" opacity="1" fill="#600060" fill-opacity="1"></use><g><use xlink:href="#c1hnhuc18V" opacity="1" fill-opacity="0" stroke="#600060" stroke-width="8" stroke-opacity="1"></use></g></g><g><g><use xlink:href="#a2cWJJcLrC" opacity="1" fill-opacity="0" stroke="#600060" stroke-width="3" stroke-opacity="1"></use></g></g><g><use xlink:href="#a6hrfmgmjv" opacity="0.35" fill="#600060" fill-opacity="1"></use></g></g></g></svg>