<svg xmlns="http://www.w3.org/2000/svg" xmlns:xlink="http://www.w3.org/1999/xlink" width="640" height="640"><defs><path d="M576.88 337.87c0 156.98-127.45 284.43-284.44 284.43S8 494.85 8 337.87C8 180.88 135.45 53.43 292.44 53.43s284.44 127.45 284.44 284.44z" id="a"/><path d="M292.44 52.43v-24" id="b"/><path d="M56.8 139.84l43.02-37.68 3.12 2.58-43.02 37.68-3.12-2.58z" id="c"/><path d="M92.37 134.29l-4.79-5-6.71-7" id="d"/><path d="M307.44 339c0 8.28-6.72 15-15 15-8.28 0-15-6.72-15-15 0-8.28 6.72-15 15-15 8.28 0 15 6.72 15 15z" id="e"/><path d="M292.44 107.93V75.69" id="f"/><path d="M292.44 598.87v-33.18" id="g"/><path d="M69.98 339H33.16" id="h"/><path d="M548.89 339h-36.82" id="i"/><path d="M255.9 24.43h73.08v4H255.9v-4z" id="j"/><path d="M292.44 322.29v-200" id="k"/><path d="M370.45 66.01c74.38 5.72 186.77 98.83 186.77 173.5 0 4.66 2.15 12.01 5.02 16.51 4.48 7.05 2.38 11.18 4.88 18.1 5.34 14.75 1.4 29.55 6.22 45.88 2.05 6.94 12.96 15.86 3.54 19-19.53 6.51.8-8.33 0 0-.25 2.58-24.67 1.06-44.15 1.19-43.36.28-103.71-1.19-112.41-1.19-20.65 0-93.97-.06-111.38 0-17.41.06 10.56-.35-1.5-6.67-22.51-11.78-17.62-.41-15-28.83.74-8.02 1.5 30.68 1.5 22 0-22.55.57-213.65-1.22-265.67-.08-2.45-.18-4.59-.28-6.4-1.9-33.55-12.54.08 11.56 1.32 24.09 1.25 27.44 1.8 52.09 8.98 4.19 1.22 38.64 11.96 43.39 11.96 2.61 0-31.73-9.89-29.03-9.68z" id="l"/></defs><use xlink:href="#a" fill-opacity="0" stroke="#600060" stroke-width="10"/><use xlink:href="#b" fill-opacity="0" stroke="#600060" stroke-width="16"/><use xlink:href="#c" fill="#600060"/><use xlink:href="#c" fill-opacity="0" stroke="#600060" stroke-width="11"/><use xlink:href="#d" fill-opacity="0" stroke="#600060" stroke-width="17"/><use xlink:href="#e" fill="#f5f5f5"/><use xlink:href="#e" fill-opacity="0" stroke="#600060" stroke-width="7"/><use xlink:href="#f" fill-opacity="0" stroke="#600060" stroke-width="6"/><use xlink:href="#g" fill-opacity="0" stroke="#600060" stroke-width="6"/><use xlink:href="#h" fill-opacity="0" stroke="#600060" stroke-width="6"/><use xlink:href="#i" fill-opacity="0" stroke="#600060" stroke-width="6"/><use xlink:href="#j" fill="#600060"/><use xlink:href="#j" fill-opacity="0" stroke="#600060" stroke-width="8"/><g><use xlink:href="#k" fill-opacity="0" stroke="#600060" stroke-width="3"/></g><g><use xlink:href="#l" opacity=".35" fill="#600060"/></g></svg>